G04*
G04 #@! TF.GenerationSoftware,Altium Limited,Altium Designer,22.6.1 (34)*
G04*
G04 Layer_Physical_Order=2*
G04 Layer_Color=16711680*
%FSAX44Y44*%
%MOMM*%
G71*
G04*
G04 #@! TF.SameCoordinates,3ED828DF-7C99-4F06-8B8B-480B9A04C0B7*
G04*
G04*
G04 #@! TF.FilePolarity,Positive*
G04*
G01*
G75*
%ADD14C,0.4000*%
%ADD53C,1.7000*%
%ADD54R,1.7000X1.7000*%
%ADD64C,0.3000*%
%ADD65C,0.5000*%
%ADD67R,1.5000X1.5000*%
%ADD68C,1.5000*%
%ADD69C,1.6000*%
%ADD70R,1.6000X1.6000*%
%ADD71C,6.0000*%
%ADD72R,1.7000X1.7000*%
%ADD73C,0.8000*%
%ADD74C,0.5080*%
G36*
X01626529Y01150604D02*
X01626157Y01150450D01*
X01621863Y01147819D01*
X01618033Y01144547D01*
X01614761Y01140717D01*
X01612130Y01136423D01*
X01610202Y01131769D01*
X01609026Y01126871D01*
X01608631Y01121850D01*
X01609026Y01116829D01*
X01610202Y01111931D01*
X01612130Y01107277D01*
X01614761Y01102983D01*
X01618033Y01099153D01*
X01621863Y01095881D01*
X01626157Y01093250D01*
X01630811Y01091322D01*
X01635709Y01090146D01*
X01640730Y01089751D01*
X01645751Y01090146D01*
X01650649Y01091322D01*
X01655303Y01093250D01*
X01659597Y01095881D01*
X01663427Y01099153D01*
X01666699Y01102983D01*
X01669330Y01107277D01*
X01669484Y01107649D01*
X01670730Y01107401D01*
Y00556299D01*
X01669484Y00556051D01*
X01669330Y00556423D01*
X01666699Y00560717D01*
X01663427Y00564547D01*
X01659597Y00567819D01*
X01655303Y00570450D01*
X01650649Y00572378D01*
X01645751Y00573554D01*
X01640730Y00573949D01*
X01635709Y00573554D01*
X01630811Y00572378D01*
X01626157Y00570450D01*
X01621863Y00567819D01*
X01618033Y00564547D01*
X01614761Y00560717D01*
X01612130Y00556423D01*
X01610202Y00551769D01*
X01609026Y00546871D01*
X01608631Y00541850D01*
X01609026Y00536829D01*
X01610202Y00531931D01*
X01612130Y00527277D01*
X01614761Y00522983D01*
X01618033Y00519153D01*
X01621863Y00515881D01*
X01626157Y00513250D01*
X01626529Y00513096D01*
X01626281Y00511850D01*
X01165179D01*
X01164931Y00513096D01*
X01165303Y00513250D01*
X01169597Y00515881D01*
X01173427Y00519153D01*
X01176699Y00522983D01*
X01179330Y00527277D01*
X01181258Y00531931D01*
X01182434Y00536829D01*
X01182829Y00541850D01*
X01182434Y00546871D01*
X01181258Y00551769D01*
X01179330Y00556423D01*
X01176699Y00560717D01*
X01173427Y00564547D01*
X01169597Y00567819D01*
X01165303Y00570450D01*
X01160649Y00572378D01*
X01155751Y00573554D01*
X01150730Y00573949D01*
X01145709Y00573554D01*
X01140811Y00572378D01*
X01136157Y00570450D01*
X01131863Y00567819D01*
X01128033Y00564547D01*
X01124761Y00560717D01*
X01122130Y00556423D01*
X01121976Y00556051D01*
X01120730Y00556299D01*
Y01107401D01*
X01121976Y01107649D01*
X01122130Y01107277D01*
X01124761Y01102983D01*
X01128033Y01099153D01*
X01131863Y01095881D01*
X01136157Y01093250D01*
X01140811Y01091322D01*
X01145709Y01090146D01*
X01150730Y01089751D01*
X01155751Y01090146D01*
X01160649Y01091322D01*
X01165303Y01093250D01*
X01169597Y01095881D01*
X01173427Y01099153D01*
X01176699Y01102983D01*
X01179330Y01107277D01*
X01181258Y01111931D01*
X01182434Y01116829D01*
X01182829Y01121850D01*
X01182434Y01126871D01*
X01181258Y01131769D01*
X01179330Y01136423D01*
X01176699Y01140717D01*
X01173427Y01144547D01*
X01169597Y01147819D01*
X01165303Y01150450D01*
X01164931Y01150604D01*
X01165179Y01151850D01*
X01626281D01*
X01626529Y01150604D01*
D02*
G37*
%LPC*%
G36*
X01164700Y01084118D02*
Y01074420D01*
X01174398D01*
X01174186Y01076032D01*
X01173073Y01078718D01*
X01171304Y01081024D01*
X01168998Y01082793D01*
X01166312Y01083906D01*
X01164700Y01084118D01*
D02*
G37*
G36*
X01162160Y01084118D02*
X01160548Y01083906D01*
X01157862Y01082793D01*
X01155556Y01081024D01*
X01153787Y01078718D01*
X01152674Y01076032D01*
X01152462Y01074420D01*
X01162160D01*
Y01084118D01*
D02*
G37*
G36*
X01482789Y01091620D02*
X01463790D01*
Y01072620D01*
X01482789D01*
Y01091620D01*
D02*
G37*
G36*
X01498689Y01091702D02*
X01496210Y01091376D01*
X01493898Y01090418D01*
X01491914Y01088895D01*
X01490391Y01086911D01*
X01489434Y01084600D01*
X01489108Y01082120D01*
X01489434Y01079640D01*
X01490391Y01077329D01*
X01491914Y01075345D01*
X01493898Y01073822D01*
X01496210Y01072865D01*
X01498689Y01072538D01*
X01501169Y01072865D01*
X01503480Y01073822D01*
X01505465Y01075345D01*
X01506988Y01077329D01*
X01507945Y01079640D01*
X01508271Y01082120D01*
X01507945Y01084600D01*
X01506988Y01086911D01*
X01505465Y01088895D01*
X01503480Y01090418D01*
X01501169Y01091376D01*
X01498689Y01091702D01*
D02*
G37*
G36*
X01240480Y01076226D02*
X01238139Y01075760D01*
X01236154Y01074434D01*
X01234828Y01072449D01*
X01234362Y01070108D01*
X01234828Y01067767D01*
X01236154Y01065782D01*
X01238139Y01064456D01*
X01240480Y01063991D01*
X01242821Y01064456D01*
X01244806Y01065782D01*
X01246132Y01067767D01*
X01246598Y01070108D01*
X01246132Y01072449D01*
X01244806Y01074434D01*
X01242821Y01075760D01*
X01240480Y01076226D01*
D02*
G37*
G36*
X01138030Y01083741D02*
X01135289Y01083380D01*
X01132735Y01082322D01*
X01130541Y01080639D01*
X01128858Y01078445D01*
X01127800Y01075891D01*
X01127439Y01073150D01*
X01127800Y01070409D01*
X01128858Y01067855D01*
X01130541Y01065661D01*
X01132735Y01063978D01*
X01135289Y01062920D01*
X01138030Y01062559D01*
X01140771Y01062920D01*
X01143325Y01063978D01*
X01145519Y01065661D01*
X01147202Y01067855D01*
X01148260Y01070409D01*
X01148621Y01073150D01*
X01148260Y01075891D01*
X01147202Y01078445D01*
X01145519Y01080639D01*
X01143325Y01082322D01*
X01140771Y01083380D01*
X01138030Y01083741D01*
D02*
G37*
G36*
X01174398Y01071880D02*
X01164700D01*
Y01062182D01*
X01166312Y01062394D01*
X01168998Y01063507D01*
X01171304Y01065276D01*
X01173073Y01067582D01*
X01174186Y01070268D01*
X01174398Y01071880D01*
D02*
G37*
G36*
X01162160D02*
X01152462D01*
X01152674Y01070268D01*
X01153787Y01067582D01*
X01155556Y01065276D01*
X01157862Y01063507D01*
X01160548Y01062394D01*
X01162160Y01062182D01*
Y01071880D01*
D02*
G37*
G36*
X01499959Y01066680D02*
Y01057990D01*
X01508649D01*
X01508471Y01059341D01*
X01507459Y01061783D01*
X01505850Y01063881D01*
X01503753Y01065490D01*
X01501310Y01066502D01*
X01499959Y01066680D01*
D02*
G37*
G36*
X01497419Y01066679D02*
X01496069Y01066502D01*
X01493626Y01065490D01*
X01491529Y01063881D01*
X01489919Y01061783D01*
X01488908Y01059341D01*
X01488730Y01057990D01*
X01497419D01*
Y01066679D01*
D02*
G37*
G36*
X01267980Y01049419D02*
X01218987D01*
X01217622Y01049147D01*
X01216464Y01048373D01*
X01215838Y01047747D01*
X01214730Y01047968D01*
X01212389Y01047502D01*
X01210404Y01046176D01*
X01209078Y01044191D01*
X01208613Y01041850D01*
X01209078Y01039509D01*
X01210404Y01037524D01*
X01212389Y01036198D01*
X01214730Y01035732D01*
X01217071Y01036198D01*
X01219056Y01037524D01*
X01220382Y01039509D01*
X01220847Y01041850D01*
X01221202Y01042281D01*
X01266502D01*
X01267540Y01041243D01*
X01267363Y01040350D01*
X01267828Y01038009D01*
X01269154Y01036024D01*
X01271139Y01034698D01*
X01273480Y01034232D01*
X01275821Y01034698D01*
X01277806Y01036024D01*
X01279132Y01038009D01*
X01279597Y01040350D01*
X01279132Y01042691D01*
X01277806Y01044676D01*
X01275821Y01046002D01*
X01273480Y01046468D01*
X01272587Y01046290D01*
X01270503Y01048373D01*
X01269346Y01049147D01*
X01267980Y01049419D01*
D02*
G37*
G36*
X01473289Y01066302D02*
X01470809Y01065975D01*
X01468499Y01065018D01*
X01466514Y01063495D01*
X01464991Y01061511D01*
X01464034Y01059200D01*
X01463707Y01056720D01*
X01464034Y01054240D01*
X01464991Y01051929D01*
X01466514Y01049945D01*
X01468499Y01048422D01*
X01470809Y01047465D01*
X01473289Y01047138D01*
X01475769Y01047465D01*
X01478080Y01048422D01*
X01480065Y01049945D01*
X01481588Y01051929D01*
X01482545Y01054240D01*
X01482871Y01056720D01*
X01482545Y01059200D01*
X01481588Y01061511D01*
X01480065Y01063495D01*
X01478080Y01065018D01*
X01475769Y01065975D01*
X01473289Y01066302D01*
D02*
G37*
G36*
X01497419Y01055450D02*
X01488730D01*
X01488908Y01054099D01*
X01489919Y01051657D01*
X01491529Y01049559D01*
X01493626Y01047950D01*
X01496069Y01046938D01*
X01497419Y01046761D01*
Y01055450D01*
D02*
G37*
G36*
X01508649D02*
X01499959D01*
Y01046761D01*
X01501310Y01046938D01*
X01503753Y01047950D01*
X01505850Y01049559D01*
X01507459Y01051657D01*
X01508471Y01054099D01*
X01508649Y01055450D01*
D02*
G37*
G36*
X01163430Y01058341D02*
X01160689Y01057980D01*
X01158135Y01056922D01*
X01155941Y01055239D01*
X01154258Y01053045D01*
X01153200Y01050491D01*
X01152839Y01047750D01*
X01153200Y01045009D01*
X01154258Y01042455D01*
X01155941Y01040261D01*
X01158135Y01038578D01*
X01160689Y01037520D01*
X01163430Y01037159D01*
X01166171Y01037520D01*
X01168725Y01038578D01*
X01170919Y01040261D01*
X01172602Y01042455D01*
X01173660Y01045009D01*
X01174021Y01047750D01*
X01173660Y01050491D01*
X01172602Y01053045D01*
X01170919Y01055239D01*
X01168725Y01056922D01*
X01166171Y01057980D01*
X01163430Y01058341D01*
D02*
G37*
G36*
X01138030D02*
X01135289Y01057980D01*
X01132735Y01056922D01*
X01130541Y01055239D01*
X01128858Y01053045D01*
X01127800Y01050491D01*
X01127439Y01047750D01*
X01127800Y01045009D01*
X01128858Y01042455D01*
X01130541Y01040261D01*
X01132735Y01038578D01*
X01135289Y01037520D01*
X01138030Y01037159D01*
X01140771Y01037520D01*
X01143325Y01038578D01*
X01145519Y01040261D01*
X01147202Y01042455D01*
X01148260Y01045009D01*
X01148621Y01047750D01*
X01148260Y01050491D01*
X01147202Y01053045D01*
X01145519Y01055239D01*
X01143325Y01056922D01*
X01140771Y01057980D01*
X01138030Y01058341D01*
D02*
G37*
G36*
X01499959Y01041280D02*
Y01032590D01*
X01508649D01*
X01508471Y01033941D01*
X01507459Y01036383D01*
X01505850Y01038481D01*
X01503753Y01040090D01*
X01501310Y01041102D01*
X01499959Y01041280D01*
D02*
G37*
G36*
X01497419Y01041279D02*
X01496069Y01041102D01*
X01493626Y01040090D01*
X01491529Y01038481D01*
X01489919Y01036383D01*
X01488908Y01033941D01*
X01488730Y01032590D01*
X01497419D01*
Y01041279D01*
D02*
G37*
G36*
X01473289Y01040902D02*
X01470809Y01040575D01*
X01468499Y01039618D01*
X01466514Y01038095D01*
X01464991Y01036111D01*
X01464034Y01033800D01*
X01463707Y01031320D01*
X01464034Y01028840D01*
X01464991Y01026529D01*
X01466514Y01024545D01*
X01468499Y01023022D01*
X01470809Y01022065D01*
X01473289Y01021738D01*
X01475769Y01022065D01*
X01478080Y01023022D01*
X01480065Y01024545D01*
X01481588Y01026529D01*
X01482545Y01028840D01*
X01482871Y01031320D01*
X01482545Y01033800D01*
X01481588Y01036111D01*
X01480065Y01038095D01*
X01478080Y01039618D01*
X01475769Y01040575D01*
X01473289Y01040902D01*
D02*
G37*
G36*
X01497419Y01030050D02*
X01488730D01*
X01488908Y01028699D01*
X01489919Y01026257D01*
X01491529Y01024159D01*
X01493626Y01022550D01*
X01496069Y01021538D01*
X01497419Y01021361D01*
Y01030050D01*
D02*
G37*
G36*
X01508649D02*
X01499959D01*
Y01021361D01*
X01501310Y01021538D01*
X01503753Y01022550D01*
X01505850Y01024159D01*
X01507459Y01026257D01*
X01508471Y01028699D01*
X01508649Y01030050D01*
D02*
G37*
G36*
X01635730Y01027968D02*
X01633389Y01027502D01*
X01631404Y01026176D01*
X01630243Y01024438D01*
X01617730D01*
X01615974Y01024089D01*
X01614486Y01023094D01*
X01589830Y00998438D01*
X01565663D01*
X01564071Y00999502D01*
X01561730Y00999967D01*
X01559389Y00999502D01*
X01557404Y00998176D01*
X01556078Y00996191D01*
X01555612Y00993850D01*
X01556078Y00991509D01*
X01557404Y00989524D01*
X01559389Y00988198D01*
X01561730Y00987732D01*
X01564071Y00988198D01*
X01565663Y00989262D01*
X01591730D01*
X01593486Y00989611D01*
X01594231Y00990109D01*
X01595213Y00989342D01*
X01595267Y00989274D01*
X01595029Y00987470D01*
X01595270Y00985643D01*
X01595975Y00983940D01*
X01597097Y00982478D01*
X01597780Y00981954D01*
X01597728Y00980392D01*
X01597404Y00980176D01*
X01596230Y00978419D01*
X01558562D01*
X01558056Y00979176D01*
X01556071Y00980502D01*
X01553730Y00980967D01*
X01551389Y00980502D01*
X01549404Y00979176D01*
X01548078Y00977191D01*
X01547612Y00974850D01*
X01548078Y00972509D01*
X01549404Y00970524D01*
X01551389Y00969198D01*
X01553730Y00968733D01*
X01556071Y00969198D01*
X01558056Y00970524D01*
X01558562Y00971281D01*
X01597768D01*
X01599389Y00970198D01*
X01601730Y00969733D01*
X01604071Y00970198D01*
X01606056Y00971524D01*
X01607382Y00973509D01*
X01607848Y00975850D01*
X01607382Y00978191D01*
X01606056Y00980176D01*
X01605968Y00980234D01*
X01606065Y00981697D01*
X01607082Y00982478D01*
X01608204Y00983940D01*
X01608909Y00985643D01*
X01609150Y00987470D01*
X01608909Y00989297D01*
X01608204Y00991000D01*
X01607082Y00992462D01*
X01605620Y00993585D01*
X01603917Y00994290D01*
X01602089Y00994530D01*
X01600484Y00994319D01*
X01600064Y00994829D01*
X01599832Y00995463D01*
X01619630Y01015262D01*
X01632918D01*
X01634674Y01015611D01*
X01635056Y01015866D01*
X01635730Y01015732D01*
X01638071Y01016198D01*
X01640056Y01017524D01*
X01641382Y01019509D01*
X01641848Y01021850D01*
X01641382Y01024191D01*
X01640056Y01026176D01*
X01638071Y01027502D01*
X01635730Y01027968D01*
D02*
G37*
G36*
X01163430Y01032941D02*
X01160689Y01032580D01*
X01158135Y01031522D01*
X01155941Y01029839D01*
X01154258Y01027645D01*
X01153200Y01025091D01*
X01152839Y01022350D01*
X01153200Y01019609D01*
X01154258Y01017055D01*
X01155941Y01014861D01*
X01158135Y01013178D01*
X01160689Y01012120D01*
X01163430Y01011759D01*
X01166171Y01012120D01*
X01168725Y01013178D01*
X01170919Y01014861D01*
X01172602Y01017055D01*
X01173660Y01019609D01*
X01174021Y01022350D01*
X01173660Y01025091D01*
X01172602Y01027645D01*
X01170919Y01029839D01*
X01168725Y01031522D01*
X01166171Y01032580D01*
X01163430Y01032941D01*
D02*
G37*
G36*
X01138030D02*
X01135289Y01032580D01*
X01132735Y01031522D01*
X01130541Y01029839D01*
X01128858Y01027645D01*
X01127800Y01025091D01*
X01127439Y01022350D01*
X01127800Y01019609D01*
X01128858Y01017055D01*
X01130541Y01014861D01*
X01132735Y01013178D01*
X01135289Y01012120D01*
X01138030Y01011759D01*
X01140771Y01012120D01*
X01143325Y01013178D01*
X01145519Y01014861D01*
X01147202Y01017055D01*
X01148260Y01019609D01*
X01148621Y01022350D01*
X01148260Y01025091D01*
X01147202Y01027645D01*
X01145519Y01029839D01*
X01143325Y01031522D01*
X01140771Y01032580D01*
X01138030Y01032941D01*
D02*
G37*
G36*
X01499959Y01015880D02*
Y01007190D01*
X01508649D01*
X01508471Y01008541D01*
X01507459Y01010983D01*
X01505850Y01013081D01*
X01503753Y01014690D01*
X01501310Y01015702D01*
X01499959Y01015880D01*
D02*
G37*
G36*
X01497419Y01015879D02*
X01496069Y01015702D01*
X01493626Y01014690D01*
X01491529Y01013081D01*
X01489919Y01010983D01*
X01488908Y01008541D01*
X01488730Y01007190D01*
X01497419D01*
Y01015879D01*
D02*
G37*
G36*
X01139300Y01007918D02*
Y00998220D01*
X01148998D01*
X01148786Y00999832D01*
X01147673Y01002518D01*
X01145904Y01004824D01*
X01143598Y01006593D01*
X01140912Y01007706D01*
X01139300Y01007918D01*
D02*
G37*
G36*
X01136760Y01007918D02*
X01135148Y01007706D01*
X01132462Y01006593D01*
X01130156Y01004824D01*
X01128387Y01002518D01*
X01127274Y00999832D01*
X01127062Y00998220D01*
X01136760D01*
Y01007918D01*
D02*
G37*
G36*
X01451730Y01032968D02*
X01449389Y01032502D01*
X01447404Y01031176D01*
X01446078Y01029191D01*
X01445612Y01026850D01*
X01446078Y01024509D01*
X01447404Y01022524D01*
X01449389Y01021198D01*
X01451730Y01020732D01*
X01452886Y01020962D01*
X01464448Y01009400D01*
X01464034Y01008400D01*
X01463707Y01005920D01*
X01464034Y01003440D01*
X01464991Y01001129D01*
X01466514Y00999145D01*
X01468499Y00997622D01*
X01470809Y00996665D01*
X01473289Y00996338D01*
X01475769Y00996665D01*
X01478080Y00997622D01*
X01480065Y00999145D01*
X01481588Y01001129D01*
X01482545Y01003440D01*
X01482871Y01005920D01*
X01482545Y01008400D01*
X01481588Y01010711D01*
X01480065Y01012695D01*
X01478080Y01014218D01*
X01475769Y01015175D01*
X01473289Y01015502D01*
X01470809Y01015175D01*
X01469364Y01014577D01*
X01457722Y01026219D01*
X01457848Y01026850D01*
X01457382Y01029191D01*
X01456056Y01031176D01*
X01454071Y01032502D01*
X01451730Y01032968D01*
D02*
G37*
G36*
X01497419Y01004650D02*
X01488730D01*
X01488908Y01003299D01*
X01489919Y01000857D01*
X01491529Y00998759D01*
X01493626Y00997150D01*
X01496069Y00996138D01*
X01497419Y00995961D01*
Y01004650D01*
D02*
G37*
G36*
X01508649D02*
X01499959D01*
Y00995961D01*
X01501310Y00996138D01*
X01503753Y00997150D01*
X01505850Y00998759D01*
X01507459Y01000857D01*
X01508471Y01003299D01*
X01508649Y01004650D01*
D02*
G37*
G36*
X01273480Y00991468D02*
X01271139Y00991002D01*
X01269154Y00989676D01*
X01268147Y00988169D01*
X01244810D01*
X01244806Y00988176D01*
X01242821Y00989502D01*
X01240480Y00989967D01*
X01238139Y00989502D01*
X01236154Y00988176D01*
X01234828Y00986191D01*
X01234362Y00983850D01*
X01234828Y00981509D01*
X01236154Y00979524D01*
X01238139Y00978198D01*
X01240480Y00977732D01*
X01242821Y00978198D01*
X01244806Y00979524D01*
X01245813Y00981031D01*
X01269149D01*
X01269154Y00981024D01*
X01271139Y00979698D01*
X01273480Y00979232D01*
X01275821Y00979698D01*
X01277806Y00981024D01*
X01279132Y00983009D01*
X01279597Y00985350D01*
X01279132Y00987691D01*
X01277806Y00989676D01*
X01275821Y00991002D01*
X01273480Y00991468D01*
D02*
G37*
G36*
X01163430Y01007541D02*
X01160689Y01007180D01*
X01158135Y01006122D01*
X01155941Y01004439D01*
X01154258Y01002245D01*
X01153200Y00999691D01*
X01152839Y00996950D01*
X01153200Y00994209D01*
X01154258Y00991655D01*
X01155941Y00989461D01*
X01158135Y00987778D01*
X01160689Y00986720D01*
X01163430Y00986359D01*
X01166171Y00986720D01*
X01168725Y00987778D01*
X01170919Y00989461D01*
X01172602Y00991655D01*
X01173660Y00994209D01*
X01174021Y00996950D01*
X01173660Y00999691D01*
X01172602Y01002245D01*
X01170919Y01004439D01*
X01168725Y01006122D01*
X01166171Y01007180D01*
X01163430Y01007541D01*
D02*
G37*
G36*
X01344730Y01024967D02*
X01342389Y01024502D01*
X01340404Y01023176D01*
X01339078Y01021191D01*
X01338613Y01018850D01*
X01339078Y01016509D01*
X01340404Y01014524D01*
X01342389Y01013198D01*
X01344730Y01012732D01*
X01345623Y01012910D01*
X01347161Y01011372D01*
Y00996682D01*
X01346404Y00996176D01*
X01345078Y00994191D01*
X01344612Y00991850D01*
X01345078Y00989509D01*
X01346404Y00987524D01*
X01348389Y00986198D01*
X01350730Y00985732D01*
X01353071Y00986198D01*
X01355056Y00987524D01*
X01356382Y00989509D01*
X01356848Y00991850D01*
X01356382Y00994191D01*
X01355056Y00996176D01*
X01354299Y00996682D01*
Y01012850D01*
X01354027Y01014216D01*
X01353253Y01015373D01*
X01350670Y01017957D01*
X01350848Y01018850D01*
X01350382Y01021191D01*
X01349056Y01023176D01*
X01347071Y01024502D01*
X01344730Y01024967D01*
D02*
G37*
G36*
X01499959Y00990480D02*
Y00981790D01*
X01508649D01*
X01508471Y00983141D01*
X01507459Y00985583D01*
X01505850Y00987681D01*
X01503753Y00989290D01*
X01501310Y00990302D01*
X01499959Y00990480D01*
D02*
G37*
G36*
X01497419Y00990479D02*
X01496069Y00990302D01*
X01493626Y00989290D01*
X01491529Y00987681D01*
X01489919Y00985583D01*
X01488908Y00983141D01*
X01488730Y00981790D01*
X01497419D01*
Y00990479D01*
D02*
G37*
G36*
X01473289Y00990102D02*
X01470809Y00989775D01*
X01468499Y00988818D01*
X01466514Y00987296D01*
X01464991Y00985311D01*
X01464034Y00983000D01*
X01463707Y00980520D01*
X01464034Y00978040D01*
X01464991Y00975729D01*
X01466514Y00973745D01*
X01468499Y00972222D01*
X01470809Y00971265D01*
X01473289Y00970938D01*
X01475769Y00971265D01*
X01478080Y00972222D01*
X01480065Y00973745D01*
X01481588Y00975729D01*
X01482545Y00978040D01*
X01482871Y00980520D01*
X01482545Y00983000D01*
X01481588Y00985311D01*
X01480065Y00987296D01*
X01478080Y00988818D01*
X01475769Y00989775D01*
X01473289Y00990102D01*
D02*
G37*
G36*
X01497419Y00979250D02*
X01488730D01*
X01488908Y00977899D01*
X01489919Y00975457D01*
X01491529Y00973359D01*
X01493626Y00971750D01*
X01496069Y00970738D01*
X01497419Y00970561D01*
Y00979250D01*
D02*
G37*
G36*
X01508649D02*
X01499959D01*
Y00970561D01*
X01501310Y00970738D01*
X01503753Y00971750D01*
X01505850Y00973359D01*
X01507459Y00975457D01*
X01508471Y00977899D01*
X01508649Y00979250D01*
D02*
G37*
G36*
X01148998Y00995680D02*
X01138030D01*
X01127062D01*
X01127274Y00994068D01*
X01128387Y00991382D01*
X01130156Y00989076D01*
X01130596Y00988739D01*
X01130188Y00987536D01*
X01128848D01*
X01127482Y00987264D01*
X01126324Y00986491D01*
X01123207Y00983373D01*
X01122433Y00982216D01*
X01122161Y00980850D01*
Y00882250D01*
X01122433Y00880884D01*
X01123207Y00879727D01*
X01128515Y00874418D01*
X01127800Y00872691D01*
X01127439Y00869950D01*
X01127800Y00867209D01*
X01128858Y00864655D01*
X01130541Y00862461D01*
X01132735Y00860778D01*
X01135289Y00859720D01*
X01138030Y00859359D01*
X01140771Y00859720D01*
X01143325Y00860778D01*
X01145519Y00862461D01*
X01147202Y00864655D01*
X01148260Y00867209D01*
X01148621Y00869950D01*
X01148260Y00872691D01*
X01147202Y00875245D01*
X01145519Y00877439D01*
X01143325Y00879122D01*
X01140771Y00880180D01*
X01138030Y00880541D01*
X01135289Y00880180D01*
X01133562Y00879464D01*
X01129299Y00883728D01*
Y00887505D01*
X01130095Y00887776D01*
X01130569Y00887840D01*
X01132735Y00886178D01*
X01135289Y00885120D01*
X01138030Y00884759D01*
X01140771Y00885120D01*
X01143325Y00886178D01*
X01145519Y00887861D01*
X01147202Y00890055D01*
X01148260Y00892609D01*
X01148621Y00895350D01*
X01148260Y00898091D01*
X01147202Y00900645D01*
X01145519Y00902839D01*
X01143325Y00904522D01*
X01140771Y00905580D01*
X01138030Y00905941D01*
X01135289Y00905580D01*
X01132735Y00904522D01*
X01130569Y00902860D01*
X01130095Y00902924D01*
X01129299Y00903195D01*
Y00912905D01*
X01130095Y00913176D01*
X01130569Y00913240D01*
X01132735Y00911578D01*
X01135289Y00910520D01*
X01138030Y00910159D01*
X01140771Y00910520D01*
X01143325Y00911578D01*
X01145519Y00913261D01*
X01147202Y00915455D01*
X01148260Y00918009D01*
X01148621Y00920750D01*
X01148260Y00923491D01*
X01147202Y00926045D01*
X01145519Y00928239D01*
X01143325Y00929922D01*
X01140771Y00930980D01*
X01138030Y00931341D01*
X01135289Y00930980D01*
X01132735Y00929922D01*
X01130569Y00928260D01*
X01130095Y00928324D01*
X01129299Y00928595D01*
Y00937415D01*
X01130569Y00937960D01*
X01132462Y00936507D01*
X01135148Y00935394D01*
X01136760Y00935182D01*
Y00946150D01*
X01138030D01*
D01*
X01136760D01*
Y00957118D01*
X01135148Y00956906D01*
X01132462Y00955793D01*
X01130569Y00954340D01*
X01129299Y00954885D01*
Y00963705D01*
X01130095Y00963976D01*
X01130569Y00964040D01*
X01132735Y00962378D01*
X01135289Y00961320D01*
X01138030Y00960959D01*
X01140771Y00961320D01*
X01143325Y00962378D01*
X01145519Y00964061D01*
X01147202Y00966255D01*
X01148260Y00968809D01*
X01148621Y00971550D01*
X01148260Y00974291D01*
X01147202Y00976845D01*
X01146042Y00978356D01*
X01146922Y00979296D01*
X01148389Y00978316D01*
X01150730Y00977850D01*
X01153071Y00978316D01*
X01154538Y00979296D01*
X01155418Y00978356D01*
X01154258Y00976845D01*
X01153200Y00974291D01*
X01152839Y00971550D01*
X01153200Y00968809D01*
X01154258Y00966255D01*
X01155941Y00964061D01*
X01158135Y00962378D01*
X01160689Y00961320D01*
X01163430Y00960959D01*
X01166171Y00961320D01*
X01168725Y00962378D01*
X01170919Y00964061D01*
X01172602Y00966255D01*
X01173660Y00968809D01*
X01174021Y00971550D01*
X01173660Y00974291D01*
X01172602Y00976845D01*
X01170919Y00979039D01*
X01168725Y00980722D01*
X01166171Y00981780D01*
X01163430Y00982141D01*
X01160689Y00981780D01*
X01158135Y00980722D01*
X01156432Y00979415D01*
X01155492Y00980295D01*
X01156382Y00981626D01*
X01156848Y00983968D01*
X01156382Y00986309D01*
X01155056Y00988293D01*
X01153071Y00989619D01*
X01150730Y00990085D01*
X01148389Y00989619D01*
X01147430Y00988978D01*
X01146550Y00989918D01*
X01147673Y00991382D01*
X01148786Y00994068D01*
X01148998Y00995680D01*
D02*
G37*
G36*
X01602255Y00968442D02*
X01599914Y00967977D01*
X01597930Y00966650D01*
X01597426Y00965897D01*
X01581208D01*
X01579843Y00965625D01*
X01578685Y00964852D01*
X01574252Y00960419D01*
X01558562D01*
X01558056Y00961176D01*
X01556071Y00962502D01*
X01553730Y00962968D01*
X01551389Y00962502D01*
X01549404Y00961176D01*
X01548078Y00959191D01*
X01547612Y00956850D01*
X01548078Y00954509D01*
X01549404Y00952524D01*
X01551389Y00951198D01*
X01553730Y00950732D01*
X01556071Y00951198D01*
X01558056Y00952524D01*
X01558562Y00953281D01*
X01575730D01*
X01577096Y00953553D01*
X01578253Y00954327D01*
X01582686Y00958760D01*
X01597421D01*
X01597930Y00957999D01*
X01599224Y00957134D01*
X01599082Y00955701D01*
X01598559Y00955484D01*
X01597097Y00954362D01*
X01595975Y00952900D01*
X01595270Y00951197D01*
X01595029Y00949370D01*
X01595270Y00947543D01*
X01595975Y00945840D01*
X01597097Y00944378D01*
X01598559Y00943255D01*
X01600262Y00942550D01*
X01602089Y00942310D01*
X01603917Y00942550D01*
X01605620Y00943255D01*
X01607082Y00944378D01*
X01608204Y00945840D01*
X01608909Y00947543D01*
X01609150Y00949370D01*
X01608909Y00951197D01*
X01608204Y00952900D01*
X01607082Y00954362D01*
X01605620Y00955484D01*
X01605301Y00955617D01*
X01605160Y00957049D01*
X01606581Y00957999D01*
X01607907Y00959984D01*
X01608373Y00962325D01*
X01607907Y00964666D01*
X01606581Y00966650D01*
X01604597Y00967977D01*
X01602255Y00968442D01*
D02*
G37*
G36*
X01499959Y00965079D02*
Y00956390D01*
X01508649D01*
X01508471Y00957741D01*
X01507459Y00960183D01*
X01505850Y00962281D01*
X01503753Y00963890D01*
X01501310Y00964902D01*
X01499959Y00965079D01*
D02*
G37*
G36*
X01497419Y00965079D02*
X01496069Y00964902D01*
X01493626Y00963890D01*
X01491529Y00962281D01*
X01489919Y00960183D01*
X01488908Y00957741D01*
X01488730Y00956390D01*
X01497419D01*
Y00965079D01*
D02*
G37*
G36*
X01139300Y00957118D02*
Y00947420D01*
X01148998D01*
X01148786Y00949032D01*
X01147673Y00951718D01*
X01145904Y00954024D01*
X01143598Y00955793D01*
X01140912Y00956906D01*
X01139300Y00957118D01*
D02*
G37*
G36*
X01473289Y00964702D02*
X01470809Y00964376D01*
X01468499Y00963418D01*
X01466514Y00961896D01*
X01464991Y00959911D01*
X01464034Y00957600D01*
X01463707Y00955120D01*
X01464034Y00952640D01*
X01464991Y00950329D01*
X01466514Y00948345D01*
X01468499Y00946822D01*
X01470809Y00945865D01*
X01473289Y00945538D01*
X01475769Y00945865D01*
X01478080Y00946822D01*
X01480065Y00948345D01*
X01481588Y00950329D01*
X01482545Y00952640D01*
X01482871Y00955120D01*
X01482545Y00957600D01*
X01481588Y00959911D01*
X01480065Y00961896D01*
X01478080Y00963418D01*
X01475769Y00964376D01*
X01473289Y00964702D01*
D02*
G37*
G36*
X01497419Y00953850D02*
X01488730D01*
X01488908Y00952499D01*
X01489919Y00950057D01*
X01491529Y00947959D01*
X01493626Y00946350D01*
X01496069Y00945338D01*
X01497419Y00945161D01*
Y00953850D01*
D02*
G37*
G36*
X01508649D02*
X01499959D01*
Y00945161D01*
X01501310Y00945338D01*
X01503753Y00946350D01*
X01505850Y00947959D01*
X01507459Y00950057D01*
X01508471Y00952499D01*
X01508649Y00953850D01*
D02*
G37*
G36*
X01163430Y00956741D02*
X01160689Y00956380D01*
X01158135Y00955322D01*
X01155941Y00953639D01*
X01154258Y00951445D01*
X01153200Y00948891D01*
X01152839Y00946150D01*
X01153200Y00943409D01*
X01154258Y00940855D01*
X01155941Y00938661D01*
X01158135Y00936978D01*
X01160689Y00935920D01*
X01163430Y00935559D01*
X01166171Y00935920D01*
X01168725Y00936978D01*
X01170919Y00938661D01*
X01172602Y00940855D01*
X01173660Y00943409D01*
X01174021Y00946150D01*
X01173660Y00948891D01*
X01172602Y00951445D01*
X01170919Y00953639D01*
X01168725Y00955322D01*
X01166171Y00956380D01*
X01163430Y00956741D01*
D02*
G37*
G36*
X01148998Y00944880D02*
X01139300D01*
Y00935182D01*
X01140912Y00935394D01*
X01143598Y00936507D01*
X01145904Y00938276D01*
X01147673Y00940582D01*
X01148786Y00943268D01*
X01148998Y00944880D01*
D02*
G37*
G36*
X01499959Y00939679D02*
Y00930990D01*
X01508649D01*
X01508471Y00932341D01*
X01507459Y00934783D01*
X01505850Y00936881D01*
X01503753Y00938490D01*
X01501310Y00939502D01*
X01499959Y00939679D01*
D02*
G37*
G36*
X01497419Y00939679D02*
X01496069Y00939502D01*
X01493626Y00938490D01*
X01491529Y00936881D01*
X01489919Y00934783D01*
X01488908Y00932341D01*
X01488730Y00930990D01*
X01497419D01*
Y00939679D01*
D02*
G37*
G36*
X01473289Y00939302D02*
X01470809Y00938976D01*
X01468499Y00938018D01*
X01466514Y00936496D01*
X01464991Y00934511D01*
X01464034Y00932200D01*
X01463707Y00929720D01*
X01464034Y00927240D01*
X01464991Y00924929D01*
X01466514Y00922945D01*
X01468499Y00921422D01*
X01470809Y00920465D01*
X01473289Y00920138D01*
X01475769Y00920465D01*
X01478080Y00921422D01*
X01480065Y00922945D01*
X01481588Y00924929D01*
X01482545Y00927240D01*
X01482871Y00929720D01*
X01482545Y00932200D01*
X01481588Y00934511D01*
X01480065Y00936496D01*
X01478080Y00938018D01*
X01475769Y00938976D01*
X01473289Y00939302D01*
D02*
G37*
G36*
X01497419Y00928450D02*
X01488730D01*
X01488908Y00927099D01*
X01489919Y00924657D01*
X01491529Y00922559D01*
X01493626Y00920950D01*
X01496069Y00919938D01*
X01497419Y00919761D01*
Y00928450D01*
D02*
G37*
G36*
X01508649D02*
X01499959D01*
Y00919761D01*
X01501310Y00919938D01*
X01503753Y00920950D01*
X01505850Y00922559D01*
X01507459Y00924657D01*
X01508471Y00927099D01*
X01508649Y00928450D01*
D02*
G37*
G36*
X01163430Y00931341D02*
X01160689Y00930980D01*
X01158135Y00929922D01*
X01155941Y00928239D01*
X01154258Y00926045D01*
X01153200Y00923491D01*
X01152839Y00920750D01*
X01153200Y00918009D01*
X01154258Y00915455D01*
X01155941Y00913261D01*
X01158135Y00911578D01*
X01160689Y00910520D01*
X01163430Y00910159D01*
X01166171Y00910520D01*
X01168725Y00911578D01*
X01170919Y00913261D01*
X01172602Y00915455D01*
X01173660Y00918009D01*
X01174021Y00920750D01*
X01173660Y00923491D01*
X01172602Y00926045D01*
X01170919Y00928239D01*
X01168725Y00929922D01*
X01166171Y00930980D01*
X01163430Y00931341D01*
D02*
G37*
G36*
X01499959Y00914279D02*
Y00905590D01*
X01508649D01*
X01508471Y00906941D01*
X01507459Y00909383D01*
X01505850Y00911481D01*
X01503753Y00913090D01*
X01501310Y00914102D01*
X01499959Y00914279D01*
D02*
G37*
G36*
X01497419Y00914279D02*
X01496069Y00914102D01*
X01493626Y00913090D01*
X01491529Y00911481D01*
X01489919Y00909383D01*
X01488908Y00906941D01*
X01488730Y00905590D01*
X01497419D01*
Y00914279D01*
D02*
G37*
G36*
X01473289Y00913902D02*
X01470809Y00913576D01*
X01468499Y00912618D01*
X01466514Y00911096D01*
X01464991Y00909111D01*
X01464485Y00907889D01*
X01448200D01*
X01446834Y00907617D01*
X01445677Y00906843D01*
X01443623Y00904790D01*
X01442730Y00904967D01*
X01440389Y00904502D01*
X01438404Y00903176D01*
X01437078Y00901191D01*
X01436613Y00898850D01*
X01437078Y00896509D01*
X01438404Y00894524D01*
X01440389Y00893198D01*
X01442730Y00892732D01*
X01445071Y00893198D01*
X01447056Y00894524D01*
X01448382Y00896509D01*
X01448848Y00898850D01*
X01448670Y00899743D01*
X01449678Y00900751D01*
X01464485D01*
X01464991Y00899529D01*
X01466514Y00897545D01*
X01468499Y00896022D01*
X01470809Y00895065D01*
X01473289Y00894738D01*
X01475769Y00895065D01*
X01478080Y00896022D01*
X01480065Y00897545D01*
X01481588Y00899529D01*
X01482545Y00901840D01*
X01482871Y00904320D01*
X01482545Y00906800D01*
X01481588Y00909111D01*
X01480065Y00911096D01*
X01478080Y00912618D01*
X01475769Y00913576D01*
X01473289Y00913902D01*
D02*
G37*
G36*
X01164700Y00906318D02*
Y00896620D01*
X01174398D01*
X01174186Y00898232D01*
X01173073Y00900918D01*
X01171304Y00903224D01*
X01168998Y00904993D01*
X01166312Y00906106D01*
X01164700Y00906318D01*
D02*
G37*
G36*
X01162160Y00906318D02*
X01160548Y00906106D01*
X01157862Y00904993D01*
X01155556Y00903224D01*
X01153787Y00900918D01*
X01152674Y00898232D01*
X01152462Y00896620D01*
X01162160D01*
Y00906318D01*
D02*
G37*
G36*
X01497419Y00903050D02*
X01488730D01*
X01488908Y00901699D01*
X01489919Y00899257D01*
X01491529Y00897159D01*
X01493626Y00895550D01*
X01496069Y00894538D01*
X01497419Y00894361D01*
Y00903050D01*
D02*
G37*
G36*
X01508649D02*
X01499959D01*
Y00894361D01*
X01501310Y00894538D01*
X01503753Y00895550D01*
X01505850Y00897159D01*
X01507459Y00899257D01*
X01508471Y00901699D01*
X01508649Y00903050D01*
D02*
G37*
G36*
X01174398Y00894080D02*
X01164700D01*
Y00884382D01*
X01166312Y00884594D01*
X01168998Y00885707D01*
X01171304Y00887476D01*
X01173073Y00889782D01*
X01174186Y00892468D01*
X01174398Y00894080D01*
D02*
G37*
G36*
X01162160D02*
X01152462D01*
X01152674Y00892468D01*
X01153787Y00889782D01*
X01155556Y00887476D01*
X01157862Y00885707D01*
X01160548Y00884594D01*
X01162160Y00884382D01*
Y00894080D01*
D02*
G37*
G36*
X01499959Y00888879D02*
Y00880190D01*
X01508649D01*
X01508471Y00881541D01*
X01507459Y00883983D01*
X01505850Y00886081D01*
X01503753Y00887690D01*
X01501310Y00888702D01*
X01499959Y00888879D01*
D02*
G37*
G36*
X01497419Y00888879D02*
X01496069Y00888702D01*
X01493626Y00887690D01*
X01491529Y00886081D01*
X01489919Y00883983D01*
X01488908Y00881541D01*
X01488730Y00880190D01*
X01497419D01*
Y00888879D01*
D02*
G37*
G36*
X01272730Y00879968D02*
X01270389Y00879502D01*
X01268404Y00878176D01*
X01267230Y00876419D01*
X01246562D01*
X01246056Y00877176D01*
X01244071Y00878502D01*
X01241730Y00878968D01*
X01239389Y00878502D01*
X01237404Y00877176D01*
X01236078Y00875191D01*
X01235612Y00872850D01*
X01236078Y00870509D01*
X01237404Y00868524D01*
X01239389Y00867198D01*
X01241730Y00866732D01*
X01244071Y00867198D01*
X01246056Y00868524D01*
X01246562Y00869281D01*
X01268473D01*
X01268690Y00869325D01*
X01268703D01*
X01270389Y00868198D01*
X01272730Y00867732D01*
X01275071Y00868198D01*
X01277056Y00869524D01*
X01278382Y00871509D01*
X01278848Y00873850D01*
X01278382Y00876191D01*
X01277056Y00878176D01*
X01275071Y00879502D01*
X01272730Y00879968D01*
D02*
G37*
G36*
X01473289Y00888502D02*
X01470809Y00888176D01*
X01468499Y00887218D01*
X01466514Y00885695D01*
X01464991Y00883711D01*
X01464034Y00881400D01*
X01463707Y00878920D01*
X01464034Y00876440D01*
X01464991Y00874129D01*
X01466514Y00872145D01*
X01468499Y00870622D01*
X01470809Y00869665D01*
X01473289Y00869338D01*
X01475769Y00869665D01*
X01478080Y00870622D01*
X01480065Y00872145D01*
X01481588Y00874129D01*
X01482545Y00876440D01*
X01482871Y00878920D01*
X01482545Y00881400D01*
X01481588Y00883711D01*
X01480065Y00885695D01*
X01478080Y00887218D01*
X01475769Y00888176D01*
X01473289Y00888502D01*
D02*
G37*
G36*
X01497419Y00877650D02*
X01488730D01*
X01488908Y00876299D01*
X01489919Y00873857D01*
X01491529Y00871759D01*
X01493626Y00870150D01*
X01496069Y00869138D01*
X01497419Y00868961D01*
Y00877650D01*
D02*
G37*
G36*
X01508649D02*
X01499959D01*
Y00868961D01*
X01501310Y00869138D01*
X01503753Y00870150D01*
X01505850Y00871759D01*
X01507459Y00873857D01*
X01508471Y00876299D01*
X01508649Y00877650D01*
D02*
G37*
G36*
X01499959Y00863480D02*
Y00854790D01*
X01508649D01*
X01508471Y00856141D01*
X01507459Y00858583D01*
X01505850Y00860681D01*
X01503753Y00862290D01*
X01501310Y00863302D01*
X01499959Y00863480D01*
D02*
G37*
G36*
X01497419Y00863479D02*
X01496069Y00863302D01*
X01493626Y00862290D01*
X01491529Y00860681D01*
X01489919Y00858583D01*
X01488908Y00856141D01*
X01488730Y00854790D01*
X01497419D01*
Y00863479D01*
D02*
G37*
G36*
X01163430Y00880541D02*
X01160689Y00880180D01*
X01158135Y00879122D01*
X01155941Y00877439D01*
X01154258Y00875245D01*
X01153200Y00872691D01*
X01152839Y00869950D01*
X01153200Y00867209D01*
X01154258Y00864655D01*
X01155941Y00862461D01*
X01156948Y00861689D01*
X01156517Y00860419D01*
X01150330D01*
X01148964Y00860147D01*
X01147807Y00859373D01*
X01142498Y00854064D01*
X01140771Y00854780D01*
X01138030Y00855141D01*
X01135289Y00854780D01*
X01132735Y00853722D01*
X01130541Y00852039D01*
X01128858Y00849845D01*
X01127800Y00847291D01*
X01127439Y00844550D01*
X01127800Y00841809D01*
X01128858Y00839255D01*
X01130541Y00837061D01*
X01132735Y00835378D01*
X01135289Y00834320D01*
X01138030Y00833959D01*
X01140771Y00834320D01*
X01143325Y00835378D01*
X01145519Y00837061D01*
X01147202Y00839255D01*
X01148260Y00841809D01*
X01148621Y00844550D01*
X01148260Y00847291D01*
X01147544Y00849018D01*
X01151808Y00853281D01*
X01155585D01*
X01155856Y00852485D01*
X01155920Y00852011D01*
X01154258Y00849845D01*
X01153200Y00847291D01*
X01152839Y00844550D01*
X01153200Y00841809D01*
X01154258Y00839255D01*
X01155941Y00837061D01*
X01158135Y00835378D01*
X01160689Y00834320D01*
X01163430Y00833959D01*
X01166171Y00834320D01*
X01168725Y00835378D01*
X01170919Y00837061D01*
X01172602Y00839255D01*
X01173660Y00841809D01*
X01174021Y00844550D01*
X01173660Y00847291D01*
X01172602Y00849845D01*
X01170940Y00852011D01*
X01171004Y00852485D01*
X01171275Y00853281D01*
X01174252D01*
X01182207Y00845327D01*
X01183364Y00844553D01*
X01184730Y00844281D01*
X01197898D01*
X01198404Y00843524D01*
X01200389Y00842198D01*
X01202730Y00841732D01*
X01205071Y00842198D01*
X01207056Y00843524D01*
X01208382Y00845509D01*
X01208848Y00847850D01*
X01208382Y00850191D01*
X01207056Y00852176D01*
X01205071Y00853502D01*
X01202730Y00853968D01*
X01200389Y00853502D01*
X01198404Y00852176D01*
X01197898Y00851419D01*
X01186208D01*
X01178253Y00859373D01*
X01177096Y00860147D01*
X01175730Y00860419D01*
X01170343D01*
X01169912Y00861689D01*
X01170919Y00862461D01*
X01172602Y00864655D01*
X01173660Y00867209D01*
X01174021Y00869950D01*
X01173660Y00872691D01*
X01172602Y00875245D01*
X01170919Y00877439D01*
X01168725Y00879122D01*
X01166171Y00880180D01*
X01163430Y00880541D01*
D02*
G37*
G36*
X01473289Y00863102D02*
X01470809Y00862775D01*
X01468499Y00861818D01*
X01466514Y00860295D01*
X01464991Y00858311D01*
X01464034Y00856000D01*
X01463707Y00853520D01*
X01464034Y00851040D01*
X01464991Y00848729D01*
X01466514Y00846745D01*
X01468499Y00845222D01*
X01470809Y00844265D01*
X01473289Y00843938D01*
X01475769Y00844265D01*
X01478080Y00845222D01*
X01480065Y00846745D01*
X01481588Y00848729D01*
X01482545Y00851040D01*
X01482871Y00853520D01*
X01482545Y00856000D01*
X01481588Y00858311D01*
X01480065Y00860295D01*
X01478080Y00861818D01*
X01475769Y00862775D01*
X01473289Y00863102D01*
D02*
G37*
G36*
X01497419Y00852250D02*
X01488730D01*
X01488908Y00850899D01*
X01489919Y00848457D01*
X01491529Y00846359D01*
X01493626Y00844750D01*
X01496069Y00843738D01*
X01497419Y00843561D01*
Y00852250D01*
D02*
G37*
G36*
X01508649D02*
X01499959D01*
Y00843561D01*
X01501310Y00843738D01*
X01503753Y00844750D01*
X01505850Y00846359D01*
X01507459Y00848457D01*
X01508471Y00850899D01*
X01508649Y00852250D01*
D02*
G37*
G36*
X01139300Y00830118D02*
Y00820420D01*
X01148998D01*
X01148786Y00822032D01*
X01147673Y00824718D01*
X01145904Y00827024D01*
X01143598Y00828793D01*
X01140912Y00829906D01*
X01139300Y00830118D01*
D02*
G37*
G36*
X01136760Y00830118D02*
X01135148Y00829906D01*
X01132462Y00828793D01*
X01130156Y00827024D01*
X01128387Y00824718D01*
X01127274Y00822032D01*
X01127062Y00820420D01*
X01136760D01*
Y00830118D01*
D02*
G37*
G36*
X01163430Y00829741D02*
X01160689Y00829380D01*
X01158135Y00828322D01*
X01155941Y00826639D01*
X01154258Y00824445D01*
X01153200Y00821891D01*
X01152839Y00819150D01*
X01153200Y00816409D01*
X01154258Y00813855D01*
X01155941Y00811661D01*
X01158135Y00809978D01*
X01160689Y00808920D01*
X01163430Y00808559D01*
X01166171Y00808920D01*
X01168725Y00809978D01*
X01170919Y00811661D01*
X01172602Y00813855D01*
X01173660Y00816409D01*
X01174021Y00819150D01*
X01173660Y00821891D01*
X01172602Y00824445D01*
X01170919Y00826639D01*
X01168725Y00828322D01*
X01166171Y00829380D01*
X01163430Y00829741D01*
D02*
G37*
G36*
X01148998Y00817880D02*
X01139300D01*
Y00808182D01*
X01140912Y00808394D01*
X01143598Y00809507D01*
X01145904Y00811276D01*
X01147673Y00813582D01*
X01148786Y00816268D01*
X01148998Y00817880D01*
D02*
G37*
G36*
X01136760D02*
X01127062D01*
X01127274Y00816268D01*
X01128387Y00813582D01*
X01130156Y00811276D01*
X01132462Y00809507D01*
X01135148Y00808394D01*
X01136760Y00808182D01*
Y00817880D01*
D02*
G37*
G36*
X01256730Y00812968D02*
X01254389Y00812502D01*
X01252404Y00811176D01*
X01251078Y00809191D01*
X01250612Y00806850D01*
X01250760Y00806106D01*
X01242993Y00798338D01*
X01172895D01*
X01172602Y00799045D01*
X01170919Y00801239D01*
X01168725Y00802922D01*
X01166171Y00803980D01*
X01163430Y00804341D01*
X01160689Y00803980D01*
X01158135Y00802922D01*
X01155941Y00801239D01*
X01154258Y00799045D01*
X01153200Y00796491D01*
X01152839Y00793750D01*
X01153200Y00791009D01*
X01154258Y00788455D01*
X01155704Y00786571D01*
X01155258Y00785301D01*
X01151526D01*
X01147544Y00789282D01*
X01148260Y00791009D01*
X01148621Y00793750D01*
X01148260Y00796491D01*
X01147202Y00799045D01*
X01145519Y00801239D01*
X01143325Y00802922D01*
X01140771Y00803980D01*
X01138030Y00804341D01*
X01135289Y00803980D01*
X01132735Y00802922D01*
X01130541Y00801239D01*
X01128858Y00799045D01*
X01127800Y00796491D01*
X01127439Y00793750D01*
X01127800Y00791009D01*
X01128858Y00788455D01*
X01130541Y00786261D01*
X01132735Y00784578D01*
X01135289Y00783520D01*
X01138030Y00783159D01*
X01140771Y00783520D01*
X01142498Y00784236D01*
X01147524Y00779209D01*
X01148682Y00778436D01*
X01150048Y00778164D01*
X01156885D01*
X01157317Y00776894D01*
X01155941Y00775839D01*
X01154258Y00773645D01*
X01153200Y00771091D01*
X01152839Y00768350D01*
X01153200Y00765609D01*
X01154258Y00763055D01*
X01155941Y00760861D01*
X01158135Y00759178D01*
X01160689Y00758120D01*
X01163430Y00757759D01*
X01166171Y00758120D01*
X01168725Y00759178D01*
X01170919Y00760861D01*
X01172602Y00763055D01*
X01173213Y00764531D01*
X01187731D01*
X01188404Y00763524D01*
X01190389Y00762198D01*
X01192730Y00761732D01*
X01195071Y00762198D01*
X01197056Y00763524D01*
X01198382Y00765509D01*
X01198848Y00767850D01*
X01198382Y00770191D01*
X01197056Y00772176D01*
X01195071Y00773502D01*
X01192730Y00773968D01*
X01190389Y00773502D01*
X01188404Y00772176D01*
X01188065Y00771669D01*
X01173420D01*
X01172602Y00773645D01*
X01170919Y00775839D01*
X01169544Y00776894D01*
X01169975Y00778164D01*
X01195898D01*
X01196404Y00777407D01*
X01198389Y00776081D01*
X01200730Y00775615D01*
X01203071Y00776081D01*
X01205056Y00777407D01*
X01206382Y00779391D01*
X01206848Y00781732D01*
X01206382Y00784074D01*
X01205056Y00786058D01*
X01203071Y00787384D01*
X01200730Y00787850D01*
X01198389Y00787384D01*
X01196404Y00786058D01*
X01195898Y00785301D01*
X01171602D01*
X01171156Y00786571D01*
X01172602Y00788455D01*
X01172895Y00789162D01*
X01244893D01*
X01246649Y00789511D01*
X01248138Y00790506D01*
X01258474Y00800842D01*
X01258657Y00801116D01*
X01259071Y00801198D01*
X01261056Y00802524D01*
X01262382Y00804509D01*
X01262848Y00806850D01*
X01262382Y00809191D01*
X01261056Y00811176D01*
X01259071Y00812502D01*
X01256730Y00812968D01*
D02*
G37*
G36*
X01307730Y00813968D02*
X01305389Y00813502D01*
X01303404Y00812176D01*
X01302078Y00810191D01*
X01301613Y00807850D01*
X01302078Y00805509D01*
X01303404Y00803524D01*
X01304162Y00803018D01*
Y00799328D01*
X01294153Y00789320D01*
X01293379Y00788162D01*
X01293226Y00787389D01*
X01291394Y00786165D01*
X01290068Y00784181D01*
X01289602Y00781840D01*
X01290068Y00779499D01*
X01291394Y00777514D01*
X01293378Y00776188D01*
X01295720Y00775722D01*
X01296750Y00775927D01*
X01297519Y00775158D01*
X01297621Y00774805D01*
X01298078Y00772509D01*
X01299404Y00770524D01*
X01301389Y00769198D01*
X01303730Y00768733D01*
X01306071Y00769198D01*
X01308056Y00770524D01*
X01309382Y00772509D01*
X01309848Y00774850D01*
X01309382Y00777191D01*
X01308056Y00779176D01*
X01307299Y00779682D01*
Y00783372D01*
X01320837Y00796910D01*
X01321730Y00796732D01*
X01324071Y00797198D01*
X01326056Y00798524D01*
X01327382Y00800509D01*
X01327848Y00802850D01*
X01327382Y00805191D01*
X01326056Y00807176D01*
X01324071Y00808502D01*
X01321730Y00808968D01*
X01319389Y00808502D01*
X01317404Y00807176D01*
X01316078Y00805191D01*
X01315612Y00802850D01*
X01315790Y00801957D01*
X01312569Y00798735D01*
X01311299Y00799261D01*
Y00803018D01*
X01312056Y00803524D01*
X01313382Y00805509D01*
X01313848Y00807850D01*
X01313382Y00810191D01*
X01312056Y00812176D01*
X01310071Y00813502D01*
X01307730Y00813968D01*
D02*
G37*
G36*
X01138030Y00778941D02*
X01135289Y00778580D01*
X01132735Y00777522D01*
X01130541Y00775839D01*
X01128858Y00773645D01*
X01127800Y00771091D01*
X01127439Y00768350D01*
X01127800Y00765609D01*
X01128858Y00763055D01*
X01130541Y00760861D01*
X01132735Y00759178D01*
X01135289Y00758120D01*
X01138030Y00757759D01*
X01140771Y00758120D01*
X01143325Y00759178D01*
X01145519Y00760861D01*
X01147202Y00763055D01*
X01148260Y00765609D01*
X01148621Y00768350D01*
X01148260Y00771091D01*
X01147202Y00773645D01*
X01145519Y00775839D01*
X01143325Y00777522D01*
X01140771Y00778580D01*
X01138030Y00778941D01*
D02*
G37*
G36*
X01139300Y00753918D02*
Y00744220D01*
X01148998D01*
X01148786Y00745832D01*
X01147673Y00748518D01*
X01145904Y00750824D01*
X01143598Y00752593D01*
X01140912Y00753706D01*
X01139300Y00753918D01*
D02*
G37*
G36*
X01136760Y00753918D02*
X01135148Y00753706D01*
X01132462Y00752593D01*
X01130156Y00750824D01*
X01128387Y00748518D01*
X01127274Y00745832D01*
X01127062Y00744220D01*
X01136760D01*
Y00753918D01*
D02*
G37*
G36*
X01163430Y00753541D02*
X01160689Y00753180D01*
X01158135Y00752122D01*
X01155941Y00750439D01*
X01154258Y00748245D01*
X01153200Y00745691D01*
X01152839Y00742950D01*
X01153200Y00740209D01*
X01154258Y00737655D01*
X01155941Y00735461D01*
X01158135Y00733778D01*
X01160689Y00732720D01*
X01163430Y00732359D01*
X01166171Y00732720D01*
X01168725Y00733778D01*
X01170919Y00735461D01*
X01172602Y00737655D01*
X01173660Y00740209D01*
X01174021Y00742950D01*
X01173660Y00745691D01*
X01172602Y00748245D01*
X01170919Y00750439D01*
X01168725Y00752122D01*
X01166171Y00753180D01*
X01163430Y00753541D01*
D02*
G37*
G36*
X01148998Y00741680D02*
X01139300D01*
Y00731982D01*
X01140912Y00732194D01*
X01143598Y00733307D01*
X01145904Y00735076D01*
X01147673Y00737382D01*
X01148786Y00740068D01*
X01148998Y00741680D01*
D02*
G37*
G36*
X01136760D02*
X01127062D01*
X01127274Y00740068D01*
X01128387Y00737382D01*
X01130156Y00735076D01*
X01132462Y00733307D01*
X01135148Y00732194D01*
X01136760Y00731982D01*
Y00741680D01*
D02*
G37*
G36*
X01284230Y00731750D02*
X01263230D01*
Y00710750D01*
X01284230D01*
Y00731750D01*
D02*
G37*
G36*
X01138030Y00728141D02*
X01135289Y00727780D01*
X01132735Y00726722D01*
X01130541Y00725039D01*
X01128858Y00722845D01*
X01127800Y00720291D01*
X01127439Y00717550D01*
X01127800Y00714809D01*
X01128858Y00712255D01*
X01130541Y00710061D01*
X01132735Y00708378D01*
X01135289Y00707320D01*
X01138030Y00706959D01*
X01140771Y00707320D01*
X01143325Y00708378D01*
X01145519Y00710061D01*
X01147202Y00712255D01*
X01148260Y00714809D01*
X01148621Y00717550D01*
X01148260Y00720291D01*
X01147202Y00722845D01*
X01145519Y00725039D01*
X01143325Y00726722D01*
X01140771Y00727780D01*
X01138030Y00728141D01*
D02*
G37*
G36*
X01163430D02*
X01160689Y00727780D01*
X01158135Y00726722D01*
X01155941Y00725039D01*
X01154258Y00722845D01*
X01153200Y00720291D01*
X01152839Y00717550D01*
X01153200Y00714809D01*
X01154258Y00712255D01*
X01155941Y00710061D01*
X01156515Y00709621D01*
X01156107Y00708419D01*
X01154945D01*
X01153579Y00708147D01*
X01152421Y00707373D01*
X01148207Y00703159D01*
X01147433Y00702001D01*
X01147161Y00700635D01*
Y00699473D01*
X01145959Y00699065D01*
X01145519Y00699639D01*
X01143325Y00701322D01*
X01140771Y00702380D01*
X01138030Y00702741D01*
X01135289Y00702380D01*
X01132735Y00701322D01*
X01130541Y00699639D01*
X01128858Y00697445D01*
X01127800Y00694891D01*
X01127439Y00692150D01*
X01127800Y00689409D01*
X01128858Y00686855D01*
X01130541Y00684661D01*
X01132735Y00682978D01*
X01135289Y00681920D01*
X01138030Y00681559D01*
X01140771Y00681920D01*
X01143325Y00682978D01*
X01145519Y00684661D01*
X01145959Y00685235D01*
X01147161Y00684827D01*
Y00680928D01*
X01142498Y00676264D01*
X01140771Y00676980D01*
X01138030Y00677341D01*
X01135289Y00676980D01*
X01132735Y00675922D01*
X01130541Y00674239D01*
X01128858Y00672045D01*
X01127800Y00669491D01*
X01127439Y00666750D01*
X01127800Y00664009D01*
X01128858Y00661455D01*
X01130541Y00659261D01*
X01132735Y00657578D01*
X01135289Y00656520D01*
X01138030Y00656159D01*
X01140771Y00656520D01*
X01143325Y00657578D01*
X01145519Y00659261D01*
X01147202Y00661455D01*
X01148260Y00664009D01*
X01148621Y00666750D01*
X01148260Y00669491D01*
X01147544Y00671218D01*
X01153253Y00676927D01*
X01154027Y00678084D01*
X01154299Y00679450D01*
Y00683940D01*
X01155083Y00684206D01*
X01155569Y00684267D01*
X01157862Y00682507D01*
X01160548Y00681394D01*
X01162160Y00681182D01*
Y00692150D01*
X01163430D01*
Y00693420D01*
X01174398D01*
X01174186Y00695032D01*
X01173141Y00697555D01*
X01173474Y00698240D01*
X01173874Y00698761D01*
X01176071Y00699198D01*
X01178056Y00700524D01*
X01179382Y00702509D01*
X01179848Y00704850D01*
X01179382Y00707191D01*
X01178056Y00709176D01*
X01176071Y00710502D01*
X01173730Y00710967D01*
X01173122Y00710847D01*
X01172405Y00711999D01*
X01172602Y00712255D01*
X01173660Y00714809D01*
X01174021Y00717550D01*
X01173660Y00720291D01*
X01172602Y00722845D01*
X01170919Y00725039D01*
X01168725Y00726722D01*
X01166171Y00727780D01*
X01163430Y00728141D01*
D02*
G37*
G36*
X01275000Y00706818D02*
Y00697120D01*
X01284698D01*
X01284486Y00698732D01*
X01283373Y00701418D01*
X01281604Y00703724D01*
X01279298Y00705493D01*
X01276612Y00706606D01*
X01275000Y00706818D01*
D02*
G37*
G36*
X01272460Y00706818D02*
X01270848Y00706606D01*
X01268162Y00705493D01*
X01265856Y00703724D01*
X01264087Y00701418D01*
X01262974Y00698732D01*
X01262762Y00697120D01*
X01272460D01*
Y00706818D01*
D02*
G37*
G36*
X01393730Y00714850D02*
X01373730D01*
Y00694850D01*
X01393730D01*
Y00714850D01*
D02*
G37*
G36*
X01409130Y00714936D02*
X01406519Y00714593D01*
X01404087Y00713585D01*
X01401998Y00711982D01*
X01400395Y00709893D01*
X01399387Y00707460D01*
X01399044Y00704850D01*
X01399387Y00702240D01*
X01400395Y00699807D01*
X01401998Y00697718D01*
X01404087Y00696115D01*
X01406519Y00695107D01*
X01409130Y00694764D01*
X01411741Y00695107D01*
X01414173Y00696115D01*
X01416262Y00697718D01*
X01417865Y00699807D01*
X01418873Y00702240D01*
X01419216Y00704850D01*
X01418873Y00707460D01*
X01417865Y00709893D01*
X01416262Y00711982D01*
X01414173Y00713585D01*
X01411741Y00714593D01*
X01409130Y00714936D01*
D02*
G37*
G36*
X01584069Y00711989D02*
X01565069D01*
Y00692989D01*
X01584069D01*
Y00711989D01*
D02*
G37*
G36*
X01284698Y00694580D02*
X01275000D01*
Y00684882D01*
X01276612Y00685094D01*
X01279298Y00686207D01*
X01281604Y00687976D01*
X01283373Y00690282D01*
X01284486Y00692968D01*
X01284698Y00694580D01*
D02*
G37*
G36*
X01272460D02*
X01262762D01*
X01262974Y00692968D01*
X01264087Y00690282D01*
X01265856Y00687976D01*
X01268162Y00686207D01*
X01270848Y00685094D01*
X01272460Y00684882D01*
Y00694580D01*
D02*
G37*
G36*
X01174398Y00690880D02*
X01164700D01*
Y00681182D01*
X01166312Y00681394D01*
X01168998Y00682507D01*
X01171304Y00684276D01*
X01173073Y00686582D01*
X01174186Y00689268D01*
X01174398Y00690880D01*
D02*
G37*
G36*
X01213730Y00696550D02*
X01194730D01*
Y00677550D01*
X01213730D01*
Y00696550D01*
D02*
G37*
G36*
X01574569Y00686671D02*
X01572089Y00686345D01*
X01569778Y00685388D01*
X01567794Y00683865D01*
X01566271Y00681880D01*
X01565314Y00679569D01*
X01564987Y00677089D01*
X01565314Y00674609D01*
X01566271Y00672298D01*
X01567794Y00670314D01*
X01569778Y00668791D01*
X01572089Y00667834D01*
X01574569Y00667507D01*
X01577049Y00667834D01*
X01579360Y00668791D01*
X01581345Y00670314D01*
X01582868Y00672298D01*
X01583825Y00674609D01*
X01584151Y00677089D01*
X01583825Y00679569D01*
X01582868Y00681880D01*
X01581345Y00683865D01*
X01579360Y00685388D01*
X01577049Y00686345D01*
X01574569Y00686671D01*
D02*
G37*
G36*
X01163430Y00677341D02*
X01160689Y00676980D01*
X01158135Y00675922D01*
X01155941Y00674239D01*
X01154258Y00672045D01*
X01153200Y00669491D01*
X01152839Y00666750D01*
X01153200Y00664009D01*
X01154258Y00661455D01*
X01155941Y00659261D01*
X01158135Y00657578D01*
X01160689Y00656520D01*
X01163430Y00656159D01*
X01166171Y00656520D01*
X01168725Y00657578D01*
X01170919Y00659261D01*
X01172602Y00661455D01*
X01173660Y00664009D01*
X01174021Y00666750D01*
X01173660Y00669491D01*
X01172602Y00672045D01*
X01170919Y00674239D01*
X01168725Y00675922D01*
X01166171Y00676980D01*
X01163430Y00677341D01*
D02*
G37*
G36*
X01204230Y00671232D02*
X01201750Y00670906D01*
X01199439Y00669948D01*
X01197455Y00668426D01*
X01195932Y00666441D01*
X01194975Y00664130D01*
X01194648Y00661650D01*
X01194975Y00659170D01*
X01195932Y00656859D01*
X01197455Y00654875D01*
X01199439Y00653352D01*
X01201750Y00652395D01*
X01204230Y00652068D01*
X01206710Y00652395D01*
X01209021Y00653352D01*
X01211005Y00654875D01*
X01212528Y00656859D01*
X01213485Y00659170D01*
X01213812Y00661650D01*
X01213485Y00664130D01*
X01212528Y00666441D01*
X01211005Y00668426D01*
X01209021Y00669948D01*
X01206710Y00670906D01*
X01204230Y00671232D01*
D02*
G37*
G36*
X01139300Y00652318D02*
Y00642620D01*
X01148998D01*
X01148786Y00644232D01*
X01147673Y00646918D01*
X01145904Y00649224D01*
X01143598Y00650993D01*
X01140912Y00652106D01*
X01139300Y00652318D01*
D02*
G37*
G36*
X01136760Y00652318D02*
X01135148Y00652106D01*
X01132462Y00650993D01*
X01130156Y00649224D01*
X01128387Y00646918D01*
X01127274Y00644232D01*
X01127062Y00642620D01*
X01136760D01*
Y00652318D01*
D02*
G37*
G36*
X01574569Y00661271D02*
X01572089Y00660945D01*
X01569778Y00659988D01*
X01567794Y00658465D01*
X01566271Y00656480D01*
X01565314Y00654169D01*
X01564987Y00651689D01*
X01565314Y00649209D01*
X01566271Y00646898D01*
X01567794Y00644914D01*
X01569778Y00643391D01*
X01572089Y00642434D01*
X01574569Y00642107D01*
X01577049Y00642434D01*
X01579360Y00643391D01*
X01581345Y00644914D01*
X01582868Y00646898D01*
X01583825Y00649209D01*
X01584151Y00651689D01*
X01583825Y00654169D01*
X01582868Y00656480D01*
X01581345Y00658465D01*
X01579360Y00659988D01*
X01577049Y00660945D01*
X01574569Y00661271D01*
D02*
G37*
G36*
X01423730Y00664968D02*
X01421389Y00664502D01*
X01419404Y00663176D01*
X01418078Y00661191D01*
X01417612Y00658850D01*
X01418078Y00656509D01*
X01419404Y00654524D01*
X01420161Y00654018D01*
Y00646182D01*
X01419404Y00645676D01*
X01418078Y00643691D01*
X01417612Y00641350D01*
X01418078Y00639009D01*
X01419404Y00637024D01*
X01421389Y00635698D01*
X01423730Y00635233D01*
X01426071Y00635698D01*
X01428056Y00637024D01*
X01429382Y00639009D01*
X01429848Y00641350D01*
X01429382Y00643691D01*
X01428056Y00645676D01*
X01427299Y00646182D01*
Y00654018D01*
X01428056Y00654524D01*
X01429382Y00656509D01*
X01429848Y00658850D01*
X01429382Y00661191D01*
X01428056Y00663176D01*
X01426071Y00664502D01*
X01423730Y00664968D01*
D02*
G37*
G36*
X01273730Y00655641D02*
X01270989Y00655280D01*
X01268435Y00654222D01*
X01266241Y00652539D01*
X01264558Y00650345D01*
X01263500Y00647791D01*
X01263139Y00645050D01*
X01263500Y00642309D01*
X01264558Y00639755D01*
X01266241Y00637561D01*
X01268435Y00635878D01*
X01270989Y00634820D01*
X01273730Y00634459D01*
X01276471Y00634820D01*
X01279025Y00635878D01*
X01281219Y00637561D01*
X01282902Y00639755D01*
X01283960Y00642309D01*
X01284321Y00645050D01*
X01283960Y00647791D01*
X01282902Y00650345D01*
X01281219Y00652539D01*
X01279025Y00654222D01*
X01276471Y00655280D01*
X01273730Y00655641D01*
D02*
G37*
G36*
X01163430Y00651941D02*
X01160689Y00651580D01*
X01158135Y00650522D01*
X01155941Y00648839D01*
X01154258Y00646645D01*
X01153200Y00644091D01*
X01152839Y00641350D01*
X01153200Y00638609D01*
X01154258Y00636055D01*
X01155941Y00633861D01*
X01158135Y00632178D01*
X01160689Y00631120D01*
X01163430Y00630759D01*
X01166171Y00631120D01*
X01168725Y00632178D01*
X01170919Y00633861D01*
X01172602Y00636055D01*
X01173660Y00638609D01*
X01174021Y00641350D01*
X01173660Y00644091D01*
X01172602Y00646645D01*
X01170919Y00648839D01*
X01168725Y00650522D01*
X01166171Y00651580D01*
X01163430Y00651941D01*
D02*
G37*
G36*
X01148998Y00640080D02*
X01139300D01*
Y00630382D01*
X01140912Y00630594D01*
X01143598Y00631707D01*
X01145904Y00633476D01*
X01147673Y00635782D01*
X01148786Y00638468D01*
X01148998Y00640080D01*
D02*
G37*
G36*
X01136760D02*
X01127062D01*
X01127274Y00638468D01*
X01128387Y00635782D01*
X01130156Y00633476D01*
X01132462Y00631707D01*
X01135148Y00630594D01*
X01136760Y00630382D01*
Y00640080D01*
D02*
G37*
G36*
X01575839Y00636249D02*
Y00627559D01*
X01584529D01*
X01584351Y00628910D01*
X01583339Y00631353D01*
X01581730Y00633450D01*
X01579633Y00635059D01*
X01577190Y00636071D01*
X01575839Y00636249D01*
D02*
G37*
G36*
X01573299Y00636249D02*
X01571948Y00636071D01*
X01569506Y00635059D01*
X01567409Y00633450D01*
X01565800Y00631353D01*
X01564788Y00628910D01*
X01564610Y00627559D01*
X01573299D01*
Y00636249D01*
D02*
G37*
G36*
X01204230Y00645832D02*
X01201750Y00645506D01*
X01199439Y00644548D01*
X01197455Y00643026D01*
X01195932Y00641041D01*
X01194975Y00638730D01*
X01194648Y00636250D01*
X01194975Y00633770D01*
X01195270Y00633057D01*
X01174761Y00612548D01*
X01173730Y00613167D01*
X01173665Y00613249D01*
X01174021Y00615950D01*
X01173660Y00618691D01*
X01172602Y00621245D01*
X01170919Y00623439D01*
X01168725Y00625122D01*
X01166171Y00626180D01*
X01163430Y00626541D01*
X01160689Y00626180D01*
X01158135Y00625122D01*
X01155941Y00623439D01*
X01154258Y00621245D01*
X01153200Y00618691D01*
X01152839Y00615950D01*
X01153200Y00613209D01*
X01154258Y00610655D01*
X01155941Y00608461D01*
X01156111Y00608331D01*
X01155703Y00607128D01*
X01145757D01*
X01145349Y00608331D01*
X01145519Y00608461D01*
X01147202Y00610655D01*
X01148260Y00613209D01*
X01148621Y00615950D01*
X01148260Y00618691D01*
X01147202Y00621245D01*
X01145519Y00623439D01*
X01143325Y00625122D01*
X01140771Y00626180D01*
X01138030Y00626541D01*
X01135289Y00626180D01*
X01132735Y00625122D01*
X01130541Y00623439D01*
X01128858Y00621245D01*
X01127800Y00618691D01*
X01127439Y00615950D01*
X01127800Y00613209D01*
X01128858Y00610655D01*
X01130541Y00608461D01*
X01132735Y00606778D01*
X01133401Y00606502D01*
Y00599998D01*
X01132735Y00599722D01*
X01130541Y00598039D01*
X01128858Y00595845D01*
X01127800Y00593291D01*
X01127439Y00590550D01*
X01127800Y00587809D01*
X01128858Y00585255D01*
X01130541Y00583061D01*
X01132735Y00581378D01*
X01135289Y00580320D01*
X01138030Y00579959D01*
X01140771Y00580320D01*
X01143325Y00581378D01*
X01145519Y00583061D01*
X01147202Y00585255D01*
X01148260Y00587809D01*
X01148621Y00590550D01*
X01148260Y00593291D01*
X01147202Y00595845D01*
X01145777Y00597702D01*
X01146249Y00598972D01*
X01152930D01*
Y00580050D01*
X01173930D01*
Y00600182D01*
X01201037Y00627290D01*
X01201750Y00626995D01*
X01204230Y00626668D01*
X01206710Y00626995D01*
X01209021Y00627952D01*
X01211005Y00629475D01*
X01212528Y00631459D01*
X01213485Y00633770D01*
X01213812Y00636250D01*
X01213485Y00638730D01*
X01212528Y00641041D01*
X01211005Y00643026D01*
X01209021Y00644548D01*
X01206710Y00645506D01*
X01204230Y00645832D01*
D02*
G37*
G36*
X01573299Y00625019D02*
X01564610D01*
X01564788Y00623668D01*
X01565800Y00621226D01*
X01567409Y00619129D01*
X01569506Y00617519D01*
X01571948Y00616508D01*
X01573299Y00616330D01*
Y00625019D01*
D02*
G37*
G36*
X01584529D02*
X01575839D01*
Y00616330D01*
X01577190Y00616508D01*
X01579633Y00617519D01*
X01581730Y00619129D01*
X01583339Y00621226D01*
X01584351Y00623668D01*
X01584529Y00625019D01*
D02*
G37*
G36*
X01205500Y00620809D02*
Y00612120D01*
X01214189D01*
X01214012Y00613471D01*
X01213000Y00615913D01*
X01211391Y00618011D01*
X01209293Y00619620D01*
X01206851Y00620632D01*
X01205500Y00620809D01*
D02*
G37*
G36*
X01202960Y00620810D02*
X01201609Y00620632D01*
X01199167Y00619620D01*
X01197069Y00618011D01*
X01195460Y00615913D01*
X01194448Y00613471D01*
X01194271Y00612120D01*
X01202960D01*
Y00620810D01*
D02*
G37*
G36*
X01273730Y00630241D02*
X01270989Y00629880D01*
X01268435Y00628822D01*
X01266241Y00627139D01*
X01264558Y00624945D01*
X01263500Y00622391D01*
X01263139Y00619650D01*
X01263500Y00616909D01*
X01264558Y00614355D01*
X01266241Y00612161D01*
X01268435Y00610478D01*
X01270989Y00609420D01*
X01273730Y00609059D01*
X01276471Y00609420D01*
X01279025Y00610478D01*
X01281219Y00612161D01*
X01282902Y00614355D01*
X01283960Y00616909D01*
X01284321Y00619650D01*
X01283960Y00622391D01*
X01282902Y00624945D01*
X01281219Y00627139D01*
X01279025Y00628822D01*
X01276471Y00629880D01*
X01273730Y00630241D01*
D02*
G37*
G36*
X01214189Y00609580D02*
X01205500D01*
Y00600891D01*
X01206851Y00601068D01*
X01209293Y00602080D01*
X01211391Y00603689D01*
X01213000Y00605787D01*
X01214012Y00608229D01*
X01214189Y00609580D01*
D02*
G37*
G36*
X01202960D02*
X01194271D01*
X01194448Y00608229D01*
X01195460Y00605787D01*
X01197069Y00603689D01*
X01199167Y00602080D01*
X01201609Y00601068D01*
X01202960Y00600891D01*
Y00609580D01*
D02*
G37*
G36*
X01275000Y00605218D02*
Y00595520D01*
X01284698D01*
X01284486Y00597132D01*
X01283373Y00599818D01*
X01281604Y00602124D01*
X01279298Y00603893D01*
X01276612Y00605006D01*
X01275000Y00605218D01*
D02*
G37*
G36*
X01272460Y00605218D02*
X01270848Y00605006D01*
X01268162Y00603893D01*
X01265856Y00602124D01*
X01264087Y00599818D01*
X01262974Y00597132D01*
X01262762Y00595520D01*
X01272460D01*
Y00605218D01*
D02*
G37*
G36*
X01263730Y00679968D02*
X01261389Y00679502D01*
X01259404Y00678176D01*
X01258078Y00676191D01*
X01257705Y00674313D01*
X01239486Y00656094D01*
X01238491Y00654606D01*
X01238142Y00652850D01*
Y00625850D01*
X01206913Y00594621D01*
X01206710Y00594706D01*
X01204230Y00595032D01*
X01201750Y00594706D01*
X01199439Y00593748D01*
X01197455Y00592225D01*
X01195932Y00590241D01*
X01194975Y00587930D01*
X01194648Y00585450D01*
X01194975Y00582970D01*
X01195932Y00580659D01*
X01197455Y00578675D01*
X01199439Y00577152D01*
X01201750Y00576195D01*
X01204230Y00575868D01*
X01206710Y00576195D01*
X01209021Y00577152D01*
X01211005Y00578675D01*
X01212528Y00580659D01*
X01213485Y00582970D01*
X01213812Y00585450D01*
X01213485Y00587930D01*
X01213401Y00588133D01*
X01245974Y00620706D01*
X01246969Y00622194D01*
X01247318Y00623950D01*
Y00650949D01*
X01264193Y00667825D01*
X01266071Y00668198D01*
X01268056Y00669524D01*
X01269382Y00671509D01*
X01269847Y00673850D01*
X01269382Y00676191D01*
X01268056Y00678176D01*
X01266071Y00679502D01*
X01263730Y00679968D01*
D02*
G37*
G36*
X01284698Y00592980D02*
X01275000D01*
Y00583282D01*
X01276612Y00583494D01*
X01279298Y00584607D01*
X01281604Y00586376D01*
X01283373Y00588682D01*
X01284486Y00591368D01*
X01284698Y00592980D01*
D02*
G37*
G36*
X01272460D02*
X01262762D01*
X01262974Y00591368D01*
X01264087Y00588682D01*
X01265856Y00586376D01*
X01268162Y00584607D01*
X01270848Y00583494D01*
X01272460Y00583282D01*
Y00592980D01*
D02*
G37*
G36*
X01352730Y00608968D02*
X01350389Y00608502D01*
X01348404Y00607176D01*
X01347078Y00605191D01*
X01346613Y00602850D01*
X01347078Y00600509D01*
X01348404Y00598524D01*
X01349192Y00597998D01*
Y00573661D01*
X01348465Y00573176D01*
X01347139Y00571191D01*
X01346673Y00568850D01*
X01347139Y00566509D01*
X01348465Y00564524D01*
X01350449Y00563198D01*
X01352790Y00562733D01*
X01355132Y00563198D01*
X01357116Y00564524D01*
X01358442Y00566509D01*
X01358908Y00568850D01*
X01358442Y00571191D01*
X01357116Y00573176D01*
X01356329Y00573702D01*
Y00598038D01*
X01357056Y00598524D01*
X01358382Y00600509D01*
X01358848Y00602850D01*
X01358382Y00605191D01*
X01357056Y00607176D01*
X01355071Y00608502D01*
X01352730Y00608968D01*
D02*
G37*
G36*
X01205500Y00570009D02*
Y00561320D01*
X01214189D01*
X01214012Y00562671D01*
X01213000Y00565113D01*
X01211391Y00567211D01*
X01209293Y00568820D01*
X01206851Y00569832D01*
X01205500Y00570009D01*
D02*
G37*
G36*
X01202960Y00570009D02*
X01201609Y00569832D01*
X01199167Y00568820D01*
X01197069Y00567211D01*
X01195460Y00565113D01*
X01194448Y00562671D01*
X01194271Y00561320D01*
X01202960D01*
Y00570009D01*
D02*
G37*
G36*
X01273730Y00579441D02*
X01270989Y00579080D01*
X01268435Y00578022D01*
X01266241Y00576339D01*
X01264558Y00574145D01*
X01263500Y00571591D01*
X01263139Y00568850D01*
X01263500Y00566109D01*
X01264558Y00563555D01*
X01266241Y00561361D01*
X01268435Y00559678D01*
X01270989Y00558620D01*
X01273730Y00558259D01*
X01276471Y00558620D01*
X01279025Y00559678D01*
X01281219Y00561361D01*
X01282902Y00563555D01*
X01283960Y00566109D01*
X01284321Y00568850D01*
X01283960Y00571591D01*
X01282902Y00574145D01*
X01281219Y00576339D01*
X01279025Y00578022D01*
X01276471Y00579080D01*
X01273730Y00579441D01*
D02*
G37*
G36*
X01214189Y00558780D02*
X01205500D01*
Y00550091D01*
X01206851Y00550268D01*
X01209293Y00551280D01*
X01211391Y00552889D01*
X01213000Y00554987D01*
X01214012Y00557429D01*
X01214189Y00558780D01*
D02*
G37*
G36*
X01202960D02*
X01194271D01*
X01194448Y00557429D01*
X01195460Y00554987D01*
X01197069Y00552889D01*
X01199167Y00551280D01*
X01201609Y00550268D01*
X01202960Y00550091D01*
Y00558780D01*
D02*
G37*
G36*
X01273730Y00554041D02*
X01270989Y00553680D01*
X01268435Y00552622D01*
X01266241Y00550939D01*
X01264558Y00548745D01*
X01263500Y00546191D01*
X01263139Y00543450D01*
X01263500Y00540709D01*
X01264558Y00538155D01*
X01266241Y00535961D01*
X01268435Y00534278D01*
X01270989Y00533220D01*
X01273730Y00532859D01*
X01276471Y00533220D01*
X01279025Y00534278D01*
X01281219Y00535961D01*
X01282902Y00538155D01*
X01283960Y00540709D01*
X01284321Y00543450D01*
X01283960Y00546191D01*
X01282902Y00548745D01*
X01281219Y00550939D01*
X01279025Y00552622D01*
X01276471Y00553680D01*
X01273730Y00554041D01*
D02*
G37*
%LPD*%
D14*
X01138030Y00603050D02*
X01171030D01*
X01204230Y00636250D01*
X01138030Y00603050D02*
X01138030Y00603050D01*
D53*
X01138030Y01073150D02*
D03*
X01163430D02*
D03*
X01138030Y01047750D02*
D03*
X01163430D02*
D03*
X01138030Y01022350D02*
D03*
X01163430D02*
D03*
X01138030Y00996950D02*
D03*
X01163430D02*
D03*
X01138030Y00971550D02*
D03*
X01163430D02*
D03*
X01138030Y00946150D02*
D03*
X01163430D02*
D03*
X01138030Y00920750D02*
D03*
X01163430D02*
D03*
X01138030Y00895350D02*
D03*
X01163430D02*
D03*
X01138030Y00869950D02*
D03*
X01163430D02*
D03*
X01138030Y00844550D02*
D03*
X01163430D02*
D03*
X01138030Y00819150D02*
D03*
X01163430D02*
D03*
X01138030Y00793750D02*
D03*
X01163430D02*
D03*
X01138030Y00768350D02*
D03*
X01163430D02*
D03*
X01138030Y00742950D02*
D03*
X01163430D02*
D03*
X01138030Y00717550D02*
D03*
X01163430D02*
D03*
X01138030Y00692150D02*
D03*
X01163430D02*
D03*
X01138030Y00666750D02*
D03*
X01163430D02*
D03*
X01138030Y00641350D02*
D03*
X01163430D02*
D03*
X01138030Y00615950D02*
D03*
X01163430D02*
D03*
X01138030Y00590550D02*
D03*
X01273730Y00543450D02*
D03*
Y00568850D02*
D03*
Y00594250D02*
D03*
Y00619650D02*
D03*
Y00645050D02*
D03*
Y00695850D02*
D03*
D54*
X01163430Y00590550D02*
D03*
D64*
X01452045Y01026850D02*
X01472975Y01005920D01*
X01473289D01*
X01451730Y01026850D02*
X01452045D01*
X01267980Y01045850D02*
X01273480Y01040350D01*
X01214730Y01041850D02*
X01214987D01*
X01218987Y01045850D01*
X01267980D01*
X01268473Y00872850D02*
X01268516Y00872893D01*
X01241730Y00872850D02*
X01268473D01*
X01271773Y00872893D02*
X01272730Y00873850D01*
X01268516Y00872893D02*
X01271773D01*
X01352730Y00602850D02*
X01352760Y00602820D01*
Y00568880D02*
X01352790Y00568850D01*
X01352760Y00568880D02*
Y00602820D01*
X01184730Y00847850D02*
X01202730D01*
X01150330Y00856850D02*
X01175730D01*
X01184730Y00847850D01*
X01138030Y00844550D02*
X01150330Y00856850D01*
X01125730Y00882250D02*
X01138030Y00869950D01*
X01423730Y00641350D02*
Y00658850D01*
X01350730Y00991850D02*
Y01012850D01*
X01344730Y01018850D02*
X01350730Y01012850D01*
X01303730Y00774850D02*
Y00784850D01*
X01321730Y00802850D01*
X01150048Y00781732D02*
X01200730D01*
X01138030Y00793750D02*
X01150048Y00781732D01*
X01192480Y00768100D02*
X01192730Y00767850D01*
X01163680Y00768100D02*
X01192480D01*
X01163430Y00768350D02*
X01163680Y00768100D01*
X01295720Y00781840D02*
X01296676Y00782796D01*
X01307730Y00797850D02*
Y00807850D01*
X01296676Y00782796D02*
Y00786796D01*
X01307730Y00797850D01*
X01448200Y00904320D02*
X01473289D01*
X01442730Y00898850D02*
X01448200Y00904320D01*
X01154945Y00704850D02*
X01173730D01*
X01150730Y00700635D02*
X01154945Y00704850D01*
X01150730Y00679450D02*
Y00700635D01*
X01138030Y00666750D02*
X01150730Y00679450D01*
X01553730Y00956850D02*
X01575730D01*
X01581208Y00962328D01*
X01125730Y00882250D02*
Y00980850D01*
X01128848Y00983968D01*
X01150730D01*
X01602252Y00962328D02*
X01602255Y00962325D01*
X01581208Y00962328D02*
X01602252D01*
X01553730Y00974850D02*
X01599377D01*
X01600377Y00975850D01*
X01601730D01*
X01272730Y00984600D02*
X01273480Y00985350D01*
X01240480Y00983850D02*
X01241230Y00984600D01*
X01272730D01*
D65*
X01591730Y00993850D02*
X01617730Y01019850D01*
X01561730Y00993850D02*
X01591730D01*
X01617730Y01019850D02*
X01632918D01*
X01634918Y01021850D02*
X01635730D01*
X01632918Y01019850D02*
X01634918Y01021850D01*
X01242730Y00623950D02*
Y00652850D01*
X01204230Y00585450D02*
X01242730Y00623950D01*
Y00652850D02*
X01263730Y00673850D01*
X01256730Y00806038D02*
Y00806850D01*
X01255230Y00804538D02*
X01256730Y00806038D01*
X01244893Y00793750D02*
X01255230Y00804087D01*
Y00804538D01*
X01163430Y00793750D02*
X01244893D01*
D67*
X01204230Y00687050D02*
D03*
X01473289Y01082120D02*
D03*
X01574569Y00702489D02*
D03*
D68*
X01204230Y00661650D02*
D03*
Y00636250D02*
D03*
Y00610850D02*
D03*
Y00585450D02*
D03*
Y00560050D02*
D03*
X01498689Y01082120D02*
D03*
X01473289Y01056720D02*
D03*
X01498689D02*
D03*
X01473289Y01031320D02*
D03*
X01498689D02*
D03*
X01473289Y01005920D02*
D03*
X01498689D02*
D03*
X01473289Y00980520D02*
D03*
X01498689D02*
D03*
X01473289Y00955120D02*
D03*
X01498689D02*
D03*
X01473289Y00929720D02*
D03*
X01498689D02*
D03*
X01473289Y00904320D02*
D03*
X01498689D02*
D03*
X01473289Y00878920D02*
D03*
X01498689D02*
D03*
X01473289Y00853520D02*
D03*
X01498689D02*
D03*
X01574569Y00626289D02*
D03*
Y00651689D02*
D03*
Y00677089D02*
D03*
X01335730Y00748850D02*
D03*
X01208730Y01118850D02*
D03*
X01584730Y00576850D02*
D03*
X01356730Y00772850D02*
D03*
D69*
X01409130Y00704850D02*
D03*
D70*
X01383730D02*
D03*
D71*
X01640730Y01121850D02*
D03*
X01150730D02*
D03*
X01640730Y00541850D02*
D03*
X01150730D02*
D03*
D72*
X01273730Y00721250D02*
D03*
D73*
X01294730Y00974850D02*
D03*
X01451730Y01026850D02*
D03*
X01561730Y00982850D02*
D03*
Y00966850D02*
D03*
X01581730Y00932850D02*
D03*
X01214730Y01041850D02*
D03*
X01352790Y00568850D02*
D03*
X01202730Y00847850D02*
D03*
X01272730Y00873850D02*
D03*
X01330730Y00855850D02*
D03*
X01352730Y00602850D02*
D03*
X01263730Y00673850D02*
D03*
X01423730Y00658850D02*
D03*
X01396730Y00666850D02*
D03*
X01423730Y00641350D02*
D03*
X01561869Y00664389D02*
D03*
X01425730Y01066850D02*
D03*
X01600730Y01092850D02*
D03*
X01623730Y01029850D02*
D03*
X01225730Y01036850D02*
D03*
X01350730Y00991850D02*
D03*
X01363730Y00803850D02*
D03*
X01321730Y00802850D02*
D03*
X01266730Y01094850D02*
D03*
X01200730Y00781732D02*
D03*
X01238730Y00805153D02*
D03*
X01524730Y00750850D02*
D03*
X01635730Y01021850D02*
D03*
X01533730Y00788850D02*
D03*
X01662730Y00659850D02*
D03*
X01515730Y00651850D02*
D03*
X01359730Y01001850D02*
D03*
X01221730Y00720850D02*
D03*
X01192730Y00767850D02*
D03*
X01240730Y00751850D02*
D03*
X01256730Y00806850D02*
D03*
X01303730Y00774850D02*
D03*
X01295720Y00781840D02*
D03*
X01307730Y00807850D02*
D03*
X01442730Y00898850D02*
D03*
X01319730Y00839850D02*
D03*
X01390730Y00568850D02*
D03*
X01595730Y01144850D02*
D03*
X01515730D02*
D03*
X01435730D02*
D03*
X01355730D02*
D03*
X01275730D02*
D03*
X01195730D02*
D03*
X01663730Y01069850D02*
D03*
Y00989850D02*
D03*
Y00909850D02*
D03*
Y00829850D02*
D03*
Y00749850D02*
D03*
X01607730Y00691850D02*
D03*
X01662730Y00590850D02*
D03*
X01223730Y00980850D02*
D03*
X01224730Y00924850D02*
D03*
X01226730Y00867850D02*
D03*
X01298730Y00753850D02*
D03*
X01329730Y00615850D02*
D03*
X01322730Y00663850D02*
D03*
X01443730Y00690850D02*
D03*
X01173730Y00704850D02*
D03*
X01452730Y01005850D02*
D03*
X01278033Y01119153D02*
D03*
X01553730Y00956850D02*
D03*
X01224730Y01069850D02*
D03*
X01266730D02*
D03*
Y01013850D02*
D03*
Y00957850D02*
D03*
X01241730Y00872850D02*
D03*
X01225730Y00901850D02*
D03*
X01266730D02*
D03*
X01174730Y00933850D02*
D03*
Y00958850D02*
D03*
X01150730Y00983968D02*
D03*
X01602255Y00962325D02*
D03*
X01553730Y00974850D02*
D03*
X01561730Y00942850D02*
D03*
X01532730Y00628850D02*
D03*
X01571730Y00721850D02*
D03*
X01553730Y00581850D02*
D03*
X01438730Y00636850D02*
D03*
X01497730Y00581850D02*
D03*
X01181730Y01013850D02*
D03*
X01641730Y00829850D02*
D03*
Y00909850D02*
D03*
X01642730Y00743850D02*
D03*
X01184730Y00517850D02*
D03*
X01313730D02*
D03*
X01459730Y00519850D02*
D03*
X01588730Y00518850D02*
D03*
X01457730Y00660850D02*
D03*
X01352730Y00852850D02*
D03*
X01450730Y00828850D02*
D03*
X01433730Y00888850D02*
D03*
X01334730Y00908850D02*
D03*
X01323730Y00956850D02*
D03*
X01458730Y00966850D02*
D03*
X01240480Y01070108D02*
D03*
X01601730Y00975850D02*
D03*
X01344730Y01018850D02*
D03*
X01225183Y00958397D02*
D03*
X01561730Y00993850D02*
D03*
X01409730Y00592850D02*
D03*
X01273480Y01040350D02*
D03*
X01240480Y00983850D02*
D03*
X01273480Y00985350D02*
D03*
X01224480Y01015350D02*
D03*
D74*
X01138030Y00590550D02*
Y00603050D01*
Y00615950D01*
M02*
