G04*
G04 #@! TF.GenerationSoftware,Altium Limited,Altium Designer,22.6.1 (34)*
G04*
G04 Layer_Color=128*
%FSAX44Y44*%
%MOMM*%
G71*
G04*
G04 #@! TF.SameCoordinates,3ED828DF-7C99-4F06-8B8B-480B9A04C0B7*
G04*
G04*
G04 #@! TF.FilePolarity,Positive*
G04*
G01*
G75*
%ADD77C,0.0508*%
D77*
X01199730Y00687050D02*
X01208730D01*
X01204230Y00682550D02*
Y00691550D01*
X01199730Y00661650D02*
X01208730D01*
X01204230Y00657150D02*
Y00666150D01*
X01199730Y00636250D02*
X01208730D01*
X01204230Y00631750D02*
Y00640750D01*
X01199730Y00610850D02*
X01208730D01*
X01204230Y00606350D02*
Y00615350D01*
X01199730Y00585450D02*
X01208730D01*
X01204230Y00580950D02*
Y00589950D01*
X01199730Y00560050D02*
X01208730D01*
X01204230Y00555550D02*
Y00564550D01*
X01404630Y00704850D02*
X01413630D01*
X01409130Y00700350D02*
Y00709350D01*
X01379230Y00704850D02*
X01388230D01*
X01383730Y00700350D02*
Y00709350D01*
X01133530Y01073150D02*
X01142530D01*
X01138030Y01068650D02*
Y01077650D01*
X01158930Y01073150D02*
X01167930D01*
X01163430Y01068650D02*
Y01077650D01*
X01133530Y01047750D02*
X01142530D01*
X01138030Y01043250D02*
Y01052250D01*
X01158930Y01047750D02*
X01167930D01*
X01163430Y01043250D02*
Y01052250D01*
X01133530Y01022350D02*
X01142530D01*
X01138030Y01017850D02*
Y01026850D01*
X01158930Y01022350D02*
X01167930D01*
X01163430Y01017850D02*
Y01026850D01*
X01133530Y00996950D02*
X01142530D01*
X01138030Y00992450D02*
Y01001450D01*
X01158930Y00996950D02*
X01167930D01*
X01163430Y00992450D02*
Y01001450D01*
X01133530Y00971550D02*
X01142530D01*
X01138030Y00967050D02*
Y00976050D01*
X01158930Y00971550D02*
X01167930D01*
X01163430Y00967050D02*
Y00976050D01*
X01133530Y00946150D02*
X01142530D01*
X01138030Y00941650D02*
Y00950650D01*
X01158930Y00946150D02*
X01167930D01*
X01163430Y00941650D02*
Y00950650D01*
X01133530Y00920750D02*
X01142530D01*
X01138030Y00916250D02*
Y00925250D01*
X01158930Y00920750D02*
X01167930D01*
X01163430Y00916250D02*
Y00925250D01*
X01133530Y00895350D02*
X01142530D01*
X01138030Y00890850D02*
Y00899850D01*
X01158930Y00895350D02*
X01167930D01*
X01163430Y00890850D02*
Y00899850D01*
X01133530Y00869950D02*
X01142530D01*
X01138030Y00865450D02*
Y00874450D01*
X01158930Y00869950D02*
X01167930D01*
X01163430Y00865450D02*
Y00874450D01*
X01133530Y00844550D02*
X01142530D01*
X01138030Y00840050D02*
Y00849050D01*
X01158930Y00844550D02*
X01167930D01*
X01163430Y00840050D02*
Y00849050D01*
X01133530Y00819150D02*
X01142530D01*
X01138030Y00814650D02*
Y00823650D01*
X01158930Y00819150D02*
X01167930D01*
X01163430Y00814650D02*
Y00823650D01*
X01133530Y00793750D02*
X01142530D01*
X01138030Y00789250D02*
Y00798250D01*
X01158930Y00793750D02*
X01167930D01*
X01163430Y00789250D02*
Y00798250D01*
X01133530Y00768350D02*
X01142530D01*
X01138030Y00763850D02*
Y00772850D01*
X01158930Y00768350D02*
X01167930D01*
X01163430Y00763850D02*
Y00772850D01*
X01133530Y00742950D02*
X01142530D01*
X01138030Y00738450D02*
Y00747450D01*
X01158930Y00742950D02*
X01167930D01*
X01163430Y00738450D02*
Y00747450D01*
X01133530Y00717550D02*
X01142530D01*
X01138030Y00713050D02*
Y00722050D01*
X01158930Y00717550D02*
X01167930D01*
X01163430Y00713050D02*
Y00722050D01*
X01133530Y00692150D02*
X01142530D01*
X01138030Y00687650D02*
Y00696650D01*
X01158930Y00692150D02*
X01167930D01*
X01163430Y00687650D02*
Y00696650D01*
X01133530Y00666750D02*
X01142530D01*
X01138030Y00662250D02*
Y00671250D01*
X01158930Y00666750D02*
X01167930D01*
X01163430Y00662250D02*
Y00671250D01*
X01133530Y00641350D02*
X01142530D01*
X01138030Y00636850D02*
Y00645850D01*
X01158930Y00641350D02*
X01167930D01*
X01163430Y00636850D02*
Y00645850D01*
X01133530Y00615950D02*
X01142530D01*
X01138030Y00611450D02*
Y00620450D01*
X01158930Y00615950D02*
X01167930D01*
X01163430Y00611450D02*
Y00620450D01*
X01133530Y00590550D02*
X01142530D01*
X01138030Y00586050D02*
Y00595050D01*
X01158930Y00590550D02*
X01167930D01*
X01163430Y00586050D02*
Y00595050D01*
X01626980Y01121850D02*
X01654480D01*
X01640730Y01108100D02*
Y01135600D01*
X01136980Y01121850D02*
X01164480D01*
X01150730Y01108100D02*
Y01135600D01*
X01626980Y00541850D02*
X01654480D01*
X01640730Y00528100D02*
Y00555600D01*
X01136980Y00541850D02*
X01164480D01*
X01150730Y00528100D02*
Y00555600D01*
X01468789Y01082120D02*
X01477789D01*
X01473289Y01077620D02*
Y01086620D01*
X01494189Y01082120D02*
X01503189D01*
X01498689Y01077620D02*
Y01086620D01*
X01468789Y01056720D02*
X01477789D01*
X01473289Y01052220D02*
Y01061220D01*
X01494189Y01056720D02*
X01503189D01*
X01498689Y01052220D02*
Y01061220D01*
X01468789Y01031320D02*
X01477789D01*
X01473289Y01026820D02*
Y01035820D01*
X01494189Y01031320D02*
X01503189D01*
X01498689Y01026820D02*
Y01035820D01*
X01468789Y01005920D02*
X01477789D01*
X01473289Y01001420D02*
Y01010420D01*
X01494189Y01005920D02*
X01503189D01*
X01498689Y01001420D02*
Y01010420D01*
X01468789Y00980520D02*
X01477789D01*
X01473289Y00976020D02*
Y00985020D01*
X01494189Y00980520D02*
X01503189D01*
X01498689Y00976020D02*
Y00985020D01*
X01468789Y00955120D02*
X01477789D01*
X01473289Y00950620D02*
Y00959620D01*
X01494189Y00955120D02*
X01503189D01*
X01498689Y00950620D02*
Y00959620D01*
X01468789Y00929720D02*
X01477789D01*
X01473289Y00925220D02*
Y00934220D01*
X01494189Y00929720D02*
X01503189D01*
X01498689Y00925220D02*
Y00934220D01*
X01468789Y00904320D02*
X01477789D01*
X01473289Y00899820D02*
Y00908820D01*
X01494189Y00904320D02*
X01503189D01*
X01498689Y00899820D02*
Y00908820D01*
X01468789Y00878920D02*
X01477789D01*
X01473289Y00874420D02*
Y00883420D01*
X01494189Y00878920D02*
X01503189D01*
X01498689Y00874420D02*
Y00883420D01*
X01468789Y00853520D02*
X01477789D01*
X01473289Y00849020D02*
Y00858020D01*
X01494189Y00853520D02*
X01503189D01*
X01498689Y00849020D02*
Y00858020D01*
X01269230Y00543450D02*
X01278230D01*
X01273730Y00538950D02*
Y00547950D01*
X01269230Y00568850D02*
X01278230D01*
X01273730Y00564350D02*
Y00573350D01*
X01269230Y00594250D02*
X01278230D01*
X01273730Y00589750D02*
Y00598750D01*
X01269230Y00619650D02*
X01278230D01*
X01273730Y00615150D02*
Y00624150D01*
X01269230Y00645050D02*
X01278230D01*
X01273730Y00640550D02*
Y00649550D01*
X01269230Y00695850D02*
X01278230D01*
X01273730Y00691350D02*
Y00700350D01*
X01269230Y00721250D02*
X01278230D01*
X01273730Y00716750D02*
Y00725750D01*
X01597089Y00987470D02*
X01607089D01*
X01602089Y00982470D02*
Y00992470D01*
X01597089Y00949370D02*
X01607089D01*
X01602089Y00944370D02*
Y00954370D01*
X01570069Y00626289D02*
X01579069D01*
X01574569Y00621789D02*
Y00630789D01*
X01570069Y00651689D02*
X01579069D01*
X01574569Y00647189D02*
Y00656189D01*
X01570069Y00677089D02*
X01579069D01*
X01574569Y00672589D02*
Y00681589D01*
X01570069Y00702489D02*
X01579069D01*
X01574569Y00697989D02*
Y00706989D01*
X01293230Y00974850D02*
X01296230D01*
X01294730Y00973350D02*
Y00976350D01*
X01450230Y01026850D02*
X01453230D01*
X01451730Y01025350D02*
Y01028350D01*
X01560230Y00982850D02*
X01563230D01*
X01561730Y00981350D02*
Y00984350D01*
X01560230Y00966850D02*
X01563230D01*
X01561730Y00965350D02*
Y00968350D01*
X01580230Y00932850D02*
X01583230D01*
X01581730Y00931350D02*
Y00934350D01*
X01213230Y01041850D02*
X01216230D01*
X01214730Y01040350D02*
Y01043350D01*
X01351290Y00568850D02*
X01354290D01*
X01352790Y00567350D02*
Y00570350D01*
X01201230Y00847850D02*
X01204230D01*
X01202730Y00846350D02*
Y00849350D01*
X01271230Y00873850D02*
X01274230D01*
X01272730Y00872350D02*
Y00875350D01*
X01329230Y00855850D02*
X01332230D01*
X01330730Y00854350D02*
Y00857350D01*
X01351230Y00602850D02*
X01354230D01*
X01352730Y00601350D02*
Y00604350D01*
X01262230Y00673850D02*
X01265230D01*
X01263730Y00672350D02*
Y00675350D01*
X01422230Y00658850D02*
X01425230D01*
X01423730Y00657350D02*
Y00660350D01*
X01395230Y00666850D02*
X01398230D01*
X01396730Y00665350D02*
Y00668350D01*
X01422230Y00641350D02*
X01425230D01*
X01423730Y00639850D02*
Y00642850D01*
X01560369Y00664389D02*
X01563369D01*
X01561869Y00662889D02*
Y00665889D01*
X01424230Y01066850D02*
X01427230D01*
X01425730Y01065350D02*
Y01068350D01*
X01599230Y01092850D02*
X01602230D01*
X01600730Y01091350D02*
Y01094350D01*
X01622230Y01029850D02*
X01625230D01*
X01623730Y01028350D02*
Y01031350D01*
X01224230Y01036850D02*
X01227230D01*
X01225730Y01035350D02*
Y01038350D01*
X01349230Y00991850D02*
X01352230D01*
X01350730Y00990350D02*
Y00993350D01*
X01362230Y00803850D02*
X01365230D01*
X01363730Y00802350D02*
Y00805350D01*
X01320230Y00802850D02*
X01323230D01*
X01321730Y00801350D02*
Y00804350D01*
X01331230Y00748850D02*
X01340230D01*
X01335730Y00744350D02*
Y00753350D01*
X01204230Y01118850D02*
X01213230D01*
X01208730Y01114350D02*
Y01123350D01*
X01580230Y00576850D02*
X01589230D01*
X01584730Y00572350D02*
Y00581350D01*
X01265230Y01094850D02*
X01268230D01*
X01266730Y01093350D02*
Y01096350D01*
X01199230Y00781732D02*
X01202230D01*
X01200730Y00780232D02*
Y00783232D01*
X01237230Y00805153D02*
X01240230D01*
X01238730Y00803653D02*
Y00806653D01*
X01523230Y00750850D02*
X01526230D01*
X01524730Y00749350D02*
Y00752350D01*
X01634230Y01021850D02*
X01637230D01*
X01635730Y01020350D02*
Y01023350D01*
X01532230Y00788850D02*
X01535230D01*
X01533730Y00787350D02*
Y00790350D01*
X01661230Y00659850D02*
X01664230D01*
X01662730Y00658350D02*
Y00661350D01*
X01514230Y00651850D02*
X01517230D01*
X01515730Y00650350D02*
Y00653350D01*
X01358230Y01001850D02*
X01361230D01*
X01359730Y01000350D02*
Y01003350D01*
X01220230Y00720850D02*
X01223230D01*
X01221730Y00719350D02*
Y00722350D01*
X01191230Y00767850D02*
X01194230D01*
X01192730Y00766350D02*
Y00769350D01*
X01239230Y00751850D02*
X01242230D01*
X01240730Y00750350D02*
Y00753350D01*
X01255230Y00806850D02*
X01258230D01*
X01256730Y00805350D02*
Y00808350D01*
X01302230Y00774850D02*
X01305230D01*
X01303730Y00773350D02*
Y00776350D01*
X01294220Y00781840D02*
X01297220D01*
X01295720Y00780340D02*
Y00783340D01*
X01306230Y00807850D02*
X01309230D01*
X01307730Y00806350D02*
Y00809350D01*
X01441230Y00898850D02*
X01444230D01*
X01442730Y00897350D02*
Y00900350D01*
X01318230Y00839850D02*
X01321230D01*
X01319730Y00838350D02*
Y00841350D01*
X01389230Y00568850D02*
X01392230D01*
X01390730Y00567350D02*
Y00570350D01*
X01594230Y01144850D02*
X01597230D01*
X01595730Y01143350D02*
Y01146350D01*
X01514230Y01144850D02*
X01517230D01*
X01515730Y01143350D02*
Y01146350D01*
X01434230Y01144850D02*
X01437230D01*
X01435730Y01143350D02*
Y01146350D01*
X01354230Y01144850D02*
X01357230D01*
X01355730Y01143350D02*
Y01146350D01*
X01274230Y01144850D02*
X01277230D01*
X01275730Y01143350D02*
Y01146350D01*
X01194230Y01144850D02*
X01197230D01*
X01195730Y01143350D02*
Y01146350D01*
X01662230Y01069850D02*
X01665230D01*
X01663730Y01068350D02*
Y01071350D01*
X01662230Y00989850D02*
X01665230D01*
X01663730Y00988350D02*
Y00991350D01*
X01662230Y00909850D02*
X01665230D01*
X01663730Y00908350D02*
Y00911350D01*
X01662230Y00829850D02*
X01665230D01*
X01663730Y00828350D02*
Y00831350D01*
X01662230Y00749850D02*
X01665230D01*
X01663730Y00748350D02*
Y00751350D01*
X01606230Y00691850D02*
X01609230D01*
X01607730Y00690350D02*
Y00693350D01*
X01661230Y00590850D02*
X01664230D01*
X01662730Y00589350D02*
Y00592350D01*
X01222230Y00980850D02*
X01225230D01*
X01223730Y00979350D02*
Y00982350D01*
X01223230Y00924850D02*
X01226230D01*
X01224730Y00923350D02*
Y00926350D01*
X01225230Y00867850D02*
X01228230D01*
X01226730Y00866350D02*
Y00869350D01*
X01297230Y00753850D02*
X01300230D01*
X01298730Y00752350D02*
Y00755350D01*
X01328230Y00615850D02*
X01331230D01*
X01329730Y00614350D02*
Y00617350D01*
X01321230Y00663850D02*
X01324230D01*
X01322730Y00662350D02*
Y00665350D01*
X01442230Y00690850D02*
X01445230D01*
X01443730Y00689350D02*
Y00692350D01*
X01352230Y00772850D02*
X01361230D01*
X01356730Y00768350D02*
Y00777350D01*
X01172230Y00704850D02*
X01175230D01*
X01173730Y00703350D02*
Y00706350D01*
X01451230Y01005850D02*
X01454230D01*
X01452730Y01004350D02*
Y01007350D01*
X01276533Y01119153D02*
X01279533D01*
X01278033Y01117653D02*
Y01120653D01*
X01552230Y00956850D02*
X01555230D01*
X01553730Y00955350D02*
Y00958350D01*
X01223230Y01069850D02*
X01226230D01*
X01224730Y01068350D02*
Y01071350D01*
X01265230Y01069850D02*
X01268230D01*
X01266730Y01068350D02*
Y01071350D01*
X01265230Y01013850D02*
X01268230D01*
X01266730Y01012350D02*
Y01015350D01*
X01265230Y00957850D02*
X01268230D01*
X01266730Y00956350D02*
Y00959350D01*
X01240230Y00872850D02*
X01243230D01*
X01241730Y00871350D02*
Y00874350D01*
X01224230Y00901850D02*
X01227230D01*
X01225730Y00900350D02*
Y00903350D01*
X01265230Y00901850D02*
X01268230D01*
X01266730Y00900350D02*
Y00903350D01*
X01173230Y00933850D02*
X01176230D01*
X01174730Y00932350D02*
Y00935350D01*
X01173230Y00958850D02*
X01176230D01*
X01174730Y00957350D02*
Y00960350D01*
X01149230Y00983968D02*
X01152230D01*
X01150730Y00982467D02*
Y00985468D01*
X01600755Y00962325D02*
X01603755D01*
X01602255Y00960825D02*
Y00963825D01*
X01552230Y00974850D02*
X01555230D01*
X01553730Y00973350D02*
Y00976350D01*
X01560230Y00942850D02*
X01563230D01*
X01561730Y00941350D02*
Y00944350D01*
X01531230Y00628850D02*
X01534230D01*
X01532730Y00627350D02*
Y00630350D01*
X01570230Y00721850D02*
X01573230D01*
X01571730Y00720350D02*
Y00723350D01*
X01552230Y00581850D02*
X01555230D01*
X01553730Y00580350D02*
Y00583350D01*
X01437230Y00636850D02*
X01440230D01*
X01438730Y00635350D02*
Y00638350D01*
X01496230Y00581850D02*
X01499230D01*
X01497730Y00580350D02*
Y00583350D01*
X01180230Y01013850D02*
X01183230D01*
X01181730Y01012350D02*
Y01015350D01*
X01640230Y00829850D02*
X01643230D01*
X01641730Y00828350D02*
Y00831350D01*
X01640230Y00909850D02*
X01643230D01*
X01641730Y00908350D02*
Y00911350D01*
X01641230Y00743850D02*
X01644230D01*
X01642730Y00742350D02*
Y00745350D01*
X01183230Y00517850D02*
X01186230D01*
X01184730Y00516350D02*
Y00519350D01*
X01312230Y00517850D02*
X01315230D01*
X01313730Y00516350D02*
Y00519350D01*
X01458230Y00519850D02*
X01461230D01*
X01459730Y00518350D02*
Y00521350D01*
X01587230Y00518850D02*
X01590230D01*
X01588730Y00517350D02*
Y00520350D01*
X01456230Y00660850D02*
X01459230D01*
X01457730Y00659350D02*
Y00662350D01*
X01351230Y00852850D02*
X01354230D01*
X01352730Y00851350D02*
Y00854350D01*
X01449230Y00828850D02*
X01452230D01*
X01450730Y00827350D02*
Y00830350D01*
X01432230Y00888850D02*
X01435230D01*
X01433730Y00887350D02*
Y00890350D01*
X01333230Y00908850D02*
X01336230D01*
X01334730Y00907350D02*
Y00910350D01*
X01322230Y00956850D02*
X01325230D01*
X01323730Y00955350D02*
Y00958350D01*
X01457230Y00966850D02*
X01460230D01*
X01458730Y00965350D02*
Y00968350D01*
X01238980Y01070108D02*
X01241980D01*
X01240480Y01068608D02*
Y01071608D01*
X01600230Y00975850D02*
X01603230D01*
X01601730Y00974350D02*
Y00977350D01*
X01343230Y01018850D02*
X01346230D01*
X01344730Y01017350D02*
Y01020350D01*
X01223683Y00958397D02*
X01226683D01*
X01225183Y00956897D02*
Y00959897D01*
X01560230Y00993850D02*
X01563230D01*
X01561730Y00992350D02*
Y00995350D01*
X01408230Y00592850D02*
X01411230D01*
X01409730Y00591350D02*
Y00594350D01*
X01271980Y01040350D02*
X01274980D01*
X01273480Y01038850D02*
Y01041850D01*
X01238980Y00983850D02*
X01241980D01*
X01240480Y00982350D02*
Y00985350D01*
X01271980D02*
X01274980D01*
X01273480Y00983850D02*
Y00986850D01*
X01222980Y01015350D02*
X01225980D01*
X01224480Y01013850D02*
Y01016850D01*
M02*
