M48
;Layer_Color=9474304
;FILE_FORMAT=4:4
METRIC
;TYPE=PLATED
T1F00S00C0.3000
T2F00S00C0.9000
%
T01
X01588730Y00518850
X01662730Y00590850
Y00659850
X01607730Y00691850
X01642730Y00743850
X01663730Y00749850
X01571730Y00721850
X01561869Y00664389
X01515730Y00651850
X01532730Y00628850
X01553730Y00581850
X01497730
X01409730Y00592850
X01390730Y00568850
X01352790
X01352730Y00602850
X01329730Y00615850
X01322730Y00663850
X01263730Y00673850
X01221730Y00720850
X01240730Y00751850
X01298730Y00753850
X01303730Y00774850
X01295720Y00781840
X01200730Y00781732
X01192730Y00767850
X01396730Y00666850
X01423730Y00658850
Y00641350
X01438730Y00636850
X01457730Y00660850
X01443730Y00690850
X01524730Y00750850
X01533730Y00788850
X01459730Y00519850
X01313730Y00517850
X01184730
X01173730Y00704850
X01174730Y00933850
Y00958850
X01150730Y00983968
X01181730Y01013850
X01224480Y01015350
X01225730Y01036850
X01214730Y01041850
X01224730Y01069850
X01240480Y01070108
X01266730Y01069850
Y01094850
X01278033Y01119153
X01275730Y01144850
X01355730
X01435730
X01515730
X01425730Y01066850
X01451730Y01026850
X01452730Y01005850
X01458730Y00966850
X01442730Y00898850
X01433730Y00888850
X01450730Y00828850
X01363730Y00803850
X01321730Y00802850
X01307730Y00807850
X01319730Y00839850
X01330730Y00855850
X01352730Y00852850
X01334730Y00908850
X01323730Y00956850
X01294730Y00974850
X01273480Y00985350
X01266730Y00957850
X01225183Y00958397
X01223730Y00980850
X01240480Y00983850
X01266730Y01013850
X01273480Y01040350
X01344730Y01018850
X01359730Y01001850
X01350730Y00991850
X01266730Y00901850
X01272730Y00873850
X01241730Y00872850
X01226730Y00867850
X01225730Y00901850
X01224730Y00924850
X01202730Y00847850
X01238730Y00805153
X01256730Y00806850
X01195730Y01144850
X01561730Y00993850
X01561730Y00982850
Y00966850
X01553730Y00974850
Y00956850
X01561730Y00942850
X01581730Y00932850
X01602255Y00962325
X01601730Y00975850
X01623730Y01029850
X01635730Y01021850
X01663730Y00989850
Y01069850
X01600730Y01092850
X01595730Y01144850
X01641730Y00909850
X01663730Y00909850
Y00829850
X01641730Y00829850
T02
X01204230Y00560050
Y00585450
Y00610850
Y00636250
Y00661650
Y00687050
X01273730Y00695850
Y00721250
Y00645050
Y00619650
Y00594250
Y00568850
Y00543450
X01335730Y00748850
X01356730Y00772850
X01383730Y00704850
X01409130
X01574569Y00702489
Y00677089
Y00651689
Y00626289
X01584730Y00576850
X01163430Y00590550
Y00615950
Y00641350
Y00666750
Y00692150
Y00717550
Y00742950
Y00768350
X01138030
Y00742950
Y00717550
Y00692150
Y00666750
Y00641350
Y00615950
Y00590550
Y00793750
Y00819150
Y00844550
Y00869950
Y00895350
Y00920750
Y00946150
Y00971550
Y00996950
Y01022350
Y01047750
Y01073150
X01163430
Y01047750
Y01022350
Y00996950
Y00971550
Y00946150
Y00920750
Y00895350
Y00869950
Y00844550
Y00819150
Y00793750
X01473289Y00853520
Y00878920
Y00904320
Y00929720
Y00955120
Y00980520
Y01005920
Y01031320
Y01056720
Y01082120
X01498689
Y01056720
Y01031320
Y01005920
Y00980520
Y00955120
Y00929720
Y00904320
Y00878920
Y00853520
X01208730Y01118850
M30
