%TF.GenerationSoftware,KiCad,Pcbnew,5.1.5+dfsg1-2build2*%
%TF.CreationDate,2021-03-31T10:56:14+02:00*%
%TF.ProjectId,Model-M-USB-v3,4d6f6465-6c2d-44d2-9d55-53422d76332e,rev?*%
%TF.SameCoordinates,Original*%
%TF.FileFunction,Copper,L2,Bot*%
%TF.FilePolarity,Positive*%
%FSLAX46Y46*%
G04 Gerber Fmt 4.6, Leading zero omitted, Abs format (unit mm)*
G04 Created by KiCad (PCBNEW 5.1.5+dfsg1-2build2) date 2021-03-31 10:56:14*
%MOMM*%
%LPD*%
G04 APERTURE LIST*
%ADD10O,1.700000X1.700000*%
%ADD11R,1.700000X1.700000*%
%ADD12C,1.500000*%
%ADD13C,3.500000*%
%ADD14C,1.700000*%
%ADD15C,2.100000*%
%ADD16C,1.750000*%
%ADD17C,3.500120*%
%ADD18R,3.500120X3.500120*%
%ADD19C,7.000000*%
%ADD20C,0.800000*%
%ADD21C,1.000000*%
%ADD22C,3.000000*%
%ADD23C,0.500000*%
%ADD24C,0.250000*%
%ADD25C,0.254000*%
%ADD26C,0.200000*%
G04 APERTURE END LIST*
D10*
X177939600Y-64017600D03*
X175399600Y-64017600D03*
X172859600Y-64017600D03*
X170319600Y-64017600D03*
X167779600Y-64017600D03*
X165239600Y-64017600D03*
X162699600Y-64017600D03*
X160159600Y-64017600D03*
X157619600Y-64017600D03*
X155079600Y-64017600D03*
X152539600Y-64017600D03*
D11*
X149999600Y-64017600D03*
D12*
X98820000Y-91900000D03*
X103700000Y-91900000D03*
D10*
X93500000Y-63000000D03*
X96040000Y-63000000D03*
X98580000Y-63000000D03*
X101120000Y-63000000D03*
X103660000Y-63000000D03*
X106200000Y-63000000D03*
X108740000Y-63000000D03*
X111280000Y-63000000D03*
X113820000Y-63000000D03*
X116360000Y-63000000D03*
X118900000Y-63000000D03*
X121440000Y-63000000D03*
X123980000Y-63000000D03*
X126520000Y-63000000D03*
X129060000Y-63000000D03*
D11*
X131600000Y-63000000D03*
D10*
X87560000Y-69250000D03*
D11*
X90100000Y-69250000D03*
D10*
X182000000Y-93080000D03*
X182000000Y-90540000D03*
X182000000Y-88000000D03*
X182000000Y-85460000D03*
D11*
X182000000Y-82920000D03*
D13*
X72770000Y-64790000D03*
X60730000Y-64790000D03*
D14*
X65500000Y-67500000D03*
X68000000Y-67500000D03*
X68000000Y-69500000D03*
D11*
X65500000Y-69500000D03*
D10*
X182000000Y-74540000D03*
D11*
X182000000Y-72000000D03*
D10*
X185585000Y-67345000D03*
X183045000Y-67345000D03*
X180505000Y-67345000D03*
X177965000Y-67345000D03*
D11*
X175425000Y-67345000D03*
D10*
X119170000Y-90050000D03*
X121710000Y-90050000D03*
X124250000Y-90050000D03*
D11*
X126790000Y-90050000D03*
D10*
X76660000Y-93380000D03*
X76660000Y-90840000D03*
X79200000Y-93380000D03*
X79200000Y-90840000D03*
X81740000Y-93380000D03*
D11*
X81740000Y-90840000D03*
D15*
X54250000Y-76990000D03*
D16*
X55500000Y-74500000D03*
X60000000Y-74500000D03*
D15*
X61260000Y-76990000D03*
D17*
X55080000Y-92000000D03*
D18*
X50000000Y-92000000D03*
D19*
X76700000Y-64800000D03*
X52500000Y-64800000D03*
D20*
X104000000Y-74100000D03*
X166630000Y-60910000D03*
X132725000Y-69450000D03*
X133950000Y-61550000D03*
X147150000Y-61500000D03*
D21*
X68550000Y-79100000D03*
D20*
X73620000Y-86020000D03*
X107450000Y-64700000D03*
X139520000Y-69720000D03*
X133100000Y-75200000D03*
X125700000Y-64650000D03*
D22*
X89450000Y-81100000D03*
D20*
X121400000Y-75900000D03*
X126200000Y-66700000D03*
X100600000Y-67900000D03*
D21*
X69500000Y-82700000D03*
X41800000Y-94600000D03*
X179311200Y-80616500D03*
D20*
X67880000Y-91940000D03*
X78750000Y-78200000D03*
X71500000Y-70000000D03*
X71500000Y-76500000D03*
X82000000Y-72000000D03*
X83450000Y-65700000D03*
X85850000Y-65700000D03*
X78400000Y-83500000D03*
X70500000Y-88400000D03*
X64100000Y-94575000D03*
X83100000Y-69700000D03*
X41850000Y-80050000D03*
X41850000Y-62800000D03*
X57500000Y-79500000D03*
X66000000Y-75900000D03*
X73800000Y-81400000D03*
X78300000Y-82100000D03*
X73850000Y-78300000D03*
X71500000Y-72500000D03*
X81900000Y-78250000D03*
X171996000Y-68996000D03*
X162100000Y-71900000D03*
X173100000Y-77500000D03*
X167200000Y-83700000D03*
X171900000Y-83100000D03*
X188100000Y-95300000D03*
X187620000Y-76980000D03*
X170100000Y-95300000D03*
X136100000Y-95800000D03*
X135810000Y-88610000D03*
X156150000Y-95700000D03*
X116875000Y-95750000D03*
X149700000Y-83800000D03*
X149700000Y-88610000D03*
X105375000Y-76275000D03*
X121900000Y-74000000D03*
X94600000Y-65700000D03*
X108954996Y-66654996D03*
X93150000Y-68600000D03*
X114075000Y-90925000D03*
D21*
X85600000Y-91500000D03*
D20*
X124300000Y-93500000D03*
D21*
X96950002Y-84925000D03*
X88474994Y-90075000D03*
D20*
X176733100Y-85493300D03*
X68341698Y-75658302D03*
D21*
X87022980Y-87080171D03*
X96923027Y-83174998D03*
X93649996Y-77250000D03*
X85650000Y-85900000D03*
D20*
X91200000Y-72950000D03*
X102275030Y-77350000D03*
X92200000Y-72650000D03*
X101550020Y-76500000D03*
X92851427Y-73408726D03*
X100764224Y-77314137D03*
X92806025Y-74411891D03*
X100100008Y-76491955D03*
X97425000Y-87025000D03*
X94500000Y-88050000D03*
X90300000Y-88000000D03*
X85649992Y-87050000D03*
X81600000Y-86800000D03*
X116590000Y-76759998D03*
X116600000Y-93400000D03*
X80500000Y-86800000D03*
X126800008Y-88300000D03*
X126800000Y-77400000D03*
X82700000Y-86800000D03*
X119521232Y-65581232D03*
X130590000Y-65570000D03*
X115450000Y-94430000D03*
X77900000Y-92140000D03*
X115486749Y-77425010D03*
X79400000Y-86790000D03*
X114870000Y-65740000D03*
X100400000Y-66100000D03*
X84800000Y-77450000D03*
X83050000Y-77450000D03*
X97100000Y-75900000D03*
X96300000Y-73999990D03*
X98600000Y-78668136D03*
X99250000Y-84900000D03*
X88200000Y-72800000D03*
X101150000Y-85700000D03*
X101200000Y-81250000D03*
X100100000Y-85650000D03*
X100100000Y-80300000D03*
D23*
X78400000Y-63100000D02*
X76700000Y-64800000D01*
X82100000Y-63100000D02*
X78400000Y-63100000D01*
X72780000Y-64800000D02*
X72770000Y-64790000D01*
X76700000Y-64800000D02*
X72780000Y-64800000D01*
X65500000Y-64880000D02*
X65410000Y-64790000D01*
X65500000Y-67500000D02*
X65500000Y-64880000D01*
X65410000Y-64790000D02*
X60730000Y-64790000D01*
X60000000Y-65520000D02*
X60730000Y-64790000D01*
X60000000Y-74500000D02*
X60000000Y-65520000D01*
X64199999Y-67597920D02*
X64199999Y-71199999D01*
X65500000Y-67500000D02*
X64297919Y-67500000D01*
X64199999Y-71199999D02*
X68300000Y-75300000D01*
X64297919Y-67500000D02*
X64199999Y-67597920D01*
X67200000Y-76400000D02*
X68300000Y-75300000D01*
X67200000Y-79900000D02*
X67200000Y-76400000D01*
X52500000Y-89500000D02*
X50000000Y-92000000D01*
X52500000Y-64800000D02*
X52500000Y-89500000D01*
X52580000Y-89500000D02*
X55080000Y-92000000D01*
X52500000Y-89500000D02*
X52580000Y-89500000D01*
X89450000Y-81100000D02*
X89450000Y-81200000D01*
X89450000Y-81100000D02*
X89450000Y-77700000D01*
X89450000Y-77700000D02*
X91400004Y-75749996D01*
X69300001Y-64799999D02*
X69310000Y-64790000D01*
X69300001Y-71099999D02*
X69300001Y-64799999D01*
X68800000Y-71600000D02*
X69300001Y-71099999D01*
X72770000Y-64790000D02*
X69310000Y-64790000D01*
X69310000Y-64790000D02*
X65410000Y-64790000D01*
X68700000Y-75300000D02*
X68800000Y-75200000D01*
X68300000Y-75300000D02*
X68700000Y-75300000D01*
X68800000Y-75200000D02*
X68800000Y-71600000D01*
X60720000Y-64800000D02*
X60730000Y-64790000D01*
X52500000Y-64800000D02*
X60720000Y-64800000D01*
X187620000Y-87460000D02*
X182000000Y-93080000D01*
X119466761Y-93549999D02*
X119708381Y-93791619D01*
X180797919Y-93080000D02*
X182000000Y-93080000D01*
X178500000Y-93000000D02*
X178580000Y-93080000D01*
X178500000Y-81100000D02*
X178500000Y-84300000D01*
X178580000Y-93080000D02*
X180797919Y-93080000D01*
X187600000Y-81100000D02*
X187620000Y-81080000D01*
X178500000Y-81100000D02*
X187600000Y-81100000D01*
X187620000Y-64000000D02*
X187620000Y-76980000D01*
X187620000Y-81080000D02*
X187620000Y-87460000D01*
X136920000Y-93080000D02*
X155520000Y-93080000D01*
X136920000Y-93080000D02*
X136800000Y-92960000D01*
X178500000Y-84300000D02*
X178500000Y-93000000D01*
X187620000Y-76980000D02*
X187620000Y-81080000D01*
X155520000Y-93080000D02*
X178580000Y-93080000D01*
D24*
X121400000Y-74500000D02*
X121900000Y-74000000D01*
X121400000Y-75900000D02*
X121400000Y-74500000D01*
D23*
X105375000Y-76275000D02*
X105375000Y-70234992D01*
X106409992Y-69200000D02*
X108554997Y-67054995D01*
X108554997Y-67054995D02*
X108954996Y-66654996D01*
X105375000Y-70234992D02*
X108954996Y-66654996D01*
X82708004Y-63100000D02*
X82100000Y-63100000D01*
X89450000Y-81100000D02*
X86850000Y-81100000D01*
X84274990Y-90874990D02*
X88075010Y-90874990D01*
X86850000Y-81100000D02*
X82200000Y-85750000D01*
X88075010Y-90874990D02*
X88525010Y-90424990D01*
X89450000Y-81100000D02*
X88400000Y-80050000D01*
X88400000Y-80050000D02*
X79650000Y-80050000D01*
X68800000Y-76900000D02*
X68800000Y-75200000D01*
X71950000Y-80050000D02*
X68800000Y-76900000D01*
X79950000Y-80050000D02*
X71950000Y-80050000D01*
X97400000Y-80100000D02*
X98050000Y-80750000D01*
X132740009Y-93080000D02*
X132720000Y-93100009D01*
X132320001Y-93500008D02*
X132720000Y-93100009D01*
X132028390Y-93791619D02*
X132320001Y-93500008D01*
X119708381Y-93791619D02*
X132028390Y-93791619D01*
X136920000Y-93080000D02*
X132740009Y-93080000D01*
X97750000Y-77250000D02*
X98400000Y-77250000D01*
X95500000Y-77200000D02*
X97700000Y-77200000D01*
X91450000Y-75750000D02*
X94050000Y-75750000D01*
X94050000Y-75750000D02*
X95500000Y-77200000D01*
X126790000Y-90050000D02*
X126790000Y-89990000D01*
X126790000Y-89990000D02*
X124900000Y-88100000D01*
X95600000Y-82950017D02*
X95824981Y-83174998D01*
X95824981Y-83174998D02*
X96923027Y-83174998D01*
X95600000Y-82950017D02*
X95600000Y-79200004D01*
X95600000Y-79200004D02*
X93649996Y-77250000D01*
X85842809Y-85900000D02*
X85650000Y-85900000D01*
X87022980Y-87080171D02*
X85842809Y-85900000D01*
X91469846Y-87080171D02*
X87022980Y-87080171D01*
X95600000Y-82950017D02*
X91469846Y-87080171D01*
D24*
X102275030Y-75075030D02*
X102275030Y-77350000D01*
X91200000Y-72350000D02*
X91700000Y-71850000D01*
X91200000Y-72950000D02*
X91200000Y-72350000D01*
X91700000Y-71850000D02*
X93900000Y-71850000D01*
X93900000Y-71850000D02*
X94650000Y-71100000D01*
X94650000Y-71100000D02*
X98300000Y-71100000D01*
X98300000Y-71100000D02*
X102275030Y-75075030D01*
X101550020Y-75550020D02*
X101550020Y-76500000D01*
X97800000Y-71800000D02*
X101550020Y-75550020D01*
X94950000Y-71800000D02*
X97800000Y-71800000D01*
X92200000Y-72650000D02*
X94100000Y-72650000D01*
X94100000Y-72650000D02*
X94950000Y-71800000D01*
X100825010Y-77253351D02*
X100764224Y-77314137D01*
X100825010Y-76143953D02*
X100825010Y-77253351D01*
X94491274Y-73408726D02*
X95400000Y-72500000D01*
X92851427Y-73408726D02*
X94491274Y-73408726D01*
X95400000Y-72500000D02*
X97300000Y-72500000D01*
X100796405Y-76115348D02*
X100825010Y-76143953D01*
X97300000Y-72500000D02*
X100796405Y-75996405D01*
X100796405Y-75996405D02*
X100796405Y-76115348D01*
X96808053Y-73200000D02*
X100100008Y-76491955D01*
X95850000Y-73200000D02*
X96808053Y-73200000D01*
X92806025Y-74411891D02*
X94638109Y-74411891D01*
X94638109Y-74411891D02*
X95850000Y-73200000D01*
D25*
X96400000Y-88050000D02*
X94500000Y-88050000D01*
X97425000Y-87025000D02*
X96400000Y-88050000D01*
X86599992Y-88000000D02*
X85649992Y-87050000D01*
X90300000Y-88000000D02*
X86599992Y-88000000D01*
D24*
X80510000Y-87890000D02*
X81600000Y-86800000D01*
X80510000Y-92070000D02*
X80510000Y-87890000D01*
X79200000Y-93380000D02*
X80510000Y-92070000D01*
X116590000Y-93390000D02*
X116600000Y-93400000D01*
X116590000Y-76759998D02*
X116590000Y-93390000D01*
X79250000Y-88050000D02*
X80500000Y-86800000D01*
X79250000Y-90970000D02*
X79250000Y-88050000D01*
X126800008Y-77400008D02*
X126800000Y-77400000D01*
X126800008Y-88300000D02*
X126800008Y-77400008D01*
X81740000Y-90840000D02*
X81740000Y-87760000D01*
X81740000Y-87760000D02*
X82700000Y-86800000D01*
X130578768Y-65581232D02*
X130590000Y-65570000D01*
X119521232Y-65581232D02*
X130578768Y-65581232D01*
X115450000Y-94430000D02*
X115450000Y-77461759D01*
X115450000Y-77461759D02*
X115486749Y-77425010D01*
X77900000Y-88290000D02*
X79400000Y-86790000D01*
X77900000Y-92140000D02*
X77900000Y-88290000D01*
X114870000Y-65740000D02*
X100760000Y-65740000D01*
X100760000Y-65740000D02*
X100400000Y-66100000D01*
X84800000Y-77450000D02*
X83050000Y-77450000D01*
X97100000Y-74799990D02*
X96300000Y-73999990D01*
X97100000Y-75900000D02*
X97100000Y-74799990D01*
X99250000Y-79318136D02*
X99250000Y-84900000D01*
X98600000Y-78668136D02*
X99250000Y-79318136D01*
X90100000Y-70900000D02*
X88200000Y-72800000D01*
X90100000Y-69250000D02*
X90100000Y-70900000D01*
D25*
X101150000Y-81300000D02*
X101200000Y-81250000D01*
X101150000Y-85700000D02*
X101150000Y-81300000D01*
X100100000Y-85650000D02*
X100100000Y-80300000D01*
D26*
G36*
X189375000Y-96375000D02*
G01*
X40625000Y-96375000D01*
X40625000Y-93750060D01*
X47647037Y-93750060D01*
X47658622Y-93867681D01*
X47692930Y-93980781D01*
X47748644Y-94085015D01*
X47823623Y-94176377D01*
X47914985Y-94251356D01*
X48019219Y-94307070D01*
X48132319Y-94341378D01*
X48249940Y-94352963D01*
X49700000Y-94350060D01*
X49850000Y-94200060D01*
X49850000Y-92150000D01*
X50150000Y-92150000D01*
X50150000Y-94200060D01*
X50300000Y-94350060D01*
X51750060Y-94352963D01*
X51867681Y-94341378D01*
X51980781Y-94307070D01*
X52085015Y-94251356D01*
X52176377Y-94176377D01*
X52251356Y-94085015D01*
X52307070Y-93980781D01*
X52341378Y-93867681D01*
X52352963Y-93750060D01*
X52352796Y-93666183D01*
X53625949Y-93666183D01*
X53816141Y-93994747D01*
X54229582Y-94202985D01*
X54675703Y-94326564D01*
X55137362Y-94360734D01*
X55596816Y-94304182D01*
X56036409Y-94159082D01*
X56343859Y-93994747D01*
X56483352Y-93753767D01*
X75258995Y-93753767D01*
X75358833Y-94019908D01*
X75508674Y-94261457D01*
X75702760Y-94469133D01*
X75933632Y-94634954D01*
X76192418Y-94752548D01*
X76286234Y-94781000D01*
X76510000Y-94671317D01*
X76510000Y-93530000D01*
X75367774Y-93530000D01*
X75258995Y-93753767D01*
X56483352Y-93753767D01*
X56534051Y-93666183D01*
X55080000Y-92212132D01*
X53625949Y-93666183D01*
X52352796Y-93666183D01*
X52350060Y-92300000D01*
X52200060Y-92150000D01*
X50150000Y-92150000D01*
X49850000Y-92150000D01*
X47799940Y-92150000D01*
X47649940Y-92300000D01*
X47647037Y-93750060D01*
X40625000Y-93750060D01*
X40625000Y-92057362D01*
X52719266Y-92057362D01*
X52775818Y-92516816D01*
X52920918Y-92956409D01*
X53085253Y-93263859D01*
X53413817Y-93454051D01*
X54867868Y-92000000D01*
X55292132Y-92000000D01*
X56746183Y-93454051D01*
X57074747Y-93263859D01*
X57282985Y-92850418D01*
X57406564Y-92404297D01*
X57440734Y-91942638D01*
X57384182Y-91483184D01*
X57239082Y-91043591D01*
X57074747Y-90736141D01*
X57007453Y-90697187D01*
X75210000Y-90697187D01*
X75210000Y-90982813D01*
X75265723Y-91262949D01*
X75375027Y-91526833D01*
X75533711Y-91764321D01*
X75735679Y-91966289D01*
X75957229Y-92114323D01*
X75933632Y-92125046D01*
X75702760Y-92290867D01*
X75508674Y-92498543D01*
X75358833Y-92740092D01*
X75258995Y-93006233D01*
X75367774Y-93230000D01*
X76510000Y-93230000D01*
X76510000Y-93210000D01*
X76810000Y-93210000D01*
X76810000Y-93230000D01*
X76830000Y-93230000D01*
X76830000Y-93530000D01*
X76810000Y-93530000D01*
X76810000Y-94671317D01*
X77033766Y-94781000D01*
X77127582Y-94752548D01*
X77386368Y-94634954D01*
X77617240Y-94469133D01*
X77811326Y-94261457D01*
X77923859Y-94080050D01*
X78073711Y-94304321D01*
X78275679Y-94506289D01*
X78513167Y-94664973D01*
X78777051Y-94774277D01*
X79057187Y-94830000D01*
X79342813Y-94830000D01*
X79622949Y-94774277D01*
X79886833Y-94664973D01*
X80124321Y-94506289D01*
X80326289Y-94304321D01*
X80470000Y-94089242D01*
X80613711Y-94304321D01*
X80815679Y-94506289D01*
X81053167Y-94664973D01*
X81317051Y-94774277D01*
X81597187Y-94830000D01*
X81882813Y-94830000D01*
X82162949Y-94774277D01*
X82426833Y-94664973D01*
X82664321Y-94506289D01*
X82839101Y-94331509D01*
X114450000Y-94331509D01*
X114450000Y-94528491D01*
X114488429Y-94721689D01*
X114563811Y-94903678D01*
X114673249Y-95067463D01*
X114812537Y-95206751D01*
X114976322Y-95316189D01*
X115158311Y-95391571D01*
X115351509Y-95430000D01*
X115548491Y-95430000D01*
X115741689Y-95391571D01*
X115923678Y-95316189D01*
X116087463Y-95206751D01*
X116226751Y-95067463D01*
X116336189Y-94903678D01*
X116411571Y-94721689D01*
X116450000Y-94528491D01*
X116450000Y-94389754D01*
X116501509Y-94400000D01*
X116698491Y-94400000D01*
X116891689Y-94361571D01*
X117073678Y-94286189D01*
X117237463Y-94176751D01*
X117376751Y-94037463D01*
X117486189Y-93873678D01*
X117561571Y-93691689D01*
X117600000Y-93498491D01*
X117600000Y-93453766D01*
X180599000Y-93453766D01*
X180627452Y-93547582D01*
X180745046Y-93806368D01*
X180910867Y-94037240D01*
X181118543Y-94231326D01*
X181360092Y-94381167D01*
X181626233Y-94481005D01*
X181850000Y-94372226D01*
X181850000Y-93230000D01*
X182150000Y-93230000D01*
X182150000Y-94372226D01*
X182373767Y-94481005D01*
X182639908Y-94381167D01*
X182881457Y-94231326D01*
X183089133Y-94037240D01*
X183254954Y-93806368D01*
X183372548Y-93547582D01*
X183401000Y-93453766D01*
X183291317Y-93230000D01*
X182150000Y-93230000D01*
X181850000Y-93230000D01*
X180708683Y-93230000D01*
X180599000Y-93453766D01*
X117600000Y-93453766D01*
X117600000Y-93301509D01*
X117561571Y-93108311D01*
X117486189Y-92926322D01*
X117376751Y-92762537D01*
X117315000Y-92700786D01*
X117315000Y-89907187D01*
X117720000Y-89907187D01*
X117720000Y-90192813D01*
X117775723Y-90472949D01*
X117885027Y-90736833D01*
X118043711Y-90974321D01*
X118245679Y-91176289D01*
X118483167Y-91334973D01*
X118747051Y-91444277D01*
X119027187Y-91500000D01*
X119312813Y-91500000D01*
X119592949Y-91444277D01*
X119856833Y-91334973D01*
X120094321Y-91176289D01*
X120296289Y-90974321D01*
X120440000Y-90759242D01*
X120583711Y-90974321D01*
X120785679Y-91176289D01*
X121023167Y-91334973D01*
X121287051Y-91444277D01*
X121567187Y-91500000D01*
X121852813Y-91500000D01*
X122132949Y-91444277D01*
X122396833Y-91334973D01*
X122634321Y-91176289D01*
X122836289Y-90974321D01*
X122980000Y-90759242D01*
X123123711Y-90974321D01*
X123325679Y-91176289D01*
X123563167Y-91334973D01*
X123827051Y-91444277D01*
X124107187Y-91500000D01*
X124392813Y-91500000D01*
X124672949Y-91444277D01*
X124936833Y-91334973D01*
X125174321Y-91176289D01*
X125347275Y-91003335D01*
X125348682Y-91017621D01*
X125382990Y-91130721D01*
X125438704Y-91234955D01*
X125513683Y-91326317D01*
X125605045Y-91401296D01*
X125709279Y-91457010D01*
X125822379Y-91491318D01*
X125940000Y-91502903D01*
X126490000Y-91500000D01*
X126640000Y-91350000D01*
X126640000Y-90200000D01*
X126940000Y-90200000D01*
X126940000Y-91350000D01*
X127090000Y-91500000D01*
X127640000Y-91502903D01*
X127757621Y-91491318D01*
X127870721Y-91457010D01*
X127974955Y-91401296D01*
X128066317Y-91326317D01*
X128141296Y-91234955D01*
X128197010Y-91130721D01*
X128231318Y-91017621D01*
X128242903Y-90900000D01*
X128240000Y-90350000D01*
X128090000Y-90200000D01*
X126940000Y-90200000D01*
X126640000Y-90200000D01*
X126620000Y-90200000D01*
X126620000Y-89900000D01*
X126640000Y-89900000D01*
X126640000Y-89880000D01*
X126940000Y-89880000D01*
X126940000Y-89900000D01*
X128090000Y-89900000D01*
X128240000Y-89750000D01*
X128242903Y-89200000D01*
X128231318Y-89082379D01*
X128197010Y-88969279D01*
X128141296Y-88865045D01*
X128066317Y-88773683D01*
X127974955Y-88698704D01*
X127870721Y-88642990D01*
X127757621Y-88608682D01*
X127754661Y-88608390D01*
X127761579Y-88591689D01*
X127800008Y-88398491D01*
X127800008Y-88201509D01*
X127761579Y-88008311D01*
X127686197Y-87826322D01*
X127576759Y-87662537D01*
X127525008Y-87610786D01*
X127525008Y-82070000D01*
X180547097Y-82070000D01*
X180547097Y-83770000D01*
X180558682Y-83887621D01*
X180592990Y-84000721D01*
X180648704Y-84104955D01*
X180723683Y-84196317D01*
X180815045Y-84271296D01*
X180919279Y-84327010D01*
X181032379Y-84361318D01*
X181046665Y-84362725D01*
X180873711Y-84535679D01*
X180715027Y-84773167D01*
X180605723Y-85037051D01*
X180550000Y-85317187D01*
X180550000Y-85602813D01*
X180605723Y-85882949D01*
X180715027Y-86146833D01*
X180873711Y-86384321D01*
X181075679Y-86586289D01*
X181290758Y-86730000D01*
X181075679Y-86873711D01*
X180873711Y-87075679D01*
X180715027Y-87313167D01*
X180605723Y-87577051D01*
X180550000Y-87857187D01*
X180550000Y-88142813D01*
X180605723Y-88422949D01*
X180715027Y-88686833D01*
X180873711Y-88924321D01*
X181075679Y-89126289D01*
X181290758Y-89270000D01*
X181075679Y-89413711D01*
X180873711Y-89615679D01*
X180715027Y-89853167D01*
X180605723Y-90117051D01*
X180550000Y-90397187D01*
X180550000Y-90682813D01*
X180605723Y-90962949D01*
X180715027Y-91226833D01*
X180873711Y-91464321D01*
X181075679Y-91666289D01*
X181299950Y-91816141D01*
X181118543Y-91928674D01*
X180910867Y-92122760D01*
X180745046Y-92353632D01*
X180627452Y-92612418D01*
X180599000Y-92706234D01*
X180708683Y-92930000D01*
X181850000Y-92930000D01*
X181850000Y-92910000D01*
X182150000Y-92910000D01*
X182150000Y-92930000D01*
X183291317Y-92930000D01*
X183401000Y-92706234D01*
X183372548Y-92612418D01*
X183254954Y-92353632D01*
X183089133Y-92122760D01*
X182881457Y-91928674D01*
X182700050Y-91816141D01*
X182924321Y-91666289D01*
X183126289Y-91464321D01*
X183284973Y-91226833D01*
X183394277Y-90962949D01*
X183450000Y-90682813D01*
X183450000Y-90397187D01*
X183394277Y-90117051D01*
X183284973Y-89853167D01*
X183126289Y-89615679D01*
X182924321Y-89413711D01*
X182709242Y-89270000D01*
X182924321Y-89126289D01*
X183126289Y-88924321D01*
X183284973Y-88686833D01*
X183394277Y-88422949D01*
X183450000Y-88142813D01*
X183450000Y-87857187D01*
X183394277Y-87577051D01*
X183284973Y-87313167D01*
X183126289Y-87075679D01*
X182924321Y-86873711D01*
X182709242Y-86730000D01*
X182924321Y-86586289D01*
X183126289Y-86384321D01*
X183284973Y-86146833D01*
X183394277Y-85882949D01*
X183450000Y-85602813D01*
X183450000Y-85317187D01*
X183394277Y-85037051D01*
X183284973Y-84773167D01*
X183126289Y-84535679D01*
X182953335Y-84362725D01*
X182967621Y-84361318D01*
X183080721Y-84327010D01*
X183184955Y-84271296D01*
X183276317Y-84196317D01*
X183351296Y-84104955D01*
X183407010Y-84000721D01*
X183441318Y-83887621D01*
X183452903Y-83770000D01*
X183452903Y-82070000D01*
X183441318Y-81952379D01*
X183407010Y-81839279D01*
X183351296Y-81735045D01*
X183276317Y-81643683D01*
X183184955Y-81568704D01*
X183080721Y-81512990D01*
X182967621Y-81478682D01*
X182850000Y-81467097D01*
X181150000Y-81467097D01*
X181032379Y-81478682D01*
X180919279Y-81512990D01*
X180815045Y-81568704D01*
X180723683Y-81643683D01*
X180648704Y-81735045D01*
X180592990Y-81839279D01*
X180558682Y-81952379D01*
X180547097Y-82070000D01*
X127525008Y-82070000D01*
X127525008Y-78089206D01*
X127576751Y-78037463D01*
X127686189Y-77873678D01*
X127761571Y-77691689D01*
X127800000Y-77498491D01*
X127800000Y-77301509D01*
X127761571Y-77108311D01*
X127686189Y-76926322D01*
X127576751Y-76762537D01*
X127437463Y-76623249D01*
X127273678Y-76513811D01*
X127091689Y-76438429D01*
X126898491Y-76400000D01*
X126701509Y-76400000D01*
X126508311Y-76438429D01*
X126326322Y-76513811D01*
X126162537Y-76623249D01*
X126023249Y-76762537D01*
X125913811Y-76926322D01*
X125838429Y-77108311D01*
X125800000Y-77301509D01*
X125800000Y-77498491D01*
X125838429Y-77691689D01*
X125913811Y-77873678D01*
X126023249Y-78037463D01*
X126075009Y-78089223D01*
X126075008Y-87610786D01*
X126023257Y-87662537D01*
X125913819Y-87826322D01*
X125838437Y-88008311D01*
X125800008Y-88201509D01*
X125800008Y-88398491D01*
X125838437Y-88591689D01*
X125844570Y-88606496D01*
X125822379Y-88608682D01*
X125709279Y-88642990D01*
X125605045Y-88698704D01*
X125513683Y-88773683D01*
X125438704Y-88865045D01*
X125382990Y-88969279D01*
X125348682Y-89082379D01*
X125347275Y-89096665D01*
X125174321Y-88923711D01*
X124936833Y-88765027D01*
X124672949Y-88655723D01*
X124392813Y-88600000D01*
X124107187Y-88600000D01*
X123827051Y-88655723D01*
X123563167Y-88765027D01*
X123325679Y-88923711D01*
X123123711Y-89125679D01*
X122980000Y-89340758D01*
X122836289Y-89125679D01*
X122634321Y-88923711D01*
X122396833Y-88765027D01*
X122132949Y-88655723D01*
X121852813Y-88600000D01*
X121567187Y-88600000D01*
X121287051Y-88655723D01*
X121023167Y-88765027D01*
X120785679Y-88923711D01*
X120583711Y-89125679D01*
X120440000Y-89340758D01*
X120296289Y-89125679D01*
X120094321Y-88923711D01*
X119856833Y-88765027D01*
X119592949Y-88655723D01*
X119312813Y-88600000D01*
X119027187Y-88600000D01*
X118747051Y-88655723D01*
X118483167Y-88765027D01*
X118245679Y-88923711D01*
X118043711Y-89125679D01*
X117885027Y-89363167D01*
X117775723Y-89627051D01*
X117720000Y-89907187D01*
X117315000Y-89907187D01*
X117315000Y-77449212D01*
X117366751Y-77397461D01*
X117476189Y-77233676D01*
X117551571Y-77051687D01*
X117590000Y-76858489D01*
X117590000Y-76661507D01*
X117551571Y-76468309D01*
X117476189Y-76286320D01*
X117366751Y-76122535D01*
X117227463Y-75983247D01*
X117063678Y-75873809D01*
X116881689Y-75798427D01*
X116688491Y-75759998D01*
X116491509Y-75759998D01*
X116298311Y-75798427D01*
X116116322Y-75873809D01*
X115952537Y-75983247D01*
X115813249Y-76122535D01*
X115703811Y-76286320D01*
X115641711Y-76436243D01*
X115585240Y-76425010D01*
X115388258Y-76425010D01*
X115195060Y-76463439D01*
X115013071Y-76538821D01*
X114849286Y-76648259D01*
X114709998Y-76787547D01*
X114600560Y-76951332D01*
X114525178Y-77133321D01*
X114486749Y-77326519D01*
X114486749Y-77523501D01*
X114525178Y-77716699D01*
X114600560Y-77898688D01*
X114709998Y-78062473D01*
X114725001Y-78077476D01*
X114725000Y-93740786D01*
X114673249Y-93792537D01*
X114563811Y-93956322D01*
X114488429Y-94138311D01*
X114450000Y-94331509D01*
X82839101Y-94331509D01*
X82866289Y-94304321D01*
X83024973Y-94066833D01*
X83134277Y-93802949D01*
X83190000Y-93522813D01*
X83190000Y-93237187D01*
X83134277Y-92957051D01*
X83024973Y-92693167D01*
X82866289Y-92455679D01*
X82693335Y-92282725D01*
X82707621Y-92281318D01*
X82820721Y-92247010D01*
X82924955Y-92191296D01*
X83016317Y-92116317D01*
X83091296Y-92024955D01*
X83147010Y-91920721D01*
X83181318Y-91807621D01*
X83185315Y-91767037D01*
X97470000Y-91767037D01*
X97470000Y-92032963D01*
X97521880Y-92293780D01*
X97623646Y-92539465D01*
X97771387Y-92760575D01*
X97959425Y-92948613D01*
X98180535Y-93096354D01*
X98426220Y-93198120D01*
X98687037Y-93250000D01*
X98952963Y-93250000D01*
X99213780Y-93198120D01*
X99459465Y-93096354D01*
X99680575Y-92948613D01*
X99868613Y-92760575D01*
X100016354Y-92539465D01*
X100118120Y-92293780D01*
X100170000Y-92032963D01*
X100170000Y-91767037D01*
X102350000Y-91767037D01*
X102350000Y-92032963D01*
X102401880Y-92293780D01*
X102503646Y-92539465D01*
X102651387Y-92760575D01*
X102839425Y-92948613D01*
X103060535Y-93096354D01*
X103306220Y-93198120D01*
X103567037Y-93250000D01*
X103832963Y-93250000D01*
X104093780Y-93198120D01*
X104339465Y-93096354D01*
X104560575Y-92948613D01*
X104748613Y-92760575D01*
X104896354Y-92539465D01*
X104998120Y-92293780D01*
X105050000Y-92032963D01*
X105050000Y-91767037D01*
X104998120Y-91506220D01*
X104896354Y-91260535D01*
X104748613Y-91039425D01*
X104560575Y-90851387D01*
X104339465Y-90703646D01*
X104093780Y-90601880D01*
X103832963Y-90550000D01*
X103567037Y-90550000D01*
X103306220Y-90601880D01*
X103060535Y-90703646D01*
X102839425Y-90851387D01*
X102651387Y-91039425D01*
X102503646Y-91260535D01*
X102401880Y-91506220D01*
X102350000Y-91767037D01*
X100170000Y-91767037D01*
X100118120Y-91506220D01*
X100016354Y-91260535D01*
X99868613Y-91039425D01*
X99680575Y-90851387D01*
X99459465Y-90703646D01*
X99213780Y-90601880D01*
X98952963Y-90550000D01*
X98687037Y-90550000D01*
X98426220Y-90601880D01*
X98180535Y-90703646D01*
X97959425Y-90851387D01*
X97771387Y-91039425D01*
X97623646Y-91260535D01*
X97521880Y-91506220D01*
X97470000Y-91767037D01*
X83185315Y-91767037D01*
X83192903Y-91690000D01*
X83192903Y-89990000D01*
X83181318Y-89872379D01*
X83147010Y-89759279D01*
X83091296Y-89655045D01*
X83016317Y-89563683D01*
X82924955Y-89488704D01*
X82820721Y-89432990D01*
X82707621Y-89398682D01*
X82590000Y-89387097D01*
X82465000Y-89387097D01*
X82465000Y-88060304D01*
X82725304Y-87800000D01*
X82798491Y-87800000D01*
X82991689Y-87761571D01*
X83173678Y-87686189D01*
X83337463Y-87576751D01*
X83476751Y-87437463D01*
X83586189Y-87273678D01*
X83661571Y-87091689D01*
X83700000Y-86898491D01*
X83700000Y-86701509D01*
X83661571Y-86508311D01*
X83586189Y-86326322D01*
X83476751Y-86162537D01*
X83337463Y-86023249D01*
X83173678Y-85913811D01*
X82991689Y-85838429D01*
X82798491Y-85800000D01*
X82601509Y-85800000D01*
X82408311Y-85838429D01*
X82226322Y-85913811D01*
X82150000Y-85964808D01*
X82073678Y-85913811D01*
X81891689Y-85838429D01*
X81698491Y-85800000D01*
X81501509Y-85800000D01*
X81308311Y-85838429D01*
X81126322Y-85913811D01*
X81050000Y-85964808D01*
X80973678Y-85913811D01*
X80791689Y-85838429D01*
X80598491Y-85800000D01*
X80401509Y-85800000D01*
X80208311Y-85838429D01*
X80026322Y-85913811D01*
X79957483Y-85959808D01*
X79873678Y-85903811D01*
X79691689Y-85828429D01*
X79506832Y-85791659D01*
X84550000Y-85791659D01*
X84550000Y-86008341D01*
X84592273Y-86220858D01*
X84675193Y-86421045D01*
X84771375Y-86564990D01*
X84763803Y-86576322D01*
X84688421Y-86758311D01*
X84649992Y-86951509D01*
X84649992Y-87148491D01*
X84688421Y-87341689D01*
X84763803Y-87523678D01*
X84873241Y-87687463D01*
X85012529Y-87826751D01*
X85176314Y-87936189D01*
X85358303Y-88011571D01*
X85551501Y-88050000D01*
X85621859Y-88050000D01*
X86060675Y-88488817D01*
X86083438Y-88516554D01*
X86194139Y-88607403D01*
X86284539Y-88655723D01*
X86320435Y-88674910D01*
X86457474Y-88716480D01*
X86599992Y-88730517D01*
X86635700Y-88727000D01*
X89612786Y-88727000D01*
X89662537Y-88776751D01*
X89826322Y-88886189D01*
X90008311Y-88961571D01*
X90201509Y-89000000D01*
X90398491Y-89000000D01*
X90591689Y-88961571D01*
X90773678Y-88886189D01*
X90937463Y-88776751D01*
X91076751Y-88637463D01*
X91186189Y-88473678D01*
X91261571Y-88291689D01*
X91300000Y-88098491D01*
X91300000Y-87951509D01*
X93500000Y-87951509D01*
X93500000Y-88148491D01*
X93538429Y-88341689D01*
X93613811Y-88523678D01*
X93723249Y-88687463D01*
X93862537Y-88826751D01*
X94026322Y-88936189D01*
X94208311Y-89011571D01*
X94401509Y-89050000D01*
X94598491Y-89050000D01*
X94791689Y-89011571D01*
X94973678Y-88936189D01*
X95137463Y-88826751D01*
X95187214Y-88777000D01*
X96364292Y-88777000D01*
X96400000Y-88780517D01*
X96542517Y-88766480D01*
X96596845Y-88750000D01*
X96679557Y-88724910D01*
X96805853Y-88657403D01*
X96916554Y-88566554D01*
X96939325Y-88538807D01*
X97453133Y-88025000D01*
X97523491Y-88025000D01*
X97716689Y-87986571D01*
X97898678Y-87911189D01*
X98062463Y-87801751D01*
X98201751Y-87662463D01*
X98311189Y-87498678D01*
X98386571Y-87316689D01*
X98425000Y-87123491D01*
X98425000Y-86926509D01*
X98386571Y-86733311D01*
X98311189Y-86551322D01*
X98201751Y-86387537D01*
X98062463Y-86248249D01*
X97898678Y-86138811D01*
X97716689Y-86063429D01*
X97523491Y-86025000D01*
X97326509Y-86025000D01*
X97133311Y-86063429D01*
X96951322Y-86138811D01*
X96787537Y-86248249D01*
X96648249Y-86387537D01*
X96538811Y-86551322D01*
X96463429Y-86733311D01*
X96425000Y-86926509D01*
X96425000Y-86996867D01*
X96098868Y-87323000D01*
X95187214Y-87323000D01*
X95137463Y-87273249D01*
X94973678Y-87163811D01*
X94791689Y-87088429D01*
X94598491Y-87050000D01*
X94401509Y-87050000D01*
X94208311Y-87088429D01*
X94026322Y-87163811D01*
X93862537Y-87273249D01*
X93723249Y-87412537D01*
X93613811Y-87576322D01*
X93538429Y-87758311D01*
X93500000Y-87951509D01*
X91300000Y-87951509D01*
X91300000Y-87930171D01*
X91428105Y-87930171D01*
X91469846Y-87934282D01*
X91511587Y-87930171D01*
X91511595Y-87930171D01*
X91636475Y-87917871D01*
X91796701Y-87869268D01*
X91944365Y-87790339D01*
X92073794Y-87684119D01*
X92100412Y-87651685D01*
X95732133Y-84019965D01*
X95783232Y-84024998D01*
X95783239Y-84024998D01*
X95824980Y-84029109D01*
X95866721Y-84024998D01*
X96217393Y-84024998D01*
X96221818Y-84029423D01*
X96401982Y-84149805D01*
X96602169Y-84232725D01*
X96814686Y-84274998D01*
X97031368Y-84274998D01*
X97243885Y-84232725D01*
X97444072Y-84149805D01*
X97624236Y-84029423D01*
X97777452Y-83876207D01*
X97897834Y-83696043D01*
X97980754Y-83495856D01*
X98023027Y-83283339D01*
X98023027Y-83066657D01*
X97980754Y-82854140D01*
X97897834Y-82653953D01*
X97777452Y-82473789D01*
X97624236Y-82320573D01*
X97444072Y-82200191D01*
X97243885Y-82117271D01*
X97031368Y-82074998D01*
X96814686Y-82074998D01*
X96602169Y-82117271D01*
X96450000Y-82180301D01*
X96450000Y-79241744D01*
X96454111Y-79200003D01*
X96450000Y-79158262D01*
X96450000Y-79158255D01*
X96437700Y-79033375D01*
X96401307Y-78913399D01*
X96389097Y-78873149D01*
X96366386Y-78830661D01*
X96310168Y-78725485D01*
X96203948Y-78596056D01*
X96171766Y-78569645D01*
X97600000Y-78569645D01*
X97600000Y-78766627D01*
X97638429Y-78959825D01*
X97713811Y-79141814D01*
X97823249Y-79305599D01*
X97962537Y-79444887D01*
X98126322Y-79554325D01*
X98308311Y-79629707D01*
X98501509Y-79668136D01*
X98525000Y-79668136D01*
X98525001Y-84210785D01*
X98473249Y-84262537D01*
X98363811Y-84426322D01*
X98288429Y-84608311D01*
X98250000Y-84801509D01*
X98250000Y-84998491D01*
X98288429Y-85191689D01*
X98363811Y-85373678D01*
X98473249Y-85537463D01*
X98612537Y-85676751D01*
X98776322Y-85786189D01*
X98958311Y-85861571D01*
X99129256Y-85895574D01*
X99138429Y-85941689D01*
X99213811Y-86123678D01*
X99323249Y-86287463D01*
X99462537Y-86426751D01*
X99626322Y-86536189D01*
X99808311Y-86611571D01*
X100001509Y-86650000D01*
X100198491Y-86650000D01*
X100391689Y-86611571D01*
X100573678Y-86536189D01*
X100587585Y-86526897D01*
X100676322Y-86586189D01*
X100858311Y-86661571D01*
X101051509Y-86700000D01*
X101248491Y-86700000D01*
X101441689Y-86661571D01*
X101623678Y-86586189D01*
X101787463Y-86476751D01*
X101926751Y-86337463D01*
X102036189Y-86173678D01*
X102111571Y-85991689D01*
X102150000Y-85798491D01*
X102150000Y-85601509D01*
X102111571Y-85408311D01*
X102036189Y-85226322D01*
X101926751Y-85062537D01*
X101877000Y-85012786D01*
X101877000Y-81987214D01*
X101976751Y-81887463D01*
X102086189Y-81723678D01*
X102161571Y-81541689D01*
X102200000Y-81348491D01*
X102200000Y-81151509D01*
X102161571Y-80958311D01*
X102086189Y-80776322D01*
X101976751Y-80612537D01*
X101837463Y-80473249D01*
X101673678Y-80363811D01*
X101491689Y-80288429D01*
X101298491Y-80250000D01*
X101101509Y-80250000D01*
X101100000Y-80250300D01*
X101100000Y-80201509D01*
X101061571Y-80008311D01*
X100986189Y-79826322D01*
X100876751Y-79662537D01*
X100737463Y-79523249D01*
X100573678Y-79413811D01*
X100391689Y-79338429D01*
X100198491Y-79300000D01*
X100001509Y-79300000D01*
X99977196Y-79304836D01*
X99975000Y-79282539D01*
X99975000Y-79282529D01*
X99964509Y-79176011D01*
X99923053Y-79039348D01*
X99855731Y-78913399D01*
X99787830Y-78830661D01*
X99787823Y-78830654D01*
X99765131Y-78803004D01*
X99737482Y-78780313D01*
X99600000Y-78642831D01*
X99600000Y-78569645D01*
X99561571Y-78376447D01*
X99486189Y-78194458D01*
X99376751Y-78030673D01*
X99237463Y-77891385D01*
X99073678Y-77781947D01*
X98891689Y-77706565D01*
X98698491Y-77668136D01*
X98501509Y-77668136D01*
X98308311Y-77706565D01*
X98126322Y-77781947D01*
X97962537Y-77891385D01*
X97823249Y-78030673D01*
X97713811Y-78194458D01*
X97638429Y-78376447D01*
X97600000Y-78569645D01*
X96171766Y-78569645D01*
X96171519Y-78569443D01*
X94749996Y-77147920D01*
X94749996Y-77141659D01*
X94707723Y-76929142D01*
X94624803Y-76728955D01*
X94504421Y-76548791D01*
X94351205Y-76395575D01*
X94171041Y-76275193D01*
X93970854Y-76192273D01*
X93758337Y-76150000D01*
X93541655Y-76150000D01*
X93329138Y-76192273D01*
X93128951Y-76275193D01*
X92948787Y-76395575D01*
X92795571Y-76548791D01*
X92675189Y-76728955D01*
X92592269Y-76929142D01*
X92549996Y-77141659D01*
X92549996Y-77358341D01*
X92592269Y-77570858D01*
X92675189Y-77771045D01*
X92795571Y-77951209D01*
X92948787Y-78104425D01*
X93128951Y-78224807D01*
X93329138Y-78307727D01*
X93541655Y-78350000D01*
X93547916Y-78350000D01*
X94750001Y-79552086D01*
X94750000Y-82597936D01*
X91117766Y-86230171D01*
X87728614Y-86230171D01*
X87724189Y-86225746D01*
X87544025Y-86105364D01*
X87343838Y-86022444D01*
X87131321Y-85980171D01*
X87125061Y-85980171D01*
X86696198Y-85551309D01*
X86624807Y-85378955D01*
X86504425Y-85198791D01*
X86351209Y-85045575D01*
X86171045Y-84925193D01*
X85970858Y-84842273D01*
X85758341Y-84800000D01*
X85541659Y-84800000D01*
X85329142Y-84842273D01*
X85128955Y-84925193D01*
X84948791Y-85045575D01*
X84795575Y-85198791D01*
X84675193Y-85378955D01*
X84592273Y-85579142D01*
X84550000Y-85791659D01*
X79506832Y-85791659D01*
X79498491Y-85790000D01*
X79301509Y-85790000D01*
X79108311Y-85828429D01*
X78926322Y-85903811D01*
X78762537Y-86013249D01*
X78623249Y-86152537D01*
X78513811Y-86316322D01*
X78438429Y-86498311D01*
X78400000Y-86691509D01*
X78400000Y-86764695D01*
X77412523Y-87752173D01*
X77384869Y-87774868D01*
X77362173Y-87802523D01*
X77362170Y-87802526D01*
X77294269Y-87885264D01*
X77226947Y-88011213D01*
X77200472Y-88098491D01*
X77187118Y-88142517D01*
X77185492Y-88147876D01*
X77171494Y-88290000D01*
X77175001Y-88325607D01*
X77175001Y-89483852D01*
X77082949Y-89445723D01*
X76802813Y-89390000D01*
X76517187Y-89390000D01*
X76237051Y-89445723D01*
X75973167Y-89555027D01*
X75735679Y-89713711D01*
X75533711Y-89915679D01*
X75375027Y-90153167D01*
X75265723Y-90417051D01*
X75210000Y-90697187D01*
X57007453Y-90697187D01*
X56746183Y-90545949D01*
X55292132Y-92000000D01*
X54867868Y-92000000D01*
X53413817Y-90545949D01*
X53085253Y-90736141D01*
X52877015Y-91149582D01*
X52753436Y-91595703D01*
X52719266Y-92057362D01*
X40625000Y-92057362D01*
X40625000Y-90249940D01*
X47647037Y-90249940D01*
X47649940Y-91700000D01*
X47799940Y-91850000D01*
X49850000Y-91850000D01*
X49850000Y-89799940D01*
X50150000Y-89799940D01*
X50150000Y-91850000D01*
X52200060Y-91850000D01*
X52350060Y-91700000D01*
X52352795Y-90333817D01*
X53625949Y-90333817D01*
X55080000Y-91787868D01*
X56534051Y-90333817D01*
X56343859Y-90005253D01*
X55930418Y-89797015D01*
X55484297Y-89673436D01*
X55022638Y-89639266D01*
X54563184Y-89695818D01*
X54123591Y-89840918D01*
X53816141Y-90005253D01*
X53625949Y-90333817D01*
X52352795Y-90333817D01*
X52352963Y-90249940D01*
X52341378Y-90132319D01*
X52307070Y-90019219D01*
X52251356Y-89914985D01*
X52176377Y-89823623D01*
X52085015Y-89748644D01*
X51980781Y-89692930D01*
X51867681Y-89658622D01*
X51750060Y-89647037D01*
X50300000Y-89649940D01*
X50150000Y-89799940D01*
X49850000Y-89799940D01*
X49700000Y-89649940D01*
X48249940Y-89647037D01*
X48132319Y-89658622D01*
X48019219Y-89692930D01*
X47914985Y-89748644D01*
X47823623Y-89823623D01*
X47748644Y-89914985D01*
X47692930Y-90019219D01*
X47658622Y-90132319D01*
X47647037Y-90249940D01*
X40625000Y-90249940D01*
X40625000Y-76827489D01*
X52600000Y-76827489D01*
X52600000Y-77152511D01*
X52663408Y-77471287D01*
X52787789Y-77771568D01*
X52968361Y-78041814D01*
X53198186Y-78271639D01*
X53468432Y-78452211D01*
X53768713Y-78576592D01*
X54087489Y-78640000D01*
X54412511Y-78640000D01*
X54731287Y-78576592D01*
X55031568Y-78452211D01*
X55301814Y-78271639D01*
X55531639Y-78041814D01*
X55712211Y-77771568D01*
X55836592Y-77471287D01*
X55900000Y-77152511D01*
X55900000Y-76827489D01*
X55836592Y-76508713D01*
X55712211Y-76208432D01*
X55556237Y-75975000D01*
X55645275Y-75975000D01*
X55930242Y-75918317D01*
X56198675Y-75807128D01*
X56440258Y-75645707D01*
X56543926Y-75542039D01*
X59170094Y-75542039D01*
X59254647Y-75781085D01*
X59518897Y-75901881D01*
X59801635Y-75968803D01*
X59954225Y-75974308D01*
X59797789Y-76208432D01*
X59673408Y-76508713D01*
X59610000Y-76827489D01*
X59610000Y-77152511D01*
X59673408Y-77471287D01*
X59797789Y-77771568D01*
X59978361Y-78041814D01*
X60208186Y-78271639D01*
X60478432Y-78452211D01*
X60778713Y-78576592D01*
X61097489Y-78640000D01*
X61422511Y-78640000D01*
X61741287Y-78576592D01*
X62041568Y-78452211D01*
X62311814Y-78271639D01*
X62541639Y-78041814D01*
X62722211Y-77771568D01*
X62846592Y-77471287D01*
X62870417Y-77351509D01*
X82050000Y-77351509D01*
X82050000Y-77548491D01*
X82088429Y-77741689D01*
X82163811Y-77923678D01*
X82273249Y-78087463D01*
X82412537Y-78226751D01*
X82576322Y-78336189D01*
X82758311Y-78411571D01*
X82951509Y-78450000D01*
X83148491Y-78450000D01*
X83341689Y-78411571D01*
X83523678Y-78336189D01*
X83687463Y-78226751D01*
X83739214Y-78175000D01*
X84110786Y-78175000D01*
X84162537Y-78226751D01*
X84326322Y-78336189D01*
X84508311Y-78411571D01*
X84701509Y-78450000D01*
X84898491Y-78450000D01*
X85091689Y-78411571D01*
X85273678Y-78336189D01*
X85437463Y-78226751D01*
X85576751Y-78087463D01*
X85686189Y-77923678D01*
X85761571Y-77741689D01*
X85800000Y-77548491D01*
X85800000Y-77351509D01*
X85761571Y-77158311D01*
X85686189Y-76976322D01*
X85576751Y-76812537D01*
X85437463Y-76673249D01*
X85273678Y-76563811D01*
X85091689Y-76488429D01*
X84898491Y-76450000D01*
X84701509Y-76450000D01*
X84508311Y-76488429D01*
X84326322Y-76563811D01*
X84162537Y-76673249D01*
X84110786Y-76725000D01*
X83739214Y-76725000D01*
X83687463Y-76673249D01*
X83523678Y-76563811D01*
X83341689Y-76488429D01*
X83148491Y-76450000D01*
X82951509Y-76450000D01*
X82758311Y-76488429D01*
X82576322Y-76563811D01*
X82412537Y-76673249D01*
X82273249Y-76812537D01*
X82163811Y-76976322D01*
X82088429Y-77158311D01*
X82050000Y-77351509D01*
X62870417Y-77351509D01*
X62910000Y-77152511D01*
X62910000Y-76827489D01*
X62846592Y-76508713D01*
X62722211Y-76208432D01*
X62541639Y-75938186D01*
X62311814Y-75708361D01*
X62041568Y-75527789D01*
X61741287Y-75403408D01*
X61422511Y-75340000D01*
X61097489Y-75340000D01*
X61059660Y-75347525D01*
X61042040Y-75329905D01*
X61281085Y-75245353D01*
X61401881Y-74981103D01*
X61468803Y-74698365D01*
X61479279Y-74408005D01*
X61432908Y-74121179D01*
X61331471Y-73848912D01*
X61281085Y-73754647D01*
X61250764Y-73743922D01*
X76400000Y-73743922D01*
X76400000Y-74256078D01*
X76499917Y-74758392D01*
X76695910Y-75231562D01*
X76980448Y-75657403D01*
X77342597Y-76019552D01*
X77768438Y-76304090D01*
X78241608Y-76500083D01*
X78743922Y-76600000D01*
X79256078Y-76600000D01*
X79758392Y-76500083D01*
X80231562Y-76304090D01*
X80657403Y-76019552D01*
X81019552Y-75657403D01*
X81304090Y-75231562D01*
X81500083Y-74758392D01*
X81600000Y-74256078D01*
X81600000Y-73743922D01*
X81500083Y-73241608D01*
X81304090Y-72768438D01*
X81259370Y-72701509D01*
X87200000Y-72701509D01*
X87200000Y-72898491D01*
X87238429Y-73091689D01*
X87313811Y-73273678D01*
X87423249Y-73437463D01*
X87562537Y-73576751D01*
X87726322Y-73686189D01*
X87908311Y-73761571D01*
X88101509Y-73800000D01*
X88298491Y-73800000D01*
X88491689Y-73761571D01*
X88673678Y-73686189D01*
X88837463Y-73576751D01*
X88976751Y-73437463D01*
X89086189Y-73273678D01*
X89161571Y-73091689D01*
X89200000Y-72898491D01*
X89200000Y-72851509D01*
X90200000Y-72851509D01*
X90200000Y-73048491D01*
X90238429Y-73241689D01*
X90313811Y-73423678D01*
X90423249Y-73587463D01*
X90562537Y-73726751D01*
X90726322Y-73836189D01*
X90908311Y-73911571D01*
X91101509Y-73950000D01*
X91298491Y-73950000D01*
X91491689Y-73911571D01*
X91673678Y-73836189D01*
X91837463Y-73726751D01*
X91885533Y-73678681D01*
X91889856Y-73700415D01*
X91962134Y-73874910D01*
X91919836Y-73938213D01*
X91844454Y-74120202D01*
X91806025Y-74313400D01*
X91806025Y-74510382D01*
X91844454Y-74703580D01*
X91919836Y-74885569D01*
X92029274Y-75049354D01*
X92168562Y-75188642D01*
X92332347Y-75298080D01*
X92514336Y-75373462D01*
X92707534Y-75411891D01*
X92904516Y-75411891D01*
X93097714Y-75373462D01*
X93279703Y-75298080D01*
X93443488Y-75188642D01*
X93495239Y-75136891D01*
X94602512Y-75136891D01*
X94638109Y-75140397D01*
X94673706Y-75136891D01*
X94673716Y-75136891D01*
X94780234Y-75126400D01*
X94916897Y-75084944D01*
X95042846Y-75017622D01*
X95153241Y-74927023D01*
X95175941Y-74899363D01*
X95489043Y-74586261D01*
X95523249Y-74637453D01*
X95662537Y-74776741D01*
X95826322Y-74886179D01*
X96008311Y-74961561D01*
X96201509Y-74999990D01*
X96274695Y-74999990D01*
X96375001Y-75100295D01*
X96375001Y-75210785D01*
X96323249Y-75262537D01*
X96213811Y-75426322D01*
X96138429Y-75608311D01*
X96100000Y-75801509D01*
X96100000Y-75998491D01*
X96138429Y-76191689D01*
X96213811Y-76373678D01*
X96323249Y-76537463D01*
X96462537Y-76676751D01*
X96626322Y-76786189D01*
X96808311Y-76861571D01*
X97001509Y-76900000D01*
X97198491Y-76900000D01*
X97391689Y-76861571D01*
X97573678Y-76786189D01*
X97737463Y-76676751D01*
X97876751Y-76537463D01*
X97986189Y-76373678D01*
X98061571Y-76191689D01*
X98100000Y-75998491D01*
X98100000Y-75801509D01*
X98061571Y-75608311D01*
X97986189Y-75426322D01*
X97940113Y-75357364D01*
X99100008Y-76517260D01*
X99100008Y-76590446D01*
X99138437Y-76783644D01*
X99213819Y-76965633D01*
X99323257Y-77129418D01*
X99462545Y-77268706D01*
X99626330Y-77378144D01*
X99769130Y-77437294D01*
X99802653Y-77605826D01*
X99878035Y-77787815D01*
X99987473Y-77951600D01*
X100126761Y-78090888D01*
X100290546Y-78200326D01*
X100472535Y-78275708D01*
X100665733Y-78314137D01*
X100862715Y-78314137D01*
X101055913Y-78275708D01*
X101237902Y-78200326D01*
X101401687Y-78090888D01*
X101501696Y-77990880D01*
X101637567Y-78126751D01*
X101801352Y-78236189D01*
X101983341Y-78311571D01*
X102176539Y-78350000D01*
X102373521Y-78350000D01*
X102566719Y-78311571D01*
X102748708Y-78236189D01*
X102912493Y-78126751D01*
X103051781Y-77987463D01*
X103161219Y-77823678D01*
X103236601Y-77641689D01*
X103275030Y-77448491D01*
X103275030Y-77251509D01*
X103236601Y-77058311D01*
X103161219Y-76876322D01*
X103051781Y-76712537D01*
X103000030Y-76660786D01*
X103000030Y-75110626D01*
X103003536Y-75075029D01*
X103000030Y-75039432D01*
X103000030Y-75039423D01*
X102989539Y-74932905D01*
X102948083Y-74796242D01*
X102880761Y-74670293D01*
X102812860Y-74587555D01*
X102812853Y-74587548D01*
X102790161Y-74559898D01*
X102762512Y-74537207D01*
X99375305Y-71150000D01*
X180547097Y-71150000D01*
X180547097Y-72850000D01*
X180558682Y-72967621D01*
X180592990Y-73080721D01*
X180648704Y-73184955D01*
X180723683Y-73276317D01*
X180815045Y-73351296D01*
X180919279Y-73407010D01*
X181032379Y-73441318D01*
X181046665Y-73442725D01*
X180873711Y-73615679D01*
X180715027Y-73853167D01*
X180605723Y-74117051D01*
X180550000Y-74397187D01*
X180550000Y-74682813D01*
X180605723Y-74962949D01*
X180715027Y-75226833D01*
X180873711Y-75464321D01*
X181075679Y-75666289D01*
X181313167Y-75824973D01*
X181577051Y-75934277D01*
X181857187Y-75990000D01*
X182142813Y-75990000D01*
X182422949Y-75934277D01*
X182686833Y-75824973D01*
X182924321Y-75666289D01*
X183126289Y-75464321D01*
X183284973Y-75226833D01*
X183394277Y-74962949D01*
X183450000Y-74682813D01*
X183450000Y-74397187D01*
X183394277Y-74117051D01*
X183284973Y-73853167D01*
X183126289Y-73615679D01*
X182953335Y-73442725D01*
X182967621Y-73441318D01*
X183080721Y-73407010D01*
X183184955Y-73351296D01*
X183276317Y-73276317D01*
X183351296Y-73184955D01*
X183407010Y-73080721D01*
X183441318Y-72967621D01*
X183452903Y-72850000D01*
X183452903Y-71150000D01*
X183441318Y-71032379D01*
X183407010Y-70919279D01*
X183351296Y-70815045D01*
X183276317Y-70723683D01*
X183184955Y-70648704D01*
X183080721Y-70592990D01*
X182967621Y-70558682D01*
X182850000Y-70547097D01*
X181150000Y-70547097D01*
X181032379Y-70558682D01*
X180919279Y-70592990D01*
X180815045Y-70648704D01*
X180723683Y-70723683D01*
X180648704Y-70815045D01*
X180592990Y-70919279D01*
X180558682Y-71032379D01*
X180547097Y-71150000D01*
X99375305Y-71150000D01*
X98837832Y-70612528D01*
X98815132Y-70584868D01*
X98704737Y-70494269D01*
X98578788Y-70426947D01*
X98442125Y-70385491D01*
X98335607Y-70375000D01*
X98335597Y-70375000D01*
X98300000Y-70371494D01*
X98264403Y-70375000D01*
X94685596Y-70375000D01*
X94649999Y-70371494D01*
X94614402Y-70375000D01*
X94614393Y-70375000D01*
X94507875Y-70385491D01*
X94379869Y-70424321D01*
X94371212Y-70426947D01*
X94245263Y-70494269D01*
X94162525Y-70562170D01*
X94162523Y-70562172D01*
X94134868Y-70584868D01*
X94112172Y-70612523D01*
X93599696Y-71125000D01*
X91735597Y-71125000D01*
X91700000Y-71121494D01*
X91664403Y-71125000D01*
X91664393Y-71125000D01*
X91557875Y-71135491D01*
X91421212Y-71176947D01*
X91295263Y-71244269D01*
X91212525Y-71312170D01*
X91212523Y-71312172D01*
X91184868Y-71334868D01*
X91162172Y-71362523D01*
X90712523Y-71812173D01*
X90684869Y-71834868D01*
X90662173Y-71862523D01*
X90662170Y-71862526D01*
X90594269Y-71945264D01*
X90569221Y-71992125D01*
X90526947Y-72071212D01*
X90485491Y-72207875D01*
X90480857Y-72254929D01*
X90423249Y-72312537D01*
X90313811Y-72476322D01*
X90238429Y-72658311D01*
X90200000Y-72851509D01*
X89200000Y-72851509D01*
X89200000Y-72825304D01*
X90587477Y-71437828D01*
X90615132Y-71415132D01*
X90705731Y-71304737D01*
X90773053Y-71178788D01*
X90814509Y-71042125D01*
X90825000Y-70935607D01*
X90825000Y-70935597D01*
X90828506Y-70900000D01*
X90825000Y-70864403D01*
X90825000Y-70702903D01*
X90950000Y-70702903D01*
X91067621Y-70691318D01*
X91180721Y-70657010D01*
X91284955Y-70601296D01*
X91376317Y-70526317D01*
X91451296Y-70434955D01*
X91507010Y-70330721D01*
X91541318Y-70217621D01*
X91552903Y-70100000D01*
X91552903Y-68400000D01*
X91541318Y-68282379D01*
X91507010Y-68169279D01*
X91451296Y-68065045D01*
X91376317Y-67973683D01*
X91284955Y-67898704D01*
X91180721Y-67842990D01*
X91067621Y-67808682D01*
X90950000Y-67797097D01*
X89250000Y-67797097D01*
X89132379Y-67808682D01*
X89019279Y-67842990D01*
X88915045Y-67898704D01*
X88823683Y-67973683D01*
X88748704Y-68065045D01*
X88692990Y-68169279D01*
X88658682Y-68282379D01*
X88656024Y-68309368D01*
X88517240Y-68160867D01*
X88286368Y-67995046D01*
X88027582Y-67877452D01*
X87933766Y-67849000D01*
X87710000Y-67958683D01*
X87710000Y-69100000D01*
X87730000Y-69100000D01*
X87730000Y-69400000D01*
X87710000Y-69400000D01*
X87710000Y-70541317D01*
X87933766Y-70651000D01*
X88027582Y-70622548D01*
X88286368Y-70504954D01*
X88517240Y-70339133D01*
X88656024Y-70190632D01*
X88658682Y-70217621D01*
X88692990Y-70330721D01*
X88748704Y-70434955D01*
X88823683Y-70526317D01*
X88915045Y-70601296D01*
X89019279Y-70657010D01*
X89132379Y-70691318D01*
X89250000Y-70702903D01*
X89271792Y-70702903D01*
X88174696Y-71800000D01*
X88101509Y-71800000D01*
X87908311Y-71838429D01*
X87726322Y-71913811D01*
X87562537Y-72023249D01*
X87423249Y-72162537D01*
X87313811Y-72326322D01*
X87238429Y-72508311D01*
X87200000Y-72701509D01*
X81259370Y-72701509D01*
X81019552Y-72342597D01*
X80657403Y-71980448D01*
X80231562Y-71695910D01*
X79758392Y-71499917D01*
X79256078Y-71400000D01*
X78743922Y-71400000D01*
X78241608Y-71499917D01*
X77768438Y-71695910D01*
X77342597Y-71980448D01*
X76980448Y-72342597D01*
X76695910Y-72768438D01*
X76499917Y-73241608D01*
X76400000Y-73743922D01*
X61250764Y-73743922D01*
X61042039Y-73670094D01*
X60212132Y-74500000D01*
X60226275Y-74514142D01*
X60014142Y-74726275D01*
X60000000Y-74712132D01*
X59170094Y-75542039D01*
X56543926Y-75542039D01*
X56645707Y-75440258D01*
X56807128Y-75198675D01*
X56918317Y-74930242D01*
X56975000Y-74645275D01*
X56975000Y-74591995D01*
X58520721Y-74591995D01*
X58567092Y-74878821D01*
X58668529Y-75151088D01*
X58718915Y-75245353D01*
X58957961Y-75329906D01*
X59787868Y-74500000D01*
X58957961Y-73670094D01*
X58718915Y-73754647D01*
X58598119Y-74018897D01*
X58531197Y-74301635D01*
X58520721Y-74591995D01*
X56975000Y-74591995D01*
X56975000Y-74354725D01*
X56918317Y-74069758D01*
X56807128Y-73801325D01*
X56645707Y-73559742D01*
X56543926Y-73457961D01*
X59170094Y-73457961D01*
X60000000Y-74287868D01*
X60829906Y-73457961D01*
X60745353Y-73218915D01*
X60481103Y-73098119D01*
X60198365Y-73031197D01*
X59908005Y-73020721D01*
X59621179Y-73067092D01*
X59348912Y-73168529D01*
X59254647Y-73218915D01*
X59170094Y-73457961D01*
X56543926Y-73457961D01*
X56440258Y-73354293D01*
X56198675Y-73192872D01*
X55930242Y-73081683D01*
X55645275Y-73025000D01*
X55354725Y-73025000D01*
X55069758Y-73081683D01*
X54801325Y-73192872D01*
X54559742Y-73354293D01*
X54354293Y-73559742D01*
X54192872Y-73801325D01*
X54081683Y-74069758D01*
X54025000Y-74354725D01*
X54025000Y-74645275D01*
X54081683Y-74930242D01*
X54192872Y-75198675D01*
X54287303Y-75340000D01*
X54087489Y-75340000D01*
X53768713Y-75403408D01*
X53468432Y-75527789D01*
X53198186Y-75708361D01*
X52968361Y-75938186D01*
X52787789Y-76208432D01*
X52663408Y-76508713D01*
X52600000Y-76827489D01*
X40625000Y-76827489D01*
X40625000Y-73743922D01*
X46400000Y-73743922D01*
X46400000Y-74256078D01*
X46499917Y-74758392D01*
X46695910Y-75231562D01*
X46980448Y-75657403D01*
X47342597Y-76019552D01*
X47768438Y-76304090D01*
X48241608Y-76500083D01*
X48743922Y-76600000D01*
X49256078Y-76600000D01*
X49758392Y-76500083D01*
X50231562Y-76304090D01*
X50657403Y-76019552D01*
X51019552Y-75657403D01*
X51304090Y-75231562D01*
X51500083Y-74758392D01*
X51600000Y-74256078D01*
X51600000Y-73743922D01*
X51500083Y-73241608D01*
X51304090Y-72768438D01*
X51019552Y-72342597D01*
X50657403Y-71980448D01*
X50231562Y-71695910D01*
X49758392Y-71499917D01*
X49256078Y-71400000D01*
X48743922Y-71400000D01*
X48241608Y-71499917D01*
X47768438Y-71695910D01*
X47342597Y-71980448D01*
X46980448Y-72342597D01*
X46695910Y-72768438D01*
X46499917Y-73241608D01*
X46400000Y-73743922D01*
X40625000Y-73743922D01*
X40625000Y-67711161D01*
X49800971Y-67711161D01*
X50201379Y-68218977D01*
X50912556Y-68601721D01*
X51684738Y-68838367D01*
X52488249Y-68919820D01*
X53292212Y-68842952D01*
X54065731Y-68610714D01*
X54779079Y-68232034D01*
X54798621Y-68218977D01*
X55199029Y-67711161D01*
X55080854Y-67592986D01*
X64045954Y-67592986D01*
X64092033Y-67874870D01*
X64192220Y-68142347D01*
X64232033Y-68216830D01*
X64223683Y-68223683D01*
X64148704Y-68315045D01*
X64092990Y-68419279D01*
X64058682Y-68532379D01*
X64047097Y-68650000D01*
X64047097Y-70350000D01*
X64058682Y-70467621D01*
X64092990Y-70580721D01*
X64148704Y-70684955D01*
X64223683Y-70776317D01*
X64315045Y-70851296D01*
X64419279Y-70907010D01*
X64532379Y-70941318D01*
X64650000Y-70952903D01*
X66350000Y-70952903D01*
X66467621Y-70941318D01*
X66580721Y-70907010D01*
X66684955Y-70851296D01*
X66776317Y-70776317D01*
X66851296Y-70684955D01*
X66907010Y-70580721D01*
X66935661Y-70486271D01*
X67075679Y-70626289D01*
X67313167Y-70784973D01*
X67577051Y-70894277D01*
X67857187Y-70950000D01*
X68142813Y-70950000D01*
X68422949Y-70894277D01*
X68686833Y-70784973D01*
X68924321Y-70626289D01*
X69126289Y-70424321D01*
X69284973Y-70186833D01*
X69394277Y-69922949D01*
X69450000Y-69642813D01*
X69450000Y-69623767D01*
X86158995Y-69623767D01*
X86258833Y-69889908D01*
X86408674Y-70131457D01*
X86602760Y-70339133D01*
X86833632Y-70504954D01*
X87092418Y-70622548D01*
X87186234Y-70651000D01*
X87410000Y-70541317D01*
X87410000Y-69400000D01*
X86267774Y-69400000D01*
X86158995Y-69623767D01*
X69450000Y-69623767D01*
X69450000Y-69357187D01*
X69394277Y-69077051D01*
X69284973Y-68813167D01*
X69126289Y-68575679D01*
X69050610Y-68500000D01*
X69126289Y-68424321D01*
X69284973Y-68186833D01*
X69394277Y-67922949D01*
X69436404Y-67711161D01*
X74000971Y-67711161D01*
X74401379Y-68218977D01*
X75112556Y-68601721D01*
X75884738Y-68838367D01*
X76688249Y-68919820D01*
X77144125Y-68876233D01*
X86158995Y-68876233D01*
X86267774Y-69100000D01*
X87410000Y-69100000D01*
X87410000Y-67958683D01*
X87186234Y-67849000D01*
X87092418Y-67877452D01*
X86833632Y-67995046D01*
X86602760Y-68160867D01*
X86408674Y-68368543D01*
X86258833Y-68610092D01*
X86158995Y-68876233D01*
X77144125Y-68876233D01*
X77492212Y-68842952D01*
X78265731Y-68610714D01*
X78979079Y-68232034D01*
X78998621Y-68218977D01*
X79399029Y-67711161D01*
X76700000Y-65012132D01*
X74000971Y-67711161D01*
X69436404Y-67711161D01*
X69450000Y-67642813D01*
X69450000Y-67357187D01*
X69394277Y-67077051D01*
X69284973Y-66813167D01*
X69126289Y-66575679D01*
X68924321Y-66373711D01*
X68686833Y-66215027D01*
X68422949Y-66105723D01*
X68142813Y-66050000D01*
X67857187Y-66050000D01*
X67577051Y-66105723D01*
X67313167Y-66215027D01*
X67075679Y-66373711D01*
X66873711Y-66575679D01*
X66747289Y-66764884D01*
X66524159Y-66687973D01*
X65712132Y-67500000D01*
X65726275Y-67514143D01*
X65514143Y-67726275D01*
X65500000Y-67712132D01*
X65485858Y-67726275D01*
X65273726Y-67514143D01*
X65287868Y-67500000D01*
X64475841Y-66687973D01*
X64239345Y-66769491D01*
X64121052Y-67029469D01*
X64055752Y-67307529D01*
X64045954Y-67592986D01*
X55080854Y-67592986D01*
X52500000Y-65012132D01*
X49800971Y-67711161D01*
X40625000Y-67711161D01*
X40625000Y-64788249D01*
X48380180Y-64788249D01*
X48457048Y-65592212D01*
X48689286Y-66365731D01*
X49067966Y-67079079D01*
X49081023Y-67098621D01*
X49588839Y-67499029D01*
X52287868Y-64800000D01*
X52712132Y-64800000D01*
X55411161Y-67499029D01*
X55918977Y-67098621D01*
X56264749Y-66456140D01*
X59275992Y-66456140D01*
X59466177Y-66784699D01*
X59879607Y-66992931D01*
X60325717Y-67116506D01*
X60787364Y-67150674D01*
X61246806Y-67094123D01*
X61686387Y-66949026D01*
X61993823Y-66784699D01*
X62172604Y-66475841D01*
X64687973Y-66475841D01*
X65500000Y-67287868D01*
X66312027Y-66475841D01*
X66230509Y-66239345D01*
X65970531Y-66121052D01*
X65692471Y-66055752D01*
X65407014Y-66045954D01*
X65125130Y-66092033D01*
X64857653Y-66192220D01*
X64769491Y-66239345D01*
X64687973Y-66475841D01*
X62172604Y-66475841D01*
X62184008Y-66456140D01*
X60730000Y-65002132D01*
X59275992Y-66456140D01*
X56264749Y-66456140D01*
X56301721Y-66387444D01*
X56538367Y-65615262D01*
X56616209Y-64847364D01*
X58369326Y-64847364D01*
X58425877Y-65306806D01*
X58570974Y-65746387D01*
X58735301Y-66053823D01*
X59063860Y-66244008D01*
X60517868Y-64790000D01*
X60942132Y-64790000D01*
X62396140Y-66244008D01*
X62724699Y-66053823D01*
X62932931Y-65640393D01*
X63056506Y-65194283D01*
X63082182Y-64847364D01*
X70409326Y-64847364D01*
X70465877Y-65306806D01*
X70610974Y-65746387D01*
X70775301Y-66053823D01*
X71103860Y-66244008D01*
X72557868Y-64790000D01*
X71103860Y-63335992D01*
X70775301Y-63526177D01*
X70567069Y-63939607D01*
X70443494Y-64385717D01*
X70409326Y-64847364D01*
X63082182Y-64847364D01*
X63090674Y-64732636D01*
X63034123Y-64273194D01*
X62889026Y-63833613D01*
X62724699Y-63526177D01*
X62396140Y-63335992D01*
X60942132Y-64790000D01*
X60517868Y-64790000D01*
X59063860Y-63335992D01*
X58735301Y-63526177D01*
X58527069Y-63939607D01*
X58403494Y-64385717D01*
X58369326Y-64847364D01*
X56616209Y-64847364D01*
X56619820Y-64811751D01*
X56542952Y-64007788D01*
X56310714Y-63234269D01*
X56252104Y-63123860D01*
X59275992Y-63123860D01*
X60730000Y-64577868D01*
X62184008Y-63123860D01*
X71315992Y-63123860D01*
X72617015Y-64424883D01*
X72580180Y-64788249D01*
X72615410Y-65156722D01*
X71315992Y-66456140D01*
X71506177Y-66784699D01*
X71919607Y-66992931D01*
X72365717Y-67116506D01*
X72827364Y-67150674D01*
X73278685Y-67095123D01*
X73281023Y-67098621D01*
X73788839Y-67499029D01*
X76487868Y-64800000D01*
X76912132Y-64800000D01*
X79611161Y-67499029D01*
X80118977Y-67098621D01*
X80501721Y-66387444D01*
X80619996Y-66001509D01*
X99400000Y-66001509D01*
X99400000Y-66198491D01*
X99438429Y-66391689D01*
X99513811Y-66573678D01*
X99623249Y-66737463D01*
X99762537Y-66876751D01*
X99926322Y-66986189D01*
X100108311Y-67061571D01*
X100301509Y-67100000D01*
X100498491Y-67100000D01*
X100691689Y-67061571D01*
X100873678Y-66986189D01*
X101037463Y-66876751D01*
X101176751Y-66737463D01*
X101286189Y-66573678D01*
X101331205Y-66465000D01*
X114180786Y-66465000D01*
X114232537Y-66516751D01*
X114396322Y-66626189D01*
X114578311Y-66701571D01*
X114771509Y-66740000D01*
X114968491Y-66740000D01*
X115161689Y-66701571D01*
X115343678Y-66626189D01*
X115507463Y-66516751D01*
X115646751Y-66377463D01*
X115756189Y-66213678D01*
X115831571Y-66031689D01*
X115870000Y-65838491D01*
X115870000Y-65641509D01*
X115838420Y-65482741D01*
X118521232Y-65482741D01*
X118521232Y-65679723D01*
X118559661Y-65872921D01*
X118635043Y-66054910D01*
X118744481Y-66218695D01*
X118883769Y-66357983D01*
X119047554Y-66467421D01*
X119229543Y-66542803D01*
X119422741Y-66581232D01*
X119619723Y-66581232D01*
X119812921Y-66542803D01*
X119994910Y-66467421D01*
X120158695Y-66357983D01*
X120210446Y-66306232D01*
X129912018Y-66306232D01*
X129952537Y-66346751D01*
X130116322Y-66456189D01*
X130298311Y-66531571D01*
X130491509Y-66570000D01*
X130688491Y-66570000D01*
X130881689Y-66531571D01*
X130969979Y-66495000D01*
X173972097Y-66495000D01*
X173972097Y-68195000D01*
X173983682Y-68312621D01*
X174017990Y-68425721D01*
X174073704Y-68529955D01*
X174148683Y-68621317D01*
X174240045Y-68696296D01*
X174344279Y-68752010D01*
X174457379Y-68786318D01*
X174575000Y-68797903D01*
X176275000Y-68797903D01*
X176392621Y-68786318D01*
X176505721Y-68752010D01*
X176609955Y-68696296D01*
X176701317Y-68621317D01*
X176776296Y-68529955D01*
X176832010Y-68425721D01*
X176866318Y-68312621D01*
X176867725Y-68298335D01*
X177040679Y-68471289D01*
X177278167Y-68629973D01*
X177542051Y-68739277D01*
X177822187Y-68795000D01*
X178107813Y-68795000D01*
X178387949Y-68739277D01*
X178651833Y-68629973D01*
X178889321Y-68471289D01*
X179091289Y-68269321D01*
X179235000Y-68054242D01*
X179378711Y-68269321D01*
X179580679Y-68471289D01*
X179818167Y-68629973D01*
X180082051Y-68739277D01*
X180362187Y-68795000D01*
X180647813Y-68795000D01*
X180927949Y-68739277D01*
X181191833Y-68629973D01*
X181429321Y-68471289D01*
X181631289Y-68269321D01*
X181775000Y-68054242D01*
X181918711Y-68269321D01*
X182120679Y-68471289D01*
X182358167Y-68629973D01*
X182622051Y-68739277D01*
X182902187Y-68795000D01*
X183187813Y-68795000D01*
X183467949Y-68739277D01*
X183731833Y-68629973D01*
X183969321Y-68471289D01*
X184171289Y-68269321D01*
X184321141Y-68045050D01*
X184433674Y-68226457D01*
X184627760Y-68434133D01*
X184858632Y-68599954D01*
X185117418Y-68717548D01*
X185211234Y-68746000D01*
X185435000Y-68636317D01*
X185435000Y-67495000D01*
X185735000Y-67495000D01*
X185735000Y-68636317D01*
X185958766Y-68746000D01*
X186052582Y-68717548D01*
X186311368Y-68599954D01*
X186542240Y-68434133D01*
X186736326Y-68226457D01*
X186886167Y-67984908D01*
X186986005Y-67718767D01*
X186877226Y-67495000D01*
X185735000Y-67495000D01*
X185435000Y-67495000D01*
X185415000Y-67495000D01*
X185415000Y-67195000D01*
X185435000Y-67195000D01*
X185435000Y-66053683D01*
X185735000Y-66053683D01*
X185735000Y-67195000D01*
X186877226Y-67195000D01*
X186986005Y-66971233D01*
X186886167Y-66705092D01*
X186736326Y-66463543D01*
X186542240Y-66255867D01*
X186311368Y-66090046D01*
X186052582Y-65972452D01*
X185958766Y-65944000D01*
X185735000Y-66053683D01*
X185435000Y-66053683D01*
X185211234Y-65944000D01*
X185117418Y-65972452D01*
X184858632Y-66090046D01*
X184627760Y-66255867D01*
X184433674Y-66463543D01*
X184321141Y-66644950D01*
X184171289Y-66420679D01*
X183969321Y-66218711D01*
X183731833Y-66060027D01*
X183467949Y-65950723D01*
X183187813Y-65895000D01*
X182902187Y-65895000D01*
X182622051Y-65950723D01*
X182358167Y-66060027D01*
X182120679Y-66218711D01*
X181918711Y-66420679D01*
X181775000Y-66635758D01*
X181631289Y-66420679D01*
X181429321Y-66218711D01*
X181191833Y-66060027D01*
X180927949Y-65950723D01*
X180647813Y-65895000D01*
X180362187Y-65895000D01*
X180082051Y-65950723D01*
X179818167Y-66060027D01*
X179580679Y-66218711D01*
X179378711Y-66420679D01*
X179235000Y-66635758D01*
X179091289Y-66420679D01*
X178889321Y-66218711D01*
X178651833Y-66060027D01*
X178387949Y-65950723D01*
X178107813Y-65895000D01*
X177822187Y-65895000D01*
X177542051Y-65950723D01*
X177278167Y-66060027D01*
X177040679Y-66218711D01*
X176867725Y-66391665D01*
X176866318Y-66377379D01*
X176832010Y-66264279D01*
X176776296Y-66160045D01*
X176701317Y-66068683D01*
X176609955Y-65993704D01*
X176505721Y-65937990D01*
X176392621Y-65903682D01*
X176275000Y-65892097D01*
X174575000Y-65892097D01*
X174457379Y-65903682D01*
X174344279Y-65937990D01*
X174240045Y-65993704D01*
X174148683Y-66068683D01*
X174073704Y-66160045D01*
X174017990Y-66264279D01*
X173983682Y-66377379D01*
X173972097Y-66495000D01*
X130969979Y-66495000D01*
X131063678Y-66456189D01*
X131227463Y-66346751D01*
X131366751Y-66207463D01*
X131476189Y-66043678D01*
X131551571Y-65861689D01*
X131590000Y-65668491D01*
X131590000Y-65471509D01*
X131551571Y-65278311D01*
X131476189Y-65096322D01*
X131366751Y-64932537D01*
X131227463Y-64793249D01*
X131063678Y-64683811D01*
X130881689Y-64608429D01*
X130688491Y-64570000D01*
X130491509Y-64570000D01*
X130298311Y-64608429D01*
X130116322Y-64683811D01*
X129952537Y-64793249D01*
X129889554Y-64856232D01*
X120210446Y-64856232D01*
X120158695Y-64804481D01*
X119994910Y-64695043D01*
X119812921Y-64619661D01*
X119619723Y-64581232D01*
X119422741Y-64581232D01*
X119229543Y-64619661D01*
X119047554Y-64695043D01*
X118883769Y-64804481D01*
X118744481Y-64943769D01*
X118635043Y-65107554D01*
X118559661Y-65289543D01*
X118521232Y-65482741D01*
X115838420Y-65482741D01*
X115831571Y-65448311D01*
X115756189Y-65266322D01*
X115646751Y-65102537D01*
X115507463Y-64963249D01*
X115343678Y-64853811D01*
X115161689Y-64778429D01*
X114968491Y-64740000D01*
X114771509Y-64740000D01*
X114578311Y-64778429D01*
X114396322Y-64853811D01*
X114232537Y-64963249D01*
X114180786Y-65015000D01*
X100795597Y-65015000D01*
X100760000Y-65011494D01*
X100724403Y-65015000D01*
X100724393Y-65015000D01*
X100617875Y-65025491D01*
X100481212Y-65066947D01*
X100419375Y-65100000D01*
X100301509Y-65100000D01*
X100108311Y-65138429D01*
X99926322Y-65213811D01*
X99762537Y-65323249D01*
X99623249Y-65462537D01*
X99513811Y-65626322D01*
X99438429Y-65808311D01*
X99400000Y-66001509D01*
X80619996Y-66001509D01*
X80738367Y-65615262D01*
X80819820Y-64811751D01*
X80742952Y-64007788D01*
X80510714Y-63234269D01*
X80310541Y-62857187D01*
X92050000Y-62857187D01*
X92050000Y-63142813D01*
X92105723Y-63422949D01*
X92215027Y-63686833D01*
X92373711Y-63924321D01*
X92575679Y-64126289D01*
X92813167Y-64284973D01*
X93077051Y-64394277D01*
X93357187Y-64450000D01*
X93642813Y-64450000D01*
X93922949Y-64394277D01*
X94186833Y-64284973D01*
X94424321Y-64126289D01*
X94626289Y-63924321D01*
X94770000Y-63709242D01*
X94913711Y-63924321D01*
X95115679Y-64126289D01*
X95353167Y-64284973D01*
X95617051Y-64394277D01*
X95897187Y-64450000D01*
X96182813Y-64450000D01*
X96462949Y-64394277D01*
X96726833Y-64284973D01*
X96964321Y-64126289D01*
X97166289Y-63924321D01*
X97310000Y-63709242D01*
X97453711Y-63924321D01*
X97655679Y-64126289D01*
X97893167Y-64284973D01*
X98157051Y-64394277D01*
X98437187Y-64450000D01*
X98722813Y-64450000D01*
X99002949Y-64394277D01*
X99266833Y-64284973D01*
X99504321Y-64126289D01*
X99706289Y-63924321D01*
X99850000Y-63709242D01*
X99993711Y-63924321D01*
X100195679Y-64126289D01*
X100433167Y-64284973D01*
X100697051Y-64394277D01*
X100977187Y-64450000D01*
X101262813Y-64450000D01*
X101542949Y-64394277D01*
X101806833Y-64284973D01*
X102044321Y-64126289D01*
X102246289Y-63924321D01*
X102390000Y-63709242D01*
X102533711Y-63924321D01*
X102735679Y-64126289D01*
X102973167Y-64284973D01*
X103237051Y-64394277D01*
X103517187Y-64450000D01*
X103802813Y-64450000D01*
X104082949Y-64394277D01*
X104346833Y-64284973D01*
X104584321Y-64126289D01*
X104786289Y-63924321D01*
X104930000Y-63709242D01*
X105073711Y-63924321D01*
X105275679Y-64126289D01*
X105513167Y-64284973D01*
X105777051Y-64394277D01*
X106057187Y-64450000D01*
X106342813Y-64450000D01*
X106622949Y-64394277D01*
X106886833Y-64284973D01*
X107124321Y-64126289D01*
X107326289Y-63924321D01*
X107470000Y-63709242D01*
X107613711Y-63924321D01*
X107815679Y-64126289D01*
X108053167Y-64284973D01*
X108317051Y-64394277D01*
X108597187Y-64450000D01*
X108882813Y-64450000D01*
X109162949Y-64394277D01*
X109426833Y-64284973D01*
X109664321Y-64126289D01*
X109866289Y-63924321D01*
X110010000Y-63709242D01*
X110153711Y-63924321D01*
X110355679Y-64126289D01*
X110593167Y-64284973D01*
X110857051Y-64394277D01*
X111137187Y-64450000D01*
X111422813Y-64450000D01*
X111702949Y-64394277D01*
X111966833Y-64284973D01*
X112204321Y-64126289D01*
X112406289Y-63924321D01*
X112550000Y-63709242D01*
X112693711Y-63924321D01*
X112895679Y-64126289D01*
X113133167Y-64284973D01*
X113397051Y-64394277D01*
X113677187Y-64450000D01*
X113962813Y-64450000D01*
X114242949Y-64394277D01*
X114506833Y-64284973D01*
X114744321Y-64126289D01*
X114946289Y-63924321D01*
X115090000Y-63709242D01*
X115233711Y-63924321D01*
X115435679Y-64126289D01*
X115673167Y-64284973D01*
X115937051Y-64394277D01*
X116217187Y-64450000D01*
X116502813Y-64450000D01*
X116782949Y-64394277D01*
X117046833Y-64284973D01*
X117284321Y-64126289D01*
X117486289Y-63924321D01*
X117630000Y-63709242D01*
X117773711Y-63924321D01*
X117975679Y-64126289D01*
X118213167Y-64284973D01*
X118477051Y-64394277D01*
X118757187Y-64450000D01*
X119042813Y-64450000D01*
X119322949Y-64394277D01*
X119586833Y-64284973D01*
X119824321Y-64126289D01*
X120026289Y-63924321D01*
X120170000Y-63709242D01*
X120313711Y-63924321D01*
X120515679Y-64126289D01*
X120753167Y-64284973D01*
X121017051Y-64394277D01*
X121297187Y-64450000D01*
X121582813Y-64450000D01*
X121862949Y-64394277D01*
X122126833Y-64284973D01*
X122364321Y-64126289D01*
X122566289Y-63924321D01*
X122710000Y-63709242D01*
X122853711Y-63924321D01*
X123055679Y-64126289D01*
X123293167Y-64284973D01*
X123557051Y-64394277D01*
X123837187Y-64450000D01*
X124122813Y-64450000D01*
X124402949Y-64394277D01*
X124666833Y-64284973D01*
X124904321Y-64126289D01*
X125106289Y-63924321D01*
X125250000Y-63709242D01*
X125393711Y-63924321D01*
X125595679Y-64126289D01*
X125833167Y-64284973D01*
X126097051Y-64394277D01*
X126377187Y-64450000D01*
X126662813Y-64450000D01*
X126942949Y-64394277D01*
X127206833Y-64284973D01*
X127444321Y-64126289D01*
X127646289Y-63924321D01*
X127790000Y-63709242D01*
X127933711Y-63924321D01*
X128135679Y-64126289D01*
X128373167Y-64284973D01*
X128637051Y-64394277D01*
X128917187Y-64450000D01*
X129202813Y-64450000D01*
X129482949Y-64394277D01*
X129746833Y-64284973D01*
X129984321Y-64126289D01*
X130157275Y-63953335D01*
X130158682Y-63967621D01*
X130192990Y-64080721D01*
X130248704Y-64184955D01*
X130323683Y-64276317D01*
X130415045Y-64351296D01*
X130519279Y-64407010D01*
X130632379Y-64441318D01*
X130750000Y-64452903D01*
X132450000Y-64452903D01*
X132567621Y-64441318D01*
X132680721Y-64407010D01*
X132784955Y-64351296D01*
X132876317Y-64276317D01*
X132951296Y-64184955D01*
X133007010Y-64080721D01*
X133041318Y-63967621D01*
X133052903Y-63850000D01*
X133052903Y-63167600D01*
X148546697Y-63167600D01*
X148546697Y-64867600D01*
X148558282Y-64985221D01*
X148592590Y-65098321D01*
X148648304Y-65202555D01*
X148723283Y-65293917D01*
X148814645Y-65368896D01*
X148918879Y-65424610D01*
X149031979Y-65458918D01*
X149149600Y-65470503D01*
X150849600Y-65470503D01*
X150967221Y-65458918D01*
X151080321Y-65424610D01*
X151184555Y-65368896D01*
X151275917Y-65293917D01*
X151350896Y-65202555D01*
X151406610Y-65098321D01*
X151440918Y-64985221D01*
X151442325Y-64970935D01*
X151615279Y-65143889D01*
X151852767Y-65302573D01*
X152116651Y-65411877D01*
X152396787Y-65467600D01*
X152682413Y-65467600D01*
X152962549Y-65411877D01*
X153226433Y-65302573D01*
X153463921Y-65143889D01*
X153665889Y-64941921D01*
X153809600Y-64726842D01*
X153953311Y-64941921D01*
X154155279Y-65143889D01*
X154392767Y-65302573D01*
X154656651Y-65411877D01*
X154936787Y-65467600D01*
X155222413Y-65467600D01*
X155502549Y-65411877D01*
X155766433Y-65302573D01*
X156003921Y-65143889D01*
X156205889Y-64941921D01*
X156349600Y-64726842D01*
X156493311Y-64941921D01*
X156695279Y-65143889D01*
X156932767Y-65302573D01*
X157196651Y-65411877D01*
X157476787Y-65467600D01*
X157762413Y-65467600D01*
X158042549Y-65411877D01*
X158306433Y-65302573D01*
X158543921Y-65143889D01*
X158745889Y-64941921D01*
X158889600Y-64726842D01*
X159033311Y-64941921D01*
X159235279Y-65143889D01*
X159472767Y-65302573D01*
X159736651Y-65411877D01*
X160016787Y-65467600D01*
X160302413Y-65467600D01*
X160582549Y-65411877D01*
X160846433Y-65302573D01*
X161083921Y-65143889D01*
X161285889Y-64941921D01*
X161429600Y-64726842D01*
X161573311Y-64941921D01*
X161775279Y-65143889D01*
X162012767Y-65302573D01*
X162276651Y-65411877D01*
X162556787Y-65467600D01*
X162842413Y-65467600D01*
X163122549Y-65411877D01*
X163386433Y-65302573D01*
X163623921Y-65143889D01*
X163825889Y-64941921D01*
X163969600Y-64726842D01*
X164113311Y-64941921D01*
X164315279Y-65143889D01*
X164552767Y-65302573D01*
X164816651Y-65411877D01*
X165096787Y-65467600D01*
X165382413Y-65467600D01*
X165662549Y-65411877D01*
X165926433Y-65302573D01*
X166163921Y-65143889D01*
X166365889Y-64941921D01*
X166509600Y-64726842D01*
X166653311Y-64941921D01*
X166855279Y-65143889D01*
X167092767Y-65302573D01*
X167356651Y-65411877D01*
X167636787Y-65467600D01*
X167922413Y-65467600D01*
X168202549Y-65411877D01*
X168466433Y-65302573D01*
X168703921Y-65143889D01*
X168905889Y-64941921D01*
X169049600Y-64726842D01*
X169193311Y-64941921D01*
X169395279Y-65143889D01*
X169632767Y-65302573D01*
X169896651Y-65411877D01*
X170176787Y-65467600D01*
X170462413Y-65467600D01*
X170742549Y-65411877D01*
X171006433Y-65302573D01*
X171243921Y-65143889D01*
X171445889Y-64941921D01*
X171589600Y-64726842D01*
X171733311Y-64941921D01*
X171935279Y-65143889D01*
X172172767Y-65302573D01*
X172436651Y-65411877D01*
X172716787Y-65467600D01*
X173002413Y-65467600D01*
X173282549Y-65411877D01*
X173546433Y-65302573D01*
X173783921Y-65143889D01*
X173985889Y-64941921D01*
X174129600Y-64726842D01*
X174273311Y-64941921D01*
X174475279Y-65143889D01*
X174712767Y-65302573D01*
X174976651Y-65411877D01*
X175256787Y-65467600D01*
X175542413Y-65467600D01*
X175822549Y-65411877D01*
X176086433Y-65302573D01*
X176323921Y-65143889D01*
X176525889Y-64941921D01*
X176669600Y-64726842D01*
X176813311Y-64941921D01*
X177015279Y-65143889D01*
X177252767Y-65302573D01*
X177516651Y-65411877D01*
X177796787Y-65467600D01*
X178082413Y-65467600D01*
X178362549Y-65411877D01*
X178626433Y-65302573D01*
X178863921Y-65143889D01*
X179065889Y-64941921D01*
X179224573Y-64704433D01*
X179333877Y-64440549D01*
X179389600Y-64160413D01*
X179389600Y-63874787D01*
X179333877Y-63594651D01*
X179224573Y-63330767D01*
X179065889Y-63093279D01*
X178863921Y-62891311D01*
X178626433Y-62732627D01*
X178362549Y-62623323D01*
X178082413Y-62567600D01*
X177796787Y-62567600D01*
X177516651Y-62623323D01*
X177252767Y-62732627D01*
X177015279Y-62891311D01*
X176813311Y-63093279D01*
X176669600Y-63308358D01*
X176525889Y-63093279D01*
X176323921Y-62891311D01*
X176086433Y-62732627D01*
X175822549Y-62623323D01*
X175542413Y-62567600D01*
X175256787Y-62567600D01*
X174976651Y-62623323D01*
X174712767Y-62732627D01*
X174475279Y-62891311D01*
X174273311Y-63093279D01*
X174129600Y-63308358D01*
X173985889Y-63093279D01*
X173783921Y-62891311D01*
X173546433Y-62732627D01*
X173282549Y-62623323D01*
X173002413Y-62567600D01*
X172716787Y-62567600D01*
X172436651Y-62623323D01*
X172172767Y-62732627D01*
X171935279Y-62891311D01*
X171733311Y-63093279D01*
X171589600Y-63308358D01*
X171445889Y-63093279D01*
X171243921Y-62891311D01*
X171006433Y-62732627D01*
X170742549Y-62623323D01*
X170462413Y-62567600D01*
X170176787Y-62567600D01*
X169896651Y-62623323D01*
X169632767Y-62732627D01*
X169395279Y-62891311D01*
X169193311Y-63093279D01*
X169049600Y-63308358D01*
X168905889Y-63093279D01*
X168703921Y-62891311D01*
X168466433Y-62732627D01*
X168202549Y-62623323D01*
X167922413Y-62567600D01*
X167636787Y-62567600D01*
X167356651Y-62623323D01*
X167092767Y-62732627D01*
X166855279Y-62891311D01*
X166653311Y-63093279D01*
X166509600Y-63308358D01*
X166365889Y-63093279D01*
X166163921Y-62891311D01*
X165926433Y-62732627D01*
X165662549Y-62623323D01*
X165382413Y-62567600D01*
X165096787Y-62567600D01*
X164816651Y-62623323D01*
X164552767Y-62732627D01*
X164315279Y-62891311D01*
X164113311Y-63093279D01*
X163969600Y-63308358D01*
X163825889Y-63093279D01*
X163623921Y-62891311D01*
X163386433Y-62732627D01*
X163122549Y-62623323D01*
X162842413Y-62567600D01*
X162556787Y-62567600D01*
X162276651Y-62623323D01*
X162012767Y-62732627D01*
X161775279Y-62891311D01*
X161573311Y-63093279D01*
X161429600Y-63308358D01*
X161285889Y-63093279D01*
X161083921Y-62891311D01*
X160846433Y-62732627D01*
X160582549Y-62623323D01*
X160302413Y-62567600D01*
X160016787Y-62567600D01*
X159736651Y-62623323D01*
X159472767Y-62732627D01*
X159235279Y-62891311D01*
X159033311Y-63093279D01*
X158889600Y-63308358D01*
X158745889Y-63093279D01*
X158543921Y-62891311D01*
X158306433Y-62732627D01*
X158042549Y-62623323D01*
X157762413Y-62567600D01*
X157476787Y-62567600D01*
X157196651Y-62623323D01*
X156932767Y-62732627D01*
X156695279Y-62891311D01*
X156493311Y-63093279D01*
X156349600Y-63308358D01*
X156205889Y-63093279D01*
X156003921Y-62891311D01*
X155766433Y-62732627D01*
X155502549Y-62623323D01*
X155222413Y-62567600D01*
X154936787Y-62567600D01*
X154656651Y-62623323D01*
X154392767Y-62732627D01*
X154155279Y-62891311D01*
X153953311Y-63093279D01*
X153809600Y-63308358D01*
X153665889Y-63093279D01*
X153463921Y-62891311D01*
X153226433Y-62732627D01*
X152962549Y-62623323D01*
X152682413Y-62567600D01*
X152396787Y-62567600D01*
X152116651Y-62623323D01*
X151852767Y-62732627D01*
X151615279Y-62891311D01*
X151442325Y-63064265D01*
X151440918Y-63049979D01*
X151406610Y-62936879D01*
X151350896Y-62832645D01*
X151275917Y-62741283D01*
X151184555Y-62666304D01*
X151080321Y-62610590D01*
X150967221Y-62576282D01*
X150849600Y-62564697D01*
X149149600Y-62564697D01*
X149031979Y-62576282D01*
X148918879Y-62610590D01*
X148814645Y-62666304D01*
X148723283Y-62741283D01*
X148648304Y-62832645D01*
X148592590Y-62936879D01*
X148558282Y-63049979D01*
X148546697Y-63167600D01*
X133052903Y-63167600D01*
X133052903Y-62150000D01*
X133041318Y-62032379D01*
X133007010Y-61919279D01*
X132951296Y-61815045D01*
X132876317Y-61723683D01*
X132784955Y-61648704D01*
X132680721Y-61592990D01*
X132567621Y-61558682D01*
X132450000Y-61547097D01*
X130750000Y-61547097D01*
X130632379Y-61558682D01*
X130519279Y-61592990D01*
X130415045Y-61648704D01*
X130323683Y-61723683D01*
X130248704Y-61815045D01*
X130192990Y-61919279D01*
X130158682Y-62032379D01*
X130157275Y-62046665D01*
X129984321Y-61873711D01*
X129746833Y-61715027D01*
X129482949Y-61605723D01*
X129202813Y-61550000D01*
X128917187Y-61550000D01*
X128637051Y-61605723D01*
X128373167Y-61715027D01*
X128135679Y-61873711D01*
X127933711Y-62075679D01*
X127790000Y-62290758D01*
X127646289Y-62075679D01*
X127444321Y-61873711D01*
X127206833Y-61715027D01*
X126942949Y-61605723D01*
X126662813Y-61550000D01*
X126377187Y-61550000D01*
X126097051Y-61605723D01*
X125833167Y-61715027D01*
X125595679Y-61873711D01*
X125393711Y-62075679D01*
X125250000Y-62290758D01*
X125106289Y-62075679D01*
X124904321Y-61873711D01*
X124666833Y-61715027D01*
X124402949Y-61605723D01*
X124122813Y-61550000D01*
X123837187Y-61550000D01*
X123557051Y-61605723D01*
X123293167Y-61715027D01*
X123055679Y-61873711D01*
X122853711Y-62075679D01*
X122710000Y-62290758D01*
X122566289Y-62075679D01*
X122364321Y-61873711D01*
X122126833Y-61715027D01*
X121862949Y-61605723D01*
X121582813Y-61550000D01*
X121297187Y-61550000D01*
X121017051Y-61605723D01*
X120753167Y-61715027D01*
X120515679Y-61873711D01*
X120313711Y-62075679D01*
X120170000Y-62290758D01*
X120026289Y-62075679D01*
X119824321Y-61873711D01*
X119586833Y-61715027D01*
X119322949Y-61605723D01*
X119042813Y-61550000D01*
X118757187Y-61550000D01*
X118477051Y-61605723D01*
X118213167Y-61715027D01*
X117975679Y-61873711D01*
X117773711Y-62075679D01*
X117630000Y-62290758D01*
X117486289Y-62075679D01*
X117284321Y-61873711D01*
X117046833Y-61715027D01*
X116782949Y-61605723D01*
X116502813Y-61550000D01*
X116217187Y-61550000D01*
X115937051Y-61605723D01*
X115673167Y-61715027D01*
X115435679Y-61873711D01*
X115233711Y-62075679D01*
X115090000Y-62290758D01*
X114946289Y-62075679D01*
X114744321Y-61873711D01*
X114506833Y-61715027D01*
X114242949Y-61605723D01*
X113962813Y-61550000D01*
X113677187Y-61550000D01*
X113397051Y-61605723D01*
X113133167Y-61715027D01*
X112895679Y-61873711D01*
X112693711Y-62075679D01*
X112550000Y-62290758D01*
X112406289Y-62075679D01*
X112204321Y-61873711D01*
X111966833Y-61715027D01*
X111702949Y-61605723D01*
X111422813Y-61550000D01*
X111137187Y-61550000D01*
X110857051Y-61605723D01*
X110593167Y-61715027D01*
X110355679Y-61873711D01*
X110153711Y-62075679D01*
X110010000Y-62290758D01*
X109866289Y-62075679D01*
X109664321Y-61873711D01*
X109426833Y-61715027D01*
X109162949Y-61605723D01*
X108882813Y-61550000D01*
X108597187Y-61550000D01*
X108317051Y-61605723D01*
X108053167Y-61715027D01*
X107815679Y-61873711D01*
X107613711Y-62075679D01*
X107470000Y-62290758D01*
X107326289Y-62075679D01*
X107124321Y-61873711D01*
X106886833Y-61715027D01*
X106622949Y-61605723D01*
X106342813Y-61550000D01*
X106057187Y-61550000D01*
X105777051Y-61605723D01*
X105513167Y-61715027D01*
X105275679Y-61873711D01*
X105073711Y-62075679D01*
X104930000Y-62290758D01*
X104786289Y-62075679D01*
X104584321Y-61873711D01*
X104346833Y-61715027D01*
X104082949Y-61605723D01*
X103802813Y-61550000D01*
X103517187Y-61550000D01*
X103237051Y-61605723D01*
X102973167Y-61715027D01*
X102735679Y-61873711D01*
X102533711Y-62075679D01*
X102390000Y-62290758D01*
X102246289Y-62075679D01*
X102044321Y-61873711D01*
X101806833Y-61715027D01*
X101542949Y-61605723D01*
X101262813Y-61550000D01*
X100977187Y-61550000D01*
X100697051Y-61605723D01*
X100433167Y-61715027D01*
X100195679Y-61873711D01*
X99993711Y-62075679D01*
X99850000Y-62290758D01*
X99706289Y-62075679D01*
X99504321Y-61873711D01*
X99266833Y-61715027D01*
X99002949Y-61605723D01*
X98722813Y-61550000D01*
X98437187Y-61550000D01*
X98157051Y-61605723D01*
X97893167Y-61715027D01*
X97655679Y-61873711D01*
X97453711Y-62075679D01*
X97310000Y-62290758D01*
X97166289Y-62075679D01*
X96964321Y-61873711D01*
X96726833Y-61715027D01*
X96462949Y-61605723D01*
X96182813Y-61550000D01*
X95897187Y-61550000D01*
X95617051Y-61605723D01*
X95353167Y-61715027D01*
X95115679Y-61873711D01*
X94913711Y-62075679D01*
X94770000Y-62290758D01*
X94626289Y-62075679D01*
X94424321Y-61873711D01*
X94186833Y-61715027D01*
X93922949Y-61605723D01*
X93642813Y-61550000D01*
X93357187Y-61550000D01*
X93077051Y-61605723D01*
X92813167Y-61715027D01*
X92575679Y-61873711D01*
X92373711Y-62075679D01*
X92215027Y-62313167D01*
X92105723Y-62577051D01*
X92050000Y-62857187D01*
X80310541Y-62857187D01*
X80132034Y-62520921D01*
X80118977Y-62501379D01*
X79611161Y-62100971D01*
X76912132Y-64800000D01*
X76487868Y-64800000D01*
X73788839Y-62100971D01*
X73288829Y-62495224D01*
X73174283Y-62463494D01*
X72712636Y-62429326D01*
X72253194Y-62485877D01*
X71813613Y-62630974D01*
X71506177Y-62795301D01*
X71315992Y-63123860D01*
X62184008Y-63123860D01*
X61993823Y-62795301D01*
X61580393Y-62587069D01*
X61134283Y-62463494D01*
X60672636Y-62429326D01*
X60213194Y-62485877D01*
X59773613Y-62630974D01*
X59466177Y-62795301D01*
X59275992Y-63123860D01*
X56252104Y-63123860D01*
X55932034Y-62520921D01*
X55918977Y-62501379D01*
X55411161Y-62100971D01*
X52712132Y-64800000D01*
X52287868Y-64800000D01*
X49588839Y-62100971D01*
X49081023Y-62501379D01*
X48698279Y-63212556D01*
X48461633Y-63984738D01*
X48380180Y-64788249D01*
X40625000Y-64788249D01*
X40625000Y-61888839D01*
X49800971Y-61888839D01*
X52500000Y-64587868D01*
X55199029Y-61888839D01*
X74000971Y-61888839D01*
X76700000Y-64587868D01*
X79399029Y-61888839D01*
X78998621Y-61381023D01*
X78287444Y-60998279D01*
X77515262Y-60761633D01*
X76711751Y-60680180D01*
X75907788Y-60757048D01*
X75134269Y-60989286D01*
X74420921Y-61367966D01*
X74401379Y-61381023D01*
X74000971Y-61888839D01*
X55199029Y-61888839D01*
X54798621Y-61381023D01*
X54087444Y-60998279D01*
X53315262Y-60761633D01*
X52511751Y-60680180D01*
X51707788Y-60757048D01*
X50934269Y-60989286D01*
X50220921Y-61367966D01*
X50201379Y-61381023D01*
X49800971Y-61888839D01*
X40625000Y-61888839D01*
X40625000Y-60625000D01*
X189375001Y-60625000D01*
X189375000Y-96375000D01*
G37*
X189375000Y-96375000D02*
X40625000Y-96375000D01*
X40625000Y-93750060D01*
X47647037Y-93750060D01*
X47658622Y-93867681D01*
X47692930Y-93980781D01*
X47748644Y-94085015D01*
X47823623Y-94176377D01*
X47914985Y-94251356D01*
X48019219Y-94307070D01*
X48132319Y-94341378D01*
X48249940Y-94352963D01*
X49700000Y-94350060D01*
X49850000Y-94200060D01*
X49850000Y-92150000D01*
X50150000Y-92150000D01*
X50150000Y-94200060D01*
X50300000Y-94350060D01*
X51750060Y-94352963D01*
X51867681Y-94341378D01*
X51980781Y-94307070D01*
X52085015Y-94251356D01*
X52176377Y-94176377D01*
X52251356Y-94085015D01*
X52307070Y-93980781D01*
X52341378Y-93867681D01*
X52352963Y-93750060D01*
X52352796Y-93666183D01*
X53625949Y-93666183D01*
X53816141Y-93994747D01*
X54229582Y-94202985D01*
X54675703Y-94326564D01*
X55137362Y-94360734D01*
X55596816Y-94304182D01*
X56036409Y-94159082D01*
X56343859Y-93994747D01*
X56483352Y-93753767D01*
X75258995Y-93753767D01*
X75358833Y-94019908D01*
X75508674Y-94261457D01*
X75702760Y-94469133D01*
X75933632Y-94634954D01*
X76192418Y-94752548D01*
X76286234Y-94781000D01*
X76510000Y-94671317D01*
X76510000Y-93530000D01*
X75367774Y-93530000D01*
X75258995Y-93753767D01*
X56483352Y-93753767D01*
X56534051Y-93666183D01*
X55080000Y-92212132D01*
X53625949Y-93666183D01*
X52352796Y-93666183D01*
X52350060Y-92300000D01*
X52200060Y-92150000D01*
X50150000Y-92150000D01*
X49850000Y-92150000D01*
X47799940Y-92150000D01*
X47649940Y-92300000D01*
X47647037Y-93750060D01*
X40625000Y-93750060D01*
X40625000Y-92057362D01*
X52719266Y-92057362D01*
X52775818Y-92516816D01*
X52920918Y-92956409D01*
X53085253Y-93263859D01*
X53413817Y-93454051D01*
X54867868Y-92000000D01*
X55292132Y-92000000D01*
X56746183Y-93454051D01*
X57074747Y-93263859D01*
X57282985Y-92850418D01*
X57406564Y-92404297D01*
X57440734Y-91942638D01*
X57384182Y-91483184D01*
X57239082Y-91043591D01*
X57074747Y-90736141D01*
X57007453Y-90697187D01*
X75210000Y-90697187D01*
X75210000Y-90982813D01*
X75265723Y-91262949D01*
X75375027Y-91526833D01*
X75533711Y-91764321D01*
X75735679Y-91966289D01*
X75957229Y-92114323D01*
X75933632Y-92125046D01*
X75702760Y-92290867D01*
X75508674Y-92498543D01*
X75358833Y-92740092D01*
X75258995Y-93006233D01*
X75367774Y-93230000D01*
X76510000Y-93230000D01*
X76510000Y-93210000D01*
X76810000Y-93210000D01*
X76810000Y-93230000D01*
X76830000Y-93230000D01*
X76830000Y-93530000D01*
X76810000Y-93530000D01*
X76810000Y-94671317D01*
X77033766Y-94781000D01*
X77127582Y-94752548D01*
X77386368Y-94634954D01*
X77617240Y-94469133D01*
X77811326Y-94261457D01*
X77923859Y-94080050D01*
X78073711Y-94304321D01*
X78275679Y-94506289D01*
X78513167Y-94664973D01*
X78777051Y-94774277D01*
X79057187Y-94830000D01*
X79342813Y-94830000D01*
X79622949Y-94774277D01*
X79886833Y-94664973D01*
X80124321Y-94506289D01*
X80326289Y-94304321D01*
X80470000Y-94089242D01*
X80613711Y-94304321D01*
X80815679Y-94506289D01*
X81053167Y-94664973D01*
X81317051Y-94774277D01*
X81597187Y-94830000D01*
X81882813Y-94830000D01*
X82162949Y-94774277D01*
X82426833Y-94664973D01*
X82664321Y-94506289D01*
X82839101Y-94331509D01*
X114450000Y-94331509D01*
X114450000Y-94528491D01*
X114488429Y-94721689D01*
X114563811Y-94903678D01*
X114673249Y-95067463D01*
X114812537Y-95206751D01*
X114976322Y-95316189D01*
X115158311Y-95391571D01*
X115351509Y-95430000D01*
X115548491Y-95430000D01*
X115741689Y-95391571D01*
X115923678Y-95316189D01*
X116087463Y-95206751D01*
X116226751Y-95067463D01*
X116336189Y-94903678D01*
X116411571Y-94721689D01*
X116450000Y-94528491D01*
X116450000Y-94389754D01*
X116501509Y-94400000D01*
X116698491Y-94400000D01*
X116891689Y-94361571D01*
X117073678Y-94286189D01*
X117237463Y-94176751D01*
X117376751Y-94037463D01*
X117486189Y-93873678D01*
X117561571Y-93691689D01*
X117600000Y-93498491D01*
X117600000Y-93453766D01*
X180599000Y-93453766D01*
X180627452Y-93547582D01*
X180745046Y-93806368D01*
X180910867Y-94037240D01*
X181118543Y-94231326D01*
X181360092Y-94381167D01*
X181626233Y-94481005D01*
X181850000Y-94372226D01*
X181850000Y-93230000D01*
X182150000Y-93230000D01*
X182150000Y-94372226D01*
X182373767Y-94481005D01*
X182639908Y-94381167D01*
X182881457Y-94231326D01*
X183089133Y-94037240D01*
X183254954Y-93806368D01*
X183372548Y-93547582D01*
X183401000Y-93453766D01*
X183291317Y-93230000D01*
X182150000Y-93230000D01*
X181850000Y-93230000D01*
X180708683Y-93230000D01*
X180599000Y-93453766D01*
X117600000Y-93453766D01*
X117600000Y-93301509D01*
X117561571Y-93108311D01*
X117486189Y-92926322D01*
X117376751Y-92762537D01*
X117315000Y-92700786D01*
X117315000Y-89907187D01*
X117720000Y-89907187D01*
X117720000Y-90192813D01*
X117775723Y-90472949D01*
X117885027Y-90736833D01*
X118043711Y-90974321D01*
X118245679Y-91176289D01*
X118483167Y-91334973D01*
X118747051Y-91444277D01*
X119027187Y-91500000D01*
X119312813Y-91500000D01*
X119592949Y-91444277D01*
X119856833Y-91334973D01*
X120094321Y-91176289D01*
X120296289Y-90974321D01*
X120440000Y-90759242D01*
X120583711Y-90974321D01*
X120785679Y-91176289D01*
X121023167Y-91334973D01*
X121287051Y-91444277D01*
X121567187Y-91500000D01*
X121852813Y-91500000D01*
X122132949Y-91444277D01*
X122396833Y-91334973D01*
X122634321Y-91176289D01*
X122836289Y-90974321D01*
X122980000Y-90759242D01*
X123123711Y-90974321D01*
X123325679Y-91176289D01*
X123563167Y-91334973D01*
X123827051Y-91444277D01*
X124107187Y-91500000D01*
X124392813Y-91500000D01*
X124672949Y-91444277D01*
X124936833Y-91334973D01*
X125174321Y-91176289D01*
X125347275Y-91003335D01*
X125348682Y-91017621D01*
X125382990Y-91130721D01*
X125438704Y-91234955D01*
X125513683Y-91326317D01*
X125605045Y-91401296D01*
X125709279Y-91457010D01*
X125822379Y-91491318D01*
X125940000Y-91502903D01*
X126490000Y-91500000D01*
X126640000Y-91350000D01*
X126640000Y-90200000D01*
X126940000Y-90200000D01*
X126940000Y-91350000D01*
X127090000Y-91500000D01*
X127640000Y-91502903D01*
X127757621Y-91491318D01*
X127870721Y-91457010D01*
X127974955Y-91401296D01*
X128066317Y-91326317D01*
X128141296Y-91234955D01*
X128197010Y-91130721D01*
X128231318Y-91017621D01*
X128242903Y-90900000D01*
X128240000Y-90350000D01*
X128090000Y-90200000D01*
X126940000Y-90200000D01*
X126640000Y-90200000D01*
X126620000Y-90200000D01*
X126620000Y-89900000D01*
X126640000Y-89900000D01*
X126640000Y-89880000D01*
X126940000Y-89880000D01*
X126940000Y-89900000D01*
X128090000Y-89900000D01*
X128240000Y-89750000D01*
X128242903Y-89200000D01*
X128231318Y-89082379D01*
X128197010Y-88969279D01*
X128141296Y-88865045D01*
X128066317Y-88773683D01*
X127974955Y-88698704D01*
X127870721Y-88642990D01*
X127757621Y-88608682D01*
X127754661Y-88608390D01*
X127761579Y-88591689D01*
X127800008Y-88398491D01*
X127800008Y-88201509D01*
X127761579Y-88008311D01*
X127686197Y-87826322D01*
X127576759Y-87662537D01*
X127525008Y-87610786D01*
X127525008Y-82070000D01*
X180547097Y-82070000D01*
X180547097Y-83770000D01*
X180558682Y-83887621D01*
X180592990Y-84000721D01*
X180648704Y-84104955D01*
X180723683Y-84196317D01*
X180815045Y-84271296D01*
X180919279Y-84327010D01*
X181032379Y-84361318D01*
X181046665Y-84362725D01*
X180873711Y-84535679D01*
X180715027Y-84773167D01*
X180605723Y-85037051D01*
X180550000Y-85317187D01*
X180550000Y-85602813D01*
X180605723Y-85882949D01*
X180715027Y-86146833D01*
X180873711Y-86384321D01*
X181075679Y-86586289D01*
X181290758Y-86730000D01*
X181075679Y-86873711D01*
X180873711Y-87075679D01*
X180715027Y-87313167D01*
X180605723Y-87577051D01*
X180550000Y-87857187D01*
X180550000Y-88142813D01*
X180605723Y-88422949D01*
X180715027Y-88686833D01*
X180873711Y-88924321D01*
X181075679Y-89126289D01*
X181290758Y-89270000D01*
X181075679Y-89413711D01*
X180873711Y-89615679D01*
X180715027Y-89853167D01*
X180605723Y-90117051D01*
X180550000Y-90397187D01*
X180550000Y-90682813D01*
X180605723Y-90962949D01*
X180715027Y-91226833D01*
X180873711Y-91464321D01*
X181075679Y-91666289D01*
X181299950Y-91816141D01*
X181118543Y-91928674D01*
X180910867Y-92122760D01*
X180745046Y-92353632D01*
X180627452Y-92612418D01*
X180599000Y-92706234D01*
X180708683Y-92930000D01*
X181850000Y-92930000D01*
X181850000Y-92910000D01*
X182150000Y-92910000D01*
X182150000Y-92930000D01*
X183291317Y-92930000D01*
X183401000Y-92706234D01*
X183372548Y-92612418D01*
X183254954Y-92353632D01*
X183089133Y-92122760D01*
X182881457Y-91928674D01*
X182700050Y-91816141D01*
X182924321Y-91666289D01*
X183126289Y-91464321D01*
X183284973Y-91226833D01*
X183394277Y-90962949D01*
X183450000Y-90682813D01*
X183450000Y-90397187D01*
X183394277Y-90117051D01*
X183284973Y-89853167D01*
X183126289Y-89615679D01*
X182924321Y-89413711D01*
X182709242Y-89270000D01*
X182924321Y-89126289D01*
X183126289Y-88924321D01*
X183284973Y-88686833D01*
X183394277Y-88422949D01*
X183450000Y-88142813D01*
X183450000Y-87857187D01*
X183394277Y-87577051D01*
X183284973Y-87313167D01*
X183126289Y-87075679D01*
X182924321Y-86873711D01*
X182709242Y-86730000D01*
X182924321Y-86586289D01*
X183126289Y-86384321D01*
X183284973Y-86146833D01*
X183394277Y-85882949D01*
X183450000Y-85602813D01*
X183450000Y-85317187D01*
X183394277Y-85037051D01*
X183284973Y-84773167D01*
X183126289Y-84535679D01*
X182953335Y-84362725D01*
X182967621Y-84361318D01*
X183080721Y-84327010D01*
X183184955Y-84271296D01*
X183276317Y-84196317D01*
X183351296Y-84104955D01*
X183407010Y-84000721D01*
X183441318Y-83887621D01*
X183452903Y-83770000D01*
X183452903Y-82070000D01*
X183441318Y-81952379D01*
X183407010Y-81839279D01*
X183351296Y-81735045D01*
X183276317Y-81643683D01*
X183184955Y-81568704D01*
X183080721Y-81512990D01*
X182967621Y-81478682D01*
X182850000Y-81467097D01*
X181150000Y-81467097D01*
X181032379Y-81478682D01*
X180919279Y-81512990D01*
X180815045Y-81568704D01*
X180723683Y-81643683D01*
X180648704Y-81735045D01*
X180592990Y-81839279D01*
X180558682Y-81952379D01*
X180547097Y-82070000D01*
X127525008Y-82070000D01*
X127525008Y-78089206D01*
X127576751Y-78037463D01*
X127686189Y-77873678D01*
X127761571Y-77691689D01*
X127800000Y-77498491D01*
X127800000Y-77301509D01*
X127761571Y-77108311D01*
X127686189Y-76926322D01*
X127576751Y-76762537D01*
X127437463Y-76623249D01*
X127273678Y-76513811D01*
X127091689Y-76438429D01*
X126898491Y-76400000D01*
X126701509Y-76400000D01*
X126508311Y-76438429D01*
X126326322Y-76513811D01*
X126162537Y-76623249D01*
X126023249Y-76762537D01*
X125913811Y-76926322D01*
X125838429Y-77108311D01*
X125800000Y-77301509D01*
X125800000Y-77498491D01*
X125838429Y-77691689D01*
X125913811Y-77873678D01*
X126023249Y-78037463D01*
X126075009Y-78089223D01*
X126075008Y-87610786D01*
X126023257Y-87662537D01*
X125913819Y-87826322D01*
X125838437Y-88008311D01*
X125800008Y-88201509D01*
X125800008Y-88398491D01*
X125838437Y-88591689D01*
X125844570Y-88606496D01*
X125822379Y-88608682D01*
X125709279Y-88642990D01*
X125605045Y-88698704D01*
X125513683Y-88773683D01*
X125438704Y-88865045D01*
X125382990Y-88969279D01*
X125348682Y-89082379D01*
X125347275Y-89096665D01*
X125174321Y-88923711D01*
X124936833Y-88765027D01*
X124672949Y-88655723D01*
X124392813Y-88600000D01*
X124107187Y-88600000D01*
X123827051Y-88655723D01*
X123563167Y-88765027D01*
X123325679Y-88923711D01*
X123123711Y-89125679D01*
X122980000Y-89340758D01*
X122836289Y-89125679D01*
X122634321Y-88923711D01*
X122396833Y-88765027D01*
X122132949Y-88655723D01*
X121852813Y-88600000D01*
X121567187Y-88600000D01*
X121287051Y-88655723D01*
X121023167Y-88765027D01*
X120785679Y-88923711D01*
X120583711Y-89125679D01*
X120440000Y-89340758D01*
X120296289Y-89125679D01*
X120094321Y-88923711D01*
X119856833Y-88765027D01*
X119592949Y-88655723D01*
X119312813Y-88600000D01*
X119027187Y-88600000D01*
X118747051Y-88655723D01*
X118483167Y-88765027D01*
X118245679Y-88923711D01*
X118043711Y-89125679D01*
X117885027Y-89363167D01*
X117775723Y-89627051D01*
X117720000Y-89907187D01*
X117315000Y-89907187D01*
X117315000Y-77449212D01*
X117366751Y-77397461D01*
X117476189Y-77233676D01*
X117551571Y-77051687D01*
X117590000Y-76858489D01*
X117590000Y-76661507D01*
X117551571Y-76468309D01*
X117476189Y-76286320D01*
X117366751Y-76122535D01*
X117227463Y-75983247D01*
X117063678Y-75873809D01*
X116881689Y-75798427D01*
X116688491Y-75759998D01*
X116491509Y-75759998D01*
X116298311Y-75798427D01*
X116116322Y-75873809D01*
X115952537Y-75983247D01*
X115813249Y-76122535D01*
X115703811Y-76286320D01*
X115641711Y-76436243D01*
X115585240Y-76425010D01*
X115388258Y-76425010D01*
X115195060Y-76463439D01*
X115013071Y-76538821D01*
X114849286Y-76648259D01*
X114709998Y-76787547D01*
X114600560Y-76951332D01*
X114525178Y-77133321D01*
X114486749Y-77326519D01*
X114486749Y-77523501D01*
X114525178Y-77716699D01*
X114600560Y-77898688D01*
X114709998Y-78062473D01*
X114725001Y-78077476D01*
X114725000Y-93740786D01*
X114673249Y-93792537D01*
X114563811Y-93956322D01*
X114488429Y-94138311D01*
X114450000Y-94331509D01*
X82839101Y-94331509D01*
X82866289Y-94304321D01*
X83024973Y-94066833D01*
X83134277Y-93802949D01*
X83190000Y-93522813D01*
X83190000Y-93237187D01*
X83134277Y-92957051D01*
X83024973Y-92693167D01*
X82866289Y-92455679D01*
X82693335Y-92282725D01*
X82707621Y-92281318D01*
X82820721Y-92247010D01*
X82924955Y-92191296D01*
X83016317Y-92116317D01*
X83091296Y-92024955D01*
X83147010Y-91920721D01*
X83181318Y-91807621D01*
X83185315Y-91767037D01*
X97470000Y-91767037D01*
X97470000Y-92032963D01*
X97521880Y-92293780D01*
X97623646Y-92539465D01*
X97771387Y-92760575D01*
X97959425Y-92948613D01*
X98180535Y-93096354D01*
X98426220Y-93198120D01*
X98687037Y-93250000D01*
X98952963Y-93250000D01*
X99213780Y-93198120D01*
X99459465Y-93096354D01*
X99680575Y-92948613D01*
X99868613Y-92760575D01*
X100016354Y-92539465D01*
X100118120Y-92293780D01*
X100170000Y-92032963D01*
X100170000Y-91767037D01*
X102350000Y-91767037D01*
X102350000Y-92032963D01*
X102401880Y-92293780D01*
X102503646Y-92539465D01*
X102651387Y-92760575D01*
X102839425Y-92948613D01*
X103060535Y-93096354D01*
X103306220Y-93198120D01*
X103567037Y-93250000D01*
X103832963Y-93250000D01*
X104093780Y-93198120D01*
X104339465Y-93096354D01*
X104560575Y-92948613D01*
X104748613Y-92760575D01*
X104896354Y-92539465D01*
X104998120Y-92293780D01*
X105050000Y-92032963D01*
X105050000Y-91767037D01*
X104998120Y-91506220D01*
X104896354Y-91260535D01*
X104748613Y-91039425D01*
X104560575Y-90851387D01*
X104339465Y-90703646D01*
X104093780Y-90601880D01*
X103832963Y-90550000D01*
X103567037Y-90550000D01*
X103306220Y-90601880D01*
X103060535Y-90703646D01*
X102839425Y-90851387D01*
X102651387Y-91039425D01*
X102503646Y-91260535D01*
X102401880Y-91506220D01*
X102350000Y-91767037D01*
X100170000Y-91767037D01*
X100118120Y-91506220D01*
X100016354Y-91260535D01*
X99868613Y-91039425D01*
X99680575Y-90851387D01*
X99459465Y-90703646D01*
X99213780Y-90601880D01*
X98952963Y-90550000D01*
X98687037Y-90550000D01*
X98426220Y-90601880D01*
X98180535Y-90703646D01*
X97959425Y-90851387D01*
X97771387Y-91039425D01*
X97623646Y-91260535D01*
X97521880Y-91506220D01*
X97470000Y-91767037D01*
X83185315Y-91767037D01*
X83192903Y-91690000D01*
X83192903Y-89990000D01*
X83181318Y-89872379D01*
X83147010Y-89759279D01*
X83091296Y-89655045D01*
X83016317Y-89563683D01*
X82924955Y-89488704D01*
X82820721Y-89432990D01*
X82707621Y-89398682D01*
X82590000Y-89387097D01*
X82465000Y-89387097D01*
X82465000Y-88060304D01*
X82725304Y-87800000D01*
X82798491Y-87800000D01*
X82991689Y-87761571D01*
X83173678Y-87686189D01*
X83337463Y-87576751D01*
X83476751Y-87437463D01*
X83586189Y-87273678D01*
X83661571Y-87091689D01*
X83700000Y-86898491D01*
X83700000Y-86701509D01*
X83661571Y-86508311D01*
X83586189Y-86326322D01*
X83476751Y-86162537D01*
X83337463Y-86023249D01*
X83173678Y-85913811D01*
X82991689Y-85838429D01*
X82798491Y-85800000D01*
X82601509Y-85800000D01*
X82408311Y-85838429D01*
X82226322Y-85913811D01*
X82150000Y-85964808D01*
X82073678Y-85913811D01*
X81891689Y-85838429D01*
X81698491Y-85800000D01*
X81501509Y-85800000D01*
X81308311Y-85838429D01*
X81126322Y-85913811D01*
X81050000Y-85964808D01*
X80973678Y-85913811D01*
X80791689Y-85838429D01*
X80598491Y-85800000D01*
X80401509Y-85800000D01*
X80208311Y-85838429D01*
X80026322Y-85913811D01*
X79957483Y-85959808D01*
X79873678Y-85903811D01*
X79691689Y-85828429D01*
X79506832Y-85791659D01*
X84550000Y-85791659D01*
X84550000Y-86008341D01*
X84592273Y-86220858D01*
X84675193Y-86421045D01*
X84771375Y-86564990D01*
X84763803Y-86576322D01*
X84688421Y-86758311D01*
X84649992Y-86951509D01*
X84649992Y-87148491D01*
X84688421Y-87341689D01*
X84763803Y-87523678D01*
X84873241Y-87687463D01*
X85012529Y-87826751D01*
X85176314Y-87936189D01*
X85358303Y-88011571D01*
X85551501Y-88050000D01*
X85621859Y-88050000D01*
X86060675Y-88488817D01*
X86083438Y-88516554D01*
X86194139Y-88607403D01*
X86284539Y-88655723D01*
X86320435Y-88674910D01*
X86457474Y-88716480D01*
X86599992Y-88730517D01*
X86635700Y-88727000D01*
X89612786Y-88727000D01*
X89662537Y-88776751D01*
X89826322Y-88886189D01*
X90008311Y-88961571D01*
X90201509Y-89000000D01*
X90398491Y-89000000D01*
X90591689Y-88961571D01*
X90773678Y-88886189D01*
X90937463Y-88776751D01*
X91076751Y-88637463D01*
X91186189Y-88473678D01*
X91261571Y-88291689D01*
X91300000Y-88098491D01*
X91300000Y-87951509D01*
X93500000Y-87951509D01*
X93500000Y-88148491D01*
X93538429Y-88341689D01*
X93613811Y-88523678D01*
X93723249Y-88687463D01*
X93862537Y-88826751D01*
X94026322Y-88936189D01*
X94208311Y-89011571D01*
X94401509Y-89050000D01*
X94598491Y-89050000D01*
X94791689Y-89011571D01*
X94973678Y-88936189D01*
X95137463Y-88826751D01*
X95187214Y-88777000D01*
X96364292Y-88777000D01*
X96400000Y-88780517D01*
X96542517Y-88766480D01*
X96596845Y-88750000D01*
X96679557Y-88724910D01*
X96805853Y-88657403D01*
X96916554Y-88566554D01*
X96939325Y-88538807D01*
X97453133Y-88025000D01*
X97523491Y-88025000D01*
X97716689Y-87986571D01*
X97898678Y-87911189D01*
X98062463Y-87801751D01*
X98201751Y-87662463D01*
X98311189Y-87498678D01*
X98386571Y-87316689D01*
X98425000Y-87123491D01*
X98425000Y-86926509D01*
X98386571Y-86733311D01*
X98311189Y-86551322D01*
X98201751Y-86387537D01*
X98062463Y-86248249D01*
X97898678Y-86138811D01*
X97716689Y-86063429D01*
X97523491Y-86025000D01*
X97326509Y-86025000D01*
X97133311Y-86063429D01*
X96951322Y-86138811D01*
X96787537Y-86248249D01*
X96648249Y-86387537D01*
X96538811Y-86551322D01*
X96463429Y-86733311D01*
X96425000Y-86926509D01*
X96425000Y-86996867D01*
X96098868Y-87323000D01*
X95187214Y-87323000D01*
X95137463Y-87273249D01*
X94973678Y-87163811D01*
X94791689Y-87088429D01*
X94598491Y-87050000D01*
X94401509Y-87050000D01*
X94208311Y-87088429D01*
X94026322Y-87163811D01*
X93862537Y-87273249D01*
X93723249Y-87412537D01*
X93613811Y-87576322D01*
X93538429Y-87758311D01*
X93500000Y-87951509D01*
X91300000Y-87951509D01*
X91300000Y-87930171D01*
X91428105Y-87930171D01*
X91469846Y-87934282D01*
X91511587Y-87930171D01*
X91511595Y-87930171D01*
X91636475Y-87917871D01*
X91796701Y-87869268D01*
X91944365Y-87790339D01*
X92073794Y-87684119D01*
X92100412Y-87651685D01*
X95732133Y-84019965D01*
X95783232Y-84024998D01*
X95783239Y-84024998D01*
X95824980Y-84029109D01*
X95866721Y-84024998D01*
X96217393Y-84024998D01*
X96221818Y-84029423D01*
X96401982Y-84149805D01*
X96602169Y-84232725D01*
X96814686Y-84274998D01*
X97031368Y-84274998D01*
X97243885Y-84232725D01*
X97444072Y-84149805D01*
X97624236Y-84029423D01*
X97777452Y-83876207D01*
X97897834Y-83696043D01*
X97980754Y-83495856D01*
X98023027Y-83283339D01*
X98023027Y-83066657D01*
X97980754Y-82854140D01*
X97897834Y-82653953D01*
X97777452Y-82473789D01*
X97624236Y-82320573D01*
X97444072Y-82200191D01*
X97243885Y-82117271D01*
X97031368Y-82074998D01*
X96814686Y-82074998D01*
X96602169Y-82117271D01*
X96450000Y-82180301D01*
X96450000Y-79241744D01*
X96454111Y-79200003D01*
X96450000Y-79158262D01*
X96450000Y-79158255D01*
X96437700Y-79033375D01*
X96401307Y-78913399D01*
X96389097Y-78873149D01*
X96366386Y-78830661D01*
X96310168Y-78725485D01*
X96203948Y-78596056D01*
X96171766Y-78569645D01*
X97600000Y-78569645D01*
X97600000Y-78766627D01*
X97638429Y-78959825D01*
X97713811Y-79141814D01*
X97823249Y-79305599D01*
X97962537Y-79444887D01*
X98126322Y-79554325D01*
X98308311Y-79629707D01*
X98501509Y-79668136D01*
X98525000Y-79668136D01*
X98525001Y-84210785D01*
X98473249Y-84262537D01*
X98363811Y-84426322D01*
X98288429Y-84608311D01*
X98250000Y-84801509D01*
X98250000Y-84998491D01*
X98288429Y-85191689D01*
X98363811Y-85373678D01*
X98473249Y-85537463D01*
X98612537Y-85676751D01*
X98776322Y-85786189D01*
X98958311Y-85861571D01*
X99129256Y-85895574D01*
X99138429Y-85941689D01*
X99213811Y-86123678D01*
X99323249Y-86287463D01*
X99462537Y-86426751D01*
X99626322Y-86536189D01*
X99808311Y-86611571D01*
X100001509Y-86650000D01*
X100198491Y-86650000D01*
X100391689Y-86611571D01*
X100573678Y-86536189D01*
X100587585Y-86526897D01*
X100676322Y-86586189D01*
X100858311Y-86661571D01*
X101051509Y-86700000D01*
X101248491Y-86700000D01*
X101441689Y-86661571D01*
X101623678Y-86586189D01*
X101787463Y-86476751D01*
X101926751Y-86337463D01*
X102036189Y-86173678D01*
X102111571Y-85991689D01*
X102150000Y-85798491D01*
X102150000Y-85601509D01*
X102111571Y-85408311D01*
X102036189Y-85226322D01*
X101926751Y-85062537D01*
X101877000Y-85012786D01*
X101877000Y-81987214D01*
X101976751Y-81887463D01*
X102086189Y-81723678D01*
X102161571Y-81541689D01*
X102200000Y-81348491D01*
X102200000Y-81151509D01*
X102161571Y-80958311D01*
X102086189Y-80776322D01*
X101976751Y-80612537D01*
X101837463Y-80473249D01*
X101673678Y-80363811D01*
X101491689Y-80288429D01*
X101298491Y-80250000D01*
X101101509Y-80250000D01*
X101100000Y-80250300D01*
X101100000Y-80201509D01*
X101061571Y-80008311D01*
X100986189Y-79826322D01*
X100876751Y-79662537D01*
X100737463Y-79523249D01*
X100573678Y-79413811D01*
X100391689Y-79338429D01*
X100198491Y-79300000D01*
X100001509Y-79300000D01*
X99977196Y-79304836D01*
X99975000Y-79282539D01*
X99975000Y-79282529D01*
X99964509Y-79176011D01*
X99923053Y-79039348D01*
X99855731Y-78913399D01*
X99787830Y-78830661D01*
X99787823Y-78830654D01*
X99765131Y-78803004D01*
X99737482Y-78780313D01*
X99600000Y-78642831D01*
X99600000Y-78569645D01*
X99561571Y-78376447D01*
X99486189Y-78194458D01*
X99376751Y-78030673D01*
X99237463Y-77891385D01*
X99073678Y-77781947D01*
X98891689Y-77706565D01*
X98698491Y-77668136D01*
X98501509Y-77668136D01*
X98308311Y-77706565D01*
X98126322Y-77781947D01*
X97962537Y-77891385D01*
X97823249Y-78030673D01*
X97713811Y-78194458D01*
X97638429Y-78376447D01*
X97600000Y-78569645D01*
X96171766Y-78569645D01*
X96171519Y-78569443D01*
X94749996Y-77147920D01*
X94749996Y-77141659D01*
X94707723Y-76929142D01*
X94624803Y-76728955D01*
X94504421Y-76548791D01*
X94351205Y-76395575D01*
X94171041Y-76275193D01*
X93970854Y-76192273D01*
X93758337Y-76150000D01*
X93541655Y-76150000D01*
X93329138Y-76192273D01*
X93128951Y-76275193D01*
X92948787Y-76395575D01*
X92795571Y-76548791D01*
X92675189Y-76728955D01*
X92592269Y-76929142D01*
X92549996Y-77141659D01*
X92549996Y-77358341D01*
X92592269Y-77570858D01*
X92675189Y-77771045D01*
X92795571Y-77951209D01*
X92948787Y-78104425D01*
X93128951Y-78224807D01*
X93329138Y-78307727D01*
X93541655Y-78350000D01*
X93547916Y-78350000D01*
X94750001Y-79552086D01*
X94750000Y-82597936D01*
X91117766Y-86230171D01*
X87728614Y-86230171D01*
X87724189Y-86225746D01*
X87544025Y-86105364D01*
X87343838Y-86022444D01*
X87131321Y-85980171D01*
X87125061Y-85980171D01*
X86696198Y-85551309D01*
X86624807Y-85378955D01*
X86504425Y-85198791D01*
X86351209Y-85045575D01*
X86171045Y-84925193D01*
X85970858Y-84842273D01*
X85758341Y-84800000D01*
X85541659Y-84800000D01*
X85329142Y-84842273D01*
X85128955Y-84925193D01*
X84948791Y-85045575D01*
X84795575Y-85198791D01*
X84675193Y-85378955D01*
X84592273Y-85579142D01*
X84550000Y-85791659D01*
X79506832Y-85791659D01*
X79498491Y-85790000D01*
X79301509Y-85790000D01*
X79108311Y-85828429D01*
X78926322Y-85903811D01*
X78762537Y-86013249D01*
X78623249Y-86152537D01*
X78513811Y-86316322D01*
X78438429Y-86498311D01*
X78400000Y-86691509D01*
X78400000Y-86764695D01*
X77412523Y-87752173D01*
X77384869Y-87774868D01*
X77362173Y-87802523D01*
X77362170Y-87802526D01*
X77294269Y-87885264D01*
X77226947Y-88011213D01*
X77200472Y-88098491D01*
X77187118Y-88142517D01*
X77185492Y-88147876D01*
X77171494Y-88290000D01*
X77175001Y-88325607D01*
X77175001Y-89483852D01*
X77082949Y-89445723D01*
X76802813Y-89390000D01*
X76517187Y-89390000D01*
X76237051Y-89445723D01*
X75973167Y-89555027D01*
X75735679Y-89713711D01*
X75533711Y-89915679D01*
X75375027Y-90153167D01*
X75265723Y-90417051D01*
X75210000Y-90697187D01*
X57007453Y-90697187D01*
X56746183Y-90545949D01*
X55292132Y-92000000D01*
X54867868Y-92000000D01*
X53413817Y-90545949D01*
X53085253Y-90736141D01*
X52877015Y-91149582D01*
X52753436Y-91595703D01*
X52719266Y-92057362D01*
X40625000Y-92057362D01*
X40625000Y-90249940D01*
X47647037Y-90249940D01*
X47649940Y-91700000D01*
X47799940Y-91850000D01*
X49850000Y-91850000D01*
X49850000Y-89799940D01*
X50150000Y-89799940D01*
X50150000Y-91850000D01*
X52200060Y-91850000D01*
X52350060Y-91700000D01*
X52352795Y-90333817D01*
X53625949Y-90333817D01*
X55080000Y-91787868D01*
X56534051Y-90333817D01*
X56343859Y-90005253D01*
X55930418Y-89797015D01*
X55484297Y-89673436D01*
X55022638Y-89639266D01*
X54563184Y-89695818D01*
X54123591Y-89840918D01*
X53816141Y-90005253D01*
X53625949Y-90333817D01*
X52352795Y-90333817D01*
X52352963Y-90249940D01*
X52341378Y-90132319D01*
X52307070Y-90019219D01*
X52251356Y-89914985D01*
X52176377Y-89823623D01*
X52085015Y-89748644D01*
X51980781Y-89692930D01*
X51867681Y-89658622D01*
X51750060Y-89647037D01*
X50300000Y-89649940D01*
X50150000Y-89799940D01*
X49850000Y-89799940D01*
X49700000Y-89649940D01*
X48249940Y-89647037D01*
X48132319Y-89658622D01*
X48019219Y-89692930D01*
X47914985Y-89748644D01*
X47823623Y-89823623D01*
X47748644Y-89914985D01*
X47692930Y-90019219D01*
X47658622Y-90132319D01*
X47647037Y-90249940D01*
X40625000Y-90249940D01*
X40625000Y-76827489D01*
X52600000Y-76827489D01*
X52600000Y-77152511D01*
X52663408Y-77471287D01*
X52787789Y-77771568D01*
X52968361Y-78041814D01*
X53198186Y-78271639D01*
X53468432Y-78452211D01*
X53768713Y-78576592D01*
X54087489Y-78640000D01*
X54412511Y-78640000D01*
X54731287Y-78576592D01*
X55031568Y-78452211D01*
X55301814Y-78271639D01*
X55531639Y-78041814D01*
X55712211Y-77771568D01*
X55836592Y-77471287D01*
X55900000Y-77152511D01*
X55900000Y-76827489D01*
X55836592Y-76508713D01*
X55712211Y-76208432D01*
X55556237Y-75975000D01*
X55645275Y-75975000D01*
X55930242Y-75918317D01*
X56198675Y-75807128D01*
X56440258Y-75645707D01*
X56543926Y-75542039D01*
X59170094Y-75542039D01*
X59254647Y-75781085D01*
X59518897Y-75901881D01*
X59801635Y-75968803D01*
X59954225Y-75974308D01*
X59797789Y-76208432D01*
X59673408Y-76508713D01*
X59610000Y-76827489D01*
X59610000Y-77152511D01*
X59673408Y-77471287D01*
X59797789Y-77771568D01*
X59978361Y-78041814D01*
X60208186Y-78271639D01*
X60478432Y-78452211D01*
X60778713Y-78576592D01*
X61097489Y-78640000D01*
X61422511Y-78640000D01*
X61741287Y-78576592D01*
X62041568Y-78452211D01*
X62311814Y-78271639D01*
X62541639Y-78041814D01*
X62722211Y-77771568D01*
X62846592Y-77471287D01*
X62870417Y-77351509D01*
X82050000Y-77351509D01*
X82050000Y-77548491D01*
X82088429Y-77741689D01*
X82163811Y-77923678D01*
X82273249Y-78087463D01*
X82412537Y-78226751D01*
X82576322Y-78336189D01*
X82758311Y-78411571D01*
X82951509Y-78450000D01*
X83148491Y-78450000D01*
X83341689Y-78411571D01*
X83523678Y-78336189D01*
X83687463Y-78226751D01*
X83739214Y-78175000D01*
X84110786Y-78175000D01*
X84162537Y-78226751D01*
X84326322Y-78336189D01*
X84508311Y-78411571D01*
X84701509Y-78450000D01*
X84898491Y-78450000D01*
X85091689Y-78411571D01*
X85273678Y-78336189D01*
X85437463Y-78226751D01*
X85576751Y-78087463D01*
X85686189Y-77923678D01*
X85761571Y-77741689D01*
X85800000Y-77548491D01*
X85800000Y-77351509D01*
X85761571Y-77158311D01*
X85686189Y-76976322D01*
X85576751Y-76812537D01*
X85437463Y-76673249D01*
X85273678Y-76563811D01*
X85091689Y-76488429D01*
X84898491Y-76450000D01*
X84701509Y-76450000D01*
X84508311Y-76488429D01*
X84326322Y-76563811D01*
X84162537Y-76673249D01*
X84110786Y-76725000D01*
X83739214Y-76725000D01*
X83687463Y-76673249D01*
X83523678Y-76563811D01*
X83341689Y-76488429D01*
X83148491Y-76450000D01*
X82951509Y-76450000D01*
X82758311Y-76488429D01*
X82576322Y-76563811D01*
X82412537Y-76673249D01*
X82273249Y-76812537D01*
X82163811Y-76976322D01*
X82088429Y-77158311D01*
X82050000Y-77351509D01*
X62870417Y-77351509D01*
X62910000Y-77152511D01*
X62910000Y-76827489D01*
X62846592Y-76508713D01*
X62722211Y-76208432D01*
X62541639Y-75938186D01*
X62311814Y-75708361D01*
X62041568Y-75527789D01*
X61741287Y-75403408D01*
X61422511Y-75340000D01*
X61097489Y-75340000D01*
X61059660Y-75347525D01*
X61042040Y-75329905D01*
X61281085Y-75245353D01*
X61401881Y-74981103D01*
X61468803Y-74698365D01*
X61479279Y-74408005D01*
X61432908Y-74121179D01*
X61331471Y-73848912D01*
X61281085Y-73754647D01*
X61250764Y-73743922D01*
X76400000Y-73743922D01*
X76400000Y-74256078D01*
X76499917Y-74758392D01*
X76695910Y-75231562D01*
X76980448Y-75657403D01*
X77342597Y-76019552D01*
X77768438Y-76304090D01*
X78241608Y-76500083D01*
X78743922Y-76600000D01*
X79256078Y-76600000D01*
X79758392Y-76500083D01*
X80231562Y-76304090D01*
X80657403Y-76019552D01*
X81019552Y-75657403D01*
X81304090Y-75231562D01*
X81500083Y-74758392D01*
X81600000Y-74256078D01*
X81600000Y-73743922D01*
X81500083Y-73241608D01*
X81304090Y-72768438D01*
X81259370Y-72701509D01*
X87200000Y-72701509D01*
X87200000Y-72898491D01*
X87238429Y-73091689D01*
X87313811Y-73273678D01*
X87423249Y-73437463D01*
X87562537Y-73576751D01*
X87726322Y-73686189D01*
X87908311Y-73761571D01*
X88101509Y-73800000D01*
X88298491Y-73800000D01*
X88491689Y-73761571D01*
X88673678Y-73686189D01*
X88837463Y-73576751D01*
X88976751Y-73437463D01*
X89086189Y-73273678D01*
X89161571Y-73091689D01*
X89200000Y-72898491D01*
X89200000Y-72851509D01*
X90200000Y-72851509D01*
X90200000Y-73048491D01*
X90238429Y-73241689D01*
X90313811Y-73423678D01*
X90423249Y-73587463D01*
X90562537Y-73726751D01*
X90726322Y-73836189D01*
X90908311Y-73911571D01*
X91101509Y-73950000D01*
X91298491Y-73950000D01*
X91491689Y-73911571D01*
X91673678Y-73836189D01*
X91837463Y-73726751D01*
X91885533Y-73678681D01*
X91889856Y-73700415D01*
X91962134Y-73874910D01*
X91919836Y-73938213D01*
X91844454Y-74120202D01*
X91806025Y-74313400D01*
X91806025Y-74510382D01*
X91844454Y-74703580D01*
X91919836Y-74885569D01*
X92029274Y-75049354D01*
X92168562Y-75188642D01*
X92332347Y-75298080D01*
X92514336Y-75373462D01*
X92707534Y-75411891D01*
X92904516Y-75411891D01*
X93097714Y-75373462D01*
X93279703Y-75298080D01*
X93443488Y-75188642D01*
X93495239Y-75136891D01*
X94602512Y-75136891D01*
X94638109Y-75140397D01*
X94673706Y-75136891D01*
X94673716Y-75136891D01*
X94780234Y-75126400D01*
X94916897Y-75084944D01*
X95042846Y-75017622D01*
X95153241Y-74927023D01*
X95175941Y-74899363D01*
X95489043Y-74586261D01*
X95523249Y-74637453D01*
X95662537Y-74776741D01*
X95826322Y-74886179D01*
X96008311Y-74961561D01*
X96201509Y-74999990D01*
X96274695Y-74999990D01*
X96375001Y-75100295D01*
X96375001Y-75210785D01*
X96323249Y-75262537D01*
X96213811Y-75426322D01*
X96138429Y-75608311D01*
X96100000Y-75801509D01*
X96100000Y-75998491D01*
X96138429Y-76191689D01*
X96213811Y-76373678D01*
X96323249Y-76537463D01*
X96462537Y-76676751D01*
X96626322Y-76786189D01*
X96808311Y-76861571D01*
X97001509Y-76900000D01*
X97198491Y-76900000D01*
X97391689Y-76861571D01*
X97573678Y-76786189D01*
X97737463Y-76676751D01*
X97876751Y-76537463D01*
X97986189Y-76373678D01*
X98061571Y-76191689D01*
X98100000Y-75998491D01*
X98100000Y-75801509D01*
X98061571Y-75608311D01*
X97986189Y-75426322D01*
X97940113Y-75357364D01*
X99100008Y-76517260D01*
X99100008Y-76590446D01*
X99138437Y-76783644D01*
X99213819Y-76965633D01*
X99323257Y-77129418D01*
X99462545Y-77268706D01*
X99626330Y-77378144D01*
X99769130Y-77437294D01*
X99802653Y-77605826D01*
X99878035Y-77787815D01*
X99987473Y-77951600D01*
X100126761Y-78090888D01*
X100290546Y-78200326D01*
X100472535Y-78275708D01*
X100665733Y-78314137D01*
X100862715Y-78314137D01*
X101055913Y-78275708D01*
X101237902Y-78200326D01*
X101401687Y-78090888D01*
X101501696Y-77990880D01*
X101637567Y-78126751D01*
X101801352Y-78236189D01*
X101983341Y-78311571D01*
X102176539Y-78350000D01*
X102373521Y-78350000D01*
X102566719Y-78311571D01*
X102748708Y-78236189D01*
X102912493Y-78126751D01*
X103051781Y-77987463D01*
X103161219Y-77823678D01*
X103236601Y-77641689D01*
X103275030Y-77448491D01*
X103275030Y-77251509D01*
X103236601Y-77058311D01*
X103161219Y-76876322D01*
X103051781Y-76712537D01*
X103000030Y-76660786D01*
X103000030Y-75110626D01*
X103003536Y-75075029D01*
X103000030Y-75039432D01*
X103000030Y-75039423D01*
X102989539Y-74932905D01*
X102948083Y-74796242D01*
X102880761Y-74670293D01*
X102812860Y-74587555D01*
X102812853Y-74587548D01*
X102790161Y-74559898D01*
X102762512Y-74537207D01*
X99375305Y-71150000D01*
X180547097Y-71150000D01*
X180547097Y-72850000D01*
X180558682Y-72967621D01*
X180592990Y-73080721D01*
X180648704Y-73184955D01*
X180723683Y-73276317D01*
X180815045Y-73351296D01*
X180919279Y-73407010D01*
X181032379Y-73441318D01*
X181046665Y-73442725D01*
X180873711Y-73615679D01*
X180715027Y-73853167D01*
X180605723Y-74117051D01*
X180550000Y-74397187D01*
X180550000Y-74682813D01*
X180605723Y-74962949D01*
X180715027Y-75226833D01*
X180873711Y-75464321D01*
X181075679Y-75666289D01*
X181313167Y-75824973D01*
X181577051Y-75934277D01*
X181857187Y-75990000D01*
X182142813Y-75990000D01*
X182422949Y-75934277D01*
X182686833Y-75824973D01*
X182924321Y-75666289D01*
X183126289Y-75464321D01*
X183284973Y-75226833D01*
X183394277Y-74962949D01*
X183450000Y-74682813D01*
X183450000Y-74397187D01*
X183394277Y-74117051D01*
X183284973Y-73853167D01*
X183126289Y-73615679D01*
X182953335Y-73442725D01*
X182967621Y-73441318D01*
X183080721Y-73407010D01*
X183184955Y-73351296D01*
X183276317Y-73276317D01*
X183351296Y-73184955D01*
X183407010Y-73080721D01*
X183441318Y-72967621D01*
X183452903Y-72850000D01*
X183452903Y-71150000D01*
X183441318Y-71032379D01*
X183407010Y-70919279D01*
X183351296Y-70815045D01*
X183276317Y-70723683D01*
X183184955Y-70648704D01*
X183080721Y-70592990D01*
X182967621Y-70558682D01*
X182850000Y-70547097D01*
X181150000Y-70547097D01*
X181032379Y-70558682D01*
X180919279Y-70592990D01*
X180815045Y-70648704D01*
X180723683Y-70723683D01*
X180648704Y-70815045D01*
X180592990Y-70919279D01*
X180558682Y-71032379D01*
X180547097Y-71150000D01*
X99375305Y-71150000D01*
X98837832Y-70612528D01*
X98815132Y-70584868D01*
X98704737Y-70494269D01*
X98578788Y-70426947D01*
X98442125Y-70385491D01*
X98335607Y-70375000D01*
X98335597Y-70375000D01*
X98300000Y-70371494D01*
X98264403Y-70375000D01*
X94685596Y-70375000D01*
X94649999Y-70371494D01*
X94614402Y-70375000D01*
X94614393Y-70375000D01*
X94507875Y-70385491D01*
X94379869Y-70424321D01*
X94371212Y-70426947D01*
X94245263Y-70494269D01*
X94162525Y-70562170D01*
X94162523Y-70562172D01*
X94134868Y-70584868D01*
X94112172Y-70612523D01*
X93599696Y-71125000D01*
X91735597Y-71125000D01*
X91700000Y-71121494D01*
X91664403Y-71125000D01*
X91664393Y-71125000D01*
X91557875Y-71135491D01*
X91421212Y-71176947D01*
X91295263Y-71244269D01*
X91212525Y-71312170D01*
X91212523Y-71312172D01*
X91184868Y-71334868D01*
X91162172Y-71362523D01*
X90712523Y-71812173D01*
X90684869Y-71834868D01*
X90662173Y-71862523D01*
X90662170Y-71862526D01*
X90594269Y-71945264D01*
X90569221Y-71992125D01*
X90526947Y-72071212D01*
X90485491Y-72207875D01*
X90480857Y-72254929D01*
X90423249Y-72312537D01*
X90313811Y-72476322D01*
X90238429Y-72658311D01*
X90200000Y-72851509D01*
X89200000Y-72851509D01*
X89200000Y-72825304D01*
X90587477Y-71437828D01*
X90615132Y-71415132D01*
X90705731Y-71304737D01*
X90773053Y-71178788D01*
X90814509Y-71042125D01*
X90825000Y-70935607D01*
X90825000Y-70935597D01*
X90828506Y-70900000D01*
X90825000Y-70864403D01*
X90825000Y-70702903D01*
X90950000Y-70702903D01*
X91067621Y-70691318D01*
X91180721Y-70657010D01*
X91284955Y-70601296D01*
X91376317Y-70526317D01*
X91451296Y-70434955D01*
X91507010Y-70330721D01*
X91541318Y-70217621D01*
X91552903Y-70100000D01*
X91552903Y-68400000D01*
X91541318Y-68282379D01*
X91507010Y-68169279D01*
X91451296Y-68065045D01*
X91376317Y-67973683D01*
X91284955Y-67898704D01*
X91180721Y-67842990D01*
X91067621Y-67808682D01*
X90950000Y-67797097D01*
X89250000Y-67797097D01*
X89132379Y-67808682D01*
X89019279Y-67842990D01*
X88915045Y-67898704D01*
X88823683Y-67973683D01*
X88748704Y-68065045D01*
X88692990Y-68169279D01*
X88658682Y-68282379D01*
X88656024Y-68309368D01*
X88517240Y-68160867D01*
X88286368Y-67995046D01*
X88027582Y-67877452D01*
X87933766Y-67849000D01*
X87710000Y-67958683D01*
X87710000Y-69100000D01*
X87730000Y-69100000D01*
X87730000Y-69400000D01*
X87710000Y-69400000D01*
X87710000Y-70541317D01*
X87933766Y-70651000D01*
X88027582Y-70622548D01*
X88286368Y-70504954D01*
X88517240Y-70339133D01*
X88656024Y-70190632D01*
X88658682Y-70217621D01*
X88692990Y-70330721D01*
X88748704Y-70434955D01*
X88823683Y-70526317D01*
X88915045Y-70601296D01*
X89019279Y-70657010D01*
X89132379Y-70691318D01*
X89250000Y-70702903D01*
X89271792Y-70702903D01*
X88174696Y-71800000D01*
X88101509Y-71800000D01*
X87908311Y-71838429D01*
X87726322Y-71913811D01*
X87562537Y-72023249D01*
X87423249Y-72162537D01*
X87313811Y-72326322D01*
X87238429Y-72508311D01*
X87200000Y-72701509D01*
X81259370Y-72701509D01*
X81019552Y-72342597D01*
X80657403Y-71980448D01*
X80231562Y-71695910D01*
X79758392Y-71499917D01*
X79256078Y-71400000D01*
X78743922Y-71400000D01*
X78241608Y-71499917D01*
X77768438Y-71695910D01*
X77342597Y-71980448D01*
X76980448Y-72342597D01*
X76695910Y-72768438D01*
X76499917Y-73241608D01*
X76400000Y-73743922D01*
X61250764Y-73743922D01*
X61042039Y-73670094D01*
X60212132Y-74500000D01*
X60226275Y-74514142D01*
X60014142Y-74726275D01*
X60000000Y-74712132D01*
X59170094Y-75542039D01*
X56543926Y-75542039D01*
X56645707Y-75440258D01*
X56807128Y-75198675D01*
X56918317Y-74930242D01*
X56975000Y-74645275D01*
X56975000Y-74591995D01*
X58520721Y-74591995D01*
X58567092Y-74878821D01*
X58668529Y-75151088D01*
X58718915Y-75245353D01*
X58957961Y-75329906D01*
X59787868Y-74500000D01*
X58957961Y-73670094D01*
X58718915Y-73754647D01*
X58598119Y-74018897D01*
X58531197Y-74301635D01*
X58520721Y-74591995D01*
X56975000Y-74591995D01*
X56975000Y-74354725D01*
X56918317Y-74069758D01*
X56807128Y-73801325D01*
X56645707Y-73559742D01*
X56543926Y-73457961D01*
X59170094Y-73457961D01*
X60000000Y-74287868D01*
X60829906Y-73457961D01*
X60745353Y-73218915D01*
X60481103Y-73098119D01*
X60198365Y-73031197D01*
X59908005Y-73020721D01*
X59621179Y-73067092D01*
X59348912Y-73168529D01*
X59254647Y-73218915D01*
X59170094Y-73457961D01*
X56543926Y-73457961D01*
X56440258Y-73354293D01*
X56198675Y-73192872D01*
X55930242Y-73081683D01*
X55645275Y-73025000D01*
X55354725Y-73025000D01*
X55069758Y-73081683D01*
X54801325Y-73192872D01*
X54559742Y-73354293D01*
X54354293Y-73559742D01*
X54192872Y-73801325D01*
X54081683Y-74069758D01*
X54025000Y-74354725D01*
X54025000Y-74645275D01*
X54081683Y-74930242D01*
X54192872Y-75198675D01*
X54287303Y-75340000D01*
X54087489Y-75340000D01*
X53768713Y-75403408D01*
X53468432Y-75527789D01*
X53198186Y-75708361D01*
X52968361Y-75938186D01*
X52787789Y-76208432D01*
X52663408Y-76508713D01*
X52600000Y-76827489D01*
X40625000Y-76827489D01*
X40625000Y-73743922D01*
X46400000Y-73743922D01*
X46400000Y-74256078D01*
X46499917Y-74758392D01*
X46695910Y-75231562D01*
X46980448Y-75657403D01*
X47342597Y-76019552D01*
X47768438Y-76304090D01*
X48241608Y-76500083D01*
X48743922Y-76600000D01*
X49256078Y-76600000D01*
X49758392Y-76500083D01*
X50231562Y-76304090D01*
X50657403Y-76019552D01*
X51019552Y-75657403D01*
X51304090Y-75231562D01*
X51500083Y-74758392D01*
X51600000Y-74256078D01*
X51600000Y-73743922D01*
X51500083Y-73241608D01*
X51304090Y-72768438D01*
X51019552Y-72342597D01*
X50657403Y-71980448D01*
X50231562Y-71695910D01*
X49758392Y-71499917D01*
X49256078Y-71400000D01*
X48743922Y-71400000D01*
X48241608Y-71499917D01*
X47768438Y-71695910D01*
X47342597Y-71980448D01*
X46980448Y-72342597D01*
X46695910Y-72768438D01*
X46499917Y-73241608D01*
X46400000Y-73743922D01*
X40625000Y-73743922D01*
X40625000Y-67711161D01*
X49800971Y-67711161D01*
X50201379Y-68218977D01*
X50912556Y-68601721D01*
X51684738Y-68838367D01*
X52488249Y-68919820D01*
X53292212Y-68842952D01*
X54065731Y-68610714D01*
X54779079Y-68232034D01*
X54798621Y-68218977D01*
X55199029Y-67711161D01*
X55080854Y-67592986D01*
X64045954Y-67592986D01*
X64092033Y-67874870D01*
X64192220Y-68142347D01*
X64232033Y-68216830D01*
X64223683Y-68223683D01*
X64148704Y-68315045D01*
X64092990Y-68419279D01*
X64058682Y-68532379D01*
X64047097Y-68650000D01*
X64047097Y-70350000D01*
X64058682Y-70467621D01*
X64092990Y-70580721D01*
X64148704Y-70684955D01*
X64223683Y-70776317D01*
X64315045Y-70851296D01*
X64419279Y-70907010D01*
X64532379Y-70941318D01*
X64650000Y-70952903D01*
X66350000Y-70952903D01*
X66467621Y-70941318D01*
X66580721Y-70907010D01*
X66684955Y-70851296D01*
X66776317Y-70776317D01*
X66851296Y-70684955D01*
X66907010Y-70580721D01*
X66935661Y-70486271D01*
X67075679Y-70626289D01*
X67313167Y-70784973D01*
X67577051Y-70894277D01*
X67857187Y-70950000D01*
X68142813Y-70950000D01*
X68422949Y-70894277D01*
X68686833Y-70784973D01*
X68924321Y-70626289D01*
X69126289Y-70424321D01*
X69284973Y-70186833D01*
X69394277Y-69922949D01*
X69450000Y-69642813D01*
X69450000Y-69623767D01*
X86158995Y-69623767D01*
X86258833Y-69889908D01*
X86408674Y-70131457D01*
X86602760Y-70339133D01*
X86833632Y-70504954D01*
X87092418Y-70622548D01*
X87186234Y-70651000D01*
X87410000Y-70541317D01*
X87410000Y-69400000D01*
X86267774Y-69400000D01*
X86158995Y-69623767D01*
X69450000Y-69623767D01*
X69450000Y-69357187D01*
X69394277Y-69077051D01*
X69284973Y-68813167D01*
X69126289Y-68575679D01*
X69050610Y-68500000D01*
X69126289Y-68424321D01*
X69284973Y-68186833D01*
X69394277Y-67922949D01*
X69436404Y-67711161D01*
X74000971Y-67711161D01*
X74401379Y-68218977D01*
X75112556Y-68601721D01*
X75884738Y-68838367D01*
X76688249Y-68919820D01*
X77144125Y-68876233D01*
X86158995Y-68876233D01*
X86267774Y-69100000D01*
X87410000Y-69100000D01*
X87410000Y-67958683D01*
X87186234Y-67849000D01*
X87092418Y-67877452D01*
X86833632Y-67995046D01*
X86602760Y-68160867D01*
X86408674Y-68368543D01*
X86258833Y-68610092D01*
X86158995Y-68876233D01*
X77144125Y-68876233D01*
X77492212Y-68842952D01*
X78265731Y-68610714D01*
X78979079Y-68232034D01*
X78998621Y-68218977D01*
X79399029Y-67711161D01*
X76700000Y-65012132D01*
X74000971Y-67711161D01*
X69436404Y-67711161D01*
X69450000Y-67642813D01*
X69450000Y-67357187D01*
X69394277Y-67077051D01*
X69284973Y-66813167D01*
X69126289Y-66575679D01*
X68924321Y-66373711D01*
X68686833Y-66215027D01*
X68422949Y-66105723D01*
X68142813Y-66050000D01*
X67857187Y-66050000D01*
X67577051Y-66105723D01*
X67313167Y-66215027D01*
X67075679Y-66373711D01*
X66873711Y-66575679D01*
X66747289Y-66764884D01*
X66524159Y-66687973D01*
X65712132Y-67500000D01*
X65726275Y-67514143D01*
X65514143Y-67726275D01*
X65500000Y-67712132D01*
X65485858Y-67726275D01*
X65273726Y-67514143D01*
X65287868Y-67500000D01*
X64475841Y-66687973D01*
X64239345Y-66769491D01*
X64121052Y-67029469D01*
X64055752Y-67307529D01*
X64045954Y-67592986D01*
X55080854Y-67592986D01*
X52500000Y-65012132D01*
X49800971Y-67711161D01*
X40625000Y-67711161D01*
X40625000Y-64788249D01*
X48380180Y-64788249D01*
X48457048Y-65592212D01*
X48689286Y-66365731D01*
X49067966Y-67079079D01*
X49081023Y-67098621D01*
X49588839Y-67499029D01*
X52287868Y-64800000D01*
X52712132Y-64800000D01*
X55411161Y-67499029D01*
X55918977Y-67098621D01*
X56264749Y-66456140D01*
X59275992Y-66456140D01*
X59466177Y-66784699D01*
X59879607Y-66992931D01*
X60325717Y-67116506D01*
X60787364Y-67150674D01*
X61246806Y-67094123D01*
X61686387Y-66949026D01*
X61993823Y-66784699D01*
X62172604Y-66475841D01*
X64687973Y-66475841D01*
X65500000Y-67287868D01*
X66312027Y-66475841D01*
X66230509Y-66239345D01*
X65970531Y-66121052D01*
X65692471Y-66055752D01*
X65407014Y-66045954D01*
X65125130Y-66092033D01*
X64857653Y-66192220D01*
X64769491Y-66239345D01*
X64687973Y-66475841D01*
X62172604Y-66475841D01*
X62184008Y-66456140D01*
X60730000Y-65002132D01*
X59275992Y-66456140D01*
X56264749Y-66456140D01*
X56301721Y-66387444D01*
X56538367Y-65615262D01*
X56616209Y-64847364D01*
X58369326Y-64847364D01*
X58425877Y-65306806D01*
X58570974Y-65746387D01*
X58735301Y-66053823D01*
X59063860Y-66244008D01*
X60517868Y-64790000D01*
X60942132Y-64790000D01*
X62396140Y-66244008D01*
X62724699Y-66053823D01*
X62932931Y-65640393D01*
X63056506Y-65194283D01*
X63082182Y-64847364D01*
X70409326Y-64847364D01*
X70465877Y-65306806D01*
X70610974Y-65746387D01*
X70775301Y-66053823D01*
X71103860Y-66244008D01*
X72557868Y-64790000D01*
X71103860Y-63335992D01*
X70775301Y-63526177D01*
X70567069Y-63939607D01*
X70443494Y-64385717D01*
X70409326Y-64847364D01*
X63082182Y-64847364D01*
X63090674Y-64732636D01*
X63034123Y-64273194D01*
X62889026Y-63833613D01*
X62724699Y-63526177D01*
X62396140Y-63335992D01*
X60942132Y-64790000D01*
X60517868Y-64790000D01*
X59063860Y-63335992D01*
X58735301Y-63526177D01*
X58527069Y-63939607D01*
X58403494Y-64385717D01*
X58369326Y-64847364D01*
X56616209Y-64847364D01*
X56619820Y-64811751D01*
X56542952Y-64007788D01*
X56310714Y-63234269D01*
X56252104Y-63123860D01*
X59275992Y-63123860D01*
X60730000Y-64577868D01*
X62184008Y-63123860D01*
X71315992Y-63123860D01*
X72617015Y-64424883D01*
X72580180Y-64788249D01*
X72615410Y-65156722D01*
X71315992Y-66456140D01*
X71506177Y-66784699D01*
X71919607Y-66992931D01*
X72365717Y-67116506D01*
X72827364Y-67150674D01*
X73278685Y-67095123D01*
X73281023Y-67098621D01*
X73788839Y-67499029D01*
X76487868Y-64800000D01*
X76912132Y-64800000D01*
X79611161Y-67499029D01*
X80118977Y-67098621D01*
X80501721Y-66387444D01*
X80619996Y-66001509D01*
X99400000Y-66001509D01*
X99400000Y-66198491D01*
X99438429Y-66391689D01*
X99513811Y-66573678D01*
X99623249Y-66737463D01*
X99762537Y-66876751D01*
X99926322Y-66986189D01*
X100108311Y-67061571D01*
X100301509Y-67100000D01*
X100498491Y-67100000D01*
X100691689Y-67061571D01*
X100873678Y-66986189D01*
X101037463Y-66876751D01*
X101176751Y-66737463D01*
X101286189Y-66573678D01*
X101331205Y-66465000D01*
X114180786Y-66465000D01*
X114232537Y-66516751D01*
X114396322Y-66626189D01*
X114578311Y-66701571D01*
X114771509Y-66740000D01*
X114968491Y-66740000D01*
X115161689Y-66701571D01*
X115343678Y-66626189D01*
X115507463Y-66516751D01*
X115646751Y-66377463D01*
X115756189Y-66213678D01*
X115831571Y-66031689D01*
X115870000Y-65838491D01*
X115870000Y-65641509D01*
X115838420Y-65482741D01*
X118521232Y-65482741D01*
X118521232Y-65679723D01*
X118559661Y-65872921D01*
X118635043Y-66054910D01*
X118744481Y-66218695D01*
X118883769Y-66357983D01*
X119047554Y-66467421D01*
X119229543Y-66542803D01*
X119422741Y-66581232D01*
X119619723Y-66581232D01*
X119812921Y-66542803D01*
X119994910Y-66467421D01*
X120158695Y-66357983D01*
X120210446Y-66306232D01*
X129912018Y-66306232D01*
X129952537Y-66346751D01*
X130116322Y-66456189D01*
X130298311Y-66531571D01*
X130491509Y-66570000D01*
X130688491Y-66570000D01*
X130881689Y-66531571D01*
X130969979Y-66495000D01*
X173972097Y-66495000D01*
X173972097Y-68195000D01*
X173983682Y-68312621D01*
X174017990Y-68425721D01*
X174073704Y-68529955D01*
X174148683Y-68621317D01*
X174240045Y-68696296D01*
X174344279Y-68752010D01*
X174457379Y-68786318D01*
X174575000Y-68797903D01*
X176275000Y-68797903D01*
X176392621Y-68786318D01*
X176505721Y-68752010D01*
X176609955Y-68696296D01*
X176701317Y-68621317D01*
X176776296Y-68529955D01*
X176832010Y-68425721D01*
X176866318Y-68312621D01*
X176867725Y-68298335D01*
X177040679Y-68471289D01*
X177278167Y-68629973D01*
X177542051Y-68739277D01*
X177822187Y-68795000D01*
X178107813Y-68795000D01*
X178387949Y-68739277D01*
X178651833Y-68629973D01*
X178889321Y-68471289D01*
X179091289Y-68269321D01*
X179235000Y-68054242D01*
X179378711Y-68269321D01*
X179580679Y-68471289D01*
X179818167Y-68629973D01*
X180082051Y-68739277D01*
X180362187Y-68795000D01*
X180647813Y-68795000D01*
X180927949Y-68739277D01*
X181191833Y-68629973D01*
X181429321Y-68471289D01*
X181631289Y-68269321D01*
X181775000Y-68054242D01*
X181918711Y-68269321D01*
X182120679Y-68471289D01*
X182358167Y-68629973D01*
X182622051Y-68739277D01*
X182902187Y-68795000D01*
X183187813Y-68795000D01*
X183467949Y-68739277D01*
X183731833Y-68629973D01*
X183969321Y-68471289D01*
X184171289Y-68269321D01*
X184321141Y-68045050D01*
X184433674Y-68226457D01*
X184627760Y-68434133D01*
X184858632Y-68599954D01*
X185117418Y-68717548D01*
X185211234Y-68746000D01*
X185435000Y-68636317D01*
X185435000Y-67495000D01*
X185735000Y-67495000D01*
X185735000Y-68636317D01*
X185958766Y-68746000D01*
X186052582Y-68717548D01*
X186311368Y-68599954D01*
X186542240Y-68434133D01*
X186736326Y-68226457D01*
X186886167Y-67984908D01*
X186986005Y-67718767D01*
X186877226Y-67495000D01*
X185735000Y-67495000D01*
X185435000Y-67495000D01*
X185415000Y-67495000D01*
X185415000Y-67195000D01*
X185435000Y-67195000D01*
X185435000Y-66053683D01*
X185735000Y-66053683D01*
X185735000Y-67195000D01*
X186877226Y-67195000D01*
X186986005Y-66971233D01*
X186886167Y-66705092D01*
X186736326Y-66463543D01*
X186542240Y-66255867D01*
X186311368Y-66090046D01*
X186052582Y-65972452D01*
X185958766Y-65944000D01*
X185735000Y-66053683D01*
X185435000Y-66053683D01*
X185211234Y-65944000D01*
X185117418Y-65972452D01*
X184858632Y-66090046D01*
X184627760Y-66255867D01*
X184433674Y-66463543D01*
X184321141Y-66644950D01*
X184171289Y-66420679D01*
X183969321Y-66218711D01*
X183731833Y-66060027D01*
X183467949Y-65950723D01*
X183187813Y-65895000D01*
X182902187Y-65895000D01*
X182622051Y-65950723D01*
X182358167Y-66060027D01*
X182120679Y-66218711D01*
X181918711Y-66420679D01*
X181775000Y-66635758D01*
X181631289Y-66420679D01*
X181429321Y-66218711D01*
X181191833Y-66060027D01*
X180927949Y-65950723D01*
X180647813Y-65895000D01*
X180362187Y-65895000D01*
X180082051Y-65950723D01*
X179818167Y-66060027D01*
X179580679Y-66218711D01*
X179378711Y-66420679D01*
X179235000Y-66635758D01*
X179091289Y-66420679D01*
X178889321Y-66218711D01*
X178651833Y-66060027D01*
X178387949Y-65950723D01*
X178107813Y-65895000D01*
X177822187Y-65895000D01*
X177542051Y-65950723D01*
X177278167Y-66060027D01*
X177040679Y-66218711D01*
X176867725Y-66391665D01*
X176866318Y-66377379D01*
X176832010Y-66264279D01*
X176776296Y-66160045D01*
X176701317Y-66068683D01*
X176609955Y-65993704D01*
X176505721Y-65937990D01*
X176392621Y-65903682D01*
X176275000Y-65892097D01*
X174575000Y-65892097D01*
X174457379Y-65903682D01*
X174344279Y-65937990D01*
X174240045Y-65993704D01*
X174148683Y-66068683D01*
X174073704Y-66160045D01*
X174017990Y-66264279D01*
X173983682Y-66377379D01*
X173972097Y-66495000D01*
X130969979Y-66495000D01*
X131063678Y-66456189D01*
X131227463Y-66346751D01*
X131366751Y-66207463D01*
X131476189Y-66043678D01*
X131551571Y-65861689D01*
X131590000Y-65668491D01*
X131590000Y-65471509D01*
X131551571Y-65278311D01*
X131476189Y-65096322D01*
X131366751Y-64932537D01*
X131227463Y-64793249D01*
X131063678Y-64683811D01*
X130881689Y-64608429D01*
X130688491Y-64570000D01*
X130491509Y-64570000D01*
X130298311Y-64608429D01*
X130116322Y-64683811D01*
X129952537Y-64793249D01*
X129889554Y-64856232D01*
X120210446Y-64856232D01*
X120158695Y-64804481D01*
X119994910Y-64695043D01*
X119812921Y-64619661D01*
X119619723Y-64581232D01*
X119422741Y-64581232D01*
X119229543Y-64619661D01*
X119047554Y-64695043D01*
X118883769Y-64804481D01*
X118744481Y-64943769D01*
X118635043Y-65107554D01*
X118559661Y-65289543D01*
X118521232Y-65482741D01*
X115838420Y-65482741D01*
X115831571Y-65448311D01*
X115756189Y-65266322D01*
X115646751Y-65102537D01*
X115507463Y-64963249D01*
X115343678Y-64853811D01*
X115161689Y-64778429D01*
X114968491Y-64740000D01*
X114771509Y-64740000D01*
X114578311Y-64778429D01*
X114396322Y-64853811D01*
X114232537Y-64963249D01*
X114180786Y-65015000D01*
X100795597Y-65015000D01*
X100760000Y-65011494D01*
X100724403Y-65015000D01*
X100724393Y-65015000D01*
X100617875Y-65025491D01*
X100481212Y-65066947D01*
X100419375Y-65100000D01*
X100301509Y-65100000D01*
X100108311Y-65138429D01*
X99926322Y-65213811D01*
X99762537Y-65323249D01*
X99623249Y-65462537D01*
X99513811Y-65626322D01*
X99438429Y-65808311D01*
X99400000Y-66001509D01*
X80619996Y-66001509D01*
X80738367Y-65615262D01*
X80819820Y-64811751D01*
X80742952Y-64007788D01*
X80510714Y-63234269D01*
X80310541Y-62857187D01*
X92050000Y-62857187D01*
X92050000Y-63142813D01*
X92105723Y-63422949D01*
X92215027Y-63686833D01*
X92373711Y-63924321D01*
X92575679Y-64126289D01*
X92813167Y-64284973D01*
X93077051Y-64394277D01*
X93357187Y-64450000D01*
X93642813Y-64450000D01*
X93922949Y-64394277D01*
X94186833Y-64284973D01*
X94424321Y-64126289D01*
X94626289Y-63924321D01*
X94770000Y-63709242D01*
X94913711Y-63924321D01*
X95115679Y-64126289D01*
X95353167Y-64284973D01*
X95617051Y-64394277D01*
X95897187Y-64450000D01*
X96182813Y-64450000D01*
X96462949Y-64394277D01*
X96726833Y-64284973D01*
X96964321Y-64126289D01*
X97166289Y-63924321D01*
X97310000Y-63709242D01*
X97453711Y-63924321D01*
X97655679Y-64126289D01*
X97893167Y-64284973D01*
X98157051Y-64394277D01*
X98437187Y-64450000D01*
X98722813Y-64450000D01*
X99002949Y-64394277D01*
X99266833Y-64284973D01*
X99504321Y-64126289D01*
X99706289Y-63924321D01*
X99850000Y-63709242D01*
X99993711Y-63924321D01*
X100195679Y-64126289D01*
X100433167Y-64284973D01*
X100697051Y-64394277D01*
X100977187Y-64450000D01*
X101262813Y-64450000D01*
X101542949Y-64394277D01*
X101806833Y-64284973D01*
X102044321Y-64126289D01*
X102246289Y-63924321D01*
X102390000Y-63709242D01*
X102533711Y-63924321D01*
X102735679Y-64126289D01*
X102973167Y-64284973D01*
X103237051Y-64394277D01*
X103517187Y-64450000D01*
X103802813Y-64450000D01*
X104082949Y-64394277D01*
X104346833Y-64284973D01*
X104584321Y-64126289D01*
X104786289Y-63924321D01*
X104930000Y-63709242D01*
X105073711Y-63924321D01*
X105275679Y-64126289D01*
X105513167Y-64284973D01*
X105777051Y-64394277D01*
X106057187Y-64450000D01*
X106342813Y-64450000D01*
X106622949Y-64394277D01*
X106886833Y-64284973D01*
X107124321Y-64126289D01*
X107326289Y-63924321D01*
X107470000Y-63709242D01*
X107613711Y-63924321D01*
X107815679Y-64126289D01*
X108053167Y-64284973D01*
X108317051Y-64394277D01*
X108597187Y-64450000D01*
X108882813Y-64450000D01*
X109162949Y-64394277D01*
X109426833Y-64284973D01*
X109664321Y-64126289D01*
X109866289Y-63924321D01*
X110010000Y-63709242D01*
X110153711Y-63924321D01*
X110355679Y-64126289D01*
X110593167Y-64284973D01*
X110857051Y-64394277D01*
X111137187Y-64450000D01*
X111422813Y-64450000D01*
X111702949Y-64394277D01*
X111966833Y-64284973D01*
X112204321Y-64126289D01*
X112406289Y-63924321D01*
X112550000Y-63709242D01*
X112693711Y-63924321D01*
X112895679Y-64126289D01*
X113133167Y-64284973D01*
X113397051Y-64394277D01*
X113677187Y-64450000D01*
X113962813Y-64450000D01*
X114242949Y-64394277D01*
X114506833Y-64284973D01*
X114744321Y-64126289D01*
X114946289Y-63924321D01*
X115090000Y-63709242D01*
X115233711Y-63924321D01*
X115435679Y-64126289D01*
X115673167Y-64284973D01*
X115937051Y-64394277D01*
X116217187Y-64450000D01*
X116502813Y-64450000D01*
X116782949Y-64394277D01*
X117046833Y-64284973D01*
X117284321Y-64126289D01*
X117486289Y-63924321D01*
X117630000Y-63709242D01*
X117773711Y-63924321D01*
X117975679Y-64126289D01*
X118213167Y-64284973D01*
X118477051Y-64394277D01*
X118757187Y-64450000D01*
X119042813Y-64450000D01*
X119322949Y-64394277D01*
X119586833Y-64284973D01*
X119824321Y-64126289D01*
X120026289Y-63924321D01*
X120170000Y-63709242D01*
X120313711Y-63924321D01*
X120515679Y-64126289D01*
X120753167Y-64284973D01*
X121017051Y-64394277D01*
X121297187Y-64450000D01*
X121582813Y-64450000D01*
X121862949Y-64394277D01*
X122126833Y-64284973D01*
X122364321Y-64126289D01*
X122566289Y-63924321D01*
X122710000Y-63709242D01*
X122853711Y-63924321D01*
X123055679Y-64126289D01*
X123293167Y-64284973D01*
X123557051Y-64394277D01*
X123837187Y-64450000D01*
X124122813Y-64450000D01*
X124402949Y-64394277D01*
X124666833Y-64284973D01*
X124904321Y-64126289D01*
X125106289Y-63924321D01*
X125250000Y-63709242D01*
X125393711Y-63924321D01*
X125595679Y-64126289D01*
X125833167Y-64284973D01*
X126097051Y-64394277D01*
X126377187Y-64450000D01*
X126662813Y-64450000D01*
X126942949Y-64394277D01*
X127206833Y-64284973D01*
X127444321Y-64126289D01*
X127646289Y-63924321D01*
X127790000Y-63709242D01*
X127933711Y-63924321D01*
X128135679Y-64126289D01*
X128373167Y-64284973D01*
X128637051Y-64394277D01*
X128917187Y-64450000D01*
X129202813Y-64450000D01*
X129482949Y-64394277D01*
X129746833Y-64284973D01*
X129984321Y-64126289D01*
X130157275Y-63953335D01*
X130158682Y-63967621D01*
X130192990Y-64080721D01*
X130248704Y-64184955D01*
X130323683Y-64276317D01*
X130415045Y-64351296D01*
X130519279Y-64407010D01*
X130632379Y-64441318D01*
X130750000Y-64452903D01*
X132450000Y-64452903D01*
X132567621Y-64441318D01*
X132680721Y-64407010D01*
X132784955Y-64351296D01*
X132876317Y-64276317D01*
X132951296Y-64184955D01*
X133007010Y-64080721D01*
X133041318Y-63967621D01*
X133052903Y-63850000D01*
X133052903Y-63167600D01*
X148546697Y-63167600D01*
X148546697Y-64867600D01*
X148558282Y-64985221D01*
X148592590Y-65098321D01*
X148648304Y-65202555D01*
X148723283Y-65293917D01*
X148814645Y-65368896D01*
X148918879Y-65424610D01*
X149031979Y-65458918D01*
X149149600Y-65470503D01*
X150849600Y-65470503D01*
X150967221Y-65458918D01*
X151080321Y-65424610D01*
X151184555Y-65368896D01*
X151275917Y-65293917D01*
X151350896Y-65202555D01*
X151406610Y-65098321D01*
X151440918Y-64985221D01*
X151442325Y-64970935D01*
X151615279Y-65143889D01*
X151852767Y-65302573D01*
X152116651Y-65411877D01*
X152396787Y-65467600D01*
X152682413Y-65467600D01*
X152962549Y-65411877D01*
X153226433Y-65302573D01*
X153463921Y-65143889D01*
X153665889Y-64941921D01*
X153809600Y-64726842D01*
X153953311Y-64941921D01*
X154155279Y-65143889D01*
X154392767Y-65302573D01*
X154656651Y-65411877D01*
X154936787Y-65467600D01*
X155222413Y-65467600D01*
X155502549Y-65411877D01*
X155766433Y-65302573D01*
X156003921Y-65143889D01*
X156205889Y-64941921D01*
X156349600Y-64726842D01*
X156493311Y-64941921D01*
X156695279Y-65143889D01*
X156932767Y-65302573D01*
X157196651Y-65411877D01*
X157476787Y-65467600D01*
X157762413Y-65467600D01*
X158042549Y-65411877D01*
X158306433Y-65302573D01*
X158543921Y-65143889D01*
X158745889Y-64941921D01*
X158889600Y-64726842D01*
X159033311Y-64941921D01*
X159235279Y-65143889D01*
X159472767Y-65302573D01*
X159736651Y-65411877D01*
X160016787Y-65467600D01*
X160302413Y-65467600D01*
X160582549Y-65411877D01*
X160846433Y-65302573D01*
X161083921Y-65143889D01*
X161285889Y-64941921D01*
X161429600Y-64726842D01*
X161573311Y-64941921D01*
X161775279Y-65143889D01*
X162012767Y-65302573D01*
X162276651Y-65411877D01*
X162556787Y-65467600D01*
X162842413Y-65467600D01*
X163122549Y-65411877D01*
X163386433Y-65302573D01*
X163623921Y-65143889D01*
X163825889Y-64941921D01*
X163969600Y-64726842D01*
X164113311Y-64941921D01*
X164315279Y-65143889D01*
X164552767Y-65302573D01*
X164816651Y-65411877D01*
X165096787Y-65467600D01*
X165382413Y-65467600D01*
X165662549Y-65411877D01*
X165926433Y-65302573D01*
X166163921Y-65143889D01*
X166365889Y-64941921D01*
X166509600Y-64726842D01*
X166653311Y-64941921D01*
X166855279Y-65143889D01*
X167092767Y-65302573D01*
X167356651Y-65411877D01*
X167636787Y-65467600D01*
X167922413Y-65467600D01*
X168202549Y-65411877D01*
X168466433Y-65302573D01*
X168703921Y-65143889D01*
X168905889Y-64941921D01*
X169049600Y-64726842D01*
X169193311Y-64941921D01*
X169395279Y-65143889D01*
X169632767Y-65302573D01*
X169896651Y-65411877D01*
X170176787Y-65467600D01*
X170462413Y-65467600D01*
X170742549Y-65411877D01*
X171006433Y-65302573D01*
X171243921Y-65143889D01*
X171445889Y-64941921D01*
X171589600Y-64726842D01*
X171733311Y-64941921D01*
X171935279Y-65143889D01*
X172172767Y-65302573D01*
X172436651Y-65411877D01*
X172716787Y-65467600D01*
X173002413Y-65467600D01*
X173282549Y-65411877D01*
X173546433Y-65302573D01*
X173783921Y-65143889D01*
X173985889Y-64941921D01*
X174129600Y-64726842D01*
X174273311Y-64941921D01*
X174475279Y-65143889D01*
X174712767Y-65302573D01*
X174976651Y-65411877D01*
X175256787Y-65467600D01*
X175542413Y-65467600D01*
X175822549Y-65411877D01*
X176086433Y-65302573D01*
X176323921Y-65143889D01*
X176525889Y-64941921D01*
X176669600Y-64726842D01*
X176813311Y-64941921D01*
X177015279Y-65143889D01*
X177252767Y-65302573D01*
X177516651Y-65411877D01*
X177796787Y-65467600D01*
X178082413Y-65467600D01*
X178362549Y-65411877D01*
X178626433Y-65302573D01*
X178863921Y-65143889D01*
X179065889Y-64941921D01*
X179224573Y-64704433D01*
X179333877Y-64440549D01*
X179389600Y-64160413D01*
X179389600Y-63874787D01*
X179333877Y-63594651D01*
X179224573Y-63330767D01*
X179065889Y-63093279D01*
X178863921Y-62891311D01*
X178626433Y-62732627D01*
X178362549Y-62623323D01*
X178082413Y-62567600D01*
X177796787Y-62567600D01*
X177516651Y-62623323D01*
X177252767Y-62732627D01*
X177015279Y-62891311D01*
X176813311Y-63093279D01*
X176669600Y-63308358D01*
X176525889Y-63093279D01*
X176323921Y-62891311D01*
X176086433Y-62732627D01*
X175822549Y-62623323D01*
X175542413Y-62567600D01*
X175256787Y-62567600D01*
X174976651Y-62623323D01*
X174712767Y-62732627D01*
X174475279Y-62891311D01*
X174273311Y-63093279D01*
X174129600Y-63308358D01*
X173985889Y-63093279D01*
X173783921Y-62891311D01*
X173546433Y-62732627D01*
X173282549Y-62623323D01*
X173002413Y-62567600D01*
X172716787Y-62567600D01*
X172436651Y-62623323D01*
X172172767Y-62732627D01*
X171935279Y-62891311D01*
X171733311Y-63093279D01*
X171589600Y-63308358D01*
X171445889Y-63093279D01*
X171243921Y-62891311D01*
X171006433Y-62732627D01*
X170742549Y-62623323D01*
X170462413Y-62567600D01*
X170176787Y-62567600D01*
X169896651Y-62623323D01*
X169632767Y-62732627D01*
X169395279Y-62891311D01*
X169193311Y-63093279D01*
X169049600Y-63308358D01*
X168905889Y-63093279D01*
X168703921Y-62891311D01*
X168466433Y-62732627D01*
X168202549Y-62623323D01*
X167922413Y-62567600D01*
X167636787Y-62567600D01*
X167356651Y-62623323D01*
X167092767Y-62732627D01*
X166855279Y-62891311D01*
X166653311Y-63093279D01*
X166509600Y-63308358D01*
X166365889Y-63093279D01*
X166163921Y-62891311D01*
X165926433Y-62732627D01*
X165662549Y-62623323D01*
X165382413Y-62567600D01*
X165096787Y-62567600D01*
X164816651Y-62623323D01*
X164552767Y-62732627D01*
X164315279Y-62891311D01*
X164113311Y-63093279D01*
X163969600Y-63308358D01*
X163825889Y-63093279D01*
X163623921Y-62891311D01*
X163386433Y-62732627D01*
X163122549Y-62623323D01*
X162842413Y-62567600D01*
X162556787Y-62567600D01*
X162276651Y-62623323D01*
X162012767Y-62732627D01*
X161775279Y-62891311D01*
X161573311Y-63093279D01*
X161429600Y-63308358D01*
X161285889Y-63093279D01*
X161083921Y-62891311D01*
X160846433Y-62732627D01*
X160582549Y-62623323D01*
X160302413Y-62567600D01*
X160016787Y-62567600D01*
X159736651Y-62623323D01*
X159472767Y-62732627D01*
X159235279Y-62891311D01*
X159033311Y-63093279D01*
X158889600Y-63308358D01*
X158745889Y-63093279D01*
X158543921Y-62891311D01*
X158306433Y-62732627D01*
X158042549Y-62623323D01*
X157762413Y-62567600D01*
X157476787Y-62567600D01*
X157196651Y-62623323D01*
X156932767Y-62732627D01*
X156695279Y-62891311D01*
X156493311Y-63093279D01*
X156349600Y-63308358D01*
X156205889Y-63093279D01*
X156003921Y-62891311D01*
X155766433Y-62732627D01*
X155502549Y-62623323D01*
X155222413Y-62567600D01*
X154936787Y-62567600D01*
X154656651Y-62623323D01*
X154392767Y-62732627D01*
X154155279Y-62891311D01*
X153953311Y-63093279D01*
X153809600Y-63308358D01*
X153665889Y-63093279D01*
X153463921Y-62891311D01*
X153226433Y-62732627D01*
X152962549Y-62623323D01*
X152682413Y-62567600D01*
X152396787Y-62567600D01*
X152116651Y-62623323D01*
X151852767Y-62732627D01*
X151615279Y-62891311D01*
X151442325Y-63064265D01*
X151440918Y-63049979D01*
X151406610Y-62936879D01*
X151350896Y-62832645D01*
X151275917Y-62741283D01*
X151184555Y-62666304D01*
X151080321Y-62610590D01*
X150967221Y-62576282D01*
X150849600Y-62564697D01*
X149149600Y-62564697D01*
X149031979Y-62576282D01*
X148918879Y-62610590D01*
X148814645Y-62666304D01*
X148723283Y-62741283D01*
X148648304Y-62832645D01*
X148592590Y-62936879D01*
X148558282Y-63049979D01*
X148546697Y-63167600D01*
X133052903Y-63167600D01*
X133052903Y-62150000D01*
X133041318Y-62032379D01*
X133007010Y-61919279D01*
X132951296Y-61815045D01*
X132876317Y-61723683D01*
X132784955Y-61648704D01*
X132680721Y-61592990D01*
X132567621Y-61558682D01*
X132450000Y-61547097D01*
X130750000Y-61547097D01*
X130632379Y-61558682D01*
X130519279Y-61592990D01*
X130415045Y-61648704D01*
X130323683Y-61723683D01*
X130248704Y-61815045D01*
X130192990Y-61919279D01*
X130158682Y-62032379D01*
X130157275Y-62046665D01*
X129984321Y-61873711D01*
X129746833Y-61715027D01*
X129482949Y-61605723D01*
X129202813Y-61550000D01*
X128917187Y-61550000D01*
X128637051Y-61605723D01*
X128373167Y-61715027D01*
X128135679Y-61873711D01*
X127933711Y-62075679D01*
X127790000Y-62290758D01*
X127646289Y-62075679D01*
X127444321Y-61873711D01*
X127206833Y-61715027D01*
X126942949Y-61605723D01*
X126662813Y-61550000D01*
X126377187Y-61550000D01*
X126097051Y-61605723D01*
X125833167Y-61715027D01*
X125595679Y-61873711D01*
X125393711Y-62075679D01*
X125250000Y-62290758D01*
X125106289Y-62075679D01*
X124904321Y-61873711D01*
X124666833Y-61715027D01*
X124402949Y-61605723D01*
X124122813Y-61550000D01*
X123837187Y-61550000D01*
X123557051Y-61605723D01*
X123293167Y-61715027D01*
X123055679Y-61873711D01*
X122853711Y-62075679D01*
X122710000Y-62290758D01*
X122566289Y-62075679D01*
X122364321Y-61873711D01*
X122126833Y-61715027D01*
X121862949Y-61605723D01*
X121582813Y-61550000D01*
X121297187Y-61550000D01*
X121017051Y-61605723D01*
X120753167Y-61715027D01*
X120515679Y-61873711D01*
X120313711Y-62075679D01*
X120170000Y-62290758D01*
X120026289Y-62075679D01*
X119824321Y-61873711D01*
X119586833Y-61715027D01*
X119322949Y-61605723D01*
X119042813Y-61550000D01*
X118757187Y-61550000D01*
X118477051Y-61605723D01*
X118213167Y-61715027D01*
X117975679Y-61873711D01*
X117773711Y-62075679D01*
X117630000Y-62290758D01*
X117486289Y-62075679D01*
X117284321Y-61873711D01*
X117046833Y-61715027D01*
X116782949Y-61605723D01*
X116502813Y-61550000D01*
X116217187Y-61550000D01*
X115937051Y-61605723D01*
X115673167Y-61715027D01*
X115435679Y-61873711D01*
X115233711Y-62075679D01*
X115090000Y-62290758D01*
X114946289Y-62075679D01*
X114744321Y-61873711D01*
X114506833Y-61715027D01*
X114242949Y-61605723D01*
X113962813Y-61550000D01*
X113677187Y-61550000D01*
X113397051Y-61605723D01*
X113133167Y-61715027D01*
X112895679Y-61873711D01*
X112693711Y-62075679D01*
X112550000Y-62290758D01*
X112406289Y-62075679D01*
X112204321Y-61873711D01*
X111966833Y-61715027D01*
X111702949Y-61605723D01*
X111422813Y-61550000D01*
X111137187Y-61550000D01*
X110857051Y-61605723D01*
X110593167Y-61715027D01*
X110355679Y-61873711D01*
X110153711Y-62075679D01*
X110010000Y-62290758D01*
X109866289Y-62075679D01*
X109664321Y-61873711D01*
X109426833Y-61715027D01*
X109162949Y-61605723D01*
X108882813Y-61550000D01*
X108597187Y-61550000D01*
X108317051Y-61605723D01*
X108053167Y-61715027D01*
X107815679Y-61873711D01*
X107613711Y-62075679D01*
X107470000Y-62290758D01*
X107326289Y-62075679D01*
X107124321Y-61873711D01*
X106886833Y-61715027D01*
X106622949Y-61605723D01*
X106342813Y-61550000D01*
X106057187Y-61550000D01*
X105777051Y-61605723D01*
X105513167Y-61715027D01*
X105275679Y-61873711D01*
X105073711Y-62075679D01*
X104930000Y-62290758D01*
X104786289Y-62075679D01*
X104584321Y-61873711D01*
X104346833Y-61715027D01*
X104082949Y-61605723D01*
X103802813Y-61550000D01*
X103517187Y-61550000D01*
X103237051Y-61605723D01*
X102973167Y-61715027D01*
X102735679Y-61873711D01*
X102533711Y-62075679D01*
X102390000Y-62290758D01*
X102246289Y-62075679D01*
X102044321Y-61873711D01*
X101806833Y-61715027D01*
X101542949Y-61605723D01*
X101262813Y-61550000D01*
X100977187Y-61550000D01*
X100697051Y-61605723D01*
X100433167Y-61715027D01*
X100195679Y-61873711D01*
X99993711Y-62075679D01*
X99850000Y-62290758D01*
X99706289Y-62075679D01*
X99504321Y-61873711D01*
X99266833Y-61715027D01*
X99002949Y-61605723D01*
X98722813Y-61550000D01*
X98437187Y-61550000D01*
X98157051Y-61605723D01*
X97893167Y-61715027D01*
X97655679Y-61873711D01*
X97453711Y-62075679D01*
X97310000Y-62290758D01*
X97166289Y-62075679D01*
X96964321Y-61873711D01*
X96726833Y-61715027D01*
X96462949Y-61605723D01*
X96182813Y-61550000D01*
X95897187Y-61550000D01*
X95617051Y-61605723D01*
X95353167Y-61715027D01*
X95115679Y-61873711D01*
X94913711Y-62075679D01*
X94770000Y-62290758D01*
X94626289Y-62075679D01*
X94424321Y-61873711D01*
X94186833Y-61715027D01*
X93922949Y-61605723D01*
X93642813Y-61550000D01*
X93357187Y-61550000D01*
X93077051Y-61605723D01*
X92813167Y-61715027D01*
X92575679Y-61873711D01*
X92373711Y-62075679D01*
X92215027Y-62313167D01*
X92105723Y-62577051D01*
X92050000Y-62857187D01*
X80310541Y-62857187D01*
X80132034Y-62520921D01*
X80118977Y-62501379D01*
X79611161Y-62100971D01*
X76912132Y-64800000D01*
X76487868Y-64800000D01*
X73788839Y-62100971D01*
X73288829Y-62495224D01*
X73174283Y-62463494D01*
X72712636Y-62429326D01*
X72253194Y-62485877D01*
X71813613Y-62630974D01*
X71506177Y-62795301D01*
X71315992Y-63123860D01*
X62184008Y-63123860D01*
X61993823Y-62795301D01*
X61580393Y-62587069D01*
X61134283Y-62463494D01*
X60672636Y-62429326D01*
X60213194Y-62485877D01*
X59773613Y-62630974D01*
X59466177Y-62795301D01*
X59275992Y-63123860D01*
X56252104Y-63123860D01*
X55932034Y-62520921D01*
X55918977Y-62501379D01*
X55411161Y-62100971D01*
X52712132Y-64800000D01*
X52287868Y-64800000D01*
X49588839Y-62100971D01*
X49081023Y-62501379D01*
X48698279Y-63212556D01*
X48461633Y-63984738D01*
X48380180Y-64788249D01*
X40625000Y-64788249D01*
X40625000Y-61888839D01*
X49800971Y-61888839D01*
X52500000Y-64587868D01*
X55199029Y-61888839D01*
X74000971Y-61888839D01*
X76700000Y-64587868D01*
X79399029Y-61888839D01*
X78998621Y-61381023D01*
X78287444Y-60998279D01*
X77515262Y-60761633D01*
X76711751Y-60680180D01*
X75907788Y-60757048D01*
X75134269Y-60989286D01*
X74420921Y-61367966D01*
X74401379Y-61381023D01*
X74000971Y-61888839D01*
X55199029Y-61888839D01*
X54798621Y-61381023D01*
X54087444Y-60998279D01*
X53315262Y-60761633D01*
X52511751Y-60680180D01*
X51707788Y-60757048D01*
X50934269Y-60989286D01*
X50220921Y-61367966D01*
X50201379Y-61381023D01*
X49800971Y-61888839D01*
X40625000Y-61888839D01*
X40625000Y-60625000D01*
X189375001Y-60625000D01*
X189375000Y-96375000D01*
M02*
