%TF.GenerationSoftware,KiCad,Pcbnew,5.1.5+dfsg1-2build2*%
%TF.CreationDate,2021-03-31T10:56:15+02:00*%
%TF.ProjectId,Model-M-USB-v3,4d6f6465-6c2d-44d2-9d55-53422d76332e,rev?*%
%TF.SameCoordinates,Original*%
%TF.FileFunction,Legend,Top*%
%TF.FilePolarity,Positive*%
%FSLAX46Y46*%
G04 Gerber Fmt 4.6, Leading zero omitted, Abs format (unit mm)*
G04 Created by KiCad (PCBNEW 5.1.5+dfsg1-2build2) date 2021-03-31 10:56:15*
%MOMM*%
%LPD*%
G04 APERTURE LIST*
%ADD10C,0.120000*%
%ADD11C,0.200000*%
%ADD12C,0.150000*%
%ADD13C,0.600000*%
%ADD14C,0.100000*%
G04 APERTURE END LIST*
D10*
X179260400Y-64017600D02*
X177939600Y-65338400D01*
X176669600Y-65338400D02*
X179260400Y-62747600D01*
X174104200Y-65338400D02*
X176720400Y-62722200D01*
X171538800Y-65338400D02*
X174155000Y-62722200D01*
X168973400Y-65338400D02*
X171589600Y-62722200D01*
X168998800Y-64017600D02*
X170294200Y-62722200D01*
X168973400Y-65338400D02*
X168973400Y-62696800D01*
D11*
X175123809Y-91088095D02*
X175123809Y-89788095D01*
X175866666Y-91088095D01*
X175866666Y-89788095D01*
X177042857Y-90221428D02*
X177042857Y-91088095D01*
X176485714Y-90221428D02*
X176485714Y-90902380D01*
X176547619Y-91026190D01*
X176671428Y-91088095D01*
X176857142Y-91088095D01*
X176980952Y-91026190D01*
X177042857Y-90964285D01*
X177661904Y-91088095D02*
X177661904Y-90221428D01*
X177661904Y-90345238D02*
X177723809Y-90283333D01*
X177847619Y-90221428D01*
X178033333Y-90221428D01*
X178157142Y-90283333D01*
X178219047Y-90407142D01*
X178219047Y-91088095D01*
X178219047Y-90407142D02*
X178280952Y-90283333D01*
X178404761Y-90221428D01*
X178590476Y-90221428D01*
X178714285Y-90283333D01*
X178776190Y-90407142D01*
X178776190Y-91088095D01*
X175050000Y-88626190D02*
X175235714Y-88688095D01*
X175545238Y-88688095D01*
X175669047Y-88626190D01*
X175730952Y-88564285D01*
X175792857Y-88440476D01*
X175792857Y-88316666D01*
X175730952Y-88192857D01*
X175669047Y-88130952D01*
X175545238Y-88069047D01*
X175297619Y-88007142D01*
X175173809Y-87945238D01*
X175111904Y-87883333D01*
X175050000Y-87759523D01*
X175050000Y-87635714D01*
X175111904Y-87511904D01*
X175173809Y-87450000D01*
X175297619Y-87388095D01*
X175607142Y-87388095D01*
X175792857Y-87450000D01*
X176907142Y-88626190D02*
X176783333Y-88688095D01*
X176535714Y-88688095D01*
X176411904Y-88626190D01*
X176350000Y-88564285D01*
X176288095Y-88440476D01*
X176288095Y-88069047D01*
X176350000Y-87945238D01*
X176411904Y-87883333D01*
X176535714Y-87821428D01*
X176783333Y-87821428D01*
X176907142Y-87883333D01*
X177464285Y-88688095D02*
X177464285Y-87821428D01*
X177464285Y-88069047D02*
X177526190Y-87945238D01*
X177588095Y-87883333D01*
X177711904Y-87821428D01*
X177835714Y-87821428D01*
X178454761Y-88688095D02*
X178330952Y-88626190D01*
X178269047Y-88564285D01*
X178207142Y-88440476D01*
X178207142Y-88069047D01*
X178269047Y-87945238D01*
X178330952Y-87883333D01*
X178454761Y-87821428D01*
X178640476Y-87821428D01*
X178764285Y-87883333D01*
X178826190Y-87945238D01*
X178888095Y-88069047D01*
X178888095Y-88440476D01*
X178826190Y-88564285D01*
X178764285Y-88626190D01*
X178640476Y-88688095D01*
X178454761Y-88688095D01*
X179630952Y-88688095D02*
X179507142Y-88626190D01*
X179445238Y-88502380D01*
X179445238Y-87388095D01*
X180311904Y-88688095D02*
X180188095Y-88626190D01*
X180126190Y-88502380D01*
X180126190Y-87388095D01*
X175900000Y-83414285D02*
X175838095Y-83476190D01*
X175652380Y-83538095D01*
X175528571Y-83538095D01*
X175342857Y-83476190D01*
X175219047Y-83352380D01*
X175157142Y-83228571D01*
X175095238Y-82980952D01*
X175095238Y-82795238D01*
X175157142Y-82547619D01*
X175219047Y-82423809D01*
X175342857Y-82300000D01*
X175528571Y-82238095D01*
X175652380Y-82238095D01*
X175838095Y-82300000D01*
X175900000Y-82361904D01*
X177014285Y-83538095D02*
X177014285Y-82857142D01*
X176952380Y-82733333D01*
X176828571Y-82671428D01*
X176580952Y-82671428D01*
X176457142Y-82733333D01*
X177014285Y-83476190D02*
X176890476Y-83538095D01*
X176580952Y-83538095D01*
X176457142Y-83476190D01*
X176395238Y-83352380D01*
X176395238Y-83228571D01*
X176457142Y-83104761D01*
X176580952Y-83042857D01*
X176890476Y-83042857D01*
X177014285Y-82980952D01*
X177633333Y-82671428D02*
X177633333Y-83971428D01*
X177633333Y-82733333D02*
X177757142Y-82671428D01*
X178004761Y-82671428D01*
X178128571Y-82733333D01*
X178190476Y-82795238D01*
X178252380Y-82919047D01*
X178252380Y-83290476D01*
X178190476Y-83414285D01*
X178128571Y-83476190D01*
X178004761Y-83538095D01*
X177757142Y-83538095D01*
X177633333Y-83476190D01*
X178747619Y-83476190D02*
X178871428Y-83538095D01*
X179119047Y-83538095D01*
X179242857Y-83476190D01*
X179304761Y-83352380D01*
X179304761Y-83290476D01*
X179242857Y-83166666D01*
X179119047Y-83104761D01*
X178933333Y-83104761D01*
X178809523Y-83042857D01*
X178747619Y-82919047D01*
X178747619Y-82857142D01*
X178809523Y-82733333D01*
X178933333Y-82671428D01*
X179119047Y-82671428D01*
X179242857Y-82733333D01*
X175809523Y-92450000D02*
X175685714Y-92388095D01*
X175500000Y-92388095D01*
X175314285Y-92450000D01*
X175190476Y-92573809D01*
X175128571Y-92697619D01*
X175066666Y-92945238D01*
X175066666Y-93130952D01*
X175128571Y-93378571D01*
X175190476Y-93502380D01*
X175314285Y-93626190D01*
X175500000Y-93688095D01*
X175623809Y-93688095D01*
X175809523Y-93626190D01*
X175871428Y-93564285D01*
X175871428Y-93130952D01*
X175623809Y-93130952D01*
X176428571Y-93688095D02*
X176428571Y-92388095D01*
X177171428Y-93688095D01*
X177171428Y-92388095D01*
X177790476Y-93688095D02*
X177790476Y-92388095D01*
X178100000Y-92388095D01*
X178285714Y-92450000D01*
X178409523Y-92573809D01*
X178471428Y-92697619D01*
X178533333Y-92945238D01*
X178533333Y-93130952D01*
X178471428Y-93378571D01*
X178409523Y-93502380D01*
X178285714Y-93626190D01*
X178100000Y-93688095D01*
X177790476Y-93688095D01*
X175066666Y-84788095D02*
X175500000Y-86088095D01*
X175933333Y-84788095D01*
X177109523Y-85964285D02*
X177047619Y-86026190D01*
X176861904Y-86088095D01*
X176738095Y-86088095D01*
X176552380Y-86026190D01*
X176428571Y-85902380D01*
X176366666Y-85778571D01*
X176304761Y-85530952D01*
X176304761Y-85345238D01*
X176366666Y-85097619D01*
X176428571Y-84973809D01*
X176552380Y-84850000D01*
X176738095Y-84788095D01*
X176861904Y-84788095D01*
X177047619Y-84850000D01*
X177109523Y-84911904D01*
X178409523Y-85964285D02*
X178347619Y-86026190D01*
X178161904Y-86088095D01*
X178038095Y-86088095D01*
X177852380Y-86026190D01*
X177728571Y-85902380D01*
X177666666Y-85778571D01*
X177604761Y-85530952D01*
X177604761Y-85345238D01*
X177666666Y-85097619D01*
X177728571Y-84973809D01*
X177852380Y-84850000D01*
X178038095Y-84788095D01*
X178161904Y-84788095D01*
X178347619Y-84850000D01*
X178409523Y-84911904D01*
D12*
X182038095Y-77304761D02*
X182180952Y-77352380D01*
X182419047Y-77352380D01*
X182514285Y-77304761D01*
X182561904Y-77257142D01*
X182609523Y-77161904D01*
X182609523Y-77066666D01*
X182561904Y-76971428D01*
X182514285Y-76923809D01*
X182419047Y-76876190D01*
X182228571Y-76828571D01*
X182133333Y-76780952D01*
X182085714Y-76733333D01*
X182038095Y-76638095D01*
X182038095Y-76542857D01*
X182085714Y-76447619D01*
X182133333Y-76400000D01*
X182228571Y-76352380D01*
X182466666Y-76352380D01*
X182609523Y-76400000D01*
X183038095Y-76685714D02*
X183038095Y-77685714D01*
X183038095Y-76733333D02*
X183133333Y-76685714D01*
X183323809Y-76685714D01*
X183419047Y-76733333D01*
X183466666Y-76780952D01*
X183514285Y-76876190D01*
X183514285Y-77161904D01*
X183466666Y-77257142D01*
X183419047Y-77304761D01*
X183323809Y-77352380D01*
X183133333Y-77352380D01*
X183038095Y-77304761D01*
X184323809Y-77304761D02*
X184228571Y-77352380D01*
X184038095Y-77352380D01*
X183942857Y-77304761D01*
X183895238Y-77209523D01*
X183895238Y-76828571D01*
X183942857Y-76733333D01*
X184038095Y-76685714D01*
X184228571Y-76685714D01*
X184323809Y-76733333D01*
X184371428Y-76828571D01*
X184371428Y-76923809D01*
X183895238Y-77019047D01*
X185228571Y-77352380D02*
X185228571Y-76828571D01*
X185180952Y-76733333D01*
X185085714Y-76685714D01*
X184895238Y-76685714D01*
X184800000Y-76733333D01*
X185228571Y-77304761D02*
X185133333Y-77352380D01*
X184895238Y-77352380D01*
X184800000Y-77304761D01*
X184752380Y-77209523D01*
X184752380Y-77114285D01*
X184800000Y-77019047D01*
X184895238Y-76971428D01*
X185133333Y-76971428D01*
X185228571Y-76923809D01*
X185704761Y-77352380D02*
X185704761Y-76352380D01*
X185800000Y-76971428D02*
X186085714Y-77352380D01*
X186085714Y-76685714D02*
X185704761Y-77066666D01*
X186895238Y-77304761D02*
X186800000Y-77352380D01*
X186609523Y-77352380D01*
X186514285Y-77304761D01*
X186466666Y-77209523D01*
X186466666Y-76828571D01*
X186514285Y-76733333D01*
X186609523Y-76685714D01*
X186800000Y-76685714D01*
X186895238Y-76733333D01*
X186942857Y-76828571D01*
X186942857Y-76923809D01*
X186466666Y-77019047D01*
X187371428Y-77352380D02*
X187371428Y-76685714D01*
X187371428Y-76876190D02*
X187419047Y-76780952D01*
X187466666Y-76733333D01*
X187561904Y-76685714D01*
X187657142Y-76685714D01*
X182052380Y-96252380D02*
X181576190Y-96252380D01*
X181576190Y-95252380D01*
X182385714Y-95728571D02*
X182719047Y-95728571D01*
X182861904Y-96252380D02*
X182385714Y-96252380D01*
X182385714Y-95252380D01*
X182861904Y-95252380D01*
X183290476Y-96252380D02*
X183290476Y-95252380D01*
X183528571Y-95252380D01*
X183671428Y-95300000D01*
X183766666Y-95395238D01*
X183814285Y-95490476D01*
X183861904Y-95680952D01*
X183861904Y-95823809D01*
X183814285Y-96014285D01*
X183766666Y-96109523D01*
X183671428Y-96204761D01*
X183528571Y-96252380D01*
X183290476Y-96252380D01*
X184242857Y-96204761D02*
X184338095Y-96252380D01*
X184528571Y-96252380D01*
X184623809Y-96204761D01*
X184671428Y-96109523D01*
X184671428Y-96061904D01*
X184623809Y-95966666D01*
X184528571Y-95919047D01*
X184385714Y-95919047D01*
X184290476Y-95871428D01*
X184242857Y-95776190D01*
X184242857Y-95728571D01*
X184290476Y-95633333D01*
X184385714Y-95585714D01*
X184528571Y-95585714D01*
X184623809Y-95633333D01*
X180574980Y-64469980D02*
X180098790Y-64469980D01*
X180098790Y-63469980D01*
X180908314Y-63946171D02*
X181241647Y-63946171D01*
X181384504Y-64469980D02*
X180908314Y-64469980D01*
X180908314Y-63469980D01*
X181384504Y-63469980D01*
X181813076Y-64469980D02*
X181813076Y-63469980D01*
X182051171Y-63469980D01*
X182194028Y-63517600D01*
X182289266Y-63612838D01*
X182336885Y-63708076D01*
X182384504Y-63898552D01*
X182384504Y-64041409D01*
X182336885Y-64231885D01*
X182289266Y-64327123D01*
X182194028Y-64422361D01*
X182051171Y-64469980D01*
X181813076Y-64469980D01*
X182765457Y-64422361D02*
X182860695Y-64469980D01*
X183051171Y-64469980D01*
X183146409Y-64422361D01*
X183194028Y-64327123D01*
X183194028Y-64279504D01*
X183146409Y-64184266D01*
X183051171Y-64136647D01*
X182908314Y-64136647D01*
X182813076Y-64089028D01*
X182765457Y-63993790D01*
X182765457Y-63946171D01*
X182813076Y-63850933D01*
X182908314Y-63803314D01*
X183051171Y-63803314D01*
X183146409Y-63850933D01*
D11*
X77820952Y-89048095D02*
X77820952Y-87748095D01*
X78378095Y-88986190D02*
X78563809Y-89048095D01*
X78873333Y-89048095D01*
X78997142Y-88986190D01*
X79059047Y-88924285D01*
X79120952Y-88800476D01*
X79120952Y-88676666D01*
X79059047Y-88552857D01*
X78997142Y-88490952D01*
X78873333Y-88429047D01*
X78625714Y-88367142D01*
X78501904Y-88305238D01*
X78440000Y-88243333D01*
X78378095Y-88119523D01*
X78378095Y-87995714D01*
X78440000Y-87871904D01*
X78501904Y-87810000D01*
X78625714Y-87748095D01*
X78935238Y-87748095D01*
X79120952Y-87810000D01*
X79678095Y-89048095D02*
X79678095Y-87748095D01*
X80173333Y-87748095D01*
X80297142Y-87810000D01*
X80359047Y-87871904D01*
X80420952Y-87995714D01*
X80420952Y-88181428D01*
X80359047Y-88305238D01*
X80297142Y-88367142D01*
X80173333Y-88429047D01*
X79678095Y-88429047D01*
X119552380Y-87166666D02*
X119076190Y-87500000D01*
X119552380Y-87738095D02*
X118552380Y-87738095D01*
X118552380Y-87357142D01*
X118600000Y-87261904D01*
X118647619Y-87214285D01*
X118742857Y-87166666D01*
X118885714Y-87166666D01*
X118980952Y-87214285D01*
X119028571Y-87261904D01*
X119076190Y-87357142D01*
X119076190Y-87738095D01*
X118552380Y-86833333D02*
X119552380Y-86166666D01*
X118552380Y-86166666D02*
X119552380Y-86833333D01*
X119552380Y-85785714D02*
X118552380Y-85785714D01*
X118552380Y-85547619D01*
X118600000Y-85404761D01*
X118695238Y-85309523D01*
X118790476Y-85261904D01*
X118980952Y-85214285D01*
X119123809Y-85214285D01*
X119314285Y-85261904D01*
X119409523Y-85309523D01*
X119504761Y-85404761D01*
X119552380Y-85547619D01*
X119552380Y-85785714D01*
X121152380Y-87761904D02*
X121152380Y-87190476D01*
X122152380Y-87476190D02*
X121152380Y-87476190D01*
X121152380Y-86952380D02*
X122152380Y-86285714D01*
X121152380Y-86285714D02*
X122152380Y-86952380D01*
X122152380Y-85904761D02*
X121152380Y-85904761D01*
X121152380Y-85666666D01*
X121200000Y-85523809D01*
X121295238Y-85428571D01*
X121390476Y-85380952D01*
X121580952Y-85333333D01*
X121723809Y-85333333D01*
X121914285Y-85380952D01*
X122009523Y-85428571D01*
X122104761Y-85523809D01*
X122152380Y-85666666D01*
X122152380Y-85904761D01*
X123652380Y-87833333D02*
X124652380Y-87500000D01*
X123652380Y-87166666D01*
X124557142Y-86261904D02*
X124604761Y-86309523D01*
X124652380Y-86452380D01*
X124652380Y-86547619D01*
X124604761Y-86690476D01*
X124509523Y-86785714D01*
X124414285Y-86833333D01*
X124223809Y-86880952D01*
X124080952Y-86880952D01*
X123890476Y-86833333D01*
X123795238Y-86785714D01*
X123700000Y-86690476D01*
X123652380Y-86547619D01*
X123652380Y-86452380D01*
X123700000Y-86309523D01*
X123747619Y-86261904D01*
X124557142Y-85261904D02*
X124604761Y-85309523D01*
X124652380Y-85452380D01*
X124652380Y-85547619D01*
X124604761Y-85690476D01*
X124509523Y-85785714D01*
X124414285Y-85833333D01*
X124223809Y-85880952D01*
X124080952Y-85880952D01*
X123890476Y-85833333D01*
X123795238Y-85785714D01*
X123700000Y-85690476D01*
X123652380Y-85547619D01*
X123652380Y-85452380D01*
X123700000Y-85309523D01*
X123747619Y-85261904D01*
X126300000Y-87261904D02*
X126252380Y-87357142D01*
X126252380Y-87500000D01*
X126300000Y-87642857D01*
X126395238Y-87738095D01*
X126490476Y-87785714D01*
X126680952Y-87833333D01*
X126823809Y-87833333D01*
X127014285Y-87785714D01*
X127109523Y-87738095D01*
X127204761Y-87642857D01*
X127252380Y-87500000D01*
X127252380Y-87404761D01*
X127204761Y-87261904D01*
X127157142Y-87214285D01*
X126823809Y-87214285D01*
X126823809Y-87404761D01*
X127252380Y-86785714D02*
X126252380Y-86785714D01*
X127252380Y-86214285D01*
X126252380Y-86214285D01*
X127252380Y-85738095D02*
X126252380Y-85738095D01*
X126252380Y-85500000D01*
X126300000Y-85357142D01*
X126395238Y-85261904D01*
X126490476Y-85214285D01*
X126680952Y-85166666D01*
X126823809Y-85166666D01*
X127014285Y-85214285D01*
X127109523Y-85261904D01*
X127204761Y-85357142D01*
X127252380Y-85500000D01*
X127252380Y-85738095D01*
D13*
X82680000Y-88560000D02*
G75*
G03X82680000Y-88560000I-300000J0D01*
G01*
D10*
X148669600Y-65347600D02*
X148669600Y-64017600D01*
X149999600Y-65347600D02*
X148669600Y-65347600D01*
X151269600Y-65347600D02*
X151269600Y-62687600D01*
X151269600Y-62687600D02*
X179269600Y-62687600D01*
X151269600Y-65347600D02*
X179269600Y-65347600D01*
X179269600Y-65347600D02*
X179269600Y-62687600D01*
X104385000Y-94425000D02*
X98135000Y-94425000D01*
X104385000Y-89375000D02*
X98135000Y-89375000D01*
X98135000Y-89375000D02*
G75*
G03X98135000Y-94425000I0J-2525000D01*
G01*
X104385000Y-89375000D02*
G75*
G02X104385000Y-94425000I0J-2525000D01*
G01*
X96396267Y-78010000D02*
X96053733Y-78010000D01*
X96396267Y-76990000D02*
X96053733Y-76990000D01*
X92170000Y-61670000D02*
X92170000Y-64330000D01*
X130330000Y-61670000D02*
X92170000Y-61670000D01*
X130330000Y-64330000D02*
X92170000Y-64330000D01*
X130330000Y-61670000D02*
X130330000Y-64330000D01*
X131600000Y-61670000D02*
X132930000Y-61670000D01*
X132930000Y-61670000D02*
X132930000Y-63000000D01*
X92971267Y-76060000D02*
X92628733Y-76060000D01*
X92971267Y-75040000D02*
X92628733Y-75040000D01*
X86230000Y-67920000D02*
X86230000Y-70580000D01*
X88830000Y-67920000D02*
X86230000Y-67920000D01*
X88830000Y-70580000D02*
X86230000Y-70580000D01*
X88830000Y-67920000D02*
X88830000Y-70580000D01*
X90100000Y-67920000D02*
X91430000Y-67920000D01*
X91430000Y-67920000D02*
X91430000Y-69250000D01*
D14*
G36*
X153550000Y-80150000D02*
G01*
X153550000Y-79750000D01*
X153150000Y-79750000D01*
X153150000Y-80150000D01*
X153550000Y-80150000D01*
G37*
G36*
X153950000Y-80150000D02*
G01*
X153950000Y-79750000D01*
X153550000Y-79750000D01*
X153550000Y-80150000D01*
X153950000Y-80150000D01*
G37*
G36*
X154350000Y-80150000D02*
G01*
X154350000Y-79750000D01*
X153950000Y-79750000D01*
X153950000Y-80150000D01*
X154350000Y-80150000D01*
G37*
G36*
X154750000Y-80150000D02*
G01*
X154750000Y-79750000D01*
X154350000Y-79750000D01*
X154350000Y-80150000D01*
X154750000Y-80150000D01*
G37*
G36*
X155150000Y-80150000D02*
G01*
X155150000Y-79750000D01*
X154750000Y-79750000D01*
X154750000Y-80150000D01*
X155150000Y-80150000D01*
G37*
G36*
X155550000Y-80150000D02*
G01*
X155550000Y-79750000D01*
X155150000Y-79750000D01*
X155150000Y-80150000D01*
X155550000Y-80150000D01*
G37*
G36*
X155950000Y-80150000D02*
G01*
X155950000Y-79750000D01*
X155550000Y-79750000D01*
X155550000Y-80150000D01*
X155950000Y-80150000D01*
G37*
G36*
X157150000Y-80150000D02*
G01*
X157150000Y-79750000D01*
X156750000Y-79750000D01*
X156750000Y-80150000D01*
X157150000Y-80150000D01*
G37*
G36*
X157550000Y-80150000D02*
G01*
X157550000Y-79750000D01*
X157150000Y-79750000D01*
X157150000Y-80150000D01*
X157550000Y-80150000D01*
G37*
G36*
X158350000Y-80150000D02*
G01*
X158350000Y-79750000D01*
X157950000Y-79750000D01*
X157950000Y-80150000D01*
X158350000Y-80150000D01*
G37*
G36*
X159150000Y-80150000D02*
G01*
X159150000Y-79750000D01*
X158750000Y-79750000D01*
X158750000Y-80150000D01*
X159150000Y-80150000D01*
G37*
G36*
X159550000Y-80150000D02*
G01*
X159550000Y-79750000D01*
X159150000Y-79750000D01*
X159150000Y-80150000D01*
X159550000Y-80150000D01*
G37*
G36*
X161950000Y-80150000D02*
G01*
X161950000Y-79750000D01*
X161550000Y-79750000D01*
X161550000Y-80150000D01*
X161950000Y-80150000D01*
G37*
G36*
X162750000Y-80150000D02*
G01*
X162750000Y-79750000D01*
X162350000Y-79750000D01*
X162350000Y-80150000D01*
X162750000Y-80150000D01*
G37*
G36*
X163150000Y-80150000D02*
G01*
X163150000Y-79750000D01*
X162750000Y-79750000D01*
X162750000Y-80150000D01*
X163150000Y-80150000D01*
G37*
G36*
X163950000Y-80150000D02*
G01*
X163950000Y-79750000D01*
X163550000Y-79750000D01*
X163550000Y-80150000D01*
X163950000Y-80150000D01*
G37*
G36*
X164350000Y-80150000D02*
G01*
X164350000Y-79750000D01*
X163950000Y-79750000D01*
X163950000Y-80150000D01*
X164350000Y-80150000D01*
G37*
G36*
X164750000Y-80150000D02*
G01*
X164750000Y-79750000D01*
X164350000Y-79750000D01*
X164350000Y-80150000D01*
X164750000Y-80150000D01*
G37*
G36*
X165150000Y-80150000D02*
G01*
X165150000Y-79750000D01*
X164750000Y-79750000D01*
X164750000Y-80150000D01*
X165150000Y-80150000D01*
G37*
G36*
X165550000Y-80150000D02*
G01*
X165550000Y-79750000D01*
X165150000Y-79750000D01*
X165150000Y-80150000D01*
X165550000Y-80150000D01*
G37*
G36*
X165950000Y-80150000D02*
G01*
X165950000Y-79750000D01*
X165550000Y-79750000D01*
X165550000Y-80150000D01*
X165950000Y-80150000D01*
G37*
G36*
X166350000Y-80150000D02*
G01*
X166350000Y-79750000D01*
X165950000Y-79750000D01*
X165950000Y-80150000D01*
X166350000Y-80150000D01*
G37*
G36*
X153550000Y-80550000D02*
G01*
X153550000Y-80150000D01*
X153150000Y-80150000D01*
X153150000Y-80550000D01*
X153550000Y-80550000D01*
G37*
G36*
X155950000Y-80550000D02*
G01*
X155950000Y-80150000D01*
X155550000Y-80150000D01*
X155550000Y-80550000D01*
X155950000Y-80550000D01*
G37*
G36*
X157150000Y-80550000D02*
G01*
X157150000Y-80150000D01*
X156750000Y-80150000D01*
X156750000Y-80550000D01*
X157150000Y-80550000D01*
G37*
G36*
X157550000Y-80550000D02*
G01*
X157550000Y-80150000D01*
X157150000Y-80150000D01*
X157150000Y-80550000D01*
X157550000Y-80550000D01*
G37*
G36*
X157950000Y-80550000D02*
G01*
X157950000Y-80150000D01*
X157550000Y-80150000D01*
X157550000Y-80550000D01*
X157950000Y-80550000D01*
G37*
G36*
X159550000Y-80550000D02*
G01*
X159550000Y-80150000D01*
X159150000Y-80150000D01*
X159150000Y-80550000D01*
X159550000Y-80550000D01*
G37*
G36*
X159950000Y-80550000D02*
G01*
X159950000Y-80150000D01*
X159550000Y-80150000D01*
X159550000Y-80550000D01*
X159950000Y-80550000D01*
G37*
G36*
X160750000Y-80550000D02*
G01*
X160750000Y-80150000D01*
X160350000Y-80150000D01*
X160350000Y-80550000D01*
X160750000Y-80550000D01*
G37*
G36*
X161550000Y-80550000D02*
G01*
X161550000Y-80150000D01*
X161150000Y-80150000D01*
X161150000Y-80550000D01*
X161550000Y-80550000D01*
G37*
G36*
X161950000Y-80550000D02*
G01*
X161950000Y-80150000D01*
X161550000Y-80150000D01*
X161550000Y-80550000D01*
X161950000Y-80550000D01*
G37*
G36*
X163150000Y-80550000D02*
G01*
X163150000Y-80150000D01*
X162750000Y-80150000D01*
X162750000Y-80550000D01*
X163150000Y-80550000D01*
G37*
G36*
X163950000Y-80550000D02*
G01*
X163950000Y-80150000D01*
X163550000Y-80150000D01*
X163550000Y-80550000D01*
X163950000Y-80550000D01*
G37*
G36*
X166350000Y-80550000D02*
G01*
X166350000Y-80150000D01*
X165950000Y-80150000D01*
X165950000Y-80550000D01*
X166350000Y-80550000D01*
G37*
G36*
X153550000Y-80950000D02*
G01*
X153550000Y-80550000D01*
X153150000Y-80550000D01*
X153150000Y-80950000D01*
X153550000Y-80950000D01*
G37*
G36*
X154350000Y-80950000D02*
G01*
X154350000Y-80550000D01*
X153950000Y-80550000D01*
X153950000Y-80950000D01*
X154350000Y-80950000D01*
G37*
G36*
X154750000Y-80950000D02*
G01*
X154750000Y-80550000D01*
X154350000Y-80550000D01*
X154350000Y-80950000D01*
X154750000Y-80950000D01*
G37*
G36*
X155150000Y-80950000D02*
G01*
X155150000Y-80550000D01*
X154750000Y-80550000D01*
X154750000Y-80950000D01*
X155150000Y-80950000D01*
G37*
G36*
X155950000Y-80950000D02*
G01*
X155950000Y-80550000D01*
X155550000Y-80550000D01*
X155550000Y-80950000D01*
X155950000Y-80950000D01*
G37*
G36*
X156750000Y-80950000D02*
G01*
X156750000Y-80550000D01*
X156350000Y-80550000D01*
X156350000Y-80950000D01*
X156750000Y-80950000D01*
G37*
G36*
X158350000Y-80950000D02*
G01*
X158350000Y-80550000D01*
X157950000Y-80550000D01*
X157950000Y-80950000D01*
X158350000Y-80950000D01*
G37*
G36*
X159150000Y-80950000D02*
G01*
X159150000Y-80550000D01*
X158750000Y-80550000D01*
X158750000Y-80950000D01*
X159150000Y-80950000D01*
G37*
G36*
X159550000Y-80950000D02*
G01*
X159550000Y-80550000D01*
X159150000Y-80550000D01*
X159150000Y-80950000D01*
X159550000Y-80950000D01*
G37*
G36*
X161950000Y-80950000D02*
G01*
X161950000Y-80550000D01*
X161550000Y-80550000D01*
X161550000Y-80950000D01*
X161950000Y-80950000D01*
G37*
G36*
X162350000Y-80950000D02*
G01*
X162350000Y-80550000D01*
X161950000Y-80550000D01*
X161950000Y-80950000D01*
X162350000Y-80950000D01*
G37*
G36*
X162750000Y-80950000D02*
G01*
X162750000Y-80550000D01*
X162350000Y-80550000D01*
X162350000Y-80950000D01*
X162750000Y-80950000D01*
G37*
G36*
X163950000Y-80950000D02*
G01*
X163950000Y-80550000D01*
X163550000Y-80550000D01*
X163550000Y-80950000D01*
X163950000Y-80950000D01*
G37*
G36*
X164750000Y-80950000D02*
G01*
X164750000Y-80550000D01*
X164350000Y-80550000D01*
X164350000Y-80950000D01*
X164750000Y-80950000D01*
G37*
G36*
X165150000Y-80950000D02*
G01*
X165150000Y-80550000D01*
X164750000Y-80550000D01*
X164750000Y-80950000D01*
X165150000Y-80950000D01*
G37*
G36*
X165550000Y-80950000D02*
G01*
X165550000Y-80550000D01*
X165150000Y-80550000D01*
X165150000Y-80950000D01*
X165550000Y-80950000D01*
G37*
G36*
X166350000Y-80950000D02*
G01*
X166350000Y-80550000D01*
X165950000Y-80550000D01*
X165950000Y-80950000D01*
X166350000Y-80950000D01*
G37*
G36*
X153550000Y-81350000D02*
G01*
X153550000Y-80950000D01*
X153150000Y-80950000D01*
X153150000Y-81350000D01*
X153550000Y-81350000D01*
G37*
G36*
X154350000Y-81350000D02*
G01*
X154350000Y-80950000D01*
X153950000Y-80950000D01*
X153950000Y-81350000D01*
X154350000Y-81350000D01*
G37*
G36*
X154750000Y-81350000D02*
G01*
X154750000Y-80950000D01*
X154350000Y-80950000D01*
X154350000Y-81350000D01*
X154750000Y-81350000D01*
G37*
G36*
X155150000Y-81350000D02*
G01*
X155150000Y-80950000D01*
X154750000Y-80950000D01*
X154750000Y-81350000D01*
X155150000Y-81350000D01*
G37*
G36*
X155950000Y-81350000D02*
G01*
X155950000Y-80950000D01*
X155550000Y-80950000D01*
X155550000Y-81350000D01*
X155950000Y-81350000D01*
G37*
G36*
X156750000Y-81350000D02*
G01*
X156750000Y-80950000D01*
X156350000Y-80950000D01*
X156350000Y-81350000D01*
X156750000Y-81350000D01*
G37*
G36*
X157150000Y-81350000D02*
G01*
X157150000Y-80950000D01*
X156750000Y-80950000D01*
X156750000Y-81350000D01*
X157150000Y-81350000D01*
G37*
G36*
X157950000Y-81350000D02*
G01*
X157950000Y-80950000D01*
X157550000Y-80950000D01*
X157550000Y-81350000D01*
X157950000Y-81350000D01*
G37*
G36*
X159550000Y-81350000D02*
G01*
X159550000Y-80950000D01*
X159150000Y-80950000D01*
X159150000Y-81350000D01*
X159550000Y-81350000D01*
G37*
G36*
X160750000Y-81350000D02*
G01*
X160750000Y-80950000D01*
X160350000Y-80950000D01*
X160350000Y-81350000D01*
X160750000Y-81350000D01*
G37*
G36*
X161950000Y-81350000D02*
G01*
X161950000Y-80950000D01*
X161550000Y-80950000D01*
X161550000Y-81350000D01*
X161950000Y-81350000D01*
G37*
G36*
X162750000Y-81350000D02*
G01*
X162750000Y-80950000D01*
X162350000Y-80950000D01*
X162350000Y-81350000D01*
X162750000Y-81350000D01*
G37*
G36*
X163150000Y-81350000D02*
G01*
X163150000Y-80950000D01*
X162750000Y-80950000D01*
X162750000Y-81350000D01*
X163150000Y-81350000D01*
G37*
G36*
X163950000Y-81350000D02*
G01*
X163950000Y-80950000D01*
X163550000Y-80950000D01*
X163550000Y-81350000D01*
X163950000Y-81350000D01*
G37*
G36*
X164750000Y-81350000D02*
G01*
X164750000Y-80950000D01*
X164350000Y-80950000D01*
X164350000Y-81350000D01*
X164750000Y-81350000D01*
G37*
G36*
X165150000Y-81350000D02*
G01*
X165150000Y-80950000D01*
X164750000Y-80950000D01*
X164750000Y-81350000D01*
X165150000Y-81350000D01*
G37*
G36*
X165550000Y-81350000D02*
G01*
X165550000Y-80950000D01*
X165150000Y-80950000D01*
X165150000Y-81350000D01*
X165550000Y-81350000D01*
G37*
G36*
X166350000Y-81350000D02*
G01*
X166350000Y-80950000D01*
X165950000Y-80950000D01*
X165950000Y-81350000D01*
X166350000Y-81350000D01*
G37*
G36*
X153550000Y-81750000D02*
G01*
X153550000Y-81350000D01*
X153150000Y-81350000D01*
X153150000Y-81750000D01*
X153550000Y-81750000D01*
G37*
G36*
X154350000Y-81750000D02*
G01*
X154350000Y-81350000D01*
X153950000Y-81350000D01*
X153950000Y-81750000D01*
X154350000Y-81750000D01*
G37*
G36*
X154750000Y-81750000D02*
G01*
X154750000Y-81350000D01*
X154350000Y-81350000D01*
X154350000Y-81750000D01*
X154750000Y-81750000D01*
G37*
G36*
X155150000Y-81750000D02*
G01*
X155150000Y-81350000D01*
X154750000Y-81350000D01*
X154750000Y-81750000D01*
X155150000Y-81750000D01*
G37*
G36*
X155950000Y-81750000D02*
G01*
X155950000Y-81350000D01*
X155550000Y-81350000D01*
X155550000Y-81750000D01*
X155950000Y-81750000D01*
G37*
G36*
X156750000Y-81750000D02*
G01*
X156750000Y-81350000D01*
X156350000Y-81350000D01*
X156350000Y-81750000D01*
X156750000Y-81750000D01*
G37*
G36*
X157150000Y-81750000D02*
G01*
X157150000Y-81350000D01*
X156750000Y-81350000D01*
X156750000Y-81750000D01*
X157150000Y-81750000D01*
G37*
G36*
X157950000Y-81750000D02*
G01*
X157950000Y-81350000D01*
X157550000Y-81350000D01*
X157550000Y-81750000D01*
X157950000Y-81750000D01*
G37*
G36*
X158350000Y-81750000D02*
G01*
X158350000Y-81350000D01*
X157950000Y-81350000D01*
X157950000Y-81750000D01*
X158350000Y-81750000D01*
G37*
G36*
X158750000Y-81750000D02*
G01*
X158750000Y-81350000D01*
X158350000Y-81350000D01*
X158350000Y-81750000D01*
X158750000Y-81750000D01*
G37*
G36*
X159150000Y-81750000D02*
G01*
X159150000Y-81350000D01*
X158750000Y-81350000D01*
X158750000Y-81750000D01*
X159150000Y-81750000D01*
G37*
G36*
X159550000Y-81750000D02*
G01*
X159550000Y-81350000D01*
X159150000Y-81350000D01*
X159150000Y-81750000D01*
X159550000Y-81750000D01*
G37*
G36*
X159950000Y-81750000D02*
G01*
X159950000Y-81350000D01*
X159550000Y-81350000D01*
X159550000Y-81750000D01*
X159950000Y-81750000D01*
G37*
G36*
X160350000Y-81750000D02*
G01*
X160350000Y-81350000D01*
X159950000Y-81350000D01*
X159950000Y-81750000D01*
X160350000Y-81750000D01*
G37*
G36*
X161550000Y-81750000D02*
G01*
X161550000Y-81350000D01*
X161150000Y-81350000D01*
X161150000Y-81750000D01*
X161550000Y-81750000D01*
G37*
G36*
X162350000Y-81750000D02*
G01*
X162350000Y-81350000D01*
X161950000Y-81350000D01*
X161950000Y-81750000D01*
X162350000Y-81750000D01*
G37*
G36*
X163950000Y-81750000D02*
G01*
X163950000Y-81350000D01*
X163550000Y-81350000D01*
X163550000Y-81750000D01*
X163950000Y-81750000D01*
G37*
G36*
X164750000Y-81750000D02*
G01*
X164750000Y-81350000D01*
X164350000Y-81350000D01*
X164350000Y-81750000D01*
X164750000Y-81750000D01*
G37*
G36*
X165150000Y-81750000D02*
G01*
X165150000Y-81350000D01*
X164750000Y-81350000D01*
X164750000Y-81750000D01*
X165150000Y-81750000D01*
G37*
G36*
X165550000Y-81750000D02*
G01*
X165550000Y-81350000D01*
X165150000Y-81350000D01*
X165150000Y-81750000D01*
X165550000Y-81750000D01*
G37*
G36*
X166350000Y-81750000D02*
G01*
X166350000Y-81350000D01*
X165950000Y-81350000D01*
X165950000Y-81750000D01*
X166350000Y-81750000D01*
G37*
G36*
X153550000Y-82150000D02*
G01*
X153550000Y-81750000D01*
X153150000Y-81750000D01*
X153150000Y-82150000D01*
X153550000Y-82150000D01*
G37*
G36*
X155950000Y-82150000D02*
G01*
X155950000Y-81750000D01*
X155550000Y-81750000D01*
X155550000Y-82150000D01*
X155950000Y-82150000D01*
G37*
G36*
X156750000Y-82150000D02*
G01*
X156750000Y-81750000D01*
X156350000Y-81750000D01*
X156350000Y-82150000D01*
X156750000Y-82150000D01*
G37*
G36*
X158750000Y-82150000D02*
G01*
X158750000Y-81750000D01*
X158350000Y-81750000D01*
X158350000Y-82150000D01*
X158750000Y-82150000D01*
G37*
G36*
X159150000Y-82150000D02*
G01*
X159150000Y-81750000D01*
X158750000Y-81750000D01*
X158750000Y-82150000D01*
X159150000Y-82150000D01*
G37*
G36*
X160350000Y-82150000D02*
G01*
X160350000Y-81750000D01*
X159950000Y-81750000D01*
X159950000Y-82150000D01*
X160350000Y-82150000D01*
G37*
G36*
X161150000Y-82150000D02*
G01*
X161150000Y-81750000D01*
X160750000Y-81750000D01*
X160750000Y-82150000D01*
X161150000Y-82150000D01*
G37*
G36*
X162350000Y-82150000D02*
G01*
X162350000Y-81750000D01*
X161950000Y-81750000D01*
X161950000Y-82150000D01*
X162350000Y-82150000D01*
G37*
G36*
X162750000Y-82150000D02*
G01*
X162750000Y-81750000D01*
X162350000Y-81750000D01*
X162350000Y-82150000D01*
X162750000Y-82150000D01*
G37*
G36*
X163150000Y-82150000D02*
G01*
X163150000Y-81750000D01*
X162750000Y-81750000D01*
X162750000Y-82150000D01*
X163150000Y-82150000D01*
G37*
G36*
X163950000Y-82150000D02*
G01*
X163950000Y-81750000D01*
X163550000Y-81750000D01*
X163550000Y-82150000D01*
X163950000Y-82150000D01*
G37*
G36*
X166350000Y-82150000D02*
G01*
X166350000Y-81750000D01*
X165950000Y-81750000D01*
X165950000Y-82150000D01*
X166350000Y-82150000D01*
G37*
G36*
X153550000Y-82550000D02*
G01*
X153550000Y-82150000D01*
X153150000Y-82150000D01*
X153150000Y-82550000D01*
X153550000Y-82550000D01*
G37*
G36*
X153950000Y-82550000D02*
G01*
X153950000Y-82150000D01*
X153550000Y-82150000D01*
X153550000Y-82550000D01*
X153950000Y-82550000D01*
G37*
G36*
X154350000Y-82550000D02*
G01*
X154350000Y-82150000D01*
X153950000Y-82150000D01*
X153950000Y-82550000D01*
X154350000Y-82550000D01*
G37*
G36*
X154750000Y-82550000D02*
G01*
X154750000Y-82150000D01*
X154350000Y-82150000D01*
X154350000Y-82550000D01*
X154750000Y-82550000D01*
G37*
G36*
X155150000Y-82550000D02*
G01*
X155150000Y-82150000D01*
X154750000Y-82150000D01*
X154750000Y-82550000D01*
X155150000Y-82550000D01*
G37*
G36*
X155550000Y-82550000D02*
G01*
X155550000Y-82150000D01*
X155150000Y-82150000D01*
X155150000Y-82550000D01*
X155550000Y-82550000D01*
G37*
G36*
X155950000Y-82550000D02*
G01*
X155950000Y-82150000D01*
X155550000Y-82150000D01*
X155550000Y-82550000D01*
X155950000Y-82550000D01*
G37*
G36*
X156750000Y-82550000D02*
G01*
X156750000Y-82150000D01*
X156350000Y-82150000D01*
X156350000Y-82550000D01*
X156750000Y-82550000D01*
G37*
G36*
X157550000Y-82550000D02*
G01*
X157550000Y-82150000D01*
X157150000Y-82150000D01*
X157150000Y-82550000D01*
X157550000Y-82550000D01*
G37*
G36*
X158350000Y-82550000D02*
G01*
X158350000Y-82150000D01*
X157950000Y-82150000D01*
X157950000Y-82550000D01*
X158350000Y-82550000D01*
G37*
G36*
X159150000Y-82550000D02*
G01*
X159150000Y-82150000D01*
X158750000Y-82150000D01*
X158750000Y-82550000D01*
X159150000Y-82550000D01*
G37*
G36*
X159950000Y-82550000D02*
G01*
X159950000Y-82150000D01*
X159550000Y-82150000D01*
X159550000Y-82550000D01*
X159950000Y-82550000D01*
G37*
G36*
X160750000Y-82550000D02*
G01*
X160750000Y-82150000D01*
X160350000Y-82150000D01*
X160350000Y-82550000D01*
X160750000Y-82550000D01*
G37*
G36*
X161550000Y-82550000D02*
G01*
X161550000Y-82150000D01*
X161150000Y-82150000D01*
X161150000Y-82550000D01*
X161550000Y-82550000D01*
G37*
G36*
X162350000Y-82550000D02*
G01*
X162350000Y-82150000D01*
X161950000Y-82150000D01*
X161950000Y-82550000D01*
X162350000Y-82550000D01*
G37*
G36*
X163150000Y-82550000D02*
G01*
X163150000Y-82150000D01*
X162750000Y-82150000D01*
X162750000Y-82550000D01*
X163150000Y-82550000D01*
G37*
G36*
X163950000Y-82550000D02*
G01*
X163950000Y-82150000D01*
X163550000Y-82150000D01*
X163550000Y-82550000D01*
X163950000Y-82550000D01*
G37*
G36*
X164350000Y-82550000D02*
G01*
X164350000Y-82150000D01*
X163950000Y-82150000D01*
X163950000Y-82550000D01*
X164350000Y-82550000D01*
G37*
G36*
X164750000Y-82550000D02*
G01*
X164750000Y-82150000D01*
X164350000Y-82150000D01*
X164350000Y-82550000D01*
X164750000Y-82550000D01*
G37*
G36*
X165150000Y-82550000D02*
G01*
X165150000Y-82150000D01*
X164750000Y-82150000D01*
X164750000Y-82550000D01*
X165150000Y-82550000D01*
G37*
G36*
X165550000Y-82550000D02*
G01*
X165550000Y-82150000D01*
X165150000Y-82150000D01*
X165150000Y-82550000D01*
X165550000Y-82550000D01*
G37*
G36*
X165950000Y-82550000D02*
G01*
X165950000Y-82150000D01*
X165550000Y-82150000D01*
X165550000Y-82550000D01*
X165950000Y-82550000D01*
G37*
G36*
X166350000Y-82550000D02*
G01*
X166350000Y-82150000D01*
X165950000Y-82150000D01*
X165950000Y-82550000D01*
X166350000Y-82550000D01*
G37*
G36*
X156750000Y-82950000D02*
G01*
X156750000Y-82550000D01*
X156350000Y-82550000D01*
X156350000Y-82950000D01*
X156750000Y-82950000D01*
G37*
G36*
X157950000Y-82950000D02*
G01*
X157950000Y-82550000D01*
X157550000Y-82550000D01*
X157550000Y-82950000D01*
X157950000Y-82950000D01*
G37*
G36*
X158350000Y-82950000D02*
G01*
X158350000Y-82550000D01*
X157950000Y-82550000D01*
X157950000Y-82950000D01*
X158350000Y-82950000D01*
G37*
G36*
X158750000Y-82950000D02*
G01*
X158750000Y-82550000D01*
X158350000Y-82550000D01*
X158350000Y-82950000D01*
X158750000Y-82950000D01*
G37*
G36*
X159950000Y-82950000D02*
G01*
X159950000Y-82550000D01*
X159550000Y-82550000D01*
X159550000Y-82950000D01*
X159950000Y-82950000D01*
G37*
G36*
X160350000Y-82950000D02*
G01*
X160350000Y-82550000D01*
X159950000Y-82550000D01*
X159950000Y-82950000D01*
X160350000Y-82950000D01*
G37*
G36*
X160750000Y-82950000D02*
G01*
X160750000Y-82550000D01*
X160350000Y-82550000D01*
X160350000Y-82950000D01*
X160750000Y-82950000D01*
G37*
G36*
X161150000Y-82950000D02*
G01*
X161150000Y-82550000D01*
X160750000Y-82550000D01*
X160750000Y-82950000D01*
X161150000Y-82950000D01*
G37*
G36*
X161550000Y-82950000D02*
G01*
X161550000Y-82550000D01*
X161150000Y-82550000D01*
X161150000Y-82950000D01*
X161550000Y-82950000D01*
G37*
G36*
X161950000Y-82950000D02*
G01*
X161950000Y-82550000D01*
X161550000Y-82550000D01*
X161550000Y-82950000D01*
X161950000Y-82950000D01*
G37*
G36*
X162750000Y-82950000D02*
G01*
X162750000Y-82550000D01*
X162350000Y-82550000D01*
X162350000Y-82950000D01*
X162750000Y-82950000D01*
G37*
G36*
X153550000Y-83350000D02*
G01*
X153550000Y-82950000D01*
X153150000Y-82950000D01*
X153150000Y-83350000D01*
X153550000Y-83350000D01*
G37*
G36*
X154350000Y-83350000D02*
G01*
X154350000Y-82950000D01*
X153950000Y-82950000D01*
X153950000Y-83350000D01*
X154350000Y-83350000D01*
G37*
G36*
X154750000Y-83350000D02*
G01*
X154750000Y-82950000D01*
X154350000Y-82950000D01*
X154350000Y-83350000D01*
X154750000Y-83350000D01*
G37*
G36*
X155150000Y-83350000D02*
G01*
X155150000Y-82950000D01*
X154750000Y-82950000D01*
X154750000Y-83350000D01*
X155150000Y-83350000D01*
G37*
G36*
X155550000Y-83350000D02*
G01*
X155550000Y-82950000D01*
X155150000Y-82950000D01*
X155150000Y-83350000D01*
X155550000Y-83350000D01*
G37*
G36*
X155950000Y-83350000D02*
G01*
X155950000Y-82950000D01*
X155550000Y-82950000D01*
X155550000Y-83350000D01*
X155950000Y-83350000D01*
G37*
G36*
X158350000Y-83350000D02*
G01*
X158350000Y-82950000D01*
X157950000Y-82950000D01*
X157950000Y-83350000D01*
X158350000Y-83350000D01*
G37*
G36*
X159150000Y-83350000D02*
G01*
X159150000Y-82950000D01*
X158750000Y-82950000D01*
X158750000Y-83350000D01*
X159150000Y-83350000D01*
G37*
G36*
X161150000Y-83350000D02*
G01*
X161150000Y-82950000D01*
X160750000Y-82950000D01*
X160750000Y-83350000D01*
X161150000Y-83350000D01*
G37*
G36*
X162350000Y-83350000D02*
G01*
X162350000Y-82950000D01*
X161950000Y-82950000D01*
X161950000Y-83350000D01*
X162350000Y-83350000D01*
G37*
G36*
X162750000Y-83350000D02*
G01*
X162750000Y-82950000D01*
X162350000Y-82950000D01*
X162350000Y-83350000D01*
X162750000Y-83350000D01*
G37*
G36*
X163150000Y-83350000D02*
G01*
X163150000Y-82950000D01*
X162750000Y-82950000D01*
X162750000Y-83350000D01*
X163150000Y-83350000D01*
G37*
G36*
X163950000Y-83350000D02*
G01*
X163950000Y-82950000D01*
X163550000Y-82950000D01*
X163550000Y-83350000D01*
X163950000Y-83350000D01*
G37*
G36*
X164350000Y-83350000D02*
G01*
X164350000Y-82950000D01*
X163950000Y-82950000D01*
X163950000Y-83350000D01*
X164350000Y-83350000D01*
G37*
G36*
X164750000Y-83350000D02*
G01*
X164750000Y-82950000D01*
X164350000Y-82950000D01*
X164350000Y-83350000D01*
X164750000Y-83350000D01*
G37*
G36*
X165150000Y-83350000D02*
G01*
X165150000Y-82950000D01*
X164750000Y-82950000D01*
X164750000Y-83350000D01*
X165150000Y-83350000D01*
G37*
G36*
X165550000Y-83350000D02*
G01*
X165550000Y-82950000D01*
X165150000Y-82950000D01*
X165150000Y-83350000D01*
X165550000Y-83350000D01*
G37*
G36*
X154750000Y-83750000D02*
G01*
X154750000Y-83350000D01*
X154350000Y-83350000D01*
X154350000Y-83750000D01*
X154750000Y-83750000D01*
G37*
G36*
X156350000Y-83750000D02*
G01*
X156350000Y-83350000D01*
X155950000Y-83350000D01*
X155950000Y-83750000D01*
X156350000Y-83750000D01*
G37*
G36*
X156750000Y-83750000D02*
G01*
X156750000Y-83350000D01*
X156350000Y-83350000D01*
X156350000Y-83750000D01*
X156750000Y-83750000D01*
G37*
G36*
X157150000Y-83750000D02*
G01*
X157150000Y-83350000D01*
X156750000Y-83350000D01*
X156750000Y-83750000D01*
X157150000Y-83750000D01*
G37*
G36*
X158350000Y-83750000D02*
G01*
X158350000Y-83350000D01*
X157950000Y-83350000D01*
X157950000Y-83750000D01*
X158350000Y-83750000D01*
G37*
G36*
X158750000Y-83750000D02*
G01*
X158750000Y-83350000D01*
X158350000Y-83350000D01*
X158350000Y-83750000D01*
X158750000Y-83750000D01*
G37*
G36*
X159550000Y-83750000D02*
G01*
X159550000Y-83350000D01*
X159150000Y-83350000D01*
X159150000Y-83750000D01*
X159550000Y-83750000D01*
G37*
G36*
X159950000Y-83750000D02*
G01*
X159950000Y-83350000D01*
X159550000Y-83350000D01*
X159550000Y-83750000D01*
X159950000Y-83750000D01*
G37*
G36*
X160350000Y-83750000D02*
G01*
X160350000Y-83350000D01*
X159950000Y-83350000D01*
X159950000Y-83750000D01*
X160350000Y-83750000D01*
G37*
G36*
X160750000Y-83750000D02*
G01*
X160750000Y-83350000D01*
X160350000Y-83350000D01*
X160350000Y-83750000D01*
X160750000Y-83750000D01*
G37*
G36*
X161550000Y-83750000D02*
G01*
X161550000Y-83350000D01*
X161150000Y-83350000D01*
X161150000Y-83750000D01*
X161550000Y-83750000D01*
G37*
G36*
X162750000Y-83750000D02*
G01*
X162750000Y-83350000D01*
X162350000Y-83350000D01*
X162350000Y-83750000D01*
X162750000Y-83750000D01*
G37*
G36*
X163550000Y-83750000D02*
G01*
X163550000Y-83350000D01*
X163150000Y-83350000D01*
X163150000Y-83750000D01*
X163550000Y-83750000D01*
G37*
G36*
X163950000Y-83750000D02*
G01*
X163950000Y-83350000D01*
X163550000Y-83350000D01*
X163550000Y-83750000D01*
X163950000Y-83750000D01*
G37*
G36*
X165150000Y-83750000D02*
G01*
X165150000Y-83350000D01*
X164750000Y-83350000D01*
X164750000Y-83750000D01*
X165150000Y-83750000D01*
G37*
G36*
X165550000Y-83750000D02*
G01*
X165550000Y-83350000D01*
X165150000Y-83350000D01*
X165150000Y-83750000D01*
X165550000Y-83750000D01*
G37*
G36*
X165950000Y-83750000D02*
G01*
X165950000Y-83350000D01*
X165550000Y-83350000D01*
X165550000Y-83750000D01*
X165950000Y-83750000D01*
G37*
G36*
X154350000Y-84150000D02*
G01*
X154350000Y-83750000D01*
X153950000Y-83750000D01*
X153950000Y-84150000D01*
X154350000Y-84150000D01*
G37*
G36*
X155950000Y-84150000D02*
G01*
X155950000Y-83750000D01*
X155550000Y-83750000D01*
X155550000Y-84150000D01*
X155950000Y-84150000D01*
G37*
G36*
X156750000Y-84150000D02*
G01*
X156750000Y-83750000D01*
X156350000Y-83750000D01*
X156350000Y-84150000D01*
X156750000Y-84150000D01*
G37*
G36*
X157550000Y-84150000D02*
G01*
X157550000Y-83750000D01*
X157150000Y-83750000D01*
X157150000Y-84150000D01*
X157550000Y-84150000D01*
G37*
G36*
X157950000Y-84150000D02*
G01*
X157950000Y-83750000D01*
X157550000Y-83750000D01*
X157550000Y-84150000D01*
X157950000Y-84150000D01*
G37*
G36*
X158750000Y-84150000D02*
G01*
X158750000Y-83750000D01*
X158350000Y-83750000D01*
X158350000Y-84150000D01*
X158750000Y-84150000D01*
G37*
G36*
X159150000Y-84150000D02*
G01*
X159150000Y-83750000D01*
X158750000Y-83750000D01*
X158750000Y-84150000D01*
X159150000Y-84150000D01*
G37*
G36*
X160350000Y-84150000D02*
G01*
X160350000Y-83750000D01*
X159950000Y-83750000D01*
X159950000Y-84150000D01*
X160350000Y-84150000D01*
G37*
G36*
X161150000Y-84150000D02*
G01*
X161150000Y-83750000D01*
X160750000Y-83750000D01*
X160750000Y-84150000D01*
X161150000Y-84150000D01*
G37*
G36*
X162350000Y-84150000D02*
G01*
X162350000Y-83750000D01*
X161950000Y-83750000D01*
X161950000Y-84150000D01*
X162350000Y-84150000D01*
G37*
G36*
X164350000Y-84150000D02*
G01*
X164350000Y-83750000D01*
X163950000Y-83750000D01*
X163950000Y-84150000D01*
X164350000Y-84150000D01*
G37*
G36*
X165150000Y-84150000D02*
G01*
X165150000Y-83750000D01*
X164750000Y-83750000D01*
X164750000Y-84150000D01*
X165150000Y-84150000D01*
G37*
G36*
X153550000Y-84550000D02*
G01*
X153550000Y-84150000D01*
X153150000Y-84150000D01*
X153150000Y-84550000D01*
X153550000Y-84550000D01*
G37*
G36*
X154350000Y-84550000D02*
G01*
X154350000Y-84150000D01*
X153950000Y-84150000D01*
X153950000Y-84550000D01*
X154350000Y-84550000D01*
G37*
G36*
X155550000Y-84550000D02*
G01*
X155550000Y-84150000D01*
X155150000Y-84150000D01*
X155150000Y-84550000D01*
X155550000Y-84550000D01*
G37*
G36*
X156350000Y-84550000D02*
G01*
X156350000Y-84150000D01*
X155950000Y-84150000D01*
X155950000Y-84550000D01*
X156350000Y-84550000D01*
G37*
G36*
X156750000Y-84550000D02*
G01*
X156750000Y-84150000D01*
X156350000Y-84150000D01*
X156350000Y-84550000D01*
X156750000Y-84550000D01*
G37*
G36*
X157550000Y-84550000D02*
G01*
X157550000Y-84150000D01*
X157150000Y-84150000D01*
X157150000Y-84550000D01*
X157550000Y-84550000D01*
G37*
G36*
X157950000Y-84550000D02*
G01*
X157950000Y-84150000D01*
X157550000Y-84150000D01*
X157550000Y-84550000D01*
X157950000Y-84550000D01*
G37*
G36*
X158750000Y-84550000D02*
G01*
X158750000Y-84150000D01*
X158350000Y-84150000D01*
X158350000Y-84550000D01*
X158750000Y-84550000D01*
G37*
G36*
X159950000Y-84550000D02*
G01*
X159950000Y-84150000D01*
X159550000Y-84150000D01*
X159550000Y-84550000D01*
X159950000Y-84550000D01*
G37*
G36*
X160350000Y-84550000D02*
G01*
X160350000Y-84150000D01*
X159950000Y-84150000D01*
X159950000Y-84550000D01*
X160350000Y-84550000D01*
G37*
G36*
X160750000Y-84550000D02*
G01*
X160750000Y-84150000D01*
X160350000Y-84150000D01*
X160350000Y-84550000D01*
X160750000Y-84550000D01*
G37*
G36*
X161150000Y-84550000D02*
G01*
X161150000Y-84150000D01*
X160750000Y-84150000D01*
X160750000Y-84550000D01*
X161150000Y-84550000D01*
G37*
G36*
X161550000Y-84550000D02*
G01*
X161550000Y-84150000D01*
X161150000Y-84150000D01*
X161150000Y-84550000D01*
X161550000Y-84550000D01*
G37*
G36*
X163550000Y-84550000D02*
G01*
X163550000Y-84150000D01*
X163150000Y-84150000D01*
X163150000Y-84550000D01*
X163550000Y-84550000D01*
G37*
G36*
X164350000Y-84550000D02*
G01*
X164350000Y-84150000D01*
X163950000Y-84150000D01*
X163950000Y-84550000D01*
X164350000Y-84550000D01*
G37*
G36*
X164750000Y-84550000D02*
G01*
X164750000Y-84150000D01*
X164350000Y-84150000D01*
X164350000Y-84550000D01*
X164750000Y-84550000D01*
G37*
G36*
X165150000Y-84550000D02*
G01*
X165150000Y-84150000D01*
X164750000Y-84150000D01*
X164750000Y-84550000D01*
X165150000Y-84550000D01*
G37*
G36*
X165550000Y-84550000D02*
G01*
X165550000Y-84150000D01*
X165150000Y-84150000D01*
X165150000Y-84550000D01*
X165550000Y-84550000D01*
G37*
G36*
X165950000Y-84550000D02*
G01*
X165950000Y-84150000D01*
X165550000Y-84150000D01*
X165550000Y-84550000D01*
X165950000Y-84550000D01*
G37*
G36*
X153550000Y-84950000D02*
G01*
X153550000Y-84550000D01*
X153150000Y-84550000D01*
X153150000Y-84950000D01*
X153550000Y-84950000D01*
G37*
G36*
X153950000Y-84950000D02*
G01*
X153950000Y-84550000D01*
X153550000Y-84550000D01*
X153550000Y-84950000D01*
X153950000Y-84950000D01*
G37*
G36*
X154350000Y-84950000D02*
G01*
X154350000Y-84550000D01*
X153950000Y-84550000D01*
X153950000Y-84950000D01*
X154350000Y-84950000D01*
G37*
G36*
X155550000Y-84950000D02*
G01*
X155550000Y-84550000D01*
X155150000Y-84550000D01*
X155150000Y-84950000D01*
X155550000Y-84950000D01*
G37*
G36*
X155950000Y-84950000D02*
G01*
X155950000Y-84550000D01*
X155550000Y-84550000D01*
X155550000Y-84950000D01*
X155950000Y-84950000D01*
G37*
G36*
X156350000Y-84950000D02*
G01*
X156350000Y-84550000D01*
X155950000Y-84550000D01*
X155950000Y-84950000D01*
X156350000Y-84950000D01*
G37*
G36*
X157150000Y-84950000D02*
G01*
X157150000Y-84550000D01*
X156750000Y-84550000D01*
X156750000Y-84950000D01*
X157150000Y-84950000D01*
G37*
G36*
X159150000Y-84950000D02*
G01*
X159150000Y-84550000D01*
X158750000Y-84550000D01*
X158750000Y-84950000D01*
X159150000Y-84950000D01*
G37*
G36*
X159950000Y-84950000D02*
G01*
X159950000Y-84550000D01*
X159550000Y-84550000D01*
X159550000Y-84950000D01*
X159950000Y-84950000D01*
G37*
G36*
X161150000Y-84950000D02*
G01*
X161150000Y-84550000D01*
X160750000Y-84550000D01*
X160750000Y-84950000D01*
X161150000Y-84950000D01*
G37*
G36*
X161550000Y-84950000D02*
G01*
X161550000Y-84550000D01*
X161150000Y-84550000D01*
X161150000Y-84950000D01*
X161550000Y-84950000D01*
G37*
G36*
X161950000Y-84950000D02*
G01*
X161950000Y-84550000D01*
X161550000Y-84550000D01*
X161550000Y-84950000D01*
X161950000Y-84950000D01*
G37*
G36*
X162350000Y-84950000D02*
G01*
X162350000Y-84550000D01*
X161950000Y-84550000D01*
X161950000Y-84950000D01*
X162350000Y-84950000D01*
G37*
G36*
X164350000Y-84950000D02*
G01*
X164350000Y-84550000D01*
X163950000Y-84550000D01*
X163950000Y-84950000D01*
X164350000Y-84950000D01*
G37*
G36*
X165150000Y-84950000D02*
G01*
X165150000Y-84550000D01*
X164750000Y-84550000D01*
X164750000Y-84950000D01*
X165150000Y-84950000D01*
G37*
G36*
X155550000Y-85350000D02*
G01*
X155550000Y-84950000D01*
X155150000Y-84950000D01*
X155150000Y-85350000D01*
X155550000Y-85350000D01*
G37*
G36*
X156750000Y-85350000D02*
G01*
X156750000Y-84950000D01*
X156350000Y-84950000D01*
X156350000Y-85350000D01*
X156750000Y-85350000D01*
G37*
G36*
X158350000Y-85350000D02*
G01*
X158350000Y-84950000D01*
X157950000Y-84950000D01*
X157950000Y-85350000D01*
X158350000Y-85350000D01*
G37*
G36*
X158750000Y-85350000D02*
G01*
X158750000Y-84950000D01*
X158350000Y-84950000D01*
X158350000Y-85350000D01*
X158750000Y-85350000D01*
G37*
G36*
X159550000Y-85350000D02*
G01*
X159550000Y-84950000D01*
X159150000Y-84950000D01*
X159150000Y-85350000D01*
X159550000Y-85350000D01*
G37*
G36*
X160750000Y-85350000D02*
G01*
X160750000Y-84950000D01*
X160350000Y-84950000D01*
X160350000Y-85350000D01*
X160750000Y-85350000D01*
G37*
G36*
X163150000Y-85350000D02*
G01*
X163150000Y-84950000D01*
X162750000Y-84950000D01*
X162750000Y-85350000D01*
X163150000Y-85350000D01*
G37*
G36*
X163550000Y-85350000D02*
G01*
X163550000Y-84950000D01*
X163150000Y-84950000D01*
X163150000Y-85350000D01*
X163550000Y-85350000D01*
G37*
G36*
X164750000Y-85350000D02*
G01*
X164750000Y-84950000D01*
X164350000Y-84950000D01*
X164350000Y-85350000D01*
X164750000Y-85350000D01*
G37*
G36*
X165150000Y-85350000D02*
G01*
X165150000Y-84950000D01*
X164750000Y-84950000D01*
X164750000Y-85350000D01*
X165150000Y-85350000D01*
G37*
G36*
X165950000Y-85350000D02*
G01*
X165950000Y-84950000D01*
X165550000Y-84950000D01*
X165550000Y-85350000D01*
X165950000Y-85350000D01*
G37*
G36*
X166350000Y-85350000D02*
G01*
X166350000Y-84950000D01*
X165950000Y-84950000D01*
X165950000Y-85350000D01*
X166350000Y-85350000D01*
G37*
G36*
X154750000Y-85750000D02*
G01*
X154750000Y-85350000D01*
X154350000Y-85350000D01*
X154350000Y-85750000D01*
X154750000Y-85750000D01*
G37*
G36*
X155150000Y-85750000D02*
G01*
X155150000Y-85350000D01*
X154750000Y-85350000D01*
X154750000Y-85750000D01*
X155150000Y-85750000D01*
G37*
G36*
X155950000Y-85750000D02*
G01*
X155950000Y-85350000D01*
X155550000Y-85350000D01*
X155550000Y-85750000D01*
X155950000Y-85750000D01*
G37*
G36*
X156350000Y-85750000D02*
G01*
X156350000Y-85350000D01*
X155950000Y-85350000D01*
X155950000Y-85750000D01*
X156350000Y-85750000D01*
G37*
G36*
X156750000Y-85750000D02*
G01*
X156750000Y-85350000D01*
X156350000Y-85350000D01*
X156350000Y-85750000D01*
X156750000Y-85750000D01*
G37*
G36*
X157950000Y-85750000D02*
G01*
X157950000Y-85350000D01*
X157550000Y-85350000D01*
X157550000Y-85750000D01*
X157950000Y-85750000D01*
G37*
G36*
X158750000Y-85750000D02*
G01*
X158750000Y-85350000D01*
X158350000Y-85350000D01*
X158350000Y-85750000D01*
X158750000Y-85750000D01*
G37*
G36*
X159550000Y-85750000D02*
G01*
X159550000Y-85350000D01*
X159150000Y-85350000D01*
X159150000Y-85750000D01*
X159550000Y-85750000D01*
G37*
G36*
X159950000Y-85750000D02*
G01*
X159950000Y-85350000D01*
X159550000Y-85350000D01*
X159550000Y-85750000D01*
X159950000Y-85750000D01*
G37*
G36*
X160750000Y-85750000D02*
G01*
X160750000Y-85350000D01*
X160350000Y-85350000D01*
X160350000Y-85750000D01*
X160750000Y-85750000D01*
G37*
G36*
X161550000Y-85750000D02*
G01*
X161550000Y-85350000D01*
X161150000Y-85350000D01*
X161150000Y-85750000D01*
X161550000Y-85750000D01*
G37*
G36*
X162350000Y-85750000D02*
G01*
X162350000Y-85350000D01*
X161950000Y-85350000D01*
X161950000Y-85750000D01*
X162350000Y-85750000D01*
G37*
G36*
X163550000Y-85750000D02*
G01*
X163550000Y-85350000D01*
X163150000Y-85350000D01*
X163150000Y-85750000D01*
X163550000Y-85750000D01*
G37*
G36*
X164350000Y-85750000D02*
G01*
X164350000Y-85350000D01*
X163950000Y-85350000D01*
X163950000Y-85750000D01*
X164350000Y-85750000D01*
G37*
G36*
X164750000Y-85750000D02*
G01*
X164750000Y-85350000D01*
X164350000Y-85350000D01*
X164350000Y-85750000D01*
X164750000Y-85750000D01*
G37*
G36*
X165950000Y-85750000D02*
G01*
X165950000Y-85350000D01*
X165550000Y-85350000D01*
X165550000Y-85750000D01*
X165950000Y-85750000D01*
G37*
G36*
X153550000Y-86150000D02*
G01*
X153550000Y-85750000D01*
X153150000Y-85750000D01*
X153150000Y-86150000D01*
X153550000Y-86150000D01*
G37*
G36*
X153950000Y-86150000D02*
G01*
X153950000Y-85750000D01*
X153550000Y-85750000D01*
X153550000Y-86150000D01*
X153950000Y-86150000D01*
G37*
G36*
X154350000Y-86150000D02*
G01*
X154350000Y-85750000D01*
X153950000Y-85750000D01*
X153950000Y-86150000D01*
X154350000Y-86150000D01*
G37*
G36*
X154750000Y-86150000D02*
G01*
X154750000Y-85750000D01*
X154350000Y-85750000D01*
X154350000Y-86150000D01*
X154750000Y-86150000D01*
G37*
G36*
X155150000Y-86150000D02*
G01*
X155150000Y-85750000D01*
X154750000Y-85750000D01*
X154750000Y-86150000D01*
X155150000Y-86150000D01*
G37*
G36*
X156350000Y-86150000D02*
G01*
X156350000Y-85750000D01*
X155950000Y-85750000D01*
X155950000Y-86150000D01*
X156350000Y-86150000D01*
G37*
G36*
X156750000Y-86150000D02*
G01*
X156750000Y-85750000D01*
X156350000Y-85750000D01*
X156350000Y-86150000D01*
X156750000Y-86150000D01*
G37*
G36*
X157550000Y-86150000D02*
G01*
X157550000Y-85750000D01*
X157150000Y-85750000D01*
X157150000Y-86150000D01*
X157550000Y-86150000D01*
G37*
G36*
X157950000Y-86150000D02*
G01*
X157950000Y-85750000D01*
X157550000Y-85750000D01*
X157550000Y-86150000D01*
X157950000Y-86150000D01*
G37*
G36*
X159150000Y-86150000D02*
G01*
X159150000Y-85750000D01*
X158750000Y-85750000D01*
X158750000Y-86150000D01*
X159150000Y-86150000D01*
G37*
G36*
X159550000Y-86150000D02*
G01*
X159550000Y-85750000D01*
X159150000Y-85750000D01*
X159150000Y-86150000D01*
X159550000Y-86150000D01*
G37*
G36*
X161950000Y-86150000D02*
G01*
X161950000Y-85750000D01*
X161550000Y-85750000D01*
X161550000Y-86150000D01*
X161950000Y-86150000D01*
G37*
G36*
X162350000Y-86150000D02*
G01*
X162350000Y-85750000D01*
X161950000Y-85750000D01*
X161950000Y-86150000D01*
X162350000Y-86150000D01*
G37*
G36*
X163150000Y-86150000D02*
G01*
X163150000Y-85750000D01*
X162750000Y-85750000D01*
X162750000Y-86150000D01*
X163150000Y-86150000D01*
G37*
G36*
X163550000Y-86150000D02*
G01*
X163550000Y-85750000D01*
X163150000Y-85750000D01*
X163150000Y-86150000D01*
X163550000Y-86150000D01*
G37*
G36*
X163950000Y-86150000D02*
G01*
X163950000Y-85750000D01*
X163550000Y-85750000D01*
X163550000Y-86150000D01*
X163950000Y-86150000D01*
G37*
G36*
X164750000Y-86150000D02*
G01*
X164750000Y-85750000D01*
X164350000Y-85750000D01*
X164350000Y-86150000D01*
X164750000Y-86150000D01*
G37*
G36*
X165150000Y-86150000D02*
G01*
X165150000Y-85750000D01*
X164750000Y-85750000D01*
X164750000Y-86150000D01*
X165150000Y-86150000D01*
G37*
G36*
X165950000Y-86150000D02*
G01*
X165950000Y-85750000D01*
X165550000Y-85750000D01*
X165550000Y-86150000D01*
X165950000Y-86150000D01*
G37*
G36*
X166350000Y-86150000D02*
G01*
X166350000Y-85750000D01*
X165950000Y-85750000D01*
X165950000Y-86150000D01*
X166350000Y-86150000D01*
G37*
G36*
X153550000Y-86550000D02*
G01*
X153550000Y-86150000D01*
X153150000Y-86150000D01*
X153150000Y-86550000D01*
X153550000Y-86550000D01*
G37*
G36*
X154750000Y-86550000D02*
G01*
X154750000Y-86150000D01*
X154350000Y-86150000D01*
X154350000Y-86550000D01*
X154750000Y-86550000D01*
G37*
G36*
X155950000Y-86550000D02*
G01*
X155950000Y-86150000D01*
X155550000Y-86150000D01*
X155550000Y-86550000D01*
X155950000Y-86550000D01*
G37*
G36*
X156750000Y-86550000D02*
G01*
X156750000Y-86150000D01*
X156350000Y-86150000D01*
X156350000Y-86550000D01*
X156750000Y-86550000D01*
G37*
G36*
X157950000Y-86550000D02*
G01*
X157950000Y-86150000D01*
X157550000Y-86150000D01*
X157550000Y-86550000D01*
X157950000Y-86550000D01*
G37*
G36*
X158350000Y-86550000D02*
G01*
X158350000Y-86150000D01*
X157950000Y-86150000D01*
X157950000Y-86550000D01*
X158350000Y-86550000D01*
G37*
G36*
X159550000Y-86550000D02*
G01*
X159550000Y-86150000D01*
X159150000Y-86150000D01*
X159150000Y-86550000D01*
X159550000Y-86550000D01*
G37*
G36*
X159950000Y-86550000D02*
G01*
X159950000Y-86150000D01*
X159550000Y-86150000D01*
X159550000Y-86550000D01*
X159950000Y-86550000D01*
G37*
G36*
X160750000Y-86550000D02*
G01*
X160750000Y-86150000D01*
X160350000Y-86150000D01*
X160350000Y-86550000D01*
X160750000Y-86550000D01*
G37*
G36*
X161550000Y-86550000D02*
G01*
X161550000Y-86150000D01*
X161150000Y-86150000D01*
X161150000Y-86550000D01*
X161550000Y-86550000D01*
G37*
G36*
X162350000Y-86550000D02*
G01*
X162350000Y-86150000D01*
X161950000Y-86150000D01*
X161950000Y-86550000D01*
X162350000Y-86550000D01*
G37*
G36*
X163150000Y-86550000D02*
G01*
X163150000Y-86150000D01*
X162750000Y-86150000D01*
X162750000Y-86550000D01*
X163150000Y-86550000D01*
G37*
G36*
X163550000Y-86550000D02*
G01*
X163550000Y-86150000D01*
X163150000Y-86150000D01*
X163150000Y-86550000D01*
X163550000Y-86550000D01*
G37*
G36*
X164350000Y-86550000D02*
G01*
X164350000Y-86150000D01*
X163950000Y-86150000D01*
X163950000Y-86550000D01*
X164350000Y-86550000D01*
G37*
G36*
X164750000Y-86550000D02*
G01*
X164750000Y-86150000D01*
X164350000Y-86150000D01*
X164350000Y-86550000D01*
X164750000Y-86550000D01*
G37*
G36*
X165550000Y-86550000D02*
G01*
X165550000Y-86150000D01*
X165150000Y-86150000D01*
X165150000Y-86550000D01*
X165550000Y-86550000D01*
G37*
G36*
X165950000Y-86550000D02*
G01*
X165950000Y-86150000D01*
X165550000Y-86150000D01*
X165550000Y-86550000D01*
X165950000Y-86550000D01*
G37*
G36*
X153550000Y-86950000D02*
G01*
X153550000Y-86550000D01*
X153150000Y-86550000D01*
X153150000Y-86950000D01*
X153550000Y-86950000D01*
G37*
G36*
X153950000Y-86950000D02*
G01*
X153950000Y-86550000D01*
X153550000Y-86550000D01*
X153550000Y-86950000D01*
X153950000Y-86950000D01*
G37*
G36*
X156350000Y-86950000D02*
G01*
X156350000Y-86550000D01*
X155950000Y-86550000D01*
X155950000Y-86950000D01*
X156350000Y-86950000D01*
G37*
G36*
X156750000Y-86950000D02*
G01*
X156750000Y-86550000D01*
X156350000Y-86550000D01*
X156350000Y-86950000D01*
X156750000Y-86950000D01*
G37*
G36*
X157150000Y-86950000D02*
G01*
X157150000Y-86550000D01*
X156750000Y-86550000D01*
X156750000Y-86950000D01*
X157150000Y-86950000D01*
G37*
G36*
X159150000Y-86950000D02*
G01*
X159150000Y-86550000D01*
X158750000Y-86550000D01*
X158750000Y-86950000D01*
X159150000Y-86950000D01*
G37*
G36*
X159550000Y-86950000D02*
G01*
X159550000Y-86550000D01*
X159150000Y-86550000D01*
X159150000Y-86950000D01*
X159550000Y-86950000D01*
G37*
G36*
X161950000Y-86950000D02*
G01*
X161950000Y-86550000D01*
X161550000Y-86550000D01*
X161550000Y-86950000D01*
X161950000Y-86950000D01*
G37*
G36*
X162350000Y-86950000D02*
G01*
X162350000Y-86550000D01*
X161950000Y-86550000D01*
X161950000Y-86950000D01*
X162350000Y-86950000D01*
G37*
G36*
X162750000Y-86950000D02*
G01*
X162750000Y-86550000D01*
X162350000Y-86550000D01*
X162350000Y-86950000D01*
X162750000Y-86950000D01*
G37*
G36*
X163950000Y-86950000D02*
G01*
X163950000Y-86550000D01*
X163550000Y-86550000D01*
X163550000Y-86950000D01*
X163950000Y-86950000D01*
G37*
G36*
X165150000Y-86950000D02*
G01*
X165150000Y-86550000D01*
X164750000Y-86550000D01*
X164750000Y-86950000D01*
X165150000Y-86950000D01*
G37*
G36*
X165550000Y-86950000D02*
G01*
X165550000Y-86550000D01*
X165150000Y-86550000D01*
X165150000Y-86950000D01*
X165550000Y-86950000D01*
G37*
G36*
X153550000Y-87350000D02*
G01*
X153550000Y-86950000D01*
X153150000Y-86950000D01*
X153150000Y-87350000D01*
X153550000Y-87350000D01*
G37*
G36*
X153950000Y-87350000D02*
G01*
X153950000Y-86950000D01*
X153550000Y-86950000D01*
X153550000Y-87350000D01*
X153950000Y-87350000D01*
G37*
G36*
X154350000Y-87350000D02*
G01*
X154350000Y-86950000D01*
X153950000Y-86950000D01*
X153950000Y-87350000D01*
X154350000Y-87350000D01*
G37*
G36*
X155150000Y-87350000D02*
G01*
X155150000Y-86950000D01*
X154750000Y-86950000D01*
X154750000Y-87350000D01*
X155150000Y-87350000D01*
G37*
G36*
X155550000Y-87350000D02*
G01*
X155550000Y-86950000D01*
X155150000Y-86950000D01*
X155150000Y-87350000D01*
X155550000Y-87350000D01*
G37*
G36*
X155950000Y-87350000D02*
G01*
X155950000Y-86950000D01*
X155550000Y-86950000D01*
X155550000Y-87350000D01*
X155950000Y-87350000D01*
G37*
G36*
X156750000Y-87350000D02*
G01*
X156750000Y-86950000D01*
X156350000Y-86950000D01*
X156350000Y-87350000D01*
X156750000Y-87350000D01*
G37*
G36*
X157550000Y-87350000D02*
G01*
X157550000Y-86950000D01*
X157150000Y-86950000D01*
X157150000Y-87350000D01*
X157550000Y-87350000D01*
G37*
G36*
X158350000Y-87350000D02*
G01*
X158350000Y-86950000D01*
X157950000Y-86950000D01*
X157950000Y-87350000D01*
X158350000Y-87350000D01*
G37*
G36*
X158750000Y-87350000D02*
G01*
X158750000Y-86950000D01*
X158350000Y-86950000D01*
X158350000Y-87350000D01*
X158750000Y-87350000D01*
G37*
G36*
X159150000Y-87350000D02*
G01*
X159150000Y-86950000D01*
X158750000Y-86950000D01*
X158750000Y-87350000D01*
X159150000Y-87350000D01*
G37*
G36*
X159550000Y-87350000D02*
G01*
X159550000Y-86950000D01*
X159150000Y-86950000D01*
X159150000Y-87350000D01*
X159550000Y-87350000D01*
G37*
G36*
X159950000Y-87350000D02*
G01*
X159950000Y-86950000D01*
X159550000Y-86950000D01*
X159550000Y-87350000D01*
X159950000Y-87350000D01*
G37*
G36*
X160750000Y-87350000D02*
G01*
X160750000Y-86950000D01*
X160350000Y-86950000D01*
X160350000Y-87350000D01*
X160750000Y-87350000D01*
G37*
G36*
X161550000Y-87350000D02*
G01*
X161550000Y-86950000D01*
X161150000Y-86950000D01*
X161150000Y-87350000D01*
X161550000Y-87350000D01*
G37*
G36*
X161950000Y-87350000D02*
G01*
X161950000Y-86950000D01*
X161550000Y-86950000D01*
X161550000Y-87350000D01*
X161950000Y-87350000D01*
G37*
G36*
X163550000Y-87350000D02*
G01*
X163550000Y-86950000D01*
X163150000Y-86950000D01*
X163150000Y-87350000D01*
X163550000Y-87350000D01*
G37*
G36*
X163950000Y-87350000D02*
G01*
X163950000Y-86950000D01*
X163550000Y-86950000D01*
X163550000Y-87350000D01*
X163950000Y-87350000D01*
G37*
G36*
X164750000Y-87350000D02*
G01*
X164750000Y-86950000D01*
X164350000Y-86950000D01*
X164350000Y-87350000D01*
X164750000Y-87350000D01*
G37*
G36*
X165150000Y-87350000D02*
G01*
X165150000Y-86950000D01*
X164750000Y-86950000D01*
X164750000Y-87350000D01*
X165150000Y-87350000D01*
G37*
G36*
X165950000Y-87350000D02*
G01*
X165950000Y-86950000D01*
X165550000Y-86950000D01*
X165550000Y-87350000D01*
X165950000Y-87350000D01*
G37*
G36*
X166350000Y-87350000D02*
G01*
X166350000Y-86950000D01*
X165950000Y-86950000D01*
X165950000Y-87350000D01*
X166350000Y-87350000D01*
G37*
G36*
X153950000Y-87750000D02*
G01*
X153950000Y-87350000D01*
X153550000Y-87350000D01*
X153550000Y-87750000D01*
X153950000Y-87750000D01*
G37*
G36*
X155550000Y-87750000D02*
G01*
X155550000Y-87350000D01*
X155150000Y-87350000D01*
X155150000Y-87750000D01*
X155550000Y-87750000D01*
G37*
G36*
X156350000Y-87750000D02*
G01*
X156350000Y-87350000D01*
X155950000Y-87350000D01*
X155950000Y-87750000D01*
X156350000Y-87750000D01*
G37*
G36*
X157550000Y-87750000D02*
G01*
X157550000Y-87350000D01*
X157150000Y-87350000D01*
X157150000Y-87750000D01*
X157550000Y-87750000D01*
G37*
G36*
X158350000Y-87750000D02*
G01*
X158350000Y-87350000D01*
X157950000Y-87350000D01*
X157950000Y-87750000D01*
X158350000Y-87750000D01*
G37*
G36*
X159150000Y-87750000D02*
G01*
X159150000Y-87350000D01*
X158750000Y-87350000D01*
X158750000Y-87750000D01*
X159150000Y-87750000D01*
G37*
G36*
X159550000Y-87750000D02*
G01*
X159550000Y-87350000D01*
X159150000Y-87350000D01*
X159150000Y-87750000D01*
X159550000Y-87750000D01*
G37*
G36*
X161950000Y-87750000D02*
G01*
X161950000Y-87350000D01*
X161550000Y-87350000D01*
X161550000Y-87750000D01*
X161950000Y-87750000D01*
G37*
G36*
X162350000Y-87750000D02*
G01*
X162350000Y-87350000D01*
X161950000Y-87350000D01*
X161950000Y-87750000D01*
X162350000Y-87750000D01*
G37*
G36*
X162750000Y-87750000D02*
G01*
X162750000Y-87350000D01*
X162350000Y-87350000D01*
X162350000Y-87750000D01*
X162750000Y-87750000D01*
G37*
G36*
X163950000Y-87750000D02*
G01*
X163950000Y-87350000D01*
X163550000Y-87350000D01*
X163550000Y-87750000D01*
X163950000Y-87750000D01*
G37*
G36*
X164350000Y-87750000D02*
G01*
X164350000Y-87350000D01*
X163950000Y-87350000D01*
X163950000Y-87750000D01*
X164350000Y-87750000D01*
G37*
G36*
X165550000Y-87750000D02*
G01*
X165550000Y-87350000D01*
X165150000Y-87350000D01*
X165150000Y-87750000D01*
X165550000Y-87750000D01*
G37*
G36*
X166350000Y-87750000D02*
G01*
X166350000Y-87350000D01*
X165950000Y-87350000D01*
X165950000Y-87750000D01*
X166350000Y-87750000D01*
G37*
G36*
X154350000Y-88150000D02*
G01*
X154350000Y-87750000D01*
X153950000Y-87750000D01*
X153950000Y-88150000D01*
X154350000Y-88150000D01*
G37*
G36*
X155150000Y-88150000D02*
G01*
X155150000Y-87750000D01*
X154750000Y-87750000D01*
X154750000Y-88150000D01*
X155150000Y-88150000D01*
G37*
G36*
X155950000Y-88150000D02*
G01*
X155950000Y-87750000D01*
X155550000Y-87750000D01*
X155550000Y-88150000D01*
X155950000Y-88150000D01*
G37*
G36*
X156350000Y-88150000D02*
G01*
X156350000Y-87750000D01*
X155950000Y-87750000D01*
X155950000Y-88150000D01*
X156350000Y-88150000D01*
G37*
G36*
X156750000Y-88150000D02*
G01*
X156750000Y-87750000D01*
X156350000Y-87750000D01*
X156350000Y-88150000D01*
X156750000Y-88150000D01*
G37*
G36*
X157550000Y-88150000D02*
G01*
X157550000Y-87750000D01*
X157150000Y-87750000D01*
X157150000Y-88150000D01*
X157550000Y-88150000D01*
G37*
G36*
X157950000Y-88150000D02*
G01*
X157950000Y-87750000D01*
X157550000Y-87750000D01*
X157550000Y-88150000D01*
X157950000Y-88150000D01*
G37*
G36*
X159550000Y-88150000D02*
G01*
X159550000Y-87750000D01*
X159150000Y-87750000D01*
X159150000Y-88150000D01*
X159550000Y-88150000D01*
G37*
G36*
X160750000Y-88150000D02*
G01*
X160750000Y-87750000D01*
X160350000Y-87750000D01*
X160350000Y-88150000D01*
X160750000Y-88150000D01*
G37*
G36*
X161950000Y-88150000D02*
G01*
X161950000Y-87750000D01*
X161550000Y-87750000D01*
X161550000Y-88150000D01*
X161950000Y-88150000D01*
G37*
G36*
X163150000Y-88150000D02*
G01*
X163150000Y-87750000D01*
X162750000Y-87750000D01*
X162750000Y-88150000D01*
X163150000Y-88150000D01*
G37*
G36*
X163550000Y-88150000D02*
G01*
X163550000Y-87750000D01*
X163150000Y-87750000D01*
X163150000Y-88150000D01*
X163550000Y-88150000D01*
G37*
G36*
X163950000Y-88150000D02*
G01*
X163950000Y-87750000D01*
X163550000Y-87750000D01*
X163550000Y-88150000D01*
X163950000Y-88150000D01*
G37*
G36*
X165950000Y-88150000D02*
G01*
X165950000Y-87750000D01*
X165550000Y-87750000D01*
X165550000Y-88150000D01*
X165950000Y-88150000D01*
G37*
G36*
X166350000Y-88150000D02*
G01*
X166350000Y-87750000D01*
X165950000Y-87750000D01*
X165950000Y-88150000D01*
X166350000Y-88150000D01*
G37*
G36*
X153550000Y-88550000D02*
G01*
X153550000Y-88150000D01*
X153150000Y-88150000D01*
X153150000Y-88550000D01*
X153550000Y-88550000D01*
G37*
G36*
X154350000Y-88550000D02*
G01*
X154350000Y-88150000D01*
X153950000Y-88150000D01*
X153950000Y-88550000D01*
X154350000Y-88550000D01*
G37*
G36*
X154750000Y-88550000D02*
G01*
X154750000Y-88150000D01*
X154350000Y-88150000D01*
X154350000Y-88550000D01*
X154750000Y-88550000D01*
G37*
G36*
X155550000Y-88550000D02*
G01*
X155550000Y-88150000D01*
X155150000Y-88150000D01*
X155150000Y-88550000D01*
X155550000Y-88550000D01*
G37*
G36*
X156350000Y-88550000D02*
G01*
X156350000Y-88150000D01*
X155950000Y-88150000D01*
X155950000Y-88550000D01*
X156350000Y-88550000D01*
G37*
G36*
X157150000Y-88550000D02*
G01*
X157150000Y-88150000D01*
X156750000Y-88150000D01*
X156750000Y-88550000D01*
X157150000Y-88550000D01*
G37*
G36*
X159550000Y-88550000D02*
G01*
X159550000Y-88150000D01*
X159150000Y-88150000D01*
X159150000Y-88550000D01*
X159550000Y-88550000D01*
G37*
G36*
X159950000Y-88550000D02*
G01*
X159950000Y-88150000D01*
X159550000Y-88150000D01*
X159550000Y-88550000D01*
X159950000Y-88550000D01*
G37*
G36*
X160350000Y-88550000D02*
G01*
X160350000Y-88150000D01*
X159950000Y-88150000D01*
X159950000Y-88550000D01*
X160350000Y-88550000D01*
G37*
G36*
X161550000Y-88550000D02*
G01*
X161550000Y-88150000D01*
X161150000Y-88150000D01*
X161150000Y-88550000D01*
X161550000Y-88550000D01*
G37*
G36*
X161950000Y-88550000D02*
G01*
X161950000Y-88150000D01*
X161550000Y-88150000D01*
X161550000Y-88550000D01*
X161950000Y-88550000D01*
G37*
G36*
X162350000Y-88550000D02*
G01*
X162350000Y-88150000D01*
X161950000Y-88150000D01*
X161950000Y-88550000D01*
X162350000Y-88550000D01*
G37*
G36*
X164350000Y-88550000D02*
G01*
X164350000Y-88150000D01*
X163950000Y-88150000D01*
X163950000Y-88550000D01*
X164350000Y-88550000D01*
G37*
G36*
X165550000Y-88550000D02*
G01*
X165550000Y-88150000D01*
X165150000Y-88150000D01*
X165150000Y-88550000D01*
X165550000Y-88550000D01*
G37*
G36*
X165950000Y-88550000D02*
G01*
X165950000Y-88150000D01*
X165550000Y-88150000D01*
X165550000Y-88550000D01*
X165950000Y-88550000D01*
G37*
G36*
X166350000Y-88550000D02*
G01*
X166350000Y-88150000D01*
X165950000Y-88150000D01*
X165950000Y-88550000D01*
X166350000Y-88550000D01*
G37*
G36*
X153550000Y-88950000D02*
G01*
X153550000Y-88550000D01*
X153150000Y-88550000D01*
X153150000Y-88950000D01*
X153550000Y-88950000D01*
G37*
G36*
X155550000Y-88950000D02*
G01*
X155550000Y-88550000D01*
X155150000Y-88550000D01*
X155150000Y-88950000D01*
X155550000Y-88950000D01*
G37*
G36*
X155950000Y-88950000D02*
G01*
X155950000Y-88550000D01*
X155550000Y-88550000D01*
X155550000Y-88950000D01*
X155950000Y-88950000D01*
G37*
G36*
X157150000Y-88950000D02*
G01*
X157150000Y-88550000D01*
X156750000Y-88550000D01*
X156750000Y-88950000D01*
X157150000Y-88950000D01*
G37*
G36*
X157550000Y-88950000D02*
G01*
X157550000Y-88550000D01*
X157150000Y-88550000D01*
X157150000Y-88950000D01*
X157550000Y-88950000D01*
G37*
G36*
X157950000Y-88950000D02*
G01*
X157950000Y-88550000D01*
X157550000Y-88550000D01*
X157550000Y-88950000D01*
X157950000Y-88950000D01*
G37*
G36*
X158750000Y-88950000D02*
G01*
X158750000Y-88550000D01*
X158350000Y-88550000D01*
X158350000Y-88950000D01*
X158750000Y-88950000D01*
G37*
G36*
X160350000Y-88950000D02*
G01*
X160350000Y-88550000D01*
X159950000Y-88550000D01*
X159950000Y-88950000D01*
X160350000Y-88950000D01*
G37*
G36*
X161150000Y-88950000D02*
G01*
X161150000Y-88550000D01*
X160750000Y-88550000D01*
X160750000Y-88950000D01*
X161150000Y-88950000D01*
G37*
G36*
X162750000Y-88950000D02*
G01*
X162750000Y-88550000D01*
X162350000Y-88550000D01*
X162350000Y-88950000D01*
X162750000Y-88950000D01*
G37*
G36*
X163150000Y-88950000D02*
G01*
X163150000Y-88550000D01*
X162750000Y-88550000D01*
X162750000Y-88950000D01*
X163150000Y-88950000D01*
G37*
G36*
X163950000Y-88950000D02*
G01*
X163950000Y-88550000D01*
X163550000Y-88550000D01*
X163550000Y-88950000D01*
X163950000Y-88950000D01*
G37*
G36*
X165150000Y-88950000D02*
G01*
X165150000Y-88550000D01*
X164750000Y-88550000D01*
X164750000Y-88950000D01*
X165150000Y-88950000D01*
G37*
G36*
X165550000Y-88950000D02*
G01*
X165550000Y-88550000D01*
X165150000Y-88550000D01*
X165150000Y-88950000D01*
X165550000Y-88950000D01*
G37*
G36*
X165950000Y-88950000D02*
G01*
X165950000Y-88550000D01*
X165550000Y-88550000D01*
X165550000Y-88950000D01*
X165950000Y-88950000D01*
G37*
G36*
X153550000Y-89350000D02*
G01*
X153550000Y-88950000D01*
X153150000Y-88950000D01*
X153150000Y-89350000D01*
X153550000Y-89350000D01*
G37*
G36*
X154750000Y-89350000D02*
G01*
X154750000Y-88950000D01*
X154350000Y-88950000D01*
X154350000Y-89350000D01*
X154750000Y-89350000D01*
G37*
G36*
X155150000Y-89350000D02*
G01*
X155150000Y-88950000D01*
X154750000Y-88950000D01*
X154750000Y-89350000D01*
X155150000Y-89350000D01*
G37*
G36*
X156350000Y-89350000D02*
G01*
X156350000Y-88950000D01*
X155950000Y-88950000D01*
X155950000Y-89350000D01*
X156350000Y-89350000D01*
G37*
G36*
X157150000Y-89350000D02*
G01*
X157150000Y-88950000D01*
X156750000Y-88950000D01*
X156750000Y-89350000D01*
X157150000Y-89350000D01*
G37*
G36*
X157950000Y-89350000D02*
G01*
X157950000Y-88950000D01*
X157550000Y-88950000D01*
X157550000Y-89350000D01*
X157950000Y-89350000D01*
G37*
G36*
X158350000Y-89350000D02*
G01*
X158350000Y-88950000D01*
X157950000Y-88950000D01*
X157950000Y-89350000D01*
X158350000Y-89350000D01*
G37*
G36*
X159150000Y-89350000D02*
G01*
X159150000Y-88950000D01*
X158750000Y-88950000D01*
X158750000Y-89350000D01*
X159150000Y-89350000D01*
G37*
G36*
X159950000Y-89350000D02*
G01*
X159950000Y-88950000D01*
X159550000Y-88950000D01*
X159550000Y-89350000D01*
X159950000Y-89350000D01*
G37*
G36*
X160350000Y-89350000D02*
G01*
X160350000Y-88950000D01*
X159950000Y-88950000D01*
X159950000Y-89350000D01*
X160350000Y-89350000D01*
G37*
G36*
X160750000Y-89350000D02*
G01*
X160750000Y-88950000D01*
X160350000Y-88950000D01*
X160350000Y-89350000D01*
X160750000Y-89350000D01*
G37*
G36*
X161150000Y-89350000D02*
G01*
X161150000Y-88950000D01*
X160750000Y-88950000D01*
X160750000Y-89350000D01*
X161150000Y-89350000D01*
G37*
G36*
X161550000Y-89350000D02*
G01*
X161550000Y-88950000D01*
X161150000Y-88950000D01*
X161150000Y-89350000D01*
X161550000Y-89350000D01*
G37*
G36*
X161950000Y-89350000D02*
G01*
X161950000Y-88950000D01*
X161550000Y-88950000D01*
X161550000Y-89350000D01*
X161950000Y-89350000D01*
G37*
G36*
X162750000Y-89350000D02*
G01*
X162750000Y-88950000D01*
X162350000Y-88950000D01*
X162350000Y-89350000D01*
X162750000Y-89350000D01*
G37*
G36*
X163550000Y-89350000D02*
G01*
X163550000Y-88950000D01*
X163150000Y-88950000D01*
X163150000Y-89350000D01*
X163550000Y-89350000D01*
G37*
G36*
X164350000Y-89350000D02*
G01*
X164350000Y-88950000D01*
X163950000Y-88950000D01*
X163950000Y-89350000D01*
X164350000Y-89350000D01*
G37*
G36*
X165550000Y-89350000D02*
G01*
X165550000Y-88950000D01*
X165150000Y-88950000D01*
X165150000Y-89350000D01*
X165550000Y-89350000D01*
G37*
G36*
X165950000Y-89350000D02*
G01*
X165950000Y-88950000D01*
X165550000Y-88950000D01*
X165550000Y-89350000D01*
X165950000Y-89350000D01*
G37*
G36*
X153550000Y-89750000D02*
G01*
X153550000Y-89350000D01*
X153150000Y-89350000D01*
X153150000Y-89750000D01*
X153550000Y-89750000D01*
G37*
G36*
X155550000Y-89750000D02*
G01*
X155550000Y-89350000D01*
X155150000Y-89350000D01*
X155150000Y-89750000D01*
X155550000Y-89750000D01*
G37*
G36*
X155950000Y-89750000D02*
G01*
X155950000Y-89350000D01*
X155550000Y-89350000D01*
X155550000Y-89750000D01*
X155950000Y-89750000D01*
G37*
G36*
X156350000Y-89750000D02*
G01*
X156350000Y-89350000D01*
X155950000Y-89350000D01*
X155950000Y-89750000D01*
X156350000Y-89750000D01*
G37*
G36*
X158350000Y-89750000D02*
G01*
X158350000Y-89350000D01*
X157950000Y-89350000D01*
X157950000Y-89750000D01*
X158350000Y-89750000D01*
G37*
G36*
X158750000Y-89750000D02*
G01*
X158750000Y-89350000D01*
X158350000Y-89350000D01*
X158350000Y-89750000D01*
X158750000Y-89750000D01*
G37*
G36*
X159150000Y-89750000D02*
G01*
X159150000Y-89350000D01*
X158750000Y-89350000D01*
X158750000Y-89750000D01*
X159150000Y-89750000D01*
G37*
G36*
X161150000Y-89750000D02*
G01*
X161150000Y-89350000D01*
X160750000Y-89350000D01*
X160750000Y-89750000D01*
X161150000Y-89750000D01*
G37*
G36*
X162350000Y-89750000D02*
G01*
X162350000Y-89350000D01*
X161950000Y-89350000D01*
X161950000Y-89750000D01*
X162350000Y-89750000D01*
G37*
G36*
X162750000Y-89750000D02*
G01*
X162750000Y-89350000D01*
X162350000Y-89350000D01*
X162350000Y-89750000D01*
X162750000Y-89750000D01*
G37*
G36*
X163150000Y-89750000D02*
G01*
X163150000Y-89350000D01*
X162750000Y-89350000D01*
X162750000Y-89750000D01*
X163150000Y-89750000D01*
G37*
G36*
X163550000Y-89750000D02*
G01*
X163550000Y-89350000D01*
X163150000Y-89350000D01*
X163150000Y-89750000D01*
X163550000Y-89750000D01*
G37*
G36*
X163950000Y-89750000D02*
G01*
X163950000Y-89350000D01*
X163550000Y-89350000D01*
X163550000Y-89750000D01*
X163950000Y-89750000D01*
G37*
G36*
X164350000Y-89750000D02*
G01*
X164350000Y-89350000D01*
X163950000Y-89350000D01*
X163950000Y-89750000D01*
X164350000Y-89750000D01*
G37*
G36*
X164750000Y-89750000D02*
G01*
X164750000Y-89350000D01*
X164350000Y-89350000D01*
X164350000Y-89750000D01*
X164750000Y-89750000D01*
G37*
G36*
X165150000Y-89750000D02*
G01*
X165150000Y-89350000D01*
X164750000Y-89350000D01*
X164750000Y-89750000D01*
X165150000Y-89750000D01*
G37*
G36*
X165550000Y-89750000D02*
G01*
X165550000Y-89350000D01*
X165150000Y-89350000D01*
X165150000Y-89750000D01*
X165550000Y-89750000D01*
G37*
G36*
X156750000Y-90150000D02*
G01*
X156750000Y-89750000D01*
X156350000Y-89750000D01*
X156350000Y-90150000D01*
X156750000Y-90150000D01*
G37*
G36*
X157550000Y-90150000D02*
G01*
X157550000Y-89750000D01*
X157150000Y-89750000D01*
X157150000Y-90150000D01*
X157550000Y-90150000D01*
G37*
G36*
X158750000Y-90150000D02*
G01*
X158750000Y-89750000D01*
X158350000Y-89750000D01*
X158350000Y-90150000D01*
X158750000Y-90150000D01*
G37*
G36*
X159150000Y-90150000D02*
G01*
X159150000Y-89750000D01*
X158750000Y-89750000D01*
X158750000Y-90150000D01*
X159150000Y-90150000D01*
G37*
G36*
X159550000Y-90150000D02*
G01*
X159550000Y-89750000D01*
X159150000Y-89750000D01*
X159150000Y-90150000D01*
X159550000Y-90150000D01*
G37*
G36*
X159950000Y-90150000D02*
G01*
X159950000Y-89750000D01*
X159550000Y-89750000D01*
X159550000Y-90150000D01*
X159950000Y-90150000D01*
G37*
G36*
X160350000Y-90150000D02*
G01*
X160350000Y-89750000D01*
X159950000Y-89750000D01*
X159950000Y-90150000D01*
X160350000Y-90150000D01*
G37*
G36*
X160750000Y-90150000D02*
G01*
X160750000Y-89750000D01*
X160350000Y-89750000D01*
X160350000Y-90150000D01*
X160750000Y-90150000D01*
G37*
G36*
X161550000Y-90150000D02*
G01*
X161550000Y-89750000D01*
X161150000Y-89750000D01*
X161150000Y-90150000D01*
X161550000Y-90150000D01*
G37*
G36*
X163150000Y-90150000D02*
G01*
X163150000Y-89750000D01*
X162750000Y-89750000D01*
X162750000Y-90150000D01*
X163150000Y-90150000D01*
G37*
G36*
X164750000Y-90150000D02*
G01*
X164750000Y-89750000D01*
X164350000Y-89750000D01*
X164350000Y-90150000D01*
X164750000Y-90150000D01*
G37*
G36*
X165150000Y-90150000D02*
G01*
X165150000Y-89750000D01*
X164750000Y-89750000D01*
X164750000Y-90150000D01*
X165150000Y-90150000D01*
G37*
G36*
X165950000Y-90150000D02*
G01*
X165950000Y-89750000D01*
X165550000Y-89750000D01*
X165550000Y-90150000D01*
X165950000Y-90150000D01*
G37*
G36*
X153550000Y-90550000D02*
G01*
X153550000Y-90150000D01*
X153150000Y-90150000D01*
X153150000Y-90550000D01*
X153550000Y-90550000D01*
G37*
G36*
X153950000Y-90550000D02*
G01*
X153950000Y-90150000D01*
X153550000Y-90150000D01*
X153550000Y-90550000D01*
X153950000Y-90550000D01*
G37*
G36*
X154350000Y-90550000D02*
G01*
X154350000Y-90150000D01*
X153950000Y-90150000D01*
X153950000Y-90550000D01*
X154350000Y-90550000D01*
G37*
G36*
X154750000Y-90550000D02*
G01*
X154750000Y-90150000D01*
X154350000Y-90150000D01*
X154350000Y-90550000D01*
X154750000Y-90550000D01*
G37*
G36*
X155150000Y-90550000D02*
G01*
X155150000Y-90150000D01*
X154750000Y-90150000D01*
X154750000Y-90550000D01*
X155150000Y-90550000D01*
G37*
G36*
X155550000Y-90550000D02*
G01*
X155550000Y-90150000D01*
X155150000Y-90150000D01*
X155150000Y-90550000D01*
X155550000Y-90550000D01*
G37*
G36*
X155950000Y-90550000D02*
G01*
X155950000Y-90150000D01*
X155550000Y-90150000D01*
X155550000Y-90550000D01*
X155950000Y-90550000D01*
G37*
G36*
X157550000Y-90550000D02*
G01*
X157550000Y-90150000D01*
X157150000Y-90150000D01*
X157150000Y-90550000D01*
X157550000Y-90550000D01*
G37*
G36*
X157950000Y-90550000D02*
G01*
X157950000Y-90150000D01*
X157550000Y-90150000D01*
X157550000Y-90550000D01*
X157950000Y-90550000D01*
G37*
G36*
X159150000Y-90550000D02*
G01*
X159150000Y-90150000D01*
X158750000Y-90150000D01*
X158750000Y-90550000D01*
X159150000Y-90550000D01*
G37*
G36*
X160350000Y-90550000D02*
G01*
X160350000Y-90150000D01*
X159950000Y-90150000D01*
X159950000Y-90550000D01*
X160350000Y-90550000D01*
G37*
G36*
X161150000Y-90550000D02*
G01*
X161150000Y-90150000D01*
X160750000Y-90150000D01*
X160750000Y-90550000D01*
X161150000Y-90550000D01*
G37*
G36*
X162350000Y-90550000D02*
G01*
X162350000Y-90150000D01*
X161950000Y-90150000D01*
X161950000Y-90550000D01*
X162350000Y-90550000D01*
G37*
G36*
X162750000Y-90550000D02*
G01*
X162750000Y-90150000D01*
X162350000Y-90150000D01*
X162350000Y-90550000D01*
X162750000Y-90550000D01*
G37*
G36*
X163150000Y-90550000D02*
G01*
X163150000Y-90150000D01*
X162750000Y-90150000D01*
X162750000Y-90550000D01*
X163150000Y-90550000D01*
G37*
G36*
X163950000Y-90550000D02*
G01*
X163950000Y-90150000D01*
X163550000Y-90150000D01*
X163550000Y-90550000D01*
X163950000Y-90550000D01*
G37*
G36*
X164750000Y-90550000D02*
G01*
X164750000Y-90150000D01*
X164350000Y-90150000D01*
X164350000Y-90550000D01*
X164750000Y-90550000D01*
G37*
G36*
X153550000Y-90950000D02*
G01*
X153550000Y-90550000D01*
X153150000Y-90550000D01*
X153150000Y-90950000D01*
X153550000Y-90950000D01*
G37*
G36*
X155950000Y-90950000D02*
G01*
X155950000Y-90550000D01*
X155550000Y-90550000D01*
X155550000Y-90950000D01*
X155950000Y-90950000D01*
G37*
G36*
X156750000Y-90950000D02*
G01*
X156750000Y-90550000D01*
X156350000Y-90550000D01*
X156350000Y-90950000D01*
X156750000Y-90950000D01*
G37*
G36*
X157950000Y-90950000D02*
G01*
X157950000Y-90550000D01*
X157550000Y-90550000D01*
X157550000Y-90950000D01*
X157950000Y-90950000D01*
G37*
G36*
X158350000Y-90950000D02*
G01*
X158350000Y-90550000D01*
X157950000Y-90550000D01*
X157950000Y-90950000D01*
X158350000Y-90950000D01*
G37*
G36*
X158750000Y-90950000D02*
G01*
X158750000Y-90550000D01*
X158350000Y-90550000D01*
X158350000Y-90950000D01*
X158750000Y-90950000D01*
G37*
G36*
X159150000Y-90950000D02*
G01*
X159150000Y-90550000D01*
X158750000Y-90550000D01*
X158750000Y-90950000D01*
X159150000Y-90950000D01*
G37*
G36*
X159950000Y-90950000D02*
G01*
X159950000Y-90550000D01*
X159550000Y-90550000D01*
X159550000Y-90950000D01*
X159950000Y-90950000D01*
G37*
G36*
X160350000Y-90950000D02*
G01*
X160350000Y-90550000D01*
X159950000Y-90550000D01*
X159950000Y-90950000D01*
X160350000Y-90950000D01*
G37*
G36*
X160750000Y-90950000D02*
G01*
X160750000Y-90550000D01*
X160350000Y-90550000D01*
X160350000Y-90950000D01*
X160750000Y-90950000D01*
G37*
G36*
X161150000Y-90950000D02*
G01*
X161150000Y-90550000D01*
X160750000Y-90550000D01*
X160750000Y-90950000D01*
X161150000Y-90950000D01*
G37*
G36*
X161550000Y-90950000D02*
G01*
X161550000Y-90550000D01*
X161150000Y-90550000D01*
X161150000Y-90950000D01*
X161550000Y-90950000D01*
G37*
G36*
X162750000Y-90950000D02*
G01*
X162750000Y-90550000D01*
X162350000Y-90550000D01*
X162350000Y-90950000D01*
X162750000Y-90950000D01*
G37*
G36*
X163150000Y-90950000D02*
G01*
X163150000Y-90550000D01*
X162750000Y-90550000D01*
X162750000Y-90950000D01*
X163150000Y-90950000D01*
G37*
G36*
X164750000Y-90950000D02*
G01*
X164750000Y-90550000D01*
X164350000Y-90550000D01*
X164350000Y-90950000D01*
X164750000Y-90950000D01*
G37*
G36*
X165150000Y-90950000D02*
G01*
X165150000Y-90550000D01*
X164750000Y-90550000D01*
X164750000Y-90950000D01*
X165150000Y-90950000D01*
G37*
G36*
X165550000Y-90950000D02*
G01*
X165550000Y-90550000D01*
X165150000Y-90550000D01*
X165150000Y-90950000D01*
X165550000Y-90950000D01*
G37*
G36*
X165950000Y-90950000D02*
G01*
X165950000Y-90550000D01*
X165550000Y-90550000D01*
X165550000Y-90950000D01*
X165950000Y-90950000D01*
G37*
G36*
X153550000Y-91350000D02*
G01*
X153550000Y-90950000D01*
X153150000Y-90950000D01*
X153150000Y-91350000D01*
X153550000Y-91350000D01*
G37*
G36*
X154350000Y-91350000D02*
G01*
X154350000Y-90950000D01*
X153950000Y-90950000D01*
X153950000Y-91350000D01*
X154350000Y-91350000D01*
G37*
G36*
X154750000Y-91350000D02*
G01*
X154750000Y-90950000D01*
X154350000Y-90950000D01*
X154350000Y-91350000D01*
X154750000Y-91350000D01*
G37*
G36*
X155150000Y-91350000D02*
G01*
X155150000Y-90950000D01*
X154750000Y-90950000D01*
X154750000Y-91350000D01*
X155150000Y-91350000D01*
G37*
G36*
X155950000Y-91350000D02*
G01*
X155950000Y-90950000D01*
X155550000Y-90950000D01*
X155550000Y-91350000D01*
X155950000Y-91350000D01*
G37*
G36*
X156750000Y-91350000D02*
G01*
X156750000Y-90950000D01*
X156350000Y-90950000D01*
X156350000Y-91350000D01*
X156750000Y-91350000D01*
G37*
G36*
X157150000Y-91350000D02*
G01*
X157150000Y-90950000D01*
X156750000Y-90950000D01*
X156750000Y-91350000D01*
X157150000Y-91350000D01*
G37*
G36*
X157950000Y-91350000D02*
G01*
X157950000Y-90950000D01*
X157550000Y-90950000D01*
X157550000Y-91350000D01*
X157950000Y-91350000D01*
G37*
G36*
X159150000Y-91350000D02*
G01*
X159150000Y-90950000D01*
X158750000Y-90950000D01*
X158750000Y-91350000D01*
X159150000Y-91350000D01*
G37*
G36*
X159950000Y-91350000D02*
G01*
X159950000Y-90950000D01*
X159550000Y-90950000D01*
X159550000Y-91350000D01*
X159950000Y-91350000D01*
G37*
G36*
X161150000Y-91350000D02*
G01*
X161150000Y-90950000D01*
X160750000Y-90950000D01*
X160750000Y-91350000D01*
X161150000Y-91350000D01*
G37*
G36*
X161550000Y-91350000D02*
G01*
X161550000Y-90950000D01*
X161150000Y-90950000D01*
X161150000Y-91350000D01*
X161550000Y-91350000D01*
G37*
G36*
X161950000Y-91350000D02*
G01*
X161950000Y-90950000D01*
X161550000Y-90950000D01*
X161550000Y-91350000D01*
X161950000Y-91350000D01*
G37*
G36*
X162350000Y-91350000D02*
G01*
X162350000Y-90950000D01*
X161950000Y-90950000D01*
X161950000Y-91350000D01*
X162350000Y-91350000D01*
G37*
G36*
X163150000Y-91350000D02*
G01*
X163150000Y-90950000D01*
X162750000Y-90950000D01*
X162750000Y-91350000D01*
X163150000Y-91350000D01*
G37*
G36*
X163550000Y-91350000D02*
G01*
X163550000Y-90950000D01*
X163150000Y-90950000D01*
X163150000Y-91350000D01*
X163550000Y-91350000D01*
G37*
G36*
X163950000Y-91350000D02*
G01*
X163950000Y-90950000D01*
X163550000Y-90950000D01*
X163550000Y-91350000D01*
X163950000Y-91350000D01*
G37*
G36*
X164350000Y-91350000D02*
G01*
X164350000Y-90950000D01*
X163950000Y-90950000D01*
X163950000Y-91350000D01*
X164350000Y-91350000D01*
G37*
G36*
X164750000Y-91350000D02*
G01*
X164750000Y-90950000D01*
X164350000Y-90950000D01*
X164350000Y-91350000D01*
X164750000Y-91350000D01*
G37*
G36*
X165150000Y-91350000D02*
G01*
X165150000Y-90950000D01*
X164750000Y-90950000D01*
X164750000Y-91350000D01*
X165150000Y-91350000D01*
G37*
G36*
X153550000Y-91750000D02*
G01*
X153550000Y-91350000D01*
X153150000Y-91350000D01*
X153150000Y-91750000D01*
X153550000Y-91750000D01*
G37*
G36*
X154350000Y-91750000D02*
G01*
X154350000Y-91350000D01*
X153950000Y-91350000D01*
X153950000Y-91750000D01*
X154350000Y-91750000D01*
G37*
G36*
X154750000Y-91750000D02*
G01*
X154750000Y-91350000D01*
X154350000Y-91350000D01*
X154350000Y-91750000D01*
X154750000Y-91750000D01*
G37*
G36*
X155150000Y-91750000D02*
G01*
X155150000Y-91350000D01*
X154750000Y-91350000D01*
X154750000Y-91750000D01*
X155150000Y-91750000D01*
G37*
G36*
X155950000Y-91750000D02*
G01*
X155950000Y-91350000D01*
X155550000Y-91350000D01*
X155550000Y-91750000D01*
X155950000Y-91750000D01*
G37*
G36*
X156750000Y-91750000D02*
G01*
X156750000Y-91350000D01*
X156350000Y-91350000D01*
X156350000Y-91750000D01*
X156750000Y-91750000D01*
G37*
G36*
X157150000Y-91750000D02*
G01*
X157150000Y-91350000D01*
X156750000Y-91350000D01*
X156750000Y-91750000D01*
X157150000Y-91750000D01*
G37*
G36*
X159150000Y-91750000D02*
G01*
X159150000Y-91350000D01*
X158750000Y-91350000D01*
X158750000Y-91750000D01*
X159150000Y-91750000D01*
G37*
G36*
X159550000Y-91750000D02*
G01*
X159550000Y-91350000D01*
X159150000Y-91350000D01*
X159150000Y-91750000D01*
X159550000Y-91750000D01*
G37*
G36*
X160750000Y-91750000D02*
G01*
X160750000Y-91350000D01*
X160350000Y-91350000D01*
X160350000Y-91750000D01*
X160750000Y-91750000D01*
G37*
G36*
X161950000Y-91750000D02*
G01*
X161950000Y-91350000D01*
X161550000Y-91350000D01*
X161550000Y-91750000D01*
X161950000Y-91750000D01*
G37*
G36*
X163550000Y-91750000D02*
G01*
X163550000Y-91350000D01*
X163150000Y-91350000D01*
X163150000Y-91750000D01*
X163550000Y-91750000D01*
G37*
G36*
X164350000Y-91750000D02*
G01*
X164350000Y-91350000D01*
X163950000Y-91350000D01*
X163950000Y-91750000D01*
X164350000Y-91750000D01*
G37*
G36*
X164750000Y-91750000D02*
G01*
X164750000Y-91350000D01*
X164350000Y-91350000D01*
X164350000Y-91750000D01*
X164750000Y-91750000D01*
G37*
G36*
X165150000Y-91750000D02*
G01*
X165150000Y-91350000D01*
X164750000Y-91350000D01*
X164750000Y-91750000D01*
X165150000Y-91750000D01*
G37*
G36*
X165950000Y-91750000D02*
G01*
X165950000Y-91350000D01*
X165550000Y-91350000D01*
X165550000Y-91750000D01*
X165950000Y-91750000D01*
G37*
G36*
X153550000Y-92150000D02*
G01*
X153550000Y-91750000D01*
X153150000Y-91750000D01*
X153150000Y-92150000D01*
X153550000Y-92150000D01*
G37*
G36*
X154350000Y-92150000D02*
G01*
X154350000Y-91750000D01*
X153950000Y-91750000D01*
X153950000Y-92150000D01*
X154350000Y-92150000D01*
G37*
G36*
X154750000Y-92150000D02*
G01*
X154750000Y-91750000D01*
X154350000Y-91750000D01*
X154350000Y-92150000D01*
X154750000Y-92150000D01*
G37*
G36*
X155150000Y-92150000D02*
G01*
X155150000Y-91750000D01*
X154750000Y-91750000D01*
X154750000Y-92150000D01*
X155150000Y-92150000D01*
G37*
G36*
X155950000Y-92150000D02*
G01*
X155950000Y-91750000D01*
X155550000Y-91750000D01*
X155550000Y-92150000D01*
X155950000Y-92150000D01*
G37*
G36*
X156750000Y-92150000D02*
G01*
X156750000Y-91750000D01*
X156350000Y-91750000D01*
X156350000Y-92150000D01*
X156750000Y-92150000D01*
G37*
G36*
X157950000Y-92150000D02*
G01*
X157950000Y-91750000D01*
X157550000Y-91750000D01*
X157550000Y-92150000D01*
X157950000Y-92150000D01*
G37*
G36*
X158350000Y-92150000D02*
G01*
X158350000Y-91750000D01*
X157950000Y-91750000D01*
X157950000Y-92150000D01*
X158350000Y-92150000D01*
G37*
G36*
X158750000Y-92150000D02*
G01*
X158750000Y-91750000D01*
X158350000Y-91750000D01*
X158350000Y-92150000D01*
X158750000Y-92150000D01*
G37*
G36*
X159550000Y-92150000D02*
G01*
X159550000Y-91750000D01*
X159150000Y-91750000D01*
X159150000Y-92150000D01*
X159550000Y-92150000D01*
G37*
G36*
X159950000Y-92150000D02*
G01*
X159950000Y-91750000D01*
X159550000Y-91750000D01*
X159550000Y-92150000D01*
X159950000Y-92150000D01*
G37*
G36*
X160750000Y-92150000D02*
G01*
X160750000Y-91750000D01*
X160350000Y-91750000D01*
X160350000Y-92150000D01*
X160750000Y-92150000D01*
G37*
G36*
X161550000Y-92150000D02*
G01*
X161550000Y-91750000D01*
X161150000Y-91750000D01*
X161150000Y-92150000D01*
X161550000Y-92150000D01*
G37*
G36*
X162350000Y-92150000D02*
G01*
X162350000Y-91750000D01*
X161950000Y-91750000D01*
X161950000Y-92150000D01*
X162350000Y-92150000D01*
G37*
G36*
X162750000Y-92150000D02*
G01*
X162750000Y-91750000D01*
X162350000Y-91750000D01*
X162350000Y-92150000D01*
X162750000Y-92150000D01*
G37*
G36*
X163950000Y-92150000D02*
G01*
X163950000Y-91750000D01*
X163550000Y-91750000D01*
X163550000Y-92150000D01*
X163950000Y-92150000D01*
G37*
G36*
X153550000Y-92550000D02*
G01*
X153550000Y-92150000D01*
X153150000Y-92150000D01*
X153150000Y-92550000D01*
X153550000Y-92550000D01*
G37*
G36*
X155950000Y-92550000D02*
G01*
X155950000Y-92150000D01*
X155550000Y-92150000D01*
X155550000Y-92550000D01*
X155950000Y-92550000D01*
G37*
G36*
X157150000Y-92550000D02*
G01*
X157150000Y-92150000D01*
X156750000Y-92150000D01*
X156750000Y-92550000D01*
X157150000Y-92550000D01*
G37*
G36*
X158350000Y-92550000D02*
G01*
X158350000Y-92150000D01*
X157950000Y-92150000D01*
X157950000Y-92550000D01*
X158350000Y-92550000D01*
G37*
G36*
X159150000Y-92550000D02*
G01*
X159150000Y-92150000D01*
X158750000Y-92150000D01*
X158750000Y-92550000D01*
X159150000Y-92550000D01*
G37*
G36*
X159550000Y-92550000D02*
G01*
X159550000Y-92150000D01*
X159150000Y-92150000D01*
X159150000Y-92550000D01*
X159550000Y-92550000D01*
G37*
G36*
X161950000Y-92550000D02*
G01*
X161950000Y-92150000D01*
X161550000Y-92150000D01*
X161550000Y-92550000D01*
X161950000Y-92550000D01*
G37*
G36*
X162350000Y-92550000D02*
G01*
X162350000Y-92150000D01*
X161950000Y-92150000D01*
X161950000Y-92550000D01*
X162350000Y-92550000D01*
G37*
G36*
X162750000Y-92550000D02*
G01*
X162750000Y-92150000D01*
X162350000Y-92150000D01*
X162350000Y-92550000D01*
X162750000Y-92550000D01*
G37*
G36*
X163150000Y-92550000D02*
G01*
X163150000Y-92150000D01*
X162750000Y-92150000D01*
X162750000Y-92550000D01*
X163150000Y-92550000D01*
G37*
G36*
X164750000Y-92550000D02*
G01*
X164750000Y-92150000D01*
X164350000Y-92150000D01*
X164350000Y-92550000D01*
X164750000Y-92550000D01*
G37*
G36*
X165150000Y-92550000D02*
G01*
X165150000Y-92150000D01*
X164750000Y-92150000D01*
X164750000Y-92550000D01*
X165150000Y-92550000D01*
G37*
G36*
X153550000Y-92950000D02*
G01*
X153550000Y-92550000D01*
X153150000Y-92550000D01*
X153150000Y-92950000D01*
X153550000Y-92950000D01*
G37*
G36*
X153950000Y-92950000D02*
G01*
X153950000Y-92550000D01*
X153550000Y-92550000D01*
X153550000Y-92950000D01*
X153950000Y-92950000D01*
G37*
G36*
X154350000Y-92950000D02*
G01*
X154350000Y-92550000D01*
X153950000Y-92550000D01*
X153950000Y-92950000D01*
X154350000Y-92950000D01*
G37*
G36*
X154750000Y-92950000D02*
G01*
X154750000Y-92550000D01*
X154350000Y-92550000D01*
X154350000Y-92950000D01*
X154750000Y-92950000D01*
G37*
G36*
X155150000Y-92950000D02*
G01*
X155150000Y-92550000D01*
X154750000Y-92550000D01*
X154750000Y-92950000D01*
X155150000Y-92950000D01*
G37*
G36*
X155550000Y-92950000D02*
G01*
X155550000Y-92550000D01*
X155150000Y-92550000D01*
X155150000Y-92950000D01*
X155550000Y-92950000D01*
G37*
G36*
X155950000Y-92950000D02*
G01*
X155950000Y-92550000D01*
X155550000Y-92550000D01*
X155550000Y-92950000D01*
X155950000Y-92950000D01*
G37*
G36*
X156750000Y-92950000D02*
G01*
X156750000Y-92550000D01*
X156350000Y-92550000D01*
X156350000Y-92950000D01*
X156750000Y-92950000D01*
G37*
G36*
X157550000Y-92950000D02*
G01*
X157550000Y-92550000D01*
X157150000Y-92550000D01*
X157150000Y-92950000D01*
X157550000Y-92950000D01*
G37*
G36*
X157950000Y-92950000D02*
G01*
X157950000Y-92550000D01*
X157550000Y-92550000D01*
X157550000Y-92950000D01*
X157950000Y-92950000D01*
G37*
G36*
X158350000Y-92950000D02*
G01*
X158350000Y-92550000D01*
X157950000Y-92550000D01*
X157950000Y-92950000D01*
X158350000Y-92950000D01*
G37*
G36*
X159550000Y-92950000D02*
G01*
X159550000Y-92550000D01*
X159150000Y-92550000D01*
X159150000Y-92950000D01*
X159550000Y-92950000D01*
G37*
G36*
X159950000Y-92950000D02*
G01*
X159950000Y-92550000D01*
X159550000Y-92550000D01*
X159550000Y-92950000D01*
X159950000Y-92950000D01*
G37*
G36*
X160750000Y-92950000D02*
G01*
X160750000Y-92550000D01*
X160350000Y-92550000D01*
X160350000Y-92950000D01*
X160750000Y-92950000D01*
G37*
G36*
X161950000Y-92950000D02*
G01*
X161950000Y-92550000D01*
X161550000Y-92550000D01*
X161550000Y-92950000D01*
X161950000Y-92950000D01*
G37*
G36*
X163150000Y-92950000D02*
G01*
X163150000Y-92550000D01*
X162750000Y-92550000D01*
X162750000Y-92950000D01*
X163150000Y-92950000D01*
G37*
G36*
X163550000Y-92950000D02*
G01*
X163550000Y-92550000D01*
X163150000Y-92550000D01*
X163150000Y-92950000D01*
X163550000Y-92950000D01*
G37*
G36*
X164350000Y-92950000D02*
G01*
X164350000Y-92550000D01*
X163950000Y-92550000D01*
X163950000Y-92950000D01*
X164350000Y-92950000D01*
G37*
G36*
X165550000Y-92950000D02*
G01*
X165550000Y-92550000D01*
X165150000Y-92550000D01*
X165150000Y-92950000D01*
X165550000Y-92950000D01*
G37*
G36*
X165950000Y-92950000D02*
G01*
X165950000Y-92550000D01*
X165550000Y-92550000D01*
X165550000Y-92950000D01*
X165950000Y-92950000D01*
G37*
D10*
X76428733Y-78740000D02*
X76771267Y-78740000D01*
X76428733Y-79760000D02*
X76771267Y-79760000D01*
X76403733Y-79940000D02*
X76746267Y-79940000D01*
X76403733Y-80960000D02*
X76746267Y-80960000D01*
X183440000Y-81590000D02*
X183440000Y-94410000D01*
X183440000Y-94410000D02*
X186100000Y-94410000D01*
X186100000Y-94410000D02*
X186100000Y-81590000D01*
X186100000Y-81590000D02*
X183440000Y-81590000D01*
X186100000Y-82540000D02*
X192100000Y-82540000D01*
X192100000Y-82540000D02*
X192100000Y-83300000D01*
X192100000Y-83300000D02*
X186100000Y-83300000D01*
X186100000Y-82600000D02*
X192100000Y-82600000D01*
X186100000Y-82720000D02*
X192100000Y-82720000D01*
X186100000Y-82840000D02*
X192100000Y-82840000D01*
X186100000Y-82960000D02*
X192100000Y-82960000D01*
X186100000Y-83080000D02*
X192100000Y-83080000D01*
X186100000Y-83200000D02*
X192100000Y-83200000D01*
X183110000Y-82540000D02*
X183440000Y-82540000D01*
X183110000Y-83300000D02*
X183440000Y-83300000D01*
X183440000Y-84190000D02*
X186100000Y-84190000D01*
X186100000Y-85080000D02*
X192100000Y-85080000D01*
X192100000Y-85080000D02*
X192100000Y-85840000D01*
X192100000Y-85840000D02*
X186100000Y-85840000D01*
X183042929Y-85080000D02*
X183440000Y-85080000D01*
X183042929Y-85840000D02*
X183440000Y-85840000D01*
X183440000Y-86730000D02*
X186100000Y-86730000D01*
X186100000Y-87620000D02*
X192100000Y-87620000D01*
X192100000Y-87620000D02*
X192100000Y-88380000D01*
X192100000Y-88380000D02*
X186100000Y-88380000D01*
X183042929Y-87620000D02*
X183440000Y-87620000D01*
X183042929Y-88380000D02*
X183440000Y-88380000D01*
X183440000Y-89270000D02*
X186100000Y-89270000D01*
X186100000Y-90160000D02*
X192100000Y-90160000D01*
X192100000Y-90160000D02*
X192100000Y-90920000D01*
X192100000Y-90920000D02*
X186100000Y-90920000D01*
X183042929Y-90160000D02*
X183440000Y-90160000D01*
X183042929Y-90920000D02*
X183440000Y-90920000D01*
X183440000Y-91810000D02*
X186100000Y-91810000D01*
X186100000Y-92700000D02*
X192100000Y-92700000D01*
X192100000Y-92700000D02*
X192100000Y-93460000D01*
X192100000Y-93460000D02*
X186100000Y-93460000D01*
X183042929Y-92700000D02*
X183440000Y-92700000D01*
X183042929Y-93460000D02*
X183440000Y-93460000D01*
X180730000Y-82920000D02*
X180730000Y-81650000D01*
X180730000Y-81650000D02*
X182000000Y-81650000D01*
X169928733Y-89990000D02*
X170271267Y-89990000D01*
X169928733Y-91010000D02*
X170271267Y-91010000D01*
X169928733Y-87440000D02*
X170271267Y-87440000D01*
X169928733Y-88460000D02*
X170271267Y-88460000D01*
X169928733Y-85290000D02*
X170271267Y-85290000D01*
X169928733Y-86310000D02*
X170271267Y-86310000D01*
X122000000Y-66040000D02*
X120050000Y-66040000D01*
X122000000Y-66040000D02*
X123950000Y-66040000D01*
X122000000Y-76160000D02*
X120050000Y-76160000D01*
X122000000Y-76160000D02*
X125450000Y-76160000D01*
X176128733Y-79990000D02*
X176471267Y-79990000D01*
X176128733Y-81010000D02*
X176471267Y-81010000D01*
X129000000Y-72780000D02*
X128000000Y-72780000D01*
X129000000Y-69420000D02*
X128000000Y-69420000D01*
X80771267Y-84060000D02*
X80428733Y-84060000D01*
X80771267Y-83040000D02*
X80428733Y-83040000D01*
X89040000Y-92346267D02*
X89040000Y-92003733D01*
X90060000Y-92346267D02*
X90060000Y-92003733D01*
X60590000Y-66840000D02*
X60590000Y-71100000D01*
X60590000Y-71100000D02*
X72910000Y-71100000D01*
X72910000Y-71100000D02*
X72910000Y-66840000D01*
X60590000Y-62740000D02*
X60590000Y-54380000D01*
X60590000Y-54380000D02*
X72910000Y-54380000D01*
X72910000Y-54380000D02*
X72910000Y-62740000D01*
X65500000Y-71320000D02*
X65000000Y-71820000D01*
X65000000Y-71820000D02*
X66000000Y-71820000D01*
X66000000Y-71820000D02*
X65500000Y-71320000D01*
X183440000Y-70670000D02*
X183440000Y-75870000D01*
X183440000Y-75870000D02*
X186100000Y-75870000D01*
X186100000Y-75870000D02*
X186100000Y-70670000D01*
X186100000Y-70670000D02*
X183440000Y-70670000D01*
X186100000Y-71620000D02*
X192100000Y-71620000D01*
X192100000Y-71620000D02*
X192100000Y-72380000D01*
X192100000Y-72380000D02*
X186100000Y-72380000D01*
X186100000Y-71680000D02*
X192100000Y-71680000D01*
X186100000Y-71800000D02*
X192100000Y-71800000D01*
X186100000Y-71920000D02*
X192100000Y-71920000D01*
X186100000Y-72040000D02*
X192100000Y-72040000D01*
X186100000Y-72160000D02*
X192100000Y-72160000D01*
X186100000Y-72280000D02*
X192100000Y-72280000D01*
X183110000Y-71620000D02*
X183440000Y-71620000D01*
X183110000Y-72380000D02*
X183440000Y-72380000D01*
X183440000Y-73270000D02*
X186100000Y-73270000D01*
X186100000Y-74160000D02*
X192100000Y-74160000D01*
X192100000Y-74160000D02*
X192100000Y-74920000D01*
X192100000Y-74920000D02*
X186100000Y-74920000D01*
X183042929Y-74160000D02*
X183440000Y-74160000D01*
X183042929Y-74920000D02*
X183440000Y-74920000D01*
X180730000Y-72000000D02*
X180730000Y-70730000D01*
X180730000Y-70730000D02*
X182000000Y-70730000D01*
X186915000Y-68675000D02*
X186915000Y-66015000D01*
X176695000Y-68675000D02*
X186915000Y-68675000D01*
X176695000Y-66015000D02*
X186915000Y-66015000D01*
X176695000Y-68675000D02*
X176695000Y-66015000D01*
X175425000Y-68675000D02*
X174095000Y-68675000D01*
X174095000Y-68675000D02*
X174095000Y-67345000D01*
X176997936Y-73590000D02*
X178202064Y-73590000D01*
X176997936Y-75410000D02*
X178202064Y-75410000D01*
X176997936Y-71090000D02*
X178202064Y-71090000D01*
X176997936Y-72910000D02*
X178202064Y-72910000D01*
X177880000Y-76940000D02*
X176950000Y-76940000D01*
X174720000Y-76940000D02*
X175650000Y-76940000D01*
X174720000Y-76940000D02*
X174720000Y-79100000D01*
X177880000Y-76940000D02*
X177880000Y-78400000D01*
X85190000Y-89371267D02*
X85190000Y-89028733D01*
X86210000Y-89371267D02*
X86210000Y-89028733D01*
X70460000Y-91280000D02*
X69530000Y-91280000D01*
X67300000Y-91280000D02*
X68230000Y-91280000D01*
X67300000Y-91280000D02*
X67300000Y-94440000D01*
X70460000Y-91280000D02*
X70460000Y-92740000D01*
X72751267Y-92850000D02*
X72408733Y-92850000D01*
X72751267Y-91830000D02*
X72408733Y-91830000D01*
X58010000Y-69828733D02*
X58010000Y-70171267D01*
X56990000Y-69828733D02*
X56990000Y-70171267D01*
X58235000Y-62800000D02*
X58235000Y-60340000D01*
X58235000Y-60340000D02*
X56765000Y-60340000D01*
X56765000Y-60340000D02*
X56765000Y-62800000D01*
X120328733Y-76590000D02*
X120671267Y-76590000D01*
X120328733Y-77610000D02*
X120671267Y-77610000D01*
X104328733Y-77090000D02*
X104671267Y-77090000D01*
X104328733Y-78110000D02*
X104671267Y-78110000D01*
X104800000Y-66040000D02*
X102850000Y-66040000D01*
X104800000Y-66040000D02*
X106750000Y-66040000D01*
X104800000Y-76160000D02*
X102850000Y-76160000D01*
X104800000Y-76160000D02*
X108250000Y-76160000D01*
X115000000Y-69420000D02*
X116000000Y-69420000D01*
X115000000Y-72780000D02*
X116000000Y-72780000D01*
X111800000Y-72780000D02*
X110800000Y-72780000D01*
X111800000Y-69420000D02*
X110800000Y-69420000D01*
X95600000Y-66520000D02*
X96600000Y-66520000D01*
X95600000Y-69880000D02*
X96600000Y-69880000D01*
X131610000Y-74968733D02*
X131610000Y-75311267D01*
X130590000Y-74968733D02*
X130590000Y-75311267D01*
X117840000Y-88720000D02*
X117840000Y-91380000D01*
X125520000Y-88720000D02*
X117840000Y-88720000D01*
X125520000Y-91380000D02*
X117840000Y-91380000D01*
X125520000Y-88720000D02*
X125520000Y-91380000D01*
X126790000Y-88720000D02*
X128120000Y-88720000D01*
X128120000Y-88720000D02*
X128120000Y-90050000D01*
X65110000Y-77028733D02*
X65110000Y-77371267D01*
X64090000Y-77028733D02*
X64090000Y-77371267D01*
X75330000Y-89510000D02*
X75330000Y-94710000D01*
X80470000Y-89510000D02*
X75330000Y-89510000D01*
X83070000Y-94710000D02*
X75330000Y-94710000D01*
X80470000Y-89510000D02*
X80470000Y-92110000D01*
X80470000Y-92110000D02*
X83070000Y-92110000D01*
X83070000Y-92110000D02*
X83070000Y-94710000D01*
X81740000Y-89510000D02*
X83070000Y-89510000D01*
X83070000Y-89510000D02*
X83070000Y-90840000D01*
X62990000Y-73871267D02*
X62990000Y-73528733D01*
X64010000Y-73871267D02*
X64010000Y-73528733D01*
X86171267Y-74560000D02*
X85828733Y-74560000D01*
X86171267Y-73540000D02*
X85828733Y-73540000D01*
X92335000Y-77490000D02*
X93060000Y-77490000D01*
X93060000Y-77490000D02*
X93060000Y-78215000D01*
X86565000Y-84710000D02*
X85840000Y-84710000D01*
X85840000Y-84710000D02*
X85840000Y-83985000D01*
X92335000Y-84710000D02*
X93060000Y-84710000D01*
X93060000Y-84710000D02*
X93060000Y-83985000D01*
X86565000Y-77490000D02*
X85840000Y-77490000D01*
X95400000Y-94450000D02*
X111375000Y-94450000D01*
X111375000Y-94450000D02*
X111375000Y-89350000D01*
X111375000Y-89350000D02*
X95400000Y-89350000D01*
X72408733Y-90330000D02*
X72751267Y-90330000D01*
X72408733Y-91350000D02*
X72751267Y-91350000D01*
X98696267Y-74410000D02*
X98353733Y-74410000D01*
X98696267Y-73390000D02*
X98353733Y-73390000D01*
X83880000Y-71031252D02*
X83880000Y-70508748D01*
X85300000Y-71031252D02*
X85300000Y-70508748D01*
X85928733Y-75140000D02*
X86271267Y-75140000D01*
X85928733Y-76160000D02*
X86271267Y-76160000D01*
X96110000Y-83878733D02*
X96110000Y-84221267D01*
X95090000Y-83878733D02*
X95090000Y-84221267D01*
X87710000Y-89028733D02*
X87710000Y-89371267D01*
X86690000Y-89028733D02*
X86690000Y-89371267D01*
X80771267Y-82560000D02*
X80428733Y-82560000D01*
X80771267Y-81540000D02*
X80428733Y-81540000D01*
X112315000Y-91971267D02*
X112315000Y-91628733D01*
X113335000Y-91971267D02*
X113335000Y-91628733D01*
X54410000Y-75470000D02*
X54410000Y-75700000D01*
X53890000Y-71800000D02*
X61610000Y-71800000D01*
X61610000Y-71800000D02*
X61610000Y-75700000D01*
X53890000Y-78810000D02*
X54410000Y-78810000D01*
X53890000Y-71800000D02*
X53890000Y-75700000D01*
X61090000Y-75470000D02*
X61090000Y-75700000D01*
X54410000Y-78300000D02*
X54410000Y-78810000D01*
X53890000Y-78300000D02*
X53890000Y-78810000D01*
X60550000Y-75470000D02*
X61090000Y-75470000D01*
X61090000Y-78300000D02*
X61090000Y-78810000D01*
X61090000Y-78810000D02*
X61610000Y-78810000D01*
X61610000Y-78300000D02*
X61610000Y-78810000D01*
X54410000Y-75470000D02*
X54950000Y-75470000D01*
X56050000Y-75470000D02*
X59450000Y-75470000D01*
X68400000Y-71950000D02*
X66000000Y-71950000D01*
X66000000Y-75050000D02*
X68950000Y-75050000D01*
D12*
X146643666Y-63368380D02*
X146643666Y-64082666D01*
X146596047Y-64225523D01*
X146500809Y-64320761D01*
X146357952Y-64368380D01*
X146262714Y-64368380D01*
X147072238Y-63463619D02*
X147119857Y-63416000D01*
X147215095Y-63368380D01*
X147453190Y-63368380D01*
X147548428Y-63416000D01*
X147596047Y-63463619D01*
X147643666Y-63558857D01*
X147643666Y-63654095D01*
X147596047Y-63796952D01*
X147024619Y-64368380D01*
X147643666Y-64368380D01*
X105323809Y-88376190D02*
X105323809Y-88852380D01*
X104990476Y-87852380D02*
X105323809Y-88376190D01*
X105657142Y-87852380D01*
X105942857Y-87947619D02*
X105990476Y-87900000D01*
X106085714Y-87852380D01*
X106323809Y-87852380D01*
X106419047Y-87900000D01*
X106466666Y-87947619D01*
X106514285Y-88042857D01*
X106514285Y-88138095D01*
X106466666Y-88280952D01*
X105895238Y-88852380D01*
X106514285Y-88852380D01*
X98657142Y-77952380D02*
X98323809Y-77476190D01*
X98085714Y-77952380D02*
X98085714Y-76952380D01*
X98466666Y-76952380D01*
X98561904Y-77000000D01*
X98609523Y-77047619D01*
X98657142Y-77142857D01*
X98657142Y-77285714D01*
X98609523Y-77380952D01*
X98561904Y-77428571D01*
X98466666Y-77476190D01*
X98085714Y-77476190D01*
X99038095Y-77047619D02*
X99085714Y-77000000D01*
X99180952Y-76952380D01*
X99419047Y-76952380D01*
X99514285Y-77000000D01*
X99561904Y-77047619D01*
X99609523Y-77142857D01*
X99609523Y-77238095D01*
X99561904Y-77380952D01*
X98990476Y-77952380D01*
X99609523Y-77952380D01*
X99990476Y-77047619D02*
X100038095Y-77000000D01*
X100133333Y-76952380D01*
X100371428Y-76952380D01*
X100466666Y-77000000D01*
X100514285Y-77047619D01*
X100561904Y-77142857D01*
X100561904Y-77238095D01*
X100514285Y-77380952D01*
X99942857Y-77952380D01*
X100561904Y-77952380D01*
X133596666Y-62452380D02*
X133596666Y-63166666D01*
X133549047Y-63309523D01*
X133453809Y-63404761D01*
X133310952Y-63452380D01*
X133215714Y-63452380D01*
X134596666Y-63452380D02*
X134025238Y-63452380D01*
X134310952Y-63452380D02*
X134310952Y-62452380D01*
X134215714Y-62595238D01*
X134120476Y-62690476D01*
X134025238Y-62738095D01*
X92157142Y-74507142D02*
X92109523Y-74554761D01*
X91966666Y-74602380D01*
X91871428Y-74602380D01*
X91728571Y-74554761D01*
X91633333Y-74459523D01*
X91585714Y-74364285D01*
X91538095Y-74173809D01*
X91538095Y-74030952D01*
X91585714Y-73840476D01*
X91633333Y-73745238D01*
X91728571Y-73650000D01*
X91871428Y-73602380D01*
X91966666Y-73602380D01*
X92109523Y-73650000D01*
X92157142Y-73697619D01*
X93109523Y-74602380D02*
X92538095Y-74602380D01*
X92823809Y-74602380D02*
X92823809Y-73602380D01*
X92728571Y-73745238D01*
X92633333Y-73840476D01*
X92538095Y-73888095D01*
X93490476Y-73697619D02*
X93538095Y-73650000D01*
X93633333Y-73602380D01*
X93871428Y-73602380D01*
X93966666Y-73650000D01*
X94014285Y-73697619D01*
X94061904Y-73792857D01*
X94061904Y-73888095D01*
X94014285Y-74030952D01*
X93442857Y-74602380D01*
X94061904Y-74602380D01*
X88166666Y-66052380D02*
X88166666Y-66766666D01*
X88119047Y-66909523D01*
X88023809Y-67004761D01*
X87880952Y-67052380D01*
X87785714Y-67052380D01*
X88642857Y-67052380D02*
X88642857Y-66052380D01*
X89023809Y-66052380D01*
X89119047Y-66100000D01*
X89166666Y-66147619D01*
X89214285Y-66242857D01*
X89214285Y-66385714D01*
X89166666Y-66480952D01*
X89119047Y-66528571D01*
X89023809Y-66576190D01*
X88642857Y-66576190D01*
X90166666Y-67052380D02*
X89595238Y-67052380D01*
X89880952Y-67052380D02*
X89880952Y-66052380D01*
X89785714Y-66195238D01*
X89690476Y-66290476D01*
X89595238Y-66338095D01*
X152897619Y-94235714D02*
X153088095Y-94902380D01*
X153278571Y-94426190D01*
X153469047Y-94902380D01*
X153659523Y-94235714D01*
X153945238Y-94235714D02*
X154135714Y-94902380D01*
X154326190Y-94426190D01*
X154516666Y-94902380D01*
X154707142Y-94235714D01*
X154992857Y-94235714D02*
X155183333Y-94902380D01*
X155373809Y-94426190D01*
X155564285Y-94902380D01*
X155754761Y-94235714D01*
X156135714Y-94807142D02*
X156183333Y-94854761D01*
X156135714Y-94902380D01*
X156088095Y-94854761D01*
X156135714Y-94807142D01*
X156135714Y-94902380D01*
X156564285Y-94854761D02*
X156659523Y-94902380D01*
X156850000Y-94902380D01*
X156945238Y-94854761D01*
X156992857Y-94759523D01*
X156992857Y-94711904D01*
X156945238Y-94616666D01*
X156850000Y-94569047D01*
X156707142Y-94569047D01*
X156611904Y-94521428D01*
X156564285Y-94426190D01*
X156564285Y-94378571D01*
X156611904Y-94283333D01*
X156707142Y-94235714D01*
X156850000Y-94235714D01*
X156945238Y-94283333D01*
X157850000Y-94854761D02*
X157754761Y-94902380D01*
X157564285Y-94902380D01*
X157469047Y-94854761D01*
X157421428Y-94807142D01*
X157373809Y-94711904D01*
X157373809Y-94426190D01*
X157421428Y-94330952D01*
X157469047Y-94283333D01*
X157564285Y-94235714D01*
X157754761Y-94235714D01*
X157850000Y-94283333D01*
X158278571Y-94902380D02*
X158278571Y-93902380D01*
X158707142Y-94902380D02*
X158707142Y-94378571D01*
X158659523Y-94283333D01*
X158564285Y-94235714D01*
X158421428Y-94235714D01*
X158326190Y-94283333D01*
X158278571Y-94330952D01*
X159088095Y-94235714D02*
X159278571Y-94902380D01*
X159469047Y-94426190D01*
X159659523Y-94902380D01*
X159850000Y-94235714D01*
X160230952Y-94902380D02*
X160230952Y-94235714D01*
X160230952Y-93902380D02*
X160183333Y-93950000D01*
X160230952Y-93997619D01*
X160278571Y-93950000D01*
X160230952Y-93902380D01*
X160230952Y-93997619D01*
X160707142Y-94235714D02*
X160707142Y-94902380D01*
X160707142Y-94330952D02*
X160754761Y-94283333D01*
X160850000Y-94235714D01*
X160992857Y-94235714D01*
X161088095Y-94283333D01*
X161135714Y-94378571D01*
X161135714Y-94902380D01*
X162040476Y-94235714D02*
X162040476Y-95045238D01*
X161992857Y-95140476D01*
X161945238Y-95188095D01*
X161850000Y-95235714D01*
X161707142Y-95235714D01*
X161611904Y-95188095D01*
X162040476Y-94854761D02*
X161945238Y-94902380D01*
X161754761Y-94902380D01*
X161659523Y-94854761D01*
X161611904Y-94807142D01*
X161564285Y-94711904D01*
X161564285Y-94426190D01*
X161611904Y-94330952D01*
X161659523Y-94283333D01*
X161754761Y-94235714D01*
X161945238Y-94235714D01*
X162040476Y-94283333D01*
X162897619Y-94854761D02*
X162802380Y-94902380D01*
X162611904Y-94902380D01*
X162516666Y-94854761D01*
X162469047Y-94759523D01*
X162469047Y-94378571D01*
X162516666Y-94283333D01*
X162611904Y-94235714D01*
X162802380Y-94235714D01*
X162897619Y-94283333D01*
X162945238Y-94378571D01*
X162945238Y-94473809D01*
X162469047Y-94569047D01*
X163373809Y-94235714D02*
X163373809Y-94902380D01*
X163373809Y-94330952D02*
X163421428Y-94283333D01*
X163516666Y-94235714D01*
X163659523Y-94235714D01*
X163754761Y-94283333D01*
X163802380Y-94378571D01*
X163802380Y-94902380D01*
X164278571Y-94807142D02*
X164326190Y-94854761D01*
X164278571Y-94902380D01*
X164230952Y-94854761D01*
X164278571Y-94807142D01*
X164278571Y-94902380D01*
X164897619Y-94902380D02*
X164802380Y-94854761D01*
X164754761Y-94807142D01*
X164707142Y-94711904D01*
X164707142Y-94426190D01*
X164754761Y-94330952D01*
X164802380Y-94283333D01*
X164897619Y-94235714D01*
X165040476Y-94235714D01*
X165135714Y-94283333D01*
X165183333Y-94330952D01*
X165230952Y-94426190D01*
X165230952Y-94711904D01*
X165183333Y-94807142D01*
X165135714Y-94854761D01*
X165040476Y-94902380D01*
X164897619Y-94902380D01*
X165659523Y-94902380D02*
X165659523Y-94235714D01*
X165659523Y-94426190D02*
X165707142Y-94330952D01*
X165754761Y-94283333D01*
X165850000Y-94235714D01*
X165945238Y-94235714D01*
X166707142Y-94235714D02*
X166707142Y-95045238D01*
X166659523Y-95140476D01*
X166611904Y-95188095D01*
X166516666Y-95235714D01*
X166373809Y-95235714D01*
X166278571Y-95188095D01*
X166707142Y-94854761D02*
X166611904Y-94902380D01*
X166421428Y-94902380D01*
X166326190Y-94854761D01*
X166278571Y-94807142D01*
X166230952Y-94711904D01*
X166230952Y-94426190D01*
X166278571Y-94330952D01*
X166326190Y-94283333D01*
X166421428Y-94235714D01*
X166611904Y-94235714D01*
X166707142Y-94283333D01*
X73633333Y-79602380D02*
X73300000Y-79126190D01*
X73061904Y-79602380D02*
X73061904Y-78602380D01*
X73442857Y-78602380D01*
X73538095Y-78650000D01*
X73585714Y-78697619D01*
X73633333Y-78792857D01*
X73633333Y-78935714D01*
X73585714Y-79030952D01*
X73538095Y-79078571D01*
X73442857Y-79126190D01*
X73061904Y-79126190D01*
X74490476Y-78935714D02*
X74490476Y-79602380D01*
X74252380Y-78554761D02*
X74014285Y-79269047D01*
X74633333Y-79269047D01*
X73633333Y-81102380D02*
X73300000Y-80626190D01*
X73061904Y-81102380D02*
X73061904Y-80102380D01*
X73442857Y-80102380D01*
X73538095Y-80150000D01*
X73585714Y-80197619D01*
X73633333Y-80292857D01*
X73633333Y-80435714D01*
X73585714Y-80530952D01*
X73538095Y-80578571D01*
X73442857Y-80626190D01*
X73061904Y-80626190D01*
X73966666Y-80102380D02*
X74585714Y-80102380D01*
X74252380Y-80483333D01*
X74395238Y-80483333D01*
X74490476Y-80530952D01*
X74538095Y-80578571D01*
X74585714Y-80673809D01*
X74585714Y-80911904D01*
X74538095Y-81007142D01*
X74490476Y-81054761D01*
X74395238Y-81102380D01*
X74109523Y-81102380D01*
X74014285Y-81054761D01*
X73966666Y-81007142D01*
X183866666Y-80152380D02*
X183866666Y-80866666D01*
X183819047Y-81009523D01*
X183723809Y-81104761D01*
X183580952Y-81152380D01*
X183485714Y-81152380D01*
X184247619Y-80152380D02*
X184866666Y-80152380D01*
X184533333Y-80533333D01*
X184676190Y-80533333D01*
X184771428Y-80580952D01*
X184819047Y-80628571D01*
X184866666Y-80723809D01*
X184866666Y-80961904D01*
X184819047Y-81057142D01*
X184771428Y-81104761D01*
X184676190Y-81152380D01*
X184390476Y-81152380D01*
X184295238Y-81104761D01*
X184247619Y-81057142D01*
X169457142Y-92252380D02*
X169123809Y-91776190D01*
X168885714Y-92252380D02*
X168885714Y-91252380D01*
X169266666Y-91252380D01*
X169361904Y-91300000D01*
X169409523Y-91347619D01*
X169457142Y-91442857D01*
X169457142Y-91585714D01*
X169409523Y-91680952D01*
X169361904Y-91728571D01*
X169266666Y-91776190D01*
X168885714Y-91776190D01*
X169838095Y-91347619D02*
X169885714Y-91300000D01*
X169980952Y-91252380D01*
X170219047Y-91252380D01*
X170314285Y-91300000D01*
X170361904Y-91347619D01*
X170409523Y-91442857D01*
X170409523Y-91538095D01*
X170361904Y-91680952D01*
X169790476Y-92252380D01*
X170409523Y-92252380D01*
X171028571Y-91252380D02*
X171123809Y-91252380D01*
X171219047Y-91300000D01*
X171266666Y-91347619D01*
X171314285Y-91442857D01*
X171361904Y-91633333D01*
X171361904Y-91871428D01*
X171314285Y-92061904D01*
X171266666Y-92157142D01*
X171219047Y-92204761D01*
X171123809Y-92252380D01*
X171028571Y-92252380D01*
X170933333Y-92204761D01*
X170885714Y-92157142D01*
X170838095Y-92061904D01*
X170790476Y-91871428D01*
X170790476Y-91633333D01*
X170838095Y-91442857D01*
X170885714Y-91347619D01*
X170933333Y-91300000D01*
X171028571Y-91252380D01*
X169457142Y-89652380D02*
X169123809Y-89176190D01*
X168885714Y-89652380D02*
X168885714Y-88652380D01*
X169266666Y-88652380D01*
X169361904Y-88700000D01*
X169409523Y-88747619D01*
X169457142Y-88842857D01*
X169457142Y-88985714D01*
X169409523Y-89080952D01*
X169361904Y-89128571D01*
X169266666Y-89176190D01*
X168885714Y-89176190D01*
X170409523Y-89652380D02*
X169838095Y-89652380D01*
X170123809Y-89652380D02*
X170123809Y-88652380D01*
X170028571Y-88795238D01*
X169933333Y-88890476D01*
X169838095Y-88938095D01*
X170885714Y-89652380D02*
X171076190Y-89652380D01*
X171171428Y-89604761D01*
X171219047Y-89557142D01*
X171314285Y-89414285D01*
X171361904Y-89223809D01*
X171361904Y-88842857D01*
X171314285Y-88747619D01*
X171266666Y-88700000D01*
X171171428Y-88652380D01*
X170980952Y-88652380D01*
X170885714Y-88700000D01*
X170838095Y-88747619D01*
X170790476Y-88842857D01*
X170790476Y-89080952D01*
X170838095Y-89176190D01*
X170885714Y-89223809D01*
X170980952Y-89271428D01*
X171171428Y-89271428D01*
X171266666Y-89223809D01*
X171314285Y-89176190D01*
X171361904Y-89080952D01*
X169457142Y-84952380D02*
X169123809Y-84476190D01*
X168885714Y-84952380D02*
X168885714Y-83952380D01*
X169266666Y-83952380D01*
X169361904Y-84000000D01*
X169409523Y-84047619D01*
X169457142Y-84142857D01*
X169457142Y-84285714D01*
X169409523Y-84380952D01*
X169361904Y-84428571D01*
X169266666Y-84476190D01*
X168885714Y-84476190D01*
X170409523Y-84952380D02*
X169838095Y-84952380D01*
X170123809Y-84952380D02*
X170123809Y-83952380D01*
X170028571Y-84095238D01*
X169933333Y-84190476D01*
X169838095Y-84238095D01*
X170980952Y-84380952D02*
X170885714Y-84333333D01*
X170838095Y-84285714D01*
X170790476Y-84190476D01*
X170790476Y-84142857D01*
X170838095Y-84047619D01*
X170885714Y-84000000D01*
X170980952Y-83952380D01*
X171171428Y-83952380D01*
X171266666Y-84000000D01*
X171314285Y-84047619D01*
X171361904Y-84142857D01*
X171361904Y-84190476D01*
X171314285Y-84285714D01*
X171266666Y-84333333D01*
X171171428Y-84380952D01*
X170980952Y-84380952D01*
X170885714Y-84428571D01*
X170838095Y-84476190D01*
X170790476Y-84571428D01*
X170790476Y-84761904D01*
X170838095Y-84857142D01*
X170885714Y-84904761D01*
X170980952Y-84952380D01*
X171171428Y-84952380D01*
X171266666Y-84904761D01*
X171314285Y-84857142D01*
X171361904Y-84761904D01*
X171361904Y-84571428D01*
X171314285Y-84476190D01*
X171266666Y-84428571D01*
X171171428Y-84380952D01*
X123238095Y-77052380D02*
X123238095Y-77861904D01*
X123285714Y-77957142D01*
X123333333Y-78004761D01*
X123428571Y-78052380D01*
X123619047Y-78052380D01*
X123714285Y-78004761D01*
X123761904Y-77957142D01*
X123809523Y-77861904D01*
X123809523Y-77052380D01*
X124190476Y-77052380D02*
X124809523Y-77052380D01*
X124476190Y-77433333D01*
X124619047Y-77433333D01*
X124714285Y-77480952D01*
X124761904Y-77528571D01*
X124809523Y-77623809D01*
X124809523Y-77861904D01*
X124761904Y-77957142D01*
X124714285Y-78004761D01*
X124619047Y-78052380D01*
X124333333Y-78052380D01*
X124238095Y-78004761D01*
X124190476Y-77957142D01*
X172457142Y-80952380D02*
X172123809Y-80476190D01*
X171885714Y-80952380D02*
X171885714Y-79952380D01*
X172266666Y-79952380D01*
X172361904Y-80000000D01*
X172409523Y-80047619D01*
X172457142Y-80142857D01*
X172457142Y-80285714D01*
X172409523Y-80380952D01*
X172361904Y-80428571D01*
X172266666Y-80476190D01*
X171885714Y-80476190D01*
X173409523Y-80952380D02*
X172838095Y-80952380D01*
X173123809Y-80952380D02*
X173123809Y-79952380D01*
X173028571Y-80095238D01*
X172933333Y-80190476D01*
X172838095Y-80238095D01*
X173742857Y-79952380D02*
X174409523Y-79952380D01*
X173980952Y-80952380D01*
X127857142Y-69002380D02*
X127523809Y-68526190D01*
X127285714Y-69002380D02*
X127285714Y-68002380D01*
X127666666Y-68002380D01*
X127761904Y-68050000D01*
X127809523Y-68097619D01*
X127857142Y-68192857D01*
X127857142Y-68335714D01*
X127809523Y-68430952D01*
X127761904Y-68478571D01*
X127666666Y-68526190D01*
X127285714Y-68526190D01*
X128809523Y-69002380D02*
X128238095Y-69002380D01*
X128523809Y-69002380D02*
X128523809Y-68002380D01*
X128428571Y-68145238D01*
X128333333Y-68240476D01*
X128238095Y-68288095D01*
X129761904Y-69002380D02*
X129190476Y-69002380D01*
X129476190Y-69002380D02*
X129476190Y-68002380D01*
X129380952Y-68145238D01*
X129285714Y-68240476D01*
X129190476Y-68288095D01*
X79957142Y-85337142D02*
X79909523Y-85384761D01*
X79766666Y-85432380D01*
X79671428Y-85432380D01*
X79528571Y-85384761D01*
X79433333Y-85289523D01*
X79385714Y-85194285D01*
X79338095Y-85003809D01*
X79338095Y-84860952D01*
X79385714Y-84670476D01*
X79433333Y-84575238D01*
X79528571Y-84480000D01*
X79671428Y-84432380D01*
X79766666Y-84432380D01*
X79909523Y-84480000D01*
X79957142Y-84527619D01*
X80909523Y-85432380D02*
X80338095Y-85432380D01*
X80623809Y-85432380D02*
X80623809Y-84432380D01*
X80528571Y-84575238D01*
X80433333Y-84670476D01*
X80338095Y-84718095D01*
X81766666Y-84765714D02*
X81766666Y-85432380D01*
X81528571Y-84384761D02*
X81290476Y-85099047D01*
X81909523Y-85099047D01*
X89907142Y-95041666D02*
X89954761Y-95089285D01*
X90002380Y-95232142D01*
X90002380Y-95327380D01*
X89954761Y-95470238D01*
X89859523Y-95565476D01*
X89764285Y-95613095D01*
X89573809Y-95660714D01*
X89430952Y-95660714D01*
X89240476Y-95613095D01*
X89145238Y-95565476D01*
X89050000Y-95470238D01*
X89002380Y-95327380D01*
X89002380Y-95232142D01*
X89050000Y-95089285D01*
X89097619Y-95041666D01*
X89097619Y-94660714D02*
X89050000Y-94613095D01*
X89002380Y-94517857D01*
X89002380Y-94279761D01*
X89050000Y-94184523D01*
X89097619Y-94136904D01*
X89192857Y-94089285D01*
X89288095Y-94089285D01*
X89430952Y-94136904D01*
X90002380Y-94708333D01*
X90002380Y-94089285D01*
X73666666Y-69952380D02*
X73666666Y-70666666D01*
X73619047Y-70809523D01*
X73523809Y-70904761D01*
X73380952Y-70952380D01*
X73285714Y-70952380D01*
X74571428Y-70285714D02*
X74571428Y-70952380D01*
X74333333Y-69904761D02*
X74095238Y-70619047D01*
X74714285Y-70619047D01*
X183966666Y-69252380D02*
X183966666Y-69966666D01*
X183919047Y-70109523D01*
X183823809Y-70204761D01*
X183680952Y-70252380D01*
X183585714Y-70252380D01*
X184585714Y-69680952D02*
X184490476Y-69633333D01*
X184442857Y-69585714D01*
X184395238Y-69490476D01*
X184395238Y-69442857D01*
X184442857Y-69347619D01*
X184490476Y-69300000D01*
X184585714Y-69252380D01*
X184776190Y-69252380D01*
X184871428Y-69300000D01*
X184919047Y-69347619D01*
X184966666Y-69442857D01*
X184966666Y-69490476D01*
X184919047Y-69585714D01*
X184871428Y-69633333D01*
X184776190Y-69680952D01*
X184585714Y-69680952D01*
X184490476Y-69728571D01*
X184442857Y-69776190D01*
X184395238Y-69871428D01*
X184395238Y-70061904D01*
X184442857Y-70157142D01*
X184490476Y-70204761D01*
X184585714Y-70252380D01*
X184776190Y-70252380D01*
X184871428Y-70204761D01*
X184919047Y-70157142D01*
X184966666Y-70061904D01*
X184966666Y-69871428D01*
X184919047Y-69776190D01*
X184871428Y-69728571D01*
X184776190Y-69680952D01*
X172761666Y-66797380D02*
X172761666Y-67511666D01*
X172714047Y-67654523D01*
X172618809Y-67749761D01*
X172475952Y-67797380D01*
X172380714Y-67797380D01*
X173142619Y-66797380D02*
X173809285Y-66797380D01*
X173380714Y-67797380D01*
X172757142Y-74852380D02*
X172423809Y-74376190D01*
X172185714Y-74852380D02*
X172185714Y-73852380D01*
X172566666Y-73852380D01*
X172661904Y-73900000D01*
X172709523Y-73947619D01*
X172757142Y-74042857D01*
X172757142Y-74185714D01*
X172709523Y-74280952D01*
X172661904Y-74328571D01*
X172566666Y-74376190D01*
X172185714Y-74376190D01*
X173709523Y-74852380D02*
X173138095Y-74852380D01*
X173423809Y-74852380D02*
X173423809Y-73852380D01*
X173328571Y-73995238D01*
X173233333Y-74090476D01*
X173138095Y-74138095D01*
X174566666Y-73852380D02*
X174376190Y-73852380D01*
X174280952Y-73900000D01*
X174233333Y-73947619D01*
X174138095Y-74090476D01*
X174090476Y-74280952D01*
X174090476Y-74661904D01*
X174138095Y-74757142D01*
X174185714Y-74804761D01*
X174280952Y-74852380D01*
X174471428Y-74852380D01*
X174566666Y-74804761D01*
X174614285Y-74757142D01*
X174661904Y-74661904D01*
X174661904Y-74423809D01*
X174614285Y-74328571D01*
X174566666Y-74280952D01*
X174471428Y-74233333D01*
X174280952Y-74233333D01*
X174185714Y-74280952D01*
X174138095Y-74328571D01*
X174090476Y-74423809D01*
X172657142Y-72452380D02*
X172323809Y-71976190D01*
X172085714Y-72452380D02*
X172085714Y-71452380D01*
X172466666Y-71452380D01*
X172561904Y-71500000D01*
X172609523Y-71547619D01*
X172657142Y-71642857D01*
X172657142Y-71785714D01*
X172609523Y-71880952D01*
X172561904Y-71928571D01*
X172466666Y-71976190D01*
X172085714Y-71976190D01*
X173609523Y-72452380D02*
X173038095Y-72452380D01*
X173323809Y-72452380D02*
X173323809Y-71452380D01*
X173228571Y-71595238D01*
X173133333Y-71690476D01*
X173038095Y-71738095D01*
X174514285Y-71452380D02*
X174038095Y-71452380D01*
X173990476Y-71928571D01*
X174038095Y-71880952D01*
X174133333Y-71833333D01*
X174371428Y-71833333D01*
X174466666Y-71880952D01*
X174514285Y-71928571D01*
X174561904Y-72023809D01*
X174561904Y-72261904D01*
X174514285Y-72357142D01*
X174466666Y-72404761D01*
X174371428Y-72452380D01*
X174133333Y-72452380D01*
X174038095Y-72404761D01*
X173990476Y-72357142D01*
X173204761Y-78647619D02*
X173109523Y-78600000D01*
X173014285Y-78504761D01*
X172871428Y-78361904D01*
X172776190Y-78314285D01*
X172680952Y-78314285D01*
X172728571Y-78552380D02*
X172633333Y-78504761D01*
X172538095Y-78409523D01*
X172490476Y-78219047D01*
X172490476Y-77885714D01*
X172538095Y-77695238D01*
X172633333Y-77600000D01*
X172728571Y-77552380D01*
X172919047Y-77552380D01*
X173014285Y-77600000D01*
X173109523Y-77695238D01*
X173157142Y-77885714D01*
X173157142Y-78219047D01*
X173109523Y-78409523D01*
X173014285Y-78504761D01*
X172919047Y-78552380D01*
X172728571Y-78552380D01*
X174109523Y-78552380D02*
X173538095Y-78552380D01*
X173823809Y-78552380D02*
X173823809Y-77552380D01*
X173728571Y-77695238D01*
X173633333Y-77790476D01*
X173538095Y-77838095D01*
X86107142Y-93192857D02*
X86154761Y-93240476D01*
X86202380Y-93383333D01*
X86202380Y-93478571D01*
X86154761Y-93621428D01*
X86059523Y-93716666D01*
X85964285Y-93764285D01*
X85773809Y-93811904D01*
X85630952Y-93811904D01*
X85440476Y-93764285D01*
X85345238Y-93716666D01*
X85250000Y-93621428D01*
X85202380Y-93478571D01*
X85202380Y-93383333D01*
X85250000Y-93240476D01*
X85297619Y-93192857D01*
X86202380Y-92240476D02*
X86202380Y-92811904D01*
X86202380Y-92526190D02*
X85202380Y-92526190D01*
X85345238Y-92621428D01*
X85440476Y-92716666D01*
X85488095Y-92811904D01*
X85202380Y-91907142D02*
X85202380Y-91288095D01*
X85583333Y-91621428D01*
X85583333Y-91478571D01*
X85630952Y-91383333D01*
X85678571Y-91335714D01*
X85773809Y-91288095D01*
X86011904Y-91288095D01*
X86107142Y-91335714D01*
X86154761Y-91383333D01*
X86202380Y-91478571D01*
X86202380Y-91764285D01*
X86154761Y-91859523D01*
X86107142Y-91907142D01*
X65428095Y-91552380D02*
X65428095Y-92361904D01*
X65475714Y-92457142D01*
X65523333Y-92504761D01*
X65618571Y-92552380D01*
X65809047Y-92552380D01*
X65904285Y-92504761D01*
X65951904Y-92457142D01*
X65999523Y-92361904D01*
X65999523Y-91552380D01*
X66904285Y-91885714D02*
X66904285Y-92552380D01*
X66666190Y-91504761D02*
X66428095Y-92219047D01*
X67047142Y-92219047D01*
X72127142Y-94142380D02*
X71793809Y-93666190D01*
X71555714Y-94142380D02*
X71555714Y-93142380D01*
X71936666Y-93142380D01*
X72031904Y-93190000D01*
X72079523Y-93237619D01*
X72127142Y-93332857D01*
X72127142Y-93475714D01*
X72079523Y-93570952D01*
X72031904Y-93618571D01*
X71936666Y-93666190D01*
X71555714Y-93666190D01*
X73079523Y-94142380D02*
X72508095Y-94142380D01*
X72793809Y-94142380D02*
X72793809Y-93142380D01*
X72698571Y-93285238D01*
X72603333Y-93380476D01*
X72508095Y-93428095D01*
X73936666Y-93475714D02*
X73936666Y-94142380D01*
X73698571Y-93094761D02*
X73460476Y-93809047D01*
X74079523Y-93809047D01*
X59452380Y-70642857D02*
X58976190Y-70976190D01*
X59452380Y-71214285D02*
X58452380Y-71214285D01*
X58452380Y-70833333D01*
X58500000Y-70738095D01*
X58547619Y-70690476D01*
X58642857Y-70642857D01*
X58785714Y-70642857D01*
X58880952Y-70690476D01*
X58928571Y-70738095D01*
X58976190Y-70833333D01*
X58976190Y-71214285D01*
X59452380Y-69690476D02*
X59452380Y-70261904D01*
X59452380Y-69976190D02*
X58452380Y-69976190D01*
X58595238Y-70071428D01*
X58690476Y-70166666D01*
X58738095Y-70261904D01*
X58547619Y-69309523D02*
X58500000Y-69261904D01*
X58452380Y-69166666D01*
X58452380Y-68928571D01*
X58500000Y-68833333D01*
X58547619Y-68785714D01*
X58642857Y-68738095D01*
X58738095Y-68738095D01*
X58880952Y-68785714D01*
X59452380Y-69357142D01*
X59452380Y-68738095D01*
X59552380Y-62238095D02*
X58552380Y-62238095D01*
X58552380Y-62000000D01*
X58600000Y-61857142D01*
X58695238Y-61761904D01*
X58790476Y-61714285D01*
X58980952Y-61666666D01*
X59123809Y-61666666D01*
X59314285Y-61714285D01*
X59409523Y-61761904D01*
X59504761Y-61857142D01*
X59552380Y-62000000D01*
X59552380Y-62238095D01*
X59552380Y-60714285D02*
X59552380Y-61285714D01*
X59552380Y-61000000D02*
X58552380Y-61000000D01*
X58695238Y-61095238D01*
X58790476Y-61190476D01*
X58838095Y-61285714D01*
X119857142Y-78957142D02*
X119809523Y-79004761D01*
X119666666Y-79052380D01*
X119571428Y-79052380D01*
X119428571Y-79004761D01*
X119333333Y-78909523D01*
X119285714Y-78814285D01*
X119238095Y-78623809D01*
X119238095Y-78480952D01*
X119285714Y-78290476D01*
X119333333Y-78195238D01*
X119428571Y-78100000D01*
X119571428Y-78052380D01*
X119666666Y-78052380D01*
X119809523Y-78100000D01*
X119857142Y-78147619D01*
X120809523Y-79052380D02*
X120238095Y-79052380D01*
X120523809Y-79052380D02*
X120523809Y-78052380D01*
X120428571Y-78195238D01*
X120333333Y-78290476D01*
X120238095Y-78338095D01*
X121761904Y-79052380D02*
X121190476Y-79052380D01*
X121476190Y-79052380D02*
X121476190Y-78052380D01*
X121380952Y-78195238D01*
X121285714Y-78290476D01*
X121190476Y-78338095D01*
X103857142Y-79457142D02*
X103809523Y-79504761D01*
X103666666Y-79552380D01*
X103571428Y-79552380D01*
X103428571Y-79504761D01*
X103333333Y-79409523D01*
X103285714Y-79314285D01*
X103238095Y-79123809D01*
X103238095Y-78980952D01*
X103285714Y-78790476D01*
X103333333Y-78695238D01*
X103428571Y-78600000D01*
X103571428Y-78552380D01*
X103666666Y-78552380D01*
X103809523Y-78600000D01*
X103857142Y-78647619D01*
X104809523Y-79552380D02*
X104238095Y-79552380D01*
X104523809Y-79552380D02*
X104523809Y-78552380D01*
X104428571Y-78695238D01*
X104333333Y-78790476D01*
X104238095Y-78838095D01*
X105428571Y-78552380D02*
X105523809Y-78552380D01*
X105619047Y-78600000D01*
X105666666Y-78647619D01*
X105714285Y-78742857D01*
X105761904Y-78933333D01*
X105761904Y-79171428D01*
X105714285Y-79361904D01*
X105666666Y-79457142D01*
X105619047Y-79504761D01*
X105523809Y-79552380D01*
X105428571Y-79552380D01*
X105333333Y-79504761D01*
X105285714Y-79457142D01*
X105238095Y-79361904D01*
X105190476Y-79171428D01*
X105190476Y-78933333D01*
X105238095Y-78742857D01*
X105285714Y-78647619D01*
X105333333Y-78600000D01*
X105428571Y-78552380D01*
X106538095Y-76652380D02*
X106538095Y-77461904D01*
X106585714Y-77557142D01*
X106633333Y-77604761D01*
X106728571Y-77652380D01*
X106919047Y-77652380D01*
X107014285Y-77604761D01*
X107061904Y-77557142D01*
X107109523Y-77461904D01*
X107109523Y-76652380D01*
X108061904Y-76652380D02*
X107585714Y-76652380D01*
X107538095Y-77128571D01*
X107585714Y-77080952D01*
X107680952Y-77033333D01*
X107919047Y-77033333D01*
X108014285Y-77080952D01*
X108061904Y-77128571D01*
X108109523Y-77223809D01*
X108109523Y-77461904D01*
X108061904Y-77557142D01*
X108014285Y-77604761D01*
X107919047Y-77652380D01*
X107680952Y-77652380D01*
X107585714Y-77604761D01*
X107538095Y-77557142D01*
X114807142Y-69002380D02*
X114473809Y-68526190D01*
X114235714Y-69002380D02*
X114235714Y-68002380D01*
X114616666Y-68002380D01*
X114711904Y-68050000D01*
X114759523Y-68097619D01*
X114807142Y-68192857D01*
X114807142Y-68335714D01*
X114759523Y-68430952D01*
X114711904Y-68478571D01*
X114616666Y-68526190D01*
X114235714Y-68526190D01*
X115759523Y-69002380D02*
X115188095Y-69002380D01*
X115473809Y-69002380D02*
X115473809Y-68002380D01*
X115378571Y-68145238D01*
X115283333Y-68240476D01*
X115188095Y-68288095D01*
X116378571Y-68002380D02*
X116473809Y-68002380D01*
X116569047Y-68050000D01*
X116616666Y-68097619D01*
X116664285Y-68192857D01*
X116711904Y-68383333D01*
X116711904Y-68621428D01*
X116664285Y-68811904D01*
X116616666Y-68907142D01*
X116569047Y-68954761D01*
X116473809Y-69002380D01*
X116378571Y-69002380D01*
X116283333Y-68954761D01*
X116235714Y-68907142D01*
X116188095Y-68811904D01*
X116140476Y-68621428D01*
X116140476Y-68383333D01*
X116188095Y-68192857D01*
X116235714Y-68097619D01*
X116283333Y-68050000D01*
X116378571Y-68002380D01*
X111183333Y-69052380D02*
X110850000Y-68576190D01*
X110611904Y-69052380D02*
X110611904Y-68052380D01*
X110992857Y-68052380D01*
X111088095Y-68100000D01*
X111135714Y-68147619D01*
X111183333Y-68242857D01*
X111183333Y-68385714D01*
X111135714Y-68480952D01*
X111088095Y-68528571D01*
X110992857Y-68576190D01*
X110611904Y-68576190D01*
X111659523Y-69052380D02*
X111850000Y-69052380D01*
X111945238Y-69004761D01*
X111992857Y-68957142D01*
X112088095Y-68814285D01*
X112135714Y-68623809D01*
X112135714Y-68242857D01*
X112088095Y-68147619D01*
X112040476Y-68100000D01*
X111945238Y-68052380D01*
X111754761Y-68052380D01*
X111659523Y-68100000D01*
X111611904Y-68147619D01*
X111564285Y-68242857D01*
X111564285Y-68480952D01*
X111611904Y-68576190D01*
X111659523Y-68623809D01*
X111754761Y-68671428D01*
X111945238Y-68671428D01*
X112040476Y-68623809D01*
X112088095Y-68576190D01*
X112135714Y-68480952D01*
X95933333Y-66152380D02*
X95600000Y-65676190D01*
X95361904Y-66152380D02*
X95361904Y-65152380D01*
X95742857Y-65152380D01*
X95838095Y-65200000D01*
X95885714Y-65247619D01*
X95933333Y-65342857D01*
X95933333Y-65485714D01*
X95885714Y-65580952D01*
X95838095Y-65628571D01*
X95742857Y-65676190D01*
X95361904Y-65676190D01*
X96504761Y-65580952D02*
X96409523Y-65533333D01*
X96361904Y-65485714D01*
X96314285Y-65390476D01*
X96314285Y-65342857D01*
X96361904Y-65247619D01*
X96409523Y-65200000D01*
X96504761Y-65152380D01*
X96695238Y-65152380D01*
X96790476Y-65200000D01*
X96838095Y-65247619D01*
X96885714Y-65342857D01*
X96885714Y-65390476D01*
X96838095Y-65485714D01*
X96790476Y-65533333D01*
X96695238Y-65580952D01*
X96504761Y-65580952D01*
X96409523Y-65628571D01*
X96361904Y-65676190D01*
X96314285Y-65771428D01*
X96314285Y-65961904D01*
X96361904Y-66057142D01*
X96409523Y-66104761D01*
X96504761Y-66152380D01*
X96695238Y-66152380D01*
X96790476Y-66104761D01*
X96838095Y-66057142D01*
X96885714Y-65961904D01*
X96885714Y-65771428D01*
X96838095Y-65676190D01*
X96790476Y-65628571D01*
X96695238Y-65580952D01*
X131552380Y-78106666D02*
X131076190Y-78440000D01*
X131552380Y-78678095D02*
X130552380Y-78678095D01*
X130552380Y-78297142D01*
X130600000Y-78201904D01*
X130647619Y-78154285D01*
X130742857Y-78106666D01*
X130885714Y-78106666D01*
X130980952Y-78154285D01*
X131028571Y-78201904D01*
X131076190Y-78297142D01*
X131076190Y-78678095D01*
X130647619Y-77725714D02*
X130600000Y-77678095D01*
X130552380Y-77582857D01*
X130552380Y-77344761D01*
X130600000Y-77249523D01*
X130647619Y-77201904D01*
X130742857Y-77154285D01*
X130838095Y-77154285D01*
X130980952Y-77201904D01*
X131552380Y-77773333D01*
X131552380Y-77154285D01*
X129366666Y-89452380D02*
X129366666Y-90166666D01*
X129319047Y-90309523D01*
X129223809Y-90404761D01*
X129080952Y-90452380D01*
X128985714Y-90452380D01*
X130271428Y-89452380D02*
X130080952Y-89452380D01*
X129985714Y-89500000D01*
X129938095Y-89547619D01*
X129842857Y-89690476D01*
X129795238Y-89880952D01*
X129795238Y-90261904D01*
X129842857Y-90357142D01*
X129890476Y-90404761D01*
X129985714Y-90452380D01*
X130176190Y-90452380D01*
X130271428Y-90404761D01*
X130319047Y-90357142D01*
X130366666Y-90261904D01*
X130366666Y-90023809D01*
X130319047Y-89928571D01*
X130271428Y-89880952D01*
X130176190Y-89833333D01*
X129985714Y-89833333D01*
X129890476Y-89880952D01*
X129842857Y-89928571D01*
X129795238Y-90023809D01*
X65928571Y-78083333D02*
X65928571Y-78416666D01*
X66452380Y-78416666D02*
X65452380Y-78416666D01*
X65452380Y-77940476D01*
X65928571Y-77226190D02*
X65976190Y-77083333D01*
X66023809Y-77035714D01*
X66119047Y-76988095D01*
X66261904Y-76988095D01*
X66357142Y-77035714D01*
X66404761Y-77083333D01*
X66452380Y-77178571D01*
X66452380Y-77559523D01*
X65452380Y-77559523D01*
X65452380Y-77226190D01*
X65500000Y-77130952D01*
X65547619Y-77083333D01*
X65642857Y-77035714D01*
X65738095Y-77035714D01*
X65833333Y-77083333D01*
X65880952Y-77130952D01*
X65928571Y-77226190D01*
X65928571Y-77559523D01*
X66452380Y-76035714D02*
X66452380Y-76607142D01*
X66452380Y-76321428D02*
X65452380Y-76321428D01*
X65595238Y-76416666D01*
X65690476Y-76511904D01*
X65738095Y-76607142D01*
X78756666Y-94982380D02*
X78756666Y-95696666D01*
X78709047Y-95839523D01*
X78613809Y-95934761D01*
X78470952Y-95982380D01*
X78375714Y-95982380D01*
X79280476Y-95982380D02*
X79470952Y-95982380D01*
X79566190Y-95934761D01*
X79613809Y-95887142D01*
X79709047Y-95744285D01*
X79756666Y-95553809D01*
X79756666Y-95172857D01*
X79709047Y-95077619D01*
X79661428Y-95030000D01*
X79566190Y-94982380D01*
X79375714Y-94982380D01*
X79280476Y-95030000D01*
X79232857Y-95077619D01*
X79185238Y-95172857D01*
X79185238Y-95410952D01*
X79232857Y-95506190D01*
X79280476Y-95553809D01*
X79375714Y-95601428D01*
X79566190Y-95601428D01*
X79661428Y-95553809D01*
X79709047Y-95506190D01*
X79756666Y-95410952D01*
X62607142Y-73716666D02*
X62654761Y-73764285D01*
X62702380Y-73907142D01*
X62702380Y-74002380D01*
X62654761Y-74145238D01*
X62559523Y-74240476D01*
X62464285Y-74288095D01*
X62273809Y-74335714D01*
X62130952Y-74335714D01*
X61940476Y-74288095D01*
X61845238Y-74240476D01*
X61750000Y-74145238D01*
X61702380Y-74002380D01*
X61702380Y-73907142D01*
X61750000Y-73764285D01*
X61797619Y-73716666D01*
X62702380Y-73240476D02*
X62702380Y-73050000D01*
X62654761Y-72954761D01*
X62607142Y-72907142D01*
X62464285Y-72811904D01*
X62273809Y-72764285D01*
X61892857Y-72764285D01*
X61797619Y-72811904D01*
X61750000Y-72859523D01*
X61702380Y-72954761D01*
X61702380Y-73145238D01*
X61750000Y-73240476D01*
X61797619Y-73288095D01*
X61892857Y-73335714D01*
X62130952Y-73335714D01*
X62226190Y-73288095D01*
X62273809Y-73240476D01*
X62321428Y-73145238D01*
X62321428Y-72954761D01*
X62273809Y-72859523D01*
X62226190Y-72811904D01*
X62130952Y-72764285D01*
X83233333Y-74407142D02*
X83185714Y-74454761D01*
X83042857Y-74502380D01*
X82947619Y-74502380D01*
X82804761Y-74454761D01*
X82709523Y-74359523D01*
X82661904Y-74264285D01*
X82614285Y-74073809D01*
X82614285Y-73930952D01*
X82661904Y-73740476D01*
X82709523Y-73645238D01*
X82804761Y-73550000D01*
X82947619Y-73502380D01*
X83042857Y-73502380D01*
X83185714Y-73550000D01*
X83233333Y-73597619D01*
X83804761Y-73930952D02*
X83709523Y-73883333D01*
X83661904Y-73835714D01*
X83614285Y-73740476D01*
X83614285Y-73692857D01*
X83661904Y-73597619D01*
X83709523Y-73550000D01*
X83804761Y-73502380D01*
X83995238Y-73502380D01*
X84090476Y-73550000D01*
X84138095Y-73597619D01*
X84185714Y-73692857D01*
X84185714Y-73740476D01*
X84138095Y-73835714D01*
X84090476Y-73883333D01*
X83995238Y-73930952D01*
X83804761Y-73930952D01*
X83709523Y-73978571D01*
X83661904Y-74026190D01*
X83614285Y-74121428D01*
X83614285Y-74311904D01*
X83661904Y-74407142D01*
X83709523Y-74454761D01*
X83804761Y-74502380D01*
X83995238Y-74502380D01*
X84090476Y-74454761D01*
X84138095Y-74407142D01*
X84185714Y-74311904D01*
X84185714Y-74121428D01*
X84138095Y-74026190D01*
X84090476Y-73978571D01*
X83995238Y-73930952D01*
X83338095Y-77402380D02*
X83338095Y-78211904D01*
X83385714Y-78307142D01*
X83433333Y-78354761D01*
X83528571Y-78402380D01*
X83719047Y-78402380D01*
X83814285Y-78354761D01*
X83861904Y-78307142D01*
X83909523Y-78211904D01*
X83909523Y-77402380D01*
X84909523Y-78402380D02*
X84338095Y-78402380D01*
X84623809Y-78402380D02*
X84623809Y-77402380D01*
X84528571Y-77545238D01*
X84433333Y-77640476D01*
X84338095Y-77688095D01*
X109973809Y-88376190D02*
X109973809Y-88852380D01*
X109640476Y-87852380D02*
X109973809Y-88376190D01*
X110307142Y-87852380D01*
X111164285Y-88852380D02*
X110592857Y-88852380D01*
X110878571Y-88852380D02*
X110878571Y-87852380D01*
X110783333Y-87995238D01*
X110688095Y-88090476D01*
X110592857Y-88138095D01*
X72413333Y-89982380D02*
X72080000Y-89506190D01*
X71841904Y-89982380D02*
X71841904Y-88982380D01*
X72222857Y-88982380D01*
X72318095Y-89030000D01*
X72365714Y-89077619D01*
X72413333Y-89172857D01*
X72413333Y-89315714D01*
X72365714Y-89410952D01*
X72318095Y-89458571D01*
X72222857Y-89506190D01*
X71841904Y-89506190D01*
X73270476Y-88982380D02*
X73080000Y-88982380D01*
X72984761Y-89030000D01*
X72937142Y-89077619D01*
X72841904Y-89220476D01*
X72794285Y-89410952D01*
X72794285Y-89791904D01*
X72841904Y-89887142D01*
X72889523Y-89934761D01*
X72984761Y-89982380D01*
X73175238Y-89982380D01*
X73270476Y-89934761D01*
X73318095Y-89887142D01*
X73365714Y-89791904D01*
X73365714Y-89553809D01*
X73318095Y-89458571D01*
X73270476Y-89410952D01*
X73175238Y-89363333D01*
X72984761Y-89363333D01*
X72889523Y-89410952D01*
X72841904Y-89458571D01*
X72794285Y-89553809D01*
X98333333Y-72952380D02*
X98000000Y-72476190D01*
X97761904Y-72952380D02*
X97761904Y-71952380D01*
X98142857Y-71952380D01*
X98238095Y-72000000D01*
X98285714Y-72047619D01*
X98333333Y-72142857D01*
X98333333Y-72285714D01*
X98285714Y-72380952D01*
X98238095Y-72428571D01*
X98142857Y-72476190D01*
X97761904Y-72476190D01*
X99238095Y-71952380D02*
X98761904Y-71952380D01*
X98714285Y-72428571D01*
X98761904Y-72380952D01*
X98857142Y-72333333D01*
X99095238Y-72333333D01*
X99190476Y-72380952D01*
X99238095Y-72428571D01*
X99285714Y-72523809D01*
X99285714Y-72761904D01*
X99238095Y-72857142D01*
X99190476Y-72904761D01*
X99095238Y-72952380D01*
X98857142Y-72952380D01*
X98761904Y-72904761D01*
X98714285Y-72857142D01*
X83257142Y-70866666D02*
X83304761Y-70914285D01*
X83352380Y-71057142D01*
X83352380Y-71152380D01*
X83304761Y-71295238D01*
X83209523Y-71390476D01*
X83114285Y-71438095D01*
X82923809Y-71485714D01*
X82780952Y-71485714D01*
X82590476Y-71438095D01*
X82495238Y-71390476D01*
X82400000Y-71295238D01*
X82352380Y-71152380D01*
X82352380Y-71057142D01*
X82400000Y-70914285D01*
X82447619Y-70866666D01*
X82352380Y-70533333D02*
X82352380Y-69866666D01*
X83352380Y-70295238D01*
X83233333Y-76007142D02*
X83185714Y-76054761D01*
X83042857Y-76102380D01*
X82947619Y-76102380D01*
X82804761Y-76054761D01*
X82709523Y-75959523D01*
X82661904Y-75864285D01*
X82614285Y-75673809D01*
X82614285Y-75530952D01*
X82661904Y-75340476D01*
X82709523Y-75245238D01*
X82804761Y-75150000D01*
X82947619Y-75102380D01*
X83042857Y-75102380D01*
X83185714Y-75150000D01*
X83233333Y-75197619D01*
X84090476Y-75102380D02*
X83900000Y-75102380D01*
X83804761Y-75150000D01*
X83757142Y-75197619D01*
X83661904Y-75340476D01*
X83614285Y-75530952D01*
X83614285Y-75911904D01*
X83661904Y-76007142D01*
X83709523Y-76054761D01*
X83804761Y-76102380D01*
X83995238Y-76102380D01*
X84090476Y-76054761D01*
X84138095Y-76007142D01*
X84185714Y-75911904D01*
X84185714Y-75673809D01*
X84138095Y-75578571D01*
X84090476Y-75530952D01*
X83995238Y-75483333D01*
X83804761Y-75483333D01*
X83709523Y-75530952D01*
X83661904Y-75578571D01*
X83614285Y-75673809D01*
X97387142Y-84216666D02*
X97434761Y-84264285D01*
X97482380Y-84407142D01*
X97482380Y-84502380D01*
X97434761Y-84645238D01*
X97339523Y-84740476D01*
X97244285Y-84788095D01*
X97053809Y-84835714D01*
X96910952Y-84835714D01*
X96720476Y-84788095D01*
X96625238Y-84740476D01*
X96530000Y-84645238D01*
X96482380Y-84502380D01*
X96482380Y-84407142D01*
X96530000Y-84264285D01*
X96577619Y-84216666D01*
X96482380Y-83311904D02*
X96482380Y-83788095D01*
X96958571Y-83835714D01*
X96910952Y-83788095D01*
X96863333Y-83692857D01*
X96863333Y-83454761D01*
X96910952Y-83359523D01*
X96958571Y-83311904D01*
X97053809Y-83264285D01*
X97291904Y-83264285D01*
X97387142Y-83311904D01*
X97434761Y-83359523D01*
X97482380Y-83454761D01*
X97482380Y-83692857D01*
X97434761Y-83788095D01*
X97387142Y-83835714D01*
X87607142Y-93216666D02*
X87654761Y-93264285D01*
X87702380Y-93407142D01*
X87702380Y-93502380D01*
X87654761Y-93645238D01*
X87559523Y-93740476D01*
X87464285Y-93788095D01*
X87273809Y-93835714D01*
X87130952Y-93835714D01*
X86940476Y-93788095D01*
X86845238Y-93740476D01*
X86750000Y-93645238D01*
X86702380Y-93502380D01*
X86702380Y-93407142D01*
X86750000Y-93264285D01*
X86797619Y-93216666D01*
X87035714Y-92359523D02*
X87702380Y-92359523D01*
X86654761Y-92597619D02*
X87369047Y-92835714D01*
X87369047Y-92216666D01*
X80483333Y-81107142D02*
X80435714Y-81154761D01*
X80292857Y-81202380D01*
X80197619Y-81202380D01*
X80054761Y-81154761D01*
X79959523Y-81059523D01*
X79911904Y-80964285D01*
X79864285Y-80773809D01*
X79864285Y-80630952D01*
X79911904Y-80440476D01*
X79959523Y-80345238D01*
X80054761Y-80250000D01*
X80197619Y-80202380D01*
X80292857Y-80202380D01*
X80435714Y-80250000D01*
X80483333Y-80297619D01*
X80816666Y-80202380D02*
X81435714Y-80202380D01*
X81102380Y-80583333D01*
X81245238Y-80583333D01*
X81340476Y-80630952D01*
X81388095Y-80678571D01*
X81435714Y-80773809D01*
X81435714Y-81011904D01*
X81388095Y-81107142D01*
X81340476Y-81154761D01*
X81245238Y-81202380D01*
X80959523Y-81202380D01*
X80864285Y-81154761D01*
X80816666Y-81107142D01*
X113082142Y-94366666D02*
X113129761Y-94414285D01*
X113177380Y-94557142D01*
X113177380Y-94652380D01*
X113129761Y-94795238D01*
X113034523Y-94890476D01*
X112939285Y-94938095D01*
X112748809Y-94985714D01*
X112605952Y-94985714D01*
X112415476Y-94938095D01*
X112320238Y-94890476D01*
X112225000Y-94795238D01*
X112177380Y-94652380D01*
X112177380Y-94557142D01*
X112225000Y-94414285D01*
X112272619Y-94366666D01*
X113177380Y-93414285D02*
X113177380Y-93985714D01*
X113177380Y-93700000D02*
X112177380Y-93700000D01*
X112320238Y-93795238D01*
X112415476Y-93890476D01*
X112463095Y-93985714D01*
X56366666Y-78104761D02*
X56509523Y-78152380D01*
X56747619Y-78152380D01*
X56842857Y-78104761D01*
X56890476Y-78057142D01*
X56938095Y-77961904D01*
X56938095Y-77866666D01*
X56890476Y-77771428D01*
X56842857Y-77723809D01*
X56747619Y-77676190D01*
X56557142Y-77628571D01*
X56461904Y-77580952D01*
X56414285Y-77533333D01*
X56366666Y-77438095D01*
X56366666Y-77342857D01*
X56414285Y-77247619D01*
X56461904Y-77200000D01*
X56557142Y-77152380D01*
X56795238Y-77152380D01*
X56938095Y-77200000D01*
X57271428Y-77152380D02*
X57509523Y-78152380D01*
X57700000Y-77438095D01*
X57890476Y-78152380D01*
X58128571Y-77152380D01*
X59033333Y-78152380D02*
X58461904Y-78152380D01*
X58747619Y-78152380D02*
X58747619Y-77152380D01*
X58652380Y-77295238D01*
X58557142Y-77390476D01*
X58461904Y-77438095D01*
X58566666Y-91352380D02*
X58566666Y-92066666D01*
X58519047Y-92209523D01*
X58423809Y-92304761D01*
X58280952Y-92352380D01*
X58185714Y-92352380D01*
X59519047Y-91352380D02*
X59042857Y-91352380D01*
X58995238Y-91828571D01*
X59042857Y-91780952D01*
X59138095Y-91733333D01*
X59376190Y-91733333D01*
X59471428Y-91780952D01*
X59519047Y-91828571D01*
X59566666Y-91923809D01*
X59566666Y-92161904D01*
X59519047Y-92257142D01*
X59471428Y-92304761D01*
X59376190Y-92352380D01*
X59138095Y-92352380D01*
X59042857Y-92304761D01*
X58995238Y-92257142D01*
X69538095Y-72952380D02*
X69538095Y-73761904D01*
X69585714Y-73857142D01*
X69633333Y-73904761D01*
X69728571Y-73952380D01*
X69919047Y-73952380D01*
X70014285Y-73904761D01*
X70061904Y-73857142D01*
X70109523Y-73761904D01*
X70109523Y-72952380D01*
X70538095Y-73047619D02*
X70585714Y-73000000D01*
X70680952Y-72952380D01*
X70919047Y-72952380D01*
X71014285Y-73000000D01*
X71061904Y-73047619D01*
X71109523Y-73142857D01*
X71109523Y-73238095D01*
X71061904Y-73380952D01*
X70490476Y-73952380D01*
X71109523Y-73952380D01*
M02*
