M48
; DRILL file {KiCad 5.1.9+dfsg1-1~bpo10+1} date Sun Nov 14 11:55:21 2021
; FORMAT={-:-/ absolute / metric / decimal}
; #@! TF.CreationDate,2021-11-14T11:55:21+01:00
; #@! TF.GenerationSoftware,Kicad,Pcbnew,5.1.9+dfsg1-1~bpo10+1
; #@! TF.FileFunction,Plated,1,2,PTH
FMAT,2
METRIC
T1C0.800
T2C1.300
%
G90
G05
T1
X69.675Y-85.825
X69.675Y-104.875
X69.675Y-124.941
X69.675Y-143.229
X81.665Y-99.541
X81.665Y-115.289
X81.74Y-131.291
X81.74Y-147.039
X84.28Y-86.46
X84.28Y-89.0
X84.28Y-91.54
X84.28Y-94.08
X84.28Y-96.62
X84.28Y-102.335
X84.28Y-104.875
X84.28Y-107.415
X84.28Y-109.955
X84.28Y-112.495
X84.28Y-118.21
X84.28Y-120.75
X84.28Y-123.29
X84.28Y-125.83
X84.28Y-128.37
X84.28Y-134.085
X84.28Y-136.625
X84.28Y-139.165
X84.28Y-141.705
X84.28Y-144.245
X88.09Y-84.936
X91.9Y-86.46
X91.9Y-89.0
X91.9Y-91.54
X91.9Y-94.08
X91.9Y-96.62
X91.9Y-102.335
X91.9Y-104.875
X91.9Y-107.415
X91.9Y-109.955
X91.9Y-112.495
X91.9Y-118.21
X91.9Y-120.75
X91.9Y-123.29
X91.9Y-125.83
X91.9Y-128.37
X91.9Y-134.085
X91.9Y-136.625
X91.9Y-139.165
X91.9Y-141.705
X91.9Y-144.245
X95.71Y-84.555
X96.0Y-146.0
X98.81Y-99.541
X98.81Y-115.289
X98.885Y-131.291
T2
X70.35Y-99.715
X70.35Y-119.4
X70.35Y-139.085
X72.85Y-89.715
X72.85Y-109.4
X72.85Y-129.085
X75.35Y-99.715
X75.35Y-119.4
X75.35Y-139.085
X76.0Y-80.11
X81.645Y-80.11
X87.5Y-80.11
X93.5Y-80.11
T0
M30
