%TF.GenerationSoftware,KiCad,Pcbnew,5.1.9+dfsg1-1~bpo10+1*%
%TF.CreationDate,2021-11-14T11:55:08+01:00*%
%TF.ProjectId,compensation,636f6d70-656e-4736-9174-696f6e2e6b69,1.0*%
%TF.SameCoordinates,Original*%
%TF.FileFunction,Soldermask,Bot*%
%TF.FilePolarity,Negative*%
%FSLAX46Y46*%
G04 Gerber Fmt 4.6, Leading zero omitted, Abs format (unit mm)*
G04 Created by KiCad (PCBNEW 5.1.9+dfsg1-1~bpo10+1) date 2021-11-14 11:55:08*
%MOMM*%
%LPD*%
G01*
G04 APERTURE LIST*
%ADD10C,2.702000*%
%ADD11C,4.102000*%
%ADD12C,2.442000*%
%ADD13C,3.302000*%
%ADD14O,1.702000X1.702000*%
G04 APERTURE END LIST*
D10*
X93500000Y-80110000D03*
X87500000Y-80110000D03*
X81645000Y-80110000D03*
X76000000Y-80110000D03*
D11*
X72850000Y-94715000D03*
D12*
X75350000Y-99715000D03*
X72850000Y-89715000D03*
X70350000Y-99715000D03*
D13*
X70310000Y-81380000D03*
X99520000Y-81380000D03*
X99520000Y-148690000D03*
X70310000Y-148690000D03*
D11*
X72850000Y-134085000D03*
D12*
X75350000Y-139085000D03*
X72850000Y-129085000D03*
X70350000Y-139085000D03*
D11*
X72850000Y-114400000D03*
D12*
X75350000Y-119400000D03*
X72850000Y-109400000D03*
X70350000Y-119400000D03*
D14*
X84280000Y-144245000D03*
X91900000Y-134085000D03*
X84280000Y-141705000D03*
X91900000Y-136625000D03*
X84280000Y-139165000D03*
X91900000Y-139165000D03*
X84280000Y-136625000D03*
X91900000Y-141705000D03*
X84280000Y-134085000D03*
G36*
G01*
X92751000Y-143445000D02*
X92751000Y-145045000D01*
G75*
G02*
X92700000Y-145096000I-51000J0D01*
G01*
X91100000Y-145096000D01*
G75*
G02*
X91049000Y-145045000I0J51000D01*
G01*
X91049000Y-143445000D01*
G75*
G02*
X91100000Y-143394000I51000J0D01*
G01*
X92700000Y-143394000D01*
G75*
G02*
X92751000Y-143445000I0J-51000D01*
G01*
G37*
X84280000Y-128370000D03*
X91900000Y-118210000D03*
X84280000Y-125830000D03*
X91900000Y-120750000D03*
X84280000Y-123290000D03*
X91900000Y-123290000D03*
X84280000Y-120750000D03*
X91900000Y-125830000D03*
X84280000Y-118210000D03*
G36*
G01*
X92751000Y-127570000D02*
X92751000Y-129170000D01*
G75*
G02*
X92700000Y-129221000I-51000J0D01*
G01*
X91100000Y-129221000D01*
G75*
G02*
X91049000Y-129170000I0J51000D01*
G01*
X91049000Y-127570000D01*
G75*
G02*
X91100000Y-127519000I51000J0D01*
G01*
X92700000Y-127519000D01*
G75*
G02*
X92751000Y-127570000I0J-51000D01*
G01*
G37*
X84280000Y-112495000D03*
X91900000Y-102335000D03*
X84280000Y-109955000D03*
X91900000Y-104875000D03*
X84280000Y-107415000D03*
X91900000Y-107415000D03*
X84280000Y-104875000D03*
X91900000Y-109955000D03*
X84280000Y-102335000D03*
G36*
G01*
X92751000Y-111695000D02*
X92751000Y-113295000D01*
G75*
G02*
X92700000Y-113346000I-51000J0D01*
G01*
X91100000Y-113346000D01*
G75*
G02*
X91049000Y-113295000I0J51000D01*
G01*
X91049000Y-111695000D01*
G75*
G02*
X91100000Y-111644000I51000J0D01*
G01*
X92700000Y-111644000D01*
G75*
G02*
X92751000Y-111695000I0J-51000D01*
G01*
G37*
X84280000Y-96620000D03*
X91900000Y-86460000D03*
X84280000Y-94080000D03*
X91900000Y-89000000D03*
X84280000Y-91540000D03*
X91900000Y-91540000D03*
X84280000Y-89000000D03*
X91900000Y-94080000D03*
X84280000Y-86460000D03*
G36*
G01*
X92751000Y-95820000D02*
X92751000Y-97420000D01*
G75*
G02*
X92700000Y-97471000I-51000J0D01*
G01*
X91100000Y-97471000D01*
G75*
G02*
X91049000Y-97420000I0J51000D01*
G01*
X91049000Y-95820000D01*
G75*
G02*
X91100000Y-95769000I51000J0D01*
G01*
X92700000Y-95769000D01*
G75*
G02*
X92751000Y-95820000I0J-51000D01*
G01*
G37*
G36*
G01*
X79333500Y-133822000D02*
X79333500Y-134348000D01*
G75*
G02*
X79070500Y-134611000I-263000J0D01*
G01*
X78419500Y-134611000D01*
G75*
G02*
X78156500Y-134348000I0J263000D01*
G01*
X78156500Y-133822000D01*
G75*
G02*
X78419500Y-133559000I263000J0D01*
G01*
X79070500Y-133559000D01*
G75*
G02*
X79333500Y-133822000I0J-263000D01*
G01*
G37*
G36*
G01*
X81058500Y-133822000D02*
X81058500Y-134348000D01*
G75*
G02*
X80795500Y-134611000I-263000J0D01*
G01*
X80144500Y-134611000D01*
G75*
G02*
X79881500Y-134348000I0J263000D01*
G01*
X79881500Y-133822000D01*
G75*
G02*
X80144500Y-133559000I263000J0D01*
G01*
X80795500Y-133559000D01*
G75*
G02*
X81058500Y-133822000I0J-263000D01*
G01*
G37*
G36*
G01*
X79333500Y-117947000D02*
X79333500Y-118473000D01*
G75*
G02*
X79070500Y-118736000I-263000J0D01*
G01*
X78419500Y-118736000D01*
G75*
G02*
X78156500Y-118473000I0J263000D01*
G01*
X78156500Y-117947000D01*
G75*
G02*
X78419500Y-117684000I263000J0D01*
G01*
X79070500Y-117684000D01*
G75*
G02*
X79333500Y-117947000I0J-263000D01*
G01*
G37*
G36*
G01*
X81058500Y-117947000D02*
X81058500Y-118473000D01*
G75*
G02*
X80795500Y-118736000I-263000J0D01*
G01*
X80144500Y-118736000D01*
G75*
G02*
X79881500Y-118473000I0J263000D01*
G01*
X79881500Y-117947000D01*
G75*
G02*
X80144500Y-117684000I263000J0D01*
G01*
X80795500Y-117684000D01*
G75*
G02*
X81058500Y-117947000I0J-263000D01*
G01*
G37*
G36*
G01*
X79333500Y-102072000D02*
X79333500Y-102598000D01*
G75*
G02*
X79070500Y-102861000I-263000J0D01*
G01*
X78419500Y-102861000D01*
G75*
G02*
X78156500Y-102598000I0J263000D01*
G01*
X78156500Y-102072000D01*
G75*
G02*
X78419500Y-101809000I263000J0D01*
G01*
X79070500Y-101809000D01*
G75*
G02*
X79333500Y-102072000I0J-263000D01*
G01*
G37*
G36*
G01*
X81058500Y-102072000D02*
X81058500Y-102598000D01*
G75*
G02*
X80795500Y-102861000I-263000J0D01*
G01*
X80144500Y-102861000D01*
G75*
G02*
X79881500Y-102598000I0J263000D01*
G01*
X79881500Y-102072000D01*
G75*
G02*
X80144500Y-101809000I263000J0D01*
G01*
X80795500Y-101809000D01*
G75*
G02*
X81058500Y-102072000I0J-263000D01*
G01*
G37*
G36*
G01*
X79333500Y-86197000D02*
X79333500Y-86723000D01*
G75*
G02*
X79070500Y-86986000I-263000J0D01*
G01*
X78419500Y-86986000D01*
G75*
G02*
X78156500Y-86723000I0J263000D01*
G01*
X78156500Y-86197000D01*
G75*
G02*
X78419500Y-85934000I263000J0D01*
G01*
X79070500Y-85934000D01*
G75*
G02*
X79333500Y-86197000I0J-263000D01*
G01*
G37*
G36*
G01*
X81058500Y-86197000D02*
X81058500Y-86723000D01*
G75*
G02*
X80795500Y-86986000I-263000J0D01*
G01*
X80144500Y-86986000D01*
G75*
G02*
X79881500Y-86723000I0J263000D01*
G01*
X79881500Y-86197000D01*
G75*
G02*
X80144500Y-85934000I263000J0D01*
G01*
X80795500Y-85934000D01*
G75*
G02*
X81058500Y-86197000I0J-263000D01*
G01*
G37*
G36*
G01*
X79333500Y-136362000D02*
X79333500Y-136888000D01*
G75*
G02*
X79070500Y-137151000I-263000J0D01*
G01*
X78419500Y-137151000D01*
G75*
G02*
X78156500Y-136888000I0J263000D01*
G01*
X78156500Y-136362000D01*
G75*
G02*
X78419500Y-136099000I263000J0D01*
G01*
X79070500Y-136099000D01*
G75*
G02*
X79333500Y-136362000I0J-263000D01*
G01*
G37*
G36*
G01*
X81058500Y-136362000D02*
X81058500Y-136888000D01*
G75*
G02*
X80795500Y-137151000I-263000J0D01*
G01*
X80144500Y-137151000D01*
G75*
G02*
X79881500Y-136888000I0J263000D01*
G01*
X79881500Y-136362000D01*
G75*
G02*
X80144500Y-136099000I263000J0D01*
G01*
X80795500Y-136099000D01*
G75*
G02*
X81058500Y-136362000I0J-263000D01*
G01*
G37*
G36*
G01*
X79333500Y-120487000D02*
X79333500Y-121013000D01*
G75*
G02*
X79070500Y-121276000I-263000J0D01*
G01*
X78419500Y-121276000D01*
G75*
G02*
X78156500Y-121013000I0J263000D01*
G01*
X78156500Y-120487000D01*
G75*
G02*
X78419500Y-120224000I263000J0D01*
G01*
X79070500Y-120224000D01*
G75*
G02*
X79333500Y-120487000I0J-263000D01*
G01*
G37*
G36*
G01*
X81058500Y-120487000D02*
X81058500Y-121013000D01*
G75*
G02*
X80795500Y-121276000I-263000J0D01*
G01*
X80144500Y-121276000D01*
G75*
G02*
X79881500Y-121013000I0J263000D01*
G01*
X79881500Y-120487000D01*
G75*
G02*
X80144500Y-120224000I263000J0D01*
G01*
X80795500Y-120224000D01*
G75*
G02*
X81058500Y-120487000I0J-263000D01*
G01*
G37*
G36*
G01*
X79333500Y-104612000D02*
X79333500Y-105138000D01*
G75*
G02*
X79070500Y-105401000I-263000J0D01*
G01*
X78419500Y-105401000D01*
G75*
G02*
X78156500Y-105138000I0J263000D01*
G01*
X78156500Y-104612000D01*
G75*
G02*
X78419500Y-104349000I263000J0D01*
G01*
X79070500Y-104349000D01*
G75*
G02*
X79333500Y-104612000I0J-263000D01*
G01*
G37*
G36*
G01*
X81058500Y-104612000D02*
X81058500Y-105138000D01*
G75*
G02*
X80795500Y-105401000I-263000J0D01*
G01*
X80144500Y-105401000D01*
G75*
G02*
X79881500Y-105138000I0J263000D01*
G01*
X79881500Y-104612000D01*
G75*
G02*
X80144500Y-104349000I263000J0D01*
G01*
X80795500Y-104349000D01*
G75*
G02*
X81058500Y-104612000I0J-263000D01*
G01*
G37*
G36*
G01*
X79333500Y-88737000D02*
X79333500Y-89263000D01*
G75*
G02*
X79070500Y-89526000I-263000J0D01*
G01*
X78419500Y-89526000D01*
G75*
G02*
X78156500Y-89263000I0J263000D01*
G01*
X78156500Y-88737000D01*
G75*
G02*
X78419500Y-88474000I263000J0D01*
G01*
X79070500Y-88474000D01*
G75*
G02*
X79333500Y-88737000I0J-263000D01*
G01*
G37*
G36*
G01*
X81058500Y-88737000D02*
X81058500Y-89263000D01*
G75*
G02*
X80795500Y-89526000I-263000J0D01*
G01*
X80144500Y-89526000D01*
G75*
G02*
X79881500Y-89263000I0J263000D01*
G01*
X79881500Y-88737000D01*
G75*
G02*
X80144500Y-88474000I263000J0D01*
G01*
X80795500Y-88474000D01*
G75*
G02*
X81058500Y-88737000I0J-263000D01*
G01*
G37*
G36*
G01*
X79333500Y-138902000D02*
X79333500Y-139428000D01*
G75*
G02*
X79070500Y-139691000I-263000J0D01*
G01*
X78419500Y-139691000D01*
G75*
G02*
X78156500Y-139428000I0J263000D01*
G01*
X78156500Y-138902000D01*
G75*
G02*
X78419500Y-138639000I263000J0D01*
G01*
X79070500Y-138639000D01*
G75*
G02*
X79333500Y-138902000I0J-263000D01*
G01*
G37*
G36*
G01*
X81058500Y-138902000D02*
X81058500Y-139428000D01*
G75*
G02*
X80795500Y-139691000I-263000J0D01*
G01*
X80144500Y-139691000D01*
G75*
G02*
X79881500Y-139428000I0J263000D01*
G01*
X79881500Y-138902000D01*
G75*
G02*
X80144500Y-138639000I263000J0D01*
G01*
X80795500Y-138639000D01*
G75*
G02*
X81058500Y-138902000I0J-263000D01*
G01*
G37*
G36*
G01*
X79333500Y-123027000D02*
X79333500Y-123553000D01*
G75*
G02*
X79070500Y-123816000I-263000J0D01*
G01*
X78419500Y-123816000D01*
G75*
G02*
X78156500Y-123553000I0J263000D01*
G01*
X78156500Y-123027000D01*
G75*
G02*
X78419500Y-122764000I263000J0D01*
G01*
X79070500Y-122764000D01*
G75*
G02*
X79333500Y-123027000I0J-263000D01*
G01*
G37*
G36*
G01*
X81058500Y-123027000D02*
X81058500Y-123553000D01*
G75*
G02*
X80795500Y-123816000I-263000J0D01*
G01*
X80144500Y-123816000D01*
G75*
G02*
X79881500Y-123553000I0J263000D01*
G01*
X79881500Y-123027000D01*
G75*
G02*
X80144500Y-122764000I263000J0D01*
G01*
X80795500Y-122764000D01*
G75*
G02*
X81058500Y-123027000I0J-263000D01*
G01*
G37*
G36*
G01*
X79333500Y-107152000D02*
X79333500Y-107678000D01*
G75*
G02*
X79070500Y-107941000I-263000J0D01*
G01*
X78419500Y-107941000D01*
G75*
G02*
X78156500Y-107678000I0J263000D01*
G01*
X78156500Y-107152000D01*
G75*
G02*
X78419500Y-106889000I263000J0D01*
G01*
X79070500Y-106889000D01*
G75*
G02*
X79333500Y-107152000I0J-263000D01*
G01*
G37*
G36*
G01*
X81058500Y-107152000D02*
X81058500Y-107678000D01*
G75*
G02*
X80795500Y-107941000I-263000J0D01*
G01*
X80144500Y-107941000D01*
G75*
G02*
X79881500Y-107678000I0J263000D01*
G01*
X79881500Y-107152000D01*
G75*
G02*
X80144500Y-106889000I263000J0D01*
G01*
X80795500Y-106889000D01*
G75*
G02*
X81058500Y-107152000I0J-263000D01*
G01*
G37*
G36*
G01*
X79333500Y-91277000D02*
X79333500Y-91803000D01*
G75*
G02*
X79070500Y-92066000I-263000J0D01*
G01*
X78419500Y-92066000D01*
G75*
G02*
X78156500Y-91803000I0J263000D01*
G01*
X78156500Y-91277000D01*
G75*
G02*
X78419500Y-91014000I263000J0D01*
G01*
X79070500Y-91014000D01*
G75*
G02*
X79333500Y-91277000I0J-263000D01*
G01*
G37*
G36*
G01*
X81058500Y-91277000D02*
X81058500Y-91803000D01*
G75*
G02*
X80795500Y-92066000I-263000J0D01*
G01*
X80144500Y-92066000D01*
G75*
G02*
X79881500Y-91803000I0J263000D01*
G01*
X79881500Y-91277000D01*
G75*
G02*
X80144500Y-91014000I263000J0D01*
G01*
X80795500Y-91014000D01*
G75*
G02*
X81058500Y-91277000I0J-263000D01*
G01*
G37*
G36*
G01*
X79333500Y-141442000D02*
X79333500Y-141968000D01*
G75*
G02*
X79070500Y-142231000I-263000J0D01*
G01*
X78419500Y-142231000D01*
G75*
G02*
X78156500Y-141968000I0J263000D01*
G01*
X78156500Y-141442000D01*
G75*
G02*
X78419500Y-141179000I263000J0D01*
G01*
X79070500Y-141179000D01*
G75*
G02*
X79333500Y-141442000I0J-263000D01*
G01*
G37*
G36*
G01*
X81058500Y-141442000D02*
X81058500Y-141968000D01*
G75*
G02*
X80795500Y-142231000I-263000J0D01*
G01*
X80144500Y-142231000D01*
G75*
G02*
X79881500Y-141968000I0J263000D01*
G01*
X79881500Y-141442000D01*
G75*
G02*
X80144500Y-141179000I263000J0D01*
G01*
X80795500Y-141179000D01*
G75*
G02*
X81058500Y-141442000I0J-263000D01*
G01*
G37*
G36*
G01*
X79333500Y-125567000D02*
X79333500Y-126093000D01*
G75*
G02*
X79070500Y-126356000I-263000J0D01*
G01*
X78419500Y-126356000D01*
G75*
G02*
X78156500Y-126093000I0J263000D01*
G01*
X78156500Y-125567000D01*
G75*
G02*
X78419500Y-125304000I263000J0D01*
G01*
X79070500Y-125304000D01*
G75*
G02*
X79333500Y-125567000I0J-263000D01*
G01*
G37*
G36*
G01*
X81058500Y-125567000D02*
X81058500Y-126093000D01*
G75*
G02*
X80795500Y-126356000I-263000J0D01*
G01*
X80144500Y-126356000D01*
G75*
G02*
X79881500Y-126093000I0J263000D01*
G01*
X79881500Y-125567000D01*
G75*
G02*
X80144500Y-125304000I263000J0D01*
G01*
X80795500Y-125304000D01*
G75*
G02*
X81058500Y-125567000I0J-263000D01*
G01*
G37*
G36*
G01*
X79333500Y-109692000D02*
X79333500Y-110218000D01*
G75*
G02*
X79070500Y-110481000I-263000J0D01*
G01*
X78419500Y-110481000D01*
G75*
G02*
X78156500Y-110218000I0J263000D01*
G01*
X78156500Y-109692000D01*
G75*
G02*
X78419500Y-109429000I263000J0D01*
G01*
X79070500Y-109429000D01*
G75*
G02*
X79333500Y-109692000I0J-263000D01*
G01*
G37*
G36*
G01*
X81058500Y-109692000D02*
X81058500Y-110218000D01*
G75*
G02*
X80795500Y-110481000I-263000J0D01*
G01*
X80144500Y-110481000D01*
G75*
G02*
X79881500Y-110218000I0J263000D01*
G01*
X79881500Y-109692000D01*
G75*
G02*
X80144500Y-109429000I263000J0D01*
G01*
X80795500Y-109429000D01*
G75*
G02*
X81058500Y-109692000I0J-263000D01*
G01*
G37*
G36*
G01*
X79333500Y-93817000D02*
X79333500Y-94343000D01*
G75*
G02*
X79070500Y-94606000I-263000J0D01*
G01*
X78419500Y-94606000D01*
G75*
G02*
X78156500Y-94343000I0J263000D01*
G01*
X78156500Y-93817000D01*
G75*
G02*
X78419500Y-93554000I263000J0D01*
G01*
X79070500Y-93554000D01*
G75*
G02*
X79333500Y-93817000I0J-263000D01*
G01*
G37*
G36*
G01*
X81058500Y-93817000D02*
X81058500Y-94343000D01*
G75*
G02*
X80795500Y-94606000I-263000J0D01*
G01*
X80144500Y-94606000D01*
G75*
G02*
X79881500Y-94343000I0J263000D01*
G01*
X79881500Y-93817000D01*
G75*
G02*
X80144500Y-93554000I263000J0D01*
G01*
X80795500Y-93554000D01*
G75*
G02*
X81058500Y-93817000I0J-263000D01*
G01*
G37*
G36*
G01*
X79333500Y-143982000D02*
X79333500Y-144508000D01*
G75*
G02*
X79070500Y-144771000I-263000J0D01*
G01*
X78419500Y-144771000D01*
G75*
G02*
X78156500Y-144508000I0J263000D01*
G01*
X78156500Y-143982000D01*
G75*
G02*
X78419500Y-143719000I263000J0D01*
G01*
X79070500Y-143719000D01*
G75*
G02*
X79333500Y-143982000I0J-263000D01*
G01*
G37*
G36*
G01*
X81058500Y-143982000D02*
X81058500Y-144508000D01*
G75*
G02*
X80795500Y-144771000I-263000J0D01*
G01*
X80144500Y-144771000D01*
G75*
G02*
X79881500Y-144508000I0J263000D01*
G01*
X79881500Y-143982000D01*
G75*
G02*
X80144500Y-143719000I263000J0D01*
G01*
X80795500Y-143719000D01*
G75*
G02*
X81058500Y-143982000I0J-263000D01*
G01*
G37*
G36*
G01*
X79333500Y-128107000D02*
X79333500Y-128633000D01*
G75*
G02*
X79070500Y-128896000I-263000J0D01*
G01*
X78419500Y-128896000D01*
G75*
G02*
X78156500Y-128633000I0J263000D01*
G01*
X78156500Y-128107000D01*
G75*
G02*
X78419500Y-127844000I263000J0D01*
G01*
X79070500Y-127844000D01*
G75*
G02*
X79333500Y-128107000I0J-263000D01*
G01*
G37*
G36*
G01*
X81058500Y-128107000D02*
X81058500Y-128633000D01*
G75*
G02*
X80795500Y-128896000I-263000J0D01*
G01*
X80144500Y-128896000D01*
G75*
G02*
X79881500Y-128633000I0J263000D01*
G01*
X79881500Y-128107000D01*
G75*
G02*
X80144500Y-127844000I263000J0D01*
G01*
X80795500Y-127844000D01*
G75*
G02*
X81058500Y-128107000I0J-263000D01*
G01*
G37*
G36*
G01*
X79333500Y-112232000D02*
X79333500Y-112758000D01*
G75*
G02*
X79070500Y-113021000I-263000J0D01*
G01*
X78419500Y-113021000D01*
G75*
G02*
X78156500Y-112758000I0J263000D01*
G01*
X78156500Y-112232000D01*
G75*
G02*
X78419500Y-111969000I263000J0D01*
G01*
X79070500Y-111969000D01*
G75*
G02*
X79333500Y-112232000I0J-263000D01*
G01*
G37*
G36*
G01*
X81058500Y-112232000D02*
X81058500Y-112758000D01*
G75*
G02*
X80795500Y-113021000I-263000J0D01*
G01*
X80144500Y-113021000D01*
G75*
G02*
X79881500Y-112758000I0J263000D01*
G01*
X79881500Y-112232000D01*
G75*
G02*
X80144500Y-111969000I263000J0D01*
G01*
X80795500Y-111969000D01*
G75*
G02*
X81058500Y-112232000I0J-263000D01*
G01*
G37*
G36*
G01*
X79333500Y-96357000D02*
X79333500Y-96883000D01*
G75*
G02*
X79070500Y-97146000I-263000J0D01*
G01*
X78419500Y-97146000D01*
G75*
G02*
X78156500Y-96883000I0J263000D01*
G01*
X78156500Y-96357000D01*
G75*
G02*
X78419500Y-96094000I263000J0D01*
G01*
X79070500Y-96094000D01*
G75*
G02*
X79333500Y-96357000I0J-263000D01*
G01*
G37*
G36*
G01*
X81058500Y-96357000D02*
X81058500Y-96883000D01*
G75*
G02*
X80795500Y-97146000I-263000J0D01*
G01*
X80144500Y-97146000D01*
G75*
G02*
X79881500Y-96883000I0J263000D01*
G01*
X79881500Y-96357000D01*
G75*
G02*
X80144500Y-96094000I263000J0D01*
G01*
X80795500Y-96094000D01*
G75*
G02*
X81058500Y-96357000I0J-263000D01*
G01*
G37*
M02*
