%TF.GenerationSoftware,KiCad,Pcbnew,5.1.9+dfsg1-1~bpo10+1*%
%TF.CreationDate,2021-11-14T11:55:08+01:00*%
%TF.ProjectId,compensation,636f6d70-656e-4736-9174-696f6e2e6b69,1.0*%
%TF.SameCoordinates,Original*%
%TF.FileFunction,Copper,L2,Bot*%
%TF.FilePolarity,Positive*%
%FSLAX46Y46*%
G04 Gerber Fmt 4.6, Leading zero omitted, Abs format (unit mm)*
G04 Created by KiCad (PCBNEW 5.1.9+dfsg1-1~bpo10+1) date 2021-11-14 11:55:08*
%MOMM*%
%LPD*%
G01*
G04 APERTURE LIST*
%TA.AperFunction,ComponentPad*%
%ADD10C,2.600000*%
%TD*%
%TA.AperFunction,ComponentPad*%
%ADD11C,2.340000*%
%TD*%
%TA.AperFunction,ComponentPad*%
%ADD12O,1.600000X1.600000*%
%TD*%
%TA.AperFunction,ComponentPad*%
%ADD13R,1.600000X1.600000*%
%TD*%
%TA.AperFunction,ViaPad*%
%ADD14C,2.000000*%
%TD*%
%TA.AperFunction,Conductor*%
%ADD15C,0.400000*%
%TD*%
%TA.AperFunction,Conductor*%
%ADD16C,0.250000*%
%TD*%
%TA.AperFunction,Conductor*%
%ADD17C,0.100000*%
%TD*%
G04 APERTURE END LIST*
D10*
X93500000Y-80110000D03*
X87500000Y-80110000D03*
X81645000Y-80110000D03*
X76000000Y-80110000D03*
D11*
X75350000Y-99715000D03*
X72850000Y-89715000D03*
X70350000Y-99715000D03*
X75350000Y-139085000D03*
X72850000Y-129085000D03*
X70350000Y-139085000D03*
X75350000Y-119400000D03*
X72850000Y-109400000D03*
X70350000Y-119400000D03*
D12*
X84280000Y-144245000D03*
X91900000Y-134085000D03*
X84280000Y-141705000D03*
X91900000Y-136625000D03*
X84280000Y-139165000D03*
X91900000Y-139165000D03*
X84280000Y-136625000D03*
X91900000Y-141705000D03*
X84280000Y-134085000D03*
D13*
X91900000Y-144245000D03*
D12*
X84280000Y-128370000D03*
X91900000Y-118210000D03*
X84280000Y-125830000D03*
X91900000Y-120750000D03*
X84280000Y-123290000D03*
X91900000Y-123290000D03*
X84280000Y-120750000D03*
X91900000Y-125830000D03*
X84280000Y-118210000D03*
D13*
X91900000Y-128370000D03*
D12*
X84280000Y-112495000D03*
X91900000Y-102335000D03*
X84280000Y-109955000D03*
X91900000Y-104875000D03*
X84280000Y-107415000D03*
X91900000Y-107415000D03*
X84280000Y-104875000D03*
X91900000Y-109955000D03*
X84280000Y-102335000D03*
D13*
X91900000Y-112495000D03*
D12*
X84280000Y-96620000D03*
X91900000Y-86460000D03*
X84280000Y-94080000D03*
X91900000Y-89000000D03*
X84280000Y-91540000D03*
X91900000Y-91540000D03*
X84280000Y-89000000D03*
X91900000Y-94080000D03*
X84280000Y-86460000D03*
D13*
X91900000Y-96620000D03*
%TA.AperFunction,SMDPad,CuDef*%
G36*
G01*
X79282500Y-133847500D02*
X79282500Y-134322500D01*
G75*
G02*
X79045000Y-134560000I-237500J0D01*
G01*
X78445000Y-134560000D01*
G75*
G02*
X78207500Y-134322500I0J237500D01*
G01*
X78207500Y-133847500D01*
G75*
G02*
X78445000Y-133610000I237500J0D01*
G01*
X79045000Y-133610000D01*
G75*
G02*
X79282500Y-133847500I0J-237500D01*
G01*
G37*
%TD.AperFunction*%
%TA.AperFunction,SMDPad,CuDef*%
G36*
G01*
X81007500Y-133847500D02*
X81007500Y-134322500D01*
G75*
G02*
X80770000Y-134560000I-237500J0D01*
G01*
X80170000Y-134560000D01*
G75*
G02*
X79932500Y-134322500I0J237500D01*
G01*
X79932500Y-133847500D01*
G75*
G02*
X80170000Y-133610000I237500J0D01*
G01*
X80770000Y-133610000D01*
G75*
G02*
X81007500Y-133847500I0J-237500D01*
G01*
G37*
%TD.AperFunction*%
%TA.AperFunction,SMDPad,CuDef*%
G36*
G01*
X79282500Y-117972500D02*
X79282500Y-118447500D01*
G75*
G02*
X79045000Y-118685000I-237500J0D01*
G01*
X78445000Y-118685000D01*
G75*
G02*
X78207500Y-118447500I0J237500D01*
G01*
X78207500Y-117972500D01*
G75*
G02*
X78445000Y-117735000I237500J0D01*
G01*
X79045000Y-117735000D01*
G75*
G02*
X79282500Y-117972500I0J-237500D01*
G01*
G37*
%TD.AperFunction*%
%TA.AperFunction,SMDPad,CuDef*%
G36*
G01*
X81007500Y-117972500D02*
X81007500Y-118447500D01*
G75*
G02*
X80770000Y-118685000I-237500J0D01*
G01*
X80170000Y-118685000D01*
G75*
G02*
X79932500Y-118447500I0J237500D01*
G01*
X79932500Y-117972500D01*
G75*
G02*
X80170000Y-117735000I237500J0D01*
G01*
X80770000Y-117735000D01*
G75*
G02*
X81007500Y-117972500I0J-237500D01*
G01*
G37*
%TD.AperFunction*%
%TA.AperFunction,SMDPad,CuDef*%
G36*
G01*
X79282500Y-102097500D02*
X79282500Y-102572500D01*
G75*
G02*
X79045000Y-102810000I-237500J0D01*
G01*
X78445000Y-102810000D01*
G75*
G02*
X78207500Y-102572500I0J237500D01*
G01*
X78207500Y-102097500D01*
G75*
G02*
X78445000Y-101860000I237500J0D01*
G01*
X79045000Y-101860000D01*
G75*
G02*
X79282500Y-102097500I0J-237500D01*
G01*
G37*
%TD.AperFunction*%
%TA.AperFunction,SMDPad,CuDef*%
G36*
G01*
X81007500Y-102097500D02*
X81007500Y-102572500D01*
G75*
G02*
X80770000Y-102810000I-237500J0D01*
G01*
X80170000Y-102810000D01*
G75*
G02*
X79932500Y-102572500I0J237500D01*
G01*
X79932500Y-102097500D01*
G75*
G02*
X80170000Y-101860000I237500J0D01*
G01*
X80770000Y-101860000D01*
G75*
G02*
X81007500Y-102097500I0J-237500D01*
G01*
G37*
%TD.AperFunction*%
%TA.AperFunction,SMDPad,CuDef*%
G36*
G01*
X79282500Y-86222500D02*
X79282500Y-86697500D01*
G75*
G02*
X79045000Y-86935000I-237500J0D01*
G01*
X78445000Y-86935000D01*
G75*
G02*
X78207500Y-86697500I0J237500D01*
G01*
X78207500Y-86222500D01*
G75*
G02*
X78445000Y-85985000I237500J0D01*
G01*
X79045000Y-85985000D01*
G75*
G02*
X79282500Y-86222500I0J-237500D01*
G01*
G37*
%TD.AperFunction*%
%TA.AperFunction,SMDPad,CuDef*%
G36*
G01*
X81007500Y-86222500D02*
X81007500Y-86697500D01*
G75*
G02*
X80770000Y-86935000I-237500J0D01*
G01*
X80170000Y-86935000D01*
G75*
G02*
X79932500Y-86697500I0J237500D01*
G01*
X79932500Y-86222500D01*
G75*
G02*
X80170000Y-85985000I237500J0D01*
G01*
X80770000Y-85985000D01*
G75*
G02*
X81007500Y-86222500I0J-237500D01*
G01*
G37*
%TD.AperFunction*%
%TA.AperFunction,SMDPad,CuDef*%
G36*
G01*
X79282500Y-136387500D02*
X79282500Y-136862500D01*
G75*
G02*
X79045000Y-137100000I-237500J0D01*
G01*
X78445000Y-137100000D01*
G75*
G02*
X78207500Y-136862500I0J237500D01*
G01*
X78207500Y-136387500D01*
G75*
G02*
X78445000Y-136150000I237500J0D01*
G01*
X79045000Y-136150000D01*
G75*
G02*
X79282500Y-136387500I0J-237500D01*
G01*
G37*
%TD.AperFunction*%
%TA.AperFunction,SMDPad,CuDef*%
G36*
G01*
X81007500Y-136387500D02*
X81007500Y-136862500D01*
G75*
G02*
X80770000Y-137100000I-237500J0D01*
G01*
X80170000Y-137100000D01*
G75*
G02*
X79932500Y-136862500I0J237500D01*
G01*
X79932500Y-136387500D01*
G75*
G02*
X80170000Y-136150000I237500J0D01*
G01*
X80770000Y-136150000D01*
G75*
G02*
X81007500Y-136387500I0J-237500D01*
G01*
G37*
%TD.AperFunction*%
%TA.AperFunction,SMDPad,CuDef*%
G36*
G01*
X79282500Y-120512500D02*
X79282500Y-120987500D01*
G75*
G02*
X79045000Y-121225000I-237500J0D01*
G01*
X78445000Y-121225000D01*
G75*
G02*
X78207500Y-120987500I0J237500D01*
G01*
X78207500Y-120512500D01*
G75*
G02*
X78445000Y-120275000I237500J0D01*
G01*
X79045000Y-120275000D01*
G75*
G02*
X79282500Y-120512500I0J-237500D01*
G01*
G37*
%TD.AperFunction*%
%TA.AperFunction,SMDPad,CuDef*%
G36*
G01*
X81007500Y-120512500D02*
X81007500Y-120987500D01*
G75*
G02*
X80770000Y-121225000I-237500J0D01*
G01*
X80170000Y-121225000D01*
G75*
G02*
X79932500Y-120987500I0J237500D01*
G01*
X79932500Y-120512500D01*
G75*
G02*
X80170000Y-120275000I237500J0D01*
G01*
X80770000Y-120275000D01*
G75*
G02*
X81007500Y-120512500I0J-237500D01*
G01*
G37*
%TD.AperFunction*%
%TA.AperFunction,SMDPad,CuDef*%
G36*
G01*
X79282500Y-104637500D02*
X79282500Y-105112500D01*
G75*
G02*
X79045000Y-105350000I-237500J0D01*
G01*
X78445000Y-105350000D01*
G75*
G02*
X78207500Y-105112500I0J237500D01*
G01*
X78207500Y-104637500D01*
G75*
G02*
X78445000Y-104400000I237500J0D01*
G01*
X79045000Y-104400000D01*
G75*
G02*
X79282500Y-104637500I0J-237500D01*
G01*
G37*
%TD.AperFunction*%
%TA.AperFunction,SMDPad,CuDef*%
G36*
G01*
X81007500Y-104637500D02*
X81007500Y-105112500D01*
G75*
G02*
X80770000Y-105350000I-237500J0D01*
G01*
X80170000Y-105350000D01*
G75*
G02*
X79932500Y-105112500I0J237500D01*
G01*
X79932500Y-104637500D01*
G75*
G02*
X80170000Y-104400000I237500J0D01*
G01*
X80770000Y-104400000D01*
G75*
G02*
X81007500Y-104637500I0J-237500D01*
G01*
G37*
%TD.AperFunction*%
%TA.AperFunction,SMDPad,CuDef*%
G36*
G01*
X79282500Y-88762500D02*
X79282500Y-89237500D01*
G75*
G02*
X79045000Y-89475000I-237500J0D01*
G01*
X78445000Y-89475000D01*
G75*
G02*
X78207500Y-89237500I0J237500D01*
G01*
X78207500Y-88762500D01*
G75*
G02*
X78445000Y-88525000I237500J0D01*
G01*
X79045000Y-88525000D01*
G75*
G02*
X79282500Y-88762500I0J-237500D01*
G01*
G37*
%TD.AperFunction*%
%TA.AperFunction,SMDPad,CuDef*%
G36*
G01*
X81007500Y-88762500D02*
X81007500Y-89237500D01*
G75*
G02*
X80770000Y-89475000I-237500J0D01*
G01*
X80170000Y-89475000D01*
G75*
G02*
X79932500Y-89237500I0J237500D01*
G01*
X79932500Y-88762500D01*
G75*
G02*
X80170000Y-88525000I237500J0D01*
G01*
X80770000Y-88525000D01*
G75*
G02*
X81007500Y-88762500I0J-237500D01*
G01*
G37*
%TD.AperFunction*%
%TA.AperFunction,SMDPad,CuDef*%
G36*
G01*
X79282500Y-138927500D02*
X79282500Y-139402500D01*
G75*
G02*
X79045000Y-139640000I-237500J0D01*
G01*
X78445000Y-139640000D01*
G75*
G02*
X78207500Y-139402500I0J237500D01*
G01*
X78207500Y-138927500D01*
G75*
G02*
X78445000Y-138690000I237500J0D01*
G01*
X79045000Y-138690000D01*
G75*
G02*
X79282500Y-138927500I0J-237500D01*
G01*
G37*
%TD.AperFunction*%
%TA.AperFunction,SMDPad,CuDef*%
G36*
G01*
X81007500Y-138927500D02*
X81007500Y-139402500D01*
G75*
G02*
X80770000Y-139640000I-237500J0D01*
G01*
X80170000Y-139640000D01*
G75*
G02*
X79932500Y-139402500I0J237500D01*
G01*
X79932500Y-138927500D01*
G75*
G02*
X80170000Y-138690000I237500J0D01*
G01*
X80770000Y-138690000D01*
G75*
G02*
X81007500Y-138927500I0J-237500D01*
G01*
G37*
%TD.AperFunction*%
%TA.AperFunction,SMDPad,CuDef*%
G36*
G01*
X79282500Y-123052500D02*
X79282500Y-123527500D01*
G75*
G02*
X79045000Y-123765000I-237500J0D01*
G01*
X78445000Y-123765000D01*
G75*
G02*
X78207500Y-123527500I0J237500D01*
G01*
X78207500Y-123052500D01*
G75*
G02*
X78445000Y-122815000I237500J0D01*
G01*
X79045000Y-122815000D01*
G75*
G02*
X79282500Y-123052500I0J-237500D01*
G01*
G37*
%TD.AperFunction*%
%TA.AperFunction,SMDPad,CuDef*%
G36*
G01*
X81007500Y-123052500D02*
X81007500Y-123527500D01*
G75*
G02*
X80770000Y-123765000I-237500J0D01*
G01*
X80170000Y-123765000D01*
G75*
G02*
X79932500Y-123527500I0J237500D01*
G01*
X79932500Y-123052500D01*
G75*
G02*
X80170000Y-122815000I237500J0D01*
G01*
X80770000Y-122815000D01*
G75*
G02*
X81007500Y-123052500I0J-237500D01*
G01*
G37*
%TD.AperFunction*%
%TA.AperFunction,SMDPad,CuDef*%
G36*
G01*
X79282500Y-107177500D02*
X79282500Y-107652500D01*
G75*
G02*
X79045000Y-107890000I-237500J0D01*
G01*
X78445000Y-107890000D01*
G75*
G02*
X78207500Y-107652500I0J237500D01*
G01*
X78207500Y-107177500D01*
G75*
G02*
X78445000Y-106940000I237500J0D01*
G01*
X79045000Y-106940000D01*
G75*
G02*
X79282500Y-107177500I0J-237500D01*
G01*
G37*
%TD.AperFunction*%
%TA.AperFunction,SMDPad,CuDef*%
G36*
G01*
X81007500Y-107177500D02*
X81007500Y-107652500D01*
G75*
G02*
X80770000Y-107890000I-237500J0D01*
G01*
X80170000Y-107890000D01*
G75*
G02*
X79932500Y-107652500I0J237500D01*
G01*
X79932500Y-107177500D01*
G75*
G02*
X80170000Y-106940000I237500J0D01*
G01*
X80770000Y-106940000D01*
G75*
G02*
X81007500Y-107177500I0J-237500D01*
G01*
G37*
%TD.AperFunction*%
%TA.AperFunction,SMDPad,CuDef*%
G36*
G01*
X79282500Y-91302500D02*
X79282500Y-91777500D01*
G75*
G02*
X79045000Y-92015000I-237500J0D01*
G01*
X78445000Y-92015000D01*
G75*
G02*
X78207500Y-91777500I0J237500D01*
G01*
X78207500Y-91302500D01*
G75*
G02*
X78445000Y-91065000I237500J0D01*
G01*
X79045000Y-91065000D01*
G75*
G02*
X79282500Y-91302500I0J-237500D01*
G01*
G37*
%TD.AperFunction*%
%TA.AperFunction,SMDPad,CuDef*%
G36*
G01*
X81007500Y-91302500D02*
X81007500Y-91777500D01*
G75*
G02*
X80770000Y-92015000I-237500J0D01*
G01*
X80170000Y-92015000D01*
G75*
G02*
X79932500Y-91777500I0J237500D01*
G01*
X79932500Y-91302500D01*
G75*
G02*
X80170000Y-91065000I237500J0D01*
G01*
X80770000Y-91065000D01*
G75*
G02*
X81007500Y-91302500I0J-237500D01*
G01*
G37*
%TD.AperFunction*%
%TA.AperFunction,SMDPad,CuDef*%
G36*
G01*
X79282500Y-141467500D02*
X79282500Y-141942500D01*
G75*
G02*
X79045000Y-142180000I-237500J0D01*
G01*
X78445000Y-142180000D01*
G75*
G02*
X78207500Y-141942500I0J237500D01*
G01*
X78207500Y-141467500D01*
G75*
G02*
X78445000Y-141230000I237500J0D01*
G01*
X79045000Y-141230000D01*
G75*
G02*
X79282500Y-141467500I0J-237500D01*
G01*
G37*
%TD.AperFunction*%
%TA.AperFunction,SMDPad,CuDef*%
G36*
G01*
X81007500Y-141467500D02*
X81007500Y-141942500D01*
G75*
G02*
X80770000Y-142180000I-237500J0D01*
G01*
X80170000Y-142180000D01*
G75*
G02*
X79932500Y-141942500I0J237500D01*
G01*
X79932500Y-141467500D01*
G75*
G02*
X80170000Y-141230000I237500J0D01*
G01*
X80770000Y-141230000D01*
G75*
G02*
X81007500Y-141467500I0J-237500D01*
G01*
G37*
%TD.AperFunction*%
%TA.AperFunction,SMDPad,CuDef*%
G36*
G01*
X79282500Y-125592500D02*
X79282500Y-126067500D01*
G75*
G02*
X79045000Y-126305000I-237500J0D01*
G01*
X78445000Y-126305000D01*
G75*
G02*
X78207500Y-126067500I0J237500D01*
G01*
X78207500Y-125592500D01*
G75*
G02*
X78445000Y-125355000I237500J0D01*
G01*
X79045000Y-125355000D01*
G75*
G02*
X79282500Y-125592500I0J-237500D01*
G01*
G37*
%TD.AperFunction*%
%TA.AperFunction,SMDPad,CuDef*%
G36*
G01*
X81007500Y-125592500D02*
X81007500Y-126067500D01*
G75*
G02*
X80770000Y-126305000I-237500J0D01*
G01*
X80170000Y-126305000D01*
G75*
G02*
X79932500Y-126067500I0J237500D01*
G01*
X79932500Y-125592500D01*
G75*
G02*
X80170000Y-125355000I237500J0D01*
G01*
X80770000Y-125355000D01*
G75*
G02*
X81007500Y-125592500I0J-237500D01*
G01*
G37*
%TD.AperFunction*%
%TA.AperFunction,SMDPad,CuDef*%
G36*
G01*
X79282500Y-109717500D02*
X79282500Y-110192500D01*
G75*
G02*
X79045000Y-110430000I-237500J0D01*
G01*
X78445000Y-110430000D01*
G75*
G02*
X78207500Y-110192500I0J237500D01*
G01*
X78207500Y-109717500D01*
G75*
G02*
X78445000Y-109480000I237500J0D01*
G01*
X79045000Y-109480000D01*
G75*
G02*
X79282500Y-109717500I0J-237500D01*
G01*
G37*
%TD.AperFunction*%
%TA.AperFunction,SMDPad,CuDef*%
G36*
G01*
X81007500Y-109717500D02*
X81007500Y-110192500D01*
G75*
G02*
X80770000Y-110430000I-237500J0D01*
G01*
X80170000Y-110430000D01*
G75*
G02*
X79932500Y-110192500I0J237500D01*
G01*
X79932500Y-109717500D01*
G75*
G02*
X80170000Y-109480000I237500J0D01*
G01*
X80770000Y-109480000D01*
G75*
G02*
X81007500Y-109717500I0J-237500D01*
G01*
G37*
%TD.AperFunction*%
%TA.AperFunction,SMDPad,CuDef*%
G36*
G01*
X79282500Y-93842500D02*
X79282500Y-94317500D01*
G75*
G02*
X79045000Y-94555000I-237500J0D01*
G01*
X78445000Y-94555000D01*
G75*
G02*
X78207500Y-94317500I0J237500D01*
G01*
X78207500Y-93842500D01*
G75*
G02*
X78445000Y-93605000I237500J0D01*
G01*
X79045000Y-93605000D01*
G75*
G02*
X79282500Y-93842500I0J-237500D01*
G01*
G37*
%TD.AperFunction*%
%TA.AperFunction,SMDPad,CuDef*%
G36*
G01*
X81007500Y-93842500D02*
X81007500Y-94317500D01*
G75*
G02*
X80770000Y-94555000I-237500J0D01*
G01*
X80170000Y-94555000D01*
G75*
G02*
X79932500Y-94317500I0J237500D01*
G01*
X79932500Y-93842500D01*
G75*
G02*
X80170000Y-93605000I237500J0D01*
G01*
X80770000Y-93605000D01*
G75*
G02*
X81007500Y-93842500I0J-237500D01*
G01*
G37*
%TD.AperFunction*%
%TA.AperFunction,SMDPad,CuDef*%
G36*
G01*
X79282500Y-144007500D02*
X79282500Y-144482500D01*
G75*
G02*
X79045000Y-144720000I-237500J0D01*
G01*
X78445000Y-144720000D01*
G75*
G02*
X78207500Y-144482500I0J237500D01*
G01*
X78207500Y-144007500D01*
G75*
G02*
X78445000Y-143770000I237500J0D01*
G01*
X79045000Y-143770000D01*
G75*
G02*
X79282500Y-144007500I0J-237500D01*
G01*
G37*
%TD.AperFunction*%
%TA.AperFunction,SMDPad,CuDef*%
G36*
G01*
X81007500Y-144007500D02*
X81007500Y-144482500D01*
G75*
G02*
X80770000Y-144720000I-237500J0D01*
G01*
X80170000Y-144720000D01*
G75*
G02*
X79932500Y-144482500I0J237500D01*
G01*
X79932500Y-144007500D01*
G75*
G02*
X80170000Y-143770000I237500J0D01*
G01*
X80770000Y-143770000D01*
G75*
G02*
X81007500Y-144007500I0J-237500D01*
G01*
G37*
%TD.AperFunction*%
%TA.AperFunction,SMDPad,CuDef*%
G36*
G01*
X79282500Y-128132500D02*
X79282500Y-128607500D01*
G75*
G02*
X79045000Y-128845000I-237500J0D01*
G01*
X78445000Y-128845000D01*
G75*
G02*
X78207500Y-128607500I0J237500D01*
G01*
X78207500Y-128132500D01*
G75*
G02*
X78445000Y-127895000I237500J0D01*
G01*
X79045000Y-127895000D01*
G75*
G02*
X79282500Y-128132500I0J-237500D01*
G01*
G37*
%TD.AperFunction*%
%TA.AperFunction,SMDPad,CuDef*%
G36*
G01*
X81007500Y-128132500D02*
X81007500Y-128607500D01*
G75*
G02*
X80770000Y-128845000I-237500J0D01*
G01*
X80170000Y-128845000D01*
G75*
G02*
X79932500Y-128607500I0J237500D01*
G01*
X79932500Y-128132500D01*
G75*
G02*
X80170000Y-127895000I237500J0D01*
G01*
X80770000Y-127895000D01*
G75*
G02*
X81007500Y-128132500I0J-237500D01*
G01*
G37*
%TD.AperFunction*%
%TA.AperFunction,SMDPad,CuDef*%
G36*
G01*
X79282500Y-112257500D02*
X79282500Y-112732500D01*
G75*
G02*
X79045000Y-112970000I-237500J0D01*
G01*
X78445000Y-112970000D01*
G75*
G02*
X78207500Y-112732500I0J237500D01*
G01*
X78207500Y-112257500D01*
G75*
G02*
X78445000Y-112020000I237500J0D01*
G01*
X79045000Y-112020000D01*
G75*
G02*
X79282500Y-112257500I0J-237500D01*
G01*
G37*
%TD.AperFunction*%
%TA.AperFunction,SMDPad,CuDef*%
G36*
G01*
X81007500Y-112257500D02*
X81007500Y-112732500D01*
G75*
G02*
X80770000Y-112970000I-237500J0D01*
G01*
X80170000Y-112970000D01*
G75*
G02*
X79932500Y-112732500I0J237500D01*
G01*
X79932500Y-112257500D01*
G75*
G02*
X80170000Y-112020000I237500J0D01*
G01*
X80770000Y-112020000D01*
G75*
G02*
X81007500Y-112257500I0J-237500D01*
G01*
G37*
%TD.AperFunction*%
%TA.AperFunction,SMDPad,CuDef*%
G36*
G01*
X79282500Y-96382500D02*
X79282500Y-96857500D01*
G75*
G02*
X79045000Y-97095000I-237500J0D01*
G01*
X78445000Y-97095000D01*
G75*
G02*
X78207500Y-96857500I0J237500D01*
G01*
X78207500Y-96382500D01*
G75*
G02*
X78445000Y-96145000I237500J0D01*
G01*
X79045000Y-96145000D01*
G75*
G02*
X79282500Y-96382500I0J-237500D01*
G01*
G37*
%TD.AperFunction*%
%TA.AperFunction,SMDPad,CuDef*%
G36*
G01*
X81007500Y-96382500D02*
X81007500Y-96857500D01*
G75*
G02*
X80770000Y-97095000I-237500J0D01*
G01*
X80170000Y-97095000D01*
G75*
G02*
X79932500Y-96857500I0J237500D01*
G01*
X79932500Y-96382500D01*
G75*
G02*
X80170000Y-96145000I237500J0D01*
G01*
X80770000Y-96145000D01*
G75*
G02*
X81007500Y-96382500I0J-237500D01*
G01*
G37*
%TD.AperFunction*%
D14*
X81740000Y-131291000D03*
X81665000Y-115289000D03*
X81665000Y-99541000D03*
X95710000Y-84555000D03*
X96000000Y-146000000D03*
X98885000Y-131291000D03*
X98810000Y-115289000D03*
X98810000Y-99541000D03*
X69675000Y-143229000D03*
X69675000Y-124941000D03*
X69675000Y-104875000D03*
X69675000Y-85825000D03*
X81740000Y-147039000D03*
X88090000Y-84936000D03*
D15*
X78745000Y-132000000D02*
X78745000Y-86460000D01*
X78745000Y-86460000D02*
X78745000Y-85755000D01*
X78745000Y-85755000D02*
X80500000Y-84000000D01*
X83610000Y-84000000D02*
X87500000Y-80110000D01*
X80500000Y-84000000D02*
X83610000Y-84000000D01*
X72970000Y-141705000D02*
X78745000Y-141705000D01*
X70350000Y-139085000D02*
X72970000Y-141705000D01*
X78745000Y-129185000D02*
X78745000Y-128825000D01*
X78745000Y-144245000D02*
X78745000Y-129185000D01*
X80470000Y-86460000D02*
X84280000Y-86460000D01*
X84280000Y-89000000D02*
X80470000Y-89000000D01*
X80470000Y-91540000D02*
X84280000Y-91540000D01*
X80470000Y-94080000D02*
X84280000Y-94080000D01*
X84280000Y-96620000D02*
X80470000Y-96620000D01*
X80470000Y-102335000D02*
X84280000Y-102335000D01*
X84280000Y-104875000D02*
X80470000Y-104875000D01*
X80470000Y-107415000D02*
X84280000Y-107415000D01*
X84280000Y-109955000D02*
X80470000Y-109955000D01*
X80470000Y-112495000D02*
X84280000Y-112495000D01*
X84280000Y-118210000D02*
X80470000Y-118210000D01*
X80470000Y-120750000D02*
X84280000Y-120750000D01*
X80470000Y-123290000D02*
X84280000Y-123290000D01*
X84280000Y-125830000D02*
X80470000Y-125830000D01*
X80470000Y-128370000D02*
X84280000Y-128370000D01*
X84280000Y-134085000D02*
X80470000Y-134085000D01*
X80470000Y-136625000D02*
X84280000Y-136625000D01*
X84280000Y-139165000D02*
X80470000Y-139165000D01*
X80470000Y-141705000D02*
X84280000Y-141705000D01*
X80470000Y-144245000D02*
X84280000Y-144245000D01*
D16*
X91900000Y-96620000D02*
X91900000Y-86460000D01*
D15*
X91900000Y-144245000D02*
X91900000Y-86460000D01*
X91900000Y-86460000D02*
X91900000Y-83920000D01*
X93500000Y-82320000D02*
X93500000Y-80110000D01*
X91900000Y-83920000D02*
X93500000Y-82320000D01*
X75350000Y-99715000D02*
X76025000Y-99040000D01*
X76025000Y-92890000D02*
X72850000Y-89715000D01*
X76025000Y-99040000D02*
X76025000Y-92890000D01*
X81645000Y-80205000D02*
X81645000Y-80110000D01*
X72850000Y-89715000D02*
X72850000Y-89000000D01*
X72850000Y-89000000D02*
X81645000Y-80205000D01*
X75350000Y-119400000D02*
X75470000Y-119400000D01*
X75470000Y-119400000D02*
X76025000Y-118845000D01*
X76025000Y-112575000D02*
X72850000Y-109400000D01*
X76025000Y-118845000D02*
X76025000Y-112575000D01*
X72850000Y-102215000D02*
X70350000Y-99715000D01*
X72850000Y-109400000D02*
X72850000Y-102215000D01*
X75350000Y-139085000D02*
X75470000Y-139085000D01*
X75470000Y-139085000D02*
X76025000Y-138530000D01*
X76025000Y-132260000D02*
X72850000Y-129085000D01*
X76025000Y-138530000D02*
X76025000Y-132260000D01*
X72850000Y-121900000D02*
X70350000Y-119400000D01*
X72850000Y-129085000D02*
X72850000Y-121900000D01*
D16*
X74834218Y-78767441D02*
X76000000Y-79933223D01*
X77165782Y-78767441D01*
X77112659Y-78650000D01*
X79704017Y-78650000D01*
X79495992Y-78961332D01*
X79313191Y-79402653D01*
X79220000Y-79871158D01*
X79220000Y-80348842D01*
X79287579Y-80688588D01*
X72539335Y-87436833D01*
X72180573Y-87508195D01*
X71762910Y-87681197D01*
X71387022Y-87932357D01*
X71067357Y-88252022D01*
X70816197Y-88627910D01*
X70643195Y-89045573D01*
X70555000Y-89488962D01*
X70555000Y-89941038D01*
X70643195Y-90384427D01*
X70816197Y-90802090D01*
X71067357Y-91177978D01*
X71387022Y-91497643D01*
X71762910Y-91748803D01*
X71803962Y-91765807D01*
X71369757Y-91945661D01*
X70857928Y-92287654D01*
X70422654Y-92722928D01*
X70080661Y-93234757D01*
X69845092Y-93803471D01*
X69725000Y-94407214D01*
X69725000Y-95022786D01*
X69845092Y-95626529D01*
X70080661Y-96195243D01*
X70422654Y-96707072D01*
X70857928Y-97142346D01*
X71369757Y-97484339D01*
X71938471Y-97719908D01*
X72542214Y-97840000D01*
X73157786Y-97840000D01*
X73761529Y-97719908D01*
X74330243Y-97484339D01*
X74700000Y-97237275D01*
X74700000Y-97504331D01*
X74680573Y-97508195D01*
X74262910Y-97681197D01*
X73887022Y-97932357D01*
X73567357Y-98252022D01*
X73316197Y-98627910D01*
X73143195Y-99045573D01*
X73055000Y-99488962D01*
X73055000Y-99941038D01*
X73143195Y-100384427D01*
X73316197Y-100802090D01*
X73326817Y-100817985D01*
X72612626Y-100103794D01*
X72645000Y-99941038D01*
X72645000Y-99488962D01*
X72556805Y-99045573D01*
X72383803Y-98627910D01*
X72132643Y-98252022D01*
X71812978Y-97932357D01*
X71437090Y-97681197D01*
X71019427Y-97508195D01*
X70576038Y-97420000D01*
X70123962Y-97420000D01*
X69680573Y-97508195D01*
X69262910Y-97681197D01*
X68887022Y-97932357D01*
X68567357Y-98252022D01*
X68316197Y-98627910D01*
X68143195Y-99045573D01*
X68055000Y-99488962D01*
X68055000Y-99941038D01*
X68143195Y-100384427D01*
X68316197Y-100802090D01*
X68567357Y-101177978D01*
X68887022Y-101497643D01*
X69262910Y-101748803D01*
X69680573Y-101921805D01*
X70123962Y-102010000D01*
X70576038Y-102010000D01*
X70738794Y-101977626D01*
X71525001Y-102763834D01*
X71525000Y-107525163D01*
X71387022Y-107617357D01*
X71067357Y-107937022D01*
X70816197Y-108312910D01*
X70643195Y-108730573D01*
X70555000Y-109173962D01*
X70555000Y-109626038D01*
X70643195Y-110069427D01*
X70816197Y-110487090D01*
X71067357Y-110862978D01*
X71387022Y-111182643D01*
X71762910Y-111433803D01*
X71803962Y-111450807D01*
X71369757Y-111630661D01*
X70857928Y-111972654D01*
X70422654Y-112407928D01*
X70080661Y-112919757D01*
X69845092Y-113488471D01*
X69725000Y-114092214D01*
X69725000Y-114707786D01*
X69845092Y-115311529D01*
X70080661Y-115880243D01*
X70422654Y-116392072D01*
X70857928Y-116827346D01*
X71369757Y-117169339D01*
X71938471Y-117404908D01*
X72542214Y-117525000D01*
X73157786Y-117525000D01*
X73761529Y-117404908D01*
X74330243Y-117169339D01*
X74700000Y-116922275D01*
X74700000Y-117189331D01*
X74680573Y-117193195D01*
X74262910Y-117366197D01*
X73887022Y-117617357D01*
X73567357Y-117937022D01*
X73316197Y-118312910D01*
X73143195Y-118730573D01*
X73055000Y-119173962D01*
X73055000Y-119626038D01*
X73143195Y-120069427D01*
X73316197Y-120487090D01*
X73326817Y-120502985D01*
X72612626Y-119788794D01*
X72645000Y-119626038D01*
X72645000Y-119173962D01*
X72556805Y-118730573D01*
X72383803Y-118312910D01*
X72132643Y-117937022D01*
X71812978Y-117617357D01*
X71437090Y-117366197D01*
X71019427Y-117193195D01*
X70576038Y-117105000D01*
X70123962Y-117105000D01*
X69680573Y-117193195D01*
X69262910Y-117366197D01*
X68887022Y-117617357D01*
X68567357Y-117937022D01*
X68316197Y-118312910D01*
X68143195Y-118730573D01*
X68055000Y-119173962D01*
X68055000Y-119626038D01*
X68143195Y-120069427D01*
X68316197Y-120487090D01*
X68567357Y-120862978D01*
X68887022Y-121182643D01*
X69262910Y-121433803D01*
X69680573Y-121606805D01*
X70123962Y-121695000D01*
X70576038Y-121695000D01*
X70738794Y-121662626D01*
X71525001Y-122448834D01*
X71525000Y-127210163D01*
X71387022Y-127302357D01*
X71067357Y-127622022D01*
X70816197Y-127997910D01*
X70643195Y-128415573D01*
X70555000Y-128858962D01*
X70555000Y-129311038D01*
X70643195Y-129754427D01*
X70816197Y-130172090D01*
X71067357Y-130547978D01*
X71387022Y-130867643D01*
X71762910Y-131118803D01*
X71803962Y-131135807D01*
X71369757Y-131315661D01*
X70857928Y-131657654D01*
X70422654Y-132092928D01*
X70080661Y-132604757D01*
X69845092Y-133173471D01*
X69725000Y-133777214D01*
X69725000Y-134392786D01*
X69845092Y-134996529D01*
X70080661Y-135565243D01*
X70422654Y-136077072D01*
X70857928Y-136512346D01*
X71369757Y-136854339D01*
X71938471Y-137089908D01*
X72542214Y-137210000D01*
X73157786Y-137210000D01*
X73761529Y-137089908D01*
X74330243Y-136854339D01*
X74700000Y-136607275D01*
X74700000Y-136874331D01*
X74680573Y-136878195D01*
X74262910Y-137051197D01*
X73887022Y-137302357D01*
X73567357Y-137622022D01*
X73316197Y-137997910D01*
X73143195Y-138415573D01*
X73055000Y-138858962D01*
X73055000Y-139311038D01*
X73143195Y-139754427D01*
X73316197Y-140172090D01*
X73326818Y-140187985D01*
X72612626Y-139473794D01*
X72645000Y-139311038D01*
X72645000Y-138858962D01*
X72556805Y-138415573D01*
X72383803Y-137997910D01*
X72132643Y-137622022D01*
X71812978Y-137302357D01*
X71437090Y-137051197D01*
X71019427Y-136878195D01*
X70576038Y-136790000D01*
X70123962Y-136790000D01*
X69680573Y-136878195D01*
X69262910Y-137051197D01*
X68887022Y-137302357D01*
X68567357Y-137622022D01*
X68316197Y-137997910D01*
X68143195Y-138415573D01*
X68055000Y-138858962D01*
X68055000Y-139311038D01*
X68143195Y-139754427D01*
X68316197Y-140172090D01*
X68567357Y-140547978D01*
X68887022Y-140867643D01*
X69262910Y-141118803D01*
X69680573Y-141291805D01*
X70123962Y-141380000D01*
X70576038Y-141380000D01*
X70738794Y-141347626D01*
X71987055Y-142595888D01*
X72028550Y-142646450D01*
X72230308Y-142812028D01*
X72432310Y-142920000D01*
X72460491Y-142935063D01*
X72710254Y-143010828D01*
X72970000Y-143036411D01*
X73035091Y-143030000D01*
X77420000Y-143030000D01*
X77420000Y-143110548D01*
X77307597Y-143247512D01*
X77181185Y-143484011D01*
X77103342Y-143740628D01*
X77077057Y-144007500D01*
X77077057Y-144482500D01*
X77103342Y-144749372D01*
X77181185Y-145005989D01*
X77307597Y-145242488D01*
X77477718Y-145449782D01*
X77685012Y-145619903D01*
X77921511Y-145746315D01*
X78178128Y-145824158D01*
X78445000Y-145850443D01*
X79045000Y-145850443D01*
X79311872Y-145824158D01*
X79568489Y-145746315D01*
X79607500Y-145725463D01*
X79646511Y-145746315D01*
X79903128Y-145824158D01*
X80170000Y-145850443D01*
X80770000Y-145850443D01*
X81036872Y-145824158D01*
X81293489Y-145746315D01*
X81529988Y-145619903D01*
X81590795Y-145570000D01*
X82882639Y-145570000D01*
X83052884Y-145740245D01*
X83368171Y-145950913D01*
X83718498Y-146096023D01*
X84090404Y-146170000D01*
X84469596Y-146170000D01*
X84841502Y-146096023D01*
X85191829Y-145950913D01*
X85507116Y-145740245D01*
X85775245Y-145472116D01*
X85985913Y-145156829D01*
X86131023Y-144806502D01*
X86205000Y-144434596D01*
X86205000Y-144055404D01*
X86131023Y-143683498D01*
X85985913Y-143333171D01*
X85775245Y-143017884D01*
X85732361Y-142975000D01*
X85775245Y-142932116D01*
X85985913Y-142616829D01*
X86131023Y-142266502D01*
X86205000Y-141894596D01*
X86205000Y-141515404D01*
X86131023Y-141143498D01*
X85985913Y-140793171D01*
X85775245Y-140477884D01*
X85732361Y-140435000D01*
X85775245Y-140392116D01*
X85985913Y-140076829D01*
X86131023Y-139726502D01*
X86205000Y-139354596D01*
X86205000Y-138975404D01*
X86131023Y-138603498D01*
X85985913Y-138253171D01*
X85775245Y-137937884D01*
X85732361Y-137895000D01*
X85775245Y-137852116D01*
X85985913Y-137536829D01*
X86131023Y-137186502D01*
X86205000Y-136814596D01*
X86205000Y-136435404D01*
X86131023Y-136063498D01*
X85985913Y-135713171D01*
X85775245Y-135397884D01*
X85732361Y-135355000D01*
X85775245Y-135312116D01*
X85985913Y-134996829D01*
X86131023Y-134646502D01*
X86205000Y-134274596D01*
X86205000Y-133895404D01*
X86131023Y-133523498D01*
X85985913Y-133173171D01*
X85775245Y-132857884D01*
X85507116Y-132589755D01*
X85191829Y-132379087D01*
X84841502Y-132233977D01*
X84469596Y-132160000D01*
X84090404Y-132160000D01*
X83718498Y-132233977D01*
X83368171Y-132379087D01*
X83052884Y-132589755D01*
X82882639Y-132760000D01*
X81590795Y-132760000D01*
X81529988Y-132710097D01*
X81293489Y-132583685D01*
X81036872Y-132505842D01*
X80770000Y-132479557D01*
X80170000Y-132479557D01*
X80070000Y-132489406D01*
X80070000Y-129965594D01*
X80170000Y-129975443D01*
X80770000Y-129975443D01*
X81036872Y-129949158D01*
X81293489Y-129871315D01*
X81529988Y-129744903D01*
X81590795Y-129695000D01*
X82882639Y-129695000D01*
X83052884Y-129865245D01*
X83368171Y-130075913D01*
X83718498Y-130221023D01*
X84090404Y-130295000D01*
X84469596Y-130295000D01*
X84841502Y-130221023D01*
X85191829Y-130075913D01*
X85507116Y-129865245D01*
X85775245Y-129597116D01*
X85985913Y-129281829D01*
X86131023Y-128931502D01*
X86205000Y-128559596D01*
X86205000Y-128180404D01*
X86131023Y-127808498D01*
X85985913Y-127458171D01*
X85775245Y-127142884D01*
X85732361Y-127100000D01*
X85775245Y-127057116D01*
X85985913Y-126741829D01*
X86131023Y-126391502D01*
X86205000Y-126019596D01*
X86205000Y-125640404D01*
X86131023Y-125268498D01*
X85985913Y-124918171D01*
X85775245Y-124602884D01*
X85732361Y-124560000D01*
X85775245Y-124517116D01*
X85985913Y-124201829D01*
X86131023Y-123851502D01*
X86205000Y-123479596D01*
X86205000Y-123100404D01*
X86131023Y-122728498D01*
X85985913Y-122378171D01*
X85775245Y-122062884D01*
X85732361Y-122020000D01*
X85775245Y-121977116D01*
X85985913Y-121661829D01*
X86131023Y-121311502D01*
X86205000Y-120939596D01*
X86205000Y-120560404D01*
X86131023Y-120188498D01*
X85985913Y-119838171D01*
X85775245Y-119522884D01*
X85732361Y-119480000D01*
X85775245Y-119437116D01*
X85985913Y-119121829D01*
X86131023Y-118771502D01*
X86205000Y-118399596D01*
X86205000Y-118020404D01*
X86131023Y-117648498D01*
X85985913Y-117298171D01*
X85775245Y-116982884D01*
X85507116Y-116714755D01*
X85191829Y-116504087D01*
X84841502Y-116358977D01*
X84469596Y-116285000D01*
X84090404Y-116285000D01*
X83718498Y-116358977D01*
X83368171Y-116504087D01*
X83052884Y-116714755D01*
X82882639Y-116885000D01*
X81590795Y-116885000D01*
X81529988Y-116835097D01*
X81293489Y-116708685D01*
X81036872Y-116630842D01*
X80770000Y-116604557D01*
X80170000Y-116604557D01*
X80070000Y-116614406D01*
X80070000Y-114090594D01*
X80170000Y-114100443D01*
X80770000Y-114100443D01*
X81036872Y-114074158D01*
X81293489Y-113996315D01*
X81529988Y-113869903D01*
X81590795Y-113820000D01*
X82882639Y-113820000D01*
X83052884Y-113990245D01*
X83368171Y-114200913D01*
X83718498Y-114346023D01*
X84090404Y-114420000D01*
X84469596Y-114420000D01*
X84841502Y-114346023D01*
X85191829Y-114200913D01*
X85507116Y-113990245D01*
X85775245Y-113722116D01*
X85985913Y-113406829D01*
X86131023Y-113056502D01*
X86205000Y-112684596D01*
X86205000Y-112305404D01*
X86131023Y-111933498D01*
X85985913Y-111583171D01*
X85775245Y-111267884D01*
X85732361Y-111225000D01*
X85775245Y-111182116D01*
X85985913Y-110866829D01*
X86131023Y-110516502D01*
X86205000Y-110144596D01*
X86205000Y-109765404D01*
X86131023Y-109393498D01*
X85985913Y-109043171D01*
X85775245Y-108727884D01*
X85732361Y-108685000D01*
X85775245Y-108642116D01*
X85985913Y-108326829D01*
X86131023Y-107976502D01*
X86205000Y-107604596D01*
X86205000Y-107225404D01*
X86131023Y-106853498D01*
X85985913Y-106503171D01*
X85775245Y-106187884D01*
X85732361Y-106145000D01*
X85775245Y-106102116D01*
X85985913Y-105786829D01*
X86131023Y-105436502D01*
X86205000Y-105064596D01*
X86205000Y-104685404D01*
X86131023Y-104313498D01*
X85985913Y-103963171D01*
X85775245Y-103647884D01*
X85732361Y-103605000D01*
X85775245Y-103562116D01*
X85985913Y-103246829D01*
X86131023Y-102896502D01*
X86205000Y-102524596D01*
X86205000Y-102145404D01*
X86131023Y-101773498D01*
X85985913Y-101423171D01*
X85775245Y-101107884D01*
X85507116Y-100839755D01*
X85191829Y-100629087D01*
X84841502Y-100483977D01*
X84469596Y-100410000D01*
X84090404Y-100410000D01*
X83718498Y-100483977D01*
X83368171Y-100629087D01*
X83052884Y-100839755D01*
X82882639Y-101010000D01*
X81590795Y-101010000D01*
X81529988Y-100960097D01*
X81293489Y-100833685D01*
X81036872Y-100755842D01*
X80770000Y-100729557D01*
X80170000Y-100729557D01*
X80070000Y-100739406D01*
X80070000Y-98215594D01*
X80170000Y-98225443D01*
X80770000Y-98225443D01*
X81036872Y-98199158D01*
X81293489Y-98121315D01*
X81529988Y-97994903D01*
X81590795Y-97945000D01*
X82882639Y-97945000D01*
X83052884Y-98115245D01*
X83368171Y-98325913D01*
X83718498Y-98471023D01*
X84090404Y-98545000D01*
X84469596Y-98545000D01*
X84841502Y-98471023D01*
X85191829Y-98325913D01*
X85507116Y-98115245D01*
X85775245Y-97847116D01*
X85985913Y-97531829D01*
X86131023Y-97181502D01*
X86205000Y-96809596D01*
X86205000Y-96430404D01*
X86131023Y-96058498D01*
X85985913Y-95708171D01*
X85775245Y-95392884D01*
X85732361Y-95350000D01*
X85775245Y-95307116D01*
X85985913Y-94991829D01*
X86131023Y-94641502D01*
X86205000Y-94269596D01*
X86205000Y-93890404D01*
X86131023Y-93518498D01*
X85985913Y-93168171D01*
X85775245Y-92852884D01*
X85732361Y-92810000D01*
X85775245Y-92767116D01*
X85985913Y-92451829D01*
X86131023Y-92101502D01*
X86205000Y-91729596D01*
X86205000Y-91350404D01*
X86131023Y-90978498D01*
X85985913Y-90628171D01*
X85775245Y-90312884D01*
X85732361Y-90270000D01*
X85775245Y-90227116D01*
X85985913Y-89911829D01*
X86131023Y-89561502D01*
X86205000Y-89189596D01*
X86205000Y-88810404D01*
X86131023Y-88438498D01*
X85985913Y-88088171D01*
X85775245Y-87772884D01*
X85732361Y-87730000D01*
X85775245Y-87687116D01*
X85985913Y-87371829D01*
X86131023Y-87021502D01*
X86205000Y-86649596D01*
X86205000Y-86270404D01*
X86131023Y-85898498D01*
X85985913Y-85548171D01*
X85775245Y-85232884D01*
X85507116Y-84964755D01*
X85191829Y-84754087D01*
X84865086Y-84618746D01*
X87000651Y-82483182D01*
X87261158Y-82535000D01*
X87738842Y-82535000D01*
X88207347Y-82441809D01*
X88648668Y-82259008D01*
X89045848Y-81993621D01*
X89383621Y-81655848D01*
X89649008Y-81258668D01*
X89831809Y-80817347D01*
X89925000Y-80348842D01*
X89925000Y-79871158D01*
X89831809Y-79402653D01*
X89649008Y-78961332D01*
X89440983Y-78650000D01*
X91559017Y-78650000D01*
X91350992Y-78961332D01*
X91168191Y-79402653D01*
X91075000Y-79871158D01*
X91075000Y-80348842D01*
X91168191Y-80817347D01*
X91350992Y-81258668D01*
X91616379Y-81655848D01*
X91953350Y-81992819D01*
X91009113Y-82937055D01*
X90958551Y-82978550D01*
X90917058Y-83029110D01*
X90792973Y-83180308D01*
X90669937Y-83410492D01*
X90594172Y-83660255D01*
X90568589Y-83920000D01*
X90575001Y-83985101D01*
X90575001Y-85062638D01*
X90404755Y-85232884D01*
X90194087Y-85548171D01*
X90048977Y-85898498D01*
X89975000Y-86270404D01*
X89975000Y-86649596D01*
X90048977Y-87021502D01*
X90194087Y-87371829D01*
X90404755Y-87687116D01*
X90447639Y-87730000D01*
X90404755Y-87772884D01*
X90194087Y-88088171D01*
X90048977Y-88438498D01*
X89975000Y-88810404D01*
X89975000Y-89189596D01*
X90048977Y-89561502D01*
X90194087Y-89911829D01*
X90404755Y-90227116D01*
X90447639Y-90270000D01*
X90404755Y-90312884D01*
X90194087Y-90628171D01*
X90048977Y-90978498D01*
X89975000Y-91350404D01*
X89975000Y-91729596D01*
X90048977Y-92101502D01*
X90194087Y-92451829D01*
X90404755Y-92767116D01*
X90447639Y-92810000D01*
X90404755Y-92852884D01*
X90194087Y-93168171D01*
X90048977Y-93518498D01*
X89975000Y-93890404D01*
X89975000Y-94269596D01*
X90048977Y-94641502D01*
X90194087Y-94991829D01*
X90252531Y-95079297D01*
X90160071Y-95191960D01*
X90055607Y-95387398D01*
X89991278Y-95599462D01*
X89969557Y-95820000D01*
X89969557Y-97420000D01*
X89991278Y-97640538D01*
X90055607Y-97852602D01*
X90160071Y-98048040D01*
X90300656Y-98219344D01*
X90471960Y-98359929D01*
X90575001Y-98415006D01*
X90575001Y-100937638D01*
X90404755Y-101107884D01*
X90194087Y-101423171D01*
X90048977Y-101773498D01*
X89975000Y-102145404D01*
X89975000Y-102524596D01*
X90048977Y-102896502D01*
X90194087Y-103246829D01*
X90404755Y-103562116D01*
X90447639Y-103605000D01*
X90404755Y-103647884D01*
X90194087Y-103963171D01*
X90048977Y-104313498D01*
X89975000Y-104685404D01*
X89975000Y-105064596D01*
X90048977Y-105436502D01*
X90194087Y-105786829D01*
X90404755Y-106102116D01*
X90447639Y-106145000D01*
X90404755Y-106187884D01*
X90194087Y-106503171D01*
X90048977Y-106853498D01*
X89975000Y-107225404D01*
X89975000Y-107604596D01*
X90048977Y-107976502D01*
X90194087Y-108326829D01*
X90404755Y-108642116D01*
X90447639Y-108685000D01*
X90404755Y-108727884D01*
X90194087Y-109043171D01*
X90048977Y-109393498D01*
X89975000Y-109765404D01*
X89975000Y-110144596D01*
X90048977Y-110516502D01*
X90194087Y-110866829D01*
X90252531Y-110954297D01*
X90160071Y-111066960D01*
X90055607Y-111262398D01*
X89991278Y-111474462D01*
X89969557Y-111695000D01*
X89969557Y-113295000D01*
X89991278Y-113515538D01*
X90055607Y-113727602D01*
X90160071Y-113923040D01*
X90300656Y-114094344D01*
X90471960Y-114234929D01*
X90575001Y-114290005D01*
X90575000Y-116812639D01*
X90404755Y-116982884D01*
X90194087Y-117298171D01*
X90048977Y-117648498D01*
X89975000Y-118020404D01*
X89975000Y-118399596D01*
X90048977Y-118771502D01*
X90194087Y-119121829D01*
X90404755Y-119437116D01*
X90447639Y-119480000D01*
X90404755Y-119522884D01*
X90194087Y-119838171D01*
X90048977Y-120188498D01*
X89975000Y-120560404D01*
X89975000Y-120939596D01*
X90048977Y-121311502D01*
X90194087Y-121661829D01*
X90404755Y-121977116D01*
X90447639Y-122020000D01*
X90404755Y-122062884D01*
X90194087Y-122378171D01*
X90048977Y-122728498D01*
X89975000Y-123100404D01*
X89975000Y-123479596D01*
X90048977Y-123851502D01*
X90194087Y-124201829D01*
X90404755Y-124517116D01*
X90447639Y-124560000D01*
X90404755Y-124602884D01*
X90194087Y-124918171D01*
X90048977Y-125268498D01*
X89975000Y-125640404D01*
X89975000Y-126019596D01*
X90048977Y-126391502D01*
X90194087Y-126741829D01*
X90252531Y-126829297D01*
X90160071Y-126941960D01*
X90055607Y-127137398D01*
X89991278Y-127349462D01*
X89969557Y-127570000D01*
X89969557Y-129170000D01*
X89991278Y-129390538D01*
X90055607Y-129602602D01*
X90160071Y-129798040D01*
X90300656Y-129969344D01*
X90471960Y-130109929D01*
X90575000Y-130165005D01*
X90575000Y-132687639D01*
X90404755Y-132857884D01*
X90194087Y-133173171D01*
X90048977Y-133523498D01*
X89975000Y-133895404D01*
X89975000Y-134274596D01*
X90048977Y-134646502D01*
X90194087Y-134996829D01*
X90404755Y-135312116D01*
X90447639Y-135355000D01*
X90404755Y-135397884D01*
X90194087Y-135713171D01*
X90048977Y-136063498D01*
X89975000Y-136435404D01*
X89975000Y-136814596D01*
X90048977Y-137186502D01*
X90194087Y-137536829D01*
X90404755Y-137852116D01*
X90447639Y-137895000D01*
X90404755Y-137937884D01*
X90194087Y-138253171D01*
X90048977Y-138603498D01*
X89975000Y-138975404D01*
X89975000Y-139354596D01*
X90048977Y-139726502D01*
X90194087Y-140076829D01*
X90404755Y-140392116D01*
X90447639Y-140435000D01*
X90404755Y-140477884D01*
X90194087Y-140793171D01*
X90048977Y-141143498D01*
X89975000Y-141515404D01*
X89975000Y-141894596D01*
X90048977Y-142266502D01*
X90194087Y-142616829D01*
X90252531Y-142704297D01*
X90160071Y-142816960D01*
X90055607Y-143012398D01*
X89991278Y-143224462D01*
X89969557Y-143445000D01*
X89969557Y-145045000D01*
X89991278Y-145265538D01*
X90055607Y-145477602D01*
X90160071Y-145673040D01*
X90300656Y-145844344D01*
X90471960Y-145984929D01*
X90667398Y-146089393D01*
X90879462Y-146153722D01*
X91100000Y-146175443D01*
X92700000Y-146175443D01*
X92920538Y-146153722D01*
X93132602Y-146089393D01*
X93328040Y-145984929D01*
X93499344Y-145844344D01*
X93639929Y-145673040D01*
X93744393Y-145477602D01*
X93808722Y-145265538D01*
X93830443Y-145045000D01*
X93830443Y-143445000D01*
X93808722Y-143224462D01*
X93744393Y-143012398D01*
X93639929Y-142816960D01*
X93547469Y-142704297D01*
X93605913Y-142616829D01*
X93751023Y-142266502D01*
X93825000Y-141894596D01*
X93825000Y-141515404D01*
X93751023Y-141143498D01*
X93605913Y-140793171D01*
X93395245Y-140477884D01*
X93352361Y-140435000D01*
X93395245Y-140392116D01*
X93605913Y-140076829D01*
X93751023Y-139726502D01*
X93825000Y-139354596D01*
X93825000Y-138975404D01*
X93751023Y-138603498D01*
X93605913Y-138253171D01*
X93395245Y-137937884D01*
X93352361Y-137895000D01*
X93395245Y-137852116D01*
X93605913Y-137536829D01*
X93751023Y-137186502D01*
X93825000Y-136814596D01*
X93825000Y-136435404D01*
X93751023Y-136063498D01*
X93605913Y-135713171D01*
X93395245Y-135397884D01*
X93352361Y-135355000D01*
X93395245Y-135312116D01*
X93605913Y-134996829D01*
X93751023Y-134646502D01*
X93825000Y-134274596D01*
X93825000Y-133895404D01*
X93751023Y-133523498D01*
X93605913Y-133173171D01*
X93395245Y-132857884D01*
X93225000Y-132687639D01*
X93225000Y-130165005D01*
X93328040Y-130109929D01*
X93499344Y-129969344D01*
X93639929Y-129798040D01*
X93744393Y-129602602D01*
X93808722Y-129390538D01*
X93830443Y-129170000D01*
X93830443Y-127570000D01*
X93808722Y-127349462D01*
X93744393Y-127137398D01*
X93639929Y-126941960D01*
X93547469Y-126829297D01*
X93605913Y-126741829D01*
X93751023Y-126391502D01*
X93825000Y-126019596D01*
X93825000Y-125640404D01*
X93751023Y-125268498D01*
X93605913Y-124918171D01*
X93395245Y-124602884D01*
X93352361Y-124560000D01*
X93395245Y-124517116D01*
X93605913Y-124201829D01*
X93751023Y-123851502D01*
X93825000Y-123479596D01*
X93825000Y-123100404D01*
X93751023Y-122728498D01*
X93605913Y-122378171D01*
X93395245Y-122062884D01*
X93352361Y-122020000D01*
X93395245Y-121977116D01*
X93605913Y-121661829D01*
X93751023Y-121311502D01*
X93825000Y-120939596D01*
X93825000Y-120560404D01*
X93751023Y-120188498D01*
X93605913Y-119838171D01*
X93395245Y-119522884D01*
X93352361Y-119480000D01*
X93395245Y-119437116D01*
X93605913Y-119121829D01*
X93751023Y-118771502D01*
X93825000Y-118399596D01*
X93825000Y-118020404D01*
X93751023Y-117648498D01*
X93605913Y-117298171D01*
X93395245Y-116982884D01*
X93225000Y-116812639D01*
X93225000Y-114290005D01*
X93328040Y-114234929D01*
X93499344Y-114094344D01*
X93639929Y-113923040D01*
X93744393Y-113727602D01*
X93808722Y-113515538D01*
X93830443Y-113295000D01*
X93830443Y-111695000D01*
X93808722Y-111474462D01*
X93744393Y-111262398D01*
X93639929Y-111066960D01*
X93547469Y-110954297D01*
X93605913Y-110866829D01*
X93751023Y-110516502D01*
X93825000Y-110144596D01*
X93825000Y-109765404D01*
X93751023Y-109393498D01*
X93605913Y-109043171D01*
X93395245Y-108727884D01*
X93352361Y-108685000D01*
X93395245Y-108642116D01*
X93605913Y-108326829D01*
X93751023Y-107976502D01*
X93825000Y-107604596D01*
X93825000Y-107225404D01*
X93751023Y-106853498D01*
X93605913Y-106503171D01*
X93395245Y-106187884D01*
X93352361Y-106145000D01*
X93395245Y-106102116D01*
X93605913Y-105786829D01*
X93751023Y-105436502D01*
X93825000Y-105064596D01*
X93825000Y-104685404D01*
X93751023Y-104313498D01*
X93605913Y-103963171D01*
X93395245Y-103647884D01*
X93352361Y-103605000D01*
X93395245Y-103562116D01*
X93605913Y-103246829D01*
X93751023Y-102896502D01*
X93825000Y-102524596D01*
X93825000Y-102145404D01*
X93751023Y-101773498D01*
X93605913Y-101423171D01*
X93395245Y-101107884D01*
X93225000Y-100937639D01*
X93225000Y-98415005D01*
X93328040Y-98359929D01*
X93499344Y-98219344D01*
X93639929Y-98048040D01*
X93744393Y-97852602D01*
X93808722Y-97640538D01*
X93830443Y-97420000D01*
X93830443Y-95820000D01*
X93808722Y-95599462D01*
X93744393Y-95387398D01*
X93639929Y-95191960D01*
X93547469Y-95079297D01*
X93605913Y-94991829D01*
X93751023Y-94641502D01*
X93825000Y-94269596D01*
X93825000Y-93890404D01*
X93751023Y-93518498D01*
X93605913Y-93168171D01*
X93395245Y-92852884D01*
X93352361Y-92810000D01*
X93395245Y-92767116D01*
X93605913Y-92451829D01*
X93751023Y-92101502D01*
X93825000Y-91729596D01*
X93825000Y-91350404D01*
X93751023Y-90978498D01*
X93605913Y-90628171D01*
X93395245Y-90312884D01*
X93352361Y-90270000D01*
X93395245Y-90227116D01*
X93605913Y-89911829D01*
X93751023Y-89561502D01*
X93825000Y-89189596D01*
X93825000Y-88810404D01*
X93751023Y-88438498D01*
X93605913Y-88088171D01*
X93395245Y-87772884D01*
X93352361Y-87730000D01*
X93395245Y-87687116D01*
X93605913Y-87371829D01*
X93751023Y-87021502D01*
X93825000Y-86649596D01*
X93825000Y-86270404D01*
X93751023Y-85898498D01*
X93605913Y-85548171D01*
X93395245Y-85232884D01*
X93225000Y-85062639D01*
X93225000Y-84468832D01*
X94390883Y-83302949D01*
X94441450Y-83261450D01*
X94607028Y-83059692D01*
X94730063Y-82829509D01*
X94778216Y-82670771D01*
X94805828Y-82579746D01*
X94831411Y-82320000D01*
X94825000Y-82254909D01*
X94825000Y-82141187D01*
X95045848Y-81993621D01*
X95383621Y-81655848D01*
X95649008Y-81258668D01*
X95709920Y-81111611D01*
X96795000Y-81111611D01*
X96795000Y-81648389D01*
X96899720Y-82174853D01*
X97105136Y-82670771D01*
X97403354Y-83117086D01*
X97782914Y-83496646D01*
X98229229Y-83794864D01*
X98725147Y-84000280D01*
X99251611Y-84105000D01*
X99788389Y-84105000D01*
X100314853Y-84000280D01*
X100810771Y-83794864D01*
X101257086Y-83496646D01*
X101636646Y-83117086D01*
X101934864Y-82670771D01*
X102140280Y-82174853D01*
X102245000Y-81648389D01*
X102245000Y-81111611D01*
X102140280Y-80585147D01*
X101934864Y-80089229D01*
X101636646Y-79642914D01*
X101257086Y-79263354D01*
X100810771Y-78965136D01*
X100314853Y-78759720D01*
X99788389Y-78655000D01*
X99251611Y-78655000D01*
X98725147Y-78759720D01*
X98229229Y-78965136D01*
X97782914Y-79263354D01*
X97403354Y-79642914D01*
X97105136Y-80089229D01*
X96899720Y-80585147D01*
X96795000Y-81111611D01*
X95709920Y-81111611D01*
X95831809Y-80817347D01*
X95925000Y-80348842D01*
X95925000Y-79871158D01*
X95831809Y-79402653D01*
X95649008Y-78961332D01*
X95440983Y-78650000D01*
X102350001Y-78650000D01*
X102350000Y-151350000D01*
X100115167Y-151350000D01*
X100314853Y-151310280D01*
X100810771Y-151104864D01*
X101257086Y-150806646D01*
X101636646Y-150427086D01*
X101934864Y-149980771D01*
X102140280Y-149484853D01*
X102245000Y-148958389D01*
X102245000Y-148421611D01*
X102140280Y-147895147D01*
X101934864Y-147399229D01*
X101636646Y-146952914D01*
X101257086Y-146573354D01*
X100810771Y-146275136D01*
X100314853Y-146069720D01*
X99788389Y-145965000D01*
X99251611Y-145965000D01*
X98725147Y-146069720D01*
X98229229Y-146275136D01*
X97782914Y-146573354D01*
X97403354Y-146952914D01*
X97105136Y-147399229D01*
X96899720Y-147895147D01*
X96795000Y-148421611D01*
X96795000Y-148958389D01*
X96899720Y-149484853D01*
X97105136Y-149980771D01*
X97403354Y-150427086D01*
X97782914Y-150806646D01*
X98229229Y-151104864D01*
X98725147Y-151310280D01*
X98924833Y-151350000D01*
X70905167Y-151350000D01*
X71104853Y-151310280D01*
X71600771Y-151104864D01*
X72047086Y-150806646D01*
X72426646Y-150427086D01*
X72724864Y-149980771D01*
X72930280Y-149484853D01*
X73035000Y-148958389D01*
X73035000Y-148421611D01*
X72930280Y-147895147D01*
X72724864Y-147399229D01*
X72426646Y-146952914D01*
X72047086Y-146573354D01*
X71600771Y-146275136D01*
X71104853Y-146069720D01*
X70578389Y-145965000D01*
X70041611Y-145965000D01*
X69515147Y-146069720D01*
X69019229Y-146275136D01*
X68572914Y-146573354D01*
X68193354Y-146952914D01*
X67895136Y-147399229D01*
X67689720Y-147895147D01*
X67650000Y-148094833D01*
X67650000Y-81975167D01*
X67689720Y-82174853D01*
X67895136Y-82670771D01*
X68193354Y-83117086D01*
X68572914Y-83496646D01*
X69019229Y-83794864D01*
X69515147Y-84000280D01*
X70041611Y-84105000D01*
X70578389Y-84105000D01*
X71104853Y-84000280D01*
X71600771Y-83794864D01*
X72047086Y-83496646D01*
X72426646Y-83117086D01*
X72724864Y-82670771D01*
X72930280Y-82174853D01*
X73035000Y-81648389D01*
X73035000Y-81452559D01*
X74834218Y-81452559D01*
X74966542Y-81745095D01*
X75305391Y-81915295D01*
X75670934Y-82016118D01*
X76049122Y-82043690D01*
X76425422Y-81996951D01*
X76785374Y-81877698D01*
X77033458Y-81745095D01*
X77165782Y-81452559D01*
X76000000Y-80286777D01*
X74834218Y-81452559D01*
X73035000Y-81452559D01*
X73035000Y-81111611D01*
X72930280Y-80585147D01*
X72753815Y-80159122D01*
X74066310Y-80159122D01*
X74113049Y-80535422D01*
X74232302Y-80895374D01*
X74364905Y-81143458D01*
X74657441Y-81275782D01*
X75823223Y-80110000D01*
X76176777Y-80110000D01*
X77342559Y-81275782D01*
X77635095Y-81143458D01*
X77805295Y-80804609D01*
X77906118Y-80439066D01*
X77933690Y-80060878D01*
X77886951Y-79684578D01*
X77767698Y-79324626D01*
X77635095Y-79076542D01*
X77342559Y-78944218D01*
X76176777Y-80110000D01*
X75823223Y-80110000D01*
X74657441Y-78944218D01*
X74364905Y-79076542D01*
X74194705Y-79415391D01*
X74093882Y-79780934D01*
X74066310Y-80159122D01*
X72753815Y-80159122D01*
X72724864Y-80089229D01*
X72426646Y-79642914D01*
X72047086Y-79263354D01*
X71600771Y-78965136D01*
X71104853Y-78759720D01*
X70578389Y-78655000D01*
X70041611Y-78655000D01*
X69515147Y-78759720D01*
X69019229Y-78965136D01*
X68572914Y-79263354D01*
X68193354Y-79642914D01*
X67895136Y-80089229D01*
X67689720Y-80585147D01*
X67650000Y-80784833D01*
X67650000Y-78650000D01*
X74887341Y-78650000D01*
X74834218Y-78767441D01*
%TA.AperFunction,Conductor*%
D17*
G36*
X74834218Y-78767441D02*
G01*
X76000000Y-79933223D01*
X77165782Y-78767441D01*
X77112659Y-78650000D01*
X79704017Y-78650000D01*
X79495992Y-78961332D01*
X79313191Y-79402653D01*
X79220000Y-79871158D01*
X79220000Y-80348842D01*
X79287579Y-80688588D01*
X72539335Y-87436833D01*
X72180573Y-87508195D01*
X71762910Y-87681197D01*
X71387022Y-87932357D01*
X71067357Y-88252022D01*
X70816197Y-88627910D01*
X70643195Y-89045573D01*
X70555000Y-89488962D01*
X70555000Y-89941038D01*
X70643195Y-90384427D01*
X70816197Y-90802090D01*
X71067357Y-91177978D01*
X71387022Y-91497643D01*
X71762910Y-91748803D01*
X71803962Y-91765807D01*
X71369757Y-91945661D01*
X70857928Y-92287654D01*
X70422654Y-92722928D01*
X70080661Y-93234757D01*
X69845092Y-93803471D01*
X69725000Y-94407214D01*
X69725000Y-95022786D01*
X69845092Y-95626529D01*
X70080661Y-96195243D01*
X70422654Y-96707072D01*
X70857928Y-97142346D01*
X71369757Y-97484339D01*
X71938471Y-97719908D01*
X72542214Y-97840000D01*
X73157786Y-97840000D01*
X73761529Y-97719908D01*
X74330243Y-97484339D01*
X74700000Y-97237275D01*
X74700000Y-97504331D01*
X74680573Y-97508195D01*
X74262910Y-97681197D01*
X73887022Y-97932357D01*
X73567357Y-98252022D01*
X73316197Y-98627910D01*
X73143195Y-99045573D01*
X73055000Y-99488962D01*
X73055000Y-99941038D01*
X73143195Y-100384427D01*
X73316197Y-100802090D01*
X73326817Y-100817985D01*
X72612626Y-100103794D01*
X72645000Y-99941038D01*
X72645000Y-99488962D01*
X72556805Y-99045573D01*
X72383803Y-98627910D01*
X72132643Y-98252022D01*
X71812978Y-97932357D01*
X71437090Y-97681197D01*
X71019427Y-97508195D01*
X70576038Y-97420000D01*
X70123962Y-97420000D01*
X69680573Y-97508195D01*
X69262910Y-97681197D01*
X68887022Y-97932357D01*
X68567357Y-98252022D01*
X68316197Y-98627910D01*
X68143195Y-99045573D01*
X68055000Y-99488962D01*
X68055000Y-99941038D01*
X68143195Y-100384427D01*
X68316197Y-100802090D01*
X68567357Y-101177978D01*
X68887022Y-101497643D01*
X69262910Y-101748803D01*
X69680573Y-101921805D01*
X70123962Y-102010000D01*
X70576038Y-102010000D01*
X70738794Y-101977626D01*
X71525001Y-102763834D01*
X71525000Y-107525163D01*
X71387022Y-107617357D01*
X71067357Y-107937022D01*
X70816197Y-108312910D01*
X70643195Y-108730573D01*
X70555000Y-109173962D01*
X70555000Y-109626038D01*
X70643195Y-110069427D01*
X70816197Y-110487090D01*
X71067357Y-110862978D01*
X71387022Y-111182643D01*
X71762910Y-111433803D01*
X71803962Y-111450807D01*
X71369757Y-111630661D01*
X70857928Y-111972654D01*
X70422654Y-112407928D01*
X70080661Y-112919757D01*
X69845092Y-113488471D01*
X69725000Y-114092214D01*
X69725000Y-114707786D01*
X69845092Y-115311529D01*
X70080661Y-115880243D01*
X70422654Y-116392072D01*
X70857928Y-116827346D01*
X71369757Y-117169339D01*
X71938471Y-117404908D01*
X72542214Y-117525000D01*
X73157786Y-117525000D01*
X73761529Y-117404908D01*
X74330243Y-117169339D01*
X74700000Y-116922275D01*
X74700000Y-117189331D01*
X74680573Y-117193195D01*
X74262910Y-117366197D01*
X73887022Y-117617357D01*
X73567357Y-117937022D01*
X73316197Y-118312910D01*
X73143195Y-118730573D01*
X73055000Y-119173962D01*
X73055000Y-119626038D01*
X73143195Y-120069427D01*
X73316197Y-120487090D01*
X73326817Y-120502985D01*
X72612626Y-119788794D01*
X72645000Y-119626038D01*
X72645000Y-119173962D01*
X72556805Y-118730573D01*
X72383803Y-118312910D01*
X72132643Y-117937022D01*
X71812978Y-117617357D01*
X71437090Y-117366197D01*
X71019427Y-117193195D01*
X70576038Y-117105000D01*
X70123962Y-117105000D01*
X69680573Y-117193195D01*
X69262910Y-117366197D01*
X68887022Y-117617357D01*
X68567357Y-117937022D01*
X68316197Y-118312910D01*
X68143195Y-118730573D01*
X68055000Y-119173962D01*
X68055000Y-119626038D01*
X68143195Y-120069427D01*
X68316197Y-120487090D01*
X68567357Y-120862978D01*
X68887022Y-121182643D01*
X69262910Y-121433803D01*
X69680573Y-121606805D01*
X70123962Y-121695000D01*
X70576038Y-121695000D01*
X70738794Y-121662626D01*
X71525001Y-122448834D01*
X71525000Y-127210163D01*
X71387022Y-127302357D01*
X71067357Y-127622022D01*
X70816197Y-127997910D01*
X70643195Y-128415573D01*
X70555000Y-128858962D01*
X70555000Y-129311038D01*
X70643195Y-129754427D01*
X70816197Y-130172090D01*
X71067357Y-130547978D01*
X71387022Y-130867643D01*
X71762910Y-131118803D01*
X71803962Y-131135807D01*
X71369757Y-131315661D01*
X70857928Y-131657654D01*
X70422654Y-132092928D01*
X70080661Y-132604757D01*
X69845092Y-133173471D01*
X69725000Y-133777214D01*
X69725000Y-134392786D01*
X69845092Y-134996529D01*
X70080661Y-135565243D01*
X70422654Y-136077072D01*
X70857928Y-136512346D01*
X71369757Y-136854339D01*
X71938471Y-137089908D01*
X72542214Y-137210000D01*
X73157786Y-137210000D01*
X73761529Y-137089908D01*
X74330243Y-136854339D01*
X74700000Y-136607275D01*
X74700000Y-136874331D01*
X74680573Y-136878195D01*
X74262910Y-137051197D01*
X73887022Y-137302357D01*
X73567357Y-137622022D01*
X73316197Y-137997910D01*
X73143195Y-138415573D01*
X73055000Y-138858962D01*
X73055000Y-139311038D01*
X73143195Y-139754427D01*
X73316197Y-140172090D01*
X73326818Y-140187985D01*
X72612626Y-139473794D01*
X72645000Y-139311038D01*
X72645000Y-138858962D01*
X72556805Y-138415573D01*
X72383803Y-137997910D01*
X72132643Y-137622022D01*
X71812978Y-137302357D01*
X71437090Y-137051197D01*
X71019427Y-136878195D01*
X70576038Y-136790000D01*
X70123962Y-136790000D01*
X69680573Y-136878195D01*
X69262910Y-137051197D01*
X68887022Y-137302357D01*
X68567357Y-137622022D01*
X68316197Y-137997910D01*
X68143195Y-138415573D01*
X68055000Y-138858962D01*
X68055000Y-139311038D01*
X68143195Y-139754427D01*
X68316197Y-140172090D01*
X68567357Y-140547978D01*
X68887022Y-140867643D01*
X69262910Y-141118803D01*
X69680573Y-141291805D01*
X70123962Y-141380000D01*
X70576038Y-141380000D01*
X70738794Y-141347626D01*
X71987055Y-142595888D01*
X72028550Y-142646450D01*
X72230308Y-142812028D01*
X72432310Y-142920000D01*
X72460491Y-142935063D01*
X72710254Y-143010828D01*
X72970000Y-143036411D01*
X73035091Y-143030000D01*
X77420000Y-143030000D01*
X77420000Y-143110548D01*
X77307597Y-143247512D01*
X77181185Y-143484011D01*
X77103342Y-143740628D01*
X77077057Y-144007500D01*
X77077057Y-144482500D01*
X77103342Y-144749372D01*
X77181185Y-145005989D01*
X77307597Y-145242488D01*
X77477718Y-145449782D01*
X77685012Y-145619903D01*
X77921511Y-145746315D01*
X78178128Y-145824158D01*
X78445000Y-145850443D01*
X79045000Y-145850443D01*
X79311872Y-145824158D01*
X79568489Y-145746315D01*
X79607500Y-145725463D01*
X79646511Y-145746315D01*
X79903128Y-145824158D01*
X80170000Y-145850443D01*
X80770000Y-145850443D01*
X81036872Y-145824158D01*
X81293489Y-145746315D01*
X81529988Y-145619903D01*
X81590795Y-145570000D01*
X82882639Y-145570000D01*
X83052884Y-145740245D01*
X83368171Y-145950913D01*
X83718498Y-146096023D01*
X84090404Y-146170000D01*
X84469596Y-146170000D01*
X84841502Y-146096023D01*
X85191829Y-145950913D01*
X85507116Y-145740245D01*
X85775245Y-145472116D01*
X85985913Y-145156829D01*
X86131023Y-144806502D01*
X86205000Y-144434596D01*
X86205000Y-144055404D01*
X86131023Y-143683498D01*
X85985913Y-143333171D01*
X85775245Y-143017884D01*
X85732361Y-142975000D01*
X85775245Y-142932116D01*
X85985913Y-142616829D01*
X86131023Y-142266502D01*
X86205000Y-141894596D01*
X86205000Y-141515404D01*
X86131023Y-141143498D01*
X85985913Y-140793171D01*
X85775245Y-140477884D01*
X85732361Y-140435000D01*
X85775245Y-140392116D01*
X85985913Y-140076829D01*
X86131023Y-139726502D01*
X86205000Y-139354596D01*
X86205000Y-138975404D01*
X86131023Y-138603498D01*
X85985913Y-138253171D01*
X85775245Y-137937884D01*
X85732361Y-137895000D01*
X85775245Y-137852116D01*
X85985913Y-137536829D01*
X86131023Y-137186502D01*
X86205000Y-136814596D01*
X86205000Y-136435404D01*
X86131023Y-136063498D01*
X85985913Y-135713171D01*
X85775245Y-135397884D01*
X85732361Y-135355000D01*
X85775245Y-135312116D01*
X85985913Y-134996829D01*
X86131023Y-134646502D01*
X86205000Y-134274596D01*
X86205000Y-133895404D01*
X86131023Y-133523498D01*
X85985913Y-133173171D01*
X85775245Y-132857884D01*
X85507116Y-132589755D01*
X85191829Y-132379087D01*
X84841502Y-132233977D01*
X84469596Y-132160000D01*
X84090404Y-132160000D01*
X83718498Y-132233977D01*
X83368171Y-132379087D01*
X83052884Y-132589755D01*
X82882639Y-132760000D01*
X81590795Y-132760000D01*
X81529988Y-132710097D01*
X81293489Y-132583685D01*
X81036872Y-132505842D01*
X80770000Y-132479557D01*
X80170000Y-132479557D01*
X80070000Y-132489406D01*
X80070000Y-129965594D01*
X80170000Y-129975443D01*
X80770000Y-129975443D01*
X81036872Y-129949158D01*
X81293489Y-129871315D01*
X81529988Y-129744903D01*
X81590795Y-129695000D01*
X82882639Y-129695000D01*
X83052884Y-129865245D01*
X83368171Y-130075913D01*
X83718498Y-130221023D01*
X84090404Y-130295000D01*
X84469596Y-130295000D01*
X84841502Y-130221023D01*
X85191829Y-130075913D01*
X85507116Y-129865245D01*
X85775245Y-129597116D01*
X85985913Y-129281829D01*
X86131023Y-128931502D01*
X86205000Y-128559596D01*
X86205000Y-128180404D01*
X86131023Y-127808498D01*
X85985913Y-127458171D01*
X85775245Y-127142884D01*
X85732361Y-127100000D01*
X85775245Y-127057116D01*
X85985913Y-126741829D01*
X86131023Y-126391502D01*
X86205000Y-126019596D01*
X86205000Y-125640404D01*
X86131023Y-125268498D01*
X85985913Y-124918171D01*
X85775245Y-124602884D01*
X85732361Y-124560000D01*
X85775245Y-124517116D01*
X85985913Y-124201829D01*
X86131023Y-123851502D01*
X86205000Y-123479596D01*
X86205000Y-123100404D01*
X86131023Y-122728498D01*
X85985913Y-122378171D01*
X85775245Y-122062884D01*
X85732361Y-122020000D01*
X85775245Y-121977116D01*
X85985913Y-121661829D01*
X86131023Y-121311502D01*
X86205000Y-120939596D01*
X86205000Y-120560404D01*
X86131023Y-120188498D01*
X85985913Y-119838171D01*
X85775245Y-119522884D01*
X85732361Y-119480000D01*
X85775245Y-119437116D01*
X85985913Y-119121829D01*
X86131023Y-118771502D01*
X86205000Y-118399596D01*
X86205000Y-118020404D01*
X86131023Y-117648498D01*
X85985913Y-117298171D01*
X85775245Y-116982884D01*
X85507116Y-116714755D01*
X85191829Y-116504087D01*
X84841502Y-116358977D01*
X84469596Y-116285000D01*
X84090404Y-116285000D01*
X83718498Y-116358977D01*
X83368171Y-116504087D01*
X83052884Y-116714755D01*
X82882639Y-116885000D01*
X81590795Y-116885000D01*
X81529988Y-116835097D01*
X81293489Y-116708685D01*
X81036872Y-116630842D01*
X80770000Y-116604557D01*
X80170000Y-116604557D01*
X80070000Y-116614406D01*
X80070000Y-114090594D01*
X80170000Y-114100443D01*
X80770000Y-114100443D01*
X81036872Y-114074158D01*
X81293489Y-113996315D01*
X81529988Y-113869903D01*
X81590795Y-113820000D01*
X82882639Y-113820000D01*
X83052884Y-113990245D01*
X83368171Y-114200913D01*
X83718498Y-114346023D01*
X84090404Y-114420000D01*
X84469596Y-114420000D01*
X84841502Y-114346023D01*
X85191829Y-114200913D01*
X85507116Y-113990245D01*
X85775245Y-113722116D01*
X85985913Y-113406829D01*
X86131023Y-113056502D01*
X86205000Y-112684596D01*
X86205000Y-112305404D01*
X86131023Y-111933498D01*
X85985913Y-111583171D01*
X85775245Y-111267884D01*
X85732361Y-111225000D01*
X85775245Y-111182116D01*
X85985913Y-110866829D01*
X86131023Y-110516502D01*
X86205000Y-110144596D01*
X86205000Y-109765404D01*
X86131023Y-109393498D01*
X85985913Y-109043171D01*
X85775245Y-108727884D01*
X85732361Y-108685000D01*
X85775245Y-108642116D01*
X85985913Y-108326829D01*
X86131023Y-107976502D01*
X86205000Y-107604596D01*
X86205000Y-107225404D01*
X86131023Y-106853498D01*
X85985913Y-106503171D01*
X85775245Y-106187884D01*
X85732361Y-106145000D01*
X85775245Y-106102116D01*
X85985913Y-105786829D01*
X86131023Y-105436502D01*
X86205000Y-105064596D01*
X86205000Y-104685404D01*
X86131023Y-104313498D01*
X85985913Y-103963171D01*
X85775245Y-103647884D01*
X85732361Y-103605000D01*
X85775245Y-103562116D01*
X85985913Y-103246829D01*
X86131023Y-102896502D01*
X86205000Y-102524596D01*
X86205000Y-102145404D01*
X86131023Y-101773498D01*
X85985913Y-101423171D01*
X85775245Y-101107884D01*
X85507116Y-100839755D01*
X85191829Y-100629087D01*
X84841502Y-100483977D01*
X84469596Y-100410000D01*
X84090404Y-100410000D01*
X83718498Y-100483977D01*
X83368171Y-100629087D01*
X83052884Y-100839755D01*
X82882639Y-101010000D01*
X81590795Y-101010000D01*
X81529988Y-100960097D01*
X81293489Y-100833685D01*
X81036872Y-100755842D01*
X80770000Y-100729557D01*
X80170000Y-100729557D01*
X80070000Y-100739406D01*
X80070000Y-98215594D01*
X80170000Y-98225443D01*
X80770000Y-98225443D01*
X81036872Y-98199158D01*
X81293489Y-98121315D01*
X81529988Y-97994903D01*
X81590795Y-97945000D01*
X82882639Y-97945000D01*
X83052884Y-98115245D01*
X83368171Y-98325913D01*
X83718498Y-98471023D01*
X84090404Y-98545000D01*
X84469596Y-98545000D01*
X84841502Y-98471023D01*
X85191829Y-98325913D01*
X85507116Y-98115245D01*
X85775245Y-97847116D01*
X85985913Y-97531829D01*
X86131023Y-97181502D01*
X86205000Y-96809596D01*
X86205000Y-96430404D01*
X86131023Y-96058498D01*
X85985913Y-95708171D01*
X85775245Y-95392884D01*
X85732361Y-95350000D01*
X85775245Y-95307116D01*
X85985913Y-94991829D01*
X86131023Y-94641502D01*
X86205000Y-94269596D01*
X86205000Y-93890404D01*
X86131023Y-93518498D01*
X85985913Y-93168171D01*
X85775245Y-92852884D01*
X85732361Y-92810000D01*
X85775245Y-92767116D01*
X85985913Y-92451829D01*
X86131023Y-92101502D01*
X86205000Y-91729596D01*
X86205000Y-91350404D01*
X86131023Y-90978498D01*
X85985913Y-90628171D01*
X85775245Y-90312884D01*
X85732361Y-90270000D01*
X85775245Y-90227116D01*
X85985913Y-89911829D01*
X86131023Y-89561502D01*
X86205000Y-89189596D01*
X86205000Y-88810404D01*
X86131023Y-88438498D01*
X85985913Y-88088171D01*
X85775245Y-87772884D01*
X85732361Y-87730000D01*
X85775245Y-87687116D01*
X85985913Y-87371829D01*
X86131023Y-87021502D01*
X86205000Y-86649596D01*
X86205000Y-86270404D01*
X86131023Y-85898498D01*
X85985913Y-85548171D01*
X85775245Y-85232884D01*
X85507116Y-84964755D01*
X85191829Y-84754087D01*
X84865086Y-84618746D01*
X87000651Y-82483182D01*
X87261158Y-82535000D01*
X87738842Y-82535000D01*
X88207347Y-82441809D01*
X88648668Y-82259008D01*
X89045848Y-81993621D01*
X89383621Y-81655848D01*
X89649008Y-81258668D01*
X89831809Y-80817347D01*
X89925000Y-80348842D01*
X89925000Y-79871158D01*
X89831809Y-79402653D01*
X89649008Y-78961332D01*
X89440983Y-78650000D01*
X91559017Y-78650000D01*
X91350992Y-78961332D01*
X91168191Y-79402653D01*
X91075000Y-79871158D01*
X91075000Y-80348842D01*
X91168191Y-80817347D01*
X91350992Y-81258668D01*
X91616379Y-81655848D01*
X91953350Y-81992819D01*
X91009113Y-82937055D01*
X90958551Y-82978550D01*
X90917058Y-83029110D01*
X90792973Y-83180308D01*
X90669937Y-83410492D01*
X90594172Y-83660255D01*
X90568589Y-83920000D01*
X90575001Y-83985101D01*
X90575001Y-85062638D01*
X90404755Y-85232884D01*
X90194087Y-85548171D01*
X90048977Y-85898498D01*
X89975000Y-86270404D01*
X89975000Y-86649596D01*
X90048977Y-87021502D01*
X90194087Y-87371829D01*
X90404755Y-87687116D01*
X90447639Y-87730000D01*
X90404755Y-87772884D01*
X90194087Y-88088171D01*
X90048977Y-88438498D01*
X89975000Y-88810404D01*
X89975000Y-89189596D01*
X90048977Y-89561502D01*
X90194087Y-89911829D01*
X90404755Y-90227116D01*
X90447639Y-90270000D01*
X90404755Y-90312884D01*
X90194087Y-90628171D01*
X90048977Y-90978498D01*
X89975000Y-91350404D01*
X89975000Y-91729596D01*
X90048977Y-92101502D01*
X90194087Y-92451829D01*
X90404755Y-92767116D01*
X90447639Y-92810000D01*
X90404755Y-92852884D01*
X90194087Y-93168171D01*
X90048977Y-93518498D01*
X89975000Y-93890404D01*
X89975000Y-94269596D01*
X90048977Y-94641502D01*
X90194087Y-94991829D01*
X90252531Y-95079297D01*
X90160071Y-95191960D01*
X90055607Y-95387398D01*
X89991278Y-95599462D01*
X89969557Y-95820000D01*
X89969557Y-97420000D01*
X89991278Y-97640538D01*
X90055607Y-97852602D01*
X90160071Y-98048040D01*
X90300656Y-98219344D01*
X90471960Y-98359929D01*
X90575001Y-98415006D01*
X90575001Y-100937638D01*
X90404755Y-101107884D01*
X90194087Y-101423171D01*
X90048977Y-101773498D01*
X89975000Y-102145404D01*
X89975000Y-102524596D01*
X90048977Y-102896502D01*
X90194087Y-103246829D01*
X90404755Y-103562116D01*
X90447639Y-103605000D01*
X90404755Y-103647884D01*
X90194087Y-103963171D01*
X90048977Y-104313498D01*
X89975000Y-104685404D01*
X89975000Y-105064596D01*
X90048977Y-105436502D01*
X90194087Y-105786829D01*
X90404755Y-106102116D01*
X90447639Y-106145000D01*
X90404755Y-106187884D01*
X90194087Y-106503171D01*
X90048977Y-106853498D01*
X89975000Y-107225404D01*
X89975000Y-107604596D01*
X90048977Y-107976502D01*
X90194087Y-108326829D01*
X90404755Y-108642116D01*
X90447639Y-108685000D01*
X90404755Y-108727884D01*
X90194087Y-109043171D01*
X90048977Y-109393498D01*
X89975000Y-109765404D01*
X89975000Y-110144596D01*
X90048977Y-110516502D01*
X90194087Y-110866829D01*
X90252531Y-110954297D01*
X90160071Y-111066960D01*
X90055607Y-111262398D01*
X89991278Y-111474462D01*
X89969557Y-111695000D01*
X89969557Y-113295000D01*
X89991278Y-113515538D01*
X90055607Y-113727602D01*
X90160071Y-113923040D01*
X90300656Y-114094344D01*
X90471960Y-114234929D01*
X90575001Y-114290005D01*
X90575000Y-116812639D01*
X90404755Y-116982884D01*
X90194087Y-117298171D01*
X90048977Y-117648498D01*
X89975000Y-118020404D01*
X89975000Y-118399596D01*
X90048977Y-118771502D01*
X90194087Y-119121829D01*
X90404755Y-119437116D01*
X90447639Y-119480000D01*
X90404755Y-119522884D01*
X90194087Y-119838171D01*
X90048977Y-120188498D01*
X89975000Y-120560404D01*
X89975000Y-120939596D01*
X90048977Y-121311502D01*
X90194087Y-121661829D01*
X90404755Y-121977116D01*
X90447639Y-122020000D01*
X90404755Y-122062884D01*
X90194087Y-122378171D01*
X90048977Y-122728498D01*
X89975000Y-123100404D01*
X89975000Y-123479596D01*
X90048977Y-123851502D01*
X90194087Y-124201829D01*
X90404755Y-124517116D01*
X90447639Y-124560000D01*
X90404755Y-124602884D01*
X90194087Y-124918171D01*
X90048977Y-125268498D01*
X89975000Y-125640404D01*
X89975000Y-126019596D01*
X90048977Y-126391502D01*
X90194087Y-126741829D01*
X90252531Y-126829297D01*
X90160071Y-126941960D01*
X90055607Y-127137398D01*
X89991278Y-127349462D01*
X89969557Y-127570000D01*
X89969557Y-129170000D01*
X89991278Y-129390538D01*
X90055607Y-129602602D01*
X90160071Y-129798040D01*
X90300656Y-129969344D01*
X90471960Y-130109929D01*
X90575000Y-130165005D01*
X90575000Y-132687639D01*
X90404755Y-132857884D01*
X90194087Y-133173171D01*
X90048977Y-133523498D01*
X89975000Y-133895404D01*
X89975000Y-134274596D01*
X90048977Y-134646502D01*
X90194087Y-134996829D01*
X90404755Y-135312116D01*
X90447639Y-135355000D01*
X90404755Y-135397884D01*
X90194087Y-135713171D01*
X90048977Y-136063498D01*
X89975000Y-136435404D01*
X89975000Y-136814596D01*
X90048977Y-137186502D01*
X90194087Y-137536829D01*
X90404755Y-137852116D01*
X90447639Y-137895000D01*
X90404755Y-137937884D01*
X90194087Y-138253171D01*
X90048977Y-138603498D01*
X89975000Y-138975404D01*
X89975000Y-139354596D01*
X90048977Y-139726502D01*
X90194087Y-140076829D01*
X90404755Y-140392116D01*
X90447639Y-140435000D01*
X90404755Y-140477884D01*
X90194087Y-140793171D01*
X90048977Y-141143498D01*
X89975000Y-141515404D01*
X89975000Y-141894596D01*
X90048977Y-142266502D01*
X90194087Y-142616829D01*
X90252531Y-142704297D01*
X90160071Y-142816960D01*
X90055607Y-143012398D01*
X89991278Y-143224462D01*
X89969557Y-143445000D01*
X89969557Y-145045000D01*
X89991278Y-145265538D01*
X90055607Y-145477602D01*
X90160071Y-145673040D01*
X90300656Y-145844344D01*
X90471960Y-145984929D01*
X90667398Y-146089393D01*
X90879462Y-146153722D01*
X91100000Y-146175443D01*
X92700000Y-146175443D01*
X92920538Y-146153722D01*
X93132602Y-146089393D01*
X93328040Y-145984929D01*
X93499344Y-145844344D01*
X93639929Y-145673040D01*
X93744393Y-145477602D01*
X93808722Y-145265538D01*
X93830443Y-145045000D01*
X93830443Y-143445000D01*
X93808722Y-143224462D01*
X93744393Y-143012398D01*
X93639929Y-142816960D01*
X93547469Y-142704297D01*
X93605913Y-142616829D01*
X93751023Y-142266502D01*
X93825000Y-141894596D01*
X93825000Y-141515404D01*
X93751023Y-141143498D01*
X93605913Y-140793171D01*
X93395245Y-140477884D01*
X93352361Y-140435000D01*
X93395245Y-140392116D01*
X93605913Y-140076829D01*
X93751023Y-139726502D01*
X93825000Y-139354596D01*
X93825000Y-138975404D01*
X93751023Y-138603498D01*
X93605913Y-138253171D01*
X93395245Y-137937884D01*
X93352361Y-137895000D01*
X93395245Y-137852116D01*
X93605913Y-137536829D01*
X93751023Y-137186502D01*
X93825000Y-136814596D01*
X93825000Y-136435404D01*
X93751023Y-136063498D01*
X93605913Y-135713171D01*
X93395245Y-135397884D01*
X93352361Y-135355000D01*
X93395245Y-135312116D01*
X93605913Y-134996829D01*
X93751023Y-134646502D01*
X93825000Y-134274596D01*
X93825000Y-133895404D01*
X93751023Y-133523498D01*
X93605913Y-133173171D01*
X93395245Y-132857884D01*
X93225000Y-132687639D01*
X93225000Y-130165005D01*
X93328040Y-130109929D01*
X93499344Y-129969344D01*
X93639929Y-129798040D01*
X93744393Y-129602602D01*
X93808722Y-129390538D01*
X93830443Y-129170000D01*
X93830443Y-127570000D01*
X93808722Y-127349462D01*
X93744393Y-127137398D01*
X93639929Y-126941960D01*
X93547469Y-126829297D01*
X93605913Y-126741829D01*
X93751023Y-126391502D01*
X93825000Y-126019596D01*
X93825000Y-125640404D01*
X93751023Y-125268498D01*
X93605913Y-124918171D01*
X93395245Y-124602884D01*
X93352361Y-124560000D01*
X93395245Y-124517116D01*
X93605913Y-124201829D01*
X93751023Y-123851502D01*
X93825000Y-123479596D01*
X93825000Y-123100404D01*
X93751023Y-122728498D01*
X93605913Y-122378171D01*
X93395245Y-122062884D01*
X93352361Y-122020000D01*
X93395245Y-121977116D01*
X93605913Y-121661829D01*
X93751023Y-121311502D01*
X93825000Y-120939596D01*
X93825000Y-120560404D01*
X93751023Y-120188498D01*
X93605913Y-119838171D01*
X93395245Y-119522884D01*
X93352361Y-119480000D01*
X93395245Y-119437116D01*
X93605913Y-119121829D01*
X93751023Y-118771502D01*
X93825000Y-118399596D01*
X93825000Y-118020404D01*
X93751023Y-117648498D01*
X93605913Y-117298171D01*
X93395245Y-116982884D01*
X93225000Y-116812639D01*
X93225000Y-114290005D01*
X93328040Y-114234929D01*
X93499344Y-114094344D01*
X93639929Y-113923040D01*
X93744393Y-113727602D01*
X93808722Y-113515538D01*
X93830443Y-113295000D01*
X93830443Y-111695000D01*
X93808722Y-111474462D01*
X93744393Y-111262398D01*
X93639929Y-111066960D01*
X93547469Y-110954297D01*
X93605913Y-110866829D01*
X93751023Y-110516502D01*
X93825000Y-110144596D01*
X93825000Y-109765404D01*
X93751023Y-109393498D01*
X93605913Y-109043171D01*
X93395245Y-108727884D01*
X93352361Y-108685000D01*
X93395245Y-108642116D01*
X93605913Y-108326829D01*
X93751023Y-107976502D01*
X93825000Y-107604596D01*
X93825000Y-107225404D01*
X93751023Y-106853498D01*
X93605913Y-106503171D01*
X93395245Y-106187884D01*
X93352361Y-106145000D01*
X93395245Y-106102116D01*
X93605913Y-105786829D01*
X93751023Y-105436502D01*
X93825000Y-105064596D01*
X93825000Y-104685404D01*
X93751023Y-104313498D01*
X93605913Y-103963171D01*
X93395245Y-103647884D01*
X93352361Y-103605000D01*
X93395245Y-103562116D01*
X93605913Y-103246829D01*
X93751023Y-102896502D01*
X93825000Y-102524596D01*
X93825000Y-102145404D01*
X93751023Y-101773498D01*
X93605913Y-101423171D01*
X93395245Y-101107884D01*
X93225000Y-100937639D01*
X93225000Y-98415005D01*
X93328040Y-98359929D01*
X93499344Y-98219344D01*
X93639929Y-98048040D01*
X93744393Y-97852602D01*
X93808722Y-97640538D01*
X93830443Y-97420000D01*
X93830443Y-95820000D01*
X93808722Y-95599462D01*
X93744393Y-95387398D01*
X93639929Y-95191960D01*
X93547469Y-95079297D01*
X93605913Y-94991829D01*
X93751023Y-94641502D01*
X93825000Y-94269596D01*
X93825000Y-93890404D01*
X93751023Y-93518498D01*
X93605913Y-93168171D01*
X93395245Y-92852884D01*
X93352361Y-92810000D01*
X93395245Y-92767116D01*
X93605913Y-92451829D01*
X93751023Y-92101502D01*
X93825000Y-91729596D01*
X93825000Y-91350404D01*
X93751023Y-90978498D01*
X93605913Y-90628171D01*
X93395245Y-90312884D01*
X93352361Y-90270000D01*
X93395245Y-90227116D01*
X93605913Y-89911829D01*
X93751023Y-89561502D01*
X93825000Y-89189596D01*
X93825000Y-88810404D01*
X93751023Y-88438498D01*
X93605913Y-88088171D01*
X93395245Y-87772884D01*
X93352361Y-87730000D01*
X93395245Y-87687116D01*
X93605913Y-87371829D01*
X93751023Y-87021502D01*
X93825000Y-86649596D01*
X93825000Y-86270404D01*
X93751023Y-85898498D01*
X93605913Y-85548171D01*
X93395245Y-85232884D01*
X93225000Y-85062639D01*
X93225000Y-84468832D01*
X94390883Y-83302949D01*
X94441450Y-83261450D01*
X94607028Y-83059692D01*
X94730063Y-82829509D01*
X94778216Y-82670771D01*
X94805828Y-82579746D01*
X94831411Y-82320000D01*
X94825000Y-82254909D01*
X94825000Y-82141187D01*
X95045848Y-81993621D01*
X95383621Y-81655848D01*
X95649008Y-81258668D01*
X95709920Y-81111611D01*
X96795000Y-81111611D01*
X96795000Y-81648389D01*
X96899720Y-82174853D01*
X97105136Y-82670771D01*
X97403354Y-83117086D01*
X97782914Y-83496646D01*
X98229229Y-83794864D01*
X98725147Y-84000280D01*
X99251611Y-84105000D01*
X99788389Y-84105000D01*
X100314853Y-84000280D01*
X100810771Y-83794864D01*
X101257086Y-83496646D01*
X101636646Y-83117086D01*
X101934864Y-82670771D01*
X102140280Y-82174853D01*
X102245000Y-81648389D01*
X102245000Y-81111611D01*
X102140280Y-80585147D01*
X101934864Y-80089229D01*
X101636646Y-79642914D01*
X101257086Y-79263354D01*
X100810771Y-78965136D01*
X100314853Y-78759720D01*
X99788389Y-78655000D01*
X99251611Y-78655000D01*
X98725147Y-78759720D01*
X98229229Y-78965136D01*
X97782914Y-79263354D01*
X97403354Y-79642914D01*
X97105136Y-80089229D01*
X96899720Y-80585147D01*
X96795000Y-81111611D01*
X95709920Y-81111611D01*
X95831809Y-80817347D01*
X95925000Y-80348842D01*
X95925000Y-79871158D01*
X95831809Y-79402653D01*
X95649008Y-78961332D01*
X95440983Y-78650000D01*
X102350001Y-78650000D01*
X102350000Y-151350000D01*
X100115167Y-151350000D01*
X100314853Y-151310280D01*
X100810771Y-151104864D01*
X101257086Y-150806646D01*
X101636646Y-150427086D01*
X101934864Y-149980771D01*
X102140280Y-149484853D01*
X102245000Y-148958389D01*
X102245000Y-148421611D01*
X102140280Y-147895147D01*
X101934864Y-147399229D01*
X101636646Y-146952914D01*
X101257086Y-146573354D01*
X100810771Y-146275136D01*
X100314853Y-146069720D01*
X99788389Y-145965000D01*
X99251611Y-145965000D01*
X98725147Y-146069720D01*
X98229229Y-146275136D01*
X97782914Y-146573354D01*
X97403354Y-146952914D01*
X97105136Y-147399229D01*
X96899720Y-147895147D01*
X96795000Y-148421611D01*
X96795000Y-148958389D01*
X96899720Y-149484853D01*
X97105136Y-149980771D01*
X97403354Y-150427086D01*
X97782914Y-150806646D01*
X98229229Y-151104864D01*
X98725147Y-151310280D01*
X98924833Y-151350000D01*
X70905167Y-151350000D01*
X71104853Y-151310280D01*
X71600771Y-151104864D01*
X72047086Y-150806646D01*
X72426646Y-150427086D01*
X72724864Y-149980771D01*
X72930280Y-149484853D01*
X73035000Y-148958389D01*
X73035000Y-148421611D01*
X72930280Y-147895147D01*
X72724864Y-147399229D01*
X72426646Y-146952914D01*
X72047086Y-146573354D01*
X71600771Y-146275136D01*
X71104853Y-146069720D01*
X70578389Y-145965000D01*
X70041611Y-145965000D01*
X69515147Y-146069720D01*
X69019229Y-146275136D01*
X68572914Y-146573354D01*
X68193354Y-146952914D01*
X67895136Y-147399229D01*
X67689720Y-147895147D01*
X67650000Y-148094833D01*
X67650000Y-81975167D01*
X67689720Y-82174853D01*
X67895136Y-82670771D01*
X68193354Y-83117086D01*
X68572914Y-83496646D01*
X69019229Y-83794864D01*
X69515147Y-84000280D01*
X70041611Y-84105000D01*
X70578389Y-84105000D01*
X71104853Y-84000280D01*
X71600771Y-83794864D01*
X72047086Y-83496646D01*
X72426646Y-83117086D01*
X72724864Y-82670771D01*
X72930280Y-82174853D01*
X73035000Y-81648389D01*
X73035000Y-81452559D01*
X74834218Y-81452559D01*
X74966542Y-81745095D01*
X75305391Y-81915295D01*
X75670934Y-82016118D01*
X76049122Y-82043690D01*
X76425422Y-81996951D01*
X76785374Y-81877698D01*
X77033458Y-81745095D01*
X77165782Y-81452559D01*
X76000000Y-80286777D01*
X74834218Y-81452559D01*
X73035000Y-81452559D01*
X73035000Y-81111611D01*
X72930280Y-80585147D01*
X72753815Y-80159122D01*
X74066310Y-80159122D01*
X74113049Y-80535422D01*
X74232302Y-80895374D01*
X74364905Y-81143458D01*
X74657441Y-81275782D01*
X75823223Y-80110000D01*
X76176777Y-80110000D01*
X77342559Y-81275782D01*
X77635095Y-81143458D01*
X77805295Y-80804609D01*
X77906118Y-80439066D01*
X77933690Y-80060878D01*
X77886951Y-79684578D01*
X77767698Y-79324626D01*
X77635095Y-79076542D01*
X77342559Y-78944218D01*
X76176777Y-80110000D01*
X75823223Y-80110000D01*
X74657441Y-78944218D01*
X74364905Y-79076542D01*
X74194705Y-79415391D01*
X74093882Y-79780934D01*
X74066310Y-80159122D01*
X72753815Y-80159122D01*
X72724864Y-80089229D01*
X72426646Y-79642914D01*
X72047086Y-79263354D01*
X71600771Y-78965136D01*
X71104853Y-78759720D01*
X70578389Y-78655000D01*
X70041611Y-78655000D01*
X69515147Y-78759720D01*
X69019229Y-78965136D01*
X68572914Y-79263354D01*
X68193354Y-79642914D01*
X67895136Y-80089229D01*
X67689720Y-80585147D01*
X67650000Y-80784833D01*
X67650000Y-78650000D01*
X74887341Y-78650000D01*
X74834218Y-78767441D01*
G37*
%TD.AperFunction*%
M02*
