%TF.GenerationSoftware,KiCad,Pcbnew,5.1.9+dfsg1-1~bpo10+1*%
%TF.CreationDate,2021-11-14T11:55:08+01:00*%
%TF.ProjectId,compensation,636f6d70-656e-4736-9174-696f6e2e6b69,1.0*%
%TF.SameCoordinates,Original*%
%TF.FileFunction,Paste,Bot*%
%TF.FilePolarity,Positive*%
%FSLAX46Y46*%
G04 Gerber Fmt 4.6, Leading zero omitted, Abs format (unit mm)*
G04 Created by KiCad (PCBNEW 5.1.9+dfsg1-1~bpo10+1) date 2021-11-14 11:55:08*
%MOMM*%
%LPD*%
G01*
G04 APERTURE LIST*
G04 APERTURE END LIST*
G36*
G01*
X79282500Y-133847500D02*
X79282500Y-134322500D01*
G75*
G02*
X79045000Y-134560000I-237500J0D01*
G01*
X78445000Y-134560000D01*
G75*
G02*
X78207500Y-134322500I0J237500D01*
G01*
X78207500Y-133847500D01*
G75*
G02*
X78445000Y-133610000I237500J0D01*
G01*
X79045000Y-133610000D01*
G75*
G02*
X79282500Y-133847500I0J-237500D01*
G01*
G37*
G36*
G01*
X81007500Y-133847500D02*
X81007500Y-134322500D01*
G75*
G02*
X80770000Y-134560000I-237500J0D01*
G01*
X80170000Y-134560000D01*
G75*
G02*
X79932500Y-134322500I0J237500D01*
G01*
X79932500Y-133847500D01*
G75*
G02*
X80170000Y-133610000I237500J0D01*
G01*
X80770000Y-133610000D01*
G75*
G02*
X81007500Y-133847500I0J-237500D01*
G01*
G37*
G36*
G01*
X79282500Y-117972500D02*
X79282500Y-118447500D01*
G75*
G02*
X79045000Y-118685000I-237500J0D01*
G01*
X78445000Y-118685000D01*
G75*
G02*
X78207500Y-118447500I0J237500D01*
G01*
X78207500Y-117972500D01*
G75*
G02*
X78445000Y-117735000I237500J0D01*
G01*
X79045000Y-117735000D01*
G75*
G02*
X79282500Y-117972500I0J-237500D01*
G01*
G37*
G36*
G01*
X81007500Y-117972500D02*
X81007500Y-118447500D01*
G75*
G02*
X80770000Y-118685000I-237500J0D01*
G01*
X80170000Y-118685000D01*
G75*
G02*
X79932500Y-118447500I0J237500D01*
G01*
X79932500Y-117972500D01*
G75*
G02*
X80170000Y-117735000I237500J0D01*
G01*
X80770000Y-117735000D01*
G75*
G02*
X81007500Y-117972500I0J-237500D01*
G01*
G37*
G36*
G01*
X79282500Y-102097500D02*
X79282500Y-102572500D01*
G75*
G02*
X79045000Y-102810000I-237500J0D01*
G01*
X78445000Y-102810000D01*
G75*
G02*
X78207500Y-102572500I0J237500D01*
G01*
X78207500Y-102097500D01*
G75*
G02*
X78445000Y-101860000I237500J0D01*
G01*
X79045000Y-101860000D01*
G75*
G02*
X79282500Y-102097500I0J-237500D01*
G01*
G37*
G36*
G01*
X81007500Y-102097500D02*
X81007500Y-102572500D01*
G75*
G02*
X80770000Y-102810000I-237500J0D01*
G01*
X80170000Y-102810000D01*
G75*
G02*
X79932500Y-102572500I0J237500D01*
G01*
X79932500Y-102097500D01*
G75*
G02*
X80170000Y-101860000I237500J0D01*
G01*
X80770000Y-101860000D01*
G75*
G02*
X81007500Y-102097500I0J-237500D01*
G01*
G37*
G36*
G01*
X79282500Y-86222500D02*
X79282500Y-86697500D01*
G75*
G02*
X79045000Y-86935000I-237500J0D01*
G01*
X78445000Y-86935000D01*
G75*
G02*
X78207500Y-86697500I0J237500D01*
G01*
X78207500Y-86222500D01*
G75*
G02*
X78445000Y-85985000I237500J0D01*
G01*
X79045000Y-85985000D01*
G75*
G02*
X79282500Y-86222500I0J-237500D01*
G01*
G37*
G36*
G01*
X81007500Y-86222500D02*
X81007500Y-86697500D01*
G75*
G02*
X80770000Y-86935000I-237500J0D01*
G01*
X80170000Y-86935000D01*
G75*
G02*
X79932500Y-86697500I0J237500D01*
G01*
X79932500Y-86222500D01*
G75*
G02*
X80170000Y-85985000I237500J0D01*
G01*
X80770000Y-85985000D01*
G75*
G02*
X81007500Y-86222500I0J-237500D01*
G01*
G37*
G36*
G01*
X79282500Y-136387500D02*
X79282500Y-136862500D01*
G75*
G02*
X79045000Y-137100000I-237500J0D01*
G01*
X78445000Y-137100000D01*
G75*
G02*
X78207500Y-136862500I0J237500D01*
G01*
X78207500Y-136387500D01*
G75*
G02*
X78445000Y-136150000I237500J0D01*
G01*
X79045000Y-136150000D01*
G75*
G02*
X79282500Y-136387500I0J-237500D01*
G01*
G37*
G36*
G01*
X81007500Y-136387500D02*
X81007500Y-136862500D01*
G75*
G02*
X80770000Y-137100000I-237500J0D01*
G01*
X80170000Y-137100000D01*
G75*
G02*
X79932500Y-136862500I0J237500D01*
G01*
X79932500Y-136387500D01*
G75*
G02*
X80170000Y-136150000I237500J0D01*
G01*
X80770000Y-136150000D01*
G75*
G02*
X81007500Y-136387500I0J-237500D01*
G01*
G37*
G36*
G01*
X79282500Y-120512500D02*
X79282500Y-120987500D01*
G75*
G02*
X79045000Y-121225000I-237500J0D01*
G01*
X78445000Y-121225000D01*
G75*
G02*
X78207500Y-120987500I0J237500D01*
G01*
X78207500Y-120512500D01*
G75*
G02*
X78445000Y-120275000I237500J0D01*
G01*
X79045000Y-120275000D01*
G75*
G02*
X79282500Y-120512500I0J-237500D01*
G01*
G37*
G36*
G01*
X81007500Y-120512500D02*
X81007500Y-120987500D01*
G75*
G02*
X80770000Y-121225000I-237500J0D01*
G01*
X80170000Y-121225000D01*
G75*
G02*
X79932500Y-120987500I0J237500D01*
G01*
X79932500Y-120512500D01*
G75*
G02*
X80170000Y-120275000I237500J0D01*
G01*
X80770000Y-120275000D01*
G75*
G02*
X81007500Y-120512500I0J-237500D01*
G01*
G37*
G36*
G01*
X79282500Y-104637500D02*
X79282500Y-105112500D01*
G75*
G02*
X79045000Y-105350000I-237500J0D01*
G01*
X78445000Y-105350000D01*
G75*
G02*
X78207500Y-105112500I0J237500D01*
G01*
X78207500Y-104637500D01*
G75*
G02*
X78445000Y-104400000I237500J0D01*
G01*
X79045000Y-104400000D01*
G75*
G02*
X79282500Y-104637500I0J-237500D01*
G01*
G37*
G36*
G01*
X81007500Y-104637500D02*
X81007500Y-105112500D01*
G75*
G02*
X80770000Y-105350000I-237500J0D01*
G01*
X80170000Y-105350000D01*
G75*
G02*
X79932500Y-105112500I0J237500D01*
G01*
X79932500Y-104637500D01*
G75*
G02*
X80170000Y-104400000I237500J0D01*
G01*
X80770000Y-104400000D01*
G75*
G02*
X81007500Y-104637500I0J-237500D01*
G01*
G37*
G36*
G01*
X79282500Y-88762500D02*
X79282500Y-89237500D01*
G75*
G02*
X79045000Y-89475000I-237500J0D01*
G01*
X78445000Y-89475000D01*
G75*
G02*
X78207500Y-89237500I0J237500D01*
G01*
X78207500Y-88762500D01*
G75*
G02*
X78445000Y-88525000I237500J0D01*
G01*
X79045000Y-88525000D01*
G75*
G02*
X79282500Y-88762500I0J-237500D01*
G01*
G37*
G36*
G01*
X81007500Y-88762500D02*
X81007500Y-89237500D01*
G75*
G02*
X80770000Y-89475000I-237500J0D01*
G01*
X80170000Y-89475000D01*
G75*
G02*
X79932500Y-89237500I0J237500D01*
G01*
X79932500Y-88762500D01*
G75*
G02*
X80170000Y-88525000I237500J0D01*
G01*
X80770000Y-88525000D01*
G75*
G02*
X81007500Y-88762500I0J-237500D01*
G01*
G37*
G36*
G01*
X79282500Y-138927500D02*
X79282500Y-139402500D01*
G75*
G02*
X79045000Y-139640000I-237500J0D01*
G01*
X78445000Y-139640000D01*
G75*
G02*
X78207500Y-139402500I0J237500D01*
G01*
X78207500Y-138927500D01*
G75*
G02*
X78445000Y-138690000I237500J0D01*
G01*
X79045000Y-138690000D01*
G75*
G02*
X79282500Y-138927500I0J-237500D01*
G01*
G37*
G36*
G01*
X81007500Y-138927500D02*
X81007500Y-139402500D01*
G75*
G02*
X80770000Y-139640000I-237500J0D01*
G01*
X80170000Y-139640000D01*
G75*
G02*
X79932500Y-139402500I0J237500D01*
G01*
X79932500Y-138927500D01*
G75*
G02*
X80170000Y-138690000I237500J0D01*
G01*
X80770000Y-138690000D01*
G75*
G02*
X81007500Y-138927500I0J-237500D01*
G01*
G37*
G36*
G01*
X79282500Y-123052500D02*
X79282500Y-123527500D01*
G75*
G02*
X79045000Y-123765000I-237500J0D01*
G01*
X78445000Y-123765000D01*
G75*
G02*
X78207500Y-123527500I0J237500D01*
G01*
X78207500Y-123052500D01*
G75*
G02*
X78445000Y-122815000I237500J0D01*
G01*
X79045000Y-122815000D01*
G75*
G02*
X79282500Y-123052500I0J-237500D01*
G01*
G37*
G36*
G01*
X81007500Y-123052500D02*
X81007500Y-123527500D01*
G75*
G02*
X80770000Y-123765000I-237500J0D01*
G01*
X80170000Y-123765000D01*
G75*
G02*
X79932500Y-123527500I0J237500D01*
G01*
X79932500Y-123052500D01*
G75*
G02*
X80170000Y-122815000I237500J0D01*
G01*
X80770000Y-122815000D01*
G75*
G02*
X81007500Y-123052500I0J-237500D01*
G01*
G37*
G36*
G01*
X79282500Y-107177500D02*
X79282500Y-107652500D01*
G75*
G02*
X79045000Y-107890000I-237500J0D01*
G01*
X78445000Y-107890000D01*
G75*
G02*
X78207500Y-107652500I0J237500D01*
G01*
X78207500Y-107177500D01*
G75*
G02*
X78445000Y-106940000I237500J0D01*
G01*
X79045000Y-106940000D01*
G75*
G02*
X79282500Y-107177500I0J-237500D01*
G01*
G37*
G36*
G01*
X81007500Y-107177500D02*
X81007500Y-107652500D01*
G75*
G02*
X80770000Y-107890000I-237500J0D01*
G01*
X80170000Y-107890000D01*
G75*
G02*
X79932500Y-107652500I0J237500D01*
G01*
X79932500Y-107177500D01*
G75*
G02*
X80170000Y-106940000I237500J0D01*
G01*
X80770000Y-106940000D01*
G75*
G02*
X81007500Y-107177500I0J-237500D01*
G01*
G37*
G36*
G01*
X79282500Y-91302500D02*
X79282500Y-91777500D01*
G75*
G02*
X79045000Y-92015000I-237500J0D01*
G01*
X78445000Y-92015000D01*
G75*
G02*
X78207500Y-91777500I0J237500D01*
G01*
X78207500Y-91302500D01*
G75*
G02*
X78445000Y-91065000I237500J0D01*
G01*
X79045000Y-91065000D01*
G75*
G02*
X79282500Y-91302500I0J-237500D01*
G01*
G37*
G36*
G01*
X81007500Y-91302500D02*
X81007500Y-91777500D01*
G75*
G02*
X80770000Y-92015000I-237500J0D01*
G01*
X80170000Y-92015000D01*
G75*
G02*
X79932500Y-91777500I0J237500D01*
G01*
X79932500Y-91302500D01*
G75*
G02*
X80170000Y-91065000I237500J0D01*
G01*
X80770000Y-91065000D01*
G75*
G02*
X81007500Y-91302500I0J-237500D01*
G01*
G37*
G36*
G01*
X79282500Y-141467500D02*
X79282500Y-141942500D01*
G75*
G02*
X79045000Y-142180000I-237500J0D01*
G01*
X78445000Y-142180000D01*
G75*
G02*
X78207500Y-141942500I0J237500D01*
G01*
X78207500Y-141467500D01*
G75*
G02*
X78445000Y-141230000I237500J0D01*
G01*
X79045000Y-141230000D01*
G75*
G02*
X79282500Y-141467500I0J-237500D01*
G01*
G37*
G36*
G01*
X81007500Y-141467500D02*
X81007500Y-141942500D01*
G75*
G02*
X80770000Y-142180000I-237500J0D01*
G01*
X80170000Y-142180000D01*
G75*
G02*
X79932500Y-141942500I0J237500D01*
G01*
X79932500Y-141467500D01*
G75*
G02*
X80170000Y-141230000I237500J0D01*
G01*
X80770000Y-141230000D01*
G75*
G02*
X81007500Y-141467500I0J-237500D01*
G01*
G37*
G36*
G01*
X79282500Y-125592500D02*
X79282500Y-126067500D01*
G75*
G02*
X79045000Y-126305000I-237500J0D01*
G01*
X78445000Y-126305000D01*
G75*
G02*
X78207500Y-126067500I0J237500D01*
G01*
X78207500Y-125592500D01*
G75*
G02*
X78445000Y-125355000I237500J0D01*
G01*
X79045000Y-125355000D01*
G75*
G02*
X79282500Y-125592500I0J-237500D01*
G01*
G37*
G36*
G01*
X81007500Y-125592500D02*
X81007500Y-126067500D01*
G75*
G02*
X80770000Y-126305000I-237500J0D01*
G01*
X80170000Y-126305000D01*
G75*
G02*
X79932500Y-126067500I0J237500D01*
G01*
X79932500Y-125592500D01*
G75*
G02*
X80170000Y-125355000I237500J0D01*
G01*
X80770000Y-125355000D01*
G75*
G02*
X81007500Y-125592500I0J-237500D01*
G01*
G37*
G36*
G01*
X79282500Y-109717500D02*
X79282500Y-110192500D01*
G75*
G02*
X79045000Y-110430000I-237500J0D01*
G01*
X78445000Y-110430000D01*
G75*
G02*
X78207500Y-110192500I0J237500D01*
G01*
X78207500Y-109717500D01*
G75*
G02*
X78445000Y-109480000I237500J0D01*
G01*
X79045000Y-109480000D01*
G75*
G02*
X79282500Y-109717500I0J-237500D01*
G01*
G37*
G36*
G01*
X81007500Y-109717500D02*
X81007500Y-110192500D01*
G75*
G02*
X80770000Y-110430000I-237500J0D01*
G01*
X80170000Y-110430000D01*
G75*
G02*
X79932500Y-110192500I0J237500D01*
G01*
X79932500Y-109717500D01*
G75*
G02*
X80170000Y-109480000I237500J0D01*
G01*
X80770000Y-109480000D01*
G75*
G02*
X81007500Y-109717500I0J-237500D01*
G01*
G37*
G36*
G01*
X79282500Y-93842500D02*
X79282500Y-94317500D01*
G75*
G02*
X79045000Y-94555000I-237500J0D01*
G01*
X78445000Y-94555000D01*
G75*
G02*
X78207500Y-94317500I0J237500D01*
G01*
X78207500Y-93842500D01*
G75*
G02*
X78445000Y-93605000I237500J0D01*
G01*
X79045000Y-93605000D01*
G75*
G02*
X79282500Y-93842500I0J-237500D01*
G01*
G37*
G36*
G01*
X81007500Y-93842500D02*
X81007500Y-94317500D01*
G75*
G02*
X80770000Y-94555000I-237500J0D01*
G01*
X80170000Y-94555000D01*
G75*
G02*
X79932500Y-94317500I0J237500D01*
G01*
X79932500Y-93842500D01*
G75*
G02*
X80170000Y-93605000I237500J0D01*
G01*
X80770000Y-93605000D01*
G75*
G02*
X81007500Y-93842500I0J-237500D01*
G01*
G37*
G36*
G01*
X79282500Y-144007500D02*
X79282500Y-144482500D01*
G75*
G02*
X79045000Y-144720000I-237500J0D01*
G01*
X78445000Y-144720000D01*
G75*
G02*
X78207500Y-144482500I0J237500D01*
G01*
X78207500Y-144007500D01*
G75*
G02*
X78445000Y-143770000I237500J0D01*
G01*
X79045000Y-143770000D01*
G75*
G02*
X79282500Y-144007500I0J-237500D01*
G01*
G37*
G36*
G01*
X81007500Y-144007500D02*
X81007500Y-144482500D01*
G75*
G02*
X80770000Y-144720000I-237500J0D01*
G01*
X80170000Y-144720000D01*
G75*
G02*
X79932500Y-144482500I0J237500D01*
G01*
X79932500Y-144007500D01*
G75*
G02*
X80170000Y-143770000I237500J0D01*
G01*
X80770000Y-143770000D01*
G75*
G02*
X81007500Y-144007500I0J-237500D01*
G01*
G37*
G36*
G01*
X79282500Y-128132500D02*
X79282500Y-128607500D01*
G75*
G02*
X79045000Y-128845000I-237500J0D01*
G01*
X78445000Y-128845000D01*
G75*
G02*
X78207500Y-128607500I0J237500D01*
G01*
X78207500Y-128132500D01*
G75*
G02*
X78445000Y-127895000I237500J0D01*
G01*
X79045000Y-127895000D01*
G75*
G02*
X79282500Y-128132500I0J-237500D01*
G01*
G37*
G36*
G01*
X81007500Y-128132500D02*
X81007500Y-128607500D01*
G75*
G02*
X80770000Y-128845000I-237500J0D01*
G01*
X80170000Y-128845000D01*
G75*
G02*
X79932500Y-128607500I0J237500D01*
G01*
X79932500Y-128132500D01*
G75*
G02*
X80170000Y-127895000I237500J0D01*
G01*
X80770000Y-127895000D01*
G75*
G02*
X81007500Y-128132500I0J-237500D01*
G01*
G37*
G36*
G01*
X79282500Y-112257500D02*
X79282500Y-112732500D01*
G75*
G02*
X79045000Y-112970000I-237500J0D01*
G01*
X78445000Y-112970000D01*
G75*
G02*
X78207500Y-112732500I0J237500D01*
G01*
X78207500Y-112257500D01*
G75*
G02*
X78445000Y-112020000I237500J0D01*
G01*
X79045000Y-112020000D01*
G75*
G02*
X79282500Y-112257500I0J-237500D01*
G01*
G37*
G36*
G01*
X81007500Y-112257500D02*
X81007500Y-112732500D01*
G75*
G02*
X80770000Y-112970000I-237500J0D01*
G01*
X80170000Y-112970000D01*
G75*
G02*
X79932500Y-112732500I0J237500D01*
G01*
X79932500Y-112257500D01*
G75*
G02*
X80170000Y-112020000I237500J0D01*
G01*
X80770000Y-112020000D01*
G75*
G02*
X81007500Y-112257500I0J-237500D01*
G01*
G37*
G36*
G01*
X79282500Y-96382500D02*
X79282500Y-96857500D01*
G75*
G02*
X79045000Y-97095000I-237500J0D01*
G01*
X78445000Y-97095000D01*
G75*
G02*
X78207500Y-96857500I0J237500D01*
G01*
X78207500Y-96382500D01*
G75*
G02*
X78445000Y-96145000I237500J0D01*
G01*
X79045000Y-96145000D01*
G75*
G02*
X79282500Y-96382500I0J-237500D01*
G01*
G37*
G36*
G01*
X81007500Y-96382500D02*
X81007500Y-96857500D01*
G75*
G02*
X80770000Y-97095000I-237500J0D01*
G01*
X80170000Y-97095000D01*
G75*
G02*
X79932500Y-96857500I0J237500D01*
G01*
X79932500Y-96382500D01*
G75*
G02*
X80170000Y-96145000I237500J0D01*
G01*
X80770000Y-96145000D01*
G75*
G02*
X81007500Y-96382500I0J-237500D01*
G01*
G37*
M02*
