<?xml version="1.0" encoding="UTF-8" standalone="no"?>
<!DOCTYPE svg PUBLIC "-//W3C//DTD SVG 1.1//EN"
 "http://www.w3.org/Graphics/SVG/1.1/DTD/svg11.dtd">
<!-- Generated by graphviz version 2.43.0 (0)
 -->
<!-- Title: %3 Pages: 1 -->
<svg width="971pt" height="498pt"
 viewBox="0.00 0.00 971.00 497.50" xmlns="http://www.w3.org/2000/svg" xmlns:xlink="http://www.w3.org/1999/xlink">
<g id="graph0" class="graph" transform="scale(1 1) rotate(0) translate(4 493.5)">
<title>%3</title>
<polygon fill="#ffffff" stroke="transparent" points="-4,4 -4,-493.5 967,-493.5 967,4 -4,4"/>
<!-- X1 -->
<g id="node1" class="node">
<title>X1</title>
<polygon fill="#ffffff" stroke="black" points="224,-276 0,-276 0,0 224,0 224,-276"/>
<polygon fill="none" stroke="black" points="0,-253 0,-276 224,-276 224,-253 0,-253"/>
<text text-anchor="start" x="103.5" y="-260.8" font-family="arial" font-size="14.00">X1</text>
<polygon fill="none" stroke="black" points="0,-230 0,-253 128,-253 128,-230 0,-230"/>
<text text-anchor="start" x="4" y="-237.8" font-family="arial" font-size="14.00">Dupont 1*10 YOGA</text>
<polygon fill="none" stroke="black" points="128,-230 128,-253 178,-253 178,-230 128,-230"/>
<text text-anchor="start" x="132" y="-237.8" font-family="arial" font-size="14.00">female</text>
<polygon fill="none" stroke="black" points="178,-230 178,-253 224,-253 224,-230 178,-230"/>
<text text-anchor="start" x="182" y="-237.8" font-family="arial" font-size="14.00">10&#45;pin</text>
<polygon fill="none" stroke="black" points="0,-207 0,-230 126,-230 126,-207 0,-207"/>
<text text-anchor="start" x="49.5" y="-214.8" font-family="arial" font-size="14.00">SCL</text>
<polygon fill="none" stroke="black" points="126,-207 126,-230 224,-230 224,-207 126,-207"/>
<text text-anchor="start" x="171" y="-214.8" font-family="arial" font-size="14.00">1</text>
<polygon fill="none" stroke="black" points="0,-184 0,-207 126,-207 126,-184 0,-184"/>
<text text-anchor="start" x="49" y="-191.8" font-family="arial" font-size="14.00">SDA</text>
<polygon fill="none" stroke="black" points="126,-184 126,-207 224,-207 224,-184 126,-184"/>
<text text-anchor="start" x="171" y="-191.8" font-family="arial" font-size="14.00">2</text>
<polygon fill="none" stroke="black" points="0,-161 0,-184 126,-184 126,-161 0,-161"/>
<text text-anchor="start" x="50.5" y="-168.8" font-family="arial" font-size="14.00">+5V</text>
<polygon fill="none" stroke="black" points="126,-161 126,-184 224,-184 224,-161 126,-161"/>
<text text-anchor="start" x="171" y="-168.8" font-family="arial" font-size="14.00">3</text>
<polygon fill="none" stroke="black" points="0,-138 0,-161 126,-161 126,-138 0,-138"/>
<text text-anchor="start" x="47.5" y="-145.8" font-family="arial" font-size="14.00">GND</text>
<polygon fill="none" stroke="black" points="126,-138 126,-161 224,-161 224,-138 126,-138"/>
<text text-anchor="start" x="171" y="-145.8" font-family="arial" font-size="14.00">4</text>
<polygon fill="none" stroke="black" points="0,-115 0,-138 126,-138 126,-115 0,-115"/>
<text text-anchor="start" x="44.5" y="-122.8" font-family="arial" font-size="14.00">+3.3V</text>
<polygon fill="none" stroke="black" points="126,-115 126,-138 224,-138 224,-115 126,-115"/>
<text text-anchor="start" x="171" y="-122.8" font-family="arial" font-size="14.00">5</text>
<polygon fill="none" stroke="black" points="0,-92 0,-115 126,-115 126,-92 0,-92"/>
<text text-anchor="start" x="47.5" y="-99.8" font-family="arial" font-size="14.00">GND</text>
<polygon fill="none" stroke="black" points="126,-92 126,-115 224,-115 224,-92 126,-92"/>
<text text-anchor="start" x="171" y="-99.8" font-family="arial" font-size="14.00">6</text>
<polygon fill="none" stroke="black" points="0,-69 0,-92 126,-92 126,-69 0,-69"/>
<text text-anchor="start" x="41.5" y="-76.8" font-family="arial" font-size="14.00">GPIO7</text>
<polygon fill="none" stroke="black" points="126,-69 126,-92 224,-92 224,-69 126,-69"/>
<text text-anchor="start" x="171" y="-76.8" font-family="arial" font-size="14.00">7</text>
<polygon fill="none" stroke="black" points="0,-46 0,-69 126,-69 126,-46 0,-46"/>
<text text-anchor="start" x="41.5" y="-53.8" font-family="arial" font-size="14.00">GPIO8</text>
<polygon fill="none" stroke="black" points="126,-46 126,-69 224,-69 224,-46 126,-46"/>
<text text-anchor="start" x="171" y="-53.8" font-family="arial" font-size="14.00">8</text>
<polygon fill="none" stroke="black" points="0,-23 0,-46 126,-46 126,-23 0,-23"/>
<text text-anchor="start" x="47.5" y="-30.8" font-family="arial" font-size="14.00">GND</text>
<polygon fill="none" stroke="black" points="126,-23 126,-46 224,-46 224,-23 126,-23"/>
<text text-anchor="start" x="171" y="-30.8" font-family="arial" font-size="14.00">9</text>
<polygon fill="none" stroke="black" points="0,0 0,-23 126,-23 126,0 0,0"/>
<text text-anchor="start" x="46.5" y="-7.8" font-family="arial" font-size="14.00">+12V</text>
<polygon fill="none" stroke="black" points="126,0 126,-23 224,-23 224,0 126,0"/>
<text text-anchor="start" x="167" y="-7.8" font-family="arial" font-size="14.00">10</text>
</g>
<!-- W1 -->
<g id="node4" class="node">
<title>W1</title>
<polygon fill="#ffffff" stroke="black" points="575,-306 368,-306 368,-122 575,-122 575,-306"/>
<polygon fill="none" stroke="black" points="368.5,-283 368.5,-306 575.5,-306 575.5,-283 368.5,-283"/>
<text text-anchor="start" x="461" y="-290.8" font-family="arial" font-size="14.00">W1</text>
<polygon fill="none" stroke="black" points="368.5,-260 368.5,-283 411.5,-283 411.5,-260 368.5,-260"/>
<text text-anchor="start" x="382.5" y="-267.8" font-family="arial" font-size="14.00">4x</text>
<polygon fill="none" stroke="black" points="411.5,-260 411.5,-283 498.5,-283 498.5,-260 411.5,-260"/>
<text text-anchor="start" x="425.5" y="-267.8" font-family="arial" font-size="14.00">0.14 mm²</text>
<polygon fill="none" stroke="black" points="498.5,-260 498.5,-283 575.5,-283 575.5,-260 498.5,-260"/>
<text text-anchor="start" x="512.5" y="-267.8" font-family="arial" font-size="14.00">35.0 cm</text>
<text text-anchor="start" x="400" y="-246.8" font-family="arial" font-size="14.00"> </text>
<text text-anchor="start" x="373" y="-227.8" font-family="arial" font-size="14.00">X1:1:SCL</text>
<text text-anchor="start" x="440" y="-227.8" font-family="arial" font-size="14.00"> &#160;&#160;&#160;&#160;1:YE &#160;&#160;&#160;</text>
<text text-anchor="start" x="513" y="-227.8" font-family="arial" font-size="14.00">X2:4:SCL</text>
<polygon fill="#000000" stroke="transparent" points="368.5,-220 368.5,-222 575.5,-222 575.5,-220 368.5,-220"/>
<polygon fill="#ffff00" stroke="transparent" points="368.5,-218 368.5,-220 575.5,-220 575.5,-218 368.5,-218"/>
<polygon fill="#000000" stroke="transparent" points="368.5,-216 368.5,-218 575.5,-218 575.5,-216 368.5,-216"/>
<text text-anchor="start" x="372" y="-202.8" font-family="arial" font-size="14.00">X1:2:SDA</text>
<text text-anchor="start" x="437.5" y="-202.8" font-family="arial" font-size="14.00"> &#160;&#160;&#160;&#160;2:WH &#160;&#160;&#160;</text>
<text text-anchor="start" x="512" y="-202.8" font-family="arial" font-size="14.00">X2:3:SDA</text>
<polygon fill="#000000" stroke="transparent" points="368.5,-195 368.5,-197 575.5,-197 575.5,-195 368.5,-195"/>
<polygon fill="#ffffff" stroke="transparent" points="368.5,-193 368.5,-195 575.5,-195 575.5,-193 368.5,-193"/>
<polygon fill="#000000" stroke="transparent" points="368.5,-191 368.5,-193 575.5,-193 575.5,-191 368.5,-191"/>
<text text-anchor="start" x="373.5" y="-177.8" font-family="arial" font-size="14.00">X1:3:+5V</text>
<text text-anchor="start" x="438" y="-177.8" font-family="arial" font-size="14.00"> &#160;&#160;&#160;&#160;3:OG &#160;&#160;&#160;</text>
<text text-anchor="start" x="511.5" y="-177.8" font-family="arial" font-size="14.00">X2:2:VCC</text>
<polygon fill="#000000" stroke="transparent" points="368.5,-170 368.5,-172 575.5,-172 575.5,-170 368.5,-170"/>
<polygon fill="#ff8000" stroke="transparent" points="368.5,-168 368.5,-170 575.5,-170 575.5,-168 368.5,-168"/>
<polygon fill="#000000" stroke="transparent" points="368.5,-166 368.5,-168 575.5,-168 575.5,-166 368.5,-166"/>
<text text-anchor="start" x="370.5" y="-152.8" font-family="arial" font-size="14.00">X1:4:GND</text>
<text text-anchor="start" x="440" y="-152.8" font-family="arial" font-size="14.00"> &#160;&#160;&#160;&#160;4:BK &#160;&#160;&#160;</text>
<text text-anchor="start" x="510.5" y="-152.8" font-family="arial" font-size="14.00">X2:1:GND</text>
<polygon fill="#000000" stroke="transparent" points="368.5,-145 368.5,-147 575.5,-147 575.5,-145 368.5,-145"/>
<polygon fill="#000000" stroke="transparent" points="368.5,-143 368.5,-145 575.5,-145 575.5,-143 368.5,-143"/>
<polygon fill="#000000" stroke="transparent" points="368.5,-141 368.5,-143 575.5,-143 575.5,-141 368.5,-141"/>
<text text-anchor="start" x="400" y="-127.8" font-family="arial" font-size="14.00"> </text>
</g>
<!-- X1&#45;&#45;W1 -->
<g id="edge1" class="edge">
<title>X1:e&#45;&#45;W1:w</title>
<path fill="none" stroke="#000000" stroke-width="2" d="M224,-217C288,-217 304,-217 368,-217"/>
<path fill="none" stroke="#ffff00" stroke-width="2" d="M224,-219C288,-219 304,-219 368,-219"/>
<path fill="none" stroke="#000000" stroke-width="2" d="M224,-221C288,-221 304,-221 368,-221"/>
</g>
<!-- X1&#45;&#45;W1 -->
<g id="edge3" class="edge">
<title>X1:e&#45;&#45;W1:w</title>
<path fill="none" stroke="#000000" stroke-width="2" d="M224,-194C287.76,-194.02 303.75,-192.02 368,-192"/>
<path fill="none" stroke="#ffffff" stroke-width="2" d="M224,-196C288.01,-196 303.99,-194 368,-194"/>
<path fill="none" stroke="#000000" stroke-width="2" d="M224,-198C288.25,-197.98 304.24,-195.98 368,-196"/>
</g>
<!-- X1&#45;&#45;W1 -->
<g id="edge5" class="edge">
<title>X1:e&#45;&#45;W1:w</title>
<path fill="none" stroke="#000000" stroke-width="2" d="M224,-171C287.54,-171.06 303.49,-167.06 368,-167"/>
<path fill="none" stroke="#ff8000" stroke-width="2" d="M224,-173C288.02,-173 303.98,-169 368,-169"/>
<path fill="none" stroke="#000000" stroke-width="2" d="M224,-175C288.51,-174.94 304.46,-170.94 368,-171"/>
</g>
<!-- X1&#45;&#45;W1 -->
<g id="edge7" class="edge">
<title>X1:e&#45;&#45;W1:w</title>
<path fill="none" stroke="#000000" stroke-width="2" d="M224,-148C287.35,-148.13 303.24,-142.13 368,-142"/>
<path fill="none" stroke="#000000" stroke-width="2" d="M224,-150C288.06,-150 303.94,-144 368,-144"/>
<path fill="none" stroke="#000000" stroke-width="2" d="M224,-152C288.76,-151.87 304.65,-145.87 368,-146"/>
</g>
<!-- W2 -->
<g id="node5" class="node">
<title>W2</title>
<polygon fill="#ffffff" stroke="black" points="575,-489.5 368,-489.5 368,-330.5 575,-330.5 575,-489.5"/>
<polygon fill="none" stroke="black" points="368.5,-466 368.5,-489 575.5,-489 575.5,-466 368.5,-466"/>
<text text-anchor="start" x="461" y="-473.8" font-family="arial" font-size="14.00">W2</text>
<polygon fill="none" stroke="black" points="368.5,-443 368.5,-466 411.5,-466 411.5,-443 368.5,-443"/>
<text text-anchor="start" x="382.5" y="-450.8" font-family="arial" font-size="14.00">3x</text>
<polygon fill="none" stroke="black" points="411.5,-443 411.5,-466 498.5,-466 498.5,-443 411.5,-443"/>
<text text-anchor="start" x="425.5" y="-450.8" font-family="arial" font-size="14.00">0.14 mm²</text>
<polygon fill="none" stroke="black" points="498.5,-443 498.5,-466 575.5,-466 575.5,-443 498.5,-443"/>
<text text-anchor="start" x="512.5" y="-450.8" font-family="arial" font-size="14.00">35.0 cm</text>
<text text-anchor="start" x="400" y="-429.8" font-family="arial" font-size="14.00"> </text>
<text text-anchor="start" x="373" y="-410.8" font-family="arial" font-size="14.00">X1:1:SCL</text>
<text text-anchor="start" x="440" y="-410.8" font-family="arial" font-size="14.00"> &#160;&#160;&#160;&#160;1:YE &#160;&#160;&#160;</text>
<text text-anchor="start" x="513" y="-410.8" font-family="arial" font-size="14.00">X3:1:SCL</text>
<polygon fill="#000000" stroke="transparent" points="368.5,-403 368.5,-405 575.5,-405 575.5,-403 368.5,-403"/>
<polygon fill="#ffff00" stroke="transparent" points="368.5,-401 368.5,-403 575.5,-403 575.5,-401 368.5,-401"/>
<polygon fill="#000000" stroke="transparent" points="368.5,-399 368.5,-401 575.5,-401 575.5,-399 368.5,-399"/>
<text text-anchor="start" x="372" y="-385.8" font-family="arial" font-size="14.00">X1:2:SDA</text>
<text text-anchor="start" x="437.5" y="-385.8" font-family="arial" font-size="14.00"> &#160;&#160;&#160;&#160;2:WH &#160;&#160;&#160;</text>
<text text-anchor="start" x="512" y="-385.8" font-family="arial" font-size="14.00">X3:2:SDA</text>
<polygon fill="#000000" stroke="transparent" points="368.5,-378 368.5,-380 575.5,-380 575.5,-378 368.5,-378"/>
<polygon fill="#ffffff" stroke="transparent" points="368.5,-376 368.5,-378 575.5,-378 575.5,-376 368.5,-376"/>
<polygon fill="#000000" stroke="transparent" points="368.5,-374 368.5,-376 575.5,-376 575.5,-374 368.5,-374"/>
<text text-anchor="start" x="370.5" y="-360.8" font-family="arial" font-size="14.00">X1:4:GND</text>
<text text-anchor="start" x="440" y="-360.8" font-family="arial" font-size="14.00"> &#160;&#160;&#160;&#160;3:BK &#160;&#160;&#160;</text>
<text text-anchor="start" x="510.5" y="-360.8" font-family="arial" font-size="14.00">X3:6:GND</text>
<polygon fill="#000000" stroke="transparent" points="368.5,-353 368.5,-355 575.5,-355 575.5,-353 368.5,-353"/>
<polygon fill="#000000" stroke="transparent" points="368.5,-351 368.5,-353 575.5,-353 575.5,-351 368.5,-351"/>
<polygon fill="#000000" stroke="transparent" points="368.5,-349 368.5,-351 575.5,-351 575.5,-349 368.5,-349"/>
<text text-anchor="start" x="400" y="-335.8" font-family="arial" font-size="14.00"> </text>
</g>
<!-- X1&#45;&#45;W2 -->
<g id="edge9" class="edge">
<title>X1:e&#45;&#45;W2:w</title>
<path fill="none" stroke="#000000" stroke-width="2" d="M224,-217C329.39,-219.65 266.4,-402.65 368,-400"/>
<path fill="none" stroke="#ffff00" stroke-width="2" d="M224,-219C327.49,-219 264.51,-402 368,-402"/>
<path fill="none" stroke="#000000" stroke-width="2" d="M224,-221C325.6,-218.35 262.61,-401.35 368,-404"/>
</g>
<!-- X1&#45;&#45;W2 -->
<g id="edge11" class="edge">
<title>X1:e&#45;&#45;W2:w</title>
<path fill="none" stroke="#000000" stroke-width="2" d="M224,-194C328.69,-196.64 267.1,-377.64 368,-375"/>
<path fill="none" stroke="#ffffff" stroke-width="2" d="M224,-196C326.8,-196 265.2,-377 368,-377"/>
<path fill="none" stroke="#000000" stroke-width="2" d="M224,-198C324.9,-195.36 263.31,-376.36 368,-379"/>
</g>
<!-- X1&#45;&#45;W2 -->
<g id="edge13" class="edge">
<title>X1:e&#45;&#45;W2:w</title>
<path fill="none" stroke="#000000" stroke-width="2" d="M224,-148C336.12,-150.71 259.62,-352.71 368,-350"/>
<path fill="none" stroke="#000000" stroke-width="2" d="M224,-150C334.25,-150 257.75,-352 368,-352"/>
<path fill="none" stroke="#000000" stroke-width="2" d="M224,-152C332.38,-149.29 255.88,-351.29 368,-354"/>
</g>
<!-- X2 -->
<g id="node2" class="node">
<title>X2</title>
<polygon fill="#ffffff" stroke="black" points="937,-250 745,-250 745,-112 937,-112 937,-250"/>
<polygon fill="none" stroke="black" points="745,-227 745,-250 937,-250 937,-227 745,-227"/>
<text text-anchor="start" x="832.5" y="-234.8" font-family="arial" font-size="14.00">X2</text>
<polygon fill="none" stroke="black" points="745,-204 745,-227 848,-227 848,-204 745,-204"/>
<text text-anchor="start" x="749" y="-211.8" font-family="arial" font-size="14.00">JST XH Display</text>
<polygon fill="none" stroke="black" points="848,-204 848,-227 898,-227 898,-204 848,-204"/>
<text text-anchor="start" x="852" y="-211.8" font-family="arial" font-size="14.00">female</text>
<polygon fill="none" stroke="black" points="898,-204 898,-227 937,-227 937,-204 898,-204"/>
<text text-anchor="start" x="902" y="-211.8" font-family="arial" font-size="14.00">4&#45;pin</text>
<polygon fill="none" stroke="black" points="745,-181 745,-204 830,-204 830,-181 745,-181"/>
<text text-anchor="start" x="783.5" y="-188.8" font-family="arial" font-size="14.00">1</text>
<polygon fill="none" stroke="black" points="830,-181 830,-204 937,-204 937,-181 830,-181"/>
<text text-anchor="start" x="868" y="-188.8" font-family="arial" font-size="14.00">GND</text>
<polygon fill="none" stroke="black" points="745,-158 745,-181 830,-181 830,-158 745,-158"/>
<text text-anchor="start" x="783.5" y="-165.8" font-family="arial" font-size="14.00">2</text>
<polygon fill="none" stroke="black" points="830,-158 830,-181 937,-181 937,-158 830,-158"/>
<text text-anchor="start" x="869" y="-165.8" font-family="arial" font-size="14.00">VCC</text>
<polygon fill="none" stroke="black" points="745,-135 745,-158 830,-158 830,-135 745,-135"/>
<text text-anchor="start" x="783.5" y="-142.8" font-family="arial" font-size="14.00">3</text>
<polygon fill="none" stroke="black" points="830,-135 830,-158 937,-158 937,-135 830,-135"/>
<text text-anchor="start" x="869.5" y="-142.8" font-family="arial" font-size="14.00">SDA</text>
<polygon fill="none" stroke="black" points="745,-112 745,-135 830,-135 830,-112 745,-112"/>
<text text-anchor="start" x="783.5" y="-119.8" font-family="arial" font-size="14.00">4</text>
<polygon fill="none" stroke="black" points="830,-112 830,-135 937,-135 937,-112 830,-112"/>
<text text-anchor="start" x="870" y="-119.8" font-family="arial" font-size="14.00">SCL</text>
</g>
<!-- X3 -->
<g id="node3" class="node">
<title>X3</title>
<polygon fill="#ffffff" stroke="black" points="963,-459 719,-459 719,-275 963,-275 963,-459"/>
<polygon fill="none" stroke="black" points="719,-436 719,-459 963,-459 963,-436 719,-436"/>
<text text-anchor="start" x="832.5" y="-443.8" font-family="arial" font-size="14.00">X3</text>
<polygon fill="none" stroke="black" points="719,-413 719,-436 874,-436 874,-413 719,-413"/>
<text text-anchor="start" x="723" y="-420.8" font-family="arial" font-size="14.00">Dupont 2*3 Motor Board</text>
<polygon fill="none" stroke="black" points="874,-413 874,-436 924,-436 924,-413 874,-413"/>
<text text-anchor="start" x="878" y="-420.8" font-family="arial" font-size="14.00">female</text>
<polygon fill="none" stroke="black" points="924,-413 924,-436 963,-436 963,-413 924,-413"/>
<text text-anchor="start" x="928" y="-420.8" font-family="arial" font-size="14.00">6&#45;pin</text>
<polygon fill="none" stroke="black" points="719,-390 719,-413 830,-413 830,-390 719,-390"/>
<text text-anchor="start" x="770.5" y="-397.8" font-family="arial" font-size="14.00">1</text>
<polygon fill="none" stroke="black" points="830,-390 830,-413 963,-413 963,-390 830,-390"/>
<text text-anchor="start" x="883" y="-397.8" font-family="arial" font-size="14.00">SCL</text>
<polygon fill="none" stroke="black" points="719,-367 719,-390 830,-390 830,-367 719,-367"/>
<text text-anchor="start" x="770.5" y="-374.8" font-family="arial" font-size="14.00">2</text>
<polygon fill="none" stroke="black" points="830,-367 830,-390 963,-390 963,-367 830,-367"/>
<text text-anchor="start" x="882.5" y="-374.8" font-family="arial" font-size="14.00">SDA</text>
<polygon fill="none" stroke="black" points="719,-344 719,-367 830,-367 830,-344 719,-344"/>
<text text-anchor="start" x="770.5" y="-351.8" font-family="arial" font-size="14.00">3</text>
<polygon fill="none" stroke="black" points="830,-344 830,-367 963,-367 963,-344 830,-344"/>
<text text-anchor="start" x="882" y="-351.8" font-family="arial" font-size="14.00">VCC</text>
<polygon fill="none" stroke="black" points="719,-321 719,-344 830,-344 830,-321 719,-321"/>
<text text-anchor="start" x="770.5" y="-328.8" font-family="arial" font-size="14.00">4</text>
<polygon fill="none" stroke="black" points="830,-321 830,-344 963,-344 963,-321 830,-321"/>
<text text-anchor="start" x="882" y="-328.8" font-family="arial" font-size="14.00">VCC</text>
<polygon fill="none" stroke="black" points="719,-298 719,-321 830,-321 830,-298 719,-298"/>
<text text-anchor="start" x="770.5" y="-305.8" font-family="arial" font-size="14.00">5</text>
<polygon fill="none" stroke="black" points="830,-298 830,-321 963,-321 963,-298 830,-298"/>
<text text-anchor="start" x="881" y="-305.8" font-family="arial" font-size="14.00">GND</text>
<polygon fill="none" stroke="black" points="719,-275 719,-298 830,-298 830,-275 719,-275"/>
<text text-anchor="start" x="770.5" y="-282.8" font-family="arial" font-size="14.00">6</text>
<polygon fill="none" stroke="black" points="830,-275 830,-298 963,-298 963,-275 830,-275"/>
<text text-anchor="start" x="881" y="-282.8" font-family="arial" font-size="14.00">GND</text>
</g>
<!-- W1&#45;&#45;X2 -->
<g id="edge2" class="edge">
<title>W1:e&#45;&#45;X2:w</title>
<path fill="none" stroke="#000000" stroke-width="2" d="M575,-217C659.39,-219.08 655.62,-123.08 744,-121"/>
<path fill="none" stroke="#ffff00" stroke-width="2" d="M575,-219C661.38,-219 657.62,-123 744,-123"/>
<path fill="none" stroke="#000000" stroke-width="2" d="M575,-221C663.38,-218.92 659.61,-122.92 744,-125"/>
</g>
<!-- W1&#45;&#45;X2 -->
<g id="edge4" class="edge">
<title>W1:e&#45;&#45;X2:w</title>
<path fill="none" stroke="#000000" stroke-width="2" d="M575,-192C651.15,-193.48 663.99,-145.48 744,-144"/>
<path fill="none" stroke="#ffffff" stroke-width="2" d="M575,-194C653.08,-194 665.92,-146 744,-146"/>
<path fill="none" stroke="#000000" stroke-width="2" d="M575,-196C655.01,-194.52 667.85,-146.52 744,-148"/>
</g>
<!-- W1&#45;&#45;X2 -->
<g id="edge6" class="edge">
<title>W1:e&#45;&#45;X2:w</title>
<path fill="none" stroke="#000000" stroke-width="2" d="M575,-167C650.11,-167 668.89,-167 744,-167"/>
<path fill="none" stroke="#ff8000" stroke-width="2" d="M575,-169C650.11,-169 668.89,-169 744,-169"/>
<path fill="none" stroke="#000000" stroke-width="2" d="M575,-171C650.11,-171 668.89,-171 744,-171"/>
</g>
<!-- W1&#45;&#45;X2 -->
<g id="edge8" class="edge">
<title>W1:e&#45;&#45;X2:w</title>
<path fill="none" stroke="#000000" stroke-width="2" d="M575,-142C655.14,-143.5 667.73,-192.5 744,-191"/>
<path fill="none" stroke="#000000" stroke-width="2" d="M575,-144C653.2,-144 665.8,-193 744,-193"/>
<path fill="none" stroke="#000000" stroke-width="2" d="M575,-146C651.27,-144.5 663.86,-193.5 744,-195"/>
</g>
<!-- W2&#45;&#45;X3 -->
<g id="edge10" class="edge">
<title>W2:e&#45;&#45;X3:w</title>
<path fill="none" stroke="#000000" stroke-width="2" d="M575,-400C639,-400 655,-400 719,-400"/>
<path fill="none" stroke="#ffff00" stroke-width="2" d="M575,-402C639,-402 655,-402 719,-402"/>
<path fill="none" stroke="#000000" stroke-width="2" d="M575,-404C639,-404 655,-404 719,-404"/>
</g>
<!-- W2&#45;&#45;X3 -->
<g id="edge12" class="edge">
<title>W2:e&#45;&#45;X3:w</title>
<path fill="none" stroke="#000000" stroke-width="2" d="M575,-375C639.25,-375.02 655.24,-377.02 719,-377"/>
<path fill="none" stroke="#ffffff" stroke-width="2" d="M575,-377C639.01,-377 654.99,-379 719,-379"/>
<path fill="none" stroke="#000000" stroke-width="2" d="M575,-379C638.76,-378.98 654.75,-380.98 719,-381"/>
</g>
<!-- W2&#45;&#45;X3 -->
<g id="edge14" class="edge">
<title>W2:e&#45;&#45;X3:w</title>
<path fill="none" stroke="#000000" stroke-width="2" d="M575,-350C643.4,-351.9 646.6,-285.9 719,-284"/>
<path fill="none" stroke="#000000" stroke-width="2" d="M575,-352C645.4,-352 648.6,-286 719,-286"/>
<path fill="none" stroke="#000000" stroke-width="2" d="M575,-354C647.4,-352.1 650.6,-286.1 719,-288"/>
</g>
</g>
</svg>
