<?xml version="1.0" encoding="UTF-8" standalone="no"?>
<!DOCTYPE svg PUBLIC "-//W3C//DTD SVG 1.1//EN"
 "http://www.w3.org/Graphics/SVG/1.1/DTD/svg11.dtd">
<!-- Generated by graphviz version 2.43.0 (0)
 -->
<!-- Title: %3 Pages: 1 -->
<svg width="1004pt" height="534pt"
 viewBox="0.00 0.00 1004.00 533.50" xmlns="http://www.w3.org/2000/svg" xmlns:xlink="http://www.w3.org/1999/xlink">
<g id="graph0" class="graph" transform="scale(1 1) rotate(0) translate(4 529.5)">
<title>%3</title>
<polygon fill="#ffffff" stroke="transparent" points="-4,4 -4,-529.5 1000,-529.5 1000,4 -4,4"/>
<!-- X1 -->
<g id="node1" class="node">
<title>X1</title>
<polygon fill="#ffffff" stroke="black" points="234,-312 0,-312 0,-36 234,-36 234,-312"/>
<polygon fill="none" stroke="black" points="0,-289 0,-312 234,-312 234,-289 0,-289"/>
<text text-anchor="start" x="108.5" y="-296.8" font-family="arial" font-size="14.00">X1</text>
<polygon fill="none" stroke="black" points="0,-266 0,-289 138,-289 138,-266 0,-266"/>
<text text-anchor="start" x="4" y="-273.8" font-family="arial" font-size="14.00">Molex KK 254 YOGA</text>
<polygon fill="none" stroke="black" points="138,-266 138,-289 188,-289 188,-266 138,-266"/>
<text text-anchor="start" x="142" y="-273.8" font-family="arial" font-size="14.00">female</text>
<polygon fill="none" stroke="black" points="188,-266 188,-289 234,-289 234,-266 188,-266"/>
<text text-anchor="start" x="192" y="-273.8" font-family="arial" font-size="14.00">10&#45;pin</text>
<polygon fill="none" stroke="black" points="0,-243 0,-266 131,-266 131,-243 0,-243"/>
<text text-anchor="start" x="52" y="-250.8" font-family="arial" font-size="14.00">SCL</text>
<polygon fill="none" stroke="black" points="131,-243 131,-266 234,-266 234,-243 131,-243"/>
<text text-anchor="start" x="178.5" y="-250.8" font-family="arial" font-size="14.00">1</text>
<polygon fill="none" stroke="black" points="0,-220 0,-243 131,-243 131,-220 0,-220"/>
<text text-anchor="start" x="51.5" y="-227.8" font-family="arial" font-size="14.00">SDA</text>
<polygon fill="none" stroke="black" points="131,-220 131,-243 234,-243 234,-220 131,-220"/>
<text text-anchor="start" x="178.5" y="-227.8" font-family="arial" font-size="14.00">2</text>
<polygon fill="none" stroke="black" points="0,-197 0,-220 131,-220 131,-197 0,-197"/>
<text text-anchor="start" x="53" y="-204.8" font-family="arial" font-size="14.00">+5V</text>
<polygon fill="none" stroke="black" points="131,-197 131,-220 234,-220 234,-197 131,-197"/>
<text text-anchor="start" x="178.5" y="-204.8" font-family="arial" font-size="14.00">3</text>
<polygon fill="none" stroke="black" points="0,-174 0,-197 131,-197 131,-174 0,-174"/>
<text text-anchor="start" x="50" y="-181.8" font-family="arial" font-size="14.00">GND</text>
<polygon fill="none" stroke="black" points="131,-174 131,-197 234,-197 234,-174 131,-174"/>
<text text-anchor="start" x="178.5" y="-181.8" font-family="arial" font-size="14.00">4</text>
<polygon fill="none" stroke="black" points="0,-151 0,-174 131,-174 131,-151 0,-151"/>
<text text-anchor="start" x="47" y="-158.8" font-family="arial" font-size="14.00">+3.3V</text>
<polygon fill="none" stroke="black" points="131,-151 131,-174 234,-174 234,-151 131,-151"/>
<text text-anchor="start" x="178.5" y="-158.8" font-family="arial" font-size="14.00">5</text>
<polygon fill="none" stroke="black" points="0,-128 0,-151 131,-151 131,-128 0,-128"/>
<text text-anchor="start" x="50" y="-135.8" font-family="arial" font-size="14.00">GND</text>
<polygon fill="none" stroke="black" points="131,-128 131,-151 234,-151 234,-128 131,-128"/>
<text text-anchor="start" x="178.5" y="-135.8" font-family="arial" font-size="14.00">6</text>
<polygon fill="none" stroke="black" points="0,-105 0,-128 131,-128 131,-105 0,-105"/>
<text text-anchor="start" x="44" y="-112.8" font-family="arial" font-size="14.00">GPIO7</text>
<polygon fill="none" stroke="black" points="131,-105 131,-128 234,-128 234,-105 131,-105"/>
<text text-anchor="start" x="178.5" y="-112.8" font-family="arial" font-size="14.00">7</text>
<polygon fill="none" stroke="black" points="0,-82 0,-105 131,-105 131,-82 0,-82"/>
<text text-anchor="start" x="44" y="-89.8" font-family="arial" font-size="14.00">GPIO8</text>
<polygon fill="none" stroke="black" points="131,-82 131,-105 234,-105 234,-82 131,-82"/>
<text text-anchor="start" x="178.5" y="-89.8" font-family="arial" font-size="14.00">8</text>
<polygon fill="none" stroke="black" points="0,-59 0,-82 131,-82 131,-59 0,-59"/>
<text text-anchor="start" x="50" y="-66.8" font-family="arial" font-size="14.00">GND</text>
<polygon fill="none" stroke="black" points="131,-59 131,-82 234,-82 234,-59 131,-59"/>
<text text-anchor="start" x="178.5" y="-66.8" font-family="arial" font-size="14.00">9</text>
<polygon fill="none" stroke="black" points="0,-36 0,-59 131,-59 131,-36 0,-36"/>
<text text-anchor="start" x="49" y="-43.8" font-family="arial" font-size="14.00">+12V</text>
<polygon fill="none" stroke="black" points="131,-36 131,-59 234,-59 234,-36 131,-36"/>
<text text-anchor="start" x="174.5" y="-43.8" font-family="arial" font-size="14.00">10</text>
</g>
<!-- W1 -->
<g id="node5" class="node">
<title>W1</title>
<polygon fill="#ffffff" stroke="black" points="588,-342 381,-342 381,-158 588,-158 588,-342"/>
<polygon fill="none" stroke="black" points="381.5,-319 381.5,-342 588.5,-342 588.5,-319 381.5,-319"/>
<text text-anchor="start" x="474" y="-326.8" font-family="arial" font-size="14.00">W1</text>
<polygon fill="none" stroke="black" points="381.5,-296 381.5,-319 424.5,-319 424.5,-296 381.5,-296"/>
<text text-anchor="start" x="395.5" y="-303.8" font-family="arial" font-size="14.00">4x</text>
<polygon fill="none" stroke="black" points="424.5,-296 424.5,-319 511.5,-319 511.5,-296 424.5,-296"/>
<text text-anchor="start" x="438.5" y="-303.8" font-family="arial" font-size="14.00">0.14 mm²</text>
<polygon fill="none" stroke="black" points="511.5,-296 511.5,-319 588.5,-319 588.5,-296 511.5,-296"/>
<text text-anchor="start" x="525.5" y="-303.8" font-family="arial" font-size="14.00">35.0 cm</text>
<text text-anchor="start" x="413" y="-282.8" font-family="arial" font-size="14.00"> </text>
<text text-anchor="start" x="386" y="-263.8" font-family="arial" font-size="14.00">X1:1:SCL</text>
<text text-anchor="start" x="453" y="-263.8" font-family="arial" font-size="14.00"> &#160;&#160;&#160;&#160;1:YE &#160;&#160;&#160;</text>
<text text-anchor="start" x="526" y="-263.8" font-family="arial" font-size="14.00">X2:4:SCL</text>
<polygon fill="#000000" stroke="transparent" points="381.5,-256 381.5,-258 588.5,-258 588.5,-256 381.5,-256"/>
<polygon fill="#ffff00" stroke="transparent" points="381.5,-254 381.5,-256 588.5,-256 588.5,-254 381.5,-254"/>
<polygon fill="#000000" stroke="transparent" points="381.5,-252 381.5,-254 588.5,-254 588.5,-252 381.5,-252"/>
<text text-anchor="start" x="385" y="-238.8" font-family="arial" font-size="14.00">X1:2:SDA</text>
<text text-anchor="start" x="450.5" y="-238.8" font-family="arial" font-size="14.00"> &#160;&#160;&#160;&#160;2:WH &#160;&#160;&#160;</text>
<text text-anchor="start" x="525" y="-238.8" font-family="arial" font-size="14.00">X2:3:SDA</text>
<polygon fill="#000000" stroke="transparent" points="381.5,-231 381.5,-233 588.5,-233 588.5,-231 381.5,-231"/>
<polygon fill="#ffffff" stroke="transparent" points="381.5,-229 381.5,-231 588.5,-231 588.5,-229 381.5,-229"/>
<polygon fill="#000000" stroke="transparent" points="381.5,-227 381.5,-229 588.5,-229 588.5,-227 381.5,-227"/>
<text text-anchor="start" x="386.5" y="-213.8" font-family="arial" font-size="14.00">X1:3:+5V</text>
<text text-anchor="start" x="451" y="-213.8" font-family="arial" font-size="14.00"> &#160;&#160;&#160;&#160;3:OG &#160;&#160;&#160;</text>
<text text-anchor="start" x="524.5" y="-213.8" font-family="arial" font-size="14.00">X2:2:VCC</text>
<polygon fill="#000000" stroke="transparent" points="381.5,-206 381.5,-208 588.5,-208 588.5,-206 381.5,-206"/>
<polygon fill="#ff8000" stroke="transparent" points="381.5,-204 381.5,-206 588.5,-206 588.5,-204 381.5,-204"/>
<polygon fill="#000000" stroke="transparent" points="381.5,-202 381.5,-204 588.5,-204 588.5,-202 381.5,-202"/>
<text text-anchor="start" x="383.5" y="-188.8" font-family="arial" font-size="14.00">X1:4:GND</text>
<text text-anchor="start" x="453" y="-188.8" font-family="arial" font-size="14.00"> &#160;&#160;&#160;&#160;4:BK &#160;&#160;&#160;</text>
<text text-anchor="start" x="523.5" y="-188.8" font-family="arial" font-size="14.00">X2:1:GND</text>
<polygon fill="#000000" stroke="transparent" points="381.5,-181 381.5,-183 588.5,-183 588.5,-181 381.5,-181"/>
<polygon fill="#000000" stroke="transparent" points="381.5,-179 381.5,-181 588.5,-181 588.5,-179 381.5,-179"/>
<polygon fill="#000000" stroke="transparent" points="381.5,-177 381.5,-179 588.5,-179 588.5,-177 381.5,-177"/>
<text text-anchor="start" x="413" y="-163.8" font-family="arial" font-size="14.00"> </text>
</g>
<!-- X1&#45;&#45;W1 -->
<g id="edge1" class="edge">
<title>X1:e&#45;&#45;W1:w</title>
<path fill="none" stroke="#000000" stroke-width="2" d="M234,-253C299.11,-253 315.39,-253 380.5,-253"/>
<path fill="none" stroke="#ffff00" stroke-width="2" d="M234,-255C299.11,-255 315.39,-255 380.5,-255"/>
<path fill="none" stroke="#000000" stroke-width="2" d="M234,-257C299.11,-257 315.39,-257 380.5,-257"/>
</g>
<!-- X1&#45;&#45;W1 -->
<g id="edge3" class="edge">
<title>X1:e&#45;&#45;W1:w</title>
<path fill="none" stroke="#000000" stroke-width="2" d="M234,-230C298.87,-230.01 315.14,-228.01 380.5,-228"/>
<path fill="none" stroke="#ffffff" stroke-width="2" d="M234,-232C299.12,-232 315.38,-230 380.5,-230"/>
<path fill="none" stroke="#000000" stroke-width="2" d="M234,-234C299.36,-233.99 315.63,-231.99 380.5,-232"/>
</g>
<!-- X1&#45;&#45;W1 -->
<g id="edge5" class="edge">
<title>X1:e&#45;&#45;W1:w</title>
<path fill="none" stroke="#000000" stroke-width="2" d="M234,-207C298.66,-207.06 314.89,-203.06 380.5,-203"/>
<path fill="none" stroke="#ff8000" stroke-width="2" d="M234,-209C299.14,-209 315.36,-205 380.5,-205"/>
<path fill="none" stroke="#000000" stroke-width="2" d="M234,-211C299.61,-210.94 315.84,-206.94 380.5,-207"/>
</g>
<!-- X1&#45;&#45;W1 -->
<g id="edge7" class="edge">
<title>X1:e&#45;&#45;W1:w</title>
<path fill="none" stroke="#000000" stroke-width="2" d="M234,-184C298.47,-184.12 314.64,-178.12 380.5,-178"/>
<path fill="none" stroke="#000000" stroke-width="2" d="M234,-186C299.17,-186 315.33,-180 380.5,-180"/>
<path fill="none" stroke="#000000" stroke-width="2" d="M234,-188C299.86,-187.88 316.03,-181.88 380.5,-182"/>
</g>
<!-- W2 -->
<g id="node6" class="node">
<title>W2</title>
<polygon fill="#ffffff" stroke="black" points="588,-525.5 381,-525.5 381,-366.5 588,-366.5 588,-525.5"/>
<polygon fill="none" stroke="black" points="381.5,-502 381.5,-525 588.5,-525 588.5,-502 381.5,-502"/>
<text text-anchor="start" x="474" y="-509.8" font-family="arial" font-size="14.00">W2</text>
<polygon fill="none" stroke="black" points="381.5,-479 381.5,-502 424.5,-502 424.5,-479 381.5,-479"/>
<text text-anchor="start" x="395.5" y="-486.8" font-family="arial" font-size="14.00">3x</text>
<polygon fill="none" stroke="black" points="424.5,-479 424.5,-502 511.5,-502 511.5,-479 424.5,-479"/>
<text text-anchor="start" x="438.5" y="-486.8" font-family="arial" font-size="14.00">0.14 mm²</text>
<polygon fill="none" stroke="black" points="511.5,-479 511.5,-502 588.5,-502 588.5,-479 511.5,-479"/>
<text text-anchor="start" x="525.5" y="-486.8" font-family="arial" font-size="14.00">35.0 cm</text>
<text text-anchor="start" x="413" y="-465.8" font-family="arial" font-size="14.00"> </text>
<text text-anchor="start" x="386" y="-446.8" font-family="arial" font-size="14.00">X1:1:SCL</text>
<text text-anchor="start" x="453" y="-446.8" font-family="arial" font-size="14.00"> &#160;&#160;&#160;&#160;1:YE &#160;&#160;&#160;</text>
<text text-anchor="start" x="526" y="-446.8" font-family="arial" font-size="14.00">X3:1:SCL</text>
<polygon fill="#000000" stroke="transparent" points="381.5,-439 381.5,-441 588.5,-441 588.5,-439 381.5,-439"/>
<polygon fill="#ffff00" stroke="transparent" points="381.5,-437 381.5,-439 588.5,-439 588.5,-437 381.5,-437"/>
<polygon fill="#000000" stroke="transparent" points="381.5,-435 381.5,-437 588.5,-437 588.5,-435 381.5,-435"/>
<text text-anchor="start" x="385" y="-421.8" font-family="arial" font-size="14.00">X1:2:SDA</text>
<text text-anchor="start" x="450.5" y="-421.8" font-family="arial" font-size="14.00"> &#160;&#160;&#160;&#160;2:WH &#160;&#160;&#160;</text>
<text text-anchor="start" x="525" y="-421.8" font-family="arial" font-size="14.00">X3:2:SDA</text>
<polygon fill="#000000" stroke="transparent" points="381.5,-414 381.5,-416 588.5,-416 588.5,-414 381.5,-414"/>
<polygon fill="#ffffff" stroke="transparent" points="381.5,-412 381.5,-414 588.5,-414 588.5,-412 381.5,-412"/>
<polygon fill="#000000" stroke="transparent" points="381.5,-410 381.5,-412 588.5,-412 588.5,-410 381.5,-410"/>
<text text-anchor="start" x="383.5" y="-396.8" font-family="arial" font-size="14.00">X1:4:GND</text>
<text text-anchor="start" x="453" y="-396.8" font-family="arial" font-size="14.00"> &#160;&#160;&#160;&#160;3:BK &#160;&#160;&#160;</text>
<text text-anchor="start" x="523.5" y="-396.8" font-family="arial" font-size="14.00">X3:6:GND</text>
<polygon fill="#000000" stroke="transparent" points="381.5,-389 381.5,-391 588.5,-391 588.5,-389 381.5,-389"/>
<polygon fill="#000000" stroke="transparent" points="381.5,-387 381.5,-389 588.5,-389 588.5,-387 381.5,-387"/>
<polygon fill="#000000" stroke="transparent" points="381.5,-385 381.5,-387 588.5,-387 588.5,-385 381.5,-385"/>
<text text-anchor="start" x="413" y="-371.8" font-family="arial" font-size="14.00"> </text>
</g>
<!-- X1&#45;&#45;W2 -->
<g id="edge9" class="edge">
<title>X1:e&#45;&#45;W2:w</title>
<path fill="none" stroke="#000000" stroke-width="2" d="M234,-253C340.08,-255.64 278.21,-438.64 380.5,-436"/>
<path fill="none" stroke="#ffff00" stroke-width="2" d="M234,-255C338.19,-255 276.31,-438 380.5,-438"/>
<path fill="none" stroke="#000000" stroke-width="2" d="M234,-257C336.29,-254.36 274.42,-437.36 380.5,-440"/>
</g>
<!-- X1&#45;&#45;W2 -->
<g id="edge11" class="edge">
<title>X1:e&#45;&#45;W2:w</title>
<path fill="none" stroke="#000000" stroke-width="2" d="M234,-230C339.39,-232.63 278.9,-413.63 380.5,-411"/>
<path fill="none" stroke="#ffffff" stroke-width="2" d="M234,-232C337.49,-232 277.01,-413 380.5,-413"/>
<path fill="none" stroke="#000000" stroke-width="2" d="M234,-234C335.6,-231.37 275.11,-412.37 380.5,-415"/>
</g>
<!-- X1&#45;&#45;W2 -->
<g id="edge13" class="edge">
<title>X1:e&#45;&#45;W2:w</title>
<path fill="none" stroke="#000000" stroke-width="2" d="M234,-184C346.78,-186.7 271.47,-388.7 380.5,-386"/>
<path fill="none" stroke="#000000" stroke-width="2" d="M234,-186C344.9,-186 269.6,-388 380.5,-388"/>
<path fill="none" stroke="#000000" stroke-width="2" d="M234,-188C343.03,-185.3 267.72,-387.3 380.5,-390"/>
</g>
<!-- W3 -->
<g id="node7" class="node">
<title>W3</title>
<polygon fill="#ffffff" stroke="black" points="591,-134 378,-134 378,0 591,0 591,-134"/>
<polygon fill="none" stroke="black" points="378.5,-111 378.5,-134 591.5,-134 591.5,-111 378.5,-111"/>
<text text-anchor="start" x="474" y="-118.8" font-family="arial" font-size="14.00">W3</text>
<polygon fill="none" stroke="black" points="378.5,-88 378.5,-111 423.5,-111 423.5,-88 378.5,-88"/>
<text text-anchor="start" x="393.5" y="-95.8" font-family="arial" font-size="14.00">2x</text>
<polygon fill="none" stroke="black" points="423.5,-88 423.5,-111 512.5,-111 512.5,-88 423.5,-88"/>
<text text-anchor="start" x="438.5" y="-95.8" font-family="arial" font-size="14.00">0.25 mm²</text>
<polygon fill="none" stroke="black" points="512.5,-88 512.5,-111 591.5,-111 591.5,-88 512.5,-88"/>
<text text-anchor="start" x="527.5" y="-95.8" font-family="arial" font-size="14.00">35.0 cm</text>
<text text-anchor="start" x="414.5" y="-74.8" font-family="arial" font-size="14.00"> </text>
<text text-anchor="start" x="380.5" y="-55.8" font-family="arial" font-size="14.00">X1:10:+12V</text>
<text text-anchor="start" x="456.5" y="-55.8" font-family="arial" font-size="14.00"> &#160;&#160;&#160;&#160;1:RD &#160;&#160;&#160;</text>
<text text-anchor="start" x="525.5" y="-55.8" font-family="arial" font-size="14.00">X4:1:+12V</text>
<polygon fill="#000000" stroke="transparent" points="378.5,-48 378.5,-50 591.5,-50 591.5,-48 378.5,-48"/>
<polygon fill="#ff0000" stroke="transparent" points="378.5,-46 378.5,-48 591.5,-48 591.5,-46 378.5,-46"/>
<polygon fill="#000000" stroke="transparent" points="378.5,-44 378.5,-46 591.5,-46 591.5,-44 378.5,-44"/>
<text text-anchor="start" x="385" y="-30.8" font-family="arial" font-size="14.00">X1:9:GND</text>
<text text-anchor="start" x="457" y="-30.8" font-family="arial" font-size="14.00"> &#160;&#160;&#160;&#160;2:BK &#160;&#160;&#160;</text>
<text text-anchor="start" x="526" y="-30.8" font-family="arial" font-size="14.00">X4:2:GND</text>
<polygon fill="#000000" stroke="transparent" points="378.5,-23 378.5,-25 591.5,-25 591.5,-23 378.5,-23"/>
<polygon fill="#000000" stroke="transparent" points="378.5,-21 378.5,-23 591.5,-23 591.5,-21 378.5,-21"/>
<polygon fill="#000000" stroke="transparent" points="378.5,-19 378.5,-21 591.5,-21 591.5,-19 378.5,-19"/>
<text text-anchor="start" x="414.5" y="-5.8" font-family="arial" font-size="14.00"> </text>
</g>
<!-- X1&#45;&#45;W3 -->
<g id="edge15" class="edge">
<title>X1:e&#45;&#45;W3:w</title>
<path fill="none" stroke="#000000" stroke-width="2" d="M234,-45C298,-45 314,-45 378,-45"/>
<path fill="none" stroke="#ff0000" stroke-width="2" d="M234,-47C298,-47 314,-47 378,-47"/>
<path fill="none" stroke="#000000" stroke-width="2" d="M234,-49C298,-49 314,-49 378,-49"/>
</g>
<!-- X1&#45;&#45;W3 -->
<g id="edge17" class="edge">
<title>X1:e&#45;&#45;W3:w</title>
<path fill="none" stroke="#000000" stroke-width="2" d="M234,-68C299.5,-69.63 308.57,-21.63 378,-20"/>
<path fill="none" stroke="#000000" stroke-width="2" d="M234,-70C301.46,-70 310.54,-22 378,-22"/>
<path fill="none" stroke="#000000" stroke-width="2" d="M234,-72C303.43,-70.37 312.5,-22.37 378,-24"/>
</g>
<!-- X2 -->
<g id="node2" class="node">
<title>X2</title>
<polygon fill="#ffffff" stroke="black" points="961.5,-286 769.5,-286 769.5,-148 961.5,-148 961.5,-286"/>
<polygon fill="none" stroke="black" points="769.5,-263 769.5,-286 961.5,-286 961.5,-263 769.5,-263"/>
<text text-anchor="start" x="857" y="-270.8" font-family="arial" font-size="14.00">X2</text>
<polygon fill="none" stroke="black" points="769.5,-240 769.5,-263 872.5,-263 872.5,-240 769.5,-240"/>
<text text-anchor="start" x="773.5" y="-247.8" font-family="arial" font-size="14.00">JST XH Display</text>
<polygon fill="none" stroke="black" points="872.5,-240 872.5,-263 922.5,-263 922.5,-240 872.5,-240"/>
<text text-anchor="start" x="876.5" y="-247.8" font-family="arial" font-size="14.00">female</text>
<polygon fill="none" stroke="black" points="922.5,-240 922.5,-263 961.5,-263 961.5,-240 922.5,-240"/>
<text text-anchor="start" x="926.5" y="-247.8" font-family="arial" font-size="14.00">4&#45;pin</text>
<polygon fill="none" stroke="black" points="769.5,-217 769.5,-240 854.5,-240 854.5,-217 769.5,-217"/>
<text text-anchor="start" x="808" y="-224.8" font-family="arial" font-size="14.00">1</text>
<polygon fill="none" stroke="black" points="854.5,-217 854.5,-240 961.5,-240 961.5,-217 854.5,-217"/>
<text text-anchor="start" x="892.5" y="-224.8" font-family="arial" font-size="14.00">GND</text>
<polygon fill="none" stroke="black" points="769.5,-194 769.5,-217 854.5,-217 854.5,-194 769.5,-194"/>
<text text-anchor="start" x="808" y="-201.8" font-family="arial" font-size="14.00">2</text>
<polygon fill="none" stroke="black" points="854.5,-194 854.5,-217 961.5,-217 961.5,-194 854.5,-194"/>
<text text-anchor="start" x="893.5" y="-201.8" font-family="arial" font-size="14.00">VCC</text>
<polygon fill="none" stroke="black" points="769.5,-171 769.5,-194 854.5,-194 854.5,-171 769.5,-171"/>
<text text-anchor="start" x="808" y="-178.8" font-family="arial" font-size="14.00">3</text>
<polygon fill="none" stroke="black" points="854.5,-171 854.5,-194 961.5,-194 961.5,-171 854.5,-171"/>
<text text-anchor="start" x="894" y="-178.8" font-family="arial" font-size="14.00">SDA</text>
<polygon fill="none" stroke="black" points="769.5,-148 769.5,-171 854.5,-171 854.5,-148 769.5,-148"/>
<text text-anchor="start" x="808" y="-155.8" font-family="arial" font-size="14.00">4</text>
<polygon fill="none" stroke="black" points="854.5,-148 854.5,-171 961.5,-171 961.5,-148 854.5,-148"/>
<text text-anchor="start" x="894.5" y="-155.8" font-family="arial" font-size="14.00">SCL</text>
</g>
<!-- X3 -->
<g id="node3" class="node">
<title>X3</title>
<polygon fill="#ffffff" stroke="black" points="996,-495 735,-495 735,-311 996,-311 996,-495"/>
<polygon fill="none" stroke="black" points="735.5,-472 735.5,-495 996.5,-495 996.5,-472 735.5,-472"/>
<text text-anchor="start" x="857.5" y="-479.8" font-family="arial" font-size="14.00">X3</text>
<polygon fill="none" stroke="black" points="735.5,-449 735.5,-472 907.5,-472 907.5,-449 735.5,-449"/>
<text text-anchor="start" x="739.5" y="-456.8" font-family="arial" font-size="14.00">Molex KK 254 Motor Board</text>
<polygon fill="none" stroke="black" points="907.5,-449 907.5,-472 957.5,-472 957.5,-449 907.5,-449"/>
<text text-anchor="start" x="911.5" y="-456.8" font-family="arial" font-size="14.00">female</text>
<polygon fill="none" stroke="black" points="957.5,-449 957.5,-472 996.5,-472 996.5,-449 957.5,-449"/>
<text text-anchor="start" x="961.5" y="-456.8" font-family="arial" font-size="14.00">6&#45;pin</text>
<polygon fill="none" stroke="black" points="735.5,-426 735.5,-449 854.5,-449 854.5,-426 735.5,-426"/>
<text text-anchor="start" x="791" y="-433.8" font-family="arial" font-size="14.00">1</text>
<polygon fill="none" stroke="black" points="854.5,-426 854.5,-449 996.5,-449 996.5,-426 854.5,-426"/>
<text text-anchor="start" x="912" y="-433.8" font-family="arial" font-size="14.00">SCL</text>
<polygon fill="none" stroke="black" points="735.5,-403 735.5,-426 854.5,-426 854.5,-403 735.5,-403"/>
<text text-anchor="start" x="791" y="-410.8" font-family="arial" font-size="14.00">2</text>
<polygon fill="none" stroke="black" points="854.5,-403 854.5,-426 996.5,-426 996.5,-403 854.5,-403"/>
<text text-anchor="start" x="911.5" y="-410.8" font-family="arial" font-size="14.00">SDA</text>
<polygon fill="none" stroke="black" points="735.5,-380 735.5,-403 854.5,-403 854.5,-380 735.5,-380"/>
<text text-anchor="start" x="791" y="-387.8" font-family="arial" font-size="14.00">3</text>
<polygon fill="none" stroke="black" points="854.5,-380 854.5,-403 996.5,-403 996.5,-380 854.5,-380"/>
<text text-anchor="start" x="911" y="-387.8" font-family="arial" font-size="14.00">VCC</text>
<polygon fill="none" stroke="black" points="735.5,-357 735.5,-380 854.5,-380 854.5,-357 735.5,-357"/>
<text text-anchor="start" x="791" y="-364.8" font-family="arial" font-size="14.00">4</text>
<polygon fill="none" stroke="black" points="854.5,-357 854.5,-380 996.5,-380 996.5,-357 854.5,-357"/>
<text text-anchor="start" x="911" y="-364.8" font-family="arial" font-size="14.00">VCC</text>
<polygon fill="none" stroke="black" points="735.5,-334 735.5,-357 854.5,-357 854.5,-334 735.5,-334"/>
<text text-anchor="start" x="791" y="-341.8" font-family="arial" font-size="14.00">5</text>
<polygon fill="none" stroke="black" points="854.5,-334 854.5,-357 996.5,-357 996.5,-334 854.5,-334"/>
<text text-anchor="start" x="910" y="-341.8" font-family="arial" font-size="14.00">GND</text>
<polygon fill="none" stroke="black" points="735.5,-311 735.5,-334 854.5,-334 854.5,-311 735.5,-311"/>
<text text-anchor="start" x="791" y="-318.8" font-family="arial" font-size="14.00">6</text>
<polygon fill="none" stroke="black" points="854.5,-311 854.5,-334 996.5,-334 996.5,-311 854.5,-311"/>
<text text-anchor="start" x="910" y="-318.8" font-family="arial" font-size="14.00">GND</text>
</g>
<!-- X4 -->
<g id="node4" class="node">
<title>X4</title>
<polygon fill="#ffffff" stroke="black" points="954.5,-104 776.5,-104 776.5,-12 954.5,-12 954.5,-104"/>
<polygon fill="none" stroke="black" points="776.5,-81 776.5,-104 954.5,-104 954.5,-81 776.5,-81"/>
<text text-anchor="start" x="857" y="-88.8" font-family="arial" font-size="14.00">X4</text>
<polygon fill="none" stroke="black" points="776.5,-58 776.5,-81 915.5,-81 915.5,-58 776.5,-58"/>
<text text-anchor="start" x="780.5" y="-65.8" font-family="arial" font-size="14.00">soldered Motor Board</text>
<polygon fill="none" stroke="black" points="915.5,-58 915.5,-81 954.5,-81 954.5,-58 915.5,-58"/>
<text text-anchor="start" x="919.5" y="-65.8" font-family="arial" font-size="14.00">2&#45;pin</text>
<polygon fill="none" stroke="black" points="776.5,-35 776.5,-58 853.5,-58 853.5,-35 776.5,-35"/>
<text text-anchor="start" x="811" y="-42.8" font-family="arial" font-size="14.00">1</text>
<polygon fill="none" stroke="black" points="853.5,-35 853.5,-58 954.5,-58 954.5,-35 853.5,-35"/>
<text text-anchor="start" x="887.5" y="-42.8" font-family="arial" font-size="14.00">+12V</text>
<polygon fill="none" stroke="black" points="776.5,-12 776.5,-35 853.5,-35 853.5,-12 776.5,-12"/>
<text text-anchor="start" x="811" y="-19.8" font-family="arial" font-size="14.00">2</text>
<polygon fill="none" stroke="black" points="853.5,-12 853.5,-35 954.5,-35 954.5,-12 853.5,-12"/>
<text text-anchor="start" x="888.5" y="-19.8" font-family="arial" font-size="14.00">GND</text>
</g>
<!-- W1&#45;&#45;X2 -->
<g id="edge2" class="edge">
<title>W1:e&#45;&#45;X2:w</title>
<path fill="none" stroke="#000000" stroke-width="2" d="M589.5,-253C677.78,-255.03 676.23,-159.03 768.5,-157"/>
<path fill="none" stroke="#ffff00" stroke-width="2" d="M589.5,-255C679.77,-255 678.23,-159 768.5,-159"/>
<path fill="none" stroke="#000000" stroke-width="2" d="M589.5,-257C681.77,-254.97 680.22,-158.97 768.5,-161"/>
</g>
<!-- W1&#45;&#45;X2 -->
<g id="edge4" class="edge">
<title>W1:e&#45;&#45;X2:w</title>
<path fill="none" stroke="#000000" stroke-width="2" d="M589.5,-228C669.95,-229.43 684.22,-181.43 768.5,-180"/>
<path fill="none" stroke="#ffffff" stroke-width="2" d="M589.5,-230C671.87,-230 686.13,-182 768.5,-182"/>
<path fill="none" stroke="#000000" stroke-width="2" d="M589.5,-232C673.78,-230.57 688.05,-182.57 768.5,-184"/>
</g>
<!-- W1&#45;&#45;X2 -->
<g id="edge6" class="edge">
<title>W1:e&#45;&#45;X2:w</title>
<path fill="none" stroke="#000000" stroke-width="2" d="M589.5,-203C669.06,-203 688.94,-203 768.5,-203"/>
<path fill="none" stroke="#ff8000" stroke-width="2" d="M589.5,-205C669.06,-205 688.94,-205 768.5,-205"/>
<path fill="none" stroke="#000000" stroke-width="2" d="M589.5,-207C669.06,-207 688.94,-207 768.5,-207"/>
</g>
<!-- W1&#45;&#45;X2 -->
<g id="edge8" class="edge">
<title>W1:e&#45;&#45;X2:w</title>
<path fill="none" stroke="#000000" stroke-width="2" d="M589.5,-178C673.91,-179.45 687.94,-228.45 768.5,-227"/>
<path fill="none" stroke="#000000" stroke-width="2" d="M589.5,-180C671.98,-180 686.02,-229 768.5,-229"/>
<path fill="none" stroke="#000000" stroke-width="2" d="M589.5,-182C670.06,-180.55 684.09,-229.55 768.5,-231"/>
</g>
<!-- W2&#45;&#45;X3 -->
<g id="edge10" class="edge">
<title>W2:e&#45;&#45;X3:w</title>
<path fill="none" stroke="#000000" stroke-width="2" d="M589.5,-436C654.17,-436 670.33,-436 735,-436"/>
<path fill="none" stroke="#ffff00" stroke-width="2" d="M589.5,-438C654.17,-438 670.33,-438 735,-438"/>
<path fill="none" stroke="#000000" stroke-width="2" d="M589.5,-440C654.17,-440 670.33,-440 735,-440"/>
</g>
<!-- W2&#45;&#45;X3 -->
<g id="edge12" class="edge">
<title>W2:e&#45;&#45;X3:w</title>
<path fill="none" stroke="#000000" stroke-width="2" d="M589.5,-411C654.42,-411.02 670.57,-413.02 735,-413"/>
<path fill="none" stroke="#ffffff" stroke-width="2" d="M589.5,-413C654.17,-413 670.33,-415 735,-415"/>
<path fill="none" stroke="#000000" stroke-width="2" d="M589.5,-415C653.93,-414.98 670.08,-416.98 735,-417"/>
</g>
<!-- W2&#45;&#45;X3 -->
<g id="edge14" class="edge">
<title>W2:e&#45;&#45;X3:w</title>
<path fill="none" stroke="#000000" stroke-width="2" d="M589.5,-386C658.51,-387.89 661.99,-321.89 735,-320"/>
<path fill="none" stroke="#000000" stroke-width="2" d="M589.5,-388C660.51,-388 663.99,-322 735,-322"/>
<path fill="none" stroke="#000000" stroke-width="2" d="M589.5,-390C662.51,-388.11 665.99,-322.11 735,-324"/>
</g>
<!-- W3&#45;&#45;X4 -->
<g id="edge16" class="edge">
<title>W3:e&#45;&#45;X4:w</title>
<path fill="none" stroke="#000000" stroke-width="2" d="M591,-45C672.9,-45 693.4,-44 775.5,-44"/>
<path fill="none" stroke="#ff0000" stroke-width="2" d="M591,-47C673,-47 693.5,-46 775.5,-46"/>
<path fill="none" stroke="#000000" stroke-width="2" d="M591,-49C673.1,-49 693.6,-48 775.5,-48"/>
</g>
<!-- W3&#45;&#45;X4 -->
<g id="edge18" class="edge">
<title>W3:e&#45;&#45;X4:w</title>
<path fill="none" stroke="#000000" stroke-width="2" d="M591,-20C673.1,-20 693.6,-21 775.5,-21"/>
<path fill="none" stroke="#000000" stroke-width="2" d="M591,-22C673,-22 693.5,-23 775.5,-23"/>
<path fill="none" stroke="#000000" stroke-width="2" d="M591,-24C672.9,-24 693.4,-25 775.5,-25"/>
</g>
</g>
</svg>
