<?xml version="1.0" encoding="UTF-8" standalone="no"?>
<!DOCTYPE svg PUBLIC "-//W3C//DTD SVG 1.1//EN"
 "http://www.w3.org/Graphics/SVG/1.1/DTD/svg11.dtd">
<!-- Generated by graphviz version 2.43.0 (0)
 -->
<!-- Title: %3 Pages: 1 -->
<svg width="820pt" height="261pt"
 viewBox="0.00 0.00 820.00 261.00" xmlns="http://www.w3.org/2000/svg" xmlns:xlink="http://www.w3.org/1999/xlink">
<g id="graph0" class="graph" transform="scale(1 1) rotate(0) translate(4 257)">
<title>%3</title>
<polygon fill="#ffffff" stroke="transparent" points="-4,4 -4,-257 816,-257 816,4 -4,4"/>
<!-- X2 -->
<g id="node1" class="node">
<title>X2</title>
<polygon fill="#ffffff" stroke="black" points="812,-253 676,-253 676,0 812,0 812,-253"/>
<polygon fill="none" stroke="black" points="676,-229.5 676,-252.5 812,-252.5 812,-229.5 676,-229.5"/>
<text text-anchor="start" x="735.5" y="-237.3" font-family="arial" font-size="14.00">X2</text>
<polygon fill="none" stroke="black" points="676,-206.5 676,-229.5 723,-229.5 723,-206.5 676,-206.5"/>
<text text-anchor="start" x="680" y="-214.3" font-family="arial" font-size="14.00">D&#45;Sub</text>
<polygon fill="none" stroke="black" points="723,-206.5 723,-229.5 773,-229.5 773,-206.5 723,-206.5"/>
<text text-anchor="start" x="727" y="-214.3" font-family="arial" font-size="14.00">female</text>
<polygon fill="none" stroke="black" points="773,-206.5 773,-229.5 812,-229.5 812,-206.5 773,-206.5"/>
<text text-anchor="start" x="777" y="-214.3" font-family="arial" font-size="14.00">9&#45;pin</text>
<polygon fill="none" stroke="black" points="676,-183.5 676,-206.5 733,-206.5 733,-183.5 676,-183.5"/>
<text text-anchor="start" x="700.5" y="-191.3" font-family="arial" font-size="14.00">1</text>
<polygon fill="none" stroke="black" points="733,-183.5 733,-206.5 812,-206.5 812,-183.5 733,-183.5"/>
<text text-anchor="start" x="757.5" y="-191.3" font-family="arial" font-size="14.00">DCD</text>
<polygon fill="none" stroke="black" points="676,-160.5 676,-183.5 733,-183.5 733,-160.5 676,-160.5"/>
<text text-anchor="start" x="700.5" y="-168.3" font-family="arial" font-size="14.00">2</text>
<polygon fill="none" stroke="black" points="733,-160.5 733,-183.5 812,-183.5 812,-160.5 733,-160.5"/>
<text text-anchor="start" x="758" y="-168.3" font-family="arial" font-size="14.00">RXD</text>
<polygon fill="none" stroke="black" points="676,-137.5 676,-160.5 733,-160.5 733,-137.5 676,-137.5"/>
<text text-anchor="start" x="700.5" y="-145.3" font-family="arial" font-size="14.00">3</text>
<polygon fill="none" stroke="black" points="733,-137.5 733,-160.5 812,-160.5 812,-137.5 733,-137.5"/>
<text text-anchor="start" x="758.5" y="-145.3" font-family="arial" font-size="14.00">TXD</text>
<polygon fill="none" stroke="black" points="676,-114.5 676,-137.5 733,-137.5 733,-114.5 676,-114.5"/>
<text text-anchor="start" x="700.5" y="-122.3" font-family="arial" font-size="14.00">4</text>
<polygon fill="none" stroke="black" points="733,-114.5 733,-137.5 812,-137.5 812,-114.5 733,-114.5"/>
<text text-anchor="start" x="758.5" y="-122.3" font-family="arial" font-size="14.00">DTR</text>
<polygon fill="none" stroke="black" points="676,-91.5 676,-114.5 733,-114.5 733,-91.5 676,-91.5"/>
<text text-anchor="start" x="700.5" y="-99.3" font-family="arial" font-size="14.00">5</text>
<polygon fill="none" stroke="black" points="733,-91.5 733,-114.5 812,-114.5 812,-91.5 733,-91.5"/>
<text text-anchor="start" x="757" y="-99.3" font-family="arial" font-size="14.00">GND</text>
<polygon fill="none" stroke="black" points="676,-68.5 676,-91.5 733,-91.5 733,-68.5 676,-68.5"/>
<text text-anchor="start" x="700.5" y="-76.3" font-family="arial" font-size="14.00">6</text>
<polygon fill="none" stroke="black" points="733,-68.5 733,-91.5 812,-91.5 812,-68.5 733,-68.5"/>
<text text-anchor="start" x="758" y="-76.3" font-family="arial" font-size="14.00">DSR</text>
<polygon fill="none" stroke="black" points="676,-45.5 676,-68.5 733,-68.5 733,-45.5 676,-45.5"/>
<text text-anchor="start" x="700.5" y="-53.3" font-family="arial" font-size="14.00">7</text>
<polygon fill="none" stroke="black" points="733,-45.5 733,-68.5 812,-68.5 812,-45.5 733,-45.5"/>
<text text-anchor="start" x="758.5" y="-53.3" font-family="arial" font-size="14.00">RTS</text>
<polygon fill="none" stroke="black" points="676,-22.5 676,-45.5 733,-45.5 733,-22.5 676,-22.5"/>
<text text-anchor="start" x="700.5" y="-30.3" font-family="arial" font-size="14.00">8</text>
<polygon fill="none" stroke="black" points="733,-22.5 733,-45.5 812,-45.5 812,-22.5 733,-22.5"/>
<text text-anchor="start" x="758.5" y="-30.3" font-family="arial" font-size="14.00">CTS</text>
<polygon fill="none" stroke="black" points="676,0.5 676,-22.5 733,-22.5 733,0.5 676,0.5"/>
<text text-anchor="start" x="700.5" y="-7.3" font-family="arial" font-size="14.00">9</text>
<polygon fill="none" stroke="black" points="733,0.5 733,-22.5 812,-22.5 812,0.5 733,0.5"/>
<text text-anchor="start" x="765.5" y="-7.3" font-family="arial" font-size="14.00">RI</text>
</g>
<!-- X1 -->
<g id="node2" class="node">
<title>X1</title>
<polygon fill="#ffffff" stroke="black" points="182,-188 0,-188 0,-27 182,-27 182,-188"/>
<polygon fill="none" stroke="black" points="0,-164.5 0,-187.5 182,-187.5 182,-164.5 0,-164.5"/>
<text text-anchor="start" x="82.5" y="-172.3" font-family="arial" font-size="14.00">X1</text>
<polygon fill="none" stroke="black" points="0,-141.5 0,-164.5 93,-164.5 93,-141.5 0,-141.5"/>
<text text-anchor="start" x="4" y="-149.3" font-family="arial" font-size="14.00">Molex KK 254</text>
<polygon fill="none" stroke="black" points="93,-141.5 93,-164.5 143,-164.5 143,-141.5 93,-141.5"/>
<text text-anchor="start" x="97" y="-149.3" font-family="arial" font-size="14.00">female</text>
<polygon fill="none" stroke="black" points="143,-141.5 143,-164.5 182,-164.5 182,-141.5 143,-141.5"/>
<text text-anchor="start" x="147" y="-149.3" font-family="arial" font-size="14.00">5&#45;pin</text>
<polygon fill="none" stroke="black" points="0,-118.5 0,-141.5 103,-141.5 103,-118.5 0,-118.5"/>
<text text-anchor="start" x="36" y="-126.3" font-family="arial" font-size="14.00">GND</text>
<polygon fill="none" stroke="black" points="103,-118.5 103,-141.5 182,-141.5 182,-118.5 103,-118.5"/>
<text text-anchor="start" x="138.5" y="-126.3" font-family="arial" font-size="14.00">1</text>
<polygon fill="none" stroke="black" points="0,-95.5 0,-118.5 103,-118.5 103,-95.5 0,-95.5"/>
<text text-anchor="start" x="37.5" y="-103.3" font-family="arial" font-size="14.00">TXD</text>
<polygon fill="none" stroke="black" points="103,-95.5 103,-118.5 182,-118.5 182,-95.5 103,-95.5"/>
<text text-anchor="start" x="138.5" y="-103.3" font-family="arial" font-size="14.00">2</text>
<polygon fill="none" stroke="black" points="0,-72.5 0,-95.5 103,-95.5 103,-72.5 0,-72.5"/>
<text text-anchor="start" x="37" y="-80.3" font-family="arial" font-size="14.00">RXD</text>
<polygon fill="none" stroke="black" points="103,-72.5 103,-95.5 182,-95.5 182,-72.5 103,-72.5"/>
<text text-anchor="start" x="138.5" y="-80.3" font-family="arial" font-size="14.00">3</text>
<polygon fill="none" stroke="black" points="0,-49.5 0,-72.5 103,-72.5 103,-49.5 0,-49.5"/>
<text text-anchor="start" x="37.5" y="-57.3" font-family="arial" font-size="14.00">CTS</text>
<polygon fill="none" stroke="black" points="103,-49.5 103,-72.5 182,-72.5 182,-49.5 103,-49.5"/>
<text text-anchor="start" x="138.5" y="-57.3" font-family="arial" font-size="14.00">4</text>
<polygon fill="none" stroke="black" points="0,-26.5 0,-49.5 103,-49.5 103,-26.5 0,-26.5"/>
<text text-anchor="start" x="37.5" y="-34.3" font-family="arial" font-size="14.00">RTS</text>
<polygon fill="none" stroke="black" points="103,-26.5 103,-49.5 182,-49.5 182,-26.5 103,-26.5"/>
<text text-anchor="start" x="138.5" y="-34.3" font-family="arial" font-size="14.00">5</text>
</g>
<!-- W1 -->
<g id="node3" class="node">
<title>W1</title>
<polygon fill="#ffffff" stroke="black" points="532,-221 326,-221 326,-12 532,-12 532,-221"/>
<polygon fill="none" stroke="black" points="326,-197.5 326,-220.5 532,-220.5 532,-197.5 326,-197.5"/>
<text text-anchor="start" x="418" y="-205.3" font-family="arial" font-size="14.00">W1</text>
<polygon fill="none" stroke="black" points="326,-174.5 326,-197.5 374,-197.5 374,-174.5 326,-174.5"/>
<text text-anchor="start" x="342.5" y="-182.3" font-family="arial" font-size="14.00">5x</text>
<polygon fill="none" stroke="black" points="374,-174.5 374,-197.5 465,-197.5 465,-174.5 374,-174.5"/>
<text text-anchor="start" x="390" y="-182.3" font-family="arial" font-size="14.00">0.25 mm²</text>
<polygon fill="none" stroke="black" points="465,-174.5 465,-197.5 532,-197.5 532,-174.5 465,-174.5"/>
<text text-anchor="start" x="481" y="-182.3" font-family="arial" font-size="14.00">0.3 m</text>
<text text-anchor="start" x="357.5" y="-161.3" font-family="arial" font-size="14.00"> </text>
<text text-anchor="start" x="328" y="-142.3" font-family="arial" font-size="14.00">X1:1:GND</text>
<text text-anchor="start" x="397" y="-142.3" font-family="arial" font-size="14.00"> &#160;&#160;&#160;&#160;1:BK &#160;&#160;&#160;</text>
<text text-anchor="start" x="467" y="-142.3" font-family="arial" font-size="14.00">X2:5:GND</text>
<polygon fill="#000000" stroke="transparent" points="326,-134.5 326,-136.5 532,-136.5 532,-134.5 326,-134.5"/>
<polygon fill="#000000" stroke="transparent" points="326,-132.5 326,-134.5 532,-134.5 532,-132.5 326,-132.5"/>
<polygon fill="#000000" stroke="transparent" points="326,-130.5 326,-132.5 532,-132.5 532,-130.5 326,-130.5"/>
<text text-anchor="start" x="330" y="-117.3" font-family="arial" font-size="14.00">X1:2:TXD</text>
<text text-anchor="start" x="397" y="-117.3" font-family="arial" font-size="14.00"> &#160;&#160;&#160;&#160;2:BN &#160;&#160;&#160;</text>
<text text-anchor="start" x="468" y="-117.3" font-family="arial" font-size="14.00">X2:2:RXD</text>
<polygon fill="#000000" stroke="transparent" points="326,-109.5 326,-111.5 532,-111.5 532,-109.5 326,-109.5"/>
<polygon fill="#895956" stroke="transparent" points="326,-107.5 326,-109.5 532,-109.5 532,-107.5 326,-107.5"/>
<polygon fill="#000000" stroke="transparent" points="326,-105.5 326,-107.5 532,-107.5 532,-105.5 326,-105.5"/>
<text text-anchor="start" x="329" y="-92.3" font-family="arial" font-size="14.00">X1:3:RXD</text>
<text text-anchor="start" x="396.5" y="-92.3" font-family="arial" font-size="14.00"> &#160;&#160;&#160;&#160;3:RD &#160;&#160;&#160;</text>
<text text-anchor="start" x="469" y="-92.3" font-family="arial" font-size="14.00">X2:3:TXD</text>
<polygon fill="#000000" stroke="transparent" points="326,-84.5 326,-86.5 532,-86.5 532,-84.5 326,-84.5"/>
<polygon fill="#ff0000" stroke="transparent" points="326,-82.5 326,-84.5 532,-84.5 532,-82.5 326,-82.5"/>
<polygon fill="#000000" stroke="transparent" points="326,-80.5 326,-82.5 532,-82.5 532,-80.5 326,-80.5"/>
<text text-anchor="start" x="330" y="-67.3" font-family="arial" font-size="14.00">X1:4:CTS</text>
<text text-anchor="start" x="395" y="-67.3" font-family="arial" font-size="14.00"> &#160;&#160;&#160;&#160;4:OG &#160;&#160;&#160;</text>
<text text-anchor="start" x="469" y="-67.3" font-family="arial" font-size="14.00">X2:7:RTS</text>
<polygon fill="#000000" stroke="transparent" points="326,-59.5 326,-61.5 532,-61.5 532,-59.5 326,-59.5"/>
<polygon fill="#ff8000" stroke="transparent" points="326,-57.5 326,-59.5 532,-59.5 532,-57.5 326,-57.5"/>
<polygon fill="#000000" stroke="transparent" points="326,-55.5 326,-57.5 532,-57.5 532,-55.5 326,-55.5"/>
<text text-anchor="start" x="330" y="-42.3" font-family="arial" font-size="14.00">X1:5:RTS</text>
<text text-anchor="start" x="397" y="-42.3" font-family="arial" font-size="14.00"> &#160;&#160;&#160;&#160;5:YE &#160;&#160;&#160;</text>
<text text-anchor="start" x="469" y="-42.3" font-family="arial" font-size="14.00">X2:8:CTS</text>
<polygon fill="#000000" stroke="transparent" points="326,-34.5 326,-36.5 532,-36.5 532,-34.5 326,-34.5"/>
<polygon fill="#ffff00" stroke="transparent" points="326,-32.5 326,-34.5 532,-34.5 532,-32.5 326,-32.5"/>
<polygon fill="#000000" stroke="transparent" points="326,-30.5 326,-32.5 532,-32.5 532,-30.5 326,-30.5"/>
<text text-anchor="start" x="357.5" y="-17.3" font-family="arial" font-size="14.00"> </text>
</g>
<!-- X1&#45;&#45;W1 -->
<g id="edge1" class="edge">
<title>X1:e&#45;&#45;W1:w</title>
<path fill="none" stroke="#000000" stroke-width="2" d="M182,-128.5C246.38,-128.53 262.36,-131.53 326,-131.5"/>
<path fill="none" stroke="#000000" stroke-width="2" d="M182,-130.5C246.01,-130.5 261.99,-133.5 326,-133.5"/>
<path fill="none" stroke="#000000" stroke-width="2" d="M182,-132.5C245.64,-132.47 261.62,-135.47 326,-135.5"/>
</g>
<!-- X1&#45;&#45;W1 -->
<g id="edge3" class="edge">
<title>X1:e&#45;&#45;W1:w</title>
<path fill="none" stroke="#000000" stroke-width="2" d="M182,-104.5C246.25,-104.52 262.24,-106.52 326,-106.5"/>
<path fill="none" stroke="#895956" stroke-width="2" d="M182,-106.5C246.01,-106.5 261.99,-108.5 326,-108.5"/>
<path fill="none" stroke="#000000" stroke-width="2" d="M182,-108.5C245.76,-108.48 261.75,-110.48 326,-110.5"/>
</g>
<!-- X1&#45;&#45;W1 -->
<g id="edge5" class="edge">
<title>X1:e&#45;&#45;W1:w</title>
<path fill="none" stroke="#000000" stroke-width="2" d="M182,-81.5C246,-81.5 262,-81.5 326,-81.5"/>
<path fill="none" stroke="#ff0000" stroke-width="2" d="M182,-83.5C246,-83.5 262,-83.5 326,-83.5"/>
<path fill="none" stroke="#000000" stroke-width="2" d="M182,-85.5C246,-85.5 262,-85.5 326,-85.5"/>
</g>
<!-- X1&#45;&#45;W1 -->
<g id="edge7" class="edge">
<title>X1:e&#45;&#45;W1:w</title>
<path fill="none" stroke="#000000" stroke-width="2" d="M182,-58.5C245.76,-58.52 261.75,-56.52 326,-56.5"/>
<path fill="none" stroke="#ff8000" stroke-width="2" d="M182,-60.5C246.01,-60.5 261.99,-58.5 326,-58.5"/>
<path fill="none" stroke="#000000" stroke-width="2" d="M182,-62.5C246.25,-62.48 262.24,-60.48 326,-60.5"/>
</g>
<!-- X1&#45;&#45;W1 -->
<g id="edge9" class="edge">
<title>X1:e&#45;&#45;W1:w</title>
<path fill="none" stroke="#000000" stroke-width="2" d="M182,-35.5C245.54,-35.56 261.49,-31.56 326,-31.5"/>
<path fill="none" stroke="#ffff00" stroke-width="2" d="M182,-37.5C246.02,-37.5 261.98,-33.5 326,-33.5"/>
<path fill="none" stroke="#000000" stroke-width="2" d="M182,-39.5C246.51,-39.44 262.46,-35.44 326,-35.5"/>
</g>
<!-- W1&#45;&#45;X2 -->
<g id="edge2" class="edge">
<title>W1:e&#45;&#45;X2:w</title>
<path fill="none" stroke="#000000" stroke-width="2" d="M532,-131.5C595.62,-132.72 608.69,-101.72 676,-100.5"/>
<path fill="none" stroke="#000000" stroke-width="2" d="M532,-133.5C597.47,-133.5 610.53,-102.5 676,-102.5"/>
<path fill="none" stroke="#000000" stroke-width="2" d="M532,-135.5C599.31,-134.28 612.38,-103.28 676,-104.5"/>
</g>
<!-- W1&#45;&#45;X2 -->
<g id="edge4" class="edge">
<title>W1:e&#45;&#45;X2:w</title>
<path fill="none" stroke="#000000" stroke-width="2" d="M532,-106.5C604.03,-108.38 607.96,-172.38 676,-170.5"/>
<path fill="none" stroke="#895956" stroke-width="2" d="M532,-108.5C602.04,-108.5 605.96,-172.5 676,-172.5"/>
<path fill="none" stroke="#000000" stroke-width="2" d="M532,-110.5C600.04,-108.62 603.97,-172.62 676,-174.5"/>
</g>
<!-- W1&#45;&#45;X2 -->
<g id="edge6" class="edge">
<title>W1:e&#45;&#45;X2:w</title>
<path fill="none" stroke="#000000" stroke-width="2" d="M532,-81.5C604.4,-83.4 607.6,-149.4 676,-147.5"/>
<path fill="none" stroke="#ff0000" stroke-width="2" d="M532,-83.5C602.4,-83.5 605.6,-149.5 676,-149.5"/>
<path fill="none" stroke="#000000" stroke-width="2" d="M532,-85.5C600.4,-83.6 603.6,-149.6 676,-151.5"/>
</g>
<!-- W1&#45;&#45;X2 -->
<g id="edge8" class="edge">
<title>W1:e&#45;&#45;X2:w</title>
<path fill="none" stroke="#000000" stroke-width="2" d="M532,-56.5C595.76,-56.52 611.75,-54.52 676,-54.5"/>
<path fill="none" stroke="#ff8000" stroke-width="2" d="M532,-58.5C596.01,-58.5 611.99,-56.5 676,-56.5"/>
<path fill="none" stroke="#000000" stroke-width="2" d="M532,-60.5C596.25,-60.48 612.24,-58.48 676,-58.5"/>
</g>
<!-- W1&#45;&#45;X2 -->
<g id="edge10" class="edge">
<title>W1:e&#45;&#45;X2:w</title>
<path fill="none" stroke="#000000" stroke-width="2" d="M532,-31.5C596,-31.5 612,-31.5 676,-31.5"/>
<path fill="none" stroke="#ffff00" stroke-width="2" d="M532,-33.5C596,-33.5 612,-33.5 676,-33.5"/>
<path fill="none" stroke="#000000" stroke-width="2" d="M532,-35.5C596,-35.5 612,-35.5 676,-35.5"/>
</g>
</g>
</svg>
