%TF.GenerationSoftware,KiCad,Pcbnew,5.1.6+dfsg1-1~bpo10+1*%
%TF.CreationDate,2020-07-04T22:20:21+02:00*%
%TF.ProjectId,Model-M-USB,4d6f6465-6c2d-44d2-9d55-53422e6b6963,rev?*%
%TF.SameCoordinates,Original*%
%TF.FileFunction,Legend,Top*%
%TF.FilePolarity,Positive*%
%FSLAX46Y46*%
G04 Gerber Fmt 4.6, Leading zero omitted, Abs format (unit mm)*
G04 Created by KiCad (PCBNEW 5.1.6+dfsg1-1~bpo10+1) date 2020-07-04 22:20:21*
%MOMM*%
%LPD*%
G01*
G04 APERTURE LIST*
%ADD10C,0.200000*%
%ADD11C,0.150000*%
%ADD12C,0.600000*%
%ADD13C,0.120000*%
%ADD14C,0.100000*%
G04 APERTURE END LIST*
D10*
X175123809Y-91088095D02*
X175123809Y-89788095D01*
X175866666Y-91088095D01*
X175866666Y-89788095D01*
X177042857Y-90221428D02*
X177042857Y-91088095D01*
X176485714Y-90221428D02*
X176485714Y-90902380D01*
X176547619Y-91026190D01*
X176671428Y-91088095D01*
X176857142Y-91088095D01*
X176980952Y-91026190D01*
X177042857Y-90964285D01*
X177661904Y-91088095D02*
X177661904Y-90221428D01*
X177661904Y-90345238D02*
X177723809Y-90283333D01*
X177847619Y-90221428D01*
X178033333Y-90221428D01*
X178157142Y-90283333D01*
X178219047Y-90407142D01*
X178219047Y-91088095D01*
X178219047Y-90407142D02*
X178280952Y-90283333D01*
X178404761Y-90221428D01*
X178590476Y-90221428D01*
X178714285Y-90283333D01*
X178776190Y-90407142D01*
X178776190Y-91088095D01*
X175050000Y-88626190D02*
X175235714Y-88688095D01*
X175545238Y-88688095D01*
X175669047Y-88626190D01*
X175730952Y-88564285D01*
X175792857Y-88440476D01*
X175792857Y-88316666D01*
X175730952Y-88192857D01*
X175669047Y-88130952D01*
X175545238Y-88069047D01*
X175297619Y-88007142D01*
X175173809Y-87945238D01*
X175111904Y-87883333D01*
X175050000Y-87759523D01*
X175050000Y-87635714D01*
X175111904Y-87511904D01*
X175173809Y-87450000D01*
X175297619Y-87388095D01*
X175607142Y-87388095D01*
X175792857Y-87450000D01*
X176907142Y-88626190D02*
X176783333Y-88688095D01*
X176535714Y-88688095D01*
X176411904Y-88626190D01*
X176350000Y-88564285D01*
X176288095Y-88440476D01*
X176288095Y-88069047D01*
X176350000Y-87945238D01*
X176411904Y-87883333D01*
X176535714Y-87821428D01*
X176783333Y-87821428D01*
X176907142Y-87883333D01*
X177464285Y-88688095D02*
X177464285Y-87821428D01*
X177464285Y-88069047D02*
X177526190Y-87945238D01*
X177588095Y-87883333D01*
X177711904Y-87821428D01*
X177835714Y-87821428D01*
X178454761Y-88688095D02*
X178330952Y-88626190D01*
X178269047Y-88564285D01*
X178207142Y-88440476D01*
X178207142Y-88069047D01*
X178269047Y-87945238D01*
X178330952Y-87883333D01*
X178454761Y-87821428D01*
X178640476Y-87821428D01*
X178764285Y-87883333D01*
X178826190Y-87945238D01*
X178888095Y-88069047D01*
X178888095Y-88440476D01*
X178826190Y-88564285D01*
X178764285Y-88626190D01*
X178640476Y-88688095D01*
X178454761Y-88688095D01*
X179630952Y-88688095D02*
X179507142Y-88626190D01*
X179445238Y-88502380D01*
X179445238Y-87388095D01*
X180311904Y-88688095D02*
X180188095Y-88626190D01*
X180126190Y-88502380D01*
X180126190Y-87388095D01*
X175900000Y-83414285D02*
X175838095Y-83476190D01*
X175652380Y-83538095D01*
X175528571Y-83538095D01*
X175342857Y-83476190D01*
X175219047Y-83352380D01*
X175157142Y-83228571D01*
X175095238Y-82980952D01*
X175095238Y-82795238D01*
X175157142Y-82547619D01*
X175219047Y-82423809D01*
X175342857Y-82300000D01*
X175528571Y-82238095D01*
X175652380Y-82238095D01*
X175838095Y-82300000D01*
X175900000Y-82361904D01*
X177014285Y-83538095D02*
X177014285Y-82857142D01*
X176952380Y-82733333D01*
X176828571Y-82671428D01*
X176580952Y-82671428D01*
X176457142Y-82733333D01*
X177014285Y-83476190D02*
X176890476Y-83538095D01*
X176580952Y-83538095D01*
X176457142Y-83476190D01*
X176395238Y-83352380D01*
X176395238Y-83228571D01*
X176457142Y-83104761D01*
X176580952Y-83042857D01*
X176890476Y-83042857D01*
X177014285Y-82980952D01*
X177633333Y-82671428D02*
X177633333Y-83971428D01*
X177633333Y-82733333D02*
X177757142Y-82671428D01*
X178004761Y-82671428D01*
X178128571Y-82733333D01*
X178190476Y-82795238D01*
X178252380Y-82919047D01*
X178252380Y-83290476D01*
X178190476Y-83414285D01*
X178128571Y-83476190D01*
X178004761Y-83538095D01*
X177757142Y-83538095D01*
X177633333Y-83476190D01*
X178747619Y-83476190D02*
X178871428Y-83538095D01*
X179119047Y-83538095D01*
X179242857Y-83476190D01*
X179304761Y-83352380D01*
X179304761Y-83290476D01*
X179242857Y-83166666D01*
X179119047Y-83104761D01*
X178933333Y-83104761D01*
X178809523Y-83042857D01*
X178747619Y-82919047D01*
X178747619Y-82857142D01*
X178809523Y-82733333D01*
X178933333Y-82671428D01*
X179119047Y-82671428D01*
X179242857Y-82733333D01*
X175809523Y-92450000D02*
X175685714Y-92388095D01*
X175500000Y-92388095D01*
X175314285Y-92450000D01*
X175190476Y-92573809D01*
X175128571Y-92697619D01*
X175066666Y-92945238D01*
X175066666Y-93130952D01*
X175128571Y-93378571D01*
X175190476Y-93502380D01*
X175314285Y-93626190D01*
X175500000Y-93688095D01*
X175623809Y-93688095D01*
X175809523Y-93626190D01*
X175871428Y-93564285D01*
X175871428Y-93130952D01*
X175623809Y-93130952D01*
X176428571Y-93688095D02*
X176428571Y-92388095D01*
X177171428Y-93688095D01*
X177171428Y-92388095D01*
X177790476Y-93688095D02*
X177790476Y-92388095D01*
X178100000Y-92388095D01*
X178285714Y-92450000D01*
X178409523Y-92573809D01*
X178471428Y-92697619D01*
X178533333Y-92945238D01*
X178533333Y-93130952D01*
X178471428Y-93378571D01*
X178409523Y-93502380D01*
X178285714Y-93626190D01*
X178100000Y-93688095D01*
X177790476Y-93688095D01*
X175066666Y-84788095D02*
X175500000Y-86088095D01*
X175933333Y-84788095D01*
X177109523Y-85964285D02*
X177047619Y-86026190D01*
X176861904Y-86088095D01*
X176738095Y-86088095D01*
X176552380Y-86026190D01*
X176428571Y-85902380D01*
X176366666Y-85778571D01*
X176304761Y-85530952D01*
X176304761Y-85345238D01*
X176366666Y-85097619D01*
X176428571Y-84973809D01*
X176552380Y-84850000D01*
X176738095Y-84788095D01*
X176861904Y-84788095D01*
X177047619Y-84850000D01*
X177109523Y-84911904D01*
X178409523Y-85964285D02*
X178347619Y-86026190D01*
X178161904Y-86088095D01*
X178038095Y-86088095D01*
X177852380Y-86026190D01*
X177728571Y-85902380D01*
X177666666Y-85778571D01*
X177604761Y-85530952D01*
X177604761Y-85345238D01*
X177666666Y-85097619D01*
X177728571Y-84973809D01*
X177852380Y-84850000D01*
X178038095Y-84788095D01*
X178161904Y-84788095D01*
X178347619Y-84850000D01*
X178409523Y-84911904D01*
D11*
X182038095Y-77304761D02*
X182180952Y-77352380D01*
X182419047Y-77352380D01*
X182514285Y-77304761D01*
X182561904Y-77257142D01*
X182609523Y-77161904D01*
X182609523Y-77066666D01*
X182561904Y-76971428D01*
X182514285Y-76923809D01*
X182419047Y-76876190D01*
X182228571Y-76828571D01*
X182133333Y-76780952D01*
X182085714Y-76733333D01*
X182038095Y-76638095D01*
X182038095Y-76542857D01*
X182085714Y-76447619D01*
X182133333Y-76400000D01*
X182228571Y-76352380D01*
X182466666Y-76352380D01*
X182609523Y-76400000D01*
X183038095Y-76685714D02*
X183038095Y-77685714D01*
X183038095Y-76733333D02*
X183133333Y-76685714D01*
X183323809Y-76685714D01*
X183419047Y-76733333D01*
X183466666Y-76780952D01*
X183514285Y-76876190D01*
X183514285Y-77161904D01*
X183466666Y-77257142D01*
X183419047Y-77304761D01*
X183323809Y-77352380D01*
X183133333Y-77352380D01*
X183038095Y-77304761D01*
X184323809Y-77304761D02*
X184228571Y-77352380D01*
X184038095Y-77352380D01*
X183942857Y-77304761D01*
X183895238Y-77209523D01*
X183895238Y-76828571D01*
X183942857Y-76733333D01*
X184038095Y-76685714D01*
X184228571Y-76685714D01*
X184323809Y-76733333D01*
X184371428Y-76828571D01*
X184371428Y-76923809D01*
X183895238Y-77019047D01*
X185228571Y-77352380D02*
X185228571Y-76828571D01*
X185180952Y-76733333D01*
X185085714Y-76685714D01*
X184895238Y-76685714D01*
X184800000Y-76733333D01*
X185228571Y-77304761D02*
X185133333Y-77352380D01*
X184895238Y-77352380D01*
X184800000Y-77304761D01*
X184752380Y-77209523D01*
X184752380Y-77114285D01*
X184800000Y-77019047D01*
X184895238Y-76971428D01*
X185133333Y-76971428D01*
X185228571Y-76923809D01*
X185704761Y-77352380D02*
X185704761Y-76352380D01*
X185800000Y-76971428D02*
X186085714Y-77352380D01*
X186085714Y-76685714D02*
X185704761Y-77066666D01*
X186895238Y-77304761D02*
X186800000Y-77352380D01*
X186609523Y-77352380D01*
X186514285Y-77304761D01*
X186466666Y-77209523D01*
X186466666Y-76828571D01*
X186514285Y-76733333D01*
X186609523Y-76685714D01*
X186800000Y-76685714D01*
X186895238Y-76733333D01*
X186942857Y-76828571D01*
X186942857Y-76923809D01*
X186466666Y-77019047D01*
X187371428Y-77352380D02*
X187371428Y-76685714D01*
X187371428Y-76876190D02*
X187419047Y-76780952D01*
X187466666Y-76733333D01*
X187561904Y-76685714D01*
X187657142Y-76685714D01*
X182052380Y-96252380D02*
X181576190Y-96252380D01*
X181576190Y-95252380D01*
X182385714Y-95728571D02*
X182719047Y-95728571D01*
X182861904Y-96252380D02*
X182385714Y-96252380D01*
X182385714Y-95252380D01*
X182861904Y-95252380D01*
X183290476Y-96252380D02*
X183290476Y-95252380D01*
X183528571Y-95252380D01*
X183671428Y-95300000D01*
X183766666Y-95395238D01*
X183814285Y-95490476D01*
X183861904Y-95680952D01*
X183861904Y-95823809D01*
X183814285Y-96014285D01*
X183766666Y-96109523D01*
X183671428Y-96204761D01*
X183528571Y-96252380D01*
X183290476Y-96252380D01*
X184242857Y-96204761D02*
X184338095Y-96252380D01*
X184528571Y-96252380D01*
X184623809Y-96204761D01*
X184671428Y-96109523D01*
X184671428Y-96061904D01*
X184623809Y-95966666D01*
X184528571Y-95919047D01*
X184385714Y-95919047D01*
X184290476Y-95871428D01*
X184242857Y-95776190D01*
X184242857Y-95728571D01*
X184290476Y-95633333D01*
X184385714Y-95585714D01*
X184528571Y-95585714D01*
X184623809Y-95633333D01*
X182652380Y-66952380D02*
X182176190Y-66952380D01*
X182176190Y-65952380D01*
X182985714Y-66428571D02*
X183319047Y-66428571D01*
X183461904Y-66952380D02*
X182985714Y-66952380D01*
X182985714Y-65952380D01*
X183461904Y-65952380D01*
X183890476Y-66952380D02*
X183890476Y-65952380D01*
X184128571Y-65952380D01*
X184271428Y-66000000D01*
X184366666Y-66095238D01*
X184414285Y-66190476D01*
X184461904Y-66380952D01*
X184461904Y-66523809D01*
X184414285Y-66714285D01*
X184366666Y-66809523D01*
X184271428Y-66904761D01*
X184128571Y-66952380D01*
X183890476Y-66952380D01*
X184842857Y-66904761D02*
X184938095Y-66952380D01*
X185128571Y-66952380D01*
X185223809Y-66904761D01*
X185271428Y-66809523D01*
X185271428Y-66761904D01*
X185223809Y-66666666D01*
X185128571Y-66619047D01*
X184985714Y-66619047D01*
X184890476Y-66571428D01*
X184842857Y-66476190D01*
X184842857Y-66428571D01*
X184890476Y-66333333D01*
X184985714Y-66285714D01*
X185128571Y-66285714D01*
X185223809Y-66333333D01*
D10*
X140480952Y-68588095D02*
X140480952Y-67288095D01*
X141038095Y-68526190D02*
X141223809Y-68588095D01*
X141533333Y-68588095D01*
X141657142Y-68526190D01*
X141719047Y-68464285D01*
X141780952Y-68340476D01*
X141780952Y-68216666D01*
X141719047Y-68092857D01*
X141657142Y-68030952D01*
X141533333Y-67969047D01*
X141285714Y-67907142D01*
X141161904Y-67845238D01*
X141100000Y-67783333D01*
X141038095Y-67659523D01*
X141038095Y-67535714D01*
X141100000Y-67411904D01*
X141161904Y-67350000D01*
X141285714Y-67288095D01*
X141595238Y-67288095D01*
X141780952Y-67350000D01*
X142338095Y-68588095D02*
X142338095Y-67288095D01*
X142833333Y-67288095D01*
X142957142Y-67350000D01*
X143019047Y-67411904D01*
X143080952Y-67535714D01*
X143080952Y-67721428D01*
X143019047Y-67845238D01*
X142957142Y-67907142D01*
X142833333Y-67969047D01*
X142338095Y-67969047D01*
X90152380Y-66966666D02*
X89676190Y-67300000D01*
X90152380Y-67538095D02*
X89152380Y-67538095D01*
X89152380Y-67157142D01*
X89200000Y-67061904D01*
X89247619Y-67014285D01*
X89342857Y-66966666D01*
X89485714Y-66966666D01*
X89580952Y-67014285D01*
X89628571Y-67061904D01*
X89676190Y-67157142D01*
X89676190Y-67538095D01*
X89152380Y-66633333D02*
X90152380Y-65966666D01*
X89152380Y-65966666D02*
X90152380Y-66633333D01*
X90152380Y-65585714D02*
X89152380Y-65585714D01*
X89152380Y-65347619D01*
X89200000Y-65204761D01*
X89295238Y-65109523D01*
X89390476Y-65061904D01*
X89580952Y-65014285D01*
X89723809Y-65014285D01*
X89914285Y-65061904D01*
X90009523Y-65109523D01*
X90104761Y-65204761D01*
X90152380Y-65347619D01*
X90152380Y-65585714D01*
X86652380Y-67561904D02*
X86652380Y-66990476D01*
X87652380Y-67276190D02*
X86652380Y-67276190D01*
X86652380Y-66752380D02*
X87652380Y-66085714D01*
X86652380Y-66085714D02*
X87652380Y-66752380D01*
X87652380Y-65704761D02*
X86652380Y-65704761D01*
X86652380Y-65466666D01*
X86700000Y-65323809D01*
X86795238Y-65228571D01*
X86890476Y-65180952D01*
X87080952Y-65133333D01*
X87223809Y-65133333D01*
X87414285Y-65180952D01*
X87509523Y-65228571D01*
X87604761Y-65323809D01*
X87652380Y-65466666D01*
X87652380Y-65704761D01*
X84052380Y-67533333D02*
X85052380Y-67200000D01*
X84052380Y-66866666D01*
X84957142Y-65961904D02*
X85004761Y-66009523D01*
X85052380Y-66152380D01*
X85052380Y-66247619D01*
X85004761Y-66390476D01*
X84909523Y-66485714D01*
X84814285Y-66533333D01*
X84623809Y-66580952D01*
X84480952Y-66580952D01*
X84290476Y-66533333D01*
X84195238Y-66485714D01*
X84100000Y-66390476D01*
X84052380Y-66247619D01*
X84052380Y-66152380D01*
X84100000Y-66009523D01*
X84147619Y-65961904D01*
X84957142Y-64961904D02*
X85004761Y-65009523D01*
X85052380Y-65152380D01*
X85052380Y-65247619D01*
X85004761Y-65390476D01*
X84909523Y-65485714D01*
X84814285Y-65533333D01*
X84623809Y-65580952D01*
X84480952Y-65580952D01*
X84290476Y-65533333D01*
X84195238Y-65485714D01*
X84100000Y-65390476D01*
X84052380Y-65247619D01*
X84052380Y-65152380D01*
X84100000Y-65009523D01*
X84147619Y-64961904D01*
X81600000Y-66961904D02*
X81552380Y-67057142D01*
X81552380Y-67200000D01*
X81600000Y-67342857D01*
X81695238Y-67438095D01*
X81790476Y-67485714D01*
X81980952Y-67533333D01*
X82123809Y-67533333D01*
X82314285Y-67485714D01*
X82409523Y-67438095D01*
X82504761Y-67342857D01*
X82552380Y-67200000D01*
X82552380Y-67104761D01*
X82504761Y-66961904D01*
X82457142Y-66914285D01*
X82123809Y-66914285D01*
X82123809Y-67104761D01*
X82552380Y-66485714D02*
X81552380Y-66485714D01*
X82552380Y-65914285D01*
X81552380Y-65914285D01*
X82552380Y-65438095D02*
X81552380Y-65438095D01*
X81552380Y-65200000D01*
X81600000Y-65057142D01*
X81695238Y-64961904D01*
X81790476Y-64914285D01*
X81980952Y-64866666D01*
X82123809Y-64866666D01*
X82314285Y-64914285D01*
X82409523Y-64961904D01*
X82504761Y-65057142D01*
X82552380Y-65200000D01*
X82552380Y-65438095D01*
D12*
X137200000Y-66700000D02*
G75*
G03*
X137200000Y-66700000I-300000J0D01*
G01*
D13*
X104385000Y-94425000D02*
X98135000Y-94425000D01*
X104385000Y-89375000D02*
X98135000Y-89375000D01*
X98135000Y-89375000D02*
G75*
G03*
X98135000Y-94425000I0J-2525000D01*
G01*
X104385000Y-89375000D02*
G75*
G02*
X104385000Y-94425000I0J-2525000D01*
G01*
X96028733Y-71790000D02*
X96371267Y-71790000D01*
X96028733Y-72810000D02*
X96371267Y-72810000D01*
X92170000Y-61670000D02*
X92170000Y-64330000D01*
X130330000Y-61670000D02*
X92170000Y-61670000D01*
X130330000Y-64330000D02*
X92170000Y-64330000D01*
X130330000Y-61670000D02*
X130330000Y-64330000D01*
X131600000Y-61670000D02*
X132930000Y-61670000D01*
X132930000Y-61670000D02*
X132930000Y-63000000D01*
X92971267Y-76060000D02*
X92628733Y-76060000D01*
X92971267Y-75040000D02*
X92628733Y-75040000D01*
X86230000Y-67920000D02*
X86230000Y-70580000D01*
X88830000Y-67920000D02*
X86230000Y-67920000D01*
X88830000Y-70580000D02*
X86230000Y-70580000D01*
X88830000Y-67920000D02*
X88830000Y-70580000D01*
X90100000Y-67920000D02*
X91430000Y-67920000D01*
X91430000Y-67920000D02*
X91430000Y-69250000D01*
D14*
G36*
X153550000Y-80150000D02*
G01*
X153550000Y-79750000D01*
X153150000Y-79750000D01*
X153150000Y-80150000D01*
X153550000Y-80150000D01*
G37*
G36*
X153950000Y-80150000D02*
G01*
X153950000Y-79750000D01*
X153550000Y-79750000D01*
X153550000Y-80150000D01*
X153950000Y-80150000D01*
G37*
G36*
X154350000Y-80150000D02*
G01*
X154350000Y-79750000D01*
X153950000Y-79750000D01*
X153950000Y-80150000D01*
X154350000Y-80150000D01*
G37*
G36*
X154750000Y-80150000D02*
G01*
X154750000Y-79750000D01*
X154350000Y-79750000D01*
X154350000Y-80150000D01*
X154750000Y-80150000D01*
G37*
G36*
X155150000Y-80150000D02*
G01*
X155150000Y-79750000D01*
X154750000Y-79750000D01*
X154750000Y-80150000D01*
X155150000Y-80150000D01*
G37*
G36*
X155550000Y-80150000D02*
G01*
X155550000Y-79750000D01*
X155150000Y-79750000D01*
X155150000Y-80150000D01*
X155550000Y-80150000D01*
G37*
G36*
X155950000Y-80150000D02*
G01*
X155950000Y-79750000D01*
X155550000Y-79750000D01*
X155550000Y-80150000D01*
X155950000Y-80150000D01*
G37*
G36*
X157150000Y-80150000D02*
G01*
X157150000Y-79750000D01*
X156750000Y-79750000D01*
X156750000Y-80150000D01*
X157150000Y-80150000D01*
G37*
G36*
X157550000Y-80150000D02*
G01*
X157550000Y-79750000D01*
X157150000Y-79750000D01*
X157150000Y-80150000D01*
X157550000Y-80150000D01*
G37*
G36*
X158350000Y-80150000D02*
G01*
X158350000Y-79750000D01*
X157950000Y-79750000D01*
X157950000Y-80150000D01*
X158350000Y-80150000D01*
G37*
G36*
X159150000Y-80150000D02*
G01*
X159150000Y-79750000D01*
X158750000Y-79750000D01*
X158750000Y-80150000D01*
X159150000Y-80150000D01*
G37*
G36*
X159550000Y-80150000D02*
G01*
X159550000Y-79750000D01*
X159150000Y-79750000D01*
X159150000Y-80150000D01*
X159550000Y-80150000D01*
G37*
G36*
X161950000Y-80150000D02*
G01*
X161950000Y-79750000D01*
X161550000Y-79750000D01*
X161550000Y-80150000D01*
X161950000Y-80150000D01*
G37*
G36*
X162750000Y-80150000D02*
G01*
X162750000Y-79750000D01*
X162350000Y-79750000D01*
X162350000Y-80150000D01*
X162750000Y-80150000D01*
G37*
G36*
X163150000Y-80150000D02*
G01*
X163150000Y-79750000D01*
X162750000Y-79750000D01*
X162750000Y-80150000D01*
X163150000Y-80150000D01*
G37*
G36*
X163950000Y-80150000D02*
G01*
X163950000Y-79750000D01*
X163550000Y-79750000D01*
X163550000Y-80150000D01*
X163950000Y-80150000D01*
G37*
G36*
X164350000Y-80150000D02*
G01*
X164350000Y-79750000D01*
X163950000Y-79750000D01*
X163950000Y-80150000D01*
X164350000Y-80150000D01*
G37*
G36*
X164750000Y-80150000D02*
G01*
X164750000Y-79750000D01*
X164350000Y-79750000D01*
X164350000Y-80150000D01*
X164750000Y-80150000D01*
G37*
G36*
X165150000Y-80150000D02*
G01*
X165150000Y-79750000D01*
X164750000Y-79750000D01*
X164750000Y-80150000D01*
X165150000Y-80150000D01*
G37*
G36*
X165550000Y-80150000D02*
G01*
X165550000Y-79750000D01*
X165150000Y-79750000D01*
X165150000Y-80150000D01*
X165550000Y-80150000D01*
G37*
G36*
X165950000Y-80150000D02*
G01*
X165950000Y-79750000D01*
X165550000Y-79750000D01*
X165550000Y-80150000D01*
X165950000Y-80150000D01*
G37*
G36*
X166350000Y-80150000D02*
G01*
X166350000Y-79750000D01*
X165950000Y-79750000D01*
X165950000Y-80150000D01*
X166350000Y-80150000D01*
G37*
G36*
X153550000Y-80550000D02*
G01*
X153550000Y-80150000D01*
X153150000Y-80150000D01*
X153150000Y-80550000D01*
X153550000Y-80550000D01*
G37*
G36*
X155950000Y-80550000D02*
G01*
X155950000Y-80150000D01*
X155550000Y-80150000D01*
X155550000Y-80550000D01*
X155950000Y-80550000D01*
G37*
G36*
X157150000Y-80550000D02*
G01*
X157150000Y-80150000D01*
X156750000Y-80150000D01*
X156750000Y-80550000D01*
X157150000Y-80550000D01*
G37*
G36*
X157550000Y-80550000D02*
G01*
X157550000Y-80150000D01*
X157150000Y-80150000D01*
X157150000Y-80550000D01*
X157550000Y-80550000D01*
G37*
G36*
X157950000Y-80550000D02*
G01*
X157950000Y-80150000D01*
X157550000Y-80150000D01*
X157550000Y-80550000D01*
X157950000Y-80550000D01*
G37*
G36*
X159550000Y-80550000D02*
G01*
X159550000Y-80150000D01*
X159150000Y-80150000D01*
X159150000Y-80550000D01*
X159550000Y-80550000D01*
G37*
G36*
X159950000Y-80550000D02*
G01*
X159950000Y-80150000D01*
X159550000Y-80150000D01*
X159550000Y-80550000D01*
X159950000Y-80550000D01*
G37*
G36*
X160750000Y-80550000D02*
G01*
X160750000Y-80150000D01*
X160350000Y-80150000D01*
X160350000Y-80550000D01*
X160750000Y-80550000D01*
G37*
G36*
X161550000Y-80550000D02*
G01*
X161550000Y-80150000D01*
X161150000Y-80150000D01*
X161150000Y-80550000D01*
X161550000Y-80550000D01*
G37*
G36*
X161950000Y-80550000D02*
G01*
X161950000Y-80150000D01*
X161550000Y-80150000D01*
X161550000Y-80550000D01*
X161950000Y-80550000D01*
G37*
G36*
X163150000Y-80550000D02*
G01*
X163150000Y-80150000D01*
X162750000Y-80150000D01*
X162750000Y-80550000D01*
X163150000Y-80550000D01*
G37*
G36*
X163950000Y-80550000D02*
G01*
X163950000Y-80150000D01*
X163550000Y-80150000D01*
X163550000Y-80550000D01*
X163950000Y-80550000D01*
G37*
G36*
X166350000Y-80550000D02*
G01*
X166350000Y-80150000D01*
X165950000Y-80150000D01*
X165950000Y-80550000D01*
X166350000Y-80550000D01*
G37*
G36*
X153550000Y-80950000D02*
G01*
X153550000Y-80550000D01*
X153150000Y-80550000D01*
X153150000Y-80950000D01*
X153550000Y-80950000D01*
G37*
G36*
X154350000Y-80950000D02*
G01*
X154350000Y-80550000D01*
X153950000Y-80550000D01*
X153950000Y-80950000D01*
X154350000Y-80950000D01*
G37*
G36*
X154750000Y-80950000D02*
G01*
X154750000Y-80550000D01*
X154350000Y-80550000D01*
X154350000Y-80950000D01*
X154750000Y-80950000D01*
G37*
G36*
X155150000Y-80950000D02*
G01*
X155150000Y-80550000D01*
X154750000Y-80550000D01*
X154750000Y-80950000D01*
X155150000Y-80950000D01*
G37*
G36*
X155950000Y-80950000D02*
G01*
X155950000Y-80550000D01*
X155550000Y-80550000D01*
X155550000Y-80950000D01*
X155950000Y-80950000D01*
G37*
G36*
X156750000Y-80950000D02*
G01*
X156750000Y-80550000D01*
X156350000Y-80550000D01*
X156350000Y-80950000D01*
X156750000Y-80950000D01*
G37*
G36*
X158350000Y-80950000D02*
G01*
X158350000Y-80550000D01*
X157950000Y-80550000D01*
X157950000Y-80950000D01*
X158350000Y-80950000D01*
G37*
G36*
X159150000Y-80950000D02*
G01*
X159150000Y-80550000D01*
X158750000Y-80550000D01*
X158750000Y-80950000D01*
X159150000Y-80950000D01*
G37*
G36*
X159550000Y-80950000D02*
G01*
X159550000Y-80550000D01*
X159150000Y-80550000D01*
X159150000Y-80950000D01*
X159550000Y-80950000D01*
G37*
G36*
X161950000Y-80950000D02*
G01*
X161950000Y-80550000D01*
X161550000Y-80550000D01*
X161550000Y-80950000D01*
X161950000Y-80950000D01*
G37*
G36*
X162350000Y-80950000D02*
G01*
X162350000Y-80550000D01*
X161950000Y-80550000D01*
X161950000Y-80950000D01*
X162350000Y-80950000D01*
G37*
G36*
X162750000Y-80950000D02*
G01*
X162750000Y-80550000D01*
X162350000Y-80550000D01*
X162350000Y-80950000D01*
X162750000Y-80950000D01*
G37*
G36*
X163950000Y-80950000D02*
G01*
X163950000Y-80550000D01*
X163550000Y-80550000D01*
X163550000Y-80950000D01*
X163950000Y-80950000D01*
G37*
G36*
X164750000Y-80950000D02*
G01*
X164750000Y-80550000D01*
X164350000Y-80550000D01*
X164350000Y-80950000D01*
X164750000Y-80950000D01*
G37*
G36*
X165150000Y-80950000D02*
G01*
X165150000Y-80550000D01*
X164750000Y-80550000D01*
X164750000Y-80950000D01*
X165150000Y-80950000D01*
G37*
G36*
X165550000Y-80950000D02*
G01*
X165550000Y-80550000D01*
X165150000Y-80550000D01*
X165150000Y-80950000D01*
X165550000Y-80950000D01*
G37*
G36*
X166350000Y-80950000D02*
G01*
X166350000Y-80550000D01*
X165950000Y-80550000D01*
X165950000Y-80950000D01*
X166350000Y-80950000D01*
G37*
G36*
X153550000Y-81350000D02*
G01*
X153550000Y-80950000D01*
X153150000Y-80950000D01*
X153150000Y-81350000D01*
X153550000Y-81350000D01*
G37*
G36*
X154350000Y-81350000D02*
G01*
X154350000Y-80950000D01*
X153950000Y-80950000D01*
X153950000Y-81350000D01*
X154350000Y-81350000D01*
G37*
G36*
X154750000Y-81350000D02*
G01*
X154750000Y-80950000D01*
X154350000Y-80950000D01*
X154350000Y-81350000D01*
X154750000Y-81350000D01*
G37*
G36*
X155150000Y-81350000D02*
G01*
X155150000Y-80950000D01*
X154750000Y-80950000D01*
X154750000Y-81350000D01*
X155150000Y-81350000D01*
G37*
G36*
X155950000Y-81350000D02*
G01*
X155950000Y-80950000D01*
X155550000Y-80950000D01*
X155550000Y-81350000D01*
X155950000Y-81350000D01*
G37*
G36*
X156750000Y-81350000D02*
G01*
X156750000Y-80950000D01*
X156350000Y-80950000D01*
X156350000Y-81350000D01*
X156750000Y-81350000D01*
G37*
G36*
X157150000Y-81350000D02*
G01*
X157150000Y-80950000D01*
X156750000Y-80950000D01*
X156750000Y-81350000D01*
X157150000Y-81350000D01*
G37*
G36*
X157950000Y-81350000D02*
G01*
X157950000Y-80950000D01*
X157550000Y-80950000D01*
X157550000Y-81350000D01*
X157950000Y-81350000D01*
G37*
G36*
X159550000Y-81350000D02*
G01*
X159550000Y-80950000D01*
X159150000Y-80950000D01*
X159150000Y-81350000D01*
X159550000Y-81350000D01*
G37*
G36*
X160750000Y-81350000D02*
G01*
X160750000Y-80950000D01*
X160350000Y-80950000D01*
X160350000Y-81350000D01*
X160750000Y-81350000D01*
G37*
G36*
X161950000Y-81350000D02*
G01*
X161950000Y-80950000D01*
X161550000Y-80950000D01*
X161550000Y-81350000D01*
X161950000Y-81350000D01*
G37*
G36*
X162750000Y-81350000D02*
G01*
X162750000Y-80950000D01*
X162350000Y-80950000D01*
X162350000Y-81350000D01*
X162750000Y-81350000D01*
G37*
G36*
X163150000Y-81350000D02*
G01*
X163150000Y-80950000D01*
X162750000Y-80950000D01*
X162750000Y-81350000D01*
X163150000Y-81350000D01*
G37*
G36*
X163950000Y-81350000D02*
G01*
X163950000Y-80950000D01*
X163550000Y-80950000D01*
X163550000Y-81350000D01*
X163950000Y-81350000D01*
G37*
G36*
X164750000Y-81350000D02*
G01*
X164750000Y-80950000D01*
X164350000Y-80950000D01*
X164350000Y-81350000D01*
X164750000Y-81350000D01*
G37*
G36*
X165150000Y-81350000D02*
G01*
X165150000Y-80950000D01*
X164750000Y-80950000D01*
X164750000Y-81350000D01*
X165150000Y-81350000D01*
G37*
G36*
X165550000Y-81350000D02*
G01*
X165550000Y-80950000D01*
X165150000Y-80950000D01*
X165150000Y-81350000D01*
X165550000Y-81350000D01*
G37*
G36*
X166350000Y-81350000D02*
G01*
X166350000Y-80950000D01*
X165950000Y-80950000D01*
X165950000Y-81350000D01*
X166350000Y-81350000D01*
G37*
G36*
X153550000Y-81750000D02*
G01*
X153550000Y-81350000D01*
X153150000Y-81350000D01*
X153150000Y-81750000D01*
X153550000Y-81750000D01*
G37*
G36*
X154350000Y-81750000D02*
G01*
X154350000Y-81350000D01*
X153950000Y-81350000D01*
X153950000Y-81750000D01*
X154350000Y-81750000D01*
G37*
G36*
X154750000Y-81750000D02*
G01*
X154750000Y-81350000D01*
X154350000Y-81350000D01*
X154350000Y-81750000D01*
X154750000Y-81750000D01*
G37*
G36*
X155150000Y-81750000D02*
G01*
X155150000Y-81350000D01*
X154750000Y-81350000D01*
X154750000Y-81750000D01*
X155150000Y-81750000D01*
G37*
G36*
X155950000Y-81750000D02*
G01*
X155950000Y-81350000D01*
X155550000Y-81350000D01*
X155550000Y-81750000D01*
X155950000Y-81750000D01*
G37*
G36*
X156750000Y-81750000D02*
G01*
X156750000Y-81350000D01*
X156350000Y-81350000D01*
X156350000Y-81750000D01*
X156750000Y-81750000D01*
G37*
G36*
X157150000Y-81750000D02*
G01*
X157150000Y-81350000D01*
X156750000Y-81350000D01*
X156750000Y-81750000D01*
X157150000Y-81750000D01*
G37*
G36*
X157950000Y-81750000D02*
G01*
X157950000Y-81350000D01*
X157550000Y-81350000D01*
X157550000Y-81750000D01*
X157950000Y-81750000D01*
G37*
G36*
X158350000Y-81750000D02*
G01*
X158350000Y-81350000D01*
X157950000Y-81350000D01*
X157950000Y-81750000D01*
X158350000Y-81750000D01*
G37*
G36*
X158750000Y-81750000D02*
G01*
X158750000Y-81350000D01*
X158350000Y-81350000D01*
X158350000Y-81750000D01*
X158750000Y-81750000D01*
G37*
G36*
X159150000Y-81750000D02*
G01*
X159150000Y-81350000D01*
X158750000Y-81350000D01*
X158750000Y-81750000D01*
X159150000Y-81750000D01*
G37*
G36*
X159550000Y-81750000D02*
G01*
X159550000Y-81350000D01*
X159150000Y-81350000D01*
X159150000Y-81750000D01*
X159550000Y-81750000D01*
G37*
G36*
X159950000Y-81750000D02*
G01*
X159950000Y-81350000D01*
X159550000Y-81350000D01*
X159550000Y-81750000D01*
X159950000Y-81750000D01*
G37*
G36*
X160350000Y-81750000D02*
G01*
X160350000Y-81350000D01*
X159950000Y-81350000D01*
X159950000Y-81750000D01*
X160350000Y-81750000D01*
G37*
G36*
X161550000Y-81750000D02*
G01*
X161550000Y-81350000D01*
X161150000Y-81350000D01*
X161150000Y-81750000D01*
X161550000Y-81750000D01*
G37*
G36*
X162350000Y-81750000D02*
G01*
X162350000Y-81350000D01*
X161950000Y-81350000D01*
X161950000Y-81750000D01*
X162350000Y-81750000D01*
G37*
G36*
X163950000Y-81750000D02*
G01*
X163950000Y-81350000D01*
X163550000Y-81350000D01*
X163550000Y-81750000D01*
X163950000Y-81750000D01*
G37*
G36*
X164750000Y-81750000D02*
G01*
X164750000Y-81350000D01*
X164350000Y-81350000D01*
X164350000Y-81750000D01*
X164750000Y-81750000D01*
G37*
G36*
X165150000Y-81750000D02*
G01*
X165150000Y-81350000D01*
X164750000Y-81350000D01*
X164750000Y-81750000D01*
X165150000Y-81750000D01*
G37*
G36*
X165550000Y-81750000D02*
G01*
X165550000Y-81350000D01*
X165150000Y-81350000D01*
X165150000Y-81750000D01*
X165550000Y-81750000D01*
G37*
G36*
X166350000Y-81750000D02*
G01*
X166350000Y-81350000D01*
X165950000Y-81350000D01*
X165950000Y-81750000D01*
X166350000Y-81750000D01*
G37*
G36*
X153550000Y-82150000D02*
G01*
X153550000Y-81750000D01*
X153150000Y-81750000D01*
X153150000Y-82150000D01*
X153550000Y-82150000D01*
G37*
G36*
X155950000Y-82150000D02*
G01*
X155950000Y-81750000D01*
X155550000Y-81750000D01*
X155550000Y-82150000D01*
X155950000Y-82150000D01*
G37*
G36*
X156750000Y-82150000D02*
G01*
X156750000Y-81750000D01*
X156350000Y-81750000D01*
X156350000Y-82150000D01*
X156750000Y-82150000D01*
G37*
G36*
X158750000Y-82150000D02*
G01*
X158750000Y-81750000D01*
X158350000Y-81750000D01*
X158350000Y-82150000D01*
X158750000Y-82150000D01*
G37*
G36*
X159150000Y-82150000D02*
G01*
X159150000Y-81750000D01*
X158750000Y-81750000D01*
X158750000Y-82150000D01*
X159150000Y-82150000D01*
G37*
G36*
X160350000Y-82150000D02*
G01*
X160350000Y-81750000D01*
X159950000Y-81750000D01*
X159950000Y-82150000D01*
X160350000Y-82150000D01*
G37*
G36*
X161150000Y-82150000D02*
G01*
X161150000Y-81750000D01*
X160750000Y-81750000D01*
X160750000Y-82150000D01*
X161150000Y-82150000D01*
G37*
G36*
X162350000Y-82150000D02*
G01*
X162350000Y-81750000D01*
X161950000Y-81750000D01*
X161950000Y-82150000D01*
X162350000Y-82150000D01*
G37*
G36*
X162750000Y-82150000D02*
G01*
X162750000Y-81750000D01*
X162350000Y-81750000D01*
X162350000Y-82150000D01*
X162750000Y-82150000D01*
G37*
G36*
X163150000Y-82150000D02*
G01*
X163150000Y-81750000D01*
X162750000Y-81750000D01*
X162750000Y-82150000D01*
X163150000Y-82150000D01*
G37*
G36*
X163950000Y-82150000D02*
G01*
X163950000Y-81750000D01*
X163550000Y-81750000D01*
X163550000Y-82150000D01*
X163950000Y-82150000D01*
G37*
G36*
X166350000Y-82150000D02*
G01*
X166350000Y-81750000D01*
X165950000Y-81750000D01*
X165950000Y-82150000D01*
X166350000Y-82150000D01*
G37*
G36*
X153550000Y-82550000D02*
G01*
X153550000Y-82150000D01*
X153150000Y-82150000D01*
X153150000Y-82550000D01*
X153550000Y-82550000D01*
G37*
G36*
X153950000Y-82550000D02*
G01*
X153950000Y-82150000D01*
X153550000Y-82150000D01*
X153550000Y-82550000D01*
X153950000Y-82550000D01*
G37*
G36*
X154350000Y-82550000D02*
G01*
X154350000Y-82150000D01*
X153950000Y-82150000D01*
X153950000Y-82550000D01*
X154350000Y-82550000D01*
G37*
G36*
X154750000Y-82550000D02*
G01*
X154750000Y-82150000D01*
X154350000Y-82150000D01*
X154350000Y-82550000D01*
X154750000Y-82550000D01*
G37*
G36*
X155150000Y-82550000D02*
G01*
X155150000Y-82150000D01*
X154750000Y-82150000D01*
X154750000Y-82550000D01*
X155150000Y-82550000D01*
G37*
G36*
X155550000Y-82550000D02*
G01*
X155550000Y-82150000D01*
X155150000Y-82150000D01*
X155150000Y-82550000D01*
X155550000Y-82550000D01*
G37*
G36*
X155950000Y-82550000D02*
G01*
X155950000Y-82150000D01*
X155550000Y-82150000D01*
X155550000Y-82550000D01*
X155950000Y-82550000D01*
G37*
G36*
X156750000Y-82550000D02*
G01*
X156750000Y-82150000D01*
X156350000Y-82150000D01*
X156350000Y-82550000D01*
X156750000Y-82550000D01*
G37*
G36*
X157550000Y-82550000D02*
G01*
X157550000Y-82150000D01*
X157150000Y-82150000D01*
X157150000Y-82550000D01*
X157550000Y-82550000D01*
G37*
G36*
X158350000Y-82550000D02*
G01*
X158350000Y-82150000D01*
X157950000Y-82150000D01*
X157950000Y-82550000D01*
X158350000Y-82550000D01*
G37*
G36*
X159150000Y-82550000D02*
G01*
X159150000Y-82150000D01*
X158750000Y-82150000D01*
X158750000Y-82550000D01*
X159150000Y-82550000D01*
G37*
G36*
X159950000Y-82550000D02*
G01*
X159950000Y-82150000D01*
X159550000Y-82150000D01*
X159550000Y-82550000D01*
X159950000Y-82550000D01*
G37*
G36*
X160750000Y-82550000D02*
G01*
X160750000Y-82150000D01*
X160350000Y-82150000D01*
X160350000Y-82550000D01*
X160750000Y-82550000D01*
G37*
G36*
X161550000Y-82550000D02*
G01*
X161550000Y-82150000D01*
X161150000Y-82150000D01*
X161150000Y-82550000D01*
X161550000Y-82550000D01*
G37*
G36*
X162350000Y-82550000D02*
G01*
X162350000Y-82150000D01*
X161950000Y-82150000D01*
X161950000Y-82550000D01*
X162350000Y-82550000D01*
G37*
G36*
X163150000Y-82550000D02*
G01*
X163150000Y-82150000D01*
X162750000Y-82150000D01*
X162750000Y-82550000D01*
X163150000Y-82550000D01*
G37*
G36*
X163950000Y-82550000D02*
G01*
X163950000Y-82150000D01*
X163550000Y-82150000D01*
X163550000Y-82550000D01*
X163950000Y-82550000D01*
G37*
G36*
X164350000Y-82550000D02*
G01*
X164350000Y-82150000D01*
X163950000Y-82150000D01*
X163950000Y-82550000D01*
X164350000Y-82550000D01*
G37*
G36*
X164750000Y-82550000D02*
G01*
X164750000Y-82150000D01*
X164350000Y-82150000D01*
X164350000Y-82550000D01*
X164750000Y-82550000D01*
G37*
G36*
X165150000Y-82550000D02*
G01*
X165150000Y-82150000D01*
X164750000Y-82150000D01*
X164750000Y-82550000D01*
X165150000Y-82550000D01*
G37*
G36*
X165550000Y-82550000D02*
G01*
X165550000Y-82150000D01*
X165150000Y-82150000D01*
X165150000Y-82550000D01*
X165550000Y-82550000D01*
G37*
G36*
X165950000Y-82550000D02*
G01*
X165950000Y-82150000D01*
X165550000Y-82150000D01*
X165550000Y-82550000D01*
X165950000Y-82550000D01*
G37*
G36*
X166350000Y-82550000D02*
G01*
X166350000Y-82150000D01*
X165950000Y-82150000D01*
X165950000Y-82550000D01*
X166350000Y-82550000D01*
G37*
G36*
X156750000Y-82950000D02*
G01*
X156750000Y-82550000D01*
X156350000Y-82550000D01*
X156350000Y-82950000D01*
X156750000Y-82950000D01*
G37*
G36*
X157950000Y-82950000D02*
G01*
X157950000Y-82550000D01*
X157550000Y-82550000D01*
X157550000Y-82950000D01*
X157950000Y-82950000D01*
G37*
G36*
X158350000Y-82950000D02*
G01*
X158350000Y-82550000D01*
X157950000Y-82550000D01*
X157950000Y-82950000D01*
X158350000Y-82950000D01*
G37*
G36*
X158750000Y-82950000D02*
G01*
X158750000Y-82550000D01*
X158350000Y-82550000D01*
X158350000Y-82950000D01*
X158750000Y-82950000D01*
G37*
G36*
X159950000Y-82950000D02*
G01*
X159950000Y-82550000D01*
X159550000Y-82550000D01*
X159550000Y-82950000D01*
X159950000Y-82950000D01*
G37*
G36*
X160350000Y-82950000D02*
G01*
X160350000Y-82550000D01*
X159950000Y-82550000D01*
X159950000Y-82950000D01*
X160350000Y-82950000D01*
G37*
G36*
X160750000Y-82950000D02*
G01*
X160750000Y-82550000D01*
X160350000Y-82550000D01*
X160350000Y-82950000D01*
X160750000Y-82950000D01*
G37*
G36*
X161150000Y-82950000D02*
G01*
X161150000Y-82550000D01*
X160750000Y-82550000D01*
X160750000Y-82950000D01*
X161150000Y-82950000D01*
G37*
G36*
X161550000Y-82950000D02*
G01*
X161550000Y-82550000D01*
X161150000Y-82550000D01*
X161150000Y-82950000D01*
X161550000Y-82950000D01*
G37*
G36*
X161950000Y-82950000D02*
G01*
X161950000Y-82550000D01*
X161550000Y-82550000D01*
X161550000Y-82950000D01*
X161950000Y-82950000D01*
G37*
G36*
X162750000Y-82950000D02*
G01*
X162750000Y-82550000D01*
X162350000Y-82550000D01*
X162350000Y-82950000D01*
X162750000Y-82950000D01*
G37*
G36*
X153550000Y-83350000D02*
G01*
X153550000Y-82950000D01*
X153150000Y-82950000D01*
X153150000Y-83350000D01*
X153550000Y-83350000D01*
G37*
G36*
X154350000Y-83350000D02*
G01*
X154350000Y-82950000D01*
X153950000Y-82950000D01*
X153950000Y-83350000D01*
X154350000Y-83350000D01*
G37*
G36*
X154750000Y-83350000D02*
G01*
X154750000Y-82950000D01*
X154350000Y-82950000D01*
X154350000Y-83350000D01*
X154750000Y-83350000D01*
G37*
G36*
X155150000Y-83350000D02*
G01*
X155150000Y-82950000D01*
X154750000Y-82950000D01*
X154750000Y-83350000D01*
X155150000Y-83350000D01*
G37*
G36*
X155550000Y-83350000D02*
G01*
X155550000Y-82950000D01*
X155150000Y-82950000D01*
X155150000Y-83350000D01*
X155550000Y-83350000D01*
G37*
G36*
X155950000Y-83350000D02*
G01*
X155950000Y-82950000D01*
X155550000Y-82950000D01*
X155550000Y-83350000D01*
X155950000Y-83350000D01*
G37*
G36*
X158350000Y-83350000D02*
G01*
X158350000Y-82950000D01*
X157950000Y-82950000D01*
X157950000Y-83350000D01*
X158350000Y-83350000D01*
G37*
G36*
X159150000Y-83350000D02*
G01*
X159150000Y-82950000D01*
X158750000Y-82950000D01*
X158750000Y-83350000D01*
X159150000Y-83350000D01*
G37*
G36*
X161150000Y-83350000D02*
G01*
X161150000Y-82950000D01*
X160750000Y-82950000D01*
X160750000Y-83350000D01*
X161150000Y-83350000D01*
G37*
G36*
X162350000Y-83350000D02*
G01*
X162350000Y-82950000D01*
X161950000Y-82950000D01*
X161950000Y-83350000D01*
X162350000Y-83350000D01*
G37*
G36*
X162750000Y-83350000D02*
G01*
X162750000Y-82950000D01*
X162350000Y-82950000D01*
X162350000Y-83350000D01*
X162750000Y-83350000D01*
G37*
G36*
X163150000Y-83350000D02*
G01*
X163150000Y-82950000D01*
X162750000Y-82950000D01*
X162750000Y-83350000D01*
X163150000Y-83350000D01*
G37*
G36*
X163950000Y-83350000D02*
G01*
X163950000Y-82950000D01*
X163550000Y-82950000D01*
X163550000Y-83350000D01*
X163950000Y-83350000D01*
G37*
G36*
X164350000Y-83350000D02*
G01*
X164350000Y-82950000D01*
X163950000Y-82950000D01*
X163950000Y-83350000D01*
X164350000Y-83350000D01*
G37*
G36*
X164750000Y-83350000D02*
G01*
X164750000Y-82950000D01*
X164350000Y-82950000D01*
X164350000Y-83350000D01*
X164750000Y-83350000D01*
G37*
G36*
X165150000Y-83350000D02*
G01*
X165150000Y-82950000D01*
X164750000Y-82950000D01*
X164750000Y-83350000D01*
X165150000Y-83350000D01*
G37*
G36*
X165550000Y-83350000D02*
G01*
X165550000Y-82950000D01*
X165150000Y-82950000D01*
X165150000Y-83350000D01*
X165550000Y-83350000D01*
G37*
G36*
X154750000Y-83750000D02*
G01*
X154750000Y-83350000D01*
X154350000Y-83350000D01*
X154350000Y-83750000D01*
X154750000Y-83750000D01*
G37*
G36*
X156350000Y-83750000D02*
G01*
X156350000Y-83350000D01*
X155950000Y-83350000D01*
X155950000Y-83750000D01*
X156350000Y-83750000D01*
G37*
G36*
X156750000Y-83750000D02*
G01*
X156750000Y-83350000D01*
X156350000Y-83350000D01*
X156350000Y-83750000D01*
X156750000Y-83750000D01*
G37*
G36*
X157150000Y-83750000D02*
G01*
X157150000Y-83350000D01*
X156750000Y-83350000D01*
X156750000Y-83750000D01*
X157150000Y-83750000D01*
G37*
G36*
X158350000Y-83750000D02*
G01*
X158350000Y-83350000D01*
X157950000Y-83350000D01*
X157950000Y-83750000D01*
X158350000Y-83750000D01*
G37*
G36*
X158750000Y-83750000D02*
G01*
X158750000Y-83350000D01*
X158350000Y-83350000D01*
X158350000Y-83750000D01*
X158750000Y-83750000D01*
G37*
G36*
X159550000Y-83750000D02*
G01*
X159550000Y-83350000D01*
X159150000Y-83350000D01*
X159150000Y-83750000D01*
X159550000Y-83750000D01*
G37*
G36*
X159950000Y-83750000D02*
G01*
X159950000Y-83350000D01*
X159550000Y-83350000D01*
X159550000Y-83750000D01*
X159950000Y-83750000D01*
G37*
G36*
X160350000Y-83750000D02*
G01*
X160350000Y-83350000D01*
X159950000Y-83350000D01*
X159950000Y-83750000D01*
X160350000Y-83750000D01*
G37*
G36*
X160750000Y-83750000D02*
G01*
X160750000Y-83350000D01*
X160350000Y-83350000D01*
X160350000Y-83750000D01*
X160750000Y-83750000D01*
G37*
G36*
X161550000Y-83750000D02*
G01*
X161550000Y-83350000D01*
X161150000Y-83350000D01*
X161150000Y-83750000D01*
X161550000Y-83750000D01*
G37*
G36*
X162750000Y-83750000D02*
G01*
X162750000Y-83350000D01*
X162350000Y-83350000D01*
X162350000Y-83750000D01*
X162750000Y-83750000D01*
G37*
G36*
X163550000Y-83750000D02*
G01*
X163550000Y-83350000D01*
X163150000Y-83350000D01*
X163150000Y-83750000D01*
X163550000Y-83750000D01*
G37*
G36*
X163950000Y-83750000D02*
G01*
X163950000Y-83350000D01*
X163550000Y-83350000D01*
X163550000Y-83750000D01*
X163950000Y-83750000D01*
G37*
G36*
X165150000Y-83750000D02*
G01*
X165150000Y-83350000D01*
X164750000Y-83350000D01*
X164750000Y-83750000D01*
X165150000Y-83750000D01*
G37*
G36*
X165550000Y-83750000D02*
G01*
X165550000Y-83350000D01*
X165150000Y-83350000D01*
X165150000Y-83750000D01*
X165550000Y-83750000D01*
G37*
G36*
X165950000Y-83750000D02*
G01*
X165950000Y-83350000D01*
X165550000Y-83350000D01*
X165550000Y-83750000D01*
X165950000Y-83750000D01*
G37*
G36*
X154350000Y-84150000D02*
G01*
X154350000Y-83750000D01*
X153950000Y-83750000D01*
X153950000Y-84150000D01*
X154350000Y-84150000D01*
G37*
G36*
X155950000Y-84150000D02*
G01*
X155950000Y-83750000D01*
X155550000Y-83750000D01*
X155550000Y-84150000D01*
X155950000Y-84150000D01*
G37*
G36*
X156750000Y-84150000D02*
G01*
X156750000Y-83750000D01*
X156350000Y-83750000D01*
X156350000Y-84150000D01*
X156750000Y-84150000D01*
G37*
G36*
X157550000Y-84150000D02*
G01*
X157550000Y-83750000D01*
X157150000Y-83750000D01*
X157150000Y-84150000D01*
X157550000Y-84150000D01*
G37*
G36*
X157950000Y-84150000D02*
G01*
X157950000Y-83750000D01*
X157550000Y-83750000D01*
X157550000Y-84150000D01*
X157950000Y-84150000D01*
G37*
G36*
X158750000Y-84150000D02*
G01*
X158750000Y-83750000D01*
X158350000Y-83750000D01*
X158350000Y-84150000D01*
X158750000Y-84150000D01*
G37*
G36*
X159150000Y-84150000D02*
G01*
X159150000Y-83750000D01*
X158750000Y-83750000D01*
X158750000Y-84150000D01*
X159150000Y-84150000D01*
G37*
G36*
X160350000Y-84150000D02*
G01*
X160350000Y-83750000D01*
X159950000Y-83750000D01*
X159950000Y-84150000D01*
X160350000Y-84150000D01*
G37*
G36*
X161150000Y-84150000D02*
G01*
X161150000Y-83750000D01*
X160750000Y-83750000D01*
X160750000Y-84150000D01*
X161150000Y-84150000D01*
G37*
G36*
X162350000Y-84150000D02*
G01*
X162350000Y-83750000D01*
X161950000Y-83750000D01*
X161950000Y-84150000D01*
X162350000Y-84150000D01*
G37*
G36*
X164350000Y-84150000D02*
G01*
X164350000Y-83750000D01*
X163950000Y-83750000D01*
X163950000Y-84150000D01*
X164350000Y-84150000D01*
G37*
G36*
X165150000Y-84150000D02*
G01*
X165150000Y-83750000D01*
X164750000Y-83750000D01*
X164750000Y-84150000D01*
X165150000Y-84150000D01*
G37*
G36*
X153550000Y-84550000D02*
G01*
X153550000Y-84150000D01*
X153150000Y-84150000D01*
X153150000Y-84550000D01*
X153550000Y-84550000D01*
G37*
G36*
X154350000Y-84550000D02*
G01*
X154350000Y-84150000D01*
X153950000Y-84150000D01*
X153950000Y-84550000D01*
X154350000Y-84550000D01*
G37*
G36*
X155550000Y-84550000D02*
G01*
X155550000Y-84150000D01*
X155150000Y-84150000D01*
X155150000Y-84550000D01*
X155550000Y-84550000D01*
G37*
G36*
X156350000Y-84550000D02*
G01*
X156350000Y-84150000D01*
X155950000Y-84150000D01*
X155950000Y-84550000D01*
X156350000Y-84550000D01*
G37*
G36*
X156750000Y-84550000D02*
G01*
X156750000Y-84150000D01*
X156350000Y-84150000D01*
X156350000Y-84550000D01*
X156750000Y-84550000D01*
G37*
G36*
X157550000Y-84550000D02*
G01*
X157550000Y-84150000D01*
X157150000Y-84150000D01*
X157150000Y-84550000D01*
X157550000Y-84550000D01*
G37*
G36*
X157950000Y-84550000D02*
G01*
X157950000Y-84150000D01*
X157550000Y-84150000D01*
X157550000Y-84550000D01*
X157950000Y-84550000D01*
G37*
G36*
X158750000Y-84550000D02*
G01*
X158750000Y-84150000D01*
X158350000Y-84150000D01*
X158350000Y-84550000D01*
X158750000Y-84550000D01*
G37*
G36*
X159950000Y-84550000D02*
G01*
X159950000Y-84150000D01*
X159550000Y-84150000D01*
X159550000Y-84550000D01*
X159950000Y-84550000D01*
G37*
G36*
X160350000Y-84550000D02*
G01*
X160350000Y-84150000D01*
X159950000Y-84150000D01*
X159950000Y-84550000D01*
X160350000Y-84550000D01*
G37*
G36*
X160750000Y-84550000D02*
G01*
X160750000Y-84150000D01*
X160350000Y-84150000D01*
X160350000Y-84550000D01*
X160750000Y-84550000D01*
G37*
G36*
X161150000Y-84550000D02*
G01*
X161150000Y-84150000D01*
X160750000Y-84150000D01*
X160750000Y-84550000D01*
X161150000Y-84550000D01*
G37*
G36*
X161550000Y-84550000D02*
G01*
X161550000Y-84150000D01*
X161150000Y-84150000D01*
X161150000Y-84550000D01*
X161550000Y-84550000D01*
G37*
G36*
X163550000Y-84550000D02*
G01*
X163550000Y-84150000D01*
X163150000Y-84150000D01*
X163150000Y-84550000D01*
X163550000Y-84550000D01*
G37*
G36*
X164350000Y-84550000D02*
G01*
X164350000Y-84150000D01*
X163950000Y-84150000D01*
X163950000Y-84550000D01*
X164350000Y-84550000D01*
G37*
G36*
X164750000Y-84550000D02*
G01*
X164750000Y-84150000D01*
X164350000Y-84150000D01*
X164350000Y-84550000D01*
X164750000Y-84550000D01*
G37*
G36*
X165150000Y-84550000D02*
G01*
X165150000Y-84150000D01*
X164750000Y-84150000D01*
X164750000Y-84550000D01*
X165150000Y-84550000D01*
G37*
G36*
X165550000Y-84550000D02*
G01*
X165550000Y-84150000D01*
X165150000Y-84150000D01*
X165150000Y-84550000D01*
X165550000Y-84550000D01*
G37*
G36*
X165950000Y-84550000D02*
G01*
X165950000Y-84150000D01*
X165550000Y-84150000D01*
X165550000Y-84550000D01*
X165950000Y-84550000D01*
G37*
G36*
X153550000Y-84950000D02*
G01*
X153550000Y-84550000D01*
X153150000Y-84550000D01*
X153150000Y-84950000D01*
X153550000Y-84950000D01*
G37*
G36*
X153950000Y-84950000D02*
G01*
X153950000Y-84550000D01*
X153550000Y-84550000D01*
X153550000Y-84950000D01*
X153950000Y-84950000D01*
G37*
G36*
X154350000Y-84950000D02*
G01*
X154350000Y-84550000D01*
X153950000Y-84550000D01*
X153950000Y-84950000D01*
X154350000Y-84950000D01*
G37*
G36*
X155550000Y-84950000D02*
G01*
X155550000Y-84550000D01*
X155150000Y-84550000D01*
X155150000Y-84950000D01*
X155550000Y-84950000D01*
G37*
G36*
X155950000Y-84950000D02*
G01*
X155950000Y-84550000D01*
X155550000Y-84550000D01*
X155550000Y-84950000D01*
X155950000Y-84950000D01*
G37*
G36*
X156350000Y-84950000D02*
G01*
X156350000Y-84550000D01*
X155950000Y-84550000D01*
X155950000Y-84950000D01*
X156350000Y-84950000D01*
G37*
G36*
X157150000Y-84950000D02*
G01*
X157150000Y-84550000D01*
X156750000Y-84550000D01*
X156750000Y-84950000D01*
X157150000Y-84950000D01*
G37*
G36*
X159150000Y-84950000D02*
G01*
X159150000Y-84550000D01*
X158750000Y-84550000D01*
X158750000Y-84950000D01*
X159150000Y-84950000D01*
G37*
G36*
X159950000Y-84950000D02*
G01*
X159950000Y-84550000D01*
X159550000Y-84550000D01*
X159550000Y-84950000D01*
X159950000Y-84950000D01*
G37*
G36*
X161150000Y-84950000D02*
G01*
X161150000Y-84550000D01*
X160750000Y-84550000D01*
X160750000Y-84950000D01*
X161150000Y-84950000D01*
G37*
G36*
X161550000Y-84950000D02*
G01*
X161550000Y-84550000D01*
X161150000Y-84550000D01*
X161150000Y-84950000D01*
X161550000Y-84950000D01*
G37*
G36*
X161950000Y-84950000D02*
G01*
X161950000Y-84550000D01*
X161550000Y-84550000D01*
X161550000Y-84950000D01*
X161950000Y-84950000D01*
G37*
G36*
X162350000Y-84950000D02*
G01*
X162350000Y-84550000D01*
X161950000Y-84550000D01*
X161950000Y-84950000D01*
X162350000Y-84950000D01*
G37*
G36*
X164350000Y-84950000D02*
G01*
X164350000Y-84550000D01*
X163950000Y-84550000D01*
X163950000Y-84950000D01*
X164350000Y-84950000D01*
G37*
G36*
X165150000Y-84950000D02*
G01*
X165150000Y-84550000D01*
X164750000Y-84550000D01*
X164750000Y-84950000D01*
X165150000Y-84950000D01*
G37*
G36*
X155550000Y-85350000D02*
G01*
X155550000Y-84950000D01*
X155150000Y-84950000D01*
X155150000Y-85350000D01*
X155550000Y-85350000D01*
G37*
G36*
X156750000Y-85350000D02*
G01*
X156750000Y-84950000D01*
X156350000Y-84950000D01*
X156350000Y-85350000D01*
X156750000Y-85350000D01*
G37*
G36*
X158350000Y-85350000D02*
G01*
X158350000Y-84950000D01*
X157950000Y-84950000D01*
X157950000Y-85350000D01*
X158350000Y-85350000D01*
G37*
G36*
X158750000Y-85350000D02*
G01*
X158750000Y-84950000D01*
X158350000Y-84950000D01*
X158350000Y-85350000D01*
X158750000Y-85350000D01*
G37*
G36*
X159550000Y-85350000D02*
G01*
X159550000Y-84950000D01*
X159150000Y-84950000D01*
X159150000Y-85350000D01*
X159550000Y-85350000D01*
G37*
G36*
X160750000Y-85350000D02*
G01*
X160750000Y-84950000D01*
X160350000Y-84950000D01*
X160350000Y-85350000D01*
X160750000Y-85350000D01*
G37*
G36*
X163150000Y-85350000D02*
G01*
X163150000Y-84950000D01*
X162750000Y-84950000D01*
X162750000Y-85350000D01*
X163150000Y-85350000D01*
G37*
G36*
X163550000Y-85350000D02*
G01*
X163550000Y-84950000D01*
X163150000Y-84950000D01*
X163150000Y-85350000D01*
X163550000Y-85350000D01*
G37*
G36*
X164750000Y-85350000D02*
G01*
X164750000Y-84950000D01*
X164350000Y-84950000D01*
X164350000Y-85350000D01*
X164750000Y-85350000D01*
G37*
G36*
X165150000Y-85350000D02*
G01*
X165150000Y-84950000D01*
X164750000Y-84950000D01*
X164750000Y-85350000D01*
X165150000Y-85350000D01*
G37*
G36*
X165950000Y-85350000D02*
G01*
X165950000Y-84950000D01*
X165550000Y-84950000D01*
X165550000Y-85350000D01*
X165950000Y-85350000D01*
G37*
G36*
X166350000Y-85350000D02*
G01*
X166350000Y-84950000D01*
X165950000Y-84950000D01*
X165950000Y-85350000D01*
X166350000Y-85350000D01*
G37*
G36*
X154750000Y-85750000D02*
G01*
X154750000Y-85350000D01*
X154350000Y-85350000D01*
X154350000Y-85750000D01*
X154750000Y-85750000D01*
G37*
G36*
X155150000Y-85750000D02*
G01*
X155150000Y-85350000D01*
X154750000Y-85350000D01*
X154750000Y-85750000D01*
X155150000Y-85750000D01*
G37*
G36*
X155950000Y-85750000D02*
G01*
X155950000Y-85350000D01*
X155550000Y-85350000D01*
X155550000Y-85750000D01*
X155950000Y-85750000D01*
G37*
G36*
X156350000Y-85750000D02*
G01*
X156350000Y-85350000D01*
X155950000Y-85350000D01*
X155950000Y-85750000D01*
X156350000Y-85750000D01*
G37*
G36*
X156750000Y-85750000D02*
G01*
X156750000Y-85350000D01*
X156350000Y-85350000D01*
X156350000Y-85750000D01*
X156750000Y-85750000D01*
G37*
G36*
X157950000Y-85750000D02*
G01*
X157950000Y-85350000D01*
X157550000Y-85350000D01*
X157550000Y-85750000D01*
X157950000Y-85750000D01*
G37*
G36*
X158750000Y-85750000D02*
G01*
X158750000Y-85350000D01*
X158350000Y-85350000D01*
X158350000Y-85750000D01*
X158750000Y-85750000D01*
G37*
G36*
X159550000Y-85750000D02*
G01*
X159550000Y-85350000D01*
X159150000Y-85350000D01*
X159150000Y-85750000D01*
X159550000Y-85750000D01*
G37*
G36*
X159950000Y-85750000D02*
G01*
X159950000Y-85350000D01*
X159550000Y-85350000D01*
X159550000Y-85750000D01*
X159950000Y-85750000D01*
G37*
G36*
X160750000Y-85750000D02*
G01*
X160750000Y-85350000D01*
X160350000Y-85350000D01*
X160350000Y-85750000D01*
X160750000Y-85750000D01*
G37*
G36*
X161550000Y-85750000D02*
G01*
X161550000Y-85350000D01*
X161150000Y-85350000D01*
X161150000Y-85750000D01*
X161550000Y-85750000D01*
G37*
G36*
X162350000Y-85750000D02*
G01*
X162350000Y-85350000D01*
X161950000Y-85350000D01*
X161950000Y-85750000D01*
X162350000Y-85750000D01*
G37*
G36*
X163550000Y-85750000D02*
G01*
X163550000Y-85350000D01*
X163150000Y-85350000D01*
X163150000Y-85750000D01*
X163550000Y-85750000D01*
G37*
G36*
X164350000Y-85750000D02*
G01*
X164350000Y-85350000D01*
X163950000Y-85350000D01*
X163950000Y-85750000D01*
X164350000Y-85750000D01*
G37*
G36*
X164750000Y-85750000D02*
G01*
X164750000Y-85350000D01*
X164350000Y-85350000D01*
X164350000Y-85750000D01*
X164750000Y-85750000D01*
G37*
G36*
X165950000Y-85750000D02*
G01*
X165950000Y-85350000D01*
X165550000Y-85350000D01*
X165550000Y-85750000D01*
X165950000Y-85750000D01*
G37*
G36*
X153550000Y-86150000D02*
G01*
X153550000Y-85750000D01*
X153150000Y-85750000D01*
X153150000Y-86150000D01*
X153550000Y-86150000D01*
G37*
G36*
X153950000Y-86150000D02*
G01*
X153950000Y-85750000D01*
X153550000Y-85750000D01*
X153550000Y-86150000D01*
X153950000Y-86150000D01*
G37*
G36*
X154350000Y-86150000D02*
G01*
X154350000Y-85750000D01*
X153950000Y-85750000D01*
X153950000Y-86150000D01*
X154350000Y-86150000D01*
G37*
G36*
X154750000Y-86150000D02*
G01*
X154750000Y-85750000D01*
X154350000Y-85750000D01*
X154350000Y-86150000D01*
X154750000Y-86150000D01*
G37*
G36*
X155150000Y-86150000D02*
G01*
X155150000Y-85750000D01*
X154750000Y-85750000D01*
X154750000Y-86150000D01*
X155150000Y-86150000D01*
G37*
G36*
X156350000Y-86150000D02*
G01*
X156350000Y-85750000D01*
X155950000Y-85750000D01*
X155950000Y-86150000D01*
X156350000Y-86150000D01*
G37*
G36*
X156750000Y-86150000D02*
G01*
X156750000Y-85750000D01*
X156350000Y-85750000D01*
X156350000Y-86150000D01*
X156750000Y-86150000D01*
G37*
G36*
X157550000Y-86150000D02*
G01*
X157550000Y-85750000D01*
X157150000Y-85750000D01*
X157150000Y-86150000D01*
X157550000Y-86150000D01*
G37*
G36*
X157950000Y-86150000D02*
G01*
X157950000Y-85750000D01*
X157550000Y-85750000D01*
X157550000Y-86150000D01*
X157950000Y-86150000D01*
G37*
G36*
X159150000Y-86150000D02*
G01*
X159150000Y-85750000D01*
X158750000Y-85750000D01*
X158750000Y-86150000D01*
X159150000Y-86150000D01*
G37*
G36*
X159550000Y-86150000D02*
G01*
X159550000Y-85750000D01*
X159150000Y-85750000D01*
X159150000Y-86150000D01*
X159550000Y-86150000D01*
G37*
G36*
X161950000Y-86150000D02*
G01*
X161950000Y-85750000D01*
X161550000Y-85750000D01*
X161550000Y-86150000D01*
X161950000Y-86150000D01*
G37*
G36*
X162350000Y-86150000D02*
G01*
X162350000Y-85750000D01*
X161950000Y-85750000D01*
X161950000Y-86150000D01*
X162350000Y-86150000D01*
G37*
G36*
X163150000Y-86150000D02*
G01*
X163150000Y-85750000D01*
X162750000Y-85750000D01*
X162750000Y-86150000D01*
X163150000Y-86150000D01*
G37*
G36*
X163550000Y-86150000D02*
G01*
X163550000Y-85750000D01*
X163150000Y-85750000D01*
X163150000Y-86150000D01*
X163550000Y-86150000D01*
G37*
G36*
X163950000Y-86150000D02*
G01*
X163950000Y-85750000D01*
X163550000Y-85750000D01*
X163550000Y-86150000D01*
X163950000Y-86150000D01*
G37*
G36*
X164750000Y-86150000D02*
G01*
X164750000Y-85750000D01*
X164350000Y-85750000D01*
X164350000Y-86150000D01*
X164750000Y-86150000D01*
G37*
G36*
X165150000Y-86150000D02*
G01*
X165150000Y-85750000D01*
X164750000Y-85750000D01*
X164750000Y-86150000D01*
X165150000Y-86150000D01*
G37*
G36*
X165950000Y-86150000D02*
G01*
X165950000Y-85750000D01*
X165550000Y-85750000D01*
X165550000Y-86150000D01*
X165950000Y-86150000D01*
G37*
G36*
X166350000Y-86150000D02*
G01*
X166350000Y-85750000D01*
X165950000Y-85750000D01*
X165950000Y-86150000D01*
X166350000Y-86150000D01*
G37*
G36*
X153550000Y-86550000D02*
G01*
X153550000Y-86150000D01*
X153150000Y-86150000D01*
X153150000Y-86550000D01*
X153550000Y-86550000D01*
G37*
G36*
X154750000Y-86550000D02*
G01*
X154750000Y-86150000D01*
X154350000Y-86150000D01*
X154350000Y-86550000D01*
X154750000Y-86550000D01*
G37*
G36*
X155950000Y-86550000D02*
G01*
X155950000Y-86150000D01*
X155550000Y-86150000D01*
X155550000Y-86550000D01*
X155950000Y-86550000D01*
G37*
G36*
X156750000Y-86550000D02*
G01*
X156750000Y-86150000D01*
X156350000Y-86150000D01*
X156350000Y-86550000D01*
X156750000Y-86550000D01*
G37*
G36*
X157950000Y-86550000D02*
G01*
X157950000Y-86150000D01*
X157550000Y-86150000D01*
X157550000Y-86550000D01*
X157950000Y-86550000D01*
G37*
G36*
X158350000Y-86550000D02*
G01*
X158350000Y-86150000D01*
X157950000Y-86150000D01*
X157950000Y-86550000D01*
X158350000Y-86550000D01*
G37*
G36*
X159550000Y-86550000D02*
G01*
X159550000Y-86150000D01*
X159150000Y-86150000D01*
X159150000Y-86550000D01*
X159550000Y-86550000D01*
G37*
G36*
X159950000Y-86550000D02*
G01*
X159950000Y-86150000D01*
X159550000Y-86150000D01*
X159550000Y-86550000D01*
X159950000Y-86550000D01*
G37*
G36*
X160750000Y-86550000D02*
G01*
X160750000Y-86150000D01*
X160350000Y-86150000D01*
X160350000Y-86550000D01*
X160750000Y-86550000D01*
G37*
G36*
X161550000Y-86550000D02*
G01*
X161550000Y-86150000D01*
X161150000Y-86150000D01*
X161150000Y-86550000D01*
X161550000Y-86550000D01*
G37*
G36*
X162350000Y-86550000D02*
G01*
X162350000Y-86150000D01*
X161950000Y-86150000D01*
X161950000Y-86550000D01*
X162350000Y-86550000D01*
G37*
G36*
X163150000Y-86550000D02*
G01*
X163150000Y-86150000D01*
X162750000Y-86150000D01*
X162750000Y-86550000D01*
X163150000Y-86550000D01*
G37*
G36*
X163550000Y-86550000D02*
G01*
X163550000Y-86150000D01*
X163150000Y-86150000D01*
X163150000Y-86550000D01*
X163550000Y-86550000D01*
G37*
G36*
X164350000Y-86550000D02*
G01*
X164350000Y-86150000D01*
X163950000Y-86150000D01*
X163950000Y-86550000D01*
X164350000Y-86550000D01*
G37*
G36*
X164750000Y-86550000D02*
G01*
X164750000Y-86150000D01*
X164350000Y-86150000D01*
X164350000Y-86550000D01*
X164750000Y-86550000D01*
G37*
G36*
X165550000Y-86550000D02*
G01*
X165550000Y-86150000D01*
X165150000Y-86150000D01*
X165150000Y-86550000D01*
X165550000Y-86550000D01*
G37*
G36*
X165950000Y-86550000D02*
G01*
X165950000Y-86150000D01*
X165550000Y-86150000D01*
X165550000Y-86550000D01*
X165950000Y-86550000D01*
G37*
G36*
X153550000Y-86950000D02*
G01*
X153550000Y-86550000D01*
X153150000Y-86550000D01*
X153150000Y-86950000D01*
X153550000Y-86950000D01*
G37*
G36*
X153950000Y-86950000D02*
G01*
X153950000Y-86550000D01*
X153550000Y-86550000D01*
X153550000Y-86950000D01*
X153950000Y-86950000D01*
G37*
G36*
X156350000Y-86950000D02*
G01*
X156350000Y-86550000D01*
X155950000Y-86550000D01*
X155950000Y-86950000D01*
X156350000Y-86950000D01*
G37*
G36*
X156750000Y-86950000D02*
G01*
X156750000Y-86550000D01*
X156350000Y-86550000D01*
X156350000Y-86950000D01*
X156750000Y-86950000D01*
G37*
G36*
X157150000Y-86950000D02*
G01*
X157150000Y-86550000D01*
X156750000Y-86550000D01*
X156750000Y-86950000D01*
X157150000Y-86950000D01*
G37*
G36*
X159150000Y-86950000D02*
G01*
X159150000Y-86550000D01*
X158750000Y-86550000D01*
X158750000Y-86950000D01*
X159150000Y-86950000D01*
G37*
G36*
X159550000Y-86950000D02*
G01*
X159550000Y-86550000D01*
X159150000Y-86550000D01*
X159150000Y-86950000D01*
X159550000Y-86950000D01*
G37*
G36*
X161950000Y-86950000D02*
G01*
X161950000Y-86550000D01*
X161550000Y-86550000D01*
X161550000Y-86950000D01*
X161950000Y-86950000D01*
G37*
G36*
X162350000Y-86950000D02*
G01*
X162350000Y-86550000D01*
X161950000Y-86550000D01*
X161950000Y-86950000D01*
X162350000Y-86950000D01*
G37*
G36*
X162750000Y-86950000D02*
G01*
X162750000Y-86550000D01*
X162350000Y-86550000D01*
X162350000Y-86950000D01*
X162750000Y-86950000D01*
G37*
G36*
X163950000Y-86950000D02*
G01*
X163950000Y-86550000D01*
X163550000Y-86550000D01*
X163550000Y-86950000D01*
X163950000Y-86950000D01*
G37*
G36*
X165150000Y-86950000D02*
G01*
X165150000Y-86550000D01*
X164750000Y-86550000D01*
X164750000Y-86950000D01*
X165150000Y-86950000D01*
G37*
G36*
X165550000Y-86950000D02*
G01*
X165550000Y-86550000D01*
X165150000Y-86550000D01*
X165150000Y-86950000D01*
X165550000Y-86950000D01*
G37*
G36*
X153550000Y-87350000D02*
G01*
X153550000Y-86950000D01*
X153150000Y-86950000D01*
X153150000Y-87350000D01*
X153550000Y-87350000D01*
G37*
G36*
X153950000Y-87350000D02*
G01*
X153950000Y-86950000D01*
X153550000Y-86950000D01*
X153550000Y-87350000D01*
X153950000Y-87350000D01*
G37*
G36*
X154350000Y-87350000D02*
G01*
X154350000Y-86950000D01*
X153950000Y-86950000D01*
X153950000Y-87350000D01*
X154350000Y-87350000D01*
G37*
G36*
X155150000Y-87350000D02*
G01*
X155150000Y-86950000D01*
X154750000Y-86950000D01*
X154750000Y-87350000D01*
X155150000Y-87350000D01*
G37*
G36*
X155550000Y-87350000D02*
G01*
X155550000Y-86950000D01*
X155150000Y-86950000D01*
X155150000Y-87350000D01*
X155550000Y-87350000D01*
G37*
G36*
X155950000Y-87350000D02*
G01*
X155950000Y-86950000D01*
X155550000Y-86950000D01*
X155550000Y-87350000D01*
X155950000Y-87350000D01*
G37*
G36*
X156750000Y-87350000D02*
G01*
X156750000Y-86950000D01*
X156350000Y-86950000D01*
X156350000Y-87350000D01*
X156750000Y-87350000D01*
G37*
G36*
X157550000Y-87350000D02*
G01*
X157550000Y-86950000D01*
X157150000Y-86950000D01*
X157150000Y-87350000D01*
X157550000Y-87350000D01*
G37*
G36*
X158350000Y-87350000D02*
G01*
X158350000Y-86950000D01*
X157950000Y-86950000D01*
X157950000Y-87350000D01*
X158350000Y-87350000D01*
G37*
G36*
X158750000Y-87350000D02*
G01*
X158750000Y-86950000D01*
X158350000Y-86950000D01*
X158350000Y-87350000D01*
X158750000Y-87350000D01*
G37*
G36*
X159150000Y-87350000D02*
G01*
X159150000Y-86950000D01*
X158750000Y-86950000D01*
X158750000Y-87350000D01*
X159150000Y-87350000D01*
G37*
G36*
X159550000Y-87350000D02*
G01*
X159550000Y-86950000D01*
X159150000Y-86950000D01*
X159150000Y-87350000D01*
X159550000Y-87350000D01*
G37*
G36*
X159950000Y-87350000D02*
G01*
X159950000Y-86950000D01*
X159550000Y-86950000D01*
X159550000Y-87350000D01*
X159950000Y-87350000D01*
G37*
G36*
X160750000Y-87350000D02*
G01*
X160750000Y-86950000D01*
X160350000Y-86950000D01*
X160350000Y-87350000D01*
X160750000Y-87350000D01*
G37*
G36*
X161550000Y-87350000D02*
G01*
X161550000Y-86950000D01*
X161150000Y-86950000D01*
X161150000Y-87350000D01*
X161550000Y-87350000D01*
G37*
G36*
X161950000Y-87350000D02*
G01*
X161950000Y-86950000D01*
X161550000Y-86950000D01*
X161550000Y-87350000D01*
X161950000Y-87350000D01*
G37*
G36*
X163550000Y-87350000D02*
G01*
X163550000Y-86950000D01*
X163150000Y-86950000D01*
X163150000Y-87350000D01*
X163550000Y-87350000D01*
G37*
G36*
X163950000Y-87350000D02*
G01*
X163950000Y-86950000D01*
X163550000Y-86950000D01*
X163550000Y-87350000D01*
X163950000Y-87350000D01*
G37*
G36*
X164750000Y-87350000D02*
G01*
X164750000Y-86950000D01*
X164350000Y-86950000D01*
X164350000Y-87350000D01*
X164750000Y-87350000D01*
G37*
G36*
X165150000Y-87350000D02*
G01*
X165150000Y-86950000D01*
X164750000Y-86950000D01*
X164750000Y-87350000D01*
X165150000Y-87350000D01*
G37*
G36*
X165950000Y-87350000D02*
G01*
X165950000Y-86950000D01*
X165550000Y-86950000D01*
X165550000Y-87350000D01*
X165950000Y-87350000D01*
G37*
G36*
X166350000Y-87350000D02*
G01*
X166350000Y-86950000D01*
X165950000Y-86950000D01*
X165950000Y-87350000D01*
X166350000Y-87350000D01*
G37*
G36*
X153950000Y-87750000D02*
G01*
X153950000Y-87350000D01*
X153550000Y-87350000D01*
X153550000Y-87750000D01*
X153950000Y-87750000D01*
G37*
G36*
X155550000Y-87750000D02*
G01*
X155550000Y-87350000D01*
X155150000Y-87350000D01*
X155150000Y-87750000D01*
X155550000Y-87750000D01*
G37*
G36*
X156350000Y-87750000D02*
G01*
X156350000Y-87350000D01*
X155950000Y-87350000D01*
X155950000Y-87750000D01*
X156350000Y-87750000D01*
G37*
G36*
X157550000Y-87750000D02*
G01*
X157550000Y-87350000D01*
X157150000Y-87350000D01*
X157150000Y-87750000D01*
X157550000Y-87750000D01*
G37*
G36*
X158350000Y-87750000D02*
G01*
X158350000Y-87350000D01*
X157950000Y-87350000D01*
X157950000Y-87750000D01*
X158350000Y-87750000D01*
G37*
G36*
X159150000Y-87750000D02*
G01*
X159150000Y-87350000D01*
X158750000Y-87350000D01*
X158750000Y-87750000D01*
X159150000Y-87750000D01*
G37*
G36*
X159550000Y-87750000D02*
G01*
X159550000Y-87350000D01*
X159150000Y-87350000D01*
X159150000Y-87750000D01*
X159550000Y-87750000D01*
G37*
G36*
X161950000Y-87750000D02*
G01*
X161950000Y-87350000D01*
X161550000Y-87350000D01*
X161550000Y-87750000D01*
X161950000Y-87750000D01*
G37*
G36*
X162350000Y-87750000D02*
G01*
X162350000Y-87350000D01*
X161950000Y-87350000D01*
X161950000Y-87750000D01*
X162350000Y-87750000D01*
G37*
G36*
X162750000Y-87750000D02*
G01*
X162750000Y-87350000D01*
X162350000Y-87350000D01*
X162350000Y-87750000D01*
X162750000Y-87750000D01*
G37*
G36*
X163950000Y-87750000D02*
G01*
X163950000Y-87350000D01*
X163550000Y-87350000D01*
X163550000Y-87750000D01*
X163950000Y-87750000D01*
G37*
G36*
X164350000Y-87750000D02*
G01*
X164350000Y-87350000D01*
X163950000Y-87350000D01*
X163950000Y-87750000D01*
X164350000Y-87750000D01*
G37*
G36*
X165550000Y-87750000D02*
G01*
X165550000Y-87350000D01*
X165150000Y-87350000D01*
X165150000Y-87750000D01*
X165550000Y-87750000D01*
G37*
G36*
X166350000Y-87750000D02*
G01*
X166350000Y-87350000D01*
X165950000Y-87350000D01*
X165950000Y-87750000D01*
X166350000Y-87750000D01*
G37*
G36*
X154350000Y-88150000D02*
G01*
X154350000Y-87750000D01*
X153950000Y-87750000D01*
X153950000Y-88150000D01*
X154350000Y-88150000D01*
G37*
G36*
X155150000Y-88150000D02*
G01*
X155150000Y-87750000D01*
X154750000Y-87750000D01*
X154750000Y-88150000D01*
X155150000Y-88150000D01*
G37*
G36*
X155950000Y-88150000D02*
G01*
X155950000Y-87750000D01*
X155550000Y-87750000D01*
X155550000Y-88150000D01*
X155950000Y-88150000D01*
G37*
G36*
X156350000Y-88150000D02*
G01*
X156350000Y-87750000D01*
X155950000Y-87750000D01*
X155950000Y-88150000D01*
X156350000Y-88150000D01*
G37*
G36*
X156750000Y-88150000D02*
G01*
X156750000Y-87750000D01*
X156350000Y-87750000D01*
X156350000Y-88150000D01*
X156750000Y-88150000D01*
G37*
G36*
X157550000Y-88150000D02*
G01*
X157550000Y-87750000D01*
X157150000Y-87750000D01*
X157150000Y-88150000D01*
X157550000Y-88150000D01*
G37*
G36*
X157950000Y-88150000D02*
G01*
X157950000Y-87750000D01*
X157550000Y-87750000D01*
X157550000Y-88150000D01*
X157950000Y-88150000D01*
G37*
G36*
X159550000Y-88150000D02*
G01*
X159550000Y-87750000D01*
X159150000Y-87750000D01*
X159150000Y-88150000D01*
X159550000Y-88150000D01*
G37*
G36*
X160750000Y-88150000D02*
G01*
X160750000Y-87750000D01*
X160350000Y-87750000D01*
X160350000Y-88150000D01*
X160750000Y-88150000D01*
G37*
G36*
X161950000Y-88150000D02*
G01*
X161950000Y-87750000D01*
X161550000Y-87750000D01*
X161550000Y-88150000D01*
X161950000Y-88150000D01*
G37*
G36*
X163150000Y-88150000D02*
G01*
X163150000Y-87750000D01*
X162750000Y-87750000D01*
X162750000Y-88150000D01*
X163150000Y-88150000D01*
G37*
G36*
X163550000Y-88150000D02*
G01*
X163550000Y-87750000D01*
X163150000Y-87750000D01*
X163150000Y-88150000D01*
X163550000Y-88150000D01*
G37*
G36*
X163950000Y-88150000D02*
G01*
X163950000Y-87750000D01*
X163550000Y-87750000D01*
X163550000Y-88150000D01*
X163950000Y-88150000D01*
G37*
G36*
X165950000Y-88150000D02*
G01*
X165950000Y-87750000D01*
X165550000Y-87750000D01*
X165550000Y-88150000D01*
X165950000Y-88150000D01*
G37*
G36*
X166350000Y-88150000D02*
G01*
X166350000Y-87750000D01*
X165950000Y-87750000D01*
X165950000Y-88150000D01*
X166350000Y-88150000D01*
G37*
G36*
X153550000Y-88550000D02*
G01*
X153550000Y-88150000D01*
X153150000Y-88150000D01*
X153150000Y-88550000D01*
X153550000Y-88550000D01*
G37*
G36*
X154350000Y-88550000D02*
G01*
X154350000Y-88150000D01*
X153950000Y-88150000D01*
X153950000Y-88550000D01*
X154350000Y-88550000D01*
G37*
G36*
X154750000Y-88550000D02*
G01*
X154750000Y-88150000D01*
X154350000Y-88150000D01*
X154350000Y-88550000D01*
X154750000Y-88550000D01*
G37*
G36*
X155550000Y-88550000D02*
G01*
X155550000Y-88150000D01*
X155150000Y-88150000D01*
X155150000Y-88550000D01*
X155550000Y-88550000D01*
G37*
G36*
X156350000Y-88550000D02*
G01*
X156350000Y-88150000D01*
X155950000Y-88150000D01*
X155950000Y-88550000D01*
X156350000Y-88550000D01*
G37*
G36*
X157150000Y-88550000D02*
G01*
X157150000Y-88150000D01*
X156750000Y-88150000D01*
X156750000Y-88550000D01*
X157150000Y-88550000D01*
G37*
G36*
X159550000Y-88550000D02*
G01*
X159550000Y-88150000D01*
X159150000Y-88150000D01*
X159150000Y-88550000D01*
X159550000Y-88550000D01*
G37*
G36*
X159950000Y-88550000D02*
G01*
X159950000Y-88150000D01*
X159550000Y-88150000D01*
X159550000Y-88550000D01*
X159950000Y-88550000D01*
G37*
G36*
X160350000Y-88550000D02*
G01*
X160350000Y-88150000D01*
X159950000Y-88150000D01*
X159950000Y-88550000D01*
X160350000Y-88550000D01*
G37*
G36*
X161550000Y-88550000D02*
G01*
X161550000Y-88150000D01*
X161150000Y-88150000D01*
X161150000Y-88550000D01*
X161550000Y-88550000D01*
G37*
G36*
X161950000Y-88550000D02*
G01*
X161950000Y-88150000D01*
X161550000Y-88150000D01*
X161550000Y-88550000D01*
X161950000Y-88550000D01*
G37*
G36*
X162350000Y-88550000D02*
G01*
X162350000Y-88150000D01*
X161950000Y-88150000D01*
X161950000Y-88550000D01*
X162350000Y-88550000D01*
G37*
G36*
X164350000Y-88550000D02*
G01*
X164350000Y-88150000D01*
X163950000Y-88150000D01*
X163950000Y-88550000D01*
X164350000Y-88550000D01*
G37*
G36*
X165550000Y-88550000D02*
G01*
X165550000Y-88150000D01*
X165150000Y-88150000D01*
X165150000Y-88550000D01*
X165550000Y-88550000D01*
G37*
G36*
X165950000Y-88550000D02*
G01*
X165950000Y-88150000D01*
X165550000Y-88150000D01*
X165550000Y-88550000D01*
X165950000Y-88550000D01*
G37*
G36*
X166350000Y-88550000D02*
G01*
X166350000Y-88150000D01*
X165950000Y-88150000D01*
X165950000Y-88550000D01*
X166350000Y-88550000D01*
G37*
G36*
X153550000Y-88950000D02*
G01*
X153550000Y-88550000D01*
X153150000Y-88550000D01*
X153150000Y-88950000D01*
X153550000Y-88950000D01*
G37*
G36*
X155550000Y-88950000D02*
G01*
X155550000Y-88550000D01*
X155150000Y-88550000D01*
X155150000Y-88950000D01*
X155550000Y-88950000D01*
G37*
G36*
X155950000Y-88950000D02*
G01*
X155950000Y-88550000D01*
X155550000Y-88550000D01*
X155550000Y-88950000D01*
X155950000Y-88950000D01*
G37*
G36*
X157150000Y-88950000D02*
G01*
X157150000Y-88550000D01*
X156750000Y-88550000D01*
X156750000Y-88950000D01*
X157150000Y-88950000D01*
G37*
G36*
X157550000Y-88950000D02*
G01*
X157550000Y-88550000D01*
X157150000Y-88550000D01*
X157150000Y-88950000D01*
X157550000Y-88950000D01*
G37*
G36*
X157950000Y-88950000D02*
G01*
X157950000Y-88550000D01*
X157550000Y-88550000D01*
X157550000Y-88950000D01*
X157950000Y-88950000D01*
G37*
G36*
X158750000Y-88950000D02*
G01*
X158750000Y-88550000D01*
X158350000Y-88550000D01*
X158350000Y-88950000D01*
X158750000Y-88950000D01*
G37*
G36*
X160350000Y-88950000D02*
G01*
X160350000Y-88550000D01*
X159950000Y-88550000D01*
X159950000Y-88950000D01*
X160350000Y-88950000D01*
G37*
G36*
X161150000Y-88950000D02*
G01*
X161150000Y-88550000D01*
X160750000Y-88550000D01*
X160750000Y-88950000D01*
X161150000Y-88950000D01*
G37*
G36*
X162750000Y-88950000D02*
G01*
X162750000Y-88550000D01*
X162350000Y-88550000D01*
X162350000Y-88950000D01*
X162750000Y-88950000D01*
G37*
G36*
X163150000Y-88950000D02*
G01*
X163150000Y-88550000D01*
X162750000Y-88550000D01*
X162750000Y-88950000D01*
X163150000Y-88950000D01*
G37*
G36*
X163950000Y-88950000D02*
G01*
X163950000Y-88550000D01*
X163550000Y-88550000D01*
X163550000Y-88950000D01*
X163950000Y-88950000D01*
G37*
G36*
X165150000Y-88950000D02*
G01*
X165150000Y-88550000D01*
X164750000Y-88550000D01*
X164750000Y-88950000D01*
X165150000Y-88950000D01*
G37*
G36*
X165550000Y-88950000D02*
G01*
X165550000Y-88550000D01*
X165150000Y-88550000D01*
X165150000Y-88950000D01*
X165550000Y-88950000D01*
G37*
G36*
X165950000Y-88950000D02*
G01*
X165950000Y-88550000D01*
X165550000Y-88550000D01*
X165550000Y-88950000D01*
X165950000Y-88950000D01*
G37*
G36*
X153550000Y-89350000D02*
G01*
X153550000Y-88950000D01*
X153150000Y-88950000D01*
X153150000Y-89350000D01*
X153550000Y-89350000D01*
G37*
G36*
X154750000Y-89350000D02*
G01*
X154750000Y-88950000D01*
X154350000Y-88950000D01*
X154350000Y-89350000D01*
X154750000Y-89350000D01*
G37*
G36*
X155150000Y-89350000D02*
G01*
X155150000Y-88950000D01*
X154750000Y-88950000D01*
X154750000Y-89350000D01*
X155150000Y-89350000D01*
G37*
G36*
X156350000Y-89350000D02*
G01*
X156350000Y-88950000D01*
X155950000Y-88950000D01*
X155950000Y-89350000D01*
X156350000Y-89350000D01*
G37*
G36*
X157150000Y-89350000D02*
G01*
X157150000Y-88950000D01*
X156750000Y-88950000D01*
X156750000Y-89350000D01*
X157150000Y-89350000D01*
G37*
G36*
X157950000Y-89350000D02*
G01*
X157950000Y-88950000D01*
X157550000Y-88950000D01*
X157550000Y-89350000D01*
X157950000Y-89350000D01*
G37*
G36*
X158350000Y-89350000D02*
G01*
X158350000Y-88950000D01*
X157950000Y-88950000D01*
X157950000Y-89350000D01*
X158350000Y-89350000D01*
G37*
G36*
X159150000Y-89350000D02*
G01*
X159150000Y-88950000D01*
X158750000Y-88950000D01*
X158750000Y-89350000D01*
X159150000Y-89350000D01*
G37*
G36*
X159950000Y-89350000D02*
G01*
X159950000Y-88950000D01*
X159550000Y-88950000D01*
X159550000Y-89350000D01*
X159950000Y-89350000D01*
G37*
G36*
X160350000Y-89350000D02*
G01*
X160350000Y-88950000D01*
X159950000Y-88950000D01*
X159950000Y-89350000D01*
X160350000Y-89350000D01*
G37*
G36*
X160750000Y-89350000D02*
G01*
X160750000Y-88950000D01*
X160350000Y-88950000D01*
X160350000Y-89350000D01*
X160750000Y-89350000D01*
G37*
G36*
X161150000Y-89350000D02*
G01*
X161150000Y-88950000D01*
X160750000Y-88950000D01*
X160750000Y-89350000D01*
X161150000Y-89350000D01*
G37*
G36*
X161550000Y-89350000D02*
G01*
X161550000Y-88950000D01*
X161150000Y-88950000D01*
X161150000Y-89350000D01*
X161550000Y-89350000D01*
G37*
G36*
X161950000Y-89350000D02*
G01*
X161950000Y-88950000D01*
X161550000Y-88950000D01*
X161550000Y-89350000D01*
X161950000Y-89350000D01*
G37*
G36*
X162750000Y-89350000D02*
G01*
X162750000Y-88950000D01*
X162350000Y-88950000D01*
X162350000Y-89350000D01*
X162750000Y-89350000D01*
G37*
G36*
X163550000Y-89350000D02*
G01*
X163550000Y-88950000D01*
X163150000Y-88950000D01*
X163150000Y-89350000D01*
X163550000Y-89350000D01*
G37*
G36*
X164350000Y-89350000D02*
G01*
X164350000Y-88950000D01*
X163950000Y-88950000D01*
X163950000Y-89350000D01*
X164350000Y-89350000D01*
G37*
G36*
X165550000Y-89350000D02*
G01*
X165550000Y-88950000D01*
X165150000Y-88950000D01*
X165150000Y-89350000D01*
X165550000Y-89350000D01*
G37*
G36*
X165950000Y-89350000D02*
G01*
X165950000Y-88950000D01*
X165550000Y-88950000D01*
X165550000Y-89350000D01*
X165950000Y-89350000D01*
G37*
G36*
X153550000Y-89750000D02*
G01*
X153550000Y-89350000D01*
X153150000Y-89350000D01*
X153150000Y-89750000D01*
X153550000Y-89750000D01*
G37*
G36*
X155550000Y-89750000D02*
G01*
X155550000Y-89350000D01*
X155150000Y-89350000D01*
X155150000Y-89750000D01*
X155550000Y-89750000D01*
G37*
G36*
X155950000Y-89750000D02*
G01*
X155950000Y-89350000D01*
X155550000Y-89350000D01*
X155550000Y-89750000D01*
X155950000Y-89750000D01*
G37*
G36*
X156350000Y-89750000D02*
G01*
X156350000Y-89350000D01*
X155950000Y-89350000D01*
X155950000Y-89750000D01*
X156350000Y-89750000D01*
G37*
G36*
X158350000Y-89750000D02*
G01*
X158350000Y-89350000D01*
X157950000Y-89350000D01*
X157950000Y-89750000D01*
X158350000Y-89750000D01*
G37*
G36*
X158750000Y-89750000D02*
G01*
X158750000Y-89350000D01*
X158350000Y-89350000D01*
X158350000Y-89750000D01*
X158750000Y-89750000D01*
G37*
G36*
X159150000Y-89750000D02*
G01*
X159150000Y-89350000D01*
X158750000Y-89350000D01*
X158750000Y-89750000D01*
X159150000Y-89750000D01*
G37*
G36*
X161150000Y-89750000D02*
G01*
X161150000Y-89350000D01*
X160750000Y-89350000D01*
X160750000Y-89750000D01*
X161150000Y-89750000D01*
G37*
G36*
X162350000Y-89750000D02*
G01*
X162350000Y-89350000D01*
X161950000Y-89350000D01*
X161950000Y-89750000D01*
X162350000Y-89750000D01*
G37*
G36*
X162750000Y-89750000D02*
G01*
X162750000Y-89350000D01*
X162350000Y-89350000D01*
X162350000Y-89750000D01*
X162750000Y-89750000D01*
G37*
G36*
X163150000Y-89750000D02*
G01*
X163150000Y-89350000D01*
X162750000Y-89350000D01*
X162750000Y-89750000D01*
X163150000Y-89750000D01*
G37*
G36*
X163550000Y-89750000D02*
G01*
X163550000Y-89350000D01*
X163150000Y-89350000D01*
X163150000Y-89750000D01*
X163550000Y-89750000D01*
G37*
G36*
X163950000Y-89750000D02*
G01*
X163950000Y-89350000D01*
X163550000Y-89350000D01*
X163550000Y-89750000D01*
X163950000Y-89750000D01*
G37*
G36*
X164350000Y-89750000D02*
G01*
X164350000Y-89350000D01*
X163950000Y-89350000D01*
X163950000Y-89750000D01*
X164350000Y-89750000D01*
G37*
G36*
X164750000Y-89750000D02*
G01*
X164750000Y-89350000D01*
X164350000Y-89350000D01*
X164350000Y-89750000D01*
X164750000Y-89750000D01*
G37*
G36*
X165150000Y-89750000D02*
G01*
X165150000Y-89350000D01*
X164750000Y-89350000D01*
X164750000Y-89750000D01*
X165150000Y-89750000D01*
G37*
G36*
X165550000Y-89750000D02*
G01*
X165550000Y-89350000D01*
X165150000Y-89350000D01*
X165150000Y-89750000D01*
X165550000Y-89750000D01*
G37*
G36*
X156750000Y-90150000D02*
G01*
X156750000Y-89750000D01*
X156350000Y-89750000D01*
X156350000Y-90150000D01*
X156750000Y-90150000D01*
G37*
G36*
X157550000Y-90150000D02*
G01*
X157550000Y-89750000D01*
X157150000Y-89750000D01*
X157150000Y-90150000D01*
X157550000Y-90150000D01*
G37*
G36*
X158750000Y-90150000D02*
G01*
X158750000Y-89750000D01*
X158350000Y-89750000D01*
X158350000Y-90150000D01*
X158750000Y-90150000D01*
G37*
G36*
X159150000Y-90150000D02*
G01*
X159150000Y-89750000D01*
X158750000Y-89750000D01*
X158750000Y-90150000D01*
X159150000Y-90150000D01*
G37*
G36*
X159550000Y-90150000D02*
G01*
X159550000Y-89750000D01*
X159150000Y-89750000D01*
X159150000Y-90150000D01*
X159550000Y-90150000D01*
G37*
G36*
X159950000Y-90150000D02*
G01*
X159950000Y-89750000D01*
X159550000Y-89750000D01*
X159550000Y-90150000D01*
X159950000Y-90150000D01*
G37*
G36*
X160350000Y-90150000D02*
G01*
X160350000Y-89750000D01*
X159950000Y-89750000D01*
X159950000Y-90150000D01*
X160350000Y-90150000D01*
G37*
G36*
X160750000Y-90150000D02*
G01*
X160750000Y-89750000D01*
X160350000Y-89750000D01*
X160350000Y-90150000D01*
X160750000Y-90150000D01*
G37*
G36*
X161550000Y-90150000D02*
G01*
X161550000Y-89750000D01*
X161150000Y-89750000D01*
X161150000Y-90150000D01*
X161550000Y-90150000D01*
G37*
G36*
X163150000Y-90150000D02*
G01*
X163150000Y-89750000D01*
X162750000Y-89750000D01*
X162750000Y-90150000D01*
X163150000Y-90150000D01*
G37*
G36*
X164750000Y-90150000D02*
G01*
X164750000Y-89750000D01*
X164350000Y-89750000D01*
X164350000Y-90150000D01*
X164750000Y-90150000D01*
G37*
G36*
X165150000Y-90150000D02*
G01*
X165150000Y-89750000D01*
X164750000Y-89750000D01*
X164750000Y-90150000D01*
X165150000Y-90150000D01*
G37*
G36*
X165950000Y-90150000D02*
G01*
X165950000Y-89750000D01*
X165550000Y-89750000D01*
X165550000Y-90150000D01*
X165950000Y-90150000D01*
G37*
G36*
X153550000Y-90550000D02*
G01*
X153550000Y-90150000D01*
X153150000Y-90150000D01*
X153150000Y-90550000D01*
X153550000Y-90550000D01*
G37*
G36*
X153950000Y-90550000D02*
G01*
X153950000Y-90150000D01*
X153550000Y-90150000D01*
X153550000Y-90550000D01*
X153950000Y-90550000D01*
G37*
G36*
X154350000Y-90550000D02*
G01*
X154350000Y-90150000D01*
X153950000Y-90150000D01*
X153950000Y-90550000D01*
X154350000Y-90550000D01*
G37*
G36*
X154750000Y-90550000D02*
G01*
X154750000Y-90150000D01*
X154350000Y-90150000D01*
X154350000Y-90550000D01*
X154750000Y-90550000D01*
G37*
G36*
X155150000Y-90550000D02*
G01*
X155150000Y-90150000D01*
X154750000Y-90150000D01*
X154750000Y-90550000D01*
X155150000Y-90550000D01*
G37*
G36*
X155550000Y-90550000D02*
G01*
X155550000Y-90150000D01*
X155150000Y-90150000D01*
X155150000Y-90550000D01*
X155550000Y-90550000D01*
G37*
G36*
X155950000Y-90550000D02*
G01*
X155950000Y-90150000D01*
X155550000Y-90150000D01*
X155550000Y-90550000D01*
X155950000Y-90550000D01*
G37*
G36*
X157550000Y-90550000D02*
G01*
X157550000Y-90150000D01*
X157150000Y-90150000D01*
X157150000Y-90550000D01*
X157550000Y-90550000D01*
G37*
G36*
X157950000Y-90550000D02*
G01*
X157950000Y-90150000D01*
X157550000Y-90150000D01*
X157550000Y-90550000D01*
X157950000Y-90550000D01*
G37*
G36*
X159150000Y-90550000D02*
G01*
X159150000Y-90150000D01*
X158750000Y-90150000D01*
X158750000Y-90550000D01*
X159150000Y-90550000D01*
G37*
G36*
X160350000Y-90550000D02*
G01*
X160350000Y-90150000D01*
X159950000Y-90150000D01*
X159950000Y-90550000D01*
X160350000Y-90550000D01*
G37*
G36*
X161150000Y-90550000D02*
G01*
X161150000Y-90150000D01*
X160750000Y-90150000D01*
X160750000Y-90550000D01*
X161150000Y-90550000D01*
G37*
G36*
X162350000Y-90550000D02*
G01*
X162350000Y-90150000D01*
X161950000Y-90150000D01*
X161950000Y-90550000D01*
X162350000Y-90550000D01*
G37*
G36*
X162750000Y-90550000D02*
G01*
X162750000Y-90150000D01*
X162350000Y-90150000D01*
X162350000Y-90550000D01*
X162750000Y-90550000D01*
G37*
G36*
X163150000Y-90550000D02*
G01*
X163150000Y-90150000D01*
X162750000Y-90150000D01*
X162750000Y-90550000D01*
X163150000Y-90550000D01*
G37*
G36*
X163950000Y-90550000D02*
G01*
X163950000Y-90150000D01*
X163550000Y-90150000D01*
X163550000Y-90550000D01*
X163950000Y-90550000D01*
G37*
G36*
X164750000Y-90550000D02*
G01*
X164750000Y-90150000D01*
X164350000Y-90150000D01*
X164350000Y-90550000D01*
X164750000Y-90550000D01*
G37*
G36*
X153550000Y-90950000D02*
G01*
X153550000Y-90550000D01*
X153150000Y-90550000D01*
X153150000Y-90950000D01*
X153550000Y-90950000D01*
G37*
G36*
X155950000Y-90950000D02*
G01*
X155950000Y-90550000D01*
X155550000Y-90550000D01*
X155550000Y-90950000D01*
X155950000Y-90950000D01*
G37*
G36*
X156750000Y-90950000D02*
G01*
X156750000Y-90550000D01*
X156350000Y-90550000D01*
X156350000Y-90950000D01*
X156750000Y-90950000D01*
G37*
G36*
X157950000Y-90950000D02*
G01*
X157950000Y-90550000D01*
X157550000Y-90550000D01*
X157550000Y-90950000D01*
X157950000Y-90950000D01*
G37*
G36*
X158350000Y-90950000D02*
G01*
X158350000Y-90550000D01*
X157950000Y-90550000D01*
X157950000Y-90950000D01*
X158350000Y-90950000D01*
G37*
G36*
X158750000Y-90950000D02*
G01*
X158750000Y-90550000D01*
X158350000Y-90550000D01*
X158350000Y-90950000D01*
X158750000Y-90950000D01*
G37*
G36*
X159150000Y-90950000D02*
G01*
X159150000Y-90550000D01*
X158750000Y-90550000D01*
X158750000Y-90950000D01*
X159150000Y-90950000D01*
G37*
G36*
X159950000Y-90950000D02*
G01*
X159950000Y-90550000D01*
X159550000Y-90550000D01*
X159550000Y-90950000D01*
X159950000Y-90950000D01*
G37*
G36*
X160350000Y-90950000D02*
G01*
X160350000Y-90550000D01*
X159950000Y-90550000D01*
X159950000Y-90950000D01*
X160350000Y-90950000D01*
G37*
G36*
X160750000Y-90950000D02*
G01*
X160750000Y-90550000D01*
X160350000Y-90550000D01*
X160350000Y-90950000D01*
X160750000Y-90950000D01*
G37*
G36*
X161150000Y-90950000D02*
G01*
X161150000Y-90550000D01*
X160750000Y-90550000D01*
X160750000Y-90950000D01*
X161150000Y-90950000D01*
G37*
G36*
X161550000Y-90950000D02*
G01*
X161550000Y-90550000D01*
X161150000Y-90550000D01*
X161150000Y-90950000D01*
X161550000Y-90950000D01*
G37*
G36*
X162750000Y-90950000D02*
G01*
X162750000Y-90550000D01*
X162350000Y-90550000D01*
X162350000Y-90950000D01*
X162750000Y-90950000D01*
G37*
G36*
X163150000Y-90950000D02*
G01*
X163150000Y-90550000D01*
X162750000Y-90550000D01*
X162750000Y-90950000D01*
X163150000Y-90950000D01*
G37*
G36*
X164750000Y-90950000D02*
G01*
X164750000Y-90550000D01*
X164350000Y-90550000D01*
X164350000Y-90950000D01*
X164750000Y-90950000D01*
G37*
G36*
X165150000Y-90950000D02*
G01*
X165150000Y-90550000D01*
X164750000Y-90550000D01*
X164750000Y-90950000D01*
X165150000Y-90950000D01*
G37*
G36*
X165550000Y-90950000D02*
G01*
X165550000Y-90550000D01*
X165150000Y-90550000D01*
X165150000Y-90950000D01*
X165550000Y-90950000D01*
G37*
G36*
X165950000Y-90950000D02*
G01*
X165950000Y-90550000D01*
X165550000Y-90550000D01*
X165550000Y-90950000D01*
X165950000Y-90950000D01*
G37*
G36*
X153550000Y-91350000D02*
G01*
X153550000Y-90950000D01*
X153150000Y-90950000D01*
X153150000Y-91350000D01*
X153550000Y-91350000D01*
G37*
G36*
X154350000Y-91350000D02*
G01*
X154350000Y-90950000D01*
X153950000Y-90950000D01*
X153950000Y-91350000D01*
X154350000Y-91350000D01*
G37*
G36*
X154750000Y-91350000D02*
G01*
X154750000Y-90950000D01*
X154350000Y-90950000D01*
X154350000Y-91350000D01*
X154750000Y-91350000D01*
G37*
G36*
X155150000Y-91350000D02*
G01*
X155150000Y-90950000D01*
X154750000Y-90950000D01*
X154750000Y-91350000D01*
X155150000Y-91350000D01*
G37*
G36*
X155950000Y-91350000D02*
G01*
X155950000Y-90950000D01*
X155550000Y-90950000D01*
X155550000Y-91350000D01*
X155950000Y-91350000D01*
G37*
G36*
X156750000Y-91350000D02*
G01*
X156750000Y-90950000D01*
X156350000Y-90950000D01*
X156350000Y-91350000D01*
X156750000Y-91350000D01*
G37*
G36*
X157150000Y-91350000D02*
G01*
X157150000Y-90950000D01*
X156750000Y-90950000D01*
X156750000Y-91350000D01*
X157150000Y-91350000D01*
G37*
G36*
X157950000Y-91350000D02*
G01*
X157950000Y-90950000D01*
X157550000Y-90950000D01*
X157550000Y-91350000D01*
X157950000Y-91350000D01*
G37*
G36*
X159150000Y-91350000D02*
G01*
X159150000Y-90950000D01*
X158750000Y-90950000D01*
X158750000Y-91350000D01*
X159150000Y-91350000D01*
G37*
G36*
X159950000Y-91350000D02*
G01*
X159950000Y-90950000D01*
X159550000Y-90950000D01*
X159550000Y-91350000D01*
X159950000Y-91350000D01*
G37*
G36*
X161150000Y-91350000D02*
G01*
X161150000Y-90950000D01*
X160750000Y-90950000D01*
X160750000Y-91350000D01*
X161150000Y-91350000D01*
G37*
G36*
X161550000Y-91350000D02*
G01*
X161550000Y-90950000D01*
X161150000Y-90950000D01*
X161150000Y-91350000D01*
X161550000Y-91350000D01*
G37*
G36*
X161950000Y-91350000D02*
G01*
X161950000Y-90950000D01*
X161550000Y-90950000D01*
X161550000Y-91350000D01*
X161950000Y-91350000D01*
G37*
G36*
X162350000Y-91350000D02*
G01*
X162350000Y-90950000D01*
X161950000Y-90950000D01*
X161950000Y-91350000D01*
X162350000Y-91350000D01*
G37*
G36*
X163150000Y-91350000D02*
G01*
X163150000Y-90950000D01*
X162750000Y-90950000D01*
X162750000Y-91350000D01*
X163150000Y-91350000D01*
G37*
G36*
X163550000Y-91350000D02*
G01*
X163550000Y-90950000D01*
X163150000Y-90950000D01*
X163150000Y-91350000D01*
X163550000Y-91350000D01*
G37*
G36*
X163950000Y-91350000D02*
G01*
X163950000Y-90950000D01*
X163550000Y-90950000D01*
X163550000Y-91350000D01*
X163950000Y-91350000D01*
G37*
G36*
X164350000Y-91350000D02*
G01*
X164350000Y-90950000D01*
X163950000Y-90950000D01*
X163950000Y-91350000D01*
X164350000Y-91350000D01*
G37*
G36*
X164750000Y-91350000D02*
G01*
X164750000Y-90950000D01*
X164350000Y-90950000D01*
X164350000Y-91350000D01*
X164750000Y-91350000D01*
G37*
G36*
X165150000Y-91350000D02*
G01*
X165150000Y-90950000D01*
X164750000Y-90950000D01*
X164750000Y-91350000D01*
X165150000Y-91350000D01*
G37*
G36*
X153550000Y-91750000D02*
G01*
X153550000Y-91350000D01*
X153150000Y-91350000D01*
X153150000Y-91750000D01*
X153550000Y-91750000D01*
G37*
G36*
X154350000Y-91750000D02*
G01*
X154350000Y-91350000D01*
X153950000Y-91350000D01*
X153950000Y-91750000D01*
X154350000Y-91750000D01*
G37*
G36*
X154750000Y-91750000D02*
G01*
X154750000Y-91350000D01*
X154350000Y-91350000D01*
X154350000Y-91750000D01*
X154750000Y-91750000D01*
G37*
G36*
X155150000Y-91750000D02*
G01*
X155150000Y-91350000D01*
X154750000Y-91350000D01*
X154750000Y-91750000D01*
X155150000Y-91750000D01*
G37*
G36*
X155950000Y-91750000D02*
G01*
X155950000Y-91350000D01*
X155550000Y-91350000D01*
X155550000Y-91750000D01*
X155950000Y-91750000D01*
G37*
G36*
X156750000Y-91750000D02*
G01*
X156750000Y-91350000D01*
X156350000Y-91350000D01*
X156350000Y-91750000D01*
X156750000Y-91750000D01*
G37*
G36*
X157150000Y-91750000D02*
G01*
X157150000Y-91350000D01*
X156750000Y-91350000D01*
X156750000Y-91750000D01*
X157150000Y-91750000D01*
G37*
G36*
X159150000Y-91750000D02*
G01*
X159150000Y-91350000D01*
X158750000Y-91350000D01*
X158750000Y-91750000D01*
X159150000Y-91750000D01*
G37*
G36*
X159550000Y-91750000D02*
G01*
X159550000Y-91350000D01*
X159150000Y-91350000D01*
X159150000Y-91750000D01*
X159550000Y-91750000D01*
G37*
G36*
X160750000Y-91750000D02*
G01*
X160750000Y-91350000D01*
X160350000Y-91350000D01*
X160350000Y-91750000D01*
X160750000Y-91750000D01*
G37*
G36*
X161950000Y-91750000D02*
G01*
X161950000Y-91350000D01*
X161550000Y-91350000D01*
X161550000Y-91750000D01*
X161950000Y-91750000D01*
G37*
G36*
X163550000Y-91750000D02*
G01*
X163550000Y-91350000D01*
X163150000Y-91350000D01*
X163150000Y-91750000D01*
X163550000Y-91750000D01*
G37*
G36*
X164350000Y-91750000D02*
G01*
X164350000Y-91350000D01*
X163950000Y-91350000D01*
X163950000Y-91750000D01*
X164350000Y-91750000D01*
G37*
G36*
X164750000Y-91750000D02*
G01*
X164750000Y-91350000D01*
X164350000Y-91350000D01*
X164350000Y-91750000D01*
X164750000Y-91750000D01*
G37*
G36*
X165150000Y-91750000D02*
G01*
X165150000Y-91350000D01*
X164750000Y-91350000D01*
X164750000Y-91750000D01*
X165150000Y-91750000D01*
G37*
G36*
X165950000Y-91750000D02*
G01*
X165950000Y-91350000D01*
X165550000Y-91350000D01*
X165550000Y-91750000D01*
X165950000Y-91750000D01*
G37*
G36*
X153550000Y-92150000D02*
G01*
X153550000Y-91750000D01*
X153150000Y-91750000D01*
X153150000Y-92150000D01*
X153550000Y-92150000D01*
G37*
G36*
X154350000Y-92150000D02*
G01*
X154350000Y-91750000D01*
X153950000Y-91750000D01*
X153950000Y-92150000D01*
X154350000Y-92150000D01*
G37*
G36*
X154750000Y-92150000D02*
G01*
X154750000Y-91750000D01*
X154350000Y-91750000D01*
X154350000Y-92150000D01*
X154750000Y-92150000D01*
G37*
G36*
X155150000Y-92150000D02*
G01*
X155150000Y-91750000D01*
X154750000Y-91750000D01*
X154750000Y-92150000D01*
X155150000Y-92150000D01*
G37*
G36*
X155950000Y-92150000D02*
G01*
X155950000Y-91750000D01*
X155550000Y-91750000D01*
X155550000Y-92150000D01*
X155950000Y-92150000D01*
G37*
G36*
X156750000Y-92150000D02*
G01*
X156750000Y-91750000D01*
X156350000Y-91750000D01*
X156350000Y-92150000D01*
X156750000Y-92150000D01*
G37*
G36*
X157950000Y-92150000D02*
G01*
X157950000Y-91750000D01*
X157550000Y-91750000D01*
X157550000Y-92150000D01*
X157950000Y-92150000D01*
G37*
G36*
X158350000Y-92150000D02*
G01*
X158350000Y-91750000D01*
X157950000Y-91750000D01*
X157950000Y-92150000D01*
X158350000Y-92150000D01*
G37*
G36*
X158750000Y-92150000D02*
G01*
X158750000Y-91750000D01*
X158350000Y-91750000D01*
X158350000Y-92150000D01*
X158750000Y-92150000D01*
G37*
G36*
X159550000Y-92150000D02*
G01*
X159550000Y-91750000D01*
X159150000Y-91750000D01*
X159150000Y-92150000D01*
X159550000Y-92150000D01*
G37*
G36*
X159950000Y-92150000D02*
G01*
X159950000Y-91750000D01*
X159550000Y-91750000D01*
X159550000Y-92150000D01*
X159950000Y-92150000D01*
G37*
G36*
X160750000Y-92150000D02*
G01*
X160750000Y-91750000D01*
X160350000Y-91750000D01*
X160350000Y-92150000D01*
X160750000Y-92150000D01*
G37*
G36*
X161550000Y-92150000D02*
G01*
X161550000Y-91750000D01*
X161150000Y-91750000D01*
X161150000Y-92150000D01*
X161550000Y-92150000D01*
G37*
G36*
X162350000Y-92150000D02*
G01*
X162350000Y-91750000D01*
X161950000Y-91750000D01*
X161950000Y-92150000D01*
X162350000Y-92150000D01*
G37*
G36*
X162750000Y-92150000D02*
G01*
X162750000Y-91750000D01*
X162350000Y-91750000D01*
X162350000Y-92150000D01*
X162750000Y-92150000D01*
G37*
G36*
X163950000Y-92150000D02*
G01*
X163950000Y-91750000D01*
X163550000Y-91750000D01*
X163550000Y-92150000D01*
X163950000Y-92150000D01*
G37*
G36*
X153550000Y-92550000D02*
G01*
X153550000Y-92150000D01*
X153150000Y-92150000D01*
X153150000Y-92550000D01*
X153550000Y-92550000D01*
G37*
G36*
X155950000Y-92550000D02*
G01*
X155950000Y-92150000D01*
X155550000Y-92150000D01*
X155550000Y-92550000D01*
X155950000Y-92550000D01*
G37*
G36*
X157150000Y-92550000D02*
G01*
X157150000Y-92150000D01*
X156750000Y-92150000D01*
X156750000Y-92550000D01*
X157150000Y-92550000D01*
G37*
G36*
X158350000Y-92550000D02*
G01*
X158350000Y-92150000D01*
X157950000Y-92150000D01*
X157950000Y-92550000D01*
X158350000Y-92550000D01*
G37*
G36*
X159150000Y-92550000D02*
G01*
X159150000Y-92150000D01*
X158750000Y-92150000D01*
X158750000Y-92550000D01*
X159150000Y-92550000D01*
G37*
G36*
X159550000Y-92550000D02*
G01*
X159550000Y-92150000D01*
X159150000Y-92150000D01*
X159150000Y-92550000D01*
X159550000Y-92550000D01*
G37*
G36*
X161950000Y-92550000D02*
G01*
X161950000Y-92150000D01*
X161550000Y-92150000D01*
X161550000Y-92550000D01*
X161950000Y-92550000D01*
G37*
G36*
X162350000Y-92550000D02*
G01*
X162350000Y-92150000D01*
X161950000Y-92150000D01*
X161950000Y-92550000D01*
X162350000Y-92550000D01*
G37*
G36*
X162750000Y-92550000D02*
G01*
X162750000Y-92150000D01*
X162350000Y-92150000D01*
X162350000Y-92550000D01*
X162750000Y-92550000D01*
G37*
G36*
X163150000Y-92550000D02*
G01*
X163150000Y-92150000D01*
X162750000Y-92150000D01*
X162750000Y-92550000D01*
X163150000Y-92550000D01*
G37*
G36*
X164750000Y-92550000D02*
G01*
X164750000Y-92150000D01*
X164350000Y-92150000D01*
X164350000Y-92550000D01*
X164750000Y-92550000D01*
G37*
G36*
X165150000Y-92550000D02*
G01*
X165150000Y-92150000D01*
X164750000Y-92150000D01*
X164750000Y-92550000D01*
X165150000Y-92550000D01*
G37*
G36*
X153550000Y-92950000D02*
G01*
X153550000Y-92550000D01*
X153150000Y-92550000D01*
X153150000Y-92950000D01*
X153550000Y-92950000D01*
G37*
G36*
X153950000Y-92950000D02*
G01*
X153950000Y-92550000D01*
X153550000Y-92550000D01*
X153550000Y-92950000D01*
X153950000Y-92950000D01*
G37*
G36*
X154350000Y-92950000D02*
G01*
X154350000Y-92550000D01*
X153950000Y-92550000D01*
X153950000Y-92950000D01*
X154350000Y-92950000D01*
G37*
G36*
X154750000Y-92950000D02*
G01*
X154750000Y-92550000D01*
X154350000Y-92550000D01*
X154350000Y-92950000D01*
X154750000Y-92950000D01*
G37*
G36*
X155150000Y-92950000D02*
G01*
X155150000Y-92550000D01*
X154750000Y-92550000D01*
X154750000Y-92950000D01*
X155150000Y-92950000D01*
G37*
G36*
X155550000Y-92950000D02*
G01*
X155550000Y-92550000D01*
X155150000Y-92550000D01*
X155150000Y-92950000D01*
X155550000Y-92950000D01*
G37*
G36*
X155950000Y-92950000D02*
G01*
X155950000Y-92550000D01*
X155550000Y-92550000D01*
X155550000Y-92950000D01*
X155950000Y-92950000D01*
G37*
G36*
X156750000Y-92950000D02*
G01*
X156750000Y-92550000D01*
X156350000Y-92550000D01*
X156350000Y-92950000D01*
X156750000Y-92950000D01*
G37*
G36*
X157550000Y-92950000D02*
G01*
X157550000Y-92550000D01*
X157150000Y-92550000D01*
X157150000Y-92950000D01*
X157550000Y-92950000D01*
G37*
G36*
X157950000Y-92950000D02*
G01*
X157950000Y-92550000D01*
X157550000Y-92550000D01*
X157550000Y-92950000D01*
X157950000Y-92950000D01*
G37*
G36*
X158350000Y-92950000D02*
G01*
X158350000Y-92550000D01*
X157950000Y-92550000D01*
X157950000Y-92950000D01*
X158350000Y-92950000D01*
G37*
G36*
X159550000Y-92950000D02*
G01*
X159550000Y-92550000D01*
X159150000Y-92550000D01*
X159150000Y-92950000D01*
X159550000Y-92950000D01*
G37*
G36*
X159950000Y-92950000D02*
G01*
X159950000Y-92550000D01*
X159550000Y-92550000D01*
X159550000Y-92950000D01*
X159950000Y-92950000D01*
G37*
G36*
X160750000Y-92950000D02*
G01*
X160750000Y-92550000D01*
X160350000Y-92550000D01*
X160350000Y-92950000D01*
X160750000Y-92950000D01*
G37*
G36*
X161950000Y-92950000D02*
G01*
X161950000Y-92550000D01*
X161550000Y-92550000D01*
X161550000Y-92950000D01*
X161950000Y-92950000D01*
G37*
G36*
X163150000Y-92950000D02*
G01*
X163150000Y-92550000D01*
X162750000Y-92550000D01*
X162750000Y-92950000D01*
X163150000Y-92950000D01*
G37*
G36*
X163550000Y-92950000D02*
G01*
X163550000Y-92550000D01*
X163150000Y-92550000D01*
X163150000Y-92950000D01*
X163550000Y-92950000D01*
G37*
G36*
X164350000Y-92950000D02*
G01*
X164350000Y-92550000D01*
X163950000Y-92550000D01*
X163950000Y-92950000D01*
X164350000Y-92950000D01*
G37*
G36*
X165550000Y-92950000D02*
G01*
X165550000Y-92550000D01*
X165150000Y-92550000D01*
X165150000Y-92950000D01*
X165550000Y-92950000D01*
G37*
G36*
X165950000Y-92950000D02*
G01*
X165950000Y-92550000D01*
X165550000Y-92550000D01*
X165550000Y-92950000D01*
X165950000Y-92950000D01*
G37*
D13*
X76428733Y-78740000D02*
X76771267Y-78740000D01*
X76428733Y-79760000D02*
X76771267Y-79760000D01*
X76403733Y-79940000D02*
X76746267Y-79940000D01*
X76403733Y-80960000D02*
X76746267Y-80960000D01*
X183440000Y-81590000D02*
X183440000Y-94410000D01*
X183440000Y-94410000D02*
X186100000Y-94410000D01*
X186100000Y-94410000D02*
X186100000Y-81590000D01*
X186100000Y-81590000D02*
X183440000Y-81590000D01*
X186100000Y-82540000D02*
X192100000Y-82540000D01*
X192100000Y-82540000D02*
X192100000Y-83300000D01*
X192100000Y-83300000D02*
X186100000Y-83300000D01*
X186100000Y-82600000D02*
X192100000Y-82600000D01*
X186100000Y-82720000D02*
X192100000Y-82720000D01*
X186100000Y-82840000D02*
X192100000Y-82840000D01*
X186100000Y-82960000D02*
X192100000Y-82960000D01*
X186100000Y-83080000D02*
X192100000Y-83080000D01*
X186100000Y-83200000D02*
X192100000Y-83200000D01*
X183110000Y-82540000D02*
X183440000Y-82540000D01*
X183110000Y-83300000D02*
X183440000Y-83300000D01*
X183440000Y-84190000D02*
X186100000Y-84190000D01*
X186100000Y-85080000D02*
X192100000Y-85080000D01*
X192100000Y-85080000D02*
X192100000Y-85840000D01*
X192100000Y-85840000D02*
X186100000Y-85840000D01*
X183042929Y-85080000D02*
X183440000Y-85080000D01*
X183042929Y-85840000D02*
X183440000Y-85840000D01*
X183440000Y-86730000D02*
X186100000Y-86730000D01*
X186100000Y-87620000D02*
X192100000Y-87620000D01*
X192100000Y-87620000D02*
X192100000Y-88380000D01*
X192100000Y-88380000D02*
X186100000Y-88380000D01*
X183042929Y-87620000D02*
X183440000Y-87620000D01*
X183042929Y-88380000D02*
X183440000Y-88380000D01*
X183440000Y-89270000D02*
X186100000Y-89270000D01*
X186100000Y-90160000D02*
X192100000Y-90160000D01*
X192100000Y-90160000D02*
X192100000Y-90920000D01*
X192100000Y-90920000D02*
X186100000Y-90920000D01*
X183042929Y-90160000D02*
X183440000Y-90160000D01*
X183042929Y-90920000D02*
X183440000Y-90920000D01*
X183440000Y-91810000D02*
X186100000Y-91810000D01*
X186100000Y-92700000D02*
X192100000Y-92700000D01*
X192100000Y-92700000D02*
X192100000Y-93460000D01*
X192100000Y-93460000D02*
X186100000Y-93460000D01*
X183042929Y-92700000D02*
X183440000Y-92700000D01*
X183042929Y-93460000D02*
X183440000Y-93460000D01*
X180730000Y-82920000D02*
X180730000Y-81650000D01*
X180730000Y-81650000D02*
X182000000Y-81650000D01*
X169928733Y-89990000D02*
X170271267Y-89990000D01*
X169928733Y-91010000D02*
X170271267Y-91010000D01*
X169928733Y-87440000D02*
X170271267Y-87440000D01*
X169928733Y-88460000D02*
X170271267Y-88460000D01*
X169928733Y-85290000D02*
X170271267Y-85290000D01*
X169928733Y-86310000D02*
X170271267Y-86310000D01*
X122000000Y-66040000D02*
X120050000Y-66040000D01*
X122000000Y-66040000D02*
X123950000Y-66040000D01*
X122000000Y-76160000D02*
X120050000Y-76160000D01*
X122000000Y-76160000D02*
X125450000Y-76160000D01*
X176128733Y-79990000D02*
X176471267Y-79990000D01*
X176128733Y-81010000D02*
X176471267Y-81010000D01*
X129000000Y-72780000D02*
X128000000Y-72780000D01*
X129000000Y-69420000D02*
X128000000Y-69420000D01*
X80921267Y-84060000D02*
X80578733Y-84060000D01*
X80921267Y-83040000D02*
X80578733Y-83040000D01*
X89240000Y-91871267D02*
X89240000Y-91528733D01*
X90260000Y-91871267D02*
X90260000Y-91528733D01*
X60590000Y-66840000D02*
X60590000Y-71100000D01*
X60590000Y-71100000D02*
X72910000Y-71100000D01*
X72910000Y-71100000D02*
X72910000Y-66840000D01*
X60590000Y-62740000D02*
X60590000Y-54380000D01*
X60590000Y-54380000D02*
X72910000Y-54380000D01*
X72910000Y-54380000D02*
X72910000Y-62740000D01*
X65500000Y-71320000D02*
X65000000Y-71820000D01*
X65000000Y-71820000D02*
X66000000Y-71820000D01*
X66000000Y-71820000D02*
X65500000Y-71320000D01*
X183440000Y-70670000D02*
X183440000Y-75870000D01*
X183440000Y-75870000D02*
X186100000Y-75870000D01*
X186100000Y-75870000D02*
X186100000Y-70670000D01*
X186100000Y-70670000D02*
X183440000Y-70670000D01*
X186100000Y-71620000D02*
X192100000Y-71620000D01*
X192100000Y-71620000D02*
X192100000Y-72380000D01*
X192100000Y-72380000D02*
X186100000Y-72380000D01*
X186100000Y-71680000D02*
X192100000Y-71680000D01*
X186100000Y-71800000D02*
X192100000Y-71800000D01*
X186100000Y-71920000D02*
X192100000Y-71920000D01*
X186100000Y-72040000D02*
X192100000Y-72040000D01*
X186100000Y-72160000D02*
X192100000Y-72160000D01*
X186100000Y-72280000D02*
X192100000Y-72280000D01*
X183110000Y-71620000D02*
X183440000Y-71620000D01*
X183110000Y-72380000D02*
X183440000Y-72380000D01*
X183440000Y-73270000D02*
X186100000Y-73270000D01*
X186100000Y-74160000D02*
X192100000Y-74160000D01*
X192100000Y-74160000D02*
X192100000Y-74920000D01*
X192100000Y-74920000D02*
X186100000Y-74920000D01*
X183042929Y-74160000D02*
X183440000Y-74160000D01*
X183042929Y-74920000D02*
X183440000Y-74920000D01*
X180730000Y-72000000D02*
X180730000Y-70730000D01*
X180730000Y-70730000D02*
X182000000Y-70730000D01*
X188950000Y-65330000D02*
X188950000Y-62670000D01*
X178730000Y-65330000D02*
X188950000Y-65330000D01*
X178730000Y-62670000D02*
X188950000Y-62670000D01*
X178730000Y-65330000D02*
X178730000Y-62670000D01*
X177460000Y-65330000D02*
X176130000Y-65330000D01*
X176130000Y-65330000D02*
X176130000Y-64000000D01*
X176997936Y-73590000D02*
X178202064Y-73590000D01*
X176997936Y-75410000D02*
X178202064Y-75410000D01*
X176997936Y-71090000D02*
X178202064Y-71090000D01*
X176997936Y-72910000D02*
X178202064Y-72910000D01*
X177880000Y-76940000D02*
X176950000Y-76940000D01*
X174720000Y-76940000D02*
X175650000Y-76940000D01*
X174720000Y-76940000D02*
X174720000Y-79100000D01*
X177880000Y-76940000D02*
X177880000Y-78400000D01*
X85190000Y-89371267D02*
X85190000Y-89028733D01*
X86210000Y-89371267D02*
X86210000Y-89028733D01*
X139380000Y-71540000D02*
X138450000Y-71540000D01*
X136220000Y-71540000D02*
X137150000Y-71540000D01*
X136220000Y-71540000D02*
X136220000Y-74700000D01*
X139380000Y-71540000D02*
X139380000Y-73000000D01*
X141671267Y-73110000D02*
X141328733Y-73110000D01*
X141671267Y-72090000D02*
X141328733Y-72090000D01*
X96371267Y-74960000D02*
X96028733Y-74960000D01*
X96371267Y-73940000D02*
X96028733Y-73940000D01*
X56990000Y-65671267D02*
X56990000Y-65328733D01*
X58010000Y-65671267D02*
X58010000Y-65328733D01*
X56765000Y-61200000D02*
X56765000Y-63660000D01*
X56765000Y-63660000D02*
X58235000Y-63660000D01*
X58235000Y-63660000D02*
X58235000Y-61200000D01*
X120328733Y-76590000D02*
X120671267Y-76590000D01*
X120328733Y-77610000D02*
X120671267Y-77610000D01*
X104328733Y-77090000D02*
X104671267Y-77090000D01*
X104328733Y-78110000D02*
X104671267Y-78110000D01*
X104800000Y-66040000D02*
X102850000Y-66040000D01*
X104800000Y-66040000D02*
X106750000Y-66040000D01*
X104800000Y-76160000D02*
X102850000Y-76160000D01*
X104800000Y-76160000D02*
X108250000Y-76160000D01*
X115000000Y-69420000D02*
X116000000Y-69420000D01*
X115000000Y-72780000D02*
X116000000Y-72780000D01*
X111800000Y-72780000D02*
X110800000Y-72780000D01*
X111800000Y-69420000D02*
X110800000Y-69420000D01*
X95600000Y-66520000D02*
X96600000Y-66520000D01*
X95600000Y-69880000D02*
X96600000Y-69880000D01*
X116471267Y-67110000D02*
X116128733Y-67110000D01*
X116471267Y-66090000D02*
X116128733Y-66090000D01*
X91050000Y-64430000D02*
X91050000Y-61770000D01*
X83370000Y-64430000D02*
X91050000Y-64430000D01*
X83370000Y-61770000D02*
X91050000Y-61770000D01*
X83370000Y-64430000D02*
X83370000Y-61770000D01*
X82100000Y-64430000D02*
X80770000Y-64430000D01*
X80770000Y-64430000D02*
X80770000Y-63100000D01*
X65110000Y-77028733D02*
X65110000Y-77371267D01*
X64090000Y-77028733D02*
X64090000Y-77371267D01*
X145610000Y-66570000D02*
X145610000Y-61370000D01*
X140470000Y-66570000D02*
X145610000Y-66570000D01*
X137870000Y-61370000D02*
X145610000Y-61370000D01*
X140470000Y-66570000D02*
X140470000Y-63970000D01*
X140470000Y-63970000D02*
X137870000Y-63970000D01*
X137870000Y-63970000D02*
X137870000Y-61370000D01*
X139200000Y-66570000D02*
X137870000Y-66570000D01*
X137870000Y-66570000D02*
X137870000Y-65240000D01*
X62990000Y-73871267D02*
X62990000Y-73528733D01*
X64010000Y-73871267D02*
X64010000Y-73528733D01*
X86171267Y-74560000D02*
X85828733Y-74560000D01*
X86171267Y-73540000D02*
X85828733Y-73540000D01*
X92335000Y-77490000D02*
X93060000Y-77490000D01*
X93060000Y-77490000D02*
X93060000Y-78215000D01*
X86565000Y-84710000D02*
X85840000Y-84710000D01*
X85840000Y-84710000D02*
X85840000Y-83985000D01*
X92335000Y-84710000D02*
X93060000Y-84710000D01*
X93060000Y-84710000D02*
X93060000Y-83985000D01*
X86565000Y-77490000D02*
X85840000Y-77490000D01*
X96371267Y-77960000D02*
X96028733Y-77960000D01*
X96371267Y-76940000D02*
X96028733Y-76940000D01*
X95400000Y-94450000D02*
X111375000Y-94450000D01*
X111375000Y-94450000D02*
X111375000Y-89350000D01*
X111375000Y-89350000D02*
X95400000Y-89350000D01*
X141328733Y-70590000D02*
X141671267Y-70590000D01*
X141328733Y-71610000D02*
X141671267Y-71610000D01*
X96371267Y-76460000D02*
X96028733Y-76460000D01*
X96371267Y-75440000D02*
X96028733Y-75440000D01*
X73940000Y-87911252D02*
X73940000Y-87388748D01*
X75360000Y-87911252D02*
X75360000Y-87388748D01*
X85928733Y-75140000D02*
X86271267Y-75140000D01*
X85928733Y-76160000D02*
X86271267Y-76160000D01*
X96110000Y-83878733D02*
X96110000Y-84221267D01*
X95090000Y-83878733D02*
X95090000Y-84221267D01*
X87710000Y-89028733D02*
X87710000Y-89371267D01*
X86690000Y-89028733D02*
X86690000Y-89371267D01*
X80921267Y-82560000D02*
X80578733Y-82560000D01*
X80921267Y-81540000D02*
X80578733Y-81540000D01*
X112290000Y-91621267D02*
X112290000Y-91278733D01*
X113310000Y-91621267D02*
X113310000Y-91278733D01*
X54410000Y-75470000D02*
X54410000Y-75700000D01*
X53890000Y-71800000D02*
X61610000Y-71800000D01*
X61610000Y-71800000D02*
X61610000Y-75700000D01*
X53890000Y-78810000D02*
X54410000Y-78810000D01*
X53890000Y-71800000D02*
X53890000Y-75700000D01*
X61090000Y-75470000D02*
X61090000Y-75700000D01*
X54410000Y-78300000D02*
X54410000Y-78810000D01*
X53890000Y-78300000D02*
X53890000Y-78810000D01*
X60550000Y-75470000D02*
X61090000Y-75470000D01*
X61090000Y-78300000D02*
X61090000Y-78810000D01*
X61090000Y-78810000D02*
X61610000Y-78810000D01*
X61610000Y-78300000D02*
X61610000Y-78810000D01*
X54410000Y-75470000D02*
X54950000Y-75470000D01*
X56050000Y-75470000D02*
X59450000Y-75470000D01*
X68400000Y-71950000D02*
X66000000Y-71950000D01*
X66000000Y-75050000D02*
X68950000Y-75050000D01*
X148670000Y-62670000D02*
X148670000Y-65330000D01*
X166510000Y-62670000D02*
X148670000Y-62670000D01*
X166510000Y-65330000D02*
X148670000Y-65330000D01*
X166510000Y-62670000D02*
X166510000Y-65330000D01*
X167780000Y-62670000D02*
X169110000Y-62670000D01*
X169110000Y-62670000D02*
X169110000Y-64000000D01*
D11*
X105323809Y-88376190D02*
X105323809Y-88852380D01*
X104990476Y-87852380D02*
X105323809Y-88376190D01*
X105657142Y-87852380D01*
X105942857Y-87947619D02*
X105990476Y-87900000D01*
X106085714Y-87852380D01*
X106323809Y-87852380D01*
X106419047Y-87900000D01*
X106466666Y-87947619D01*
X106514285Y-88042857D01*
X106514285Y-88138095D01*
X106466666Y-88280952D01*
X105895238Y-88852380D01*
X106514285Y-88852380D01*
X98657142Y-72802380D02*
X98323809Y-72326190D01*
X98085714Y-72802380D02*
X98085714Y-71802380D01*
X98466666Y-71802380D01*
X98561904Y-71850000D01*
X98609523Y-71897619D01*
X98657142Y-71992857D01*
X98657142Y-72135714D01*
X98609523Y-72230952D01*
X98561904Y-72278571D01*
X98466666Y-72326190D01*
X98085714Y-72326190D01*
X99038095Y-71897619D02*
X99085714Y-71850000D01*
X99180952Y-71802380D01*
X99419047Y-71802380D01*
X99514285Y-71850000D01*
X99561904Y-71897619D01*
X99609523Y-71992857D01*
X99609523Y-72088095D01*
X99561904Y-72230952D01*
X98990476Y-72802380D01*
X99609523Y-72802380D01*
X99990476Y-71897619D02*
X100038095Y-71850000D01*
X100133333Y-71802380D01*
X100371428Y-71802380D01*
X100466666Y-71850000D01*
X100514285Y-71897619D01*
X100561904Y-71992857D01*
X100561904Y-72088095D01*
X100514285Y-72230952D01*
X99942857Y-72802380D01*
X100561904Y-72802380D01*
X133596666Y-62452380D02*
X133596666Y-63166666D01*
X133549047Y-63309523D01*
X133453809Y-63404761D01*
X133310952Y-63452380D01*
X133215714Y-63452380D01*
X134596666Y-63452380D02*
X134025238Y-63452380D01*
X134310952Y-63452380D02*
X134310952Y-62452380D01*
X134215714Y-62595238D01*
X134120476Y-62690476D01*
X134025238Y-62738095D01*
X92157142Y-74507142D02*
X92109523Y-74554761D01*
X91966666Y-74602380D01*
X91871428Y-74602380D01*
X91728571Y-74554761D01*
X91633333Y-74459523D01*
X91585714Y-74364285D01*
X91538095Y-74173809D01*
X91538095Y-74030952D01*
X91585714Y-73840476D01*
X91633333Y-73745238D01*
X91728571Y-73650000D01*
X91871428Y-73602380D01*
X91966666Y-73602380D01*
X92109523Y-73650000D01*
X92157142Y-73697619D01*
X93109523Y-74602380D02*
X92538095Y-74602380D01*
X92823809Y-74602380D02*
X92823809Y-73602380D01*
X92728571Y-73745238D01*
X92633333Y-73840476D01*
X92538095Y-73888095D01*
X93490476Y-73697619D02*
X93538095Y-73650000D01*
X93633333Y-73602380D01*
X93871428Y-73602380D01*
X93966666Y-73650000D01*
X94014285Y-73697619D01*
X94061904Y-73792857D01*
X94061904Y-73888095D01*
X94014285Y-74030952D01*
X93442857Y-74602380D01*
X94061904Y-74602380D01*
X83966666Y-69102380D02*
X83966666Y-69816666D01*
X83919047Y-69959523D01*
X83823809Y-70054761D01*
X83680952Y-70102380D01*
X83585714Y-70102380D01*
X84442857Y-70102380D02*
X84442857Y-69102380D01*
X84823809Y-69102380D01*
X84919047Y-69150000D01*
X84966666Y-69197619D01*
X85014285Y-69292857D01*
X85014285Y-69435714D01*
X84966666Y-69530952D01*
X84919047Y-69578571D01*
X84823809Y-69626190D01*
X84442857Y-69626190D01*
X85966666Y-70102380D02*
X85395238Y-70102380D01*
X85680952Y-70102380D02*
X85680952Y-69102380D01*
X85585714Y-69245238D01*
X85490476Y-69340476D01*
X85395238Y-69388095D01*
X152897619Y-94235714D02*
X153088095Y-94902380D01*
X153278571Y-94426190D01*
X153469047Y-94902380D01*
X153659523Y-94235714D01*
X153945238Y-94235714D02*
X154135714Y-94902380D01*
X154326190Y-94426190D01*
X154516666Y-94902380D01*
X154707142Y-94235714D01*
X154992857Y-94235714D02*
X155183333Y-94902380D01*
X155373809Y-94426190D01*
X155564285Y-94902380D01*
X155754761Y-94235714D01*
X156135714Y-94807142D02*
X156183333Y-94854761D01*
X156135714Y-94902380D01*
X156088095Y-94854761D01*
X156135714Y-94807142D01*
X156135714Y-94902380D01*
X156564285Y-94854761D02*
X156659523Y-94902380D01*
X156850000Y-94902380D01*
X156945238Y-94854761D01*
X156992857Y-94759523D01*
X156992857Y-94711904D01*
X156945238Y-94616666D01*
X156850000Y-94569047D01*
X156707142Y-94569047D01*
X156611904Y-94521428D01*
X156564285Y-94426190D01*
X156564285Y-94378571D01*
X156611904Y-94283333D01*
X156707142Y-94235714D01*
X156850000Y-94235714D01*
X156945238Y-94283333D01*
X157850000Y-94854761D02*
X157754761Y-94902380D01*
X157564285Y-94902380D01*
X157469047Y-94854761D01*
X157421428Y-94807142D01*
X157373809Y-94711904D01*
X157373809Y-94426190D01*
X157421428Y-94330952D01*
X157469047Y-94283333D01*
X157564285Y-94235714D01*
X157754761Y-94235714D01*
X157850000Y-94283333D01*
X158278571Y-94902380D02*
X158278571Y-93902380D01*
X158707142Y-94902380D02*
X158707142Y-94378571D01*
X158659523Y-94283333D01*
X158564285Y-94235714D01*
X158421428Y-94235714D01*
X158326190Y-94283333D01*
X158278571Y-94330952D01*
X159088095Y-94235714D02*
X159278571Y-94902380D01*
X159469047Y-94426190D01*
X159659523Y-94902380D01*
X159850000Y-94235714D01*
X160230952Y-94902380D02*
X160230952Y-94235714D01*
X160230952Y-93902380D02*
X160183333Y-93950000D01*
X160230952Y-93997619D01*
X160278571Y-93950000D01*
X160230952Y-93902380D01*
X160230952Y-93997619D01*
X160707142Y-94235714D02*
X160707142Y-94902380D01*
X160707142Y-94330952D02*
X160754761Y-94283333D01*
X160850000Y-94235714D01*
X160992857Y-94235714D01*
X161088095Y-94283333D01*
X161135714Y-94378571D01*
X161135714Y-94902380D01*
X162040476Y-94235714D02*
X162040476Y-95045238D01*
X161992857Y-95140476D01*
X161945238Y-95188095D01*
X161850000Y-95235714D01*
X161707142Y-95235714D01*
X161611904Y-95188095D01*
X162040476Y-94854761D02*
X161945238Y-94902380D01*
X161754761Y-94902380D01*
X161659523Y-94854761D01*
X161611904Y-94807142D01*
X161564285Y-94711904D01*
X161564285Y-94426190D01*
X161611904Y-94330952D01*
X161659523Y-94283333D01*
X161754761Y-94235714D01*
X161945238Y-94235714D01*
X162040476Y-94283333D01*
X162897619Y-94854761D02*
X162802380Y-94902380D01*
X162611904Y-94902380D01*
X162516666Y-94854761D01*
X162469047Y-94759523D01*
X162469047Y-94378571D01*
X162516666Y-94283333D01*
X162611904Y-94235714D01*
X162802380Y-94235714D01*
X162897619Y-94283333D01*
X162945238Y-94378571D01*
X162945238Y-94473809D01*
X162469047Y-94569047D01*
X163373809Y-94235714D02*
X163373809Y-94902380D01*
X163373809Y-94330952D02*
X163421428Y-94283333D01*
X163516666Y-94235714D01*
X163659523Y-94235714D01*
X163754761Y-94283333D01*
X163802380Y-94378571D01*
X163802380Y-94902380D01*
X164278571Y-94807142D02*
X164326190Y-94854761D01*
X164278571Y-94902380D01*
X164230952Y-94854761D01*
X164278571Y-94807142D01*
X164278571Y-94902380D01*
X164897619Y-94902380D02*
X164802380Y-94854761D01*
X164754761Y-94807142D01*
X164707142Y-94711904D01*
X164707142Y-94426190D01*
X164754761Y-94330952D01*
X164802380Y-94283333D01*
X164897619Y-94235714D01*
X165040476Y-94235714D01*
X165135714Y-94283333D01*
X165183333Y-94330952D01*
X165230952Y-94426190D01*
X165230952Y-94711904D01*
X165183333Y-94807142D01*
X165135714Y-94854761D01*
X165040476Y-94902380D01*
X164897619Y-94902380D01*
X165659523Y-94902380D02*
X165659523Y-94235714D01*
X165659523Y-94426190D02*
X165707142Y-94330952D01*
X165754761Y-94283333D01*
X165850000Y-94235714D01*
X165945238Y-94235714D01*
X166707142Y-94235714D02*
X166707142Y-95045238D01*
X166659523Y-95140476D01*
X166611904Y-95188095D01*
X166516666Y-95235714D01*
X166373809Y-95235714D01*
X166278571Y-95188095D01*
X166707142Y-94854761D02*
X166611904Y-94902380D01*
X166421428Y-94902380D01*
X166326190Y-94854761D01*
X166278571Y-94807142D01*
X166230952Y-94711904D01*
X166230952Y-94426190D01*
X166278571Y-94330952D01*
X166326190Y-94283333D01*
X166421428Y-94235714D01*
X166611904Y-94235714D01*
X166707142Y-94283333D01*
X73633333Y-79602380D02*
X73300000Y-79126190D01*
X73061904Y-79602380D02*
X73061904Y-78602380D01*
X73442857Y-78602380D01*
X73538095Y-78650000D01*
X73585714Y-78697619D01*
X73633333Y-78792857D01*
X73633333Y-78935714D01*
X73585714Y-79030952D01*
X73538095Y-79078571D01*
X73442857Y-79126190D01*
X73061904Y-79126190D01*
X74490476Y-78935714D02*
X74490476Y-79602380D01*
X74252380Y-78554761D02*
X74014285Y-79269047D01*
X74633333Y-79269047D01*
X73633333Y-81102380D02*
X73300000Y-80626190D01*
X73061904Y-81102380D02*
X73061904Y-80102380D01*
X73442857Y-80102380D01*
X73538095Y-80150000D01*
X73585714Y-80197619D01*
X73633333Y-80292857D01*
X73633333Y-80435714D01*
X73585714Y-80530952D01*
X73538095Y-80578571D01*
X73442857Y-80626190D01*
X73061904Y-80626190D01*
X73966666Y-80102380D02*
X74585714Y-80102380D01*
X74252380Y-80483333D01*
X74395238Y-80483333D01*
X74490476Y-80530952D01*
X74538095Y-80578571D01*
X74585714Y-80673809D01*
X74585714Y-80911904D01*
X74538095Y-81007142D01*
X74490476Y-81054761D01*
X74395238Y-81102380D01*
X74109523Y-81102380D01*
X74014285Y-81054761D01*
X73966666Y-81007142D01*
X183866666Y-80152380D02*
X183866666Y-80866666D01*
X183819047Y-81009523D01*
X183723809Y-81104761D01*
X183580952Y-81152380D01*
X183485714Y-81152380D01*
X184247619Y-80152380D02*
X184866666Y-80152380D01*
X184533333Y-80533333D01*
X184676190Y-80533333D01*
X184771428Y-80580952D01*
X184819047Y-80628571D01*
X184866666Y-80723809D01*
X184866666Y-80961904D01*
X184819047Y-81057142D01*
X184771428Y-81104761D01*
X184676190Y-81152380D01*
X184390476Y-81152380D01*
X184295238Y-81104761D01*
X184247619Y-81057142D01*
X169457142Y-92252380D02*
X169123809Y-91776190D01*
X168885714Y-92252380D02*
X168885714Y-91252380D01*
X169266666Y-91252380D01*
X169361904Y-91300000D01*
X169409523Y-91347619D01*
X169457142Y-91442857D01*
X169457142Y-91585714D01*
X169409523Y-91680952D01*
X169361904Y-91728571D01*
X169266666Y-91776190D01*
X168885714Y-91776190D01*
X169838095Y-91347619D02*
X169885714Y-91300000D01*
X169980952Y-91252380D01*
X170219047Y-91252380D01*
X170314285Y-91300000D01*
X170361904Y-91347619D01*
X170409523Y-91442857D01*
X170409523Y-91538095D01*
X170361904Y-91680952D01*
X169790476Y-92252380D01*
X170409523Y-92252380D01*
X171028571Y-91252380D02*
X171123809Y-91252380D01*
X171219047Y-91300000D01*
X171266666Y-91347619D01*
X171314285Y-91442857D01*
X171361904Y-91633333D01*
X171361904Y-91871428D01*
X171314285Y-92061904D01*
X171266666Y-92157142D01*
X171219047Y-92204761D01*
X171123809Y-92252380D01*
X171028571Y-92252380D01*
X170933333Y-92204761D01*
X170885714Y-92157142D01*
X170838095Y-92061904D01*
X170790476Y-91871428D01*
X170790476Y-91633333D01*
X170838095Y-91442857D01*
X170885714Y-91347619D01*
X170933333Y-91300000D01*
X171028571Y-91252380D01*
X169457142Y-89652380D02*
X169123809Y-89176190D01*
X168885714Y-89652380D02*
X168885714Y-88652380D01*
X169266666Y-88652380D01*
X169361904Y-88700000D01*
X169409523Y-88747619D01*
X169457142Y-88842857D01*
X169457142Y-88985714D01*
X169409523Y-89080952D01*
X169361904Y-89128571D01*
X169266666Y-89176190D01*
X168885714Y-89176190D01*
X170409523Y-89652380D02*
X169838095Y-89652380D01*
X170123809Y-89652380D02*
X170123809Y-88652380D01*
X170028571Y-88795238D01*
X169933333Y-88890476D01*
X169838095Y-88938095D01*
X170885714Y-89652380D02*
X171076190Y-89652380D01*
X171171428Y-89604761D01*
X171219047Y-89557142D01*
X171314285Y-89414285D01*
X171361904Y-89223809D01*
X171361904Y-88842857D01*
X171314285Y-88747619D01*
X171266666Y-88700000D01*
X171171428Y-88652380D01*
X170980952Y-88652380D01*
X170885714Y-88700000D01*
X170838095Y-88747619D01*
X170790476Y-88842857D01*
X170790476Y-89080952D01*
X170838095Y-89176190D01*
X170885714Y-89223809D01*
X170980952Y-89271428D01*
X171171428Y-89271428D01*
X171266666Y-89223809D01*
X171314285Y-89176190D01*
X171361904Y-89080952D01*
X169457142Y-84952380D02*
X169123809Y-84476190D01*
X168885714Y-84952380D02*
X168885714Y-83952380D01*
X169266666Y-83952380D01*
X169361904Y-84000000D01*
X169409523Y-84047619D01*
X169457142Y-84142857D01*
X169457142Y-84285714D01*
X169409523Y-84380952D01*
X169361904Y-84428571D01*
X169266666Y-84476190D01*
X168885714Y-84476190D01*
X170409523Y-84952380D02*
X169838095Y-84952380D01*
X170123809Y-84952380D02*
X170123809Y-83952380D01*
X170028571Y-84095238D01*
X169933333Y-84190476D01*
X169838095Y-84238095D01*
X170980952Y-84380952D02*
X170885714Y-84333333D01*
X170838095Y-84285714D01*
X170790476Y-84190476D01*
X170790476Y-84142857D01*
X170838095Y-84047619D01*
X170885714Y-84000000D01*
X170980952Y-83952380D01*
X171171428Y-83952380D01*
X171266666Y-84000000D01*
X171314285Y-84047619D01*
X171361904Y-84142857D01*
X171361904Y-84190476D01*
X171314285Y-84285714D01*
X171266666Y-84333333D01*
X171171428Y-84380952D01*
X170980952Y-84380952D01*
X170885714Y-84428571D01*
X170838095Y-84476190D01*
X170790476Y-84571428D01*
X170790476Y-84761904D01*
X170838095Y-84857142D01*
X170885714Y-84904761D01*
X170980952Y-84952380D01*
X171171428Y-84952380D01*
X171266666Y-84904761D01*
X171314285Y-84857142D01*
X171361904Y-84761904D01*
X171361904Y-84571428D01*
X171314285Y-84476190D01*
X171266666Y-84428571D01*
X171171428Y-84380952D01*
X123238095Y-77052380D02*
X123238095Y-77861904D01*
X123285714Y-77957142D01*
X123333333Y-78004761D01*
X123428571Y-78052380D01*
X123619047Y-78052380D01*
X123714285Y-78004761D01*
X123761904Y-77957142D01*
X123809523Y-77861904D01*
X123809523Y-77052380D01*
X124190476Y-77052380D02*
X124809523Y-77052380D01*
X124476190Y-77433333D01*
X124619047Y-77433333D01*
X124714285Y-77480952D01*
X124761904Y-77528571D01*
X124809523Y-77623809D01*
X124809523Y-77861904D01*
X124761904Y-77957142D01*
X124714285Y-78004761D01*
X124619047Y-78052380D01*
X124333333Y-78052380D01*
X124238095Y-78004761D01*
X124190476Y-77957142D01*
X172457142Y-80952380D02*
X172123809Y-80476190D01*
X171885714Y-80952380D02*
X171885714Y-79952380D01*
X172266666Y-79952380D01*
X172361904Y-80000000D01*
X172409523Y-80047619D01*
X172457142Y-80142857D01*
X172457142Y-80285714D01*
X172409523Y-80380952D01*
X172361904Y-80428571D01*
X172266666Y-80476190D01*
X171885714Y-80476190D01*
X173409523Y-80952380D02*
X172838095Y-80952380D01*
X173123809Y-80952380D02*
X173123809Y-79952380D01*
X173028571Y-80095238D01*
X172933333Y-80190476D01*
X172838095Y-80238095D01*
X173742857Y-79952380D02*
X174409523Y-79952380D01*
X173980952Y-80952380D01*
X127857142Y-69002380D02*
X127523809Y-68526190D01*
X127285714Y-69002380D02*
X127285714Y-68002380D01*
X127666666Y-68002380D01*
X127761904Y-68050000D01*
X127809523Y-68097619D01*
X127857142Y-68192857D01*
X127857142Y-68335714D01*
X127809523Y-68430952D01*
X127761904Y-68478571D01*
X127666666Y-68526190D01*
X127285714Y-68526190D01*
X128809523Y-69002380D02*
X128238095Y-69002380D01*
X128523809Y-69002380D02*
X128523809Y-68002380D01*
X128428571Y-68145238D01*
X128333333Y-68240476D01*
X128238095Y-68288095D01*
X129761904Y-69002380D02*
X129190476Y-69002380D01*
X129476190Y-69002380D02*
X129476190Y-68002380D01*
X129380952Y-68145238D01*
X129285714Y-68240476D01*
X129190476Y-68288095D01*
X80107142Y-85337142D02*
X80059523Y-85384761D01*
X79916666Y-85432380D01*
X79821428Y-85432380D01*
X79678571Y-85384761D01*
X79583333Y-85289523D01*
X79535714Y-85194285D01*
X79488095Y-85003809D01*
X79488095Y-84860952D01*
X79535714Y-84670476D01*
X79583333Y-84575238D01*
X79678571Y-84480000D01*
X79821428Y-84432380D01*
X79916666Y-84432380D01*
X80059523Y-84480000D01*
X80107142Y-84527619D01*
X81059523Y-85432380D02*
X80488095Y-85432380D01*
X80773809Y-85432380D02*
X80773809Y-84432380D01*
X80678571Y-84575238D01*
X80583333Y-84670476D01*
X80488095Y-84718095D01*
X81916666Y-84765714D02*
X81916666Y-85432380D01*
X81678571Y-84384761D02*
X81440476Y-85099047D01*
X82059523Y-85099047D01*
X90107142Y-94566666D02*
X90154761Y-94614285D01*
X90202380Y-94757142D01*
X90202380Y-94852380D01*
X90154761Y-94995238D01*
X90059523Y-95090476D01*
X89964285Y-95138095D01*
X89773809Y-95185714D01*
X89630952Y-95185714D01*
X89440476Y-95138095D01*
X89345238Y-95090476D01*
X89250000Y-94995238D01*
X89202380Y-94852380D01*
X89202380Y-94757142D01*
X89250000Y-94614285D01*
X89297619Y-94566666D01*
X89297619Y-94185714D02*
X89250000Y-94138095D01*
X89202380Y-94042857D01*
X89202380Y-93804761D01*
X89250000Y-93709523D01*
X89297619Y-93661904D01*
X89392857Y-93614285D01*
X89488095Y-93614285D01*
X89630952Y-93661904D01*
X90202380Y-94233333D01*
X90202380Y-93614285D01*
X73666666Y-69952380D02*
X73666666Y-70666666D01*
X73619047Y-70809523D01*
X73523809Y-70904761D01*
X73380952Y-70952380D01*
X73285714Y-70952380D01*
X74571428Y-70285714D02*
X74571428Y-70952380D01*
X74333333Y-69904761D02*
X74095238Y-70619047D01*
X74714285Y-70619047D01*
X183966666Y-69252380D02*
X183966666Y-69966666D01*
X183919047Y-70109523D01*
X183823809Y-70204761D01*
X183680952Y-70252380D01*
X183585714Y-70252380D01*
X184585714Y-69680952D02*
X184490476Y-69633333D01*
X184442857Y-69585714D01*
X184395238Y-69490476D01*
X184395238Y-69442857D01*
X184442857Y-69347619D01*
X184490476Y-69300000D01*
X184585714Y-69252380D01*
X184776190Y-69252380D01*
X184871428Y-69300000D01*
X184919047Y-69347619D01*
X184966666Y-69442857D01*
X184966666Y-69490476D01*
X184919047Y-69585714D01*
X184871428Y-69633333D01*
X184776190Y-69680952D01*
X184585714Y-69680952D01*
X184490476Y-69728571D01*
X184442857Y-69776190D01*
X184395238Y-69871428D01*
X184395238Y-70061904D01*
X184442857Y-70157142D01*
X184490476Y-70204761D01*
X184585714Y-70252380D01*
X184776190Y-70252380D01*
X184871428Y-70204761D01*
X184919047Y-70157142D01*
X184966666Y-70061904D01*
X184966666Y-69871428D01*
X184919047Y-69776190D01*
X184871428Y-69728571D01*
X184776190Y-69680952D01*
X174796666Y-63452380D02*
X174796666Y-64166666D01*
X174749047Y-64309523D01*
X174653809Y-64404761D01*
X174510952Y-64452380D01*
X174415714Y-64452380D01*
X175177619Y-63452380D02*
X175844285Y-63452380D01*
X175415714Y-64452380D01*
X172757142Y-74852380D02*
X172423809Y-74376190D01*
X172185714Y-74852380D02*
X172185714Y-73852380D01*
X172566666Y-73852380D01*
X172661904Y-73900000D01*
X172709523Y-73947619D01*
X172757142Y-74042857D01*
X172757142Y-74185714D01*
X172709523Y-74280952D01*
X172661904Y-74328571D01*
X172566666Y-74376190D01*
X172185714Y-74376190D01*
X173709523Y-74852380D02*
X173138095Y-74852380D01*
X173423809Y-74852380D02*
X173423809Y-73852380D01*
X173328571Y-73995238D01*
X173233333Y-74090476D01*
X173138095Y-74138095D01*
X174566666Y-73852380D02*
X174376190Y-73852380D01*
X174280952Y-73900000D01*
X174233333Y-73947619D01*
X174138095Y-74090476D01*
X174090476Y-74280952D01*
X174090476Y-74661904D01*
X174138095Y-74757142D01*
X174185714Y-74804761D01*
X174280952Y-74852380D01*
X174471428Y-74852380D01*
X174566666Y-74804761D01*
X174614285Y-74757142D01*
X174661904Y-74661904D01*
X174661904Y-74423809D01*
X174614285Y-74328571D01*
X174566666Y-74280952D01*
X174471428Y-74233333D01*
X174280952Y-74233333D01*
X174185714Y-74280952D01*
X174138095Y-74328571D01*
X174090476Y-74423809D01*
X172657142Y-72452380D02*
X172323809Y-71976190D01*
X172085714Y-72452380D02*
X172085714Y-71452380D01*
X172466666Y-71452380D01*
X172561904Y-71500000D01*
X172609523Y-71547619D01*
X172657142Y-71642857D01*
X172657142Y-71785714D01*
X172609523Y-71880952D01*
X172561904Y-71928571D01*
X172466666Y-71976190D01*
X172085714Y-71976190D01*
X173609523Y-72452380D02*
X173038095Y-72452380D01*
X173323809Y-72452380D02*
X173323809Y-71452380D01*
X173228571Y-71595238D01*
X173133333Y-71690476D01*
X173038095Y-71738095D01*
X174514285Y-71452380D02*
X174038095Y-71452380D01*
X173990476Y-71928571D01*
X174038095Y-71880952D01*
X174133333Y-71833333D01*
X174371428Y-71833333D01*
X174466666Y-71880952D01*
X174514285Y-71928571D01*
X174561904Y-72023809D01*
X174561904Y-72261904D01*
X174514285Y-72357142D01*
X174466666Y-72404761D01*
X174371428Y-72452380D01*
X174133333Y-72452380D01*
X174038095Y-72404761D01*
X173990476Y-72357142D01*
X173204761Y-78647619D02*
X173109523Y-78600000D01*
X173014285Y-78504761D01*
X172871428Y-78361904D01*
X172776190Y-78314285D01*
X172680952Y-78314285D01*
X172728571Y-78552380D02*
X172633333Y-78504761D01*
X172538095Y-78409523D01*
X172490476Y-78219047D01*
X172490476Y-77885714D01*
X172538095Y-77695238D01*
X172633333Y-77600000D01*
X172728571Y-77552380D01*
X172919047Y-77552380D01*
X173014285Y-77600000D01*
X173109523Y-77695238D01*
X173157142Y-77885714D01*
X173157142Y-78219047D01*
X173109523Y-78409523D01*
X173014285Y-78504761D01*
X172919047Y-78552380D01*
X172728571Y-78552380D01*
X174109523Y-78552380D02*
X173538095Y-78552380D01*
X173823809Y-78552380D02*
X173823809Y-77552380D01*
X173728571Y-77695238D01*
X173633333Y-77790476D01*
X173538095Y-77838095D01*
X86107142Y-93192857D02*
X86154761Y-93240476D01*
X86202380Y-93383333D01*
X86202380Y-93478571D01*
X86154761Y-93621428D01*
X86059523Y-93716666D01*
X85964285Y-93764285D01*
X85773809Y-93811904D01*
X85630952Y-93811904D01*
X85440476Y-93764285D01*
X85345238Y-93716666D01*
X85250000Y-93621428D01*
X85202380Y-93478571D01*
X85202380Y-93383333D01*
X85250000Y-93240476D01*
X85297619Y-93192857D01*
X86202380Y-92240476D02*
X86202380Y-92811904D01*
X86202380Y-92526190D02*
X85202380Y-92526190D01*
X85345238Y-92621428D01*
X85440476Y-92716666D01*
X85488095Y-92811904D01*
X85202380Y-91907142D02*
X85202380Y-91288095D01*
X85583333Y-91621428D01*
X85583333Y-91478571D01*
X85630952Y-91383333D01*
X85678571Y-91335714D01*
X85773809Y-91288095D01*
X86011904Y-91288095D01*
X86107142Y-91335714D01*
X86154761Y-91383333D01*
X86202380Y-91478571D01*
X86202380Y-91764285D01*
X86154761Y-91859523D01*
X86107142Y-91907142D01*
X134338095Y-72052380D02*
X134338095Y-72861904D01*
X134385714Y-72957142D01*
X134433333Y-73004761D01*
X134528571Y-73052380D01*
X134719047Y-73052380D01*
X134814285Y-73004761D01*
X134861904Y-72957142D01*
X134909523Y-72861904D01*
X134909523Y-72052380D01*
X135814285Y-72385714D02*
X135814285Y-73052380D01*
X135576190Y-72004761D02*
X135338095Y-72719047D01*
X135957142Y-72719047D01*
X143957142Y-73052380D02*
X143623809Y-72576190D01*
X143385714Y-73052380D02*
X143385714Y-72052380D01*
X143766666Y-72052380D01*
X143861904Y-72100000D01*
X143909523Y-72147619D01*
X143957142Y-72242857D01*
X143957142Y-72385714D01*
X143909523Y-72480952D01*
X143861904Y-72528571D01*
X143766666Y-72576190D01*
X143385714Y-72576190D01*
X144909523Y-73052380D02*
X144338095Y-73052380D01*
X144623809Y-73052380D02*
X144623809Y-72052380D01*
X144528571Y-72195238D01*
X144433333Y-72290476D01*
X144338095Y-72338095D01*
X145766666Y-72385714D02*
X145766666Y-73052380D01*
X145528571Y-72004761D02*
X145290476Y-72719047D01*
X145909523Y-72719047D01*
X98657142Y-74902380D02*
X98323809Y-74426190D01*
X98085714Y-74902380D02*
X98085714Y-73902380D01*
X98466666Y-73902380D01*
X98561904Y-73950000D01*
X98609523Y-73997619D01*
X98657142Y-74092857D01*
X98657142Y-74235714D01*
X98609523Y-74330952D01*
X98561904Y-74378571D01*
X98466666Y-74426190D01*
X98085714Y-74426190D01*
X99609523Y-74902380D02*
X99038095Y-74902380D01*
X99323809Y-74902380D02*
X99323809Y-73902380D01*
X99228571Y-74045238D01*
X99133333Y-74140476D01*
X99038095Y-74188095D01*
X99942857Y-73902380D02*
X100561904Y-73902380D01*
X100228571Y-74283333D01*
X100371428Y-74283333D01*
X100466666Y-74330952D01*
X100514285Y-74378571D01*
X100561904Y-74473809D01*
X100561904Y-74711904D01*
X100514285Y-74807142D01*
X100466666Y-74854761D01*
X100371428Y-74902380D01*
X100085714Y-74902380D01*
X99990476Y-74854761D01*
X99942857Y-74807142D01*
X57952380Y-69642857D02*
X57476190Y-69976190D01*
X57952380Y-70214285D02*
X56952380Y-70214285D01*
X56952380Y-69833333D01*
X57000000Y-69738095D01*
X57047619Y-69690476D01*
X57142857Y-69642857D01*
X57285714Y-69642857D01*
X57380952Y-69690476D01*
X57428571Y-69738095D01*
X57476190Y-69833333D01*
X57476190Y-70214285D01*
X57952380Y-68690476D02*
X57952380Y-69261904D01*
X57952380Y-68976190D02*
X56952380Y-68976190D01*
X57095238Y-69071428D01*
X57190476Y-69166666D01*
X57238095Y-69261904D01*
X57047619Y-68309523D02*
X57000000Y-68261904D01*
X56952380Y-68166666D01*
X56952380Y-67928571D01*
X57000000Y-67833333D01*
X57047619Y-67785714D01*
X57142857Y-67738095D01*
X57238095Y-67738095D01*
X57380952Y-67785714D01*
X57952380Y-68357142D01*
X57952380Y-67738095D01*
X56522380Y-62238095D02*
X55522380Y-62238095D01*
X55522380Y-62000000D01*
X55570000Y-61857142D01*
X55665238Y-61761904D01*
X55760476Y-61714285D01*
X55950952Y-61666666D01*
X56093809Y-61666666D01*
X56284285Y-61714285D01*
X56379523Y-61761904D01*
X56474761Y-61857142D01*
X56522380Y-62000000D01*
X56522380Y-62238095D01*
X56522380Y-60714285D02*
X56522380Y-61285714D01*
X56522380Y-61000000D02*
X55522380Y-61000000D01*
X55665238Y-61095238D01*
X55760476Y-61190476D01*
X55808095Y-61285714D01*
X119857142Y-78957142D02*
X119809523Y-79004761D01*
X119666666Y-79052380D01*
X119571428Y-79052380D01*
X119428571Y-79004761D01*
X119333333Y-78909523D01*
X119285714Y-78814285D01*
X119238095Y-78623809D01*
X119238095Y-78480952D01*
X119285714Y-78290476D01*
X119333333Y-78195238D01*
X119428571Y-78100000D01*
X119571428Y-78052380D01*
X119666666Y-78052380D01*
X119809523Y-78100000D01*
X119857142Y-78147619D01*
X120809523Y-79052380D02*
X120238095Y-79052380D01*
X120523809Y-79052380D02*
X120523809Y-78052380D01*
X120428571Y-78195238D01*
X120333333Y-78290476D01*
X120238095Y-78338095D01*
X121761904Y-79052380D02*
X121190476Y-79052380D01*
X121476190Y-79052380D02*
X121476190Y-78052380D01*
X121380952Y-78195238D01*
X121285714Y-78290476D01*
X121190476Y-78338095D01*
X103857142Y-79457142D02*
X103809523Y-79504761D01*
X103666666Y-79552380D01*
X103571428Y-79552380D01*
X103428571Y-79504761D01*
X103333333Y-79409523D01*
X103285714Y-79314285D01*
X103238095Y-79123809D01*
X103238095Y-78980952D01*
X103285714Y-78790476D01*
X103333333Y-78695238D01*
X103428571Y-78600000D01*
X103571428Y-78552380D01*
X103666666Y-78552380D01*
X103809523Y-78600000D01*
X103857142Y-78647619D01*
X104809523Y-79552380D02*
X104238095Y-79552380D01*
X104523809Y-79552380D02*
X104523809Y-78552380D01*
X104428571Y-78695238D01*
X104333333Y-78790476D01*
X104238095Y-78838095D01*
X105428571Y-78552380D02*
X105523809Y-78552380D01*
X105619047Y-78600000D01*
X105666666Y-78647619D01*
X105714285Y-78742857D01*
X105761904Y-78933333D01*
X105761904Y-79171428D01*
X105714285Y-79361904D01*
X105666666Y-79457142D01*
X105619047Y-79504761D01*
X105523809Y-79552380D01*
X105428571Y-79552380D01*
X105333333Y-79504761D01*
X105285714Y-79457142D01*
X105238095Y-79361904D01*
X105190476Y-79171428D01*
X105190476Y-78933333D01*
X105238095Y-78742857D01*
X105285714Y-78647619D01*
X105333333Y-78600000D01*
X105428571Y-78552380D01*
X106538095Y-76652380D02*
X106538095Y-77461904D01*
X106585714Y-77557142D01*
X106633333Y-77604761D01*
X106728571Y-77652380D01*
X106919047Y-77652380D01*
X107014285Y-77604761D01*
X107061904Y-77557142D01*
X107109523Y-77461904D01*
X107109523Y-76652380D01*
X108061904Y-76652380D02*
X107585714Y-76652380D01*
X107538095Y-77128571D01*
X107585714Y-77080952D01*
X107680952Y-77033333D01*
X107919047Y-77033333D01*
X108014285Y-77080952D01*
X108061904Y-77128571D01*
X108109523Y-77223809D01*
X108109523Y-77461904D01*
X108061904Y-77557142D01*
X108014285Y-77604761D01*
X107919047Y-77652380D01*
X107680952Y-77652380D01*
X107585714Y-77604761D01*
X107538095Y-77557142D01*
X114807142Y-69002380D02*
X114473809Y-68526190D01*
X114235714Y-69002380D02*
X114235714Y-68002380D01*
X114616666Y-68002380D01*
X114711904Y-68050000D01*
X114759523Y-68097619D01*
X114807142Y-68192857D01*
X114807142Y-68335714D01*
X114759523Y-68430952D01*
X114711904Y-68478571D01*
X114616666Y-68526190D01*
X114235714Y-68526190D01*
X115759523Y-69002380D02*
X115188095Y-69002380D01*
X115473809Y-69002380D02*
X115473809Y-68002380D01*
X115378571Y-68145238D01*
X115283333Y-68240476D01*
X115188095Y-68288095D01*
X116378571Y-68002380D02*
X116473809Y-68002380D01*
X116569047Y-68050000D01*
X116616666Y-68097619D01*
X116664285Y-68192857D01*
X116711904Y-68383333D01*
X116711904Y-68621428D01*
X116664285Y-68811904D01*
X116616666Y-68907142D01*
X116569047Y-68954761D01*
X116473809Y-69002380D01*
X116378571Y-69002380D01*
X116283333Y-68954761D01*
X116235714Y-68907142D01*
X116188095Y-68811904D01*
X116140476Y-68621428D01*
X116140476Y-68383333D01*
X116188095Y-68192857D01*
X116235714Y-68097619D01*
X116283333Y-68050000D01*
X116378571Y-68002380D01*
X111183333Y-69052380D02*
X110850000Y-68576190D01*
X110611904Y-69052380D02*
X110611904Y-68052380D01*
X110992857Y-68052380D01*
X111088095Y-68100000D01*
X111135714Y-68147619D01*
X111183333Y-68242857D01*
X111183333Y-68385714D01*
X111135714Y-68480952D01*
X111088095Y-68528571D01*
X110992857Y-68576190D01*
X110611904Y-68576190D01*
X111659523Y-69052380D02*
X111850000Y-69052380D01*
X111945238Y-69004761D01*
X111992857Y-68957142D01*
X112088095Y-68814285D01*
X112135714Y-68623809D01*
X112135714Y-68242857D01*
X112088095Y-68147619D01*
X112040476Y-68100000D01*
X111945238Y-68052380D01*
X111754761Y-68052380D01*
X111659523Y-68100000D01*
X111611904Y-68147619D01*
X111564285Y-68242857D01*
X111564285Y-68480952D01*
X111611904Y-68576190D01*
X111659523Y-68623809D01*
X111754761Y-68671428D01*
X111945238Y-68671428D01*
X112040476Y-68623809D01*
X112088095Y-68576190D01*
X112135714Y-68480952D01*
X95933333Y-66152380D02*
X95600000Y-65676190D01*
X95361904Y-66152380D02*
X95361904Y-65152380D01*
X95742857Y-65152380D01*
X95838095Y-65200000D01*
X95885714Y-65247619D01*
X95933333Y-65342857D01*
X95933333Y-65485714D01*
X95885714Y-65580952D01*
X95838095Y-65628571D01*
X95742857Y-65676190D01*
X95361904Y-65676190D01*
X96504761Y-65580952D02*
X96409523Y-65533333D01*
X96361904Y-65485714D01*
X96314285Y-65390476D01*
X96314285Y-65342857D01*
X96361904Y-65247619D01*
X96409523Y-65200000D01*
X96504761Y-65152380D01*
X96695238Y-65152380D01*
X96790476Y-65200000D01*
X96838095Y-65247619D01*
X96885714Y-65342857D01*
X96885714Y-65390476D01*
X96838095Y-65485714D01*
X96790476Y-65533333D01*
X96695238Y-65580952D01*
X96504761Y-65580952D01*
X96409523Y-65628571D01*
X96361904Y-65676190D01*
X96314285Y-65771428D01*
X96314285Y-65961904D01*
X96361904Y-66057142D01*
X96409523Y-66104761D01*
X96504761Y-66152380D01*
X96695238Y-66152380D01*
X96790476Y-66104761D01*
X96838095Y-66057142D01*
X96885714Y-65961904D01*
X96885714Y-65771428D01*
X96838095Y-65676190D01*
X96790476Y-65628571D01*
X96695238Y-65580952D01*
X113333333Y-67052380D02*
X113000000Y-66576190D01*
X112761904Y-67052380D02*
X112761904Y-66052380D01*
X113142857Y-66052380D01*
X113238095Y-66100000D01*
X113285714Y-66147619D01*
X113333333Y-66242857D01*
X113333333Y-66385714D01*
X113285714Y-66480952D01*
X113238095Y-66528571D01*
X113142857Y-66576190D01*
X112761904Y-66576190D01*
X113714285Y-66147619D02*
X113761904Y-66100000D01*
X113857142Y-66052380D01*
X114095238Y-66052380D01*
X114190476Y-66100000D01*
X114238095Y-66147619D01*
X114285714Y-66242857D01*
X114285714Y-66338095D01*
X114238095Y-66480952D01*
X113666666Y-67052380D01*
X114285714Y-67052380D01*
X81766666Y-60552380D02*
X81766666Y-61266666D01*
X81719047Y-61409523D01*
X81623809Y-61504761D01*
X81480952Y-61552380D01*
X81385714Y-61552380D01*
X82671428Y-60552380D02*
X82480952Y-60552380D01*
X82385714Y-60600000D01*
X82338095Y-60647619D01*
X82242857Y-60790476D01*
X82195238Y-60980952D01*
X82195238Y-61361904D01*
X82242857Y-61457142D01*
X82290476Y-61504761D01*
X82385714Y-61552380D01*
X82576190Y-61552380D01*
X82671428Y-61504761D01*
X82719047Y-61457142D01*
X82766666Y-61361904D01*
X82766666Y-61123809D01*
X82719047Y-61028571D01*
X82671428Y-60980952D01*
X82576190Y-60933333D01*
X82385714Y-60933333D01*
X82290476Y-60980952D01*
X82242857Y-61028571D01*
X82195238Y-61123809D01*
X65928571Y-78083333D02*
X65928571Y-78416666D01*
X66452380Y-78416666D02*
X65452380Y-78416666D01*
X65452380Y-77940476D01*
X65928571Y-77226190D02*
X65976190Y-77083333D01*
X66023809Y-77035714D01*
X66119047Y-76988095D01*
X66261904Y-76988095D01*
X66357142Y-77035714D01*
X66404761Y-77083333D01*
X66452380Y-77178571D01*
X66452380Y-77559523D01*
X65452380Y-77559523D01*
X65452380Y-77226190D01*
X65500000Y-77130952D01*
X65547619Y-77083333D01*
X65642857Y-77035714D01*
X65738095Y-77035714D01*
X65833333Y-77083333D01*
X65880952Y-77130952D01*
X65928571Y-77226190D01*
X65928571Y-77559523D01*
X66452380Y-76035714D02*
X66452380Y-76607142D01*
X66452380Y-76321428D02*
X65452380Y-76321428D01*
X65595238Y-76416666D01*
X65690476Y-76511904D01*
X65738095Y-76607142D01*
X136266666Y-64652380D02*
X136266666Y-65366666D01*
X136219047Y-65509523D01*
X136123809Y-65604761D01*
X135980952Y-65652380D01*
X135885714Y-65652380D01*
X136790476Y-65652380D02*
X136980952Y-65652380D01*
X137076190Y-65604761D01*
X137123809Y-65557142D01*
X137219047Y-65414285D01*
X137266666Y-65223809D01*
X137266666Y-64842857D01*
X137219047Y-64747619D01*
X137171428Y-64700000D01*
X137076190Y-64652380D01*
X136885714Y-64652380D01*
X136790476Y-64700000D01*
X136742857Y-64747619D01*
X136695238Y-64842857D01*
X136695238Y-65080952D01*
X136742857Y-65176190D01*
X136790476Y-65223809D01*
X136885714Y-65271428D01*
X137076190Y-65271428D01*
X137171428Y-65223809D01*
X137219047Y-65176190D01*
X137266666Y-65080952D01*
X62607142Y-73716666D02*
X62654761Y-73764285D01*
X62702380Y-73907142D01*
X62702380Y-74002380D01*
X62654761Y-74145238D01*
X62559523Y-74240476D01*
X62464285Y-74288095D01*
X62273809Y-74335714D01*
X62130952Y-74335714D01*
X61940476Y-74288095D01*
X61845238Y-74240476D01*
X61750000Y-74145238D01*
X61702380Y-74002380D01*
X61702380Y-73907142D01*
X61750000Y-73764285D01*
X61797619Y-73716666D01*
X62702380Y-73240476D02*
X62702380Y-73050000D01*
X62654761Y-72954761D01*
X62607142Y-72907142D01*
X62464285Y-72811904D01*
X62273809Y-72764285D01*
X61892857Y-72764285D01*
X61797619Y-72811904D01*
X61750000Y-72859523D01*
X61702380Y-72954761D01*
X61702380Y-73145238D01*
X61750000Y-73240476D01*
X61797619Y-73288095D01*
X61892857Y-73335714D01*
X62130952Y-73335714D01*
X62226190Y-73288095D01*
X62273809Y-73240476D01*
X62321428Y-73145238D01*
X62321428Y-72954761D01*
X62273809Y-72859523D01*
X62226190Y-72811904D01*
X62130952Y-72764285D01*
X83233333Y-74407142D02*
X83185714Y-74454761D01*
X83042857Y-74502380D01*
X82947619Y-74502380D01*
X82804761Y-74454761D01*
X82709523Y-74359523D01*
X82661904Y-74264285D01*
X82614285Y-74073809D01*
X82614285Y-73930952D01*
X82661904Y-73740476D01*
X82709523Y-73645238D01*
X82804761Y-73550000D01*
X82947619Y-73502380D01*
X83042857Y-73502380D01*
X83185714Y-73550000D01*
X83233333Y-73597619D01*
X83804761Y-73930952D02*
X83709523Y-73883333D01*
X83661904Y-73835714D01*
X83614285Y-73740476D01*
X83614285Y-73692857D01*
X83661904Y-73597619D01*
X83709523Y-73550000D01*
X83804761Y-73502380D01*
X83995238Y-73502380D01*
X84090476Y-73550000D01*
X84138095Y-73597619D01*
X84185714Y-73692857D01*
X84185714Y-73740476D01*
X84138095Y-73835714D01*
X84090476Y-73883333D01*
X83995238Y-73930952D01*
X83804761Y-73930952D01*
X83709523Y-73978571D01*
X83661904Y-74026190D01*
X83614285Y-74121428D01*
X83614285Y-74311904D01*
X83661904Y-74407142D01*
X83709523Y-74454761D01*
X83804761Y-74502380D01*
X83995238Y-74502380D01*
X84090476Y-74454761D01*
X84138095Y-74407142D01*
X84185714Y-74311904D01*
X84185714Y-74121428D01*
X84138095Y-74026190D01*
X84090476Y-73978571D01*
X83995238Y-73930952D01*
X83338095Y-77402380D02*
X83338095Y-78211904D01*
X83385714Y-78307142D01*
X83433333Y-78354761D01*
X83528571Y-78402380D01*
X83719047Y-78402380D01*
X83814285Y-78354761D01*
X83861904Y-78307142D01*
X83909523Y-78211904D01*
X83909523Y-77402380D01*
X84909523Y-78402380D02*
X84338095Y-78402380D01*
X84623809Y-78402380D02*
X84623809Y-77402380D01*
X84528571Y-77545238D01*
X84433333Y-77640476D01*
X84338095Y-77688095D01*
X98633333Y-77902380D02*
X98300000Y-77426190D01*
X98061904Y-77902380D02*
X98061904Y-76902380D01*
X98442857Y-76902380D01*
X98538095Y-76950000D01*
X98585714Y-76997619D01*
X98633333Y-77092857D01*
X98633333Y-77235714D01*
X98585714Y-77330952D01*
X98538095Y-77378571D01*
X98442857Y-77426190D01*
X98061904Y-77426190D01*
X99585714Y-77902380D02*
X99014285Y-77902380D01*
X99300000Y-77902380D02*
X99300000Y-76902380D01*
X99204761Y-77045238D01*
X99109523Y-77140476D01*
X99014285Y-77188095D01*
X109973809Y-88376190D02*
X109973809Y-88852380D01*
X109640476Y-87852380D02*
X109973809Y-88376190D01*
X110307142Y-87852380D01*
X111164285Y-88852380D02*
X110592857Y-88852380D01*
X110878571Y-88852380D02*
X110878571Y-87852380D01*
X110783333Y-87995238D01*
X110688095Y-88090476D01*
X110592857Y-88138095D01*
X143933333Y-71552380D02*
X143600000Y-71076190D01*
X143361904Y-71552380D02*
X143361904Y-70552380D01*
X143742857Y-70552380D01*
X143838095Y-70600000D01*
X143885714Y-70647619D01*
X143933333Y-70742857D01*
X143933333Y-70885714D01*
X143885714Y-70980952D01*
X143838095Y-71028571D01*
X143742857Y-71076190D01*
X143361904Y-71076190D01*
X144790476Y-70552380D02*
X144600000Y-70552380D01*
X144504761Y-70600000D01*
X144457142Y-70647619D01*
X144361904Y-70790476D01*
X144314285Y-70980952D01*
X144314285Y-71361904D01*
X144361904Y-71457142D01*
X144409523Y-71504761D01*
X144504761Y-71552380D01*
X144695238Y-71552380D01*
X144790476Y-71504761D01*
X144838095Y-71457142D01*
X144885714Y-71361904D01*
X144885714Y-71123809D01*
X144838095Y-71028571D01*
X144790476Y-70980952D01*
X144695238Y-70933333D01*
X144504761Y-70933333D01*
X144409523Y-70980952D01*
X144361904Y-71028571D01*
X144314285Y-71123809D01*
X98633333Y-76402380D02*
X98300000Y-75926190D01*
X98061904Y-76402380D02*
X98061904Y-75402380D01*
X98442857Y-75402380D01*
X98538095Y-75450000D01*
X98585714Y-75497619D01*
X98633333Y-75592857D01*
X98633333Y-75735714D01*
X98585714Y-75830952D01*
X98538095Y-75878571D01*
X98442857Y-75926190D01*
X98061904Y-75926190D01*
X99538095Y-75402380D02*
X99061904Y-75402380D01*
X99014285Y-75878571D01*
X99061904Y-75830952D01*
X99157142Y-75783333D01*
X99395238Y-75783333D01*
X99490476Y-75830952D01*
X99538095Y-75878571D01*
X99585714Y-75973809D01*
X99585714Y-76211904D01*
X99538095Y-76307142D01*
X99490476Y-76354761D01*
X99395238Y-76402380D01*
X99157142Y-76402380D01*
X99061904Y-76354761D01*
X99014285Y-76307142D01*
X75057142Y-90866666D02*
X75104761Y-90914285D01*
X75152380Y-91057142D01*
X75152380Y-91152380D01*
X75104761Y-91295238D01*
X75009523Y-91390476D01*
X74914285Y-91438095D01*
X74723809Y-91485714D01*
X74580952Y-91485714D01*
X74390476Y-91438095D01*
X74295238Y-91390476D01*
X74200000Y-91295238D01*
X74152380Y-91152380D01*
X74152380Y-91057142D01*
X74200000Y-90914285D01*
X74247619Y-90866666D01*
X74152380Y-90533333D02*
X74152380Y-89866666D01*
X75152380Y-90295238D01*
X83233333Y-76007142D02*
X83185714Y-76054761D01*
X83042857Y-76102380D01*
X82947619Y-76102380D01*
X82804761Y-76054761D01*
X82709523Y-75959523D01*
X82661904Y-75864285D01*
X82614285Y-75673809D01*
X82614285Y-75530952D01*
X82661904Y-75340476D01*
X82709523Y-75245238D01*
X82804761Y-75150000D01*
X82947619Y-75102380D01*
X83042857Y-75102380D01*
X83185714Y-75150000D01*
X83233333Y-75197619D01*
X84090476Y-75102380D02*
X83900000Y-75102380D01*
X83804761Y-75150000D01*
X83757142Y-75197619D01*
X83661904Y-75340476D01*
X83614285Y-75530952D01*
X83614285Y-75911904D01*
X83661904Y-76007142D01*
X83709523Y-76054761D01*
X83804761Y-76102380D01*
X83995238Y-76102380D01*
X84090476Y-76054761D01*
X84138095Y-76007142D01*
X84185714Y-75911904D01*
X84185714Y-75673809D01*
X84138095Y-75578571D01*
X84090476Y-75530952D01*
X83995238Y-75483333D01*
X83804761Y-75483333D01*
X83709523Y-75530952D01*
X83661904Y-75578571D01*
X83614285Y-75673809D01*
X97387142Y-84216666D02*
X97434761Y-84264285D01*
X97482380Y-84407142D01*
X97482380Y-84502380D01*
X97434761Y-84645238D01*
X97339523Y-84740476D01*
X97244285Y-84788095D01*
X97053809Y-84835714D01*
X96910952Y-84835714D01*
X96720476Y-84788095D01*
X96625238Y-84740476D01*
X96530000Y-84645238D01*
X96482380Y-84502380D01*
X96482380Y-84407142D01*
X96530000Y-84264285D01*
X96577619Y-84216666D01*
X96482380Y-83311904D02*
X96482380Y-83788095D01*
X96958571Y-83835714D01*
X96910952Y-83788095D01*
X96863333Y-83692857D01*
X96863333Y-83454761D01*
X96910952Y-83359523D01*
X96958571Y-83311904D01*
X97053809Y-83264285D01*
X97291904Y-83264285D01*
X97387142Y-83311904D01*
X97434761Y-83359523D01*
X97482380Y-83454761D01*
X97482380Y-83692857D01*
X97434761Y-83788095D01*
X97387142Y-83835714D01*
X87607142Y-93216666D02*
X87654761Y-93264285D01*
X87702380Y-93407142D01*
X87702380Y-93502380D01*
X87654761Y-93645238D01*
X87559523Y-93740476D01*
X87464285Y-93788095D01*
X87273809Y-93835714D01*
X87130952Y-93835714D01*
X86940476Y-93788095D01*
X86845238Y-93740476D01*
X86750000Y-93645238D01*
X86702380Y-93502380D01*
X86702380Y-93407142D01*
X86750000Y-93264285D01*
X86797619Y-93216666D01*
X87035714Y-92359523D02*
X87702380Y-92359523D01*
X86654761Y-92597619D02*
X87369047Y-92835714D01*
X87369047Y-92216666D01*
X80633333Y-81107142D02*
X80585714Y-81154761D01*
X80442857Y-81202380D01*
X80347619Y-81202380D01*
X80204761Y-81154761D01*
X80109523Y-81059523D01*
X80061904Y-80964285D01*
X80014285Y-80773809D01*
X80014285Y-80630952D01*
X80061904Y-80440476D01*
X80109523Y-80345238D01*
X80204761Y-80250000D01*
X80347619Y-80202380D01*
X80442857Y-80202380D01*
X80585714Y-80250000D01*
X80633333Y-80297619D01*
X80966666Y-80202380D02*
X81585714Y-80202380D01*
X81252380Y-80583333D01*
X81395238Y-80583333D01*
X81490476Y-80630952D01*
X81538095Y-80678571D01*
X81585714Y-80773809D01*
X81585714Y-81011904D01*
X81538095Y-81107142D01*
X81490476Y-81154761D01*
X81395238Y-81202380D01*
X81109523Y-81202380D01*
X81014285Y-81154761D01*
X80966666Y-81107142D01*
X113057142Y-94016666D02*
X113104761Y-94064285D01*
X113152380Y-94207142D01*
X113152380Y-94302380D01*
X113104761Y-94445238D01*
X113009523Y-94540476D01*
X112914285Y-94588095D01*
X112723809Y-94635714D01*
X112580952Y-94635714D01*
X112390476Y-94588095D01*
X112295238Y-94540476D01*
X112200000Y-94445238D01*
X112152380Y-94302380D01*
X112152380Y-94207142D01*
X112200000Y-94064285D01*
X112247619Y-94016666D01*
X113152380Y-93064285D02*
X113152380Y-93635714D01*
X113152380Y-93350000D02*
X112152380Y-93350000D01*
X112295238Y-93445238D01*
X112390476Y-93540476D01*
X112438095Y-93635714D01*
X56366666Y-78104761D02*
X56509523Y-78152380D01*
X56747619Y-78152380D01*
X56842857Y-78104761D01*
X56890476Y-78057142D01*
X56938095Y-77961904D01*
X56938095Y-77866666D01*
X56890476Y-77771428D01*
X56842857Y-77723809D01*
X56747619Y-77676190D01*
X56557142Y-77628571D01*
X56461904Y-77580952D01*
X56414285Y-77533333D01*
X56366666Y-77438095D01*
X56366666Y-77342857D01*
X56414285Y-77247619D01*
X56461904Y-77200000D01*
X56557142Y-77152380D01*
X56795238Y-77152380D01*
X56938095Y-77200000D01*
X57271428Y-77152380D02*
X57509523Y-78152380D01*
X57700000Y-77438095D01*
X57890476Y-78152380D01*
X58128571Y-77152380D01*
X59033333Y-78152380D02*
X58461904Y-78152380D01*
X58747619Y-78152380D02*
X58747619Y-77152380D01*
X58652380Y-77295238D01*
X58557142Y-77390476D01*
X58461904Y-77438095D01*
X58566666Y-91352380D02*
X58566666Y-92066666D01*
X58519047Y-92209523D01*
X58423809Y-92304761D01*
X58280952Y-92352380D01*
X58185714Y-92352380D01*
X59519047Y-91352380D02*
X59042857Y-91352380D01*
X58995238Y-91828571D01*
X59042857Y-91780952D01*
X59138095Y-91733333D01*
X59376190Y-91733333D01*
X59471428Y-91780952D01*
X59519047Y-91828571D01*
X59566666Y-91923809D01*
X59566666Y-92161904D01*
X59519047Y-92257142D01*
X59471428Y-92304761D01*
X59376190Y-92352380D01*
X59138095Y-92352380D01*
X59042857Y-92304761D01*
X58995238Y-92257142D01*
X69538095Y-72952380D02*
X69538095Y-73761904D01*
X69585714Y-73857142D01*
X69633333Y-73904761D01*
X69728571Y-73952380D01*
X69919047Y-73952380D01*
X70014285Y-73904761D01*
X70061904Y-73857142D01*
X70109523Y-73761904D01*
X70109523Y-72952380D01*
X70538095Y-73047619D02*
X70585714Y-73000000D01*
X70680952Y-72952380D01*
X70919047Y-72952380D01*
X71014285Y-73000000D01*
X71061904Y-73047619D01*
X71109523Y-73142857D01*
X71109523Y-73238095D01*
X71061904Y-73380952D01*
X70490476Y-73952380D01*
X71109523Y-73952380D01*
X169776666Y-63452380D02*
X169776666Y-64166666D01*
X169729047Y-64309523D01*
X169633809Y-64404761D01*
X169490952Y-64452380D01*
X169395714Y-64452380D01*
X170205238Y-63547619D02*
X170252857Y-63500000D01*
X170348095Y-63452380D01*
X170586190Y-63452380D01*
X170681428Y-63500000D01*
X170729047Y-63547619D01*
X170776666Y-63642857D01*
X170776666Y-63738095D01*
X170729047Y-63880952D01*
X170157619Y-64452380D01*
X170776666Y-64452380D01*
M02*
