M48
; DRILL file {KiCad 5.1.6+dfsg1-1~bpo10+1} date Sat Jul  4 22:20:18 2020
; FORMAT={-:-/ absolute / metric / decimal}
; #@! TF.CreationDate,2020-07-04T22:20:18+02:00
; #@! TF.GenerationSoftware,Kicad,Pcbnew,5.1.6+dfsg1-1~bpo10+1
; #@! TF.FileFunction,Plated,1,2,PTH
FMAT,2
METRIC
T1C0.300
T2C0.400
T3C0.800
T4C0.920
T5C0.990
T6C1.000
T7C1.300
T8C1.500
T9C1.501
T10C2.330
T11C3.500
%
G90
G05
T1
X41.85Y-62.8
X41.85Y-80.05
X57.5Y-79.5
X66.0Y-75.9
X66.5Y-90.5
X68.3Y-75.7
X71.5Y-70.0
X71.5Y-72.5
X71.5Y-76.5
X73.8Y-81.4
X73.85Y-78.3
X76.2Y-86.6
X76.2Y-89.85
X78.3Y-87.5
X78.35Y-90.7
X78.4Y-81.7
X78.65Y-83.45
X78.75Y-78.2
X79.4Y-90.7
X79.413Y-87.513
X80.463Y-87.513
X80.5Y-90.7
X81.25Y-95.5
X81.6Y-90.7
X81.688Y-87.588
X81.9Y-78.25
X82.0Y-72.0
X83.05Y-77.45
X83.2Y-67.55
X83.45Y-65.7
X84.8Y-77.45
X85.55Y-67.55
X85.65Y-87.05
X85.85Y-65.7
X88.2Y-72.8
X90.3Y-88.0
X91.2Y-72.95
X92.2Y-72.65
X92.806Y-74.412
X92.851Y-73.409
X93.1Y-88.05
X93.15Y-68.6
X94.25Y-85.7
X94.6Y-65.7
X98.4Y-75.25
X98.6Y-78.668
X99.25Y-84.9
X99.3Y-73.6
X100.1Y-66.6
X100.1Y-80.3
X100.1Y-85.65
X100.1Y-76.492
X100.6Y-67.9
X100.764Y-77.314
X101.15Y-85.7
X101.2Y-81.25
X101.55Y-76.5
X102.275Y-77.35
X105.375Y-76.275
X107.45Y-64.55
X108.955Y-66.655
X114.0Y-90.55
X115.4Y-90.3
X115.45Y-77.3
X116.1Y-68.0
X117.6Y-94.6
X119.9Y-65.3
X121.4Y-75.9
X121.9Y-74.0
X125.7Y-64.65
X126.1Y-93.45
X126.2Y-66.7
X130.4Y-75.9
X130.4Y-90.6
X131.1Y-65.7
X131.3Y-75.0
X131.3Y-88.05
X132.2Y-87.5
X132.2Y-75.9
X135.05Y-64.65
X135.05Y-66.75
X135.7Y-76.5
X135.7Y-78.35
X136.1Y-95.8
X136.8Y-72.2
X137.9Y-76.6
X137.9Y-88.3
X138.8Y-75.7
X141.5Y-77.2
X143.45Y-88.45
X149.65Y-88.5
X149.7Y-83.8
X156.15Y-95.7
X162.1Y-71.9
X167.2Y-83.7
X170.1Y-95.3
X171.9Y-83.1
X172.4Y-64.0
X173.1Y-77.5
X174.5Y-67.9
X176.3Y-84.65
X187.62Y-76.98
X188.1Y-95.3
T2
X68.55Y-79.1
X69.5Y-82.7
X74.6Y-85.0
X85.4Y-91.3
X85.65Y-85.9
X87.023Y-87.08
X88.35Y-91.5
X93.65Y-77.25
X96.923Y-83.175
X96.95Y-84.9
X98.4Y-77.25
X112.4Y-75.8
X112.4Y-78.35
X138.9Y-89.2
X141.5Y-88.4
X178.7Y-79.55
T3
X98.82Y-91.9
X103.7Y-91.9
T4
X65.5Y-67.5
X65.5Y-69.5
X68.0Y-67.5
X68.0Y-69.5
T5
X55.5Y-74.5
X60.0Y-74.5
T6
X182.0Y-82.92
X182.0Y-85.46
X182.0Y-88.0
X182.0Y-90.54
X182.0Y-93.08
X177.46Y-64.0
X180.0Y-64.0
X182.54Y-64.0
X185.08Y-64.0
X187.62Y-64.0
X182.0Y-72.0
X182.0Y-74.54
X139.2Y-62.7
X139.2Y-65.24
X141.74Y-62.7
X141.74Y-65.24
X144.28Y-62.7
X144.28Y-65.24
X150.0Y-64.0
X152.54Y-64.0
X155.08Y-64.0
X157.62Y-64.0
X160.16Y-64.0
X162.7Y-64.0
X165.24Y-64.0
X167.78Y-64.0
X93.5Y-63.0
X96.04Y-63.0
X98.58Y-63.0
X101.12Y-63.0
X103.66Y-63.0
X106.2Y-63.0
X108.74Y-63.0
X111.28Y-63.0
X113.82Y-63.0
X116.36Y-63.0
X118.9Y-63.0
X121.44Y-63.0
X123.98Y-63.0
X126.52Y-63.0
X129.06Y-63.0
X131.6Y-63.0
X87.56Y-69.25
X90.1Y-69.25
X82.1Y-63.1
X84.64Y-63.1
X87.18Y-63.1
X89.72Y-63.1
T7
X54.25Y-76.99
X61.26Y-76.99
T8
X89.45Y-81.1
T9
X50.0Y-92.0
X55.08Y-92.0
T10
X60.73Y-64.79
X72.77Y-64.79
T11
X76.7Y-64.8
X52.5Y-64.8
T0
M30
