%TF.GenerationSoftware,KiCad,Pcbnew,5.1.6+dfsg1-1~bpo10+1*%
%TF.CreationDate,2020-07-04T22:20:21+02:00*%
%TF.ProjectId,Model-M-USB,4d6f6465-6c2d-44d2-9d55-53422e6b6963,rev?*%
%TF.SameCoordinates,Original*%
%TF.FileFunction,Copper,L2,Bot*%
%TF.FilePolarity,Positive*%
%FSLAX46Y46*%
G04 Gerber Fmt 4.6, Leading zero omitted, Abs format (unit mm)*
G04 Created by KiCad (PCBNEW 5.1.6+dfsg1-1~bpo10+1) date 2020-07-04 22:20:21*
%MOMM*%
%LPD*%
G01*
G04 APERTURE LIST*
%TA.AperFunction,ComponentPad*%
%ADD10C,1.500000*%
%TD*%
%TA.AperFunction,ComponentPad*%
%ADD11O,1.700000X1.700000*%
%TD*%
%TA.AperFunction,ComponentPad*%
%ADD12R,1.700000X1.700000*%
%TD*%
%TA.AperFunction,ComponentPad*%
%ADD13C,3.500000*%
%TD*%
%TA.AperFunction,ComponentPad*%
%ADD14C,1.700000*%
%TD*%
%TA.AperFunction,ComponentPad*%
%ADD15C,2.100000*%
%TD*%
%TA.AperFunction,ComponentPad*%
%ADD16C,1.750000*%
%TD*%
%TA.AperFunction,ComponentPad*%
%ADD17C,3.500120*%
%TD*%
%TA.AperFunction,ComponentPad*%
%ADD18R,3.500120X3.500120*%
%TD*%
%TA.AperFunction,ComponentPad*%
%ADD19C,7.000000*%
%TD*%
%TA.AperFunction,ViaPad*%
%ADD20C,1.000000*%
%TD*%
%TA.AperFunction,ViaPad*%
%ADD21C,0.800000*%
%TD*%
%TA.AperFunction,ViaPad*%
%ADD22C,3.000000*%
%TD*%
%TA.AperFunction,Conductor*%
%ADD23C,0.500000*%
%TD*%
%TA.AperFunction,Conductor*%
%ADD24C,0.250000*%
%TD*%
%TA.AperFunction,Conductor*%
%ADD25C,0.254000*%
%TD*%
%TA.AperFunction,Conductor*%
%ADD26C,0.200000*%
%TD*%
G04 APERTURE END LIST*
D10*
X98820000Y-91900000D03*
X103700000Y-91900000D03*
D11*
X93500000Y-63000000D03*
X96040000Y-63000000D03*
X98580000Y-63000000D03*
X101120000Y-63000000D03*
X103660000Y-63000000D03*
X106200000Y-63000000D03*
X108740000Y-63000000D03*
X111280000Y-63000000D03*
X113820000Y-63000000D03*
X116360000Y-63000000D03*
X118900000Y-63000000D03*
X121440000Y-63000000D03*
X123980000Y-63000000D03*
X126520000Y-63000000D03*
X129060000Y-63000000D03*
D12*
X131600000Y-63000000D03*
D11*
X87560000Y-69250000D03*
D12*
X90100000Y-69250000D03*
D11*
X182000000Y-93080000D03*
X182000000Y-90540000D03*
X182000000Y-88000000D03*
X182000000Y-85460000D03*
D12*
X182000000Y-82920000D03*
D13*
X72770000Y-64790000D03*
X60730000Y-64790000D03*
D14*
X65500000Y-67500000D03*
X68000000Y-67500000D03*
X68000000Y-69500000D03*
D12*
X65500000Y-69500000D03*
D11*
X182000000Y-74540000D03*
D12*
X182000000Y-72000000D03*
D11*
X187620000Y-64000000D03*
X185080000Y-64000000D03*
X182540000Y-64000000D03*
X180000000Y-64000000D03*
D12*
X177460000Y-64000000D03*
D11*
X89720000Y-63100000D03*
X87180000Y-63100000D03*
X84640000Y-63100000D03*
D12*
X82100000Y-63100000D03*
D11*
X144280000Y-62700000D03*
X144280000Y-65240000D03*
X141740000Y-62700000D03*
X141740000Y-65240000D03*
X139200000Y-62700000D03*
D12*
X139200000Y-65240000D03*
D15*
X54250000Y-76990000D03*
D16*
X55500000Y-74500000D03*
X60000000Y-74500000D03*
D15*
X61260000Y-76990000D03*
D17*
X55080000Y-92000000D03*
D18*
X50000000Y-92000000D03*
D19*
X76700000Y-64800000D03*
X52500000Y-64800000D03*
D11*
X150000000Y-64000000D03*
X152540000Y-64000000D03*
X155080000Y-64000000D03*
X157620000Y-64000000D03*
X160160000Y-64000000D03*
X162700000Y-64000000D03*
X165240000Y-64000000D03*
D12*
X167780000Y-64000000D03*
D20*
X68550000Y-79100000D03*
D21*
X76200000Y-86600000D03*
X107450000Y-64550000D03*
X135050000Y-64650000D03*
X135050000Y-66750000D03*
X125700000Y-64650000D03*
D22*
X89450000Y-81100000D03*
D21*
X121400000Y-75900000D03*
X126200000Y-66700000D03*
X100600000Y-67900000D03*
X68300000Y-75700000D03*
D20*
X69500000Y-82700000D03*
X74600000Y-85000000D03*
X178700000Y-79550000D03*
D21*
X136800000Y-72200000D03*
X78750000Y-78200000D03*
X71500000Y-70000000D03*
X71500000Y-76500000D03*
X82000000Y-72000000D03*
X83450000Y-65700000D03*
X85850000Y-65700000D03*
X78650000Y-83450000D03*
X76200000Y-89850000D03*
X81250000Y-95500000D03*
X66500000Y-90500000D03*
X41850000Y-80050000D03*
X41850000Y-62800000D03*
X57500000Y-79500000D03*
X66000000Y-75900000D03*
X73800000Y-81400000D03*
X78400000Y-81700000D03*
X73850000Y-78300000D03*
X71500000Y-72500000D03*
X81900000Y-78250000D03*
X172400000Y-64000000D03*
X174500000Y-67900000D03*
X162100000Y-71900000D03*
X173100000Y-77500000D03*
X167200000Y-83700000D03*
X171900000Y-83100000D03*
X176300000Y-84650000D03*
X188100000Y-95300000D03*
X187620000Y-76980000D03*
X170100000Y-95300000D03*
X136100000Y-95800000D03*
X143450000Y-88450000D03*
X156150000Y-95700000D03*
X117600000Y-94600000D03*
X149700000Y-83800000D03*
X149650000Y-88500000D03*
X105375000Y-76275000D03*
X121900000Y-74000000D03*
X94600000Y-65700000D03*
X108954996Y-66654996D03*
X93150000Y-68600000D03*
X114000000Y-90550000D03*
D20*
X85400000Y-91300000D03*
X88350000Y-91500000D03*
D21*
X126100000Y-93450000D03*
D20*
X96950000Y-84900000D03*
X98400000Y-77250000D03*
X87022980Y-87080171D03*
D21*
X135700000Y-76500000D03*
D20*
X112399998Y-78350000D03*
D21*
X135700004Y-78350000D03*
D20*
X112399998Y-75800000D03*
X96923027Y-83174998D03*
X93649996Y-77250000D03*
X85650000Y-85900000D03*
D21*
X91200000Y-72950000D03*
X102275030Y-77350000D03*
X92200000Y-72650000D03*
X101550020Y-76500000D03*
X92851427Y-73408726D03*
X100764224Y-77314137D03*
X92806025Y-74411891D03*
X100100008Y-76491955D03*
X94250000Y-85700000D03*
X93100002Y-88050000D03*
X100100000Y-85650000D03*
X100100000Y-80300000D03*
X101150000Y-85700000D03*
X101200000Y-81250000D03*
X137900000Y-76600010D03*
X90300000Y-88000000D03*
X137900000Y-88300000D03*
X85649992Y-87050000D03*
X138800000Y-75700000D03*
D20*
X138900000Y-89200000D03*
D21*
X79400000Y-90700000D03*
X80462660Y-87512660D03*
D20*
X141500000Y-88400000D03*
D21*
X78349989Y-90700000D03*
X141500000Y-77200002D03*
X79412658Y-87512662D03*
X119900000Y-65300000D03*
X131100000Y-65700000D03*
X130400000Y-75900000D03*
X130400000Y-90600000D03*
X80500000Y-90700000D03*
X81687660Y-87587660D03*
X131300000Y-75000000D03*
X131300000Y-88050000D03*
X132200000Y-87500000D03*
X132200010Y-75900000D03*
X81600000Y-90700004D03*
X78299998Y-87500000D03*
X115400000Y-90299999D03*
X115450000Y-77300004D03*
X100100000Y-66600000D03*
X116100000Y-68000000D03*
X84800000Y-77450000D03*
X83050000Y-77450000D03*
X85550000Y-67549998D03*
X83200000Y-67550000D03*
X99300000Y-73600000D03*
X98400000Y-75250000D03*
X98600000Y-78668136D03*
X99250000Y-84900000D03*
X88200000Y-72800000D03*
D23*
X78400000Y-63100000D02*
X76700000Y-64800000D01*
X82100000Y-63100000D02*
X78400000Y-63100000D01*
X72780000Y-64800000D02*
X72770000Y-64790000D01*
X76700000Y-64800000D02*
X72780000Y-64800000D01*
X65500000Y-64880000D02*
X65410000Y-64790000D01*
X65500000Y-67500000D02*
X65500000Y-64880000D01*
X65410000Y-64790000D02*
X60730000Y-64790000D01*
X60000000Y-65520000D02*
X60730000Y-64790000D01*
X60000000Y-74500000D02*
X60000000Y-65520000D01*
X64199999Y-67597920D02*
X64199999Y-71199999D01*
X65500000Y-67500000D02*
X64297919Y-67500000D01*
X64199999Y-71199999D02*
X68300000Y-75300000D01*
X64297919Y-67500000D02*
X64199999Y-67597920D01*
X67200000Y-76400000D02*
X68300000Y-75300000D01*
X67200000Y-79900000D02*
X67200000Y-76400000D01*
X52500000Y-89500000D02*
X50000000Y-92000000D01*
X52500000Y-64800000D02*
X52500000Y-89500000D01*
X52580000Y-89500000D02*
X55080000Y-92000000D01*
X52500000Y-89500000D02*
X52580000Y-89500000D01*
X89450000Y-81100000D02*
X89450000Y-81200000D01*
X89450000Y-81100000D02*
X89450000Y-77700000D01*
X89450000Y-77700000D02*
X91400004Y-75749996D01*
X69300001Y-64799999D02*
X69310000Y-64790000D01*
X69300001Y-71099999D02*
X69300001Y-64799999D01*
X68800000Y-71600000D02*
X69300001Y-71099999D01*
X72770000Y-64790000D02*
X69310000Y-64790000D01*
X69310000Y-64790000D02*
X65410000Y-64790000D01*
X68700000Y-75300000D02*
X68800000Y-75200000D01*
X68300000Y-75300000D02*
X68700000Y-75300000D01*
X68800000Y-75200000D02*
X68800000Y-71600000D01*
X60720000Y-64800000D02*
X60730000Y-64790000D01*
X52500000Y-64800000D02*
X60720000Y-64800000D01*
X121400000Y-92100000D02*
X121400000Y-75900000D01*
X119708381Y-93791619D02*
X121400000Y-92100000D01*
X187620000Y-87460000D02*
X182000000Y-93080000D01*
X119466761Y-93549999D02*
X119708381Y-93791619D01*
X113558380Y-93549999D02*
X117150001Y-93549999D01*
X180797919Y-93080000D02*
X182000000Y-93080000D01*
X178500000Y-93000000D02*
X178580000Y-93080000D01*
X178500000Y-81100000D02*
X178500000Y-84300000D01*
X178580000Y-93080000D02*
X180797919Y-93080000D01*
X187600000Y-81100000D02*
X187620000Y-81080000D01*
X178500000Y-81100000D02*
X187600000Y-81100000D01*
X187620000Y-64000000D02*
X187620000Y-76980000D01*
X187620000Y-81080000D02*
X187620000Y-87460000D01*
X136920000Y-93080000D02*
X155520000Y-93080000D01*
X136920000Y-93080000D02*
X136800000Y-92960000D01*
X178500000Y-84300000D02*
X178500000Y-93000000D01*
X187620000Y-76980000D02*
X187620000Y-81080000D01*
X155520000Y-93080000D02*
X178580000Y-93080000D01*
X117150001Y-93549999D02*
X119466761Y-93549999D01*
D24*
X121400000Y-74500000D02*
X121900000Y-74000000D01*
X121400000Y-75900000D02*
X121400000Y-74500000D01*
D23*
X105375000Y-76275000D02*
X105375000Y-70234992D01*
X106409992Y-69200000D02*
X108554997Y-67054995D01*
X108554997Y-67054995D02*
X108954996Y-66654996D01*
X105375000Y-70234992D02*
X108954996Y-66654996D01*
X82708004Y-63100000D02*
X82100000Y-63100000D01*
X89450000Y-81100000D02*
X86850000Y-81100000D01*
X84274990Y-90874990D02*
X88075010Y-90874990D01*
X86850000Y-81100000D02*
X82200000Y-85750000D01*
X88075010Y-90874990D02*
X88525010Y-90424990D01*
X89450000Y-81100000D02*
X88400000Y-80050000D01*
X88400000Y-80050000D02*
X79650000Y-80050000D01*
X68800000Y-76900000D02*
X68800000Y-75200000D01*
X71950000Y-80050000D02*
X68800000Y-76900000D01*
X79950000Y-80050000D02*
X71950000Y-80050000D01*
X91450000Y-75750000D02*
X91650000Y-75550000D01*
X91650000Y-75550000D02*
X97100000Y-75550000D01*
X97400000Y-80100000D02*
X98050000Y-80750000D01*
X132740009Y-93080000D02*
X132720000Y-93100009D01*
X132320001Y-93500008D02*
X132720000Y-93100009D01*
X132028390Y-93791619D02*
X132320001Y-93500008D01*
X119708381Y-93791619D02*
X132028390Y-93791619D01*
X136920000Y-93080000D02*
X132740009Y-93080000D01*
X97000000Y-76500000D02*
X97750000Y-77250000D01*
X97750000Y-77250000D02*
X98400000Y-77250000D01*
X97000000Y-76250000D02*
X97000000Y-76500000D01*
X135700000Y-76500000D02*
X135700000Y-78349996D01*
X135700000Y-78349996D02*
X135700004Y-78350000D01*
D24*
X112399998Y-78350000D02*
X112399998Y-75800000D01*
D23*
X95600000Y-82950017D02*
X95824981Y-83174998D01*
X95824981Y-83174998D02*
X96923027Y-83174998D01*
X95600000Y-82950017D02*
X95600000Y-79200004D01*
X95600000Y-79200004D02*
X93649996Y-77250000D01*
X85842809Y-85900000D02*
X85650000Y-85900000D01*
X87022980Y-87080171D02*
X85842809Y-85900000D01*
X91469846Y-87080171D02*
X87022980Y-87080171D01*
X95600000Y-82950017D02*
X91469846Y-87080171D01*
D24*
X102275030Y-72325030D02*
X102275030Y-77350000D01*
X91200000Y-72350000D02*
X91700000Y-71850000D01*
X91700000Y-71850000D02*
X93900000Y-71850000D01*
X91200000Y-72950000D02*
X91200000Y-72350000D01*
X93900000Y-71850000D02*
X95300000Y-70450000D01*
X95300000Y-70450000D02*
X100400000Y-70450000D01*
X100400000Y-70450000D02*
X102275030Y-72325030D01*
X101550020Y-72600020D02*
X101550020Y-76500000D01*
X100150000Y-71200000D02*
X101550020Y-72600020D01*
X92200000Y-72650000D02*
X94100000Y-72650000D01*
X95550000Y-71200000D02*
X100150000Y-71200000D01*
X94100000Y-72650000D02*
X95550000Y-71200000D01*
X100825010Y-77253351D02*
X100764224Y-77314137D01*
X100825010Y-76143953D02*
X100825010Y-77253351D01*
X95950000Y-71950000D02*
X99900000Y-71950000D01*
X94491274Y-73408726D02*
X95950000Y-71950000D01*
X92851427Y-73408726D02*
X94491274Y-73408726D01*
X99900000Y-71950000D02*
X100796405Y-72846405D01*
X100796405Y-72846405D02*
X100796405Y-76115348D01*
X100796405Y-76115348D02*
X100825010Y-76143953D01*
X99650000Y-72750000D02*
X100100008Y-73200008D01*
X96300000Y-72750000D02*
X99650000Y-72750000D01*
X100100008Y-73200008D02*
X100100008Y-76491955D01*
X92806025Y-74411891D02*
X94638109Y-74411891D01*
X94638109Y-74411891D02*
X96300000Y-72750000D01*
D25*
X93100002Y-86849998D02*
X93100002Y-88050000D01*
X94250000Y-85700000D02*
X93100002Y-86849998D01*
X100100000Y-85650000D02*
X100100000Y-80300000D01*
X101150000Y-81300000D02*
X101200000Y-81250000D01*
X101150000Y-85700000D02*
X101150000Y-81300000D01*
X137900000Y-76600010D02*
X137900000Y-88300000D01*
X86599992Y-88000000D02*
X85649992Y-87050000D01*
X90300000Y-88000000D02*
X86599992Y-88000000D01*
D24*
X138800000Y-75700000D02*
X138800000Y-89100000D01*
X138800000Y-89100000D02*
X138900000Y-89200000D01*
X79400000Y-88550000D02*
X79724998Y-88225002D01*
X79750318Y-88225002D02*
X80462660Y-87512660D01*
X79349988Y-88600012D02*
X79724998Y-88225002D01*
X79400000Y-90700000D02*
X79400000Y-88550000D01*
X79349988Y-89199988D02*
X79349988Y-88600012D01*
X79724998Y-88225002D02*
X79750318Y-88225002D01*
X141500000Y-88400000D02*
X141500000Y-77499990D01*
X141500000Y-77499990D02*
X141500000Y-77200002D01*
X78349989Y-90700000D02*
X78349989Y-88575331D01*
X78349989Y-88575331D02*
X79412658Y-87512662D01*
X138740000Y-65700000D02*
X131100000Y-65700000D01*
X139200000Y-65240000D02*
X138740000Y-65700000D01*
X130400000Y-75900000D02*
X130400000Y-76465685D01*
X130400000Y-76465685D02*
X130400000Y-90600000D01*
X120300000Y-65700000D02*
X131100000Y-65700000D01*
X119900000Y-65300000D02*
X120300000Y-65700000D01*
X80500000Y-90700000D02*
X80500000Y-88775320D01*
X80500000Y-88775320D02*
X81687660Y-87587660D01*
D25*
X131300000Y-75565685D02*
X131300000Y-88050000D01*
X131300000Y-75000000D02*
X131300000Y-75565685D01*
X132200000Y-87500000D02*
X132200000Y-75900010D01*
X132200000Y-75900010D02*
X132200010Y-75900000D01*
D24*
X78299998Y-87500000D02*
X77500000Y-88299998D01*
X77500000Y-88299998D02*
X77500000Y-91100000D01*
X80700004Y-91600000D02*
X81600000Y-90700004D01*
X77500000Y-91100000D02*
X78000000Y-91600000D01*
X78000000Y-91600000D02*
X80700004Y-91600000D01*
X115400000Y-90299999D02*
X115400000Y-77350004D01*
X115400000Y-77350004D02*
X115450000Y-77300004D01*
X110750000Y-65650000D02*
X113100000Y-68000000D01*
X100100000Y-66600000D02*
X101050000Y-65650000D01*
X101050000Y-65650000D02*
X110750000Y-65650000D01*
X113100000Y-68000000D02*
X116100000Y-68000000D01*
X84800000Y-77450000D02*
X83050000Y-77450000D01*
X85550000Y-67549998D02*
X83200002Y-67549998D01*
X83200002Y-67549998D02*
X83200000Y-67550000D01*
X99300000Y-73600000D02*
X98400000Y-74500000D01*
X98400000Y-74500000D02*
X98400000Y-75250000D01*
X99250000Y-79318136D02*
X99250000Y-84900000D01*
X98600000Y-78668136D02*
X99250000Y-79318136D01*
X90100000Y-70900000D02*
X88200000Y-72800000D01*
X90100000Y-69250000D02*
X90100000Y-70900000D01*
D26*
G36*
X189375000Y-96375000D02*
G01*
X40625000Y-96375000D01*
X40625000Y-93750060D01*
X47647037Y-93750060D01*
X47658622Y-93867681D01*
X47692930Y-93980781D01*
X47748644Y-94085015D01*
X47823623Y-94176377D01*
X47914985Y-94251356D01*
X48019219Y-94307070D01*
X48132319Y-94341378D01*
X48249940Y-94352963D01*
X49700000Y-94350060D01*
X49850000Y-94200060D01*
X49850000Y-92150000D01*
X50150000Y-92150000D01*
X50150000Y-94200060D01*
X50300000Y-94350060D01*
X51750060Y-94352963D01*
X51867681Y-94341378D01*
X51980781Y-94307070D01*
X52085015Y-94251356D01*
X52176377Y-94176377D01*
X52251356Y-94085015D01*
X52307070Y-93980781D01*
X52341378Y-93867681D01*
X52352963Y-93750060D01*
X52352796Y-93666183D01*
X53625949Y-93666183D01*
X53816141Y-93994747D01*
X54229582Y-94202985D01*
X54675703Y-94326564D01*
X55137362Y-94360734D01*
X55596816Y-94304182D01*
X56036409Y-94159082D01*
X56343859Y-93994747D01*
X56534051Y-93666183D01*
X55080000Y-92212132D01*
X53625949Y-93666183D01*
X52352796Y-93666183D01*
X52350060Y-92300000D01*
X52200060Y-92150000D01*
X50150000Y-92150000D01*
X49850000Y-92150000D01*
X47799940Y-92150000D01*
X47649940Y-92300000D01*
X47647037Y-93750060D01*
X40625000Y-93750060D01*
X40625000Y-92057362D01*
X52719266Y-92057362D01*
X52775818Y-92516816D01*
X52920918Y-92956409D01*
X53085253Y-93263859D01*
X53413817Y-93454051D01*
X54867868Y-92000000D01*
X55292132Y-92000000D01*
X56746183Y-93454051D01*
X56746675Y-93453766D01*
X180599000Y-93453766D01*
X180627452Y-93547582D01*
X180745046Y-93806368D01*
X180910867Y-94037240D01*
X181118543Y-94231326D01*
X181360092Y-94381167D01*
X181626233Y-94481005D01*
X181850000Y-94372226D01*
X181850000Y-93230000D01*
X182150000Y-93230000D01*
X182150000Y-94372226D01*
X182373767Y-94481005D01*
X182639908Y-94381167D01*
X182881457Y-94231326D01*
X183089133Y-94037240D01*
X183254954Y-93806368D01*
X183372548Y-93547582D01*
X183401000Y-93453766D01*
X183291317Y-93230000D01*
X182150000Y-93230000D01*
X181850000Y-93230000D01*
X180708683Y-93230000D01*
X180599000Y-93453766D01*
X56746675Y-93453766D01*
X57074747Y-93263859D01*
X57282985Y-92850418D01*
X57406564Y-92404297D01*
X57440734Y-91942638D01*
X57384182Y-91483184D01*
X57239082Y-91043591D01*
X57074747Y-90736141D01*
X56746183Y-90545949D01*
X55292132Y-92000000D01*
X54867868Y-92000000D01*
X53413817Y-90545949D01*
X53085253Y-90736141D01*
X52877015Y-91149582D01*
X52753436Y-91595703D01*
X52719266Y-92057362D01*
X40625000Y-92057362D01*
X40625000Y-90249940D01*
X47647037Y-90249940D01*
X47649940Y-91700000D01*
X47799940Y-91850000D01*
X49850000Y-91850000D01*
X49850000Y-89799940D01*
X50150000Y-89799940D01*
X50150000Y-91850000D01*
X52200060Y-91850000D01*
X52350060Y-91700000D01*
X52352795Y-90333817D01*
X53625949Y-90333817D01*
X55080000Y-91787868D01*
X56534051Y-90333817D01*
X56343859Y-90005253D01*
X55930418Y-89797015D01*
X55484297Y-89673436D01*
X55022638Y-89639266D01*
X54563184Y-89695818D01*
X54123591Y-89840918D01*
X53816141Y-90005253D01*
X53625949Y-90333817D01*
X52352795Y-90333817D01*
X52352963Y-90249940D01*
X52341378Y-90132319D01*
X52307070Y-90019219D01*
X52251356Y-89914985D01*
X52176377Y-89823623D01*
X52085015Y-89748644D01*
X51980781Y-89692930D01*
X51867681Y-89658622D01*
X51750060Y-89647037D01*
X50300000Y-89649940D01*
X50150000Y-89799940D01*
X49850000Y-89799940D01*
X49700000Y-89649940D01*
X48249940Y-89647037D01*
X48132319Y-89658622D01*
X48019219Y-89692930D01*
X47914985Y-89748644D01*
X47823623Y-89823623D01*
X47748644Y-89914985D01*
X47692930Y-90019219D01*
X47658622Y-90132319D01*
X47647037Y-90249940D01*
X40625000Y-90249940D01*
X40625000Y-88299998D01*
X76771494Y-88299998D01*
X76775000Y-88335595D01*
X76775001Y-91064393D01*
X76771494Y-91100000D01*
X76775001Y-91135607D01*
X76782834Y-91215132D01*
X76785492Y-91242124D01*
X76826947Y-91378787D01*
X76894269Y-91504736D01*
X76962170Y-91587474D01*
X76962173Y-91587477D01*
X76984869Y-91615132D01*
X77012523Y-91637827D01*
X77462172Y-92087477D01*
X77484868Y-92115132D01*
X77512523Y-92137828D01*
X77512525Y-92137830D01*
X77595263Y-92205731D01*
X77721212Y-92273053D01*
X77857875Y-92314509D01*
X77964393Y-92325000D01*
X77964403Y-92325000D01*
X78000000Y-92328506D01*
X78035597Y-92325000D01*
X80664407Y-92325000D01*
X80700004Y-92328506D01*
X80735601Y-92325000D01*
X80735611Y-92325000D01*
X80842129Y-92314509D01*
X80978792Y-92273053D01*
X81104741Y-92205731D01*
X81215136Y-92115132D01*
X81237836Y-92087472D01*
X81558271Y-91767037D01*
X97470000Y-91767037D01*
X97470000Y-92032963D01*
X97521880Y-92293780D01*
X97623646Y-92539465D01*
X97771387Y-92760575D01*
X97959425Y-92948613D01*
X98180535Y-93096354D01*
X98426220Y-93198120D01*
X98687037Y-93250000D01*
X98952963Y-93250000D01*
X99213780Y-93198120D01*
X99459465Y-93096354D01*
X99680575Y-92948613D01*
X99868613Y-92760575D01*
X100016354Y-92539465D01*
X100118120Y-92293780D01*
X100170000Y-92032963D01*
X100170000Y-91767037D01*
X102350000Y-91767037D01*
X102350000Y-92032963D01*
X102401880Y-92293780D01*
X102503646Y-92539465D01*
X102651387Y-92760575D01*
X102839425Y-92948613D01*
X103060535Y-93096354D01*
X103306220Y-93198120D01*
X103567037Y-93250000D01*
X103832963Y-93250000D01*
X104093780Y-93198120D01*
X104339465Y-93096354D01*
X104560575Y-92948613D01*
X104748613Y-92760575D01*
X104896354Y-92539465D01*
X104998120Y-92293780D01*
X105050000Y-92032963D01*
X105050000Y-91767037D01*
X104998120Y-91506220D01*
X104896354Y-91260535D01*
X104748613Y-91039425D01*
X104560575Y-90851387D01*
X104339465Y-90703646D01*
X104093780Y-90601880D01*
X103832963Y-90550000D01*
X103567037Y-90550000D01*
X103306220Y-90601880D01*
X103060535Y-90703646D01*
X102839425Y-90851387D01*
X102651387Y-91039425D01*
X102503646Y-91260535D01*
X102401880Y-91506220D01*
X102350000Y-91767037D01*
X100170000Y-91767037D01*
X100118120Y-91506220D01*
X100016354Y-91260535D01*
X99868613Y-91039425D01*
X99680575Y-90851387D01*
X99459465Y-90703646D01*
X99213780Y-90601880D01*
X98952963Y-90550000D01*
X98687037Y-90550000D01*
X98426220Y-90601880D01*
X98180535Y-90703646D01*
X97959425Y-90851387D01*
X97771387Y-91039425D01*
X97623646Y-91260535D01*
X97521880Y-91506220D01*
X97470000Y-91767037D01*
X81558271Y-91767037D01*
X81625304Y-91700004D01*
X81698491Y-91700004D01*
X81891689Y-91661575D01*
X82073678Y-91586193D01*
X82237463Y-91476755D01*
X82376751Y-91337467D01*
X82486189Y-91173682D01*
X82561571Y-90991693D01*
X82600000Y-90798495D01*
X82600000Y-90601513D01*
X82561571Y-90408315D01*
X82486189Y-90226326D01*
X82469607Y-90201508D01*
X114400000Y-90201508D01*
X114400000Y-90398490D01*
X114438429Y-90591688D01*
X114513811Y-90773677D01*
X114623249Y-90937462D01*
X114762537Y-91076750D01*
X114926322Y-91186188D01*
X115108311Y-91261570D01*
X115301509Y-91299999D01*
X115498491Y-91299999D01*
X115691689Y-91261570D01*
X115873678Y-91186188D01*
X116037463Y-91076750D01*
X116176751Y-90937462D01*
X116286189Y-90773677D01*
X116361571Y-90591688D01*
X116400000Y-90398490D01*
X116400000Y-90201508D01*
X116361571Y-90008310D01*
X116286189Y-89826321D01*
X116176751Y-89662536D01*
X116125000Y-89610785D01*
X116125000Y-78039218D01*
X116226751Y-77937467D01*
X116336189Y-77773682D01*
X116411571Y-77591693D01*
X116450000Y-77398495D01*
X116450000Y-77201513D01*
X116411571Y-77008315D01*
X116336189Y-76826326D01*
X116226751Y-76662541D01*
X116087463Y-76523253D01*
X115923678Y-76413815D01*
X115741689Y-76338433D01*
X115548491Y-76300004D01*
X115351509Y-76300004D01*
X115158311Y-76338433D01*
X114976322Y-76413815D01*
X114812537Y-76523253D01*
X114673249Y-76662541D01*
X114563811Y-76826326D01*
X114488429Y-77008315D01*
X114450000Y-77201513D01*
X114450000Y-77398495D01*
X114488429Y-77591693D01*
X114563811Y-77773682D01*
X114673249Y-77937467D01*
X114675001Y-77939219D01*
X114675000Y-89610785D01*
X114623249Y-89662536D01*
X114513811Y-89826321D01*
X114438429Y-90008310D01*
X114400000Y-90201508D01*
X82469607Y-90201508D01*
X82376751Y-90062541D01*
X82237463Y-89923253D01*
X82073678Y-89813815D01*
X81891689Y-89738433D01*
X81698491Y-89700004D01*
X81501509Y-89700004D01*
X81308311Y-89738433D01*
X81225000Y-89772941D01*
X81225000Y-89075624D01*
X81712965Y-88587660D01*
X81786151Y-88587660D01*
X81979349Y-88549231D01*
X82161338Y-88473849D01*
X82325123Y-88364411D01*
X82464411Y-88225123D01*
X82573849Y-88061338D01*
X82649231Y-87879349D01*
X82687660Y-87686151D01*
X82687660Y-87489169D01*
X82649231Y-87295971D01*
X82573849Y-87113982D01*
X82464411Y-86950197D01*
X82325123Y-86810909D01*
X82161338Y-86701471D01*
X81979349Y-86626089D01*
X81786151Y-86587660D01*
X81589169Y-86587660D01*
X81395971Y-86626089D01*
X81213982Y-86701471D01*
X81125085Y-86760871D01*
X81100123Y-86735909D01*
X80936338Y-86626471D01*
X80754349Y-86551089D01*
X80561151Y-86512660D01*
X80364169Y-86512660D01*
X80170971Y-86551089D01*
X79988982Y-86626471D01*
X79937658Y-86660765D01*
X79886336Y-86626473D01*
X79704347Y-86551091D01*
X79511149Y-86512662D01*
X79314167Y-86512662D01*
X79120969Y-86551091D01*
X78938980Y-86626473D01*
X78865803Y-86675368D01*
X78773676Y-86613811D01*
X78591687Y-86538429D01*
X78398489Y-86500000D01*
X78201507Y-86500000D01*
X78008309Y-86538429D01*
X77826320Y-86613811D01*
X77662535Y-86723249D01*
X77523247Y-86862537D01*
X77413809Y-87026322D01*
X77338427Y-87208311D01*
X77299998Y-87401509D01*
X77299998Y-87474696D01*
X77012524Y-87762170D01*
X76984868Y-87784867D01*
X76962172Y-87812522D01*
X76962170Y-87812524D01*
X76943322Y-87835491D01*
X76894269Y-87895262D01*
X76826947Y-88021211D01*
X76785491Y-88157874D01*
X76775000Y-88264392D01*
X76775000Y-88264401D01*
X76771494Y-88299998D01*
X40625000Y-88299998D01*
X40625000Y-85791659D01*
X84550000Y-85791659D01*
X84550000Y-86008341D01*
X84592273Y-86220858D01*
X84675193Y-86421045D01*
X84771375Y-86564990D01*
X84763803Y-86576322D01*
X84688421Y-86758311D01*
X84649992Y-86951509D01*
X84649992Y-87148491D01*
X84688421Y-87341689D01*
X84763803Y-87523678D01*
X84873241Y-87687463D01*
X85012529Y-87826751D01*
X85176314Y-87936189D01*
X85358303Y-88011571D01*
X85551501Y-88050000D01*
X85621859Y-88050000D01*
X86060675Y-88488817D01*
X86083438Y-88516554D01*
X86194139Y-88607403D01*
X86250377Y-88637463D01*
X86320435Y-88674910D01*
X86457474Y-88716480D01*
X86599992Y-88730517D01*
X86635700Y-88727000D01*
X89612786Y-88727000D01*
X89662537Y-88776751D01*
X89826322Y-88886189D01*
X90008311Y-88961571D01*
X90201509Y-89000000D01*
X90398491Y-89000000D01*
X90591689Y-88961571D01*
X90773678Y-88886189D01*
X90937463Y-88776751D01*
X91076751Y-88637463D01*
X91186189Y-88473678D01*
X91261571Y-88291689D01*
X91300000Y-88098491D01*
X91300000Y-87930171D01*
X91428105Y-87930171D01*
X91469846Y-87934282D01*
X91511587Y-87930171D01*
X91511595Y-87930171D01*
X91636475Y-87917871D01*
X91796701Y-87869268D01*
X91944365Y-87790339D01*
X92073794Y-87684119D01*
X92100412Y-87651685D01*
X92290410Y-87461687D01*
X92213813Y-87576322D01*
X92138431Y-87758311D01*
X92100002Y-87951509D01*
X92100002Y-88148491D01*
X92138431Y-88341689D01*
X92213813Y-88523678D01*
X92323251Y-88687463D01*
X92462539Y-88826751D01*
X92626324Y-88936189D01*
X92808313Y-89011571D01*
X93001511Y-89050000D01*
X93198493Y-89050000D01*
X93391691Y-89011571D01*
X93573680Y-88936189D01*
X93737465Y-88826751D01*
X93876753Y-88687463D01*
X93986191Y-88523678D01*
X94061573Y-88341689D01*
X94100002Y-88148491D01*
X94100002Y-87951509D01*
X94061573Y-87758311D01*
X93986191Y-87576322D01*
X93876753Y-87412537D01*
X93827002Y-87362786D01*
X93827002Y-87151130D01*
X94278133Y-86700000D01*
X94348491Y-86700000D01*
X94541689Y-86661571D01*
X94723678Y-86586189D01*
X94887463Y-86476751D01*
X95026751Y-86337463D01*
X95136189Y-86173678D01*
X95211571Y-85991689D01*
X95250000Y-85798491D01*
X95250000Y-85601509D01*
X95211571Y-85408311D01*
X95136189Y-85226322D01*
X95026751Y-85062537D01*
X94887463Y-84923249D01*
X94852326Y-84899771D01*
X95732133Y-84019965D01*
X95783232Y-84024998D01*
X95783239Y-84024998D01*
X95824980Y-84029109D01*
X95866721Y-84024998D01*
X96217393Y-84024998D01*
X96221818Y-84029423D01*
X96401982Y-84149805D01*
X96602169Y-84232725D01*
X96814686Y-84274998D01*
X97031368Y-84274998D01*
X97243885Y-84232725D01*
X97444072Y-84149805D01*
X97624236Y-84029423D01*
X97777452Y-83876207D01*
X97897834Y-83696043D01*
X97980754Y-83495856D01*
X98023027Y-83283339D01*
X98023027Y-83066657D01*
X97980754Y-82854140D01*
X97897834Y-82653953D01*
X97777452Y-82473789D01*
X97624236Y-82320573D01*
X97444072Y-82200191D01*
X97243885Y-82117271D01*
X97031368Y-82074998D01*
X96814686Y-82074998D01*
X96602169Y-82117271D01*
X96450000Y-82180301D01*
X96450000Y-79241744D01*
X96454111Y-79200003D01*
X96450000Y-79158262D01*
X96450000Y-79158255D01*
X96437700Y-79033375D01*
X96414148Y-78955731D01*
X96389097Y-78873149D01*
X96363101Y-78824515D01*
X96310168Y-78725485D01*
X96203948Y-78596056D01*
X96171766Y-78569645D01*
X97600000Y-78569645D01*
X97600000Y-78766627D01*
X97638429Y-78959825D01*
X97713811Y-79141814D01*
X97823249Y-79305599D01*
X97962537Y-79444887D01*
X98126322Y-79554325D01*
X98308311Y-79629707D01*
X98501509Y-79668136D01*
X98525000Y-79668136D01*
X98525001Y-84210785D01*
X98473249Y-84262537D01*
X98363811Y-84426322D01*
X98288429Y-84608311D01*
X98250000Y-84801509D01*
X98250000Y-84998491D01*
X98288429Y-85191689D01*
X98363811Y-85373678D01*
X98473249Y-85537463D01*
X98612537Y-85676751D01*
X98776322Y-85786189D01*
X98958311Y-85861571D01*
X99129256Y-85895574D01*
X99138429Y-85941689D01*
X99213811Y-86123678D01*
X99323249Y-86287463D01*
X99462537Y-86426751D01*
X99626322Y-86536189D01*
X99808311Y-86611571D01*
X100001509Y-86650000D01*
X100198491Y-86650000D01*
X100391689Y-86611571D01*
X100573678Y-86536189D01*
X100587585Y-86526897D01*
X100676322Y-86586189D01*
X100858311Y-86661571D01*
X101051509Y-86700000D01*
X101248491Y-86700000D01*
X101441689Y-86661571D01*
X101623678Y-86586189D01*
X101787463Y-86476751D01*
X101926751Y-86337463D01*
X102036189Y-86173678D01*
X102111571Y-85991689D01*
X102150000Y-85798491D01*
X102150000Y-85601509D01*
X102111571Y-85408311D01*
X102036189Y-85226322D01*
X101926751Y-85062537D01*
X101877000Y-85012786D01*
X101877000Y-81987214D01*
X101976751Y-81887463D01*
X102086189Y-81723678D01*
X102161571Y-81541689D01*
X102200000Y-81348491D01*
X102200000Y-81151509D01*
X102161571Y-80958311D01*
X102086189Y-80776322D01*
X101976751Y-80612537D01*
X101837463Y-80473249D01*
X101673678Y-80363811D01*
X101491689Y-80288429D01*
X101298491Y-80250000D01*
X101101509Y-80250000D01*
X101100000Y-80250300D01*
X101100000Y-80201509D01*
X101061571Y-80008311D01*
X100986189Y-79826322D01*
X100876751Y-79662537D01*
X100737463Y-79523249D01*
X100573678Y-79413811D01*
X100391689Y-79338429D01*
X100198491Y-79300000D01*
X100001509Y-79300000D01*
X99977196Y-79304836D01*
X99975000Y-79282539D01*
X99975000Y-79282529D01*
X99964509Y-79176011D01*
X99923053Y-79039348D01*
X99855731Y-78913399D01*
X99787830Y-78830661D01*
X99787823Y-78830654D01*
X99765131Y-78803004D01*
X99737482Y-78780313D01*
X99600000Y-78642831D01*
X99600000Y-78569645D01*
X99561571Y-78376447D01*
X99486189Y-78194458D01*
X99376751Y-78030673D01*
X99237463Y-77891385D01*
X99073678Y-77781947D01*
X98891689Y-77706565D01*
X98698491Y-77668136D01*
X98501509Y-77668136D01*
X98308311Y-77706565D01*
X98126322Y-77781947D01*
X97962537Y-77891385D01*
X97823249Y-78030673D01*
X97713811Y-78194458D01*
X97638429Y-78376447D01*
X97600000Y-78569645D01*
X96171766Y-78569645D01*
X96171519Y-78569443D01*
X94749996Y-77147920D01*
X94749996Y-77141659D01*
X94707723Y-76929142D01*
X94624803Y-76728955D01*
X94504421Y-76548791D01*
X94351205Y-76395575D01*
X94171041Y-76275193D01*
X93970854Y-76192273D01*
X93758337Y-76150000D01*
X93541655Y-76150000D01*
X93329138Y-76192273D01*
X93128951Y-76275193D01*
X92948787Y-76395575D01*
X92795571Y-76548791D01*
X92675189Y-76728955D01*
X92592269Y-76929142D01*
X92549996Y-77141659D01*
X92549996Y-77358341D01*
X92592269Y-77570858D01*
X92675189Y-77771045D01*
X92795571Y-77951209D01*
X92948787Y-78104425D01*
X93128951Y-78224807D01*
X93329138Y-78307727D01*
X93541655Y-78350000D01*
X93547916Y-78350000D01*
X94750001Y-79552086D01*
X94750000Y-82597936D01*
X91117766Y-86230171D01*
X87728614Y-86230171D01*
X87724189Y-86225746D01*
X87544025Y-86105364D01*
X87343838Y-86022444D01*
X87131321Y-85980171D01*
X87125061Y-85980171D01*
X86696198Y-85551309D01*
X86624807Y-85378955D01*
X86504425Y-85198791D01*
X86351209Y-85045575D01*
X86171045Y-84925193D01*
X85970858Y-84842273D01*
X85758341Y-84800000D01*
X85541659Y-84800000D01*
X85329142Y-84842273D01*
X85128955Y-84925193D01*
X84948791Y-85045575D01*
X84795575Y-85198791D01*
X84675193Y-85378955D01*
X84592273Y-85579142D01*
X84550000Y-85791659D01*
X40625000Y-85791659D01*
X40625000Y-76827489D01*
X52600000Y-76827489D01*
X52600000Y-77152511D01*
X52663408Y-77471287D01*
X52787789Y-77771568D01*
X52968361Y-78041814D01*
X53198186Y-78271639D01*
X53468432Y-78452211D01*
X53768713Y-78576592D01*
X54087489Y-78640000D01*
X54412511Y-78640000D01*
X54731287Y-78576592D01*
X55031568Y-78452211D01*
X55301814Y-78271639D01*
X55531639Y-78041814D01*
X55712211Y-77771568D01*
X55836592Y-77471287D01*
X55900000Y-77152511D01*
X55900000Y-76827489D01*
X55836592Y-76508713D01*
X55712211Y-76208432D01*
X55556237Y-75975000D01*
X55645275Y-75975000D01*
X55930242Y-75918317D01*
X56198675Y-75807128D01*
X56440258Y-75645707D01*
X56543926Y-75542039D01*
X59170094Y-75542039D01*
X59254647Y-75781085D01*
X59518897Y-75901881D01*
X59801635Y-75968803D01*
X59954225Y-75974308D01*
X59797789Y-76208432D01*
X59673408Y-76508713D01*
X59610000Y-76827489D01*
X59610000Y-77152511D01*
X59673408Y-77471287D01*
X59797789Y-77771568D01*
X59978361Y-78041814D01*
X60208186Y-78271639D01*
X60478432Y-78452211D01*
X60778713Y-78576592D01*
X61097489Y-78640000D01*
X61422511Y-78640000D01*
X61741287Y-78576592D01*
X62041568Y-78452211D01*
X62311814Y-78271639D01*
X62541639Y-78041814D01*
X62722211Y-77771568D01*
X62846592Y-77471287D01*
X62870417Y-77351509D01*
X82050000Y-77351509D01*
X82050000Y-77548491D01*
X82088429Y-77741689D01*
X82163811Y-77923678D01*
X82273249Y-78087463D01*
X82412537Y-78226751D01*
X82576322Y-78336189D01*
X82758311Y-78411571D01*
X82951509Y-78450000D01*
X83148491Y-78450000D01*
X83341689Y-78411571D01*
X83523678Y-78336189D01*
X83687463Y-78226751D01*
X83739214Y-78175000D01*
X84110786Y-78175000D01*
X84162537Y-78226751D01*
X84326322Y-78336189D01*
X84508311Y-78411571D01*
X84701509Y-78450000D01*
X84898491Y-78450000D01*
X85091689Y-78411571D01*
X85273678Y-78336189D01*
X85437463Y-78226751D01*
X85576751Y-78087463D01*
X85686189Y-77923678D01*
X85761571Y-77741689D01*
X85800000Y-77548491D01*
X85800000Y-77351509D01*
X85761571Y-77158311D01*
X85686189Y-76976322D01*
X85576751Y-76812537D01*
X85437463Y-76673249D01*
X85273678Y-76563811D01*
X85091689Y-76488429D01*
X84898491Y-76450000D01*
X84701509Y-76450000D01*
X84508311Y-76488429D01*
X84326322Y-76563811D01*
X84162537Y-76673249D01*
X84110786Y-76725000D01*
X83739214Y-76725000D01*
X83687463Y-76673249D01*
X83523678Y-76563811D01*
X83341689Y-76488429D01*
X83148491Y-76450000D01*
X82951509Y-76450000D01*
X82758311Y-76488429D01*
X82576322Y-76563811D01*
X82412537Y-76673249D01*
X82273249Y-76812537D01*
X82163811Y-76976322D01*
X82088429Y-77158311D01*
X82050000Y-77351509D01*
X62870417Y-77351509D01*
X62910000Y-77152511D01*
X62910000Y-76827489D01*
X62846592Y-76508713D01*
X62722211Y-76208432D01*
X62541639Y-75938186D01*
X62311814Y-75708361D01*
X62041568Y-75527789D01*
X61741287Y-75403408D01*
X61422511Y-75340000D01*
X61097489Y-75340000D01*
X61059660Y-75347525D01*
X61042040Y-75329905D01*
X61281085Y-75245353D01*
X61401881Y-74981103D01*
X61468803Y-74698365D01*
X61479279Y-74408005D01*
X61432908Y-74121179D01*
X61331471Y-73848912D01*
X61281085Y-73754647D01*
X61250764Y-73743922D01*
X76400000Y-73743922D01*
X76400000Y-74256078D01*
X76499917Y-74758392D01*
X76695910Y-75231562D01*
X76980448Y-75657403D01*
X77342597Y-76019552D01*
X77768438Y-76304090D01*
X78241608Y-76500083D01*
X78743922Y-76600000D01*
X79256078Y-76600000D01*
X79758392Y-76500083D01*
X80231562Y-76304090D01*
X80657403Y-76019552D01*
X81019552Y-75657403D01*
X81304090Y-75231562D01*
X81500083Y-74758392D01*
X81600000Y-74256078D01*
X81600000Y-73743922D01*
X81500083Y-73241608D01*
X81304090Y-72768438D01*
X81259370Y-72701509D01*
X87200000Y-72701509D01*
X87200000Y-72898491D01*
X87238429Y-73091689D01*
X87313811Y-73273678D01*
X87423249Y-73437463D01*
X87562537Y-73576751D01*
X87726322Y-73686189D01*
X87908311Y-73761571D01*
X88101509Y-73800000D01*
X88298491Y-73800000D01*
X88491689Y-73761571D01*
X88673678Y-73686189D01*
X88837463Y-73576751D01*
X88976751Y-73437463D01*
X89086189Y-73273678D01*
X89161571Y-73091689D01*
X89200000Y-72898491D01*
X89200000Y-72851509D01*
X90200000Y-72851509D01*
X90200000Y-73048491D01*
X90238429Y-73241689D01*
X90313811Y-73423678D01*
X90423249Y-73587463D01*
X90562537Y-73726751D01*
X90726322Y-73836189D01*
X90908311Y-73911571D01*
X91101509Y-73950000D01*
X91298491Y-73950000D01*
X91491689Y-73911571D01*
X91673678Y-73836189D01*
X91837463Y-73726751D01*
X91885533Y-73678681D01*
X91889856Y-73700415D01*
X91962134Y-73874910D01*
X91919836Y-73938213D01*
X91844454Y-74120202D01*
X91806025Y-74313400D01*
X91806025Y-74510382D01*
X91844454Y-74703580D01*
X91919836Y-74885569D01*
X92029274Y-75049354D01*
X92168562Y-75188642D01*
X92332347Y-75298080D01*
X92514336Y-75373462D01*
X92707534Y-75411891D01*
X92904516Y-75411891D01*
X93097714Y-75373462D01*
X93279703Y-75298080D01*
X93443488Y-75188642D01*
X93495239Y-75136891D01*
X94602512Y-75136891D01*
X94638109Y-75140397D01*
X94673706Y-75136891D01*
X94673716Y-75136891D01*
X94780234Y-75126400D01*
X94916897Y-75084944D01*
X95042846Y-75017622D01*
X95153241Y-74927023D01*
X95175941Y-74899363D01*
X96600305Y-73475000D01*
X98305273Y-73475000D01*
X98300000Y-73501509D01*
X98300000Y-73574696D01*
X97912524Y-73962172D01*
X97884868Y-73984869D01*
X97862172Y-74012524D01*
X97862170Y-74012526D01*
X97840912Y-74038429D01*
X97794269Y-74095264D01*
X97726947Y-74221213D01*
X97685491Y-74357876D01*
X97675000Y-74464394D01*
X97675000Y-74464403D01*
X97671494Y-74500000D01*
X97675000Y-74535597D01*
X97675000Y-74560786D01*
X97623249Y-74612537D01*
X97513811Y-74776322D01*
X97438429Y-74958311D01*
X97400000Y-75151509D01*
X97400000Y-75348491D01*
X97438429Y-75541689D01*
X97513811Y-75723678D01*
X97623249Y-75887463D01*
X97762537Y-76026751D01*
X97926322Y-76136189D01*
X98108311Y-76211571D01*
X98301509Y-76250000D01*
X98498491Y-76250000D01*
X98691689Y-76211571D01*
X98873678Y-76136189D01*
X99037463Y-76026751D01*
X99176751Y-75887463D01*
X99286189Y-75723678D01*
X99361571Y-75541689D01*
X99375009Y-75474132D01*
X99375009Y-75802740D01*
X99323257Y-75854492D01*
X99213819Y-76018277D01*
X99138437Y-76200266D01*
X99100008Y-76393464D01*
X99100008Y-76590446D01*
X99138437Y-76783644D01*
X99213819Y-76965633D01*
X99323257Y-77129418D01*
X99462545Y-77268706D01*
X99626330Y-77378144D01*
X99769130Y-77437294D01*
X99802653Y-77605826D01*
X99878035Y-77787815D01*
X99987473Y-77951600D01*
X100126761Y-78090888D01*
X100290546Y-78200326D01*
X100472535Y-78275708D01*
X100665733Y-78314137D01*
X100862715Y-78314137D01*
X101055913Y-78275708D01*
X101237902Y-78200326D01*
X101401687Y-78090888D01*
X101501696Y-77990880D01*
X101637567Y-78126751D01*
X101801352Y-78236189D01*
X101983341Y-78311571D01*
X102176539Y-78350000D01*
X102373521Y-78350000D01*
X102566719Y-78311571D01*
X102748708Y-78236189D01*
X102912493Y-78126751D01*
X103051781Y-77987463D01*
X103161219Y-77823678D01*
X103236601Y-77641689D01*
X103275030Y-77448491D01*
X103275030Y-77251509D01*
X103236601Y-77058311D01*
X103161219Y-76876322D01*
X103051781Y-76712537D01*
X103000030Y-76660786D01*
X103000030Y-75691659D01*
X111299998Y-75691659D01*
X111299998Y-75908341D01*
X111342271Y-76120858D01*
X111425191Y-76321045D01*
X111545573Y-76501209D01*
X111674999Y-76630635D01*
X111674998Y-77519366D01*
X111545573Y-77648791D01*
X111425191Y-77828955D01*
X111342271Y-78029142D01*
X111299998Y-78241659D01*
X111299998Y-78458341D01*
X111342271Y-78670858D01*
X111425191Y-78871045D01*
X111545573Y-79051209D01*
X111698789Y-79204425D01*
X111878953Y-79324807D01*
X112079140Y-79407727D01*
X112291657Y-79450000D01*
X112508339Y-79450000D01*
X112720856Y-79407727D01*
X112921043Y-79324807D01*
X113101207Y-79204425D01*
X113254423Y-79051209D01*
X113374805Y-78871045D01*
X113457725Y-78670858D01*
X113499998Y-78458341D01*
X113499998Y-78241659D01*
X113457725Y-78029142D01*
X113374805Y-77828955D01*
X113254423Y-77648791D01*
X113124998Y-77519366D01*
X113124998Y-76630634D01*
X113254423Y-76501209D01*
X113374805Y-76321045D01*
X113457725Y-76120858D01*
X113499998Y-75908341D01*
X113499998Y-75801509D01*
X129400000Y-75801509D01*
X129400000Y-75998491D01*
X129438429Y-76191689D01*
X129513811Y-76373678D01*
X129623249Y-76537463D01*
X129675000Y-76589214D01*
X129675001Y-89910785D01*
X129623249Y-89962537D01*
X129513811Y-90126322D01*
X129438429Y-90308311D01*
X129400000Y-90501509D01*
X129400000Y-90698491D01*
X129438429Y-90891689D01*
X129513811Y-91073678D01*
X129623249Y-91237463D01*
X129762537Y-91376751D01*
X129926322Y-91486189D01*
X130108311Y-91561571D01*
X130301509Y-91600000D01*
X130498491Y-91600000D01*
X130691689Y-91561571D01*
X130873678Y-91486189D01*
X131037463Y-91376751D01*
X131176751Y-91237463D01*
X131286189Y-91073678D01*
X131361571Y-90891689D01*
X131400000Y-90698491D01*
X131400000Y-90501509D01*
X131361571Y-90308311D01*
X131286189Y-90126322D01*
X131176751Y-89962537D01*
X131125000Y-89910786D01*
X131125000Y-89034782D01*
X131201509Y-89050000D01*
X131398491Y-89050000D01*
X131591689Y-89011571D01*
X131773678Y-88936189D01*
X131937463Y-88826751D01*
X132076751Y-88687463D01*
X132186189Y-88523678D01*
X132195997Y-88500000D01*
X132298491Y-88500000D01*
X132491689Y-88461571D01*
X132673678Y-88386189D01*
X132837463Y-88276751D01*
X132976751Y-88137463D01*
X133086189Y-87973678D01*
X133161571Y-87791689D01*
X133200000Y-87598491D01*
X133200000Y-87401509D01*
X133161571Y-87208311D01*
X133086189Y-87026322D01*
X132976751Y-86862537D01*
X132927000Y-86812786D01*
X132927000Y-76587224D01*
X132976761Y-76537463D01*
X133067602Y-76401509D01*
X134700000Y-76401509D01*
X134700000Y-76598491D01*
X134738429Y-76791689D01*
X134813811Y-76973678D01*
X134850000Y-77027839D01*
X134850001Y-77822166D01*
X134813815Y-77876322D01*
X134738433Y-78058311D01*
X134700004Y-78251509D01*
X134700004Y-78448491D01*
X134738433Y-78641689D01*
X134813815Y-78823678D01*
X134923253Y-78987463D01*
X135062541Y-79126751D01*
X135226326Y-79236189D01*
X135408315Y-79311571D01*
X135601513Y-79350000D01*
X135798495Y-79350000D01*
X135991693Y-79311571D01*
X136173682Y-79236189D01*
X136337467Y-79126751D01*
X136476755Y-78987463D01*
X136586193Y-78823678D01*
X136661575Y-78641689D01*
X136700004Y-78448491D01*
X136700004Y-78251509D01*
X136661575Y-78058311D01*
X136586193Y-77876322D01*
X136550000Y-77822156D01*
X136550000Y-77027838D01*
X136586189Y-76973678D01*
X136661571Y-76791689D01*
X136700000Y-76598491D01*
X136700000Y-76501519D01*
X136900000Y-76501519D01*
X136900000Y-76698501D01*
X136938429Y-76891699D01*
X137013811Y-77073688D01*
X137123249Y-77237473D01*
X137173000Y-77287224D01*
X137173001Y-87612785D01*
X137123249Y-87662537D01*
X137013811Y-87826322D01*
X136938429Y-88008311D01*
X136900000Y-88201509D01*
X136900000Y-88398491D01*
X136938429Y-88591689D01*
X137013811Y-88773678D01*
X137123249Y-88937463D01*
X137262537Y-89076751D01*
X137426322Y-89186189D01*
X137608311Y-89261571D01*
X137800000Y-89299700D01*
X137800000Y-89308341D01*
X137842273Y-89520858D01*
X137925193Y-89721045D01*
X138045575Y-89901209D01*
X138198791Y-90054425D01*
X138378955Y-90174807D01*
X138579142Y-90257727D01*
X138791659Y-90300000D01*
X139008341Y-90300000D01*
X139220858Y-90257727D01*
X139421045Y-90174807D01*
X139601209Y-90054425D01*
X139754425Y-89901209D01*
X139874807Y-89721045D01*
X139957727Y-89520858D01*
X140000000Y-89308341D01*
X140000000Y-89091659D01*
X139957727Y-88879142D01*
X139874807Y-88678955D01*
X139754425Y-88498791D01*
X139601209Y-88345575D01*
X139525000Y-88294654D01*
X139525000Y-88291659D01*
X140400000Y-88291659D01*
X140400000Y-88508341D01*
X140442273Y-88720858D01*
X140525193Y-88921045D01*
X140645575Y-89101209D01*
X140798791Y-89254425D01*
X140978955Y-89374807D01*
X141179142Y-89457727D01*
X141391659Y-89500000D01*
X141608341Y-89500000D01*
X141820858Y-89457727D01*
X142021045Y-89374807D01*
X142201209Y-89254425D01*
X142354425Y-89101209D01*
X142474807Y-88921045D01*
X142557727Y-88720858D01*
X142600000Y-88508341D01*
X142600000Y-88291659D01*
X142557727Y-88079142D01*
X142474807Y-87878955D01*
X142354425Y-87698791D01*
X142225000Y-87569366D01*
X142225000Y-82070000D01*
X180547097Y-82070000D01*
X180547097Y-83770000D01*
X180558682Y-83887621D01*
X180592990Y-84000721D01*
X180648704Y-84104955D01*
X180723683Y-84196317D01*
X180815045Y-84271296D01*
X180919279Y-84327010D01*
X181032379Y-84361318D01*
X181046665Y-84362725D01*
X180873711Y-84535679D01*
X180715027Y-84773167D01*
X180605723Y-85037051D01*
X180550000Y-85317187D01*
X180550000Y-85602813D01*
X180605723Y-85882949D01*
X180715027Y-86146833D01*
X180873711Y-86384321D01*
X181075679Y-86586289D01*
X181290758Y-86730000D01*
X181075679Y-86873711D01*
X180873711Y-87075679D01*
X180715027Y-87313167D01*
X180605723Y-87577051D01*
X180550000Y-87857187D01*
X180550000Y-88142813D01*
X180605723Y-88422949D01*
X180715027Y-88686833D01*
X180873711Y-88924321D01*
X181075679Y-89126289D01*
X181290758Y-89270000D01*
X181075679Y-89413711D01*
X180873711Y-89615679D01*
X180715027Y-89853167D01*
X180605723Y-90117051D01*
X180550000Y-90397187D01*
X180550000Y-90682813D01*
X180605723Y-90962949D01*
X180715027Y-91226833D01*
X180873711Y-91464321D01*
X181075679Y-91666289D01*
X181299950Y-91816141D01*
X181118543Y-91928674D01*
X180910867Y-92122760D01*
X180745046Y-92353632D01*
X180627452Y-92612418D01*
X180599000Y-92706234D01*
X180708683Y-92930000D01*
X181850000Y-92930000D01*
X181850000Y-92910000D01*
X182150000Y-92910000D01*
X182150000Y-92930000D01*
X183291317Y-92930000D01*
X183401000Y-92706234D01*
X183372548Y-92612418D01*
X183254954Y-92353632D01*
X183089133Y-92122760D01*
X182881457Y-91928674D01*
X182700050Y-91816141D01*
X182924321Y-91666289D01*
X183126289Y-91464321D01*
X183284973Y-91226833D01*
X183394277Y-90962949D01*
X183450000Y-90682813D01*
X183450000Y-90397187D01*
X183394277Y-90117051D01*
X183284973Y-89853167D01*
X183126289Y-89615679D01*
X182924321Y-89413711D01*
X182709242Y-89270000D01*
X182924321Y-89126289D01*
X183126289Y-88924321D01*
X183284973Y-88686833D01*
X183394277Y-88422949D01*
X183450000Y-88142813D01*
X183450000Y-87857187D01*
X183394277Y-87577051D01*
X183284973Y-87313167D01*
X183126289Y-87075679D01*
X182924321Y-86873711D01*
X182709242Y-86730000D01*
X182924321Y-86586289D01*
X183126289Y-86384321D01*
X183284973Y-86146833D01*
X183394277Y-85882949D01*
X183450000Y-85602813D01*
X183450000Y-85317187D01*
X183394277Y-85037051D01*
X183284973Y-84773167D01*
X183126289Y-84535679D01*
X182953335Y-84362725D01*
X182967621Y-84361318D01*
X183080721Y-84327010D01*
X183184955Y-84271296D01*
X183276317Y-84196317D01*
X183351296Y-84104955D01*
X183407010Y-84000721D01*
X183441318Y-83887621D01*
X183452903Y-83770000D01*
X183452903Y-82070000D01*
X183441318Y-81952379D01*
X183407010Y-81839279D01*
X183351296Y-81735045D01*
X183276317Y-81643683D01*
X183184955Y-81568704D01*
X183080721Y-81512990D01*
X182967621Y-81478682D01*
X182850000Y-81467097D01*
X181150000Y-81467097D01*
X181032379Y-81478682D01*
X180919279Y-81512990D01*
X180815045Y-81568704D01*
X180723683Y-81643683D01*
X180648704Y-81735045D01*
X180592990Y-81839279D01*
X180558682Y-81952379D01*
X180547097Y-82070000D01*
X142225000Y-82070000D01*
X142225000Y-77889216D01*
X142276751Y-77837465D01*
X142386189Y-77673680D01*
X142461571Y-77491691D01*
X142500000Y-77298493D01*
X142500000Y-77101511D01*
X142461571Y-76908313D01*
X142386189Y-76726324D01*
X142276751Y-76562539D01*
X142137463Y-76423251D01*
X141973678Y-76313813D01*
X141791689Y-76238431D01*
X141598491Y-76200002D01*
X141401509Y-76200002D01*
X141208311Y-76238431D01*
X141026322Y-76313813D01*
X140862537Y-76423251D01*
X140723249Y-76562539D01*
X140613811Y-76726324D01*
X140538429Y-76908313D01*
X140500000Y-77101511D01*
X140500000Y-77298493D01*
X140538429Y-77491691D01*
X140613811Y-77673680D01*
X140723249Y-77837465D01*
X140775001Y-77889217D01*
X140775000Y-87569366D01*
X140645575Y-87698791D01*
X140525193Y-87878955D01*
X140442273Y-88079142D01*
X140400000Y-88291659D01*
X139525000Y-88291659D01*
X139525000Y-76389214D01*
X139576751Y-76337463D01*
X139686189Y-76173678D01*
X139761571Y-75991689D01*
X139800000Y-75798491D01*
X139800000Y-75601509D01*
X139761571Y-75408311D01*
X139686189Y-75226322D01*
X139576751Y-75062537D01*
X139437463Y-74923249D01*
X139273678Y-74813811D01*
X139091689Y-74738429D01*
X138898491Y-74700000D01*
X138701509Y-74700000D01*
X138508311Y-74738429D01*
X138326322Y-74813811D01*
X138162537Y-74923249D01*
X138023249Y-75062537D01*
X137913811Y-75226322D01*
X137838429Y-75408311D01*
X137800248Y-75600261D01*
X137608311Y-75638439D01*
X137426322Y-75713821D01*
X137262537Y-75823259D01*
X137123249Y-75962547D01*
X137013811Y-76126332D01*
X136938429Y-76308321D01*
X136900000Y-76501519D01*
X136700000Y-76501519D01*
X136700000Y-76401509D01*
X136661571Y-76208311D01*
X136586189Y-76026322D01*
X136476751Y-75862537D01*
X136337463Y-75723249D01*
X136173678Y-75613811D01*
X135991689Y-75538429D01*
X135798491Y-75500000D01*
X135601509Y-75500000D01*
X135408311Y-75538429D01*
X135226322Y-75613811D01*
X135062537Y-75723249D01*
X134923249Y-75862537D01*
X134813811Y-76026322D01*
X134738429Y-76208311D01*
X134700000Y-76401509D01*
X133067602Y-76401509D01*
X133086199Y-76373678D01*
X133161581Y-76191689D01*
X133200010Y-75998491D01*
X133200010Y-75801509D01*
X133161581Y-75608311D01*
X133086199Y-75426322D01*
X132976761Y-75262537D01*
X132837473Y-75123249D01*
X132673688Y-75013811D01*
X132491699Y-74938429D01*
X132299749Y-74900248D01*
X132261571Y-74708311D01*
X132186189Y-74526322D01*
X132076751Y-74362537D01*
X131937463Y-74223249D01*
X131773678Y-74113811D01*
X131591689Y-74038429D01*
X131398491Y-74000000D01*
X131201509Y-74000000D01*
X131008311Y-74038429D01*
X130826322Y-74113811D01*
X130662537Y-74223249D01*
X130523249Y-74362537D01*
X130413811Y-74526322D01*
X130338429Y-74708311D01*
X130300250Y-74900250D01*
X130108311Y-74938429D01*
X129926322Y-75013811D01*
X129762537Y-75123249D01*
X129623249Y-75262537D01*
X129513811Y-75426322D01*
X129438429Y-75608311D01*
X129400000Y-75801509D01*
X113499998Y-75801509D01*
X113499998Y-75691659D01*
X113457725Y-75479142D01*
X113374805Y-75278955D01*
X113254423Y-75098791D01*
X113101207Y-74945575D01*
X112921043Y-74825193D01*
X112720856Y-74742273D01*
X112508339Y-74700000D01*
X112291657Y-74700000D01*
X112079140Y-74742273D01*
X111878953Y-74825193D01*
X111698789Y-74945575D01*
X111545573Y-75098791D01*
X111425191Y-75278955D01*
X111342271Y-75479142D01*
X111299998Y-75691659D01*
X103000030Y-75691659D01*
X103000030Y-72360627D01*
X103003536Y-72325030D01*
X103000030Y-72289433D01*
X103000030Y-72289423D01*
X102989539Y-72182905D01*
X102948083Y-72046242D01*
X102880761Y-71920293D01*
X102852216Y-71885511D01*
X102812860Y-71837555D01*
X102812853Y-71837548D01*
X102790161Y-71809898D01*
X102762512Y-71787207D01*
X102125305Y-71150000D01*
X180547097Y-71150000D01*
X180547097Y-72850000D01*
X180558682Y-72967621D01*
X180592990Y-73080721D01*
X180648704Y-73184955D01*
X180723683Y-73276317D01*
X180815045Y-73351296D01*
X180919279Y-73407010D01*
X181032379Y-73441318D01*
X181046665Y-73442725D01*
X180873711Y-73615679D01*
X180715027Y-73853167D01*
X180605723Y-74117051D01*
X180550000Y-74397187D01*
X180550000Y-74682813D01*
X180605723Y-74962949D01*
X180715027Y-75226833D01*
X180873711Y-75464321D01*
X181075679Y-75666289D01*
X181313167Y-75824973D01*
X181577051Y-75934277D01*
X181857187Y-75990000D01*
X182142813Y-75990000D01*
X182422949Y-75934277D01*
X182686833Y-75824973D01*
X182924321Y-75666289D01*
X183126289Y-75464321D01*
X183284973Y-75226833D01*
X183394277Y-74962949D01*
X183450000Y-74682813D01*
X183450000Y-74397187D01*
X183394277Y-74117051D01*
X183284973Y-73853167D01*
X183126289Y-73615679D01*
X182953335Y-73442725D01*
X182967621Y-73441318D01*
X183080721Y-73407010D01*
X183184955Y-73351296D01*
X183276317Y-73276317D01*
X183351296Y-73184955D01*
X183407010Y-73080721D01*
X183441318Y-72967621D01*
X183452903Y-72850000D01*
X183452903Y-71150000D01*
X183441318Y-71032379D01*
X183407010Y-70919279D01*
X183351296Y-70815045D01*
X183276317Y-70723683D01*
X183184955Y-70648704D01*
X183080721Y-70592990D01*
X182967621Y-70558682D01*
X182850000Y-70547097D01*
X181150000Y-70547097D01*
X181032379Y-70558682D01*
X180919279Y-70592990D01*
X180815045Y-70648704D01*
X180723683Y-70723683D01*
X180648704Y-70815045D01*
X180592990Y-70919279D01*
X180558682Y-71032379D01*
X180547097Y-71150000D01*
X102125305Y-71150000D01*
X100937832Y-69962528D01*
X100915132Y-69934868D01*
X100804737Y-69844269D01*
X100678788Y-69776947D01*
X100542125Y-69735491D01*
X100435607Y-69725000D01*
X100435597Y-69725000D01*
X100400000Y-69721494D01*
X100364403Y-69725000D01*
X95335597Y-69725000D01*
X95300000Y-69721494D01*
X95264403Y-69725000D01*
X95264393Y-69725000D01*
X95157875Y-69735491D01*
X95021212Y-69776947D01*
X94895263Y-69844269D01*
X94812525Y-69912170D01*
X94812523Y-69912172D01*
X94784868Y-69934868D01*
X94762172Y-69962523D01*
X93599696Y-71125000D01*
X91735597Y-71125000D01*
X91700000Y-71121494D01*
X91664403Y-71125000D01*
X91664393Y-71125000D01*
X91557875Y-71135491D01*
X91421212Y-71176947D01*
X91295263Y-71244269D01*
X91212525Y-71312170D01*
X91212523Y-71312172D01*
X91184868Y-71334868D01*
X91162172Y-71362523D01*
X90712523Y-71812173D01*
X90684869Y-71834868D01*
X90662173Y-71862523D01*
X90662170Y-71862526D01*
X90594269Y-71945264D01*
X90569221Y-71992125D01*
X90526947Y-72071212D01*
X90485491Y-72207875D01*
X90480857Y-72254929D01*
X90423249Y-72312537D01*
X90313811Y-72476322D01*
X90238429Y-72658311D01*
X90200000Y-72851509D01*
X89200000Y-72851509D01*
X89200000Y-72825304D01*
X90587477Y-71437828D01*
X90615132Y-71415132D01*
X90675048Y-71342125D01*
X90705731Y-71304737D01*
X90773053Y-71178788D01*
X90777384Y-71164509D01*
X90814509Y-71042125D01*
X90825000Y-70935607D01*
X90825000Y-70935597D01*
X90828506Y-70900000D01*
X90825000Y-70864403D01*
X90825000Y-70702903D01*
X90950000Y-70702903D01*
X91067621Y-70691318D01*
X91180721Y-70657010D01*
X91284955Y-70601296D01*
X91376317Y-70526317D01*
X91451296Y-70434955D01*
X91507010Y-70330721D01*
X91541318Y-70217621D01*
X91552903Y-70100000D01*
X91552903Y-68400000D01*
X91541318Y-68282379D01*
X91507010Y-68169279D01*
X91451296Y-68065045D01*
X91376317Y-67973683D01*
X91284955Y-67898704D01*
X91180721Y-67842990D01*
X91067621Y-67808682D01*
X90950000Y-67797097D01*
X89250000Y-67797097D01*
X89132379Y-67808682D01*
X89019279Y-67842990D01*
X88915045Y-67898704D01*
X88823683Y-67973683D01*
X88748704Y-68065045D01*
X88692990Y-68169279D01*
X88658682Y-68282379D01*
X88656024Y-68309368D01*
X88517240Y-68160867D01*
X88286368Y-67995046D01*
X88027582Y-67877452D01*
X87933766Y-67849000D01*
X87710000Y-67958683D01*
X87710000Y-69100000D01*
X87730000Y-69100000D01*
X87730000Y-69400000D01*
X87710000Y-69400000D01*
X87710000Y-70541317D01*
X87933766Y-70651000D01*
X88027582Y-70622548D01*
X88286368Y-70504954D01*
X88517240Y-70339133D01*
X88656024Y-70190632D01*
X88658682Y-70217621D01*
X88692990Y-70330721D01*
X88748704Y-70434955D01*
X88823683Y-70526317D01*
X88915045Y-70601296D01*
X89019279Y-70657010D01*
X89132379Y-70691318D01*
X89250000Y-70702903D01*
X89271792Y-70702903D01*
X88174696Y-71800000D01*
X88101509Y-71800000D01*
X87908311Y-71838429D01*
X87726322Y-71913811D01*
X87562537Y-72023249D01*
X87423249Y-72162537D01*
X87313811Y-72326322D01*
X87238429Y-72508311D01*
X87200000Y-72701509D01*
X81259370Y-72701509D01*
X81019552Y-72342597D01*
X80657403Y-71980448D01*
X80231562Y-71695910D01*
X79758392Y-71499917D01*
X79256078Y-71400000D01*
X78743922Y-71400000D01*
X78241608Y-71499917D01*
X77768438Y-71695910D01*
X77342597Y-71980448D01*
X76980448Y-72342597D01*
X76695910Y-72768438D01*
X76499917Y-73241608D01*
X76400000Y-73743922D01*
X61250764Y-73743922D01*
X61042039Y-73670094D01*
X60212132Y-74500000D01*
X60226275Y-74514142D01*
X60014142Y-74726275D01*
X60000000Y-74712132D01*
X59170094Y-75542039D01*
X56543926Y-75542039D01*
X56645707Y-75440258D01*
X56807128Y-75198675D01*
X56918317Y-74930242D01*
X56975000Y-74645275D01*
X56975000Y-74591995D01*
X58520721Y-74591995D01*
X58567092Y-74878821D01*
X58668529Y-75151088D01*
X58718915Y-75245353D01*
X58957961Y-75329906D01*
X59787868Y-74500000D01*
X58957961Y-73670094D01*
X58718915Y-73754647D01*
X58598119Y-74018897D01*
X58531197Y-74301635D01*
X58520721Y-74591995D01*
X56975000Y-74591995D01*
X56975000Y-74354725D01*
X56918317Y-74069758D01*
X56807128Y-73801325D01*
X56645707Y-73559742D01*
X56543926Y-73457961D01*
X59170094Y-73457961D01*
X60000000Y-74287868D01*
X60829906Y-73457961D01*
X60745353Y-73218915D01*
X60481103Y-73098119D01*
X60198365Y-73031197D01*
X59908005Y-73020721D01*
X59621179Y-73067092D01*
X59348912Y-73168529D01*
X59254647Y-73218915D01*
X59170094Y-73457961D01*
X56543926Y-73457961D01*
X56440258Y-73354293D01*
X56198675Y-73192872D01*
X55930242Y-73081683D01*
X55645275Y-73025000D01*
X55354725Y-73025000D01*
X55069758Y-73081683D01*
X54801325Y-73192872D01*
X54559742Y-73354293D01*
X54354293Y-73559742D01*
X54192872Y-73801325D01*
X54081683Y-74069758D01*
X54025000Y-74354725D01*
X54025000Y-74645275D01*
X54081683Y-74930242D01*
X54192872Y-75198675D01*
X54287303Y-75340000D01*
X54087489Y-75340000D01*
X53768713Y-75403408D01*
X53468432Y-75527789D01*
X53198186Y-75708361D01*
X52968361Y-75938186D01*
X52787789Y-76208432D01*
X52663408Y-76508713D01*
X52600000Y-76827489D01*
X40625000Y-76827489D01*
X40625000Y-73743922D01*
X46400000Y-73743922D01*
X46400000Y-74256078D01*
X46499917Y-74758392D01*
X46695910Y-75231562D01*
X46980448Y-75657403D01*
X47342597Y-76019552D01*
X47768438Y-76304090D01*
X48241608Y-76500083D01*
X48743922Y-76600000D01*
X49256078Y-76600000D01*
X49758392Y-76500083D01*
X50231562Y-76304090D01*
X50657403Y-76019552D01*
X51019552Y-75657403D01*
X51304090Y-75231562D01*
X51500083Y-74758392D01*
X51600000Y-74256078D01*
X51600000Y-73743922D01*
X51500083Y-73241608D01*
X51304090Y-72768438D01*
X51019552Y-72342597D01*
X50657403Y-71980448D01*
X50231562Y-71695910D01*
X49758392Y-71499917D01*
X49256078Y-71400000D01*
X48743922Y-71400000D01*
X48241608Y-71499917D01*
X47768438Y-71695910D01*
X47342597Y-71980448D01*
X46980448Y-72342597D01*
X46695910Y-72768438D01*
X46499917Y-73241608D01*
X46400000Y-73743922D01*
X40625000Y-73743922D01*
X40625000Y-67711161D01*
X49800971Y-67711161D01*
X50201379Y-68218977D01*
X50912556Y-68601721D01*
X51684738Y-68838367D01*
X52488249Y-68919820D01*
X53292212Y-68842952D01*
X54065731Y-68610714D01*
X54779079Y-68232034D01*
X54798621Y-68218977D01*
X55199029Y-67711161D01*
X55080854Y-67592986D01*
X64045954Y-67592986D01*
X64092033Y-67874870D01*
X64192220Y-68142347D01*
X64232033Y-68216830D01*
X64223683Y-68223683D01*
X64148704Y-68315045D01*
X64092990Y-68419279D01*
X64058682Y-68532379D01*
X64047097Y-68650000D01*
X64047097Y-70350000D01*
X64058682Y-70467621D01*
X64092990Y-70580721D01*
X64148704Y-70684955D01*
X64223683Y-70776317D01*
X64315045Y-70851296D01*
X64419279Y-70907010D01*
X64532379Y-70941318D01*
X64650000Y-70952903D01*
X66350000Y-70952903D01*
X66467621Y-70941318D01*
X66580721Y-70907010D01*
X66684955Y-70851296D01*
X66776317Y-70776317D01*
X66851296Y-70684955D01*
X66907010Y-70580721D01*
X66935661Y-70486271D01*
X67075679Y-70626289D01*
X67313167Y-70784973D01*
X67577051Y-70894277D01*
X67857187Y-70950000D01*
X68142813Y-70950000D01*
X68422949Y-70894277D01*
X68686833Y-70784973D01*
X68924321Y-70626289D01*
X69126289Y-70424321D01*
X69284973Y-70186833D01*
X69394277Y-69922949D01*
X69450000Y-69642813D01*
X69450000Y-69623767D01*
X86158995Y-69623767D01*
X86258833Y-69889908D01*
X86408674Y-70131457D01*
X86602760Y-70339133D01*
X86833632Y-70504954D01*
X87092418Y-70622548D01*
X87186234Y-70651000D01*
X87410000Y-70541317D01*
X87410000Y-69400000D01*
X86267774Y-69400000D01*
X86158995Y-69623767D01*
X69450000Y-69623767D01*
X69450000Y-69357187D01*
X69394277Y-69077051D01*
X69284973Y-68813167D01*
X69126289Y-68575679D01*
X69050610Y-68500000D01*
X69126289Y-68424321D01*
X69284973Y-68186833D01*
X69394277Y-67922949D01*
X69436404Y-67711161D01*
X74000971Y-67711161D01*
X74401379Y-68218977D01*
X75112556Y-68601721D01*
X75884738Y-68838367D01*
X76688249Y-68919820D01*
X77144125Y-68876233D01*
X86158995Y-68876233D01*
X86267774Y-69100000D01*
X87410000Y-69100000D01*
X87410000Y-67958683D01*
X87186234Y-67849000D01*
X87092418Y-67877452D01*
X86833632Y-67995046D01*
X86602760Y-68160867D01*
X86408674Y-68368543D01*
X86258833Y-68610092D01*
X86158995Y-68876233D01*
X77144125Y-68876233D01*
X77492212Y-68842952D01*
X78265731Y-68610714D01*
X78979079Y-68232034D01*
X78998621Y-68218977D01*
X79399029Y-67711161D01*
X76700000Y-65012132D01*
X74000971Y-67711161D01*
X69436404Y-67711161D01*
X69450000Y-67642813D01*
X69450000Y-67357187D01*
X69394277Y-67077051D01*
X69284973Y-66813167D01*
X69126289Y-66575679D01*
X68924321Y-66373711D01*
X68686833Y-66215027D01*
X68422949Y-66105723D01*
X68142813Y-66050000D01*
X67857187Y-66050000D01*
X67577051Y-66105723D01*
X67313167Y-66215027D01*
X67075679Y-66373711D01*
X66873711Y-66575679D01*
X66747289Y-66764884D01*
X66524159Y-66687973D01*
X65712132Y-67500000D01*
X65726275Y-67514143D01*
X65514143Y-67726275D01*
X65500000Y-67712132D01*
X65485858Y-67726275D01*
X65273726Y-67514143D01*
X65287868Y-67500000D01*
X64475841Y-66687973D01*
X64239345Y-66769491D01*
X64121052Y-67029469D01*
X64055752Y-67307529D01*
X64045954Y-67592986D01*
X55080854Y-67592986D01*
X52500000Y-65012132D01*
X49800971Y-67711161D01*
X40625000Y-67711161D01*
X40625000Y-64788249D01*
X48380180Y-64788249D01*
X48457048Y-65592212D01*
X48689286Y-66365731D01*
X49067966Y-67079079D01*
X49081023Y-67098621D01*
X49588839Y-67499029D01*
X52287868Y-64800000D01*
X52712132Y-64800000D01*
X55411161Y-67499029D01*
X55918977Y-67098621D01*
X56264749Y-66456140D01*
X59275992Y-66456140D01*
X59466177Y-66784699D01*
X59879607Y-66992931D01*
X60325717Y-67116506D01*
X60787364Y-67150674D01*
X61246806Y-67094123D01*
X61686387Y-66949026D01*
X61993823Y-66784699D01*
X62172604Y-66475841D01*
X64687973Y-66475841D01*
X65500000Y-67287868D01*
X66312027Y-66475841D01*
X66230509Y-66239345D01*
X65970531Y-66121052D01*
X65692471Y-66055752D01*
X65407014Y-66045954D01*
X65125130Y-66092033D01*
X64857653Y-66192220D01*
X64769491Y-66239345D01*
X64687973Y-66475841D01*
X62172604Y-66475841D01*
X62184008Y-66456140D01*
X60730000Y-65002132D01*
X59275992Y-66456140D01*
X56264749Y-66456140D01*
X56301721Y-66387444D01*
X56538367Y-65615262D01*
X56616209Y-64847364D01*
X58369326Y-64847364D01*
X58425877Y-65306806D01*
X58570974Y-65746387D01*
X58735301Y-66053823D01*
X59063860Y-66244008D01*
X60517868Y-64790000D01*
X60942132Y-64790000D01*
X62396140Y-66244008D01*
X62724699Y-66053823D01*
X62932931Y-65640393D01*
X63056506Y-65194283D01*
X63082182Y-64847364D01*
X70409326Y-64847364D01*
X70465877Y-65306806D01*
X70610974Y-65746387D01*
X70775301Y-66053823D01*
X71103860Y-66244008D01*
X72557868Y-64790000D01*
X71103860Y-63335992D01*
X70775301Y-63526177D01*
X70567069Y-63939607D01*
X70443494Y-64385717D01*
X70409326Y-64847364D01*
X63082182Y-64847364D01*
X63090674Y-64732636D01*
X63034123Y-64273194D01*
X62889026Y-63833613D01*
X62724699Y-63526177D01*
X62396140Y-63335992D01*
X60942132Y-64790000D01*
X60517868Y-64790000D01*
X59063860Y-63335992D01*
X58735301Y-63526177D01*
X58527069Y-63939607D01*
X58403494Y-64385717D01*
X58369326Y-64847364D01*
X56616209Y-64847364D01*
X56619820Y-64811751D01*
X56542952Y-64007788D01*
X56310714Y-63234269D01*
X56252104Y-63123860D01*
X59275992Y-63123860D01*
X60730000Y-64577868D01*
X62184008Y-63123860D01*
X71315992Y-63123860D01*
X72617015Y-64424883D01*
X72580180Y-64788249D01*
X72615410Y-65156722D01*
X71315992Y-66456140D01*
X71506177Y-66784699D01*
X71919607Y-66992931D01*
X72365717Y-67116506D01*
X72827364Y-67150674D01*
X73278685Y-67095123D01*
X73281023Y-67098621D01*
X73788839Y-67499029D01*
X76487868Y-64800000D01*
X76912132Y-64800000D01*
X79611161Y-67499029D01*
X79671428Y-67451509D01*
X82200000Y-67451509D01*
X82200000Y-67648491D01*
X82238429Y-67841689D01*
X82313811Y-68023678D01*
X82423249Y-68187463D01*
X82562537Y-68326751D01*
X82726322Y-68436189D01*
X82908311Y-68511571D01*
X83101509Y-68550000D01*
X83298491Y-68550000D01*
X83491689Y-68511571D01*
X83673678Y-68436189D01*
X83837463Y-68326751D01*
X83889216Y-68274998D01*
X84860786Y-68274998D01*
X84912537Y-68326749D01*
X85076322Y-68436187D01*
X85258311Y-68511569D01*
X85451509Y-68549998D01*
X85648491Y-68549998D01*
X85841689Y-68511569D01*
X86023678Y-68436187D01*
X86187463Y-68326749D01*
X86326751Y-68187461D01*
X86436189Y-68023676D01*
X86511571Y-67841687D01*
X86550000Y-67648489D01*
X86550000Y-67451507D01*
X86511571Y-67258309D01*
X86436189Y-67076320D01*
X86326751Y-66912535D01*
X86187463Y-66773247D01*
X86023678Y-66663809D01*
X85841689Y-66588427D01*
X85648491Y-66549998D01*
X85451509Y-66549998D01*
X85258311Y-66588427D01*
X85076322Y-66663809D01*
X84912537Y-66773247D01*
X84860786Y-66824998D01*
X83889212Y-66824998D01*
X83837463Y-66773249D01*
X83673678Y-66663811D01*
X83491689Y-66588429D01*
X83298491Y-66550000D01*
X83101509Y-66550000D01*
X82908311Y-66588429D01*
X82726322Y-66663811D01*
X82562537Y-66773249D01*
X82423249Y-66912537D01*
X82313811Y-67076322D01*
X82238429Y-67258311D01*
X82200000Y-67451509D01*
X79671428Y-67451509D01*
X80118977Y-67098621D01*
X80440333Y-66501509D01*
X99100000Y-66501509D01*
X99100000Y-66698491D01*
X99138429Y-66891689D01*
X99213811Y-67073678D01*
X99323249Y-67237463D01*
X99462537Y-67376751D01*
X99626322Y-67486189D01*
X99808311Y-67561571D01*
X100001509Y-67600000D01*
X100198491Y-67600000D01*
X100391689Y-67561571D01*
X100573678Y-67486189D01*
X100737463Y-67376751D01*
X100876751Y-67237463D01*
X100986189Y-67073678D01*
X101061571Y-66891689D01*
X101100000Y-66698491D01*
X101100000Y-66625305D01*
X101350305Y-66375000D01*
X110449696Y-66375000D01*
X112562172Y-68487477D01*
X112584868Y-68515132D01*
X112612523Y-68537828D01*
X112612525Y-68537830D01*
X112690377Y-68601721D01*
X112695263Y-68605731D01*
X112821212Y-68673053D01*
X112957875Y-68714509D01*
X113064393Y-68725000D01*
X113064403Y-68725000D01*
X113100000Y-68728506D01*
X113135597Y-68725000D01*
X115410786Y-68725000D01*
X115462537Y-68776751D01*
X115626322Y-68886189D01*
X115808311Y-68961571D01*
X116001509Y-69000000D01*
X116198491Y-69000000D01*
X116391689Y-68961571D01*
X116573678Y-68886189D01*
X116737463Y-68776751D01*
X116876751Y-68637463D01*
X116986189Y-68473678D01*
X117061571Y-68291689D01*
X117100000Y-68098491D01*
X117100000Y-67901509D01*
X117061571Y-67708311D01*
X116986189Y-67526322D01*
X116876751Y-67362537D01*
X116737463Y-67223249D01*
X116573678Y-67113811D01*
X116391689Y-67038429D01*
X116198491Y-67000000D01*
X116001509Y-67000000D01*
X115808311Y-67038429D01*
X115626322Y-67113811D01*
X115462537Y-67223249D01*
X115410786Y-67275000D01*
X113400305Y-67275000D01*
X111326814Y-65201509D01*
X118900000Y-65201509D01*
X118900000Y-65398491D01*
X118938429Y-65591689D01*
X119013811Y-65773678D01*
X119123249Y-65937463D01*
X119262537Y-66076751D01*
X119426322Y-66186189D01*
X119608311Y-66261571D01*
X119801509Y-66300000D01*
X119888280Y-66300000D01*
X119895263Y-66305731D01*
X120021212Y-66373053D01*
X120157875Y-66414509D01*
X120264393Y-66425000D01*
X120264402Y-66425000D01*
X120299999Y-66428506D01*
X120335596Y-66425000D01*
X130410786Y-66425000D01*
X130462537Y-66476751D01*
X130626322Y-66586189D01*
X130808311Y-66661571D01*
X131001509Y-66700000D01*
X131198491Y-66700000D01*
X131391689Y-66661571D01*
X131573678Y-66586189D01*
X131737463Y-66476751D01*
X131789214Y-66425000D01*
X137848741Y-66425000D01*
X137923683Y-66516317D01*
X138015045Y-66591296D01*
X138119279Y-66647010D01*
X138232379Y-66681318D01*
X138350000Y-66692903D01*
X140050000Y-66692903D01*
X140167621Y-66681318D01*
X140280721Y-66647010D01*
X140384955Y-66591296D01*
X140476317Y-66516317D01*
X140551296Y-66424955D01*
X140607010Y-66320721D01*
X140641318Y-66207621D01*
X140642725Y-66193335D01*
X140815679Y-66366289D01*
X141053167Y-66524973D01*
X141317051Y-66634277D01*
X141597187Y-66690000D01*
X141882813Y-66690000D01*
X142162949Y-66634277D01*
X142426833Y-66524973D01*
X142664321Y-66366289D01*
X142866289Y-66164321D01*
X143010000Y-65949242D01*
X143153711Y-66164321D01*
X143355679Y-66366289D01*
X143593167Y-66524973D01*
X143857051Y-66634277D01*
X144137187Y-66690000D01*
X144422813Y-66690000D01*
X144702949Y-66634277D01*
X144966833Y-66524973D01*
X145204321Y-66366289D01*
X145406289Y-66164321D01*
X145564973Y-65926833D01*
X145674277Y-65662949D01*
X145730000Y-65382813D01*
X145730000Y-65097187D01*
X145674277Y-64817051D01*
X145564973Y-64553167D01*
X145406289Y-64315679D01*
X145204321Y-64113711D01*
X144982771Y-63965677D01*
X145006368Y-63954954D01*
X145142488Y-63857187D01*
X148550000Y-63857187D01*
X148550000Y-64142813D01*
X148605723Y-64422949D01*
X148715027Y-64686833D01*
X148873711Y-64924321D01*
X149075679Y-65126289D01*
X149313167Y-65284973D01*
X149577051Y-65394277D01*
X149857187Y-65450000D01*
X150142813Y-65450000D01*
X150422949Y-65394277D01*
X150686833Y-65284973D01*
X150924321Y-65126289D01*
X151126289Y-64924321D01*
X151270000Y-64709242D01*
X151413711Y-64924321D01*
X151615679Y-65126289D01*
X151853167Y-65284973D01*
X152117051Y-65394277D01*
X152397187Y-65450000D01*
X152682813Y-65450000D01*
X152962949Y-65394277D01*
X153226833Y-65284973D01*
X153464321Y-65126289D01*
X153666289Y-64924321D01*
X153810000Y-64709242D01*
X153953711Y-64924321D01*
X154155679Y-65126289D01*
X154393167Y-65284973D01*
X154657051Y-65394277D01*
X154937187Y-65450000D01*
X155222813Y-65450000D01*
X155502949Y-65394277D01*
X155766833Y-65284973D01*
X156004321Y-65126289D01*
X156206289Y-64924321D01*
X156350000Y-64709242D01*
X156493711Y-64924321D01*
X156695679Y-65126289D01*
X156933167Y-65284973D01*
X157197051Y-65394277D01*
X157477187Y-65450000D01*
X157762813Y-65450000D01*
X158042949Y-65394277D01*
X158306833Y-65284973D01*
X158544321Y-65126289D01*
X158746289Y-64924321D01*
X158890000Y-64709242D01*
X159033711Y-64924321D01*
X159235679Y-65126289D01*
X159473167Y-65284973D01*
X159737051Y-65394277D01*
X160017187Y-65450000D01*
X160302813Y-65450000D01*
X160582949Y-65394277D01*
X160846833Y-65284973D01*
X161084321Y-65126289D01*
X161286289Y-64924321D01*
X161430000Y-64709242D01*
X161573711Y-64924321D01*
X161775679Y-65126289D01*
X162013167Y-65284973D01*
X162277051Y-65394277D01*
X162557187Y-65450000D01*
X162842813Y-65450000D01*
X163122949Y-65394277D01*
X163386833Y-65284973D01*
X163624321Y-65126289D01*
X163826289Y-64924321D01*
X163970000Y-64709242D01*
X164113711Y-64924321D01*
X164315679Y-65126289D01*
X164553167Y-65284973D01*
X164817051Y-65394277D01*
X165097187Y-65450000D01*
X165382813Y-65450000D01*
X165662949Y-65394277D01*
X165926833Y-65284973D01*
X166164321Y-65126289D01*
X166337275Y-64953335D01*
X166338682Y-64967621D01*
X166372990Y-65080721D01*
X166428704Y-65184955D01*
X166503683Y-65276317D01*
X166595045Y-65351296D01*
X166699279Y-65407010D01*
X166812379Y-65441318D01*
X166930000Y-65452903D01*
X168630000Y-65452903D01*
X168747621Y-65441318D01*
X168860721Y-65407010D01*
X168964955Y-65351296D01*
X169056317Y-65276317D01*
X169131296Y-65184955D01*
X169187010Y-65080721D01*
X169221318Y-64967621D01*
X169232903Y-64850000D01*
X169232903Y-63150000D01*
X176007097Y-63150000D01*
X176007097Y-64850000D01*
X176018682Y-64967621D01*
X176052990Y-65080721D01*
X176108704Y-65184955D01*
X176183683Y-65276317D01*
X176275045Y-65351296D01*
X176379279Y-65407010D01*
X176492379Y-65441318D01*
X176610000Y-65452903D01*
X178310000Y-65452903D01*
X178427621Y-65441318D01*
X178540721Y-65407010D01*
X178644955Y-65351296D01*
X178736317Y-65276317D01*
X178811296Y-65184955D01*
X178867010Y-65080721D01*
X178901318Y-64967621D01*
X178902725Y-64953335D01*
X179075679Y-65126289D01*
X179313167Y-65284973D01*
X179577051Y-65394277D01*
X179857187Y-65450000D01*
X180142813Y-65450000D01*
X180422949Y-65394277D01*
X180686833Y-65284973D01*
X180924321Y-65126289D01*
X181126289Y-64924321D01*
X181270000Y-64709242D01*
X181413711Y-64924321D01*
X181615679Y-65126289D01*
X181853167Y-65284973D01*
X182117051Y-65394277D01*
X182397187Y-65450000D01*
X182682813Y-65450000D01*
X182962949Y-65394277D01*
X183226833Y-65284973D01*
X183464321Y-65126289D01*
X183666289Y-64924321D01*
X183810000Y-64709242D01*
X183953711Y-64924321D01*
X184155679Y-65126289D01*
X184393167Y-65284973D01*
X184657051Y-65394277D01*
X184937187Y-65450000D01*
X185222813Y-65450000D01*
X185502949Y-65394277D01*
X185766833Y-65284973D01*
X186004321Y-65126289D01*
X186206289Y-64924321D01*
X186356141Y-64700050D01*
X186468674Y-64881457D01*
X186662760Y-65089133D01*
X186893632Y-65254954D01*
X187152418Y-65372548D01*
X187246234Y-65401000D01*
X187470000Y-65291317D01*
X187470000Y-64150000D01*
X187770000Y-64150000D01*
X187770000Y-65291317D01*
X187993766Y-65401000D01*
X188087582Y-65372548D01*
X188346368Y-65254954D01*
X188577240Y-65089133D01*
X188771326Y-64881457D01*
X188921167Y-64639908D01*
X189021005Y-64373767D01*
X188912226Y-64150000D01*
X187770000Y-64150000D01*
X187470000Y-64150000D01*
X187450000Y-64150000D01*
X187450000Y-63850000D01*
X187470000Y-63850000D01*
X187470000Y-62708683D01*
X187770000Y-62708683D01*
X187770000Y-63850000D01*
X188912226Y-63850000D01*
X189021005Y-63626233D01*
X188921167Y-63360092D01*
X188771326Y-63118543D01*
X188577240Y-62910867D01*
X188346368Y-62745046D01*
X188087582Y-62627452D01*
X187993766Y-62599000D01*
X187770000Y-62708683D01*
X187470000Y-62708683D01*
X187246234Y-62599000D01*
X187152418Y-62627452D01*
X186893632Y-62745046D01*
X186662760Y-62910867D01*
X186468674Y-63118543D01*
X186356141Y-63299950D01*
X186206289Y-63075679D01*
X186004321Y-62873711D01*
X185766833Y-62715027D01*
X185502949Y-62605723D01*
X185222813Y-62550000D01*
X184937187Y-62550000D01*
X184657051Y-62605723D01*
X184393167Y-62715027D01*
X184155679Y-62873711D01*
X183953711Y-63075679D01*
X183810000Y-63290758D01*
X183666289Y-63075679D01*
X183464321Y-62873711D01*
X183226833Y-62715027D01*
X182962949Y-62605723D01*
X182682813Y-62550000D01*
X182397187Y-62550000D01*
X182117051Y-62605723D01*
X181853167Y-62715027D01*
X181615679Y-62873711D01*
X181413711Y-63075679D01*
X181270000Y-63290758D01*
X181126289Y-63075679D01*
X180924321Y-62873711D01*
X180686833Y-62715027D01*
X180422949Y-62605723D01*
X180142813Y-62550000D01*
X179857187Y-62550000D01*
X179577051Y-62605723D01*
X179313167Y-62715027D01*
X179075679Y-62873711D01*
X178902725Y-63046665D01*
X178901318Y-63032379D01*
X178867010Y-62919279D01*
X178811296Y-62815045D01*
X178736317Y-62723683D01*
X178644955Y-62648704D01*
X178540721Y-62592990D01*
X178427621Y-62558682D01*
X178310000Y-62547097D01*
X176610000Y-62547097D01*
X176492379Y-62558682D01*
X176379279Y-62592990D01*
X176275045Y-62648704D01*
X176183683Y-62723683D01*
X176108704Y-62815045D01*
X176052990Y-62919279D01*
X176018682Y-63032379D01*
X176007097Y-63150000D01*
X169232903Y-63150000D01*
X169221318Y-63032379D01*
X169187010Y-62919279D01*
X169131296Y-62815045D01*
X169056317Y-62723683D01*
X168964955Y-62648704D01*
X168860721Y-62592990D01*
X168747621Y-62558682D01*
X168630000Y-62547097D01*
X166930000Y-62547097D01*
X166812379Y-62558682D01*
X166699279Y-62592990D01*
X166595045Y-62648704D01*
X166503683Y-62723683D01*
X166428704Y-62815045D01*
X166372990Y-62919279D01*
X166338682Y-63032379D01*
X166337275Y-63046665D01*
X166164321Y-62873711D01*
X165926833Y-62715027D01*
X165662949Y-62605723D01*
X165382813Y-62550000D01*
X165097187Y-62550000D01*
X164817051Y-62605723D01*
X164553167Y-62715027D01*
X164315679Y-62873711D01*
X164113711Y-63075679D01*
X163970000Y-63290758D01*
X163826289Y-63075679D01*
X163624321Y-62873711D01*
X163386833Y-62715027D01*
X163122949Y-62605723D01*
X162842813Y-62550000D01*
X162557187Y-62550000D01*
X162277051Y-62605723D01*
X162013167Y-62715027D01*
X161775679Y-62873711D01*
X161573711Y-63075679D01*
X161430000Y-63290758D01*
X161286289Y-63075679D01*
X161084321Y-62873711D01*
X160846833Y-62715027D01*
X160582949Y-62605723D01*
X160302813Y-62550000D01*
X160017187Y-62550000D01*
X159737051Y-62605723D01*
X159473167Y-62715027D01*
X159235679Y-62873711D01*
X159033711Y-63075679D01*
X158890000Y-63290758D01*
X158746289Y-63075679D01*
X158544321Y-62873711D01*
X158306833Y-62715027D01*
X158042949Y-62605723D01*
X157762813Y-62550000D01*
X157477187Y-62550000D01*
X157197051Y-62605723D01*
X156933167Y-62715027D01*
X156695679Y-62873711D01*
X156493711Y-63075679D01*
X156350000Y-63290758D01*
X156206289Y-63075679D01*
X156004321Y-62873711D01*
X155766833Y-62715027D01*
X155502949Y-62605723D01*
X155222813Y-62550000D01*
X154937187Y-62550000D01*
X154657051Y-62605723D01*
X154393167Y-62715027D01*
X154155679Y-62873711D01*
X153953711Y-63075679D01*
X153810000Y-63290758D01*
X153666289Y-63075679D01*
X153464321Y-62873711D01*
X153226833Y-62715027D01*
X152962949Y-62605723D01*
X152682813Y-62550000D01*
X152397187Y-62550000D01*
X152117051Y-62605723D01*
X151853167Y-62715027D01*
X151615679Y-62873711D01*
X151413711Y-63075679D01*
X151270000Y-63290758D01*
X151126289Y-63075679D01*
X150924321Y-62873711D01*
X150686833Y-62715027D01*
X150422949Y-62605723D01*
X150142813Y-62550000D01*
X149857187Y-62550000D01*
X149577051Y-62605723D01*
X149313167Y-62715027D01*
X149075679Y-62873711D01*
X148873711Y-63075679D01*
X148715027Y-63313167D01*
X148605723Y-63577051D01*
X148550000Y-63857187D01*
X145142488Y-63857187D01*
X145237240Y-63789133D01*
X145431326Y-63581457D01*
X145581167Y-63339908D01*
X145681005Y-63073767D01*
X145572226Y-62850000D01*
X144430000Y-62850000D01*
X144430000Y-62870000D01*
X144130000Y-62870000D01*
X144130000Y-62850000D01*
X144110000Y-62850000D01*
X144110000Y-62550000D01*
X144130000Y-62550000D01*
X144130000Y-61408683D01*
X144430000Y-61408683D01*
X144430000Y-62550000D01*
X145572226Y-62550000D01*
X145681005Y-62326233D01*
X145581167Y-62060092D01*
X145431326Y-61818543D01*
X145237240Y-61610867D01*
X145006368Y-61445046D01*
X144747582Y-61327452D01*
X144653766Y-61299000D01*
X144430000Y-61408683D01*
X144130000Y-61408683D01*
X143906234Y-61299000D01*
X143812418Y-61327452D01*
X143553632Y-61445046D01*
X143322760Y-61610867D01*
X143128674Y-61818543D01*
X143016141Y-61999950D01*
X142866289Y-61775679D01*
X142664321Y-61573711D01*
X142426833Y-61415027D01*
X142162949Y-61305723D01*
X141882813Y-61250000D01*
X141597187Y-61250000D01*
X141317051Y-61305723D01*
X141053167Y-61415027D01*
X140815679Y-61573711D01*
X140613711Y-61775679D01*
X140470000Y-61990758D01*
X140326289Y-61775679D01*
X140124321Y-61573711D01*
X139886833Y-61415027D01*
X139622949Y-61305723D01*
X139342813Y-61250000D01*
X139057187Y-61250000D01*
X138777051Y-61305723D01*
X138513167Y-61415027D01*
X138275679Y-61573711D01*
X138073711Y-61775679D01*
X137915027Y-62013167D01*
X137805723Y-62277051D01*
X137750000Y-62557187D01*
X137750000Y-62842813D01*
X137805723Y-63122949D01*
X137915027Y-63386833D01*
X138073711Y-63624321D01*
X138246665Y-63797275D01*
X138232379Y-63798682D01*
X138119279Y-63832990D01*
X138015045Y-63888704D01*
X137923683Y-63963683D01*
X137848704Y-64055045D01*
X137792990Y-64159279D01*
X137758682Y-64272379D01*
X137747097Y-64390000D01*
X137747097Y-64975000D01*
X131789214Y-64975000D01*
X131737463Y-64923249D01*
X131573678Y-64813811D01*
X131391689Y-64738429D01*
X131198491Y-64700000D01*
X131001509Y-64700000D01*
X130808311Y-64738429D01*
X130626322Y-64813811D01*
X130462537Y-64923249D01*
X130410786Y-64975000D01*
X120847773Y-64975000D01*
X120786189Y-64826322D01*
X120676751Y-64662537D01*
X120537463Y-64523249D01*
X120373678Y-64413811D01*
X120191689Y-64338429D01*
X119998491Y-64300000D01*
X119801509Y-64300000D01*
X119608311Y-64338429D01*
X119426322Y-64413811D01*
X119262537Y-64523249D01*
X119123249Y-64662537D01*
X119013811Y-64826322D01*
X118938429Y-65008311D01*
X118900000Y-65201509D01*
X111326814Y-65201509D01*
X111287832Y-65162528D01*
X111265132Y-65134868D01*
X111154737Y-65044269D01*
X111028788Y-64976947D01*
X110892125Y-64935491D01*
X110785607Y-64925000D01*
X110785597Y-64925000D01*
X110750000Y-64921494D01*
X110714403Y-64925000D01*
X101085597Y-64925000D01*
X101050000Y-64921494D01*
X101014403Y-64925000D01*
X101014393Y-64925000D01*
X100907875Y-64935491D01*
X100771212Y-64976947D01*
X100645263Y-65044269D01*
X100562525Y-65112170D01*
X100562523Y-65112172D01*
X100534868Y-65134868D01*
X100512172Y-65162523D01*
X100074695Y-65600000D01*
X100001509Y-65600000D01*
X99808311Y-65638429D01*
X99626322Y-65713811D01*
X99462537Y-65823249D01*
X99323249Y-65962537D01*
X99213811Y-66126322D01*
X99138429Y-66308311D01*
X99100000Y-66501509D01*
X80440333Y-66501509D01*
X80501721Y-66387444D01*
X80738367Y-65615262D01*
X80819820Y-64811751D01*
X80772188Y-64313571D01*
X80823683Y-64376317D01*
X80915045Y-64451296D01*
X81019279Y-64507010D01*
X81132379Y-64541318D01*
X81250000Y-64552903D01*
X81800000Y-64550000D01*
X81950000Y-64400000D01*
X81950000Y-63250000D01*
X80800000Y-63250000D01*
X80650000Y-63400000D01*
X80648453Y-63693040D01*
X80510714Y-63234269D01*
X80132034Y-62520921D01*
X80118977Y-62501379D01*
X79800167Y-62250000D01*
X80647097Y-62250000D01*
X80650000Y-62800000D01*
X80800000Y-62950000D01*
X81950000Y-62950000D01*
X81950000Y-61800000D01*
X82250000Y-61800000D01*
X82250000Y-62950000D01*
X82270000Y-62950000D01*
X82270000Y-63250000D01*
X82250000Y-63250000D01*
X82250000Y-64400000D01*
X82400000Y-64550000D01*
X82950000Y-64552903D01*
X83067621Y-64541318D01*
X83180721Y-64507010D01*
X83284955Y-64451296D01*
X83376317Y-64376317D01*
X83451296Y-64284955D01*
X83507010Y-64180721D01*
X83541318Y-64067621D01*
X83542725Y-64053335D01*
X83715679Y-64226289D01*
X83953167Y-64384973D01*
X84217051Y-64494277D01*
X84497187Y-64550000D01*
X84782813Y-64550000D01*
X85062949Y-64494277D01*
X85326833Y-64384973D01*
X85564321Y-64226289D01*
X85766289Y-64024321D01*
X85910000Y-63809242D01*
X86053711Y-64024321D01*
X86255679Y-64226289D01*
X86493167Y-64384973D01*
X86757051Y-64494277D01*
X87037187Y-64550000D01*
X87322813Y-64550000D01*
X87602949Y-64494277D01*
X87866833Y-64384973D01*
X88104321Y-64226289D01*
X88306289Y-64024321D01*
X88450000Y-63809242D01*
X88593711Y-64024321D01*
X88795679Y-64226289D01*
X89033167Y-64384973D01*
X89297051Y-64494277D01*
X89577187Y-64550000D01*
X89862813Y-64550000D01*
X90142949Y-64494277D01*
X90406833Y-64384973D01*
X90644321Y-64226289D01*
X90846289Y-64024321D01*
X91004973Y-63786833D01*
X91114277Y-63522949D01*
X91170000Y-63242813D01*
X91170000Y-62957187D01*
X91150109Y-62857187D01*
X92050000Y-62857187D01*
X92050000Y-63142813D01*
X92105723Y-63422949D01*
X92215027Y-63686833D01*
X92373711Y-63924321D01*
X92575679Y-64126289D01*
X92813167Y-64284973D01*
X93077051Y-64394277D01*
X93357187Y-64450000D01*
X93642813Y-64450000D01*
X93922949Y-64394277D01*
X94186833Y-64284973D01*
X94424321Y-64126289D01*
X94626289Y-63924321D01*
X94770000Y-63709242D01*
X94913711Y-63924321D01*
X95115679Y-64126289D01*
X95353167Y-64284973D01*
X95617051Y-64394277D01*
X95897187Y-64450000D01*
X96182813Y-64450000D01*
X96462949Y-64394277D01*
X96726833Y-64284973D01*
X96964321Y-64126289D01*
X97166289Y-63924321D01*
X97310000Y-63709242D01*
X97453711Y-63924321D01*
X97655679Y-64126289D01*
X97893167Y-64284973D01*
X98157051Y-64394277D01*
X98437187Y-64450000D01*
X98722813Y-64450000D01*
X99002949Y-64394277D01*
X99266833Y-64284973D01*
X99504321Y-64126289D01*
X99706289Y-63924321D01*
X99850000Y-63709242D01*
X99993711Y-63924321D01*
X100195679Y-64126289D01*
X100433167Y-64284973D01*
X100697051Y-64394277D01*
X100977187Y-64450000D01*
X101262813Y-64450000D01*
X101542949Y-64394277D01*
X101806833Y-64284973D01*
X102044321Y-64126289D01*
X102246289Y-63924321D01*
X102390000Y-63709242D01*
X102533711Y-63924321D01*
X102735679Y-64126289D01*
X102973167Y-64284973D01*
X103237051Y-64394277D01*
X103517187Y-64450000D01*
X103802813Y-64450000D01*
X104082949Y-64394277D01*
X104346833Y-64284973D01*
X104584321Y-64126289D01*
X104786289Y-63924321D01*
X104930000Y-63709242D01*
X105073711Y-63924321D01*
X105275679Y-64126289D01*
X105513167Y-64284973D01*
X105777051Y-64394277D01*
X106057187Y-64450000D01*
X106342813Y-64450000D01*
X106622949Y-64394277D01*
X106886833Y-64284973D01*
X107124321Y-64126289D01*
X107326289Y-63924321D01*
X107470000Y-63709242D01*
X107613711Y-63924321D01*
X107815679Y-64126289D01*
X108053167Y-64284973D01*
X108317051Y-64394277D01*
X108597187Y-64450000D01*
X108882813Y-64450000D01*
X109162949Y-64394277D01*
X109426833Y-64284973D01*
X109664321Y-64126289D01*
X109866289Y-63924321D01*
X110010000Y-63709242D01*
X110153711Y-63924321D01*
X110355679Y-64126289D01*
X110593167Y-64284973D01*
X110857051Y-64394277D01*
X111137187Y-64450000D01*
X111422813Y-64450000D01*
X111702949Y-64394277D01*
X111966833Y-64284973D01*
X112204321Y-64126289D01*
X112406289Y-63924321D01*
X112550000Y-63709242D01*
X112693711Y-63924321D01*
X112895679Y-64126289D01*
X113133167Y-64284973D01*
X113397051Y-64394277D01*
X113677187Y-64450000D01*
X113962813Y-64450000D01*
X114242949Y-64394277D01*
X114506833Y-64284973D01*
X114744321Y-64126289D01*
X114946289Y-63924321D01*
X115090000Y-63709242D01*
X115233711Y-63924321D01*
X115435679Y-64126289D01*
X115673167Y-64284973D01*
X115937051Y-64394277D01*
X116217187Y-64450000D01*
X116502813Y-64450000D01*
X116782949Y-64394277D01*
X117046833Y-64284973D01*
X117284321Y-64126289D01*
X117486289Y-63924321D01*
X117630000Y-63709242D01*
X117773711Y-63924321D01*
X117975679Y-64126289D01*
X118213167Y-64284973D01*
X118477051Y-64394277D01*
X118757187Y-64450000D01*
X119042813Y-64450000D01*
X119322949Y-64394277D01*
X119586833Y-64284973D01*
X119824321Y-64126289D01*
X120026289Y-63924321D01*
X120170000Y-63709242D01*
X120313711Y-63924321D01*
X120515679Y-64126289D01*
X120753167Y-64284973D01*
X121017051Y-64394277D01*
X121297187Y-64450000D01*
X121582813Y-64450000D01*
X121862949Y-64394277D01*
X122126833Y-64284973D01*
X122364321Y-64126289D01*
X122566289Y-63924321D01*
X122710000Y-63709242D01*
X122853711Y-63924321D01*
X123055679Y-64126289D01*
X123293167Y-64284973D01*
X123557051Y-64394277D01*
X123837187Y-64450000D01*
X124122813Y-64450000D01*
X124402949Y-64394277D01*
X124666833Y-64284973D01*
X124904321Y-64126289D01*
X125106289Y-63924321D01*
X125250000Y-63709242D01*
X125393711Y-63924321D01*
X125595679Y-64126289D01*
X125833167Y-64284973D01*
X126097051Y-64394277D01*
X126377187Y-64450000D01*
X126662813Y-64450000D01*
X126942949Y-64394277D01*
X127206833Y-64284973D01*
X127444321Y-64126289D01*
X127646289Y-63924321D01*
X127790000Y-63709242D01*
X127933711Y-63924321D01*
X128135679Y-64126289D01*
X128373167Y-64284973D01*
X128637051Y-64394277D01*
X128917187Y-64450000D01*
X129202813Y-64450000D01*
X129482949Y-64394277D01*
X129746833Y-64284973D01*
X129984321Y-64126289D01*
X130157275Y-63953335D01*
X130158682Y-63967621D01*
X130192990Y-64080721D01*
X130248704Y-64184955D01*
X130323683Y-64276317D01*
X130415045Y-64351296D01*
X130519279Y-64407010D01*
X130632379Y-64441318D01*
X130750000Y-64452903D01*
X132450000Y-64452903D01*
X132567621Y-64441318D01*
X132680721Y-64407010D01*
X132784955Y-64351296D01*
X132876317Y-64276317D01*
X132951296Y-64184955D01*
X133007010Y-64080721D01*
X133041318Y-63967621D01*
X133052903Y-63850000D01*
X133052903Y-62150000D01*
X133041318Y-62032379D01*
X133007010Y-61919279D01*
X132951296Y-61815045D01*
X132876317Y-61723683D01*
X132784955Y-61648704D01*
X132680721Y-61592990D01*
X132567621Y-61558682D01*
X132450000Y-61547097D01*
X130750000Y-61547097D01*
X130632379Y-61558682D01*
X130519279Y-61592990D01*
X130415045Y-61648704D01*
X130323683Y-61723683D01*
X130248704Y-61815045D01*
X130192990Y-61919279D01*
X130158682Y-62032379D01*
X130157275Y-62046665D01*
X129984321Y-61873711D01*
X129746833Y-61715027D01*
X129482949Y-61605723D01*
X129202813Y-61550000D01*
X128917187Y-61550000D01*
X128637051Y-61605723D01*
X128373167Y-61715027D01*
X128135679Y-61873711D01*
X127933711Y-62075679D01*
X127790000Y-62290758D01*
X127646289Y-62075679D01*
X127444321Y-61873711D01*
X127206833Y-61715027D01*
X126942949Y-61605723D01*
X126662813Y-61550000D01*
X126377187Y-61550000D01*
X126097051Y-61605723D01*
X125833167Y-61715027D01*
X125595679Y-61873711D01*
X125393711Y-62075679D01*
X125250000Y-62290758D01*
X125106289Y-62075679D01*
X124904321Y-61873711D01*
X124666833Y-61715027D01*
X124402949Y-61605723D01*
X124122813Y-61550000D01*
X123837187Y-61550000D01*
X123557051Y-61605723D01*
X123293167Y-61715027D01*
X123055679Y-61873711D01*
X122853711Y-62075679D01*
X122710000Y-62290758D01*
X122566289Y-62075679D01*
X122364321Y-61873711D01*
X122126833Y-61715027D01*
X121862949Y-61605723D01*
X121582813Y-61550000D01*
X121297187Y-61550000D01*
X121017051Y-61605723D01*
X120753167Y-61715027D01*
X120515679Y-61873711D01*
X120313711Y-62075679D01*
X120170000Y-62290758D01*
X120026289Y-62075679D01*
X119824321Y-61873711D01*
X119586833Y-61715027D01*
X119322949Y-61605723D01*
X119042813Y-61550000D01*
X118757187Y-61550000D01*
X118477051Y-61605723D01*
X118213167Y-61715027D01*
X117975679Y-61873711D01*
X117773711Y-62075679D01*
X117630000Y-62290758D01*
X117486289Y-62075679D01*
X117284321Y-61873711D01*
X117046833Y-61715027D01*
X116782949Y-61605723D01*
X116502813Y-61550000D01*
X116217187Y-61550000D01*
X115937051Y-61605723D01*
X115673167Y-61715027D01*
X115435679Y-61873711D01*
X115233711Y-62075679D01*
X115090000Y-62290758D01*
X114946289Y-62075679D01*
X114744321Y-61873711D01*
X114506833Y-61715027D01*
X114242949Y-61605723D01*
X113962813Y-61550000D01*
X113677187Y-61550000D01*
X113397051Y-61605723D01*
X113133167Y-61715027D01*
X112895679Y-61873711D01*
X112693711Y-62075679D01*
X112550000Y-62290758D01*
X112406289Y-62075679D01*
X112204321Y-61873711D01*
X111966833Y-61715027D01*
X111702949Y-61605723D01*
X111422813Y-61550000D01*
X111137187Y-61550000D01*
X110857051Y-61605723D01*
X110593167Y-61715027D01*
X110355679Y-61873711D01*
X110153711Y-62075679D01*
X110010000Y-62290758D01*
X109866289Y-62075679D01*
X109664321Y-61873711D01*
X109426833Y-61715027D01*
X109162949Y-61605723D01*
X108882813Y-61550000D01*
X108597187Y-61550000D01*
X108317051Y-61605723D01*
X108053167Y-61715027D01*
X107815679Y-61873711D01*
X107613711Y-62075679D01*
X107470000Y-62290758D01*
X107326289Y-62075679D01*
X107124321Y-61873711D01*
X106886833Y-61715027D01*
X106622949Y-61605723D01*
X106342813Y-61550000D01*
X106057187Y-61550000D01*
X105777051Y-61605723D01*
X105513167Y-61715027D01*
X105275679Y-61873711D01*
X105073711Y-62075679D01*
X104930000Y-62290758D01*
X104786289Y-62075679D01*
X104584321Y-61873711D01*
X104346833Y-61715027D01*
X104082949Y-61605723D01*
X103802813Y-61550000D01*
X103517187Y-61550000D01*
X103237051Y-61605723D01*
X102973167Y-61715027D01*
X102735679Y-61873711D01*
X102533711Y-62075679D01*
X102390000Y-62290758D01*
X102246289Y-62075679D01*
X102044321Y-61873711D01*
X101806833Y-61715027D01*
X101542949Y-61605723D01*
X101262813Y-61550000D01*
X100977187Y-61550000D01*
X100697051Y-61605723D01*
X100433167Y-61715027D01*
X100195679Y-61873711D01*
X99993711Y-62075679D01*
X99850000Y-62290758D01*
X99706289Y-62075679D01*
X99504321Y-61873711D01*
X99266833Y-61715027D01*
X99002949Y-61605723D01*
X98722813Y-61550000D01*
X98437187Y-61550000D01*
X98157051Y-61605723D01*
X97893167Y-61715027D01*
X97655679Y-61873711D01*
X97453711Y-62075679D01*
X97310000Y-62290758D01*
X97166289Y-62075679D01*
X96964321Y-61873711D01*
X96726833Y-61715027D01*
X96462949Y-61605723D01*
X96182813Y-61550000D01*
X95897187Y-61550000D01*
X95617051Y-61605723D01*
X95353167Y-61715027D01*
X95115679Y-61873711D01*
X94913711Y-62075679D01*
X94770000Y-62290758D01*
X94626289Y-62075679D01*
X94424321Y-61873711D01*
X94186833Y-61715027D01*
X93922949Y-61605723D01*
X93642813Y-61550000D01*
X93357187Y-61550000D01*
X93077051Y-61605723D01*
X92813167Y-61715027D01*
X92575679Y-61873711D01*
X92373711Y-62075679D01*
X92215027Y-62313167D01*
X92105723Y-62577051D01*
X92050000Y-62857187D01*
X91150109Y-62857187D01*
X91114277Y-62677051D01*
X91004973Y-62413167D01*
X90846289Y-62175679D01*
X90644321Y-61973711D01*
X90406833Y-61815027D01*
X90142949Y-61705723D01*
X89862813Y-61650000D01*
X89577187Y-61650000D01*
X89297051Y-61705723D01*
X89033167Y-61815027D01*
X88795679Y-61973711D01*
X88593711Y-62175679D01*
X88450000Y-62390758D01*
X88306289Y-62175679D01*
X88104321Y-61973711D01*
X87866833Y-61815027D01*
X87602949Y-61705723D01*
X87322813Y-61650000D01*
X87037187Y-61650000D01*
X86757051Y-61705723D01*
X86493167Y-61815027D01*
X86255679Y-61973711D01*
X86053711Y-62175679D01*
X85910000Y-62390758D01*
X85766289Y-62175679D01*
X85564321Y-61973711D01*
X85326833Y-61815027D01*
X85062949Y-61705723D01*
X84782813Y-61650000D01*
X84497187Y-61650000D01*
X84217051Y-61705723D01*
X83953167Y-61815027D01*
X83715679Y-61973711D01*
X83542725Y-62146665D01*
X83541318Y-62132379D01*
X83507010Y-62019279D01*
X83451296Y-61915045D01*
X83376317Y-61823683D01*
X83284955Y-61748704D01*
X83180721Y-61692990D01*
X83067621Y-61658682D01*
X82950000Y-61647097D01*
X82400000Y-61650000D01*
X82250000Y-61800000D01*
X81950000Y-61800000D01*
X81800000Y-61650000D01*
X81250000Y-61647097D01*
X81132379Y-61658682D01*
X81019279Y-61692990D01*
X80915045Y-61748704D01*
X80823683Y-61823683D01*
X80748704Y-61915045D01*
X80692990Y-62019279D01*
X80658682Y-62132379D01*
X80647097Y-62250000D01*
X79800167Y-62250000D01*
X79611161Y-62100971D01*
X76912132Y-64800000D01*
X76487868Y-64800000D01*
X73788839Y-62100971D01*
X73288829Y-62495224D01*
X73174283Y-62463494D01*
X72712636Y-62429326D01*
X72253194Y-62485877D01*
X71813613Y-62630974D01*
X71506177Y-62795301D01*
X71315992Y-63123860D01*
X62184008Y-63123860D01*
X61993823Y-62795301D01*
X61580393Y-62587069D01*
X61134283Y-62463494D01*
X60672636Y-62429326D01*
X60213194Y-62485877D01*
X59773613Y-62630974D01*
X59466177Y-62795301D01*
X59275992Y-63123860D01*
X56252104Y-63123860D01*
X55932034Y-62520921D01*
X55918977Y-62501379D01*
X55411161Y-62100971D01*
X52712132Y-64800000D01*
X52287868Y-64800000D01*
X49588839Y-62100971D01*
X49081023Y-62501379D01*
X48698279Y-63212556D01*
X48461633Y-63984738D01*
X48380180Y-64788249D01*
X40625000Y-64788249D01*
X40625000Y-61888839D01*
X49800971Y-61888839D01*
X52500000Y-64587868D01*
X55199029Y-61888839D01*
X74000971Y-61888839D01*
X76700000Y-64587868D01*
X79399029Y-61888839D01*
X78998621Y-61381023D01*
X78287444Y-60998279D01*
X77515262Y-60761633D01*
X76711751Y-60680180D01*
X75907788Y-60757048D01*
X75134269Y-60989286D01*
X74420921Y-61367966D01*
X74401379Y-61381023D01*
X74000971Y-61888839D01*
X55199029Y-61888839D01*
X54798621Y-61381023D01*
X54087444Y-60998279D01*
X53315262Y-60761633D01*
X52511751Y-60680180D01*
X51707788Y-60757048D01*
X50934269Y-60989286D01*
X50220921Y-61367966D01*
X50201379Y-61381023D01*
X49800971Y-61888839D01*
X40625000Y-61888839D01*
X40625000Y-60625000D01*
X189375001Y-60625000D01*
X189375000Y-96375000D01*
G37*
X189375000Y-96375000D02*
X40625000Y-96375000D01*
X40625000Y-93750060D01*
X47647037Y-93750060D01*
X47658622Y-93867681D01*
X47692930Y-93980781D01*
X47748644Y-94085015D01*
X47823623Y-94176377D01*
X47914985Y-94251356D01*
X48019219Y-94307070D01*
X48132319Y-94341378D01*
X48249940Y-94352963D01*
X49700000Y-94350060D01*
X49850000Y-94200060D01*
X49850000Y-92150000D01*
X50150000Y-92150000D01*
X50150000Y-94200060D01*
X50300000Y-94350060D01*
X51750060Y-94352963D01*
X51867681Y-94341378D01*
X51980781Y-94307070D01*
X52085015Y-94251356D01*
X52176377Y-94176377D01*
X52251356Y-94085015D01*
X52307070Y-93980781D01*
X52341378Y-93867681D01*
X52352963Y-93750060D01*
X52352796Y-93666183D01*
X53625949Y-93666183D01*
X53816141Y-93994747D01*
X54229582Y-94202985D01*
X54675703Y-94326564D01*
X55137362Y-94360734D01*
X55596816Y-94304182D01*
X56036409Y-94159082D01*
X56343859Y-93994747D01*
X56534051Y-93666183D01*
X55080000Y-92212132D01*
X53625949Y-93666183D01*
X52352796Y-93666183D01*
X52350060Y-92300000D01*
X52200060Y-92150000D01*
X50150000Y-92150000D01*
X49850000Y-92150000D01*
X47799940Y-92150000D01*
X47649940Y-92300000D01*
X47647037Y-93750060D01*
X40625000Y-93750060D01*
X40625000Y-92057362D01*
X52719266Y-92057362D01*
X52775818Y-92516816D01*
X52920918Y-92956409D01*
X53085253Y-93263859D01*
X53413817Y-93454051D01*
X54867868Y-92000000D01*
X55292132Y-92000000D01*
X56746183Y-93454051D01*
X56746675Y-93453766D01*
X180599000Y-93453766D01*
X180627452Y-93547582D01*
X180745046Y-93806368D01*
X180910867Y-94037240D01*
X181118543Y-94231326D01*
X181360092Y-94381167D01*
X181626233Y-94481005D01*
X181850000Y-94372226D01*
X181850000Y-93230000D01*
X182150000Y-93230000D01*
X182150000Y-94372226D01*
X182373767Y-94481005D01*
X182639908Y-94381167D01*
X182881457Y-94231326D01*
X183089133Y-94037240D01*
X183254954Y-93806368D01*
X183372548Y-93547582D01*
X183401000Y-93453766D01*
X183291317Y-93230000D01*
X182150000Y-93230000D01*
X181850000Y-93230000D01*
X180708683Y-93230000D01*
X180599000Y-93453766D01*
X56746675Y-93453766D01*
X57074747Y-93263859D01*
X57282985Y-92850418D01*
X57406564Y-92404297D01*
X57440734Y-91942638D01*
X57384182Y-91483184D01*
X57239082Y-91043591D01*
X57074747Y-90736141D01*
X56746183Y-90545949D01*
X55292132Y-92000000D01*
X54867868Y-92000000D01*
X53413817Y-90545949D01*
X53085253Y-90736141D01*
X52877015Y-91149582D01*
X52753436Y-91595703D01*
X52719266Y-92057362D01*
X40625000Y-92057362D01*
X40625000Y-90249940D01*
X47647037Y-90249940D01*
X47649940Y-91700000D01*
X47799940Y-91850000D01*
X49850000Y-91850000D01*
X49850000Y-89799940D01*
X50150000Y-89799940D01*
X50150000Y-91850000D01*
X52200060Y-91850000D01*
X52350060Y-91700000D01*
X52352795Y-90333817D01*
X53625949Y-90333817D01*
X55080000Y-91787868D01*
X56534051Y-90333817D01*
X56343859Y-90005253D01*
X55930418Y-89797015D01*
X55484297Y-89673436D01*
X55022638Y-89639266D01*
X54563184Y-89695818D01*
X54123591Y-89840918D01*
X53816141Y-90005253D01*
X53625949Y-90333817D01*
X52352795Y-90333817D01*
X52352963Y-90249940D01*
X52341378Y-90132319D01*
X52307070Y-90019219D01*
X52251356Y-89914985D01*
X52176377Y-89823623D01*
X52085015Y-89748644D01*
X51980781Y-89692930D01*
X51867681Y-89658622D01*
X51750060Y-89647037D01*
X50300000Y-89649940D01*
X50150000Y-89799940D01*
X49850000Y-89799940D01*
X49700000Y-89649940D01*
X48249940Y-89647037D01*
X48132319Y-89658622D01*
X48019219Y-89692930D01*
X47914985Y-89748644D01*
X47823623Y-89823623D01*
X47748644Y-89914985D01*
X47692930Y-90019219D01*
X47658622Y-90132319D01*
X47647037Y-90249940D01*
X40625000Y-90249940D01*
X40625000Y-88299998D01*
X76771494Y-88299998D01*
X76775000Y-88335595D01*
X76775001Y-91064393D01*
X76771494Y-91100000D01*
X76775001Y-91135607D01*
X76782834Y-91215132D01*
X76785492Y-91242124D01*
X76826947Y-91378787D01*
X76894269Y-91504736D01*
X76962170Y-91587474D01*
X76962173Y-91587477D01*
X76984869Y-91615132D01*
X77012523Y-91637827D01*
X77462172Y-92087477D01*
X77484868Y-92115132D01*
X77512523Y-92137828D01*
X77512525Y-92137830D01*
X77595263Y-92205731D01*
X77721212Y-92273053D01*
X77857875Y-92314509D01*
X77964393Y-92325000D01*
X77964403Y-92325000D01*
X78000000Y-92328506D01*
X78035597Y-92325000D01*
X80664407Y-92325000D01*
X80700004Y-92328506D01*
X80735601Y-92325000D01*
X80735611Y-92325000D01*
X80842129Y-92314509D01*
X80978792Y-92273053D01*
X81104741Y-92205731D01*
X81215136Y-92115132D01*
X81237836Y-92087472D01*
X81558271Y-91767037D01*
X97470000Y-91767037D01*
X97470000Y-92032963D01*
X97521880Y-92293780D01*
X97623646Y-92539465D01*
X97771387Y-92760575D01*
X97959425Y-92948613D01*
X98180535Y-93096354D01*
X98426220Y-93198120D01*
X98687037Y-93250000D01*
X98952963Y-93250000D01*
X99213780Y-93198120D01*
X99459465Y-93096354D01*
X99680575Y-92948613D01*
X99868613Y-92760575D01*
X100016354Y-92539465D01*
X100118120Y-92293780D01*
X100170000Y-92032963D01*
X100170000Y-91767037D01*
X102350000Y-91767037D01*
X102350000Y-92032963D01*
X102401880Y-92293780D01*
X102503646Y-92539465D01*
X102651387Y-92760575D01*
X102839425Y-92948613D01*
X103060535Y-93096354D01*
X103306220Y-93198120D01*
X103567037Y-93250000D01*
X103832963Y-93250000D01*
X104093780Y-93198120D01*
X104339465Y-93096354D01*
X104560575Y-92948613D01*
X104748613Y-92760575D01*
X104896354Y-92539465D01*
X104998120Y-92293780D01*
X105050000Y-92032963D01*
X105050000Y-91767037D01*
X104998120Y-91506220D01*
X104896354Y-91260535D01*
X104748613Y-91039425D01*
X104560575Y-90851387D01*
X104339465Y-90703646D01*
X104093780Y-90601880D01*
X103832963Y-90550000D01*
X103567037Y-90550000D01*
X103306220Y-90601880D01*
X103060535Y-90703646D01*
X102839425Y-90851387D01*
X102651387Y-91039425D01*
X102503646Y-91260535D01*
X102401880Y-91506220D01*
X102350000Y-91767037D01*
X100170000Y-91767037D01*
X100118120Y-91506220D01*
X100016354Y-91260535D01*
X99868613Y-91039425D01*
X99680575Y-90851387D01*
X99459465Y-90703646D01*
X99213780Y-90601880D01*
X98952963Y-90550000D01*
X98687037Y-90550000D01*
X98426220Y-90601880D01*
X98180535Y-90703646D01*
X97959425Y-90851387D01*
X97771387Y-91039425D01*
X97623646Y-91260535D01*
X97521880Y-91506220D01*
X97470000Y-91767037D01*
X81558271Y-91767037D01*
X81625304Y-91700004D01*
X81698491Y-91700004D01*
X81891689Y-91661575D01*
X82073678Y-91586193D01*
X82237463Y-91476755D01*
X82376751Y-91337467D01*
X82486189Y-91173682D01*
X82561571Y-90991693D01*
X82600000Y-90798495D01*
X82600000Y-90601513D01*
X82561571Y-90408315D01*
X82486189Y-90226326D01*
X82469607Y-90201508D01*
X114400000Y-90201508D01*
X114400000Y-90398490D01*
X114438429Y-90591688D01*
X114513811Y-90773677D01*
X114623249Y-90937462D01*
X114762537Y-91076750D01*
X114926322Y-91186188D01*
X115108311Y-91261570D01*
X115301509Y-91299999D01*
X115498491Y-91299999D01*
X115691689Y-91261570D01*
X115873678Y-91186188D01*
X116037463Y-91076750D01*
X116176751Y-90937462D01*
X116286189Y-90773677D01*
X116361571Y-90591688D01*
X116400000Y-90398490D01*
X116400000Y-90201508D01*
X116361571Y-90008310D01*
X116286189Y-89826321D01*
X116176751Y-89662536D01*
X116125000Y-89610785D01*
X116125000Y-78039218D01*
X116226751Y-77937467D01*
X116336189Y-77773682D01*
X116411571Y-77591693D01*
X116450000Y-77398495D01*
X116450000Y-77201513D01*
X116411571Y-77008315D01*
X116336189Y-76826326D01*
X116226751Y-76662541D01*
X116087463Y-76523253D01*
X115923678Y-76413815D01*
X115741689Y-76338433D01*
X115548491Y-76300004D01*
X115351509Y-76300004D01*
X115158311Y-76338433D01*
X114976322Y-76413815D01*
X114812537Y-76523253D01*
X114673249Y-76662541D01*
X114563811Y-76826326D01*
X114488429Y-77008315D01*
X114450000Y-77201513D01*
X114450000Y-77398495D01*
X114488429Y-77591693D01*
X114563811Y-77773682D01*
X114673249Y-77937467D01*
X114675001Y-77939219D01*
X114675000Y-89610785D01*
X114623249Y-89662536D01*
X114513811Y-89826321D01*
X114438429Y-90008310D01*
X114400000Y-90201508D01*
X82469607Y-90201508D01*
X82376751Y-90062541D01*
X82237463Y-89923253D01*
X82073678Y-89813815D01*
X81891689Y-89738433D01*
X81698491Y-89700004D01*
X81501509Y-89700004D01*
X81308311Y-89738433D01*
X81225000Y-89772941D01*
X81225000Y-89075624D01*
X81712965Y-88587660D01*
X81786151Y-88587660D01*
X81979349Y-88549231D01*
X82161338Y-88473849D01*
X82325123Y-88364411D01*
X82464411Y-88225123D01*
X82573849Y-88061338D01*
X82649231Y-87879349D01*
X82687660Y-87686151D01*
X82687660Y-87489169D01*
X82649231Y-87295971D01*
X82573849Y-87113982D01*
X82464411Y-86950197D01*
X82325123Y-86810909D01*
X82161338Y-86701471D01*
X81979349Y-86626089D01*
X81786151Y-86587660D01*
X81589169Y-86587660D01*
X81395971Y-86626089D01*
X81213982Y-86701471D01*
X81125085Y-86760871D01*
X81100123Y-86735909D01*
X80936338Y-86626471D01*
X80754349Y-86551089D01*
X80561151Y-86512660D01*
X80364169Y-86512660D01*
X80170971Y-86551089D01*
X79988982Y-86626471D01*
X79937658Y-86660765D01*
X79886336Y-86626473D01*
X79704347Y-86551091D01*
X79511149Y-86512662D01*
X79314167Y-86512662D01*
X79120969Y-86551091D01*
X78938980Y-86626473D01*
X78865803Y-86675368D01*
X78773676Y-86613811D01*
X78591687Y-86538429D01*
X78398489Y-86500000D01*
X78201507Y-86500000D01*
X78008309Y-86538429D01*
X77826320Y-86613811D01*
X77662535Y-86723249D01*
X77523247Y-86862537D01*
X77413809Y-87026322D01*
X77338427Y-87208311D01*
X77299998Y-87401509D01*
X77299998Y-87474696D01*
X77012524Y-87762170D01*
X76984868Y-87784867D01*
X76962172Y-87812522D01*
X76962170Y-87812524D01*
X76943322Y-87835491D01*
X76894269Y-87895262D01*
X76826947Y-88021211D01*
X76785491Y-88157874D01*
X76775000Y-88264392D01*
X76775000Y-88264401D01*
X76771494Y-88299998D01*
X40625000Y-88299998D01*
X40625000Y-85791659D01*
X84550000Y-85791659D01*
X84550000Y-86008341D01*
X84592273Y-86220858D01*
X84675193Y-86421045D01*
X84771375Y-86564990D01*
X84763803Y-86576322D01*
X84688421Y-86758311D01*
X84649992Y-86951509D01*
X84649992Y-87148491D01*
X84688421Y-87341689D01*
X84763803Y-87523678D01*
X84873241Y-87687463D01*
X85012529Y-87826751D01*
X85176314Y-87936189D01*
X85358303Y-88011571D01*
X85551501Y-88050000D01*
X85621859Y-88050000D01*
X86060675Y-88488817D01*
X86083438Y-88516554D01*
X86194139Y-88607403D01*
X86250377Y-88637463D01*
X86320435Y-88674910D01*
X86457474Y-88716480D01*
X86599992Y-88730517D01*
X86635700Y-88727000D01*
X89612786Y-88727000D01*
X89662537Y-88776751D01*
X89826322Y-88886189D01*
X90008311Y-88961571D01*
X90201509Y-89000000D01*
X90398491Y-89000000D01*
X90591689Y-88961571D01*
X90773678Y-88886189D01*
X90937463Y-88776751D01*
X91076751Y-88637463D01*
X91186189Y-88473678D01*
X91261571Y-88291689D01*
X91300000Y-88098491D01*
X91300000Y-87930171D01*
X91428105Y-87930171D01*
X91469846Y-87934282D01*
X91511587Y-87930171D01*
X91511595Y-87930171D01*
X91636475Y-87917871D01*
X91796701Y-87869268D01*
X91944365Y-87790339D01*
X92073794Y-87684119D01*
X92100412Y-87651685D01*
X92290410Y-87461687D01*
X92213813Y-87576322D01*
X92138431Y-87758311D01*
X92100002Y-87951509D01*
X92100002Y-88148491D01*
X92138431Y-88341689D01*
X92213813Y-88523678D01*
X92323251Y-88687463D01*
X92462539Y-88826751D01*
X92626324Y-88936189D01*
X92808313Y-89011571D01*
X93001511Y-89050000D01*
X93198493Y-89050000D01*
X93391691Y-89011571D01*
X93573680Y-88936189D01*
X93737465Y-88826751D01*
X93876753Y-88687463D01*
X93986191Y-88523678D01*
X94061573Y-88341689D01*
X94100002Y-88148491D01*
X94100002Y-87951509D01*
X94061573Y-87758311D01*
X93986191Y-87576322D01*
X93876753Y-87412537D01*
X93827002Y-87362786D01*
X93827002Y-87151130D01*
X94278133Y-86700000D01*
X94348491Y-86700000D01*
X94541689Y-86661571D01*
X94723678Y-86586189D01*
X94887463Y-86476751D01*
X95026751Y-86337463D01*
X95136189Y-86173678D01*
X95211571Y-85991689D01*
X95250000Y-85798491D01*
X95250000Y-85601509D01*
X95211571Y-85408311D01*
X95136189Y-85226322D01*
X95026751Y-85062537D01*
X94887463Y-84923249D01*
X94852326Y-84899771D01*
X95732133Y-84019965D01*
X95783232Y-84024998D01*
X95783239Y-84024998D01*
X95824980Y-84029109D01*
X95866721Y-84024998D01*
X96217393Y-84024998D01*
X96221818Y-84029423D01*
X96401982Y-84149805D01*
X96602169Y-84232725D01*
X96814686Y-84274998D01*
X97031368Y-84274998D01*
X97243885Y-84232725D01*
X97444072Y-84149805D01*
X97624236Y-84029423D01*
X97777452Y-83876207D01*
X97897834Y-83696043D01*
X97980754Y-83495856D01*
X98023027Y-83283339D01*
X98023027Y-83066657D01*
X97980754Y-82854140D01*
X97897834Y-82653953D01*
X97777452Y-82473789D01*
X97624236Y-82320573D01*
X97444072Y-82200191D01*
X97243885Y-82117271D01*
X97031368Y-82074998D01*
X96814686Y-82074998D01*
X96602169Y-82117271D01*
X96450000Y-82180301D01*
X96450000Y-79241744D01*
X96454111Y-79200003D01*
X96450000Y-79158262D01*
X96450000Y-79158255D01*
X96437700Y-79033375D01*
X96414148Y-78955731D01*
X96389097Y-78873149D01*
X96363101Y-78824515D01*
X96310168Y-78725485D01*
X96203948Y-78596056D01*
X96171766Y-78569645D01*
X97600000Y-78569645D01*
X97600000Y-78766627D01*
X97638429Y-78959825D01*
X97713811Y-79141814D01*
X97823249Y-79305599D01*
X97962537Y-79444887D01*
X98126322Y-79554325D01*
X98308311Y-79629707D01*
X98501509Y-79668136D01*
X98525000Y-79668136D01*
X98525001Y-84210785D01*
X98473249Y-84262537D01*
X98363811Y-84426322D01*
X98288429Y-84608311D01*
X98250000Y-84801509D01*
X98250000Y-84998491D01*
X98288429Y-85191689D01*
X98363811Y-85373678D01*
X98473249Y-85537463D01*
X98612537Y-85676751D01*
X98776322Y-85786189D01*
X98958311Y-85861571D01*
X99129256Y-85895574D01*
X99138429Y-85941689D01*
X99213811Y-86123678D01*
X99323249Y-86287463D01*
X99462537Y-86426751D01*
X99626322Y-86536189D01*
X99808311Y-86611571D01*
X100001509Y-86650000D01*
X100198491Y-86650000D01*
X100391689Y-86611571D01*
X100573678Y-86536189D01*
X100587585Y-86526897D01*
X100676322Y-86586189D01*
X100858311Y-86661571D01*
X101051509Y-86700000D01*
X101248491Y-86700000D01*
X101441689Y-86661571D01*
X101623678Y-86586189D01*
X101787463Y-86476751D01*
X101926751Y-86337463D01*
X102036189Y-86173678D01*
X102111571Y-85991689D01*
X102150000Y-85798491D01*
X102150000Y-85601509D01*
X102111571Y-85408311D01*
X102036189Y-85226322D01*
X101926751Y-85062537D01*
X101877000Y-85012786D01*
X101877000Y-81987214D01*
X101976751Y-81887463D01*
X102086189Y-81723678D01*
X102161571Y-81541689D01*
X102200000Y-81348491D01*
X102200000Y-81151509D01*
X102161571Y-80958311D01*
X102086189Y-80776322D01*
X101976751Y-80612537D01*
X101837463Y-80473249D01*
X101673678Y-80363811D01*
X101491689Y-80288429D01*
X101298491Y-80250000D01*
X101101509Y-80250000D01*
X101100000Y-80250300D01*
X101100000Y-80201509D01*
X101061571Y-80008311D01*
X100986189Y-79826322D01*
X100876751Y-79662537D01*
X100737463Y-79523249D01*
X100573678Y-79413811D01*
X100391689Y-79338429D01*
X100198491Y-79300000D01*
X100001509Y-79300000D01*
X99977196Y-79304836D01*
X99975000Y-79282539D01*
X99975000Y-79282529D01*
X99964509Y-79176011D01*
X99923053Y-79039348D01*
X99855731Y-78913399D01*
X99787830Y-78830661D01*
X99787823Y-78830654D01*
X99765131Y-78803004D01*
X99737482Y-78780313D01*
X99600000Y-78642831D01*
X99600000Y-78569645D01*
X99561571Y-78376447D01*
X99486189Y-78194458D01*
X99376751Y-78030673D01*
X99237463Y-77891385D01*
X99073678Y-77781947D01*
X98891689Y-77706565D01*
X98698491Y-77668136D01*
X98501509Y-77668136D01*
X98308311Y-77706565D01*
X98126322Y-77781947D01*
X97962537Y-77891385D01*
X97823249Y-78030673D01*
X97713811Y-78194458D01*
X97638429Y-78376447D01*
X97600000Y-78569645D01*
X96171766Y-78569645D01*
X96171519Y-78569443D01*
X94749996Y-77147920D01*
X94749996Y-77141659D01*
X94707723Y-76929142D01*
X94624803Y-76728955D01*
X94504421Y-76548791D01*
X94351205Y-76395575D01*
X94171041Y-76275193D01*
X93970854Y-76192273D01*
X93758337Y-76150000D01*
X93541655Y-76150000D01*
X93329138Y-76192273D01*
X93128951Y-76275193D01*
X92948787Y-76395575D01*
X92795571Y-76548791D01*
X92675189Y-76728955D01*
X92592269Y-76929142D01*
X92549996Y-77141659D01*
X92549996Y-77358341D01*
X92592269Y-77570858D01*
X92675189Y-77771045D01*
X92795571Y-77951209D01*
X92948787Y-78104425D01*
X93128951Y-78224807D01*
X93329138Y-78307727D01*
X93541655Y-78350000D01*
X93547916Y-78350000D01*
X94750001Y-79552086D01*
X94750000Y-82597936D01*
X91117766Y-86230171D01*
X87728614Y-86230171D01*
X87724189Y-86225746D01*
X87544025Y-86105364D01*
X87343838Y-86022444D01*
X87131321Y-85980171D01*
X87125061Y-85980171D01*
X86696198Y-85551309D01*
X86624807Y-85378955D01*
X86504425Y-85198791D01*
X86351209Y-85045575D01*
X86171045Y-84925193D01*
X85970858Y-84842273D01*
X85758341Y-84800000D01*
X85541659Y-84800000D01*
X85329142Y-84842273D01*
X85128955Y-84925193D01*
X84948791Y-85045575D01*
X84795575Y-85198791D01*
X84675193Y-85378955D01*
X84592273Y-85579142D01*
X84550000Y-85791659D01*
X40625000Y-85791659D01*
X40625000Y-76827489D01*
X52600000Y-76827489D01*
X52600000Y-77152511D01*
X52663408Y-77471287D01*
X52787789Y-77771568D01*
X52968361Y-78041814D01*
X53198186Y-78271639D01*
X53468432Y-78452211D01*
X53768713Y-78576592D01*
X54087489Y-78640000D01*
X54412511Y-78640000D01*
X54731287Y-78576592D01*
X55031568Y-78452211D01*
X55301814Y-78271639D01*
X55531639Y-78041814D01*
X55712211Y-77771568D01*
X55836592Y-77471287D01*
X55900000Y-77152511D01*
X55900000Y-76827489D01*
X55836592Y-76508713D01*
X55712211Y-76208432D01*
X55556237Y-75975000D01*
X55645275Y-75975000D01*
X55930242Y-75918317D01*
X56198675Y-75807128D01*
X56440258Y-75645707D01*
X56543926Y-75542039D01*
X59170094Y-75542039D01*
X59254647Y-75781085D01*
X59518897Y-75901881D01*
X59801635Y-75968803D01*
X59954225Y-75974308D01*
X59797789Y-76208432D01*
X59673408Y-76508713D01*
X59610000Y-76827489D01*
X59610000Y-77152511D01*
X59673408Y-77471287D01*
X59797789Y-77771568D01*
X59978361Y-78041814D01*
X60208186Y-78271639D01*
X60478432Y-78452211D01*
X60778713Y-78576592D01*
X61097489Y-78640000D01*
X61422511Y-78640000D01*
X61741287Y-78576592D01*
X62041568Y-78452211D01*
X62311814Y-78271639D01*
X62541639Y-78041814D01*
X62722211Y-77771568D01*
X62846592Y-77471287D01*
X62870417Y-77351509D01*
X82050000Y-77351509D01*
X82050000Y-77548491D01*
X82088429Y-77741689D01*
X82163811Y-77923678D01*
X82273249Y-78087463D01*
X82412537Y-78226751D01*
X82576322Y-78336189D01*
X82758311Y-78411571D01*
X82951509Y-78450000D01*
X83148491Y-78450000D01*
X83341689Y-78411571D01*
X83523678Y-78336189D01*
X83687463Y-78226751D01*
X83739214Y-78175000D01*
X84110786Y-78175000D01*
X84162537Y-78226751D01*
X84326322Y-78336189D01*
X84508311Y-78411571D01*
X84701509Y-78450000D01*
X84898491Y-78450000D01*
X85091689Y-78411571D01*
X85273678Y-78336189D01*
X85437463Y-78226751D01*
X85576751Y-78087463D01*
X85686189Y-77923678D01*
X85761571Y-77741689D01*
X85800000Y-77548491D01*
X85800000Y-77351509D01*
X85761571Y-77158311D01*
X85686189Y-76976322D01*
X85576751Y-76812537D01*
X85437463Y-76673249D01*
X85273678Y-76563811D01*
X85091689Y-76488429D01*
X84898491Y-76450000D01*
X84701509Y-76450000D01*
X84508311Y-76488429D01*
X84326322Y-76563811D01*
X84162537Y-76673249D01*
X84110786Y-76725000D01*
X83739214Y-76725000D01*
X83687463Y-76673249D01*
X83523678Y-76563811D01*
X83341689Y-76488429D01*
X83148491Y-76450000D01*
X82951509Y-76450000D01*
X82758311Y-76488429D01*
X82576322Y-76563811D01*
X82412537Y-76673249D01*
X82273249Y-76812537D01*
X82163811Y-76976322D01*
X82088429Y-77158311D01*
X82050000Y-77351509D01*
X62870417Y-77351509D01*
X62910000Y-77152511D01*
X62910000Y-76827489D01*
X62846592Y-76508713D01*
X62722211Y-76208432D01*
X62541639Y-75938186D01*
X62311814Y-75708361D01*
X62041568Y-75527789D01*
X61741287Y-75403408D01*
X61422511Y-75340000D01*
X61097489Y-75340000D01*
X61059660Y-75347525D01*
X61042040Y-75329905D01*
X61281085Y-75245353D01*
X61401881Y-74981103D01*
X61468803Y-74698365D01*
X61479279Y-74408005D01*
X61432908Y-74121179D01*
X61331471Y-73848912D01*
X61281085Y-73754647D01*
X61250764Y-73743922D01*
X76400000Y-73743922D01*
X76400000Y-74256078D01*
X76499917Y-74758392D01*
X76695910Y-75231562D01*
X76980448Y-75657403D01*
X77342597Y-76019552D01*
X77768438Y-76304090D01*
X78241608Y-76500083D01*
X78743922Y-76600000D01*
X79256078Y-76600000D01*
X79758392Y-76500083D01*
X80231562Y-76304090D01*
X80657403Y-76019552D01*
X81019552Y-75657403D01*
X81304090Y-75231562D01*
X81500083Y-74758392D01*
X81600000Y-74256078D01*
X81600000Y-73743922D01*
X81500083Y-73241608D01*
X81304090Y-72768438D01*
X81259370Y-72701509D01*
X87200000Y-72701509D01*
X87200000Y-72898491D01*
X87238429Y-73091689D01*
X87313811Y-73273678D01*
X87423249Y-73437463D01*
X87562537Y-73576751D01*
X87726322Y-73686189D01*
X87908311Y-73761571D01*
X88101509Y-73800000D01*
X88298491Y-73800000D01*
X88491689Y-73761571D01*
X88673678Y-73686189D01*
X88837463Y-73576751D01*
X88976751Y-73437463D01*
X89086189Y-73273678D01*
X89161571Y-73091689D01*
X89200000Y-72898491D01*
X89200000Y-72851509D01*
X90200000Y-72851509D01*
X90200000Y-73048491D01*
X90238429Y-73241689D01*
X90313811Y-73423678D01*
X90423249Y-73587463D01*
X90562537Y-73726751D01*
X90726322Y-73836189D01*
X90908311Y-73911571D01*
X91101509Y-73950000D01*
X91298491Y-73950000D01*
X91491689Y-73911571D01*
X91673678Y-73836189D01*
X91837463Y-73726751D01*
X91885533Y-73678681D01*
X91889856Y-73700415D01*
X91962134Y-73874910D01*
X91919836Y-73938213D01*
X91844454Y-74120202D01*
X91806025Y-74313400D01*
X91806025Y-74510382D01*
X91844454Y-74703580D01*
X91919836Y-74885569D01*
X92029274Y-75049354D01*
X92168562Y-75188642D01*
X92332347Y-75298080D01*
X92514336Y-75373462D01*
X92707534Y-75411891D01*
X92904516Y-75411891D01*
X93097714Y-75373462D01*
X93279703Y-75298080D01*
X93443488Y-75188642D01*
X93495239Y-75136891D01*
X94602512Y-75136891D01*
X94638109Y-75140397D01*
X94673706Y-75136891D01*
X94673716Y-75136891D01*
X94780234Y-75126400D01*
X94916897Y-75084944D01*
X95042846Y-75017622D01*
X95153241Y-74927023D01*
X95175941Y-74899363D01*
X96600305Y-73475000D01*
X98305273Y-73475000D01*
X98300000Y-73501509D01*
X98300000Y-73574696D01*
X97912524Y-73962172D01*
X97884868Y-73984869D01*
X97862172Y-74012524D01*
X97862170Y-74012526D01*
X97840912Y-74038429D01*
X97794269Y-74095264D01*
X97726947Y-74221213D01*
X97685491Y-74357876D01*
X97675000Y-74464394D01*
X97675000Y-74464403D01*
X97671494Y-74500000D01*
X97675000Y-74535597D01*
X97675000Y-74560786D01*
X97623249Y-74612537D01*
X97513811Y-74776322D01*
X97438429Y-74958311D01*
X97400000Y-75151509D01*
X97400000Y-75348491D01*
X97438429Y-75541689D01*
X97513811Y-75723678D01*
X97623249Y-75887463D01*
X97762537Y-76026751D01*
X97926322Y-76136189D01*
X98108311Y-76211571D01*
X98301509Y-76250000D01*
X98498491Y-76250000D01*
X98691689Y-76211571D01*
X98873678Y-76136189D01*
X99037463Y-76026751D01*
X99176751Y-75887463D01*
X99286189Y-75723678D01*
X99361571Y-75541689D01*
X99375009Y-75474132D01*
X99375009Y-75802740D01*
X99323257Y-75854492D01*
X99213819Y-76018277D01*
X99138437Y-76200266D01*
X99100008Y-76393464D01*
X99100008Y-76590446D01*
X99138437Y-76783644D01*
X99213819Y-76965633D01*
X99323257Y-77129418D01*
X99462545Y-77268706D01*
X99626330Y-77378144D01*
X99769130Y-77437294D01*
X99802653Y-77605826D01*
X99878035Y-77787815D01*
X99987473Y-77951600D01*
X100126761Y-78090888D01*
X100290546Y-78200326D01*
X100472535Y-78275708D01*
X100665733Y-78314137D01*
X100862715Y-78314137D01*
X101055913Y-78275708D01*
X101237902Y-78200326D01*
X101401687Y-78090888D01*
X101501696Y-77990880D01*
X101637567Y-78126751D01*
X101801352Y-78236189D01*
X101983341Y-78311571D01*
X102176539Y-78350000D01*
X102373521Y-78350000D01*
X102566719Y-78311571D01*
X102748708Y-78236189D01*
X102912493Y-78126751D01*
X103051781Y-77987463D01*
X103161219Y-77823678D01*
X103236601Y-77641689D01*
X103275030Y-77448491D01*
X103275030Y-77251509D01*
X103236601Y-77058311D01*
X103161219Y-76876322D01*
X103051781Y-76712537D01*
X103000030Y-76660786D01*
X103000030Y-75691659D01*
X111299998Y-75691659D01*
X111299998Y-75908341D01*
X111342271Y-76120858D01*
X111425191Y-76321045D01*
X111545573Y-76501209D01*
X111674999Y-76630635D01*
X111674998Y-77519366D01*
X111545573Y-77648791D01*
X111425191Y-77828955D01*
X111342271Y-78029142D01*
X111299998Y-78241659D01*
X111299998Y-78458341D01*
X111342271Y-78670858D01*
X111425191Y-78871045D01*
X111545573Y-79051209D01*
X111698789Y-79204425D01*
X111878953Y-79324807D01*
X112079140Y-79407727D01*
X112291657Y-79450000D01*
X112508339Y-79450000D01*
X112720856Y-79407727D01*
X112921043Y-79324807D01*
X113101207Y-79204425D01*
X113254423Y-79051209D01*
X113374805Y-78871045D01*
X113457725Y-78670858D01*
X113499998Y-78458341D01*
X113499998Y-78241659D01*
X113457725Y-78029142D01*
X113374805Y-77828955D01*
X113254423Y-77648791D01*
X113124998Y-77519366D01*
X113124998Y-76630634D01*
X113254423Y-76501209D01*
X113374805Y-76321045D01*
X113457725Y-76120858D01*
X113499998Y-75908341D01*
X113499998Y-75801509D01*
X129400000Y-75801509D01*
X129400000Y-75998491D01*
X129438429Y-76191689D01*
X129513811Y-76373678D01*
X129623249Y-76537463D01*
X129675000Y-76589214D01*
X129675001Y-89910785D01*
X129623249Y-89962537D01*
X129513811Y-90126322D01*
X129438429Y-90308311D01*
X129400000Y-90501509D01*
X129400000Y-90698491D01*
X129438429Y-90891689D01*
X129513811Y-91073678D01*
X129623249Y-91237463D01*
X129762537Y-91376751D01*
X129926322Y-91486189D01*
X130108311Y-91561571D01*
X130301509Y-91600000D01*
X130498491Y-91600000D01*
X130691689Y-91561571D01*
X130873678Y-91486189D01*
X131037463Y-91376751D01*
X131176751Y-91237463D01*
X131286189Y-91073678D01*
X131361571Y-90891689D01*
X131400000Y-90698491D01*
X131400000Y-90501509D01*
X131361571Y-90308311D01*
X131286189Y-90126322D01*
X131176751Y-89962537D01*
X131125000Y-89910786D01*
X131125000Y-89034782D01*
X131201509Y-89050000D01*
X131398491Y-89050000D01*
X131591689Y-89011571D01*
X131773678Y-88936189D01*
X131937463Y-88826751D01*
X132076751Y-88687463D01*
X132186189Y-88523678D01*
X132195997Y-88500000D01*
X132298491Y-88500000D01*
X132491689Y-88461571D01*
X132673678Y-88386189D01*
X132837463Y-88276751D01*
X132976751Y-88137463D01*
X133086189Y-87973678D01*
X133161571Y-87791689D01*
X133200000Y-87598491D01*
X133200000Y-87401509D01*
X133161571Y-87208311D01*
X133086189Y-87026322D01*
X132976751Y-86862537D01*
X132927000Y-86812786D01*
X132927000Y-76587224D01*
X132976761Y-76537463D01*
X133067602Y-76401509D01*
X134700000Y-76401509D01*
X134700000Y-76598491D01*
X134738429Y-76791689D01*
X134813811Y-76973678D01*
X134850000Y-77027839D01*
X134850001Y-77822166D01*
X134813815Y-77876322D01*
X134738433Y-78058311D01*
X134700004Y-78251509D01*
X134700004Y-78448491D01*
X134738433Y-78641689D01*
X134813815Y-78823678D01*
X134923253Y-78987463D01*
X135062541Y-79126751D01*
X135226326Y-79236189D01*
X135408315Y-79311571D01*
X135601513Y-79350000D01*
X135798495Y-79350000D01*
X135991693Y-79311571D01*
X136173682Y-79236189D01*
X136337467Y-79126751D01*
X136476755Y-78987463D01*
X136586193Y-78823678D01*
X136661575Y-78641689D01*
X136700004Y-78448491D01*
X136700004Y-78251509D01*
X136661575Y-78058311D01*
X136586193Y-77876322D01*
X136550000Y-77822156D01*
X136550000Y-77027838D01*
X136586189Y-76973678D01*
X136661571Y-76791689D01*
X136700000Y-76598491D01*
X136700000Y-76501519D01*
X136900000Y-76501519D01*
X136900000Y-76698501D01*
X136938429Y-76891699D01*
X137013811Y-77073688D01*
X137123249Y-77237473D01*
X137173000Y-77287224D01*
X137173001Y-87612785D01*
X137123249Y-87662537D01*
X137013811Y-87826322D01*
X136938429Y-88008311D01*
X136900000Y-88201509D01*
X136900000Y-88398491D01*
X136938429Y-88591689D01*
X137013811Y-88773678D01*
X137123249Y-88937463D01*
X137262537Y-89076751D01*
X137426322Y-89186189D01*
X137608311Y-89261571D01*
X137800000Y-89299700D01*
X137800000Y-89308341D01*
X137842273Y-89520858D01*
X137925193Y-89721045D01*
X138045575Y-89901209D01*
X138198791Y-90054425D01*
X138378955Y-90174807D01*
X138579142Y-90257727D01*
X138791659Y-90300000D01*
X139008341Y-90300000D01*
X139220858Y-90257727D01*
X139421045Y-90174807D01*
X139601209Y-90054425D01*
X139754425Y-89901209D01*
X139874807Y-89721045D01*
X139957727Y-89520858D01*
X140000000Y-89308341D01*
X140000000Y-89091659D01*
X139957727Y-88879142D01*
X139874807Y-88678955D01*
X139754425Y-88498791D01*
X139601209Y-88345575D01*
X139525000Y-88294654D01*
X139525000Y-88291659D01*
X140400000Y-88291659D01*
X140400000Y-88508341D01*
X140442273Y-88720858D01*
X140525193Y-88921045D01*
X140645575Y-89101209D01*
X140798791Y-89254425D01*
X140978955Y-89374807D01*
X141179142Y-89457727D01*
X141391659Y-89500000D01*
X141608341Y-89500000D01*
X141820858Y-89457727D01*
X142021045Y-89374807D01*
X142201209Y-89254425D01*
X142354425Y-89101209D01*
X142474807Y-88921045D01*
X142557727Y-88720858D01*
X142600000Y-88508341D01*
X142600000Y-88291659D01*
X142557727Y-88079142D01*
X142474807Y-87878955D01*
X142354425Y-87698791D01*
X142225000Y-87569366D01*
X142225000Y-82070000D01*
X180547097Y-82070000D01*
X180547097Y-83770000D01*
X180558682Y-83887621D01*
X180592990Y-84000721D01*
X180648704Y-84104955D01*
X180723683Y-84196317D01*
X180815045Y-84271296D01*
X180919279Y-84327010D01*
X181032379Y-84361318D01*
X181046665Y-84362725D01*
X180873711Y-84535679D01*
X180715027Y-84773167D01*
X180605723Y-85037051D01*
X180550000Y-85317187D01*
X180550000Y-85602813D01*
X180605723Y-85882949D01*
X180715027Y-86146833D01*
X180873711Y-86384321D01*
X181075679Y-86586289D01*
X181290758Y-86730000D01*
X181075679Y-86873711D01*
X180873711Y-87075679D01*
X180715027Y-87313167D01*
X180605723Y-87577051D01*
X180550000Y-87857187D01*
X180550000Y-88142813D01*
X180605723Y-88422949D01*
X180715027Y-88686833D01*
X180873711Y-88924321D01*
X181075679Y-89126289D01*
X181290758Y-89270000D01*
X181075679Y-89413711D01*
X180873711Y-89615679D01*
X180715027Y-89853167D01*
X180605723Y-90117051D01*
X180550000Y-90397187D01*
X180550000Y-90682813D01*
X180605723Y-90962949D01*
X180715027Y-91226833D01*
X180873711Y-91464321D01*
X181075679Y-91666289D01*
X181299950Y-91816141D01*
X181118543Y-91928674D01*
X180910867Y-92122760D01*
X180745046Y-92353632D01*
X180627452Y-92612418D01*
X180599000Y-92706234D01*
X180708683Y-92930000D01*
X181850000Y-92930000D01*
X181850000Y-92910000D01*
X182150000Y-92910000D01*
X182150000Y-92930000D01*
X183291317Y-92930000D01*
X183401000Y-92706234D01*
X183372548Y-92612418D01*
X183254954Y-92353632D01*
X183089133Y-92122760D01*
X182881457Y-91928674D01*
X182700050Y-91816141D01*
X182924321Y-91666289D01*
X183126289Y-91464321D01*
X183284973Y-91226833D01*
X183394277Y-90962949D01*
X183450000Y-90682813D01*
X183450000Y-90397187D01*
X183394277Y-90117051D01*
X183284973Y-89853167D01*
X183126289Y-89615679D01*
X182924321Y-89413711D01*
X182709242Y-89270000D01*
X182924321Y-89126289D01*
X183126289Y-88924321D01*
X183284973Y-88686833D01*
X183394277Y-88422949D01*
X183450000Y-88142813D01*
X183450000Y-87857187D01*
X183394277Y-87577051D01*
X183284973Y-87313167D01*
X183126289Y-87075679D01*
X182924321Y-86873711D01*
X182709242Y-86730000D01*
X182924321Y-86586289D01*
X183126289Y-86384321D01*
X183284973Y-86146833D01*
X183394277Y-85882949D01*
X183450000Y-85602813D01*
X183450000Y-85317187D01*
X183394277Y-85037051D01*
X183284973Y-84773167D01*
X183126289Y-84535679D01*
X182953335Y-84362725D01*
X182967621Y-84361318D01*
X183080721Y-84327010D01*
X183184955Y-84271296D01*
X183276317Y-84196317D01*
X183351296Y-84104955D01*
X183407010Y-84000721D01*
X183441318Y-83887621D01*
X183452903Y-83770000D01*
X183452903Y-82070000D01*
X183441318Y-81952379D01*
X183407010Y-81839279D01*
X183351296Y-81735045D01*
X183276317Y-81643683D01*
X183184955Y-81568704D01*
X183080721Y-81512990D01*
X182967621Y-81478682D01*
X182850000Y-81467097D01*
X181150000Y-81467097D01*
X181032379Y-81478682D01*
X180919279Y-81512990D01*
X180815045Y-81568704D01*
X180723683Y-81643683D01*
X180648704Y-81735045D01*
X180592990Y-81839279D01*
X180558682Y-81952379D01*
X180547097Y-82070000D01*
X142225000Y-82070000D01*
X142225000Y-77889216D01*
X142276751Y-77837465D01*
X142386189Y-77673680D01*
X142461571Y-77491691D01*
X142500000Y-77298493D01*
X142500000Y-77101511D01*
X142461571Y-76908313D01*
X142386189Y-76726324D01*
X142276751Y-76562539D01*
X142137463Y-76423251D01*
X141973678Y-76313813D01*
X141791689Y-76238431D01*
X141598491Y-76200002D01*
X141401509Y-76200002D01*
X141208311Y-76238431D01*
X141026322Y-76313813D01*
X140862537Y-76423251D01*
X140723249Y-76562539D01*
X140613811Y-76726324D01*
X140538429Y-76908313D01*
X140500000Y-77101511D01*
X140500000Y-77298493D01*
X140538429Y-77491691D01*
X140613811Y-77673680D01*
X140723249Y-77837465D01*
X140775001Y-77889217D01*
X140775000Y-87569366D01*
X140645575Y-87698791D01*
X140525193Y-87878955D01*
X140442273Y-88079142D01*
X140400000Y-88291659D01*
X139525000Y-88291659D01*
X139525000Y-76389214D01*
X139576751Y-76337463D01*
X139686189Y-76173678D01*
X139761571Y-75991689D01*
X139800000Y-75798491D01*
X139800000Y-75601509D01*
X139761571Y-75408311D01*
X139686189Y-75226322D01*
X139576751Y-75062537D01*
X139437463Y-74923249D01*
X139273678Y-74813811D01*
X139091689Y-74738429D01*
X138898491Y-74700000D01*
X138701509Y-74700000D01*
X138508311Y-74738429D01*
X138326322Y-74813811D01*
X138162537Y-74923249D01*
X138023249Y-75062537D01*
X137913811Y-75226322D01*
X137838429Y-75408311D01*
X137800248Y-75600261D01*
X137608311Y-75638439D01*
X137426322Y-75713821D01*
X137262537Y-75823259D01*
X137123249Y-75962547D01*
X137013811Y-76126332D01*
X136938429Y-76308321D01*
X136900000Y-76501519D01*
X136700000Y-76501519D01*
X136700000Y-76401509D01*
X136661571Y-76208311D01*
X136586189Y-76026322D01*
X136476751Y-75862537D01*
X136337463Y-75723249D01*
X136173678Y-75613811D01*
X135991689Y-75538429D01*
X135798491Y-75500000D01*
X135601509Y-75500000D01*
X135408311Y-75538429D01*
X135226322Y-75613811D01*
X135062537Y-75723249D01*
X134923249Y-75862537D01*
X134813811Y-76026322D01*
X134738429Y-76208311D01*
X134700000Y-76401509D01*
X133067602Y-76401509D01*
X133086199Y-76373678D01*
X133161581Y-76191689D01*
X133200010Y-75998491D01*
X133200010Y-75801509D01*
X133161581Y-75608311D01*
X133086199Y-75426322D01*
X132976761Y-75262537D01*
X132837473Y-75123249D01*
X132673688Y-75013811D01*
X132491699Y-74938429D01*
X132299749Y-74900248D01*
X132261571Y-74708311D01*
X132186189Y-74526322D01*
X132076751Y-74362537D01*
X131937463Y-74223249D01*
X131773678Y-74113811D01*
X131591689Y-74038429D01*
X131398491Y-74000000D01*
X131201509Y-74000000D01*
X131008311Y-74038429D01*
X130826322Y-74113811D01*
X130662537Y-74223249D01*
X130523249Y-74362537D01*
X130413811Y-74526322D01*
X130338429Y-74708311D01*
X130300250Y-74900250D01*
X130108311Y-74938429D01*
X129926322Y-75013811D01*
X129762537Y-75123249D01*
X129623249Y-75262537D01*
X129513811Y-75426322D01*
X129438429Y-75608311D01*
X129400000Y-75801509D01*
X113499998Y-75801509D01*
X113499998Y-75691659D01*
X113457725Y-75479142D01*
X113374805Y-75278955D01*
X113254423Y-75098791D01*
X113101207Y-74945575D01*
X112921043Y-74825193D01*
X112720856Y-74742273D01*
X112508339Y-74700000D01*
X112291657Y-74700000D01*
X112079140Y-74742273D01*
X111878953Y-74825193D01*
X111698789Y-74945575D01*
X111545573Y-75098791D01*
X111425191Y-75278955D01*
X111342271Y-75479142D01*
X111299998Y-75691659D01*
X103000030Y-75691659D01*
X103000030Y-72360627D01*
X103003536Y-72325030D01*
X103000030Y-72289433D01*
X103000030Y-72289423D01*
X102989539Y-72182905D01*
X102948083Y-72046242D01*
X102880761Y-71920293D01*
X102852216Y-71885511D01*
X102812860Y-71837555D01*
X102812853Y-71837548D01*
X102790161Y-71809898D01*
X102762512Y-71787207D01*
X102125305Y-71150000D01*
X180547097Y-71150000D01*
X180547097Y-72850000D01*
X180558682Y-72967621D01*
X180592990Y-73080721D01*
X180648704Y-73184955D01*
X180723683Y-73276317D01*
X180815045Y-73351296D01*
X180919279Y-73407010D01*
X181032379Y-73441318D01*
X181046665Y-73442725D01*
X180873711Y-73615679D01*
X180715027Y-73853167D01*
X180605723Y-74117051D01*
X180550000Y-74397187D01*
X180550000Y-74682813D01*
X180605723Y-74962949D01*
X180715027Y-75226833D01*
X180873711Y-75464321D01*
X181075679Y-75666289D01*
X181313167Y-75824973D01*
X181577051Y-75934277D01*
X181857187Y-75990000D01*
X182142813Y-75990000D01*
X182422949Y-75934277D01*
X182686833Y-75824973D01*
X182924321Y-75666289D01*
X183126289Y-75464321D01*
X183284973Y-75226833D01*
X183394277Y-74962949D01*
X183450000Y-74682813D01*
X183450000Y-74397187D01*
X183394277Y-74117051D01*
X183284973Y-73853167D01*
X183126289Y-73615679D01*
X182953335Y-73442725D01*
X182967621Y-73441318D01*
X183080721Y-73407010D01*
X183184955Y-73351296D01*
X183276317Y-73276317D01*
X183351296Y-73184955D01*
X183407010Y-73080721D01*
X183441318Y-72967621D01*
X183452903Y-72850000D01*
X183452903Y-71150000D01*
X183441318Y-71032379D01*
X183407010Y-70919279D01*
X183351296Y-70815045D01*
X183276317Y-70723683D01*
X183184955Y-70648704D01*
X183080721Y-70592990D01*
X182967621Y-70558682D01*
X182850000Y-70547097D01*
X181150000Y-70547097D01*
X181032379Y-70558682D01*
X180919279Y-70592990D01*
X180815045Y-70648704D01*
X180723683Y-70723683D01*
X180648704Y-70815045D01*
X180592990Y-70919279D01*
X180558682Y-71032379D01*
X180547097Y-71150000D01*
X102125305Y-71150000D01*
X100937832Y-69962528D01*
X100915132Y-69934868D01*
X100804737Y-69844269D01*
X100678788Y-69776947D01*
X100542125Y-69735491D01*
X100435607Y-69725000D01*
X100435597Y-69725000D01*
X100400000Y-69721494D01*
X100364403Y-69725000D01*
X95335597Y-69725000D01*
X95300000Y-69721494D01*
X95264403Y-69725000D01*
X95264393Y-69725000D01*
X95157875Y-69735491D01*
X95021212Y-69776947D01*
X94895263Y-69844269D01*
X94812525Y-69912170D01*
X94812523Y-69912172D01*
X94784868Y-69934868D01*
X94762172Y-69962523D01*
X93599696Y-71125000D01*
X91735597Y-71125000D01*
X91700000Y-71121494D01*
X91664403Y-71125000D01*
X91664393Y-71125000D01*
X91557875Y-71135491D01*
X91421212Y-71176947D01*
X91295263Y-71244269D01*
X91212525Y-71312170D01*
X91212523Y-71312172D01*
X91184868Y-71334868D01*
X91162172Y-71362523D01*
X90712523Y-71812173D01*
X90684869Y-71834868D01*
X90662173Y-71862523D01*
X90662170Y-71862526D01*
X90594269Y-71945264D01*
X90569221Y-71992125D01*
X90526947Y-72071212D01*
X90485491Y-72207875D01*
X90480857Y-72254929D01*
X90423249Y-72312537D01*
X90313811Y-72476322D01*
X90238429Y-72658311D01*
X90200000Y-72851509D01*
X89200000Y-72851509D01*
X89200000Y-72825304D01*
X90587477Y-71437828D01*
X90615132Y-71415132D01*
X90675048Y-71342125D01*
X90705731Y-71304737D01*
X90773053Y-71178788D01*
X90777384Y-71164509D01*
X90814509Y-71042125D01*
X90825000Y-70935607D01*
X90825000Y-70935597D01*
X90828506Y-70900000D01*
X90825000Y-70864403D01*
X90825000Y-70702903D01*
X90950000Y-70702903D01*
X91067621Y-70691318D01*
X91180721Y-70657010D01*
X91284955Y-70601296D01*
X91376317Y-70526317D01*
X91451296Y-70434955D01*
X91507010Y-70330721D01*
X91541318Y-70217621D01*
X91552903Y-70100000D01*
X91552903Y-68400000D01*
X91541318Y-68282379D01*
X91507010Y-68169279D01*
X91451296Y-68065045D01*
X91376317Y-67973683D01*
X91284955Y-67898704D01*
X91180721Y-67842990D01*
X91067621Y-67808682D01*
X90950000Y-67797097D01*
X89250000Y-67797097D01*
X89132379Y-67808682D01*
X89019279Y-67842990D01*
X88915045Y-67898704D01*
X88823683Y-67973683D01*
X88748704Y-68065045D01*
X88692990Y-68169279D01*
X88658682Y-68282379D01*
X88656024Y-68309368D01*
X88517240Y-68160867D01*
X88286368Y-67995046D01*
X88027582Y-67877452D01*
X87933766Y-67849000D01*
X87710000Y-67958683D01*
X87710000Y-69100000D01*
X87730000Y-69100000D01*
X87730000Y-69400000D01*
X87710000Y-69400000D01*
X87710000Y-70541317D01*
X87933766Y-70651000D01*
X88027582Y-70622548D01*
X88286368Y-70504954D01*
X88517240Y-70339133D01*
X88656024Y-70190632D01*
X88658682Y-70217621D01*
X88692990Y-70330721D01*
X88748704Y-70434955D01*
X88823683Y-70526317D01*
X88915045Y-70601296D01*
X89019279Y-70657010D01*
X89132379Y-70691318D01*
X89250000Y-70702903D01*
X89271792Y-70702903D01*
X88174696Y-71800000D01*
X88101509Y-71800000D01*
X87908311Y-71838429D01*
X87726322Y-71913811D01*
X87562537Y-72023249D01*
X87423249Y-72162537D01*
X87313811Y-72326322D01*
X87238429Y-72508311D01*
X87200000Y-72701509D01*
X81259370Y-72701509D01*
X81019552Y-72342597D01*
X80657403Y-71980448D01*
X80231562Y-71695910D01*
X79758392Y-71499917D01*
X79256078Y-71400000D01*
X78743922Y-71400000D01*
X78241608Y-71499917D01*
X77768438Y-71695910D01*
X77342597Y-71980448D01*
X76980448Y-72342597D01*
X76695910Y-72768438D01*
X76499917Y-73241608D01*
X76400000Y-73743922D01*
X61250764Y-73743922D01*
X61042039Y-73670094D01*
X60212132Y-74500000D01*
X60226275Y-74514142D01*
X60014142Y-74726275D01*
X60000000Y-74712132D01*
X59170094Y-75542039D01*
X56543926Y-75542039D01*
X56645707Y-75440258D01*
X56807128Y-75198675D01*
X56918317Y-74930242D01*
X56975000Y-74645275D01*
X56975000Y-74591995D01*
X58520721Y-74591995D01*
X58567092Y-74878821D01*
X58668529Y-75151088D01*
X58718915Y-75245353D01*
X58957961Y-75329906D01*
X59787868Y-74500000D01*
X58957961Y-73670094D01*
X58718915Y-73754647D01*
X58598119Y-74018897D01*
X58531197Y-74301635D01*
X58520721Y-74591995D01*
X56975000Y-74591995D01*
X56975000Y-74354725D01*
X56918317Y-74069758D01*
X56807128Y-73801325D01*
X56645707Y-73559742D01*
X56543926Y-73457961D01*
X59170094Y-73457961D01*
X60000000Y-74287868D01*
X60829906Y-73457961D01*
X60745353Y-73218915D01*
X60481103Y-73098119D01*
X60198365Y-73031197D01*
X59908005Y-73020721D01*
X59621179Y-73067092D01*
X59348912Y-73168529D01*
X59254647Y-73218915D01*
X59170094Y-73457961D01*
X56543926Y-73457961D01*
X56440258Y-73354293D01*
X56198675Y-73192872D01*
X55930242Y-73081683D01*
X55645275Y-73025000D01*
X55354725Y-73025000D01*
X55069758Y-73081683D01*
X54801325Y-73192872D01*
X54559742Y-73354293D01*
X54354293Y-73559742D01*
X54192872Y-73801325D01*
X54081683Y-74069758D01*
X54025000Y-74354725D01*
X54025000Y-74645275D01*
X54081683Y-74930242D01*
X54192872Y-75198675D01*
X54287303Y-75340000D01*
X54087489Y-75340000D01*
X53768713Y-75403408D01*
X53468432Y-75527789D01*
X53198186Y-75708361D01*
X52968361Y-75938186D01*
X52787789Y-76208432D01*
X52663408Y-76508713D01*
X52600000Y-76827489D01*
X40625000Y-76827489D01*
X40625000Y-73743922D01*
X46400000Y-73743922D01*
X46400000Y-74256078D01*
X46499917Y-74758392D01*
X46695910Y-75231562D01*
X46980448Y-75657403D01*
X47342597Y-76019552D01*
X47768438Y-76304090D01*
X48241608Y-76500083D01*
X48743922Y-76600000D01*
X49256078Y-76600000D01*
X49758392Y-76500083D01*
X50231562Y-76304090D01*
X50657403Y-76019552D01*
X51019552Y-75657403D01*
X51304090Y-75231562D01*
X51500083Y-74758392D01*
X51600000Y-74256078D01*
X51600000Y-73743922D01*
X51500083Y-73241608D01*
X51304090Y-72768438D01*
X51019552Y-72342597D01*
X50657403Y-71980448D01*
X50231562Y-71695910D01*
X49758392Y-71499917D01*
X49256078Y-71400000D01*
X48743922Y-71400000D01*
X48241608Y-71499917D01*
X47768438Y-71695910D01*
X47342597Y-71980448D01*
X46980448Y-72342597D01*
X46695910Y-72768438D01*
X46499917Y-73241608D01*
X46400000Y-73743922D01*
X40625000Y-73743922D01*
X40625000Y-67711161D01*
X49800971Y-67711161D01*
X50201379Y-68218977D01*
X50912556Y-68601721D01*
X51684738Y-68838367D01*
X52488249Y-68919820D01*
X53292212Y-68842952D01*
X54065731Y-68610714D01*
X54779079Y-68232034D01*
X54798621Y-68218977D01*
X55199029Y-67711161D01*
X55080854Y-67592986D01*
X64045954Y-67592986D01*
X64092033Y-67874870D01*
X64192220Y-68142347D01*
X64232033Y-68216830D01*
X64223683Y-68223683D01*
X64148704Y-68315045D01*
X64092990Y-68419279D01*
X64058682Y-68532379D01*
X64047097Y-68650000D01*
X64047097Y-70350000D01*
X64058682Y-70467621D01*
X64092990Y-70580721D01*
X64148704Y-70684955D01*
X64223683Y-70776317D01*
X64315045Y-70851296D01*
X64419279Y-70907010D01*
X64532379Y-70941318D01*
X64650000Y-70952903D01*
X66350000Y-70952903D01*
X66467621Y-70941318D01*
X66580721Y-70907010D01*
X66684955Y-70851296D01*
X66776317Y-70776317D01*
X66851296Y-70684955D01*
X66907010Y-70580721D01*
X66935661Y-70486271D01*
X67075679Y-70626289D01*
X67313167Y-70784973D01*
X67577051Y-70894277D01*
X67857187Y-70950000D01*
X68142813Y-70950000D01*
X68422949Y-70894277D01*
X68686833Y-70784973D01*
X68924321Y-70626289D01*
X69126289Y-70424321D01*
X69284973Y-70186833D01*
X69394277Y-69922949D01*
X69450000Y-69642813D01*
X69450000Y-69623767D01*
X86158995Y-69623767D01*
X86258833Y-69889908D01*
X86408674Y-70131457D01*
X86602760Y-70339133D01*
X86833632Y-70504954D01*
X87092418Y-70622548D01*
X87186234Y-70651000D01*
X87410000Y-70541317D01*
X87410000Y-69400000D01*
X86267774Y-69400000D01*
X86158995Y-69623767D01*
X69450000Y-69623767D01*
X69450000Y-69357187D01*
X69394277Y-69077051D01*
X69284973Y-68813167D01*
X69126289Y-68575679D01*
X69050610Y-68500000D01*
X69126289Y-68424321D01*
X69284973Y-68186833D01*
X69394277Y-67922949D01*
X69436404Y-67711161D01*
X74000971Y-67711161D01*
X74401379Y-68218977D01*
X75112556Y-68601721D01*
X75884738Y-68838367D01*
X76688249Y-68919820D01*
X77144125Y-68876233D01*
X86158995Y-68876233D01*
X86267774Y-69100000D01*
X87410000Y-69100000D01*
X87410000Y-67958683D01*
X87186234Y-67849000D01*
X87092418Y-67877452D01*
X86833632Y-67995046D01*
X86602760Y-68160867D01*
X86408674Y-68368543D01*
X86258833Y-68610092D01*
X86158995Y-68876233D01*
X77144125Y-68876233D01*
X77492212Y-68842952D01*
X78265731Y-68610714D01*
X78979079Y-68232034D01*
X78998621Y-68218977D01*
X79399029Y-67711161D01*
X76700000Y-65012132D01*
X74000971Y-67711161D01*
X69436404Y-67711161D01*
X69450000Y-67642813D01*
X69450000Y-67357187D01*
X69394277Y-67077051D01*
X69284973Y-66813167D01*
X69126289Y-66575679D01*
X68924321Y-66373711D01*
X68686833Y-66215027D01*
X68422949Y-66105723D01*
X68142813Y-66050000D01*
X67857187Y-66050000D01*
X67577051Y-66105723D01*
X67313167Y-66215027D01*
X67075679Y-66373711D01*
X66873711Y-66575679D01*
X66747289Y-66764884D01*
X66524159Y-66687973D01*
X65712132Y-67500000D01*
X65726275Y-67514143D01*
X65514143Y-67726275D01*
X65500000Y-67712132D01*
X65485858Y-67726275D01*
X65273726Y-67514143D01*
X65287868Y-67500000D01*
X64475841Y-66687973D01*
X64239345Y-66769491D01*
X64121052Y-67029469D01*
X64055752Y-67307529D01*
X64045954Y-67592986D01*
X55080854Y-67592986D01*
X52500000Y-65012132D01*
X49800971Y-67711161D01*
X40625000Y-67711161D01*
X40625000Y-64788249D01*
X48380180Y-64788249D01*
X48457048Y-65592212D01*
X48689286Y-66365731D01*
X49067966Y-67079079D01*
X49081023Y-67098621D01*
X49588839Y-67499029D01*
X52287868Y-64800000D01*
X52712132Y-64800000D01*
X55411161Y-67499029D01*
X55918977Y-67098621D01*
X56264749Y-66456140D01*
X59275992Y-66456140D01*
X59466177Y-66784699D01*
X59879607Y-66992931D01*
X60325717Y-67116506D01*
X60787364Y-67150674D01*
X61246806Y-67094123D01*
X61686387Y-66949026D01*
X61993823Y-66784699D01*
X62172604Y-66475841D01*
X64687973Y-66475841D01*
X65500000Y-67287868D01*
X66312027Y-66475841D01*
X66230509Y-66239345D01*
X65970531Y-66121052D01*
X65692471Y-66055752D01*
X65407014Y-66045954D01*
X65125130Y-66092033D01*
X64857653Y-66192220D01*
X64769491Y-66239345D01*
X64687973Y-66475841D01*
X62172604Y-66475841D01*
X62184008Y-66456140D01*
X60730000Y-65002132D01*
X59275992Y-66456140D01*
X56264749Y-66456140D01*
X56301721Y-66387444D01*
X56538367Y-65615262D01*
X56616209Y-64847364D01*
X58369326Y-64847364D01*
X58425877Y-65306806D01*
X58570974Y-65746387D01*
X58735301Y-66053823D01*
X59063860Y-66244008D01*
X60517868Y-64790000D01*
X60942132Y-64790000D01*
X62396140Y-66244008D01*
X62724699Y-66053823D01*
X62932931Y-65640393D01*
X63056506Y-65194283D01*
X63082182Y-64847364D01*
X70409326Y-64847364D01*
X70465877Y-65306806D01*
X70610974Y-65746387D01*
X70775301Y-66053823D01*
X71103860Y-66244008D01*
X72557868Y-64790000D01*
X71103860Y-63335992D01*
X70775301Y-63526177D01*
X70567069Y-63939607D01*
X70443494Y-64385717D01*
X70409326Y-64847364D01*
X63082182Y-64847364D01*
X63090674Y-64732636D01*
X63034123Y-64273194D01*
X62889026Y-63833613D01*
X62724699Y-63526177D01*
X62396140Y-63335992D01*
X60942132Y-64790000D01*
X60517868Y-64790000D01*
X59063860Y-63335992D01*
X58735301Y-63526177D01*
X58527069Y-63939607D01*
X58403494Y-64385717D01*
X58369326Y-64847364D01*
X56616209Y-64847364D01*
X56619820Y-64811751D01*
X56542952Y-64007788D01*
X56310714Y-63234269D01*
X56252104Y-63123860D01*
X59275992Y-63123860D01*
X60730000Y-64577868D01*
X62184008Y-63123860D01*
X71315992Y-63123860D01*
X72617015Y-64424883D01*
X72580180Y-64788249D01*
X72615410Y-65156722D01*
X71315992Y-66456140D01*
X71506177Y-66784699D01*
X71919607Y-66992931D01*
X72365717Y-67116506D01*
X72827364Y-67150674D01*
X73278685Y-67095123D01*
X73281023Y-67098621D01*
X73788839Y-67499029D01*
X76487868Y-64800000D01*
X76912132Y-64800000D01*
X79611161Y-67499029D01*
X79671428Y-67451509D01*
X82200000Y-67451509D01*
X82200000Y-67648491D01*
X82238429Y-67841689D01*
X82313811Y-68023678D01*
X82423249Y-68187463D01*
X82562537Y-68326751D01*
X82726322Y-68436189D01*
X82908311Y-68511571D01*
X83101509Y-68550000D01*
X83298491Y-68550000D01*
X83491689Y-68511571D01*
X83673678Y-68436189D01*
X83837463Y-68326751D01*
X83889216Y-68274998D01*
X84860786Y-68274998D01*
X84912537Y-68326749D01*
X85076322Y-68436187D01*
X85258311Y-68511569D01*
X85451509Y-68549998D01*
X85648491Y-68549998D01*
X85841689Y-68511569D01*
X86023678Y-68436187D01*
X86187463Y-68326749D01*
X86326751Y-68187461D01*
X86436189Y-68023676D01*
X86511571Y-67841687D01*
X86550000Y-67648489D01*
X86550000Y-67451507D01*
X86511571Y-67258309D01*
X86436189Y-67076320D01*
X86326751Y-66912535D01*
X86187463Y-66773247D01*
X86023678Y-66663809D01*
X85841689Y-66588427D01*
X85648491Y-66549998D01*
X85451509Y-66549998D01*
X85258311Y-66588427D01*
X85076322Y-66663809D01*
X84912537Y-66773247D01*
X84860786Y-66824998D01*
X83889212Y-66824998D01*
X83837463Y-66773249D01*
X83673678Y-66663811D01*
X83491689Y-66588429D01*
X83298491Y-66550000D01*
X83101509Y-66550000D01*
X82908311Y-66588429D01*
X82726322Y-66663811D01*
X82562537Y-66773249D01*
X82423249Y-66912537D01*
X82313811Y-67076322D01*
X82238429Y-67258311D01*
X82200000Y-67451509D01*
X79671428Y-67451509D01*
X80118977Y-67098621D01*
X80440333Y-66501509D01*
X99100000Y-66501509D01*
X99100000Y-66698491D01*
X99138429Y-66891689D01*
X99213811Y-67073678D01*
X99323249Y-67237463D01*
X99462537Y-67376751D01*
X99626322Y-67486189D01*
X99808311Y-67561571D01*
X100001509Y-67600000D01*
X100198491Y-67600000D01*
X100391689Y-67561571D01*
X100573678Y-67486189D01*
X100737463Y-67376751D01*
X100876751Y-67237463D01*
X100986189Y-67073678D01*
X101061571Y-66891689D01*
X101100000Y-66698491D01*
X101100000Y-66625305D01*
X101350305Y-66375000D01*
X110449696Y-66375000D01*
X112562172Y-68487477D01*
X112584868Y-68515132D01*
X112612523Y-68537828D01*
X112612525Y-68537830D01*
X112690377Y-68601721D01*
X112695263Y-68605731D01*
X112821212Y-68673053D01*
X112957875Y-68714509D01*
X113064393Y-68725000D01*
X113064403Y-68725000D01*
X113100000Y-68728506D01*
X113135597Y-68725000D01*
X115410786Y-68725000D01*
X115462537Y-68776751D01*
X115626322Y-68886189D01*
X115808311Y-68961571D01*
X116001509Y-69000000D01*
X116198491Y-69000000D01*
X116391689Y-68961571D01*
X116573678Y-68886189D01*
X116737463Y-68776751D01*
X116876751Y-68637463D01*
X116986189Y-68473678D01*
X117061571Y-68291689D01*
X117100000Y-68098491D01*
X117100000Y-67901509D01*
X117061571Y-67708311D01*
X116986189Y-67526322D01*
X116876751Y-67362537D01*
X116737463Y-67223249D01*
X116573678Y-67113811D01*
X116391689Y-67038429D01*
X116198491Y-67000000D01*
X116001509Y-67000000D01*
X115808311Y-67038429D01*
X115626322Y-67113811D01*
X115462537Y-67223249D01*
X115410786Y-67275000D01*
X113400305Y-67275000D01*
X111326814Y-65201509D01*
X118900000Y-65201509D01*
X118900000Y-65398491D01*
X118938429Y-65591689D01*
X119013811Y-65773678D01*
X119123249Y-65937463D01*
X119262537Y-66076751D01*
X119426322Y-66186189D01*
X119608311Y-66261571D01*
X119801509Y-66300000D01*
X119888280Y-66300000D01*
X119895263Y-66305731D01*
X120021212Y-66373053D01*
X120157875Y-66414509D01*
X120264393Y-66425000D01*
X120264402Y-66425000D01*
X120299999Y-66428506D01*
X120335596Y-66425000D01*
X130410786Y-66425000D01*
X130462537Y-66476751D01*
X130626322Y-66586189D01*
X130808311Y-66661571D01*
X131001509Y-66700000D01*
X131198491Y-66700000D01*
X131391689Y-66661571D01*
X131573678Y-66586189D01*
X131737463Y-66476751D01*
X131789214Y-66425000D01*
X137848741Y-66425000D01*
X137923683Y-66516317D01*
X138015045Y-66591296D01*
X138119279Y-66647010D01*
X138232379Y-66681318D01*
X138350000Y-66692903D01*
X140050000Y-66692903D01*
X140167621Y-66681318D01*
X140280721Y-66647010D01*
X140384955Y-66591296D01*
X140476317Y-66516317D01*
X140551296Y-66424955D01*
X140607010Y-66320721D01*
X140641318Y-66207621D01*
X140642725Y-66193335D01*
X140815679Y-66366289D01*
X141053167Y-66524973D01*
X141317051Y-66634277D01*
X141597187Y-66690000D01*
X141882813Y-66690000D01*
X142162949Y-66634277D01*
X142426833Y-66524973D01*
X142664321Y-66366289D01*
X142866289Y-66164321D01*
X143010000Y-65949242D01*
X143153711Y-66164321D01*
X143355679Y-66366289D01*
X143593167Y-66524973D01*
X143857051Y-66634277D01*
X144137187Y-66690000D01*
X144422813Y-66690000D01*
X144702949Y-66634277D01*
X144966833Y-66524973D01*
X145204321Y-66366289D01*
X145406289Y-66164321D01*
X145564973Y-65926833D01*
X145674277Y-65662949D01*
X145730000Y-65382813D01*
X145730000Y-65097187D01*
X145674277Y-64817051D01*
X145564973Y-64553167D01*
X145406289Y-64315679D01*
X145204321Y-64113711D01*
X144982771Y-63965677D01*
X145006368Y-63954954D01*
X145142488Y-63857187D01*
X148550000Y-63857187D01*
X148550000Y-64142813D01*
X148605723Y-64422949D01*
X148715027Y-64686833D01*
X148873711Y-64924321D01*
X149075679Y-65126289D01*
X149313167Y-65284973D01*
X149577051Y-65394277D01*
X149857187Y-65450000D01*
X150142813Y-65450000D01*
X150422949Y-65394277D01*
X150686833Y-65284973D01*
X150924321Y-65126289D01*
X151126289Y-64924321D01*
X151270000Y-64709242D01*
X151413711Y-64924321D01*
X151615679Y-65126289D01*
X151853167Y-65284973D01*
X152117051Y-65394277D01*
X152397187Y-65450000D01*
X152682813Y-65450000D01*
X152962949Y-65394277D01*
X153226833Y-65284973D01*
X153464321Y-65126289D01*
X153666289Y-64924321D01*
X153810000Y-64709242D01*
X153953711Y-64924321D01*
X154155679Y-65126289D01*
X154393167Y-65284973D01*
X154657051Y-65394277D01*
X154937187Y-65450000D01*
X155222813Y-65450000D01*
X155502949Y-65394277D01*
X155766833Y-65284973D01*
X156004321Y-65126289D01*
X156206289Y-64924321D01*
X156350000Y-64709242D01*
X156493711Y-64924321D01*
X156695679Y-65126289D01*
X156933167Y-65284973D01*
X157197051Y-65394277D01*
X157477187Y-65450000D01*
X157762813Y-65450000D01*
X158042949Y-65394277D01*
X158306833Y-65284973D01*
X158544321Y-65126289D01*
X158746289Y-64924321D01*
X158890000Y-64709242D01*
X159033711Y-64924321D01*
X159235679Y-65126289D01*
X159473167Y-65284973D01*
X159737051Y-65394277D01*
X160017187Y-65450000D01*
X160302813Y-65450000D01*
X160582949Y-65394277D01*
X160846833Y-65284973D01*
X161084321Y-65126289D01*
X161286289Y-64924321D01*
X161430000Y-64709242D01*
X161573711Y-64924321D01*
X161775679Y-65126289D01*
X162013167Y-65284973D01*
X162277051Y-65394277D01*
X162557187Y-65450000D01*
X162842813Y-65450000D01*
X163122949Y-65394277D01*
X163386833Y-65284973D01*
X163624321Y-65126289D01*
X163826289Y-64924321D01*
X163970000Y-64709242D01*
X164113711Y-64924321D01*
X164315679Y-65126289D01*
X164553167Y-65284973D01*
X164817051Y-65394277D01*
X165097187Y-65450000D01*
X165382813Y-65450000D01*
X165662949Y-65394277D01*
X165926833Y-65284973D01*
X166164321Y-65126289D01*
X166337275Y-64953335D01*
X166338682Y-64967621D01*
X166372990Y-65080721D01*
X166428704Y-65184955D01*
X166503683Y-65276317D01*
X166595045Y-65351296D01*
X166699279Y-65407010D01*
X166812379Y-65441318D01*
X166930000Y-65452903D01*
X168630000Y-65452903D01*
X168747621Y-65441318D01*
X168860721Y-65407010D01*
X168964955Y-65351296D01*
X169056317Y-65276317D01*
X169131296Y-65184955D01*
X169187010Y-65080721D01*
X169221318Y-64967621D01*
X169232903Y-64850000D01*
X169232903Y-63150000D01*
X176007097Y-63150000D01*
X176007097Y-64850000D01*
X176018682Y-64967621D01*
X176052990Y-65080721D01*
X176108704Y-65184955D01*
X176183683Y-65276317D01*
X176275045Y-65351296D01*
X176379279Y-65407010D01*
X176492379Y-65441318D01*
X176610000Y-65452903D01*
X178310000Y-65452903D01*
X178427621Y-65441318D01*
X178540721Y-65407010D01*
X178644955Y-65351296D01*
X178736317Y-65276317D01*
X178811296Y-65184955D01*
X178867010Y-65080721D01*
X178901318Y-64967621D01*
X178902725Y-64953335D01*
X179075679Y-65126289D01*
X179313167Y-65284973D01*
X179577051Y-65394277D01*
X179857187Y-65450000D01*
X180142813Y-65450000D01*
X180422949Y-65394277D01*
X180686833Y-65284973D01*
X180924321Y-65126289D01*
X181126289Y-64924321D01*
X181270000Y-64709242D01*
X181413711Y-64924321D01*
X181615679Y-65126289D01*
X181853167Y-65284973D01*
X182117051Y-65394277D01*
X182397187Y-65450000D01*
X182682813Y-65450000D01*
X182962949Y-65394277D01*
X183226833Y-65284973D01*
X183464321Y-65126289D01*
X183666289Y-64924321D01*
X183810000Y-64709242D01*
X183953711Y-64924321D01*
X184155679Y-65126289D01*
X184393167Y-65284973D01*
X184657051Y-65394277D01*
X184937187Y-65450000D01*
X185222813Y-65450000D01*
X185502949Y-65394277D01*
X185766833Y-65284973D01*
X186004321Y-65126289D01*
X186206289Y-64924321D01*
X186356141Y-64700050D01*
X186468674Y-64881457D01*
X186662760Y-65089133D01*
X186893632Y-65254954D01*
X187152418Y-65372548D01*
X187246234Y-65401000D01*
X187470000Y-65291317D01*
X187470000Y-64150000D01*
X187770000Y-64150000D01*
X187770000Y-65291317D01*
X187993766Y-65401000D01*
X188087582Y-65372548D01*
X188346368Y-65254954D01*
X188577240Y-65089133D01*
X188771326Y-64881457D01*
X188921167Y-64639908D01*
X189021005Y-64373767D01*
X188912226Y-64150000D01*
X187770000Y-64150000D01*
X187470000Y-64150000D01*
X187450000Y-64150000D01*
X187450000Y-63850000D01*
X187470000Y-63850000D01*
X187470000Y-62708683D01*
X187770000Y-62708683D01*
X187770000Y-63850000D01*
X188912226Y-63850000D01*
X189021005Y-63626233D01*
X188921167Y-63360092D01*
X188771326Y-63118543D01*
X188577240Y-62910867D01*
X188346368Y-62745046D01*
X188087582Y-62627452D01*
X187993766Y-62599000D01*
X187770000Y-62708683D01*
X187470000Y-62708683D01*
X187246234Y-62599000D01*
X187152418Y-62627452D01*
X186893632Y-62745046D01*
X186662760Y-62910867D01*
X186468674Y-63118543D01*
X186356141Y-63299950D01*
X186206289Y-63075679D01*
X186004321Y-62873711D01*
X185766833Y-62715027D01*
X185502949Y-62605723D01*
X185222813Y-62550000D01*
X184937187Y-62550000D01*
X184657051Y-62605723D01*
X184393167Y-62715027D01*
X184155679Y-62873711D01*
X183953711Y-63075679D01*
X183810000Y-63290758D01*
X183666289Y-63075679D01*
X183464321Y-62873711D01*
X183226833Y-62715027D01*
X182962949Y-62605723D01*
X182682813Y-62550000D01*
X182397187Y-62550000D01*
X182117051Y-62605723D01*
X181853167Y-62715027D01*
X181615679Y-62873711D01*
X181413711Y-63075679D01*
X181270000Y-63290758D01*
X181126289Y-63075679D01*
X180924321Y-62873711D01*
X180686833Y-62715027D01*
X180422949Y-62605723D01*
X180142813Y-62550000D01*
X179857187Y-62550000D01*
X179577051Y-62605723D01*
X179313167Y-62715027D01*
X179075679Y-62873711D01*
X178902725Y-63046665D01*
X178901318Y-63032379D01*
X178867010Y-62919279D01*
X178811296Y-62815045D01*
X178736317Y-62723683D01*
X178644955Y-62648704D01*
X178540721Y-62592990D01*
X178427621Y-62558682D01*
X178310000Y-62547097D01*
X176610000Y-62547097D01*
X176492379Y-62558682D01*
X176379279Y-62592990D01*
X176275045Y-62648704D01*
X176183683Y-62723683D01*
X176108704Y-62815045D01*
X176052990Y-62919279D01*
X176018682Y-63032379D01*
X176007097Y-63150000D01*
X169232903Y-63150000D01*
X169221318Y-63032379D01*
X169187010Y-62919279D01*
X169131296Y-62815045D01*
X169056317Y-62723683D01*
X168964955Y-62648704D01*
X168860721Y-62592990D01*
X168747621Y-62558682D01*
X168630000Y-62547097D01*
X166930000Y-62547097D01*
X166812379Y-62558682D01*
X166699279Y-62592990D01*
X166595045Y-62648704D01*
X166503683Y-62723683D01*
X166428704Y-62815045D01*
X166372990Y-62919279D01*
X166338682Y-63032379D01*
X166337275Y-63046665D01*
X166164321Y-62873711D01*
X165926833Y-62715027D01*
X165662949Y-62605723D01*
X165382813Y-62550000D01*
X165097187Y-62550000D01*
X164817051Y-62605723D01*
X164553167Y-62715027D01*
X164315679Y-62873711D01*
X164113711Y-63075679D01*
X163970000Y-63290758D01*
X163826289Y-63075679D01*
X163624321Y-62873711D01*
X163386833Y-62715027D01*
X163122949Y-62605723D01*
X162842813Y-62550000D01*
X162557187Y-62550000D01*
X162277051Y-62605723D01*
X162013167Y-62715027D01*
X161775679Y-62873711D01*
X161573711Y-63075679D01*
X161430000Y-63290758D01*
X161286289Y-63075679D01*
X161084321Y-62873711D01*
X160846833Y-62715027D01*
X160582949Y-62605723D01*
X160302813Y-62550000D01*
X160017187Y-62550000D01*
X159737051Y-62605723D01*
X159473167Y-62715027D01*
X159235679Y-62873711D01*
X159033711Y-63075679D01*
X158890000Y-63290758D01*
X158746289Y-63075679D01*
X158544321Y-62873711D01*
X158306833Y-62715027D01*
X158042949Y-62605723D01*
X157762813Y-62550000D01*
X157477187Y-62550000D01*
X157197051Y-62605723D01*
X156933167Y-62715027D01*
X156695679Y-62873711D01*
X156493711Y-63075679D01*
X156350000Y-63290758D01*
X156206289Y-63075679D01*
X156004321Y-62873711D01*
X155766833Y-62715027D01*
X155502949Y-62605723D01*
X155222813Y-62550000D01*
X154937187Y-62550000D01*
X154657051Y-62605723D01*
X154393167Y-62715027D01*
X154155679Y-62873711D01*
X153953711Y-63075679D01*
X153810000Y-63290758D01*
X153666289Y-63075679D01*
X153464321Y-62873711D01*
X153226833Y-62715027D01*
X152962949Y-62605723D01*
X152682813Y-62550000D01*
X152397187Y-62550000D01*
X152117051Y-62605723D01*
X151853167Y-62715027D01*
X151615679Y-62873711D01*
X151413711Y-63075679D01*
X151270000Y-63290758D01*
X151126289Y-63075679D01*
X150924321Y-62873711D01*
X150686833Y-62715027D01*
X150422949Y-62605723D01*
X150142813Y-62550000D01*
X149857187Y-62550000D01*
X149577051Y-62605723D01*
X149313167Y-62715027D01*
X149075679Y-62873711D01*
X148873711Y-63075679D01*
X148715027Y-63313167D01*
X148605723Y-63577051D01*
X148550000Y-63857187D01*
X145142488Y-63857187D01*
X145237240Y-63789133D01*
X145431326Y-63581457D01*
X145581167Y-63339908D01*
X145681005Y-63073767D01*
X145572226Y-62850000D01*
X144430000Y-62850000D01*
X144430000Y-62870000D01*
X144130000Y-62870000D01*
X144130000Y-62850000D01*
X144110000Y-62850000D01*
X144110000Y-62550000D01*
X144130000Y-62550000D01*
X144130000Y-61408683D01*
X144430000Y-61408683D01*
X144430000Y-62550000D01*
X145572226Y-62550000D01*
X145681005Y-62326233D01*
X145581167Y-62060092D01*
X145431326Y-61818543D01*
X145237240Y-61610867D01*
X145006368Y-61445046D01*
X144747582Y-61327452D01*
X144653766Y-61299000D01*
X144430000Y-61408683D01*
X144130000Y-61408683D01*
X143906234Y-61299000D01*
X143812418Y-61327452D01*
X143553632Y-61445046D01*
X143322760Y-61610867D01*
X143128674Y-61818543D01*
X143016141Y-61999950D01*
X142866289Y-61775679D01*
X142664321Y-61573711D01*
X142426833Y-61415027D01*
X142162949Y-61305723D01*
X141882813Y-61250000D01*
X141597187Y-61250000D01*
X141317051Y-61305723D01*
X141053167Y-61415027D01*
X140815679Y-61573711D01*
X140613711Y-61775679D01*
X140470000Y-61990758D01*
X140326289Y-61775679D01*
X140124321Y-61573711D01*
X139886833Y-61415027D01*
X139622949Y-61305723D01*
X139342813Y-61250000D01*
X139057187Y-61250000D01*
X138777051Y-61305723D01*
X138513167Y-61415027D01*
X138275679Y-61573711D01*
X138073711Y-61775679D01*
X137915027Y-62013167D01*
X137805723Y-62277051D01*
X137750000Y-62557187D01*
X137750000Y-62842813D01*
X137805723Y-63122949D01*
X137915027Y-63386833D01*
X138073711Y-63624321D01*
X138246665Y-63797275D01*
X138232379Y-63798682D01*
X138119279Y-63832990D01*
X138015045Y-63888704D01*
X137923683Y-63963683D01*
X137848704Y-64055045D01*
X137792990Y-64159279D01*
X137758682Y-64272379D01*
X137747097Y-64390000D01*
X137747097Y-64975000D01*
X131789214Y-64975000D01*
X131737463Y-64923249D01*
X131573678Y-64813811D01*
X131391689Y-64738429D01*
X131198491Y-64700000D01*
X131001509Y-64700000D01*
X130808311Y-64738429D01*
X130626322Y-64813811D01*
X130462537Y-64923249D01*
X130410786Y-64975000D01*
X120847773Y-64975000D01*
X120786189Y-64826322D01*
X120676751Y-64662537D01*
X120537463Y-64523249D01*
X120373678Y-64413811D01*
X120191689Y-64338429D01*
X119998491Y-64300000D01*
X119801509Y-64300000D01*
X119608311Y-64338429D01*
X119426322Y-64413811D01*
X119262537Y-64523249D01*
X119123249Y-64662537D01*
X119013811Y-64826322D01*
X118938429Y-65008311D01*
X118900000Y-65201509D01*
X111326814Y-65201509D01*
X111287832Y-65162528D01*
X111265132Y-65134868D01*
X111154737Y-65044269D01*
X111028788Y-64976947D01*
X110892125Y-64935491D01*
X110785607Y-64925000D01*
X110785597Y-64925000D01*
X110750000Y-64921494D01*
X110714403Y-64925000D01*
X101085597Y-64925000D01*
X101050000Y-64921494D01*
X101014403Y-64925000D01*
X101014393Y-64925000D01*
X100907875Y-64935491D01*
X100771212Y-64976947D01*
X100645263Y-65044269D01*
X100562525Y-65112170D01*
X100562523Y-65112172D01*
X100534868Y-65134868D01*
X100512172Y-65162523D01*
X100074695Y-65600000D01*
X100001509Y-65600000D01*
X99808311Y-65638429D01*
X99626322Y-65713811D01*
X99462537Y-65823249D01*
X99323249Y-65962537D01*
X99213811Y-66126322D01*
X99138429Y-66308311D01*
X99100000Y-66501509D01*
X80440333Y-66501509D01*
X80501721Y-66387444D01*
X80738367Y-65615262D01*
X80819820Y-64811751D01*
X80772188Y-64313571D01*
X80823683Y-64376317D01*
X80915045Y-64451296D01*
X81019279Y-64507010D01*
X81132379Y-64541318D01*
X81250000Y-64552903D01*
X81800000Y-64550000D01*
X81950000Y-64400000D01*
X81950000Y-63250000D01*
X80800000Y-63250000D01*
X80650000Y-63400000D01*
X80648453Y-63693040D01*
X80510714Y-63234269D01*
X80132034Y-62520921D01*
X80118977Y-62501379D01*
X79800167Y-62250000D01*
X80647097Y-62250000D01*
X80650000Y-62800000D01*
X80800000Y-62950000D01*
X81950000Y-62950000D01*
X81950000Y-61800000D01*
X82250000Y-61800000D01*
X82250000Y-62950000D01*
X82270000Y-62950000D01*
X82270000Y-63250000D01*
X82250000Y-63250000D01*
X82250000Y-64400000D01*
X82400000Y-64550000D01*
X82950000Y-64552903D01*
X83067621Y-64541318D01*
X83180721Y-64507010D01*
X83284955Y-64451296D01*
X83376317Y-64376317D01*
X83451296Y-64284955D01*
X83507010Y-64180721D01*
X83541318Y-64067621D01*
X83542725Y-64053335D01*
X83715679Y-64226289D01*
X83953167Y-64384973D01*
X84217051Y-64494277D01*
X84497187Y-64550000D01*
X84782813Y-64550000D01*
X85062949Y-64494277D01*
X85326833Y-64384973D01*
X85564321Y-64226289D01*
X85766289Y-64024321D01*
X85910000Y-63809242D01*
X86053711Y-64024321D01*
X86255679Y-64226289D01*
X86493167Y-64384973D01*
X86757051Y-64494277D01*
X87037187Y-64550000D01*
X87322813Y-64550000D01*
X87602949Y-64494277D01*
X87866833Y-64384973D01*
X88104321Y-64226289D01*
X88306289Y-64024321D01*
X88450000Y-63809242D01*
X88593711Y-64024321D01*
X88795679Y-64226289D01*
X89033167Y-64384973D01*
X89297051Y-64494277D01*
X89577187Y-64550000D01*
X89862813Y-64550000D01*
X90142949Y-64494277D01*
X90406833Y-64384973D01*
X90644321Y-64226289D01*
X90846289Y-64024321D01*
X91004973Y-63786833D01*
X91114277Y-63522949D01*
X91170000Y-63242813D01*
X91170000Y-62957187D01*
X91150109Y-62857187D01*
X92050000Y-62857187D01*
X92050000Y-63142813D01*
X92105723Y-63422949D01*
X92215027Y-63686833D01*
X92373711Y-63924321D01*
X92575679Y-64126289D01*
X92813167Y-64284973D01*
X93077051Y-64394277D01*
X93357187Y-64450000D01*
X93642813Y-64450000D01*
X93922949Y-64394277D01*
X94186833Y-64284973D01*
X94424321Y-64126289D01*
X94626289Y-63924321D01*
X94770000Y-63709242D01*
X94913711Y-63924321D01*
X95115679Y-64126289D01*
X95353167Y-64284973D01*
X95617051Y-64394277D01*
X95897187Y-64450000D01*
X96182813Y-64450000D01*
X96462949Y-64394277D01*
X96726833Y-64284973D01*
X96964321Y-64126289D01*
X97166289Y-63924321D01*
X97310000Y-63709242D01*
X97453711Y-63924321D01*
X97655679Y-64126289D01*
X97893167Y-64284973D01*
X98157051Y-64394277D01*
X98437187Y-64450000D01*
X98722813Y-64450000D01*
X99002949Y-64394277D01*
X99266833Y-64284973D01*
X99504321Y-64126289D01*
X99706289Y-63924321D01*
X99850000Y-63709242D01*
X99993711Y-63924321D01*
X100195679Y-64126289D01*
X100433167Y-64284973D01*
X100697051Y-64394277D01*
X100977187Y-64450000D01*
X101262813Y-64450000D01*
X101542949Y-64394277D01*
X101806833Y-64284973D01*
X102044321Y-64126289D01*
X102246289Y-63924321D01*
X102390000Y-63709242D01*
X102533711Y-63924321D01*
X102735679Y-64126289D01*
X102973167Y-64284973D01*
X103237051Y-64394277D01*
X103517187Y-64450000D01*
X103802813Y-64450000D01*
X104082949Y-64394277D01*
X104346833Y-64284973D01*
X104584321Y-64126289D01*
X104786289Y-63924321D01*
X104930000Y-63709242D01*
X105073711Y-63924321D01*
X105275679Y-64126289D01*
X105513167Y-64284973D01*
X105777051Y-64394277D01*
X106057187Y-64450000D01*
X106342813Y-64450000D01*
X106622949Y-64394277D01*
X106886833Y-64284973D01*
X107124321Y-64126289D01*
X107326289Y-63924321D01*
X107470000Y-63709242D01*
X107613711Y-63924321D01*
X107815679Y-64126289D01*
X108053167Y-64284973D01*
X108317051Y-64394277D01*
X108597187Y-64450000D01*
X108882813Y-64450000D01*
X109162949Y-64394277D01*
X109426833Y-64284973D01*
X109664321Y-64126289D01*
X109866289Y-63924321D01*
X110010000Y-63709242D01*
X110153711Y-63924321D01*
X110355679Y-64126289D01*
X110593167Y-64284973D01*
X110857051Y-64394277D01*
X111137187Y-64450000D01*
X111422813Y-64450000D01*
X111702949Y-64394277D01*
X111966833Y-64284973D01*
X112204321Y-64126289D01*
X112406289Y-63924321D01*
X112550000Y-63709242D01*
X112693711Y-63924321D01*
X112895679Y-64126289D01*
X113133167Y-64284973D01*
X113397051Y-64394277D01*
X113677187Y-64450000D01*
X113962813Y-64450000D01*
X114242949Y-64394277D01*
X114506833Y-64284973D01*
X114744321Y-64126289D01*
X114946289Y-63924321D01*
X115090000Y-63709242D01*
X115233711Y-63924321D01*
X115435679Y-64126289D01*
X115673167Y-64284973D01*
X115937051Y-64394277D01*
X116217187Y-64450000D01*
X116502813Y-64450000D01*
X116782949Y-64394277D01*
X117046833Y-64284973D01*
X117284321Y-64126289D01*
X117486289Y-63924321D01*
X117630000Y-63709242D01*
X117773711Y-63924321D01*
X117975679Y-64126289D01*
X118213167Y-64284973D01*
X118477051Y-64394277D01*
X118757187Y-64450000D01*
X119042813Y-64450000D01*
X119322949Y-64394277D01*
X119586833Y-64284973D01*
X119824321Y-64126289D01*
X120026289Y-63924321D01*
X120170000Y-63709242D01*
X120313711Y-63924321D01*
X120515679Y-64126289D01*
X120753167Y-64284973D01*
X121017051Y-64394277D01*
X121297187Y-64450000D01*
X121582813Y-64450000D01*
X121862949Y-64394277D01*
X122126833Y-64284973D01*
X122364321Y-64126289D01*
X122566289Y-63924321D01*
X122710000Y-63709242D01*
X122853711Y-63924321D01*
X123055679Y-64126289D01*
X123293167Y-64284973D01*
X123557051Y-64394277D01*
X123837187Y-64450000D01*
X124122813Y-64450000D01*
X124402949Y-64394277D01*
X124666833Y-64284973D01*
X124904321Y-64126289D01*
X125106289Y-63924321D01*
X125250000Y-63709242D01*
X125393711Y-63924321D01*
X125595679Y-64126289D01*
X125833167Y-64284973D01*
X126097051Y-64394277D01*
X126377187Y-64450000D01*
X126662813Y-64450000D01*
X126942949Y-64394277D01*
X127206833Y-64284973D01*
X127444321Y-64126289D01*
X127646289Y-63924321D01*
X127790000Y-63709242D01*
X127933711Y-63924321D01*
X128135679Y-64126289D01*
X128373167Y-64284973D01*
X128637051Y-64394277D01*
X128917187Y-64450000D01*
X129202813Y-64450000D01*
X129482949Y-64394277D01*
X129746833Y-64284973D01*
X129984321Y-64126289D01*
X130157275Y-63953335D01*
X130158682Y-63967621D01*
X130192990Y-64080721D01*
X130248704Y-64184955D01*
X130323683Y-64276317D01*
X130415045Y-64351296D01*
X130519279Y-64407010D01*
X130632379Y-64441318D01*
X130750000Y-64452903D01*
X132450000Y-64452903D01*
X132567621Y-64441318D01*
X132680721Y-64407010D01*
X132784955Y-64351296D01*
X132876317Y-64276317D01*
X132951296Y-64184955D01*
X133007010Y-64080721D01*
X133041318Y-63967621D01*
X133052903Y-63850000D01*
X133052903Y-62150000D01*
X133041318Y-62032379D01*
X133007010Y-61919279D01*
X132951296Y-61815045D01*
X132876317Y-61723683D01*
X132784955Y-61648704D01*
X132680721Y-61592990D01*
X132567621Y-61558682D01*
X132450000Y-61547097D01*
X130750000Y-61547097D01*
X130632379Y-61558682D01*
X130519279Y-61592990D01*
X130415045Y-61648704D01*
X130323683Y-61723683D01*
X130248704Y-61815045D01*
X130192990Y-61919279D01*
X130158682Y-62032379D01*
X130157275Y-62046665D01*
X129984321Y-61873711D01*
X129746833Y-61715027D01*
X129482949Y-61605723D01*
X129202813Y-61550000D01*
X128917187Y-61550000D01*
X128637051Y-61605723D01*
X128373167Y-61715027D01*
X128135679Y-61873711D01*
X127933711Y-62075679D01*
X127790000Y-62290758D01*
X127646289Y-62075679D01*
X127444321Y-61873711D01*
X127206833Y-61715027D01*
X126942949Y-61605723D01*
X126662813Y-61550000D01*
X126377187Y-61550000D01*
X126097051Y-61605723D01*
X125833167Y-61715027D01*
X125595679Y-61873711D01*
X125393711Y-62075679D01*
X125250000Y-62290758D01*
X125106289Y-62075679D01*
X124904321Y-61873711D01*
X124666833Y-61715027D01*
X124402949Y-61605723D01*
X124122813Y-61550000D01*
X123837187Y-61550000D01*
X123557051Y-61605723D01*
X123293167Y-61715027D01*
X123055679Y-61873711D01*
X122853711Y-62075679D01*
X122710000Y-62290758D01*
X122566289Y-62075679D01*
X122364321Y-61873711D01*
X122126833Y-61715027D01*
X121862949Y-61605723D01*
X121582813Y-61550000D01*
X121297187Y-61550000D01*
X121017051Y-61605723D01*
X120753167Y-61715027D01*
X120515679Y-61873711D01*
X120313711Y-62075679D01*
X120170000Y-62290758D01*
X120026289Y-62075679D01*
X119824321Y-61873711D01*
X119586833Y-61715027D01*
X119322949Y-61605723D01*
X119042813Y-61550000D01*
X118757187Y-61550000D01*
X118477051Y-61605723D01*
X118213167Y-61715027D01*
X117975679Y-61873711D01*
X117773711Y-62075679D01*
X117630000Y-62290758D01*
X117486289Y-62075679D01*
X117284321Y-61873711D01*
X117046833Y-61715027D01*
X116782949Y-61605723D01*
X116502813Y-61550000D01*
X116217187Y-61550000D01*
X115937051Y-61605723D01*
X115673167Y-61715027D01*
X115435679Y-61873711D01*
X115233711Y-62075679D01*
X115090000Y-62290758D01*
X114946289Y-62075679D01*
X114744321Y-61873711D01*
X114506833Y-61715027D01*
X114242949Y-61605723D01*
X113962813Y-61550000D01*
X113677187Y-61550000D01*
X113397051Y-61605723D01*
X113133167Y-61715027D01*
X112895679Y-61873711D01*
X112693711Y-62075679D01*
X112550000Y-62290758D01*
X112406289Y-62075679D01*
X112204321Y-61873711D01*
X111966833Y-61715027D01*
X111702949Y-61605723D01*
X111422813Y-61550000D01*
X111137187Y-61550000D01*
X110857051Y-61605723D01*
X110593167Y-61715027D01*
X110355679Y-61873711D01*
X110153711Y-62075679D01*
X110010000Y-62290758D01*
X109866289Y-62075679D01*
X109664321Y-61873711D01*
X109426833Y-61715027D01*
X109162949Y-61605723D01*
X108882813Y-61550000D01*
X108597187Y-61550000D01*
X108317051Y-61605723D01*
X108053167Y-61715027D01*
X107815679Y-61873711D01*
X107613711Y-62075679D01*
X107470000Y-62290758D01*
X107326289Y-62075679D01*
X107124321Y-61873711D01*
X106886833Y-61715027D01*
X106622949Y-61605723D01*
X106342813Y-61550000D01*
X106057187Y-61550000D01*
X105777051Y-61605723D01*
X105513167Y-61715027D01*
X105275679Y-61873711D01*
X105073711Y-62075679D01*
X104930000Y-62290758D01*
X104786289Y-62075679D01*
X104584321Y-61873711D01*
X104346833Y-61715027D01*
X104082949Y-61605723D01*
X103802813Y-61550000D01*
X103517187Y-61550000D01*
X103237051Y-61605723D01*
X102973167Y-61715027D01*
X102735679Y-61873711D01*
X102533711Y-62075679D01*
X102390000Y-62290758D01*
X102246289Y-62075679D01*
X102044321Y-61873711D01*
X101806833Y-61715027D01*
X101542949Y-61605723D01*
X101262813Y-61550000D01*
X100977187Y-61550000D01*
X100697051Y-61605723D01*
X100433167Y-61715027D01*
X100195679Y-61873711D01*
X99993711Y-62075679D01*
X99850000Y-62290758D01*
X99706289Y-62075679D01*
X99504321Y-61873711D01*
X99266833Y-61715027D01*
X99002949Y-61605723D01*
X98722813Y-61550000D01*
X98437187Y-61550000D01*
X98157051Y-61605723D01*
X97893167Y-61715027D01*
X97655679Y-61873711D01*
X97453711Y-62075679D01*
X97310000Y-62290758D01*
X97166289Y-62075679D01*
X96964321Y-61873711D01*
X96726833Y-61715027D01*
X96462949Y-61605723D01*
X96182813Y-61550000D01*
X95897187Y-61550000D01*
X95617051Y-61605723D01*
X95353167Y-61715027D01*
X95115679Y-61873711D01*
X94913711Y-62075679D01*
X94770000Y-62290758D01*
X94626289Y-62075679D01*
X94424321Y-61873711D01*
X94186833Y-61715027D01*
X93922949Y-61605723D01*
X93642813Y-61550000D01*
X93357187Y-61550000D01*
X93077051Y-61605723D01*
X92813167Y-61715027D01*
X92575679Y-61873711D01*
X92373711Y-62075679D01*
X92215027Y-62313167D01*
X92105723Y-62577051D01*
X92050000Y-62857187D01*
X91150109Y-62857187D01*
X91114277Y-62677051D01*
X91004973Y-62413167D01*
X90846289Y-62175679D01*
X90644321Y-61973711D01*
X90406833Y-61815027D01*
X90142949Y-61705723D01*
X89862813Y-61650000D01*
X89577187Y-61650000D01*
X89297051Y-61705723D01*
X89033167Y-61815027D01*
X88795679Y-61973711D01*
X88593711Y-62175679D01*
X88450000Y-62390758D01*
X88306289Y-62175679D01*
X88104321Y-61973711D01*
X87866833Y-61815027D01*
X87602949Y-61705723D01*
X87322813Y-61650000D01*
X87037187Y-61650000D01*
X86757051Y-61705723D01*
X86493167Y-61815027D01*
X86255679Y-61973711D01*
X86053711Y-62175679D01*
X85910000Y-62390758D01*
X85766289Y-62175679D01*
X85564321Y-61973711D01*
X85326833Y-61815027D01*
X85062949Y-61705723D01*
X84782813Y-61650000D01*
X84497187Y-61650000D01*
X84217051Y-61705723D01*
X83953167Y-61815027D01*
X83715679Y-61973711D01*
X83542725Y-62146665D01*
X83541318Y-62132379D01*
X83507010Y-62019279D01*
X83451296Y-61915045D01*
X83376317Y-61823683D01*
X83284955Y-61748704D01*
X83180721Y-61692990D01*
X83067621Y-61658682D01*
X82950000Y-61647097D01*
X82400000Y-61650000D01*
X82250000Y-61800000D01*
X81950000Y-61800000D01*
X81800000Y-61650000D01*
X81250000Y-61647097D01*
X81132379Y-61658682D01*
X81019279Y-61692990D01*
X80915045Y-61748704D01*
X80823683Y-61823683D01*
X80748704Y-61915045D01*
X80692990Y-62019279D01*
X80658682Y-62132379D01*
X80647097Y-62250000D01*
X79800167Y-62250000D01*
X79611161Y-62100971D01*
X76912132Y-64800000D01*
X76487868Y-64800000D01*
X73788839Y-62100971D01*
X73288829Y-62495224D01*
X73174283Y-62463494D01*
X72712636Y-62429326D01*
X72253194Y-62485877D01*
X71813613Y-62630974D01*
X71506177Y-62795301D01*
X71315992Y-63123860D01*
X62184008Y-63123860D01*
X61993823Y-62795301D01*
X61580393Y-62587069D01*
X61134283Y-62463494D01*
X60672636Y-62429326D01*
X60213194Y-62485877D01*
X59773613Y-62630974D01*
X59466177Y-62795301D01*
X59275992Y-63123860D01*
X56252104Y-63123860D01*
X55932034Y-62520921D01*
X55918977Y-62501379D01*
X55411161Y-62100971D01*
X52712132Y-64800000D01*
X52287868Y-64800000D01*
X49588839Y-62100971D01*
X49081023Y-62501379D01*
X48698279Y-63212556D01*
X48461633Y-63984738D01*
X48380180Y-64788249D01*
X40625000Y-64788249D01*
X40625000Y-61888839D01*
X49800971Y-61888839D01*
X52500000Y-64587868D01*
X55199029Y-61888839D01*
X74000971Y-61888839D01*
X76700000Y-64587868D01*
X79399029Y-61888839D01*
X78998621Y-61381023D01*
X78287444Y-60998279D01*
X77515262Y-60761633D01*
X76711751Y-60680180D01*
X75907788Y-60757048D01*
X75134269Y-60989286D01*
X74420921Y-61367966D01*
X74401379Y-61381023D01*
X74000971Y-61888839D01*
X55199029Y-61888839D01*
X54798621Y-61381023D01*
X54087444Y-60998279D01*
X53315262Y-60761633D01*
X52511751Y-60680180D01*
X51707788Y-60757048D01*
X50934269Y-60989286D01*
X50220921Y-61367966D01*
X50201379Y-61381023D01*
X49800971Y-61888839D01*
X40625000Y-61888839D01*
X40625000Y-60625000D01*
X189375001Y-60625000D01*
X189375000Y-96375000D01*
M02*
